<svg id="beginner-mv-icon" xmlns="http://www.w3.org/2000/svg" width="45.492" height="60.395" viewBox="0 0 45.492 60.395">
  <path id="パス_23319" data-name="パス 23319" d="M-14925.653,5237.514a2.356,2.356,0,0,1,1.55-1.941,3.043,3.043,0,0,1,2.793,0l16.054,9.709v45.655l-20.4-11.863Z" transform="translate(14927.999 -5232.889)" fill="#fff"/>
  <path id="パス_23320" data-name="パス 23320" d="M-14905.257,5237.514a2.354,2.354,0,0,0-1.547-1.941,3.05,3.05,0,0,0-2.8,0l-16.053,9.709v45.655l20.4-11.863Z" transform="translate(14948.4 -5232.889)" fill="#19cecd"/>
  <path id="合体_26" data-name="合体 26" d="M21.247,58.895a2.624,2.624,0,0,1-1.327-.353l-20.4-12A1.955,1.955,0,0,1-1.5,44.876V2.828A4.391,4.391,0,0,1,1.23-.894,5.817,5.817,0,0,1,3.812-1.5a5.379,5.379,0,0,1,2.746.717L21.247,8.205,35.94-.787A5.386,5.386,0,0,1,38.68-1.5a5.813,5.813,0,0,1,2.579.6,4.393,4.393,0,0,1,2.733,3.724V44.876a1.955,1.955,0,0,1-1.022,1.665l-20.4,12A2.624,2.624,0,0,1,21.247,58.895ZM3.2,43.812l18.05,10.62L39.3,43.812V2.924c-.023-.06-.1-.186-.368-.317a.6.6,0,0,0-.249-.072.34.34,0,0,0-.1.015L22.609,12.326a2.666,2.666,0,0,1-2.724,0L3.91,2.551a.34.34,0,0,0-.1-.015.6.6,0,0,0-.251.074c-.264.13-.342.255-.365.315Z" transform="translate(1.5 1.5)" fill="#060000"/>
</svg>
