<svg xmlns="http://www.w3.org/2000/svg" width="207" height="39" viewBox="0 0 207 39">
  <g id="blog-tag-red" transform="translate(-2 -2.666)">
    <rect id="長方形_141" data-name="長方形 141" width="207" height="39" rx="4" transform="translate(2 2.666)" fill="#e06b64"/>
    <g id="グループ_1952" data-name="グループ 1952">
      <text id="合わせて読みたい" transform="translate(44 29.666)" fill="#fff" font-size="19" font-family="HiraKakuProN-W6, Hiragino Kaku Gothic ProN" letter-spacing="-0.02em"><tspan x="0" y="0">合わせて読みたい</tspan></text>
      <path id="パス_2535" data-name="パス 2535" d="M16,2v9H11v5H2V2Zm0-2H2A2.006,2.006,0,0,0,0,2V16a2.006,2.006,0,0,0,2,2H12l6-6V2A2.006,2.006,0,0,0,16,0ZM9,11H4V9H9Zm5-4H4V5H14Z" transform="translate(18 13.663)" fill="#fff"/>
    </g>
  </g>
</svg>
