<svg xmlns="http://www.w3.org/2000/svg" width="41" height="41" viewBox="0 0 41 41">
  <g id="check_icon" transform="translate(-529 -13268)">
    <circle id="楕円形_141" data-name="楕円形 141" cx="20.5" cy="20.5" r="20.5" transform="translate(529 13268)" fill="#393939"/>
    <path id="パス_23988" data-name="パス 23988" d="M21.519.324a28.335,28.335,0,0,1-1.377-3.186L14.148-18.441a17.878,17.878,0,0,1-.918-2.727h-4.7a15.992,15.992,0,0,1-.864,2.727L1.728-2.862A29.513,29.513,0,0,1,.3.324H4.725a13.466,13.466,0,0,1,.81-2.835l1.08-2.943h8.64l1.08,2.943A18.155,18.155,0,0,1,17.091.324ZM14.283-8.559h-6.7l2.808-7.992c.081-.243.081-.243.513-1.512.3.891.378,1.215.486,1.512Z" transform="translate(539 13299)" fill="#fff"/>
  </g>
</svg>
