<svg xmlns="http://www.w3.org/2000/svg" xmlns:xlink="http://www.w3.org/1999/xlink" width="394" height="240" viewBox="0 0 394 240">
  <defs>
    <clipPath id="clip-path">
      <rect id="長方形_570" data-name="長方形 570" width="394" height="240" transform="translate(1028 3300)" fill="rgba(168,67,67,0.11)"/>
    </clipPath>
    <clipPath id="clip-path-2">
      <rect id="長方形_419" data-name="長方形 419" width="200" height="228" transform="translate(1210 3340.473)" fill="#fff" stroke="#707070" stroke-width="1"/>
    </clipPath>
    <clipPath id="clip-path-3">
      <rect id="長方形_382" data-name="長方形 382" width="170.028" height="269.185" fill="none"/>
    </clipPath>
  </defs>
  <g id="flow-step01" transform="translate(-1028 -3300)">
    <g id="マスクグループ_186" data-name="マスクグループ 186" clip-path="url(#clip-path)">
      <g id="グループ_2059" data-name="グループ 2059" transform="translate(1047.999 3342)">
        <g id="グループ_2057" data-name="グループ 2057" transform="translate(6 40)">
          <g id="グループ_166" data-name="グループ 166">
            <rect id="長方形_130" data-name="長方形 130" width="164" height="63" rx="10" transform="translate(5.001 0)" fill="#f5f6f9"/>
            <text id="あ_さっき登録した_マイナビ保育士だ_" data-name="あ！さっき登録した
マイナビ保育士だ！" transform="translate(87.001 27)" fill="#060000" font-size="15" font-family="HiraKakuProN-W6, Hiragino Kaku Gothic ProN" letter-spacing="-0.02em"><tspan x="-66.3" y="0">あ！さっき登録した</tspan><tspan x="-65.625" y="20">マイナビ保育士だ！</tspan></text>
          </g>
        </g>
      </g>
      <g id="マスクグループ_156" data-name="マスクグループ 156" transform="translate(-11 -29.473)" clip-path="url(#clip-path-2)">
        <g id="step01_illust" data-name="step01 illust" transform="translate(1228.719 3355.335)">
          <g id="グループ_2543" data-name="グループ 2543" clip-path="url(#clip-path-3)">
            <path id="パス_20809" data-name="パス 20809" d="M171.853,667.9l-15.491,9.168-5.766-7.342-3.719.7-6.323,7.9-26.872,11.065-7.271,33.827-2.845-6.323s-.632,11.381-7.271,13.91-12.013-6.639-12.013-6.639l-2.213-3.161.632,49.318s-.948,4.742,5.374,9.484,14.226,6.955,18.652,1.9a23.675,23.675,0,0,0,5.374-10.117l6.955-24.343,4.11,61.016.632,39.518h94.842l-1.265-40.466v-22.13a14.686,14.686,0,0,0,13.594-1.265c7.271-4.426,7.587-8.22,7.9-11.065s.316-29.085-1.265-50.267-4.426-38.57-4.426-38.57-.948-3.161-3.161-3.477a17.833,17.833,0,0,0-4.426,0l-39.2-12.33s-7.9,1.9-14.543-.316" transform="translate(-71.278 -580.073)" fill="#ffec00"/>
            <path id="パス_20810" data-name="パス 20810" d="M385.007,235.759s1.581,24.343,6.639,36.04,8.536,12.014,12.013,13.278a19.143,19.143,0,0,0,7.05,1l7.809,17.333,16.439-11.381s-7.539-7.51-6.3-14.03,7.879-19.482,7.879-19.482,6.323-13.594.316-17.7-15.491-5.69-15.491-5.69Z" transform="translate(-334.382 -204.21)" fill="#fff"/>
            <path id="パス_20811" data-name="パス 20811" d="M25.815,532.687l-9.573-17.351,22.138-4.188,15.855,32.31L40.773,549.44l8.376-11.967s1.5-5.086-4.188-1.795l-5.684,3.291L32.4,546.747s-.6-22.437-2.692-21.839-3.889,7.778-3.889,7.778" transform="translate(-14.106 -443.936)" fill="#fff"/>
            <path id="パス_20812" data-name="パス 20812" d="M350.686,44.127a73.114,73.114,0,0,0,20.343,6.283,74.812,74.812,0,0,0,21.839,0l3.889,8.376s2.393-8.376,7.18-7.18,6.282,9.872.3,17.052A105.233,105.233,0,0,0,398.851,88.4c-1.5,9.872,7.479,15.556,17.052,13.462s11.368-7.18,10.77-24.531-6.881-37.694-11.667-46.669S399.748,13.613,382.4,18.1s-28.42,17.95-31.711,26.027" transform="translate(-304.574 -14.61)" fill="#f49902"/>
            <path id="パス_20813" data-name="パス 20813" d="M484.919,599.877s2.094,13.761,15.556,10.77l-2.992-7.778a13.9,13.9,0,0,1-12.565-2.992" transform="translate(-421.156 -520.999)" fill="#f49902"/>
            <path id="パス_20814" data-name="パス 20814" d="M82.069,675.513s1.822,9.4,9.563,10.575,10.791-5.4,11.495-7.272,0-9.853,0-9.853l2.111-12.9s13.372-13.137,12.2-14.076l-1.173-.938s1.877-7.741,0-7.976-18.32,7.012-18.32,7.012,12.455-15.692,9.171-15.222-10.667,4.752-10.667,4.752l-6.881,7.778s-.177-22.937-2.693-21.839a5.938,5.938,0,0,0-3.219,3.21Z" transform="translate(-71.278 -534.579)" fill="#fff"/>
            <path id="パス_20815" data-name="パス 20815" d="M639.114,738.754s-16.89-2.346-16.89-.7,16.421,10.087,16.421,10.087l-6.1,2.58,1.877,3.519-5.63,3.284,2.111,2.815-4.223,3.988,4.223,11.729a14.031,14.031,0,0,0,2.58-3.05,35.8,35.8,0,0,0,2.346-4.926s3.988,19.471,15.248,19.706c0,0,9.618-3.284,11.495-8.914,0,0-7.507-25.8-7.272-26.509s-16.187-13.606-16.187-13.606" transform="translate(-540.407 -640.496)" fill="#fff"/>
            <path id="パス_20816" data-name="パス 20816" d="M365.664,230.7c.038,1.031.109,2.062.184,3.091q.286,3.935.778,7.852c.453,3.625,1.012,7.238,1.755,10.816A81.808,81.808,0,0,0,371.4,263.4a52.818,52.818,0,0,0,4.491,9.925,24.54,24.54,0,0,0,2.486,3.386,16.5,16.5,0,0,0,8.327,5.048,14.821,14.821,0,0,0,3.723.563,27.315,27.315,0,0,0,4.45-.356,57.016,57.016,0,0,0,8.162-1.891c1.668-.5,3.325-1.044,4.957-1.651l.239-.09a2.139,2.139,0,0,0,1.179-.906,1.972,1.972,0,0,0-.708-2.7,1.928,1.928,0,0,0-1.52-.2c-.947.364-1.909.691-2.872,1.009-2.168.716-4.365,1.355-6.589,1.874-1.4.327-2.821.605-4.25.8l.524-.07a19.306,19.306,0,0,1-5.012.133l.524.07a16.177,16.177,0,0,1-4.036-1.174l.471.2a14.083,14.083,0,0,1-3.13-1.817l.4.308a16.037,16.037,0,0,1-2.807-2.855l.308.4a29.807,29.807,0,0,1-3.261-5.5c-.324-.684-.63-1.376-.925-2.073l.2.471a74.724,74.724,0,0,1-3.261-9.469c-.832-3.073-1.487-6.193-2.027-9.33q-.428-2.486-.762-4.986l.07.524q-.484-3.6-.8-7.224c-.126-1.458-.234-2.918-.31-4.379-.013-.244-.025-.487-.034-.731a2.066,2.066,0,0,0-.578-1.395,1.972,1.972,0,0,0-3.367,1.395" transform="translate(-317.581 -198.655)" fill="#060000"/>
            <path id="パス_20817" data-name="パス 20817" d="M490.014,350.17v10.9a2.035,2.035,0,0,0,.578,1.395,1.973,1.973,0,0,0,2.789,0,2.05,2.05,0,0,0,.578-1.395v-10.9a2.035,2.035,0,0,0-.578-1.395,1.973,1.973,0,0,0-2.789,0,2.05,2.05,0,0,0-.578,1.395" transform="translate(-425.581 -302.411)" fill="#060000"/>
            <path id="パス_20818" data-name="パス 20818" d="M431.026,378.97a2.035,2.035,0,0,0,1.395-.578,1.973,1.973,0,0,0,0-2.789,1.973,1.973,0,0,0-2.789,0,1.973,1.973,0,0,0,0,2.789,2.05,2.05,0,0,0,1.395.578" transform="translate(-372.635 -325.713)" fill="#060000"/>
            <path id="パス_20819" data-name="パス 20819" d="M577.31,352.151a2.035,2.035,0,0,0,1.395-.578,1.972,1.972,0,0,0,0-2.789,1.973,1.973,0,0,0-2.789,0,1.973,1.973,0,0,0,0,2.789,2.05,2.05,0,0,0,1.395.578" transform="translate(-499.685 -302.42)" fill="#060000"/>
            <path id="パス_20820" data-name="パス 20820" d="M390.1,315.241l.2-.027-.524.07a36.857,36.857,0,0,1,4.478-.382,8.489,8.489,0,0,1,1.217.056l-.524-.07c.066.009.132.02.2.033a2.11,2.11,0,0,0,1.52-.2,1.972,1.972,0,0,0,.708-2.7,1.95,1.95,0,0,0-1.179-.906,12.619,12.619,0,0,0-3.289-.1c-.924.063-1.846.16-2.765.277-.362.046-.724.093-1.085.145a2.208,2.208,0,0,0-1.179.906,1.972,1.972,0,0,0,.708,2.7l.471.2a1.988,1.988,0,0,0,1.049,0" transform="translate(-336.639 -270.069)" fill="#060000"/>
            <path id="パス_20821" data-name="パス 20821" d="M536.895,268.044a15.621,15.621,0,0,1,1.695-.923q.49-.236.991-.447l-.471.2a17.535,17.535,0,0,1,4.389-1.245l-.524.07a11.507,11.507,0,0,1,3.037-.024l-.524-.07q.234.032.467.075a1.5,1.5,0,0,0,.786.035,1.468,1.468,0,0,0,.733-.234,1.972,1.972,0,0,0,.708-2.7,1.939,1.939,0,0,0-1.179-.907,12.665,12.665,0,0,0-3.5-.183,17.912,17.912,0,0,0-3.318.619,22.684,22.684,0,0,0-4.539,1.893c-.252.138-.5.279-.744.434a2.079,2.079,0,0,0-.906,1.179,2.016,2.016,0,0,0,.2,1.52,1.972,1.972,0,0,0,2.7.708" transform="translate(-463.724 -227.239)" fill="#060000"/>
            <path id="パス_20822" data-name="パス 20822" d="M513.447,490.846a18.148,18.148,0,0,0,3.029.295,17.847,17.847,0,0,0,2.719-.168,12.619,12.619,0,0,0,2.924-.7,11.184,11.184,0,0,0,1.846-.88,9.357,9.357,0,0,0,1.66-1.3,2.032,2.032,0,0,0,.578-1.395,2.007,2.007,0,0,0-.578-1.395,1.984,1.984,0,0,0-1.395-.578,2.061,2.061,0,0,0-1.395.578,7.067,7.067,0,0,1-.64.563l.4-.308a8,8,0,0,1-1.766,1.018l.471-.2a11.443,11.443,0,0,1-2.892.755l.524-.07a17.121,17.121,0,0,1-3.824.056q-.335-.031-.669-.076l.524.07c-.156-.021-.313-.043-.468-.072a1.493,1.493,0,0,0-.786-.035,1.467,1.467,0,0,0-.733.234,1.972,1.972,0,0,0-.707,2.7,1.944,1.944,0,0,0,1.178.906" transform="translate(-444.681 -420.989)" fill="#060000"/>
            <path id="パス_20823" data-name="パス 20823" d="M562.122,605.991l1.5,3.348L566,614.634l.543,1.212a2.21,2.21,0,0,0,1.179.906,2.018,2.018,0,0,0,1.52-.2,1.992,1.992,0,0,0,.906-1.179l.071-.524a1.963,1.963,0,0,0-.269-1l-1.5-3.349-2.374-5.295L565.528,604a2.207,2.207,0,0,0-1.179-.906,2.017,2.017,0,0,0-1.52.2,1.991,1.991,0,0,0-.906,1.179l-.07.524a1.962,1.962,0,0,0,.269,1" transform="translate(-487.974 -523.734)" fill="#060000"/>
            <path id="パス_20824" data-name="パス 20824" d="M338.9,215.459c.583.339,1.2.63,1.808.915a56.538,56.538,0,0,0,5.639,2.258,66.319,66.319,0,0,0,8.2,2.211A77.058,77.058,0,0,0,366,222.283a78.77,78.77,0,0,0,13.377-.475c.736-.088,1.471-.187,2.205-.29a1.966,1.966,0,0,0,1.179-.906,1.972,1.972,0,0,0-.708-2.7l-.471-.2a1.985,1.985,0,0,0-1.049,0l-.538.074.524-.07a80.657,80.657,0,0,1-8.776.7,76.649,76.649,0,0,1-7.882-.215q-2.025-.161-4.039-.431l.524.071a71.068,71.068,0,0,1-7.98-1.54c-2.052-.521-4.081-1.138-6.07-1.861q-1.277-.464-2.53-.991l.471.2c-.7-.3-1.4-.607-2.079-.94-.368-.179-.733-.363-1.092-.56-.056-.031-.112-.061-.167-.093a2.046,2.046,0,0,0-1.52-.2,2.011,2.011,0,0,0-1.179.906,1.99,1.99,0,0,0-.2,1.52,2.055,2.055,0,0,0,.906,1.179" transform="translate(-293.489 -183.94)" fill="#060000"/>
            <path id="パス_20825" data-name="パス 20825" d="M696.237,273.8a12.9,12.9,0,0,1,.492-1.76q.155-.45.34-.889l-.2.471a9.616,9.616,0,0,1,1.191-2.111l-.308.4a5.416,5.416,0,0,1,.953-.974l-.4.308a3.817,3.817,0,0,1,.822-.486l-.471.2a3.294,3.294,0,0,1,.832-.227l-.524.07a3.5,3.5,0,0,1,.9.006l-.524-.07a4.607,4.607,0,0,1,1.134.321l-.471-.2a4.991,4.991,0,0,1,1.076.626l-.4-.309a5.579,5.579,0,0,1,.984.988l-.308-.4a7.235,7.235,0,0,1,.913,1.583l-.2-.471a10.5,10.5,0,0,1,.708,2.684l-.07-.524a14.586,14.586,0,0,1-.022,3.829l.07-.524a15.22,15.22,0,0,1-1.034,3.834l.2-.471a12.075,12.075,0,0,1-1.534,2.669l.308-.4a9.63,9.63,0,0,1-1.023,1.128,1.972,1.972,0,0,0,0,2.789,1.985,1.985,0,0,0,1.395.578,2.111,2.111,0,0,0,1.395-.578,12.331,12.331,0,0,0,1.49-1.738,11.6,11.6,0,0,0,.98-1.6,16.383,16.383,0,0,0,1.439-4.058,17.362,17.362,0,0,0,.382-4.323,13.26,13.26,0,0,0-.727-3.958,9.022,9.022,0,0,0-2.135-3.462,6.746,6.746,0,0,0-1.6-1.16,8.334,8.334,0,0,0-1.2-.5,6.7,6.7,0,0,0-1.283-.238,4.763,4.763,0,0,0-1.844.174,5.11,5.11,0,0,0-1.6.778,6.923,6.923,0,0,0-1.327,1.228A10.978,10.978,0,0,0,694,268.524a15.475,15.475,0,0,0-1.175,2.768,13.861,13.861,0,0,0-.376,1.388c0,.023-.01.046-.014.069a1.492,1.492,0,0,0-.035.786,1.467,1.467,0,0,0,.234.733,1.972,1.972,0,0,0,2.7.708,1.947,1.947,0,0,0,.906-1.179" transform="translate(-601.322 -230.003)" fill="#060000"/>
            <path id="パス_20826" data-name="パス 20826" d="M342.77,29.693c.065-.241.151-.477.236-.712.1-.277.218-.547.324-.822-.006.017-.25.585-.132.313l.055-.128q.063-.144.127-.287.133-.293.273-.583a30.446,30.446,0,0,1,1.615-2.91q.558-.892,1.169-1.748.329-.462.671-.913c.021-.028.138-.227.178-.233.005,0-.331.424-.152.2l.079-.1q.2-.257.408-.511a42.877,42.877,0,0,1,3.762-4.048q1.16-1.1,2.394-2.122.319-.265.643-.524l.282-.225.191-.15c.2-.161-.035.037-.11.084.488-.309.936-.708,1.406-1.045a58.221,58.221,0,0,1,6.769-4.175q1.868-.987,3.8-1.834c.152-.066.314-.122.461-.2-.006,0-.349.145-.143.061l.2-.081q.488-.2.98-.39.9-.347,1.811-.658a40.152,40.152,0,0,1,7.116-1.741c.142-.021.624-.07.019,0,.12-.013.24-.031.36-.045q.447-.053.9-.095.852-.079,1.707-.114a30.683,30.683,0,0,1,3.2.036q.779.05,1.555.142c.073.009.547.07.176.021s.09.014.173.027q.406.061.81.134a26.936,26.936,0,0,1,2.986.718q.713.216,1.413.471.348.127.693.264l.294.119c.116.047.336.152-.179-.076l.194.084a26.049,26.049,0,0,1,2.679,1.356,26.677,26.677,0,0,1,2.514,1.658l.255.192c.259.2-.358-.281-.021-.015q.314.248.621.505.577.483,1.127,1a22.14,22.14,0,0,1,1.67,1.708c.193.223.378.452.561.683.226.285-.292-.386-.129-.167l.139.185q.15.2.3.407a42.358,42.358,0,0,1,4.211,7.893c-.287-.669.008.021.079.2q.131.318.258.636.243.606.475,1.215.489,1.28.938,2.575.939,2.7,1.735,5.448c1.138,3.9,2.1,7.842,2.924,11.815q.629,3.03,1.148,6.082.252,1.479.477,2.962.115.759.224,1.519.048.338.1.677l.05.363c.059.431-.057-.437,0-.007.481,3.668.852,7.352,1.017,11.049.071,1.593.1,3.188.078,4.782-.015.911-.047,1.822-.126,2.73q-.035.4-.081.793c-.013.111-.03.222-.041.334,0-.021.074-.52.026-.195-.011.073-.021.145-.032.218q-.112.742-.269,1.476a20.328,20.328,0,0,1-.788,2.741c-.076.208-.165.411-.241.619s.122-.3.109-.255a1.8,1.8,0,0,1-.074.171q-.074.169-.152.336-.267.571-.578,1.12-.3.529-.646,1.032c-.112.164-.23.323-.347.483-.179.244.337-.419.076-.1-.07.086-.14.173-.212.258a12.261,12.261,0,0,1-1.622,1.6c-.041.034-.084.066-.125.1-.148.125.284-.207.242-.185a1.891,1.891,0,0,0-.224.167q-.241.176-.492.34-.466.3-.959.564-.247.129-.5.247l-.218.1c-.258.119.264-.108.251-.1a1.327,1.327,0,0,0-.148.061q-.542.218-1.1.384t-1.114.275q-.286.058-.574.1c-.164.026-.548.059.15-.017-.112.012-.224.027-.337.039a15.6,15.6,0,0,1-2.449.057c-.428-.023-.855-.065-1.281-.115-.313-.037.52.078.105.013-.109-.017-.219-.033-.328-.052q-.356-.059-.71-.131a22.919,22.919,0,0,1-2.778-.756c-.424-.143-.857-.375-1.29-.477.119.028.521.228.2.078q-.1-.048-.208-.1-.2-.1-.4-.214c-.268-.153-.51-.338-.769-.5-.1-.067.441.356.2.155-.056-.047-.113-.092-.168-.139q-.178-.151-.345-.312a7.835,7.835,0,0,1-.591-.634c-.046-.056-.091-.113-.137-.168-.178-.216.328.448.139.177-.089-.128-.182-.254-.268-.384a11.205,11.205,0,0,1-.839-1.576c.325.721.072.165,0-.017q-.088-.234-.166-.471-.149-.451-.267-.913t-.214-.952a7.606,7.606,0,0,0-.17-1.022c.033.093.072.566.033.236-.01-.085-.021-.169-.03-.254q-.031-.274-.055-.549-.046-.521-.069-1.044c-.033-.727-.037-1.456-.018-2.184a43.428,43.428,0,0,1,.364-4.426c.037-.292-.077.556-.023.173.013-.091.025-.182.039-.272q.042-.291.087-.582.083-.539.177-1.076.186-1.069.408-2.131.4-1.942.913-3.86c.463-1.757.979-3.5,1.565-5.221.083-.244.167-.488.256-.73a1.983,1.983,0,0,0-1.378-2.426,2.025,2.025,0,0,0-2.426,1.378c-.365.993-.683,2.006-.99,3.018-.726,2.393-1.349,4.819-1.842,7.272a50.613,50.613,0,0,0-1.1,9.427,20.682,20.682,0,0,0,1.634,8.916,10.093,10.093,0,0,0,2.385,3.277,12.283,12.283,0,0,0,4.519,2.4,19.044,19.044,0,0,0,11.214.517,14.359,14.359,0,0,0,8.207-6.453,24.157,24.157,0,0,0,2.956-11.95,90.9,90.9,0,0,0-.416-10.278c-.371-4.112-.925-8.211-1.611-12.282q-1.042-6.18-2.536-12.274c-.958-3.887-2.059-7.742-3.381-11.521a68.976,68.976,0,0,0-4.22-9.885,26.708,26.708,0,0,0-5.426-7.186A28.92,28.92,0,0,0,390.017,1.2,32.211,32.211,0,0,0,376.2.4a47.4,47.4,0,0,0-15.229,5.248A55.911,55.911,0,0,0,348.6,14.418a42.139,42.139,0,0,0-6.732,8.156,28.693,28.693,0,0,0-2.669,5.383c-.082.226-.164.455-.227.688a1.973,1.973,0,1,0,3.8,1.049" transform="translate(-294.34 -0.005)" fill="#060000"/>
            <path id="パス_20827" data-name="パス 20827" d="M468.02,581.786a19.018,19.018,0,0,0,.367,2.085,22.2,22.2,0,0,0,1.385,4.016,14.485,14.485,0,0,0,2.816,4.2,10.387,10.387,0,0,0,5.143,2.91,13.779,13.779,0,0,0,7.528-.678q.488-.175.966-.376a2.206,2.206,0,0,0,1.179-.906,1.973,1.973,0,0,0-.708-2.7l-.471-.2a1.984,1.984,0,0,0-1.049,0,16.185,16.185,0,0,1-4.056,1.154l.524-.07a10.369,10.369,0,0,1-2.724.017l.524.07a8.443,8.443,0,0,1-2.124-.575l.471.2a8.418,8.418,0,0,1-1.848-1.083l.4.308a10.106,10.106,0,0,1-1.8-1.825l.308.4a13.855,13.855,0,0,1-1.506-2.483q-.168-.353-.321-.713l.2.471a19.715,19.715,0,0,1-.856-2.5c-.157-.578-.291-1.162-.394-1.752-.026-.152-.051-.3-.072-.456l.071.524c0-.015,0-.03-.006-.045a2.2,2.2,0,0,0-.578-1.395,1.973,1.973,0,0,0-2.789,0,1.9,1.9,0,0,0-.578,1.395" transform="translate(-406.473 -503.572)" fill="#060000"/>
            <path id="パス_20828" data-name="パス 20828" d="M605.033,642.073l-1.512.979-3.835,2.482-5.1,3.3-5.319,3.442-4.471,2.893-2.591,1.676-.232.15-.042.027h0a1.981,1.981,0,0,0-.708.708,2.211,2.211,0,0,0-.269,1s0,.01,0,.015c-.024.32-.04.641-.06.961q-.157,2.519-.315,5.038l-.39,6.233-.242,3.875-.012.19a1.973,1.973,0,0,0,3.367,1.395l.308-.4a1.964,1.964,0,0,0,.269-1q.051-.815.1-1.63.121-1.94.242-3.88l.3-4.725q.127-2.035.254-4.07c.041-.659.091-1.319.124-1.979,0-.009,0-.019,0-.028l-.977,1.7.622-.4,1.673-1.083,2.494-1.614,3.031-1.961,3.32-2.148,3.351-2.169,3.126-2.023,2.652-1.716,1.9-1.229c.3-.194.6-.387.9-.583l.039-.025a2.079,2.079,0,0,0,.906-1.179,2.015,2.015,0,0,0-.2-1.52,1.972,1.972,0,0,0-2.7-.708" transform="translate(-503.671 -557.418)" fill="#060000"/>
            <path id="パス_20829" data-name="パス 20829" d="M362.037,719.379l-.614.291-1.681.8-2.476,1.174-3.02,1.432-3.308,1.569-3.354,1.591-3.113,1.476-2.631,1.248-1.893.9c-.3.142-.6.28-.9.426l-.039.019a1.988,1.988,0,0,0-.906,1.179,2.016,2.016,0,0,0,.2,1.52,1.991,1.991,0,0,0,1.179.906l.524.07a1.962,1.962,0,0,0,1-.269l.614-.291,1.681-.8,2.476-1.174,3.02-1.432,3.308-1.568,3.354-1.59,3.113-1.476,2.631-1.248,1.893-.9c.3-.142.6-.28.9-.426l.039-.019a1.987,1.987,0,0,0,.906-1.178,2.017,2.017,0,0,0-.2-1.52,1.991,1.991,0,0,0-1.179-.906l-.524-.07a1.963,1.963,0,0,0-1,.269" transform="translate(-293.586 -624.553)" fill="#060000"/>
            <path id="パス_20830" data-name="パス 20830" d="M90.5,661.337l1.242-1.242a20.525,20.525,0,0,0,2.222-2.38,10.1,10.1,0,0,0,1.1-2.155,24.9,24.9,0,0,0,1.3-4.739c.322-1.688.556-3.4.743-5.1.089-.813.171-1.629.222-2.445l-.578,1.395q2.771-2.512,5.5-5.074c1.367-1.284,2.728-2.576,4.06-3.9a24.355,24.355,0,0,0,2.8-3.07c1.549-2.18.053-5.074-1.587-6.723l.308,2.39a12.479,12.479,0,0,0,1.487-2.739,4.97,4.97,0,0,0-.55-5.361c-1.491-1.616-3.935-.841-5.709-.206a65.089,65.089,0,0,0-7.174,3.194c-2.249,1.128-4.468,2.316-6.668,3.536-1.164.646-2.35,1.272-3.482,1.973l-.051.03,2.7,2.7,2.485-3.824,1.574-2.422c.132-.2.267-.4.4-.61.218-.344-.432.533-.194.24,1.041-1.281,2.042-2.6,3.014-3.932a33.956,33.956,0,0,0,3.415-5.387,6.031,6.031,0,0,0,.783-2.832,2.645,2.645,0,0,0-2.715-2.54,6.645,6.645,0,0,0-2.539.626A30.965,30.965,0,0,0,91.4,612.3c-1.682.938-3.315,1.964-4.918,3.03q-.3.2-.593.4a3.646,3.646,0,0,0-.909.845c-.211.279-.419.559-.629.838l-6.5,8.671-.161.215,3.675,1c.027-1.04.036-2.08.041-3.12.011-2.364-.014-4.728-.094-7.09-.088-2.594-.226-5.2-.557-7.772a30.5,30.5,0,0,0-.609-3.545,7.9,7.9,0,0,0-.97-2.471,3,3,0,0,0-3.19-1.474,3.788,3.788,0,0,0-2.247,1.778,9.339,9.339,0,0,0-1,2.459,24.765,24.765,0,0,0-.607,2.946,80.364,80.364,0,0,0-.774,8.358c-.143,2.986-.193,5.977-.2,8.966q-.006,4.145.1,8.288.071,2.862.188,5.723c.026.633.069,1.266.069,1.9v13.84c0,.768-.035,1.535-.021,2.3a29.8,29.8,0,0,0,.881,6.82,16.417,16.417,0,0,0,4.067,7.652,11.746,11.746,0,0,0,4.243,2.665,10.758,10.758,0,0,0,2.27.553,10.909,10.909,0,0,0,2.58.119,8.488,8.488,0,0,0,4.184-1.45,10.1,10.1,0,0,0,2.835-3.132,19.664,19.664,0,0,0,2.243-7.725,33.588,33.588,0,0,0,.169-5.515c-.014-.287-.03-.574-.057-.86a2.125,2.125,0,0,0-.578-1.395,1.972,1.972,0,0,0-3.367,1.395A30.165,30.165,0,0,1,91,662.1q-.067,1.165-.22,2.322l.07-.524a23.334,23.334,0,0,1-.476,2.519c-.1.417-.223.831-.357,1.24q-.091.276-.193.55-.05.136-.1.27l-.065.161c-.108.273.236-.545.1-.232a11.465,11.465,0,0,1-1.207,2.116c-.166.228.354-.443.174-.226l-.068.085q-.1.127-.212.249-.2.223-.413.429c-.13.124-.267.241-.4.357-.294.247.483-.355.1-.078q-.132.1-.268.184a6.229,6.229,0,0,1-.569.327c-.1.05-.2.1-.3.143-.259.121.534-.211.264-.112l-.159.061a6.841,6.841,0,0,1-1.435.351l.524-.07a9.031,9.031,0,0,1-2.305-.019l.524.07a10.863,10.863,0,0,1-1.861-.412q-.206-.066-.409-.141l-.2-.076-.1-.04c-.2-.077.471.21.277.117-.27-.129-.541-.25-.8-.4q-.367-.2-.715-.44c-.11-.074-.217-.152-.324-.23-.253-.185.138.084.19.148a1.286,1.286,0,0,0-.178-.144,10.052,10.052,0,0,1-1.158-1.131q-.127-.145-.249-.3c-.041-.05-.08-.1-.12-.151-.118-.144.243.33.21.272a1.129,1.129,0,0,0-.077-.1c-.158-.216-.312-.435-.457-.66a13.7,13.7,0,0,1-.8-1.426q-.084-.173-.164-.348c-.049-.107-.247-.569-.081-.174s-.016-.044-.058-.148q-.076-.193-.147-.387-.272-.739-.482-1.5a24.8,24.8,0,0,1-.671-3.314l.07.524a29.046,29.046,0,0,1-.261-4.324c.009-.558.023-1.113.023-1.672V643.481c0-.618.017-1.237-.012-1.854q-.07-1.493-.122-2.986-.1-2.742-.155-5.486-.072-3.5-.069-7.006c.005-2.478.043-4.957.138-7.433.089-2.3.222-4.608.468-6.9q.079-.741.178-1.479l-.07.524a27.644,27.644,0,0,1,.712-3.713c.069-.247.143-.492.227-.734q.054-.158.114-.314c.021-.055.044-.11.066-.165.082-.21-.263.6-.118.282a5.845,5.845,0,0,1,.269-.529c.043-.072.089-.142.135-.212.019-.029.042-.057.062-.086.112-.169-.429.514-.206.27.056-.061.11-.124.171-.18.029-.027.06-.05.089-.077.141-.134-.548.375-.261.206.255-.151.38-.072-.236.072.073-.017.139-.047.215-.058l-.524.07a.8.8,0,0,1,.187,0l-.524-.071a.648.648,0,0,1,.135.03c.212.078-.612-.286-.315-.129s-.277-.229-.258-.21c.041.042.088.078.128.121.2.212.031.077-.178-.242.039.059.081.115.118.174a4.183,4.183,0,0,1,.216.407c.179.374-.2-.508-.087-.211.034.089.069.177.1.267.067.19.127.382.183.576.128.449.231.9.32,1.362.118.6.212,1.209.295,1.818l-.07-.524a86.464,86.464,0,0,1,.625,9.209q.1,3.78.044,7.562c-.006.488-.014.976-.026,1.464a1.994,1.994,0,0,0,1.448,1.9,2.354,2.354,0,0,0,1.049,0,2.1,2.1,0,0,0,1.179-.906L83.555,625l3.914-5.219.912-1.216-.708.708a55.426,55.426,0,0,1,7.731-4.613c.219-.1.44-.2.662-.3-.773.338-.023.014.2-.064a5.661,5.661,0,0,1,1.087-.292l-.524.07a1.949,1.949,0,0,1,.495-.012L96.8,614c.071.01.137.04.206.051a1.232,1.232,0,0,1-.692-.4c.184.182-.362-.548-.2-.252-.349-.641-.172-.49-.134-.251l-.07-.525a1.558,1.558,0,0,1-.008.4l.07-.524a3.977,3.977,0,0,1-.22.8c-.029.077-.061.152-.09.228.264-.688.186-.433.118-.282l-.043.1c-.081.179-.167.356-.257.531a25.959,25.959,0,0,1-1.353,2.3c-.992,1.531-2.07,3.007-3.179,4.455l-.171.223c-.227.295.33-.425.129-.167l-.313.4q-.235.3-.473.6c-.216.272-.455.541-.648.828-.744,1.106-1.454,2.236-2.18,3.354l-2.314,3.561a1.989,1.989,0,0,0,.308,2.39,2.027,2.027,0,0,0,2.39.308c1.72-1.006,3.463-1.974,5.213-2.925,3.2-1.741,6.449-3.433,9.806-4.867-.784.335.01,0,.212-.083s.4-.16.6-.237c.371-.142.745-.278,1.122-.4a10.436,10.436,0,0,1,1.871-.472l-.524.071a2.954,2.954,0,0,1,.735-.018l-.524-.07c.08.011.154.034.232.052.26.059-.555-.268-.36-.152.03.018.059.033.088.054-.013-.009-.525-.465-.29-.215.039.042.081.085.123.124.2.187-.265-.4-.161-.214.027.047.061.091.089.139a1.456,1.456,0,0,1,.088.174c-.027.02-.192-.568-.119-.259.028.117.061.23.08.35l-.07-.524a3.38,3.38,0,0,1-.006.884l.07-.524a6.014,6.014,0,0,1-.366,1.329c-.16.407.19-.421.044-.1-.05.108-.1.216-.151.322q-.14.286-.3.564a10.776,10.776,0,0,1-.754,1.182,1.8,1.8,0,0,0-.234,1.258,1.937,1.937,0,0,0,.543,1.133c.077.077.149.158.221.24s.154.184.231.276c.176.212-.331-.446-.156-.2.046.064.094.127.14.192a6.355,6.355,0,0,1,.525.874c.158.323-.064-.083-.069-.182a1.513,1.513,0,0,0,.108.3,3.315,3.315,0,0,1,.121.533l-.07-.524a2.474,2.474,0,0,1,0,.61l.07-.524c-.022.128-.067.247-.1.372.13-.541.158-.341.039-.151-.047.075-.1.144-.154.217.493-.7.23-.3.089-.128-.091.108-.184.215-.279.32-.49.547-1.005,1.073-1.523,1.593-1.4,1.411-2.849,2.783-4.3,4.146q-2,1.884-4.034,3.743-.627.576-1.257,1.149a2.353,2.353,0,0,0-.947,1.739c-.114,1.364-.24,2.724-.422,4.081l.07-.524a36.521,36.521,0,0,1-1.432,6.755c-.083.245-.17.489-.265.73-.067.172-.272.585.045-.1-.055.118-.1.239-.16.357a7.8,7.8,0,0,1-.678,1.163c-.141.2.4-.488.114-.157-.054.062-.11.122-.168.18-.334.344-.679.679-1.018,1.018l-1.16,1.16-.6.6a1.972,1.972,0,0,0,2.789,2.789" transform="translate(-61.794 -522.625)" fill="#060000"/>
            <path id="パス_20831" data-name="パス 20831" d="M13.39,520.122l-.972-1.874L10.1,513.783l-2.817-5.432-2.421-4.668c-.395-.761-.779-1.529-1.184-2.284l-.016-.032-1.179,2.9,2.348-.449,5.638-1.078,6.822-1.3,5.9-1.128c.956-.183,1.915-.355,2.869-.548l.041-.008-2.227-.907.381.837,1.038,2.278,1.535,3.369,1.865,4.093,2.05,4.5,2.062,4.525,1.93,4.236,1.63,3.579,1.172,2.573c.184.4.363.812.553,1.214l.024.053a1.98,1.98,0,0,0,1.179.907,2.016,2.016,0,0,0,1.52-.2,1.99,1.99,0,0,0,.906-1.179l.07-.524a1.962,1.962,0,0,0-.269-1l-.381-.837L40.1,524.995l-1.535-3.369L36.7,517.532l-2.05-4.5-2.062-4.525-1.93-4.236-1.631-3.579-1.172-2.573c-.184-.4-.36-.814-.553-1.214-.008-.017-.016-.035-.024-.053l-.308-.4a1.478,1.478,0,0,0-.635-.408,2.092,2.092,0,0,0-1.284-.1l-2.348.449-5.638,1.078-6.822,1.3-5.9,1.128c-.956.183-1.916.35-2.869.548l-.041.008A1.874,1.874,0,0,0,.16,501.6a1.981,1.981,0,0,0,.1,1.755l.972,1.874L3.546,509.7l2.817,5.432L8.783,519.8c.395.761.777,1.53,1.184,2.284l.016.031a1.973,1.973,0,0,0,3.6-.471,2.147,2.147,0,0,0-.2-1.52" transform="translate(0 -430.686)" fill="#060000"/>
            <path id="パス_20832" data-name="パス 20832" d="M226.814,781.355l-1.454.866-3.491,2.078-4.207,2.5-3.637,2.165c-.591.352-1.185.7-1.772,1.055l-.026.015a2.048,2.048,0,0,0-.906,1.179,2.016,2.016,0,0,0,.2,1.52,1.99,1.99,0,0,0,1.179.906,2.046,2.046,0,0,0,1.52-.2l1.454-.866,3.491-2.078,4.207-2.5,3.637-2.165c.591-.351,1.185-.7,1.772-1.055l.026-.015a2.047,2.047,0,0,0,.906-1.179,2.016,2.016,0,0,0-.2-1.52,1.989,1.989,0,0,0-1.179-.906,2.047,2.047,0,0,0-1.52.2" transform="translate(-183.477 -678.387)" fill="#060000"/>
            <path id="パス_20833" data-name="パス 20833" d="M65.955,1007.38q.006.919.014,1.837.02,2.474.045,4.947.037,3.6.083,7.21.055,4.313.126,8.626.076,4.6.175,9.195.1,4.458.23,8.916c.079,2.6.17,5.194.29,7.79.09,1.941.19,3.882.356,5.818q.1,1.2.27,2.392a6.035,6.035,0,0,0,.246,1.18,10.12,10.12,0,0,0,3.2,4.279,22.013,22.013,0,0,0,5.461,3.312,21.041,21.041,0,0,0,13.271,1.454,12.414,12.414,0,0,0,6.7-3.913,17.485,17.485,0,0,0,3.478-8.588,50.689,50.689,0,0,0,.56-6.514c.045-1.759.063-3.531-.052-5.287-.163-2.492-.531-4.974-.915-7.44-.472-3.034-1.02-6.057-1.6-9.073q-.95-4.974-2-9.929-.988-4.714-2.031-9.416-.838-3.787-1.7-7.567-.5-2.192-1.016-4.382-.068-.29-.137-.58a1.99,1.99,0,0,0-2.426-1.378,2.015,2.015,0,0,0-1.377,2.426q.358,1.51.706,3.022.9,3.872,1.761,7.751,1.171,5.246,2.282,10.506c.791,3.756,1.556,7.517,2.269,11.289.632,3.345,1.233,6.7,1.718,10.067q.078.543.151,1.085l-.07-.524c.178,1.326.337,2.656.43,3.99a58.483,58.483,0,0,1,.027,6.516c-.059,1.4-.165,2.8-.349,4.187l.07-.524a25.388,25.388,0,0,1-.879,4.165q-.138.443-.3.877c-.05.134-.1.267-.155.4-.116.292.062-.16.1-.232-.039.075-.068.157-.1.234a12,12,0,0,1-.766,1.448c-.136.219-.28.433-.433.641a1.549,1.549,0,0,0-.118.157c.024-.043.361-.456.171-.223-.082.1-.163.2-.247.3a9.108,9.108,0,0,1-1.04,1.02l-.124.1c-.258.213.285-.213.21-.16-.1.071-.2.149-.3.22q-.3.208-.609.392t-.645.35q-.16.08-.323.154l-.152.068c-.339.154.422-.171.214-.089a16.514,16.514,0,0,1-3.762.987l.524-.07a16.843,16.843,0,0,1-4.444-.036l.524.071a22.024,22.024,0,0,1-4.76-1.229c-.193-.073-.384-.15-.576-.227-.365-.146.452.2.093.04l-.28-.122q-.551-.246-1.089-.521a21.256,21.256,0,0,1-1.924-1.109q-.422-.275-.83-.572l-.215-.16c-.287-.213.4.316.12.094-.156-.125-.312-.251-.465-.381a12.043,12.043,0,0,1-1.3-1.283c-.1-.111-.186-.225-.279-.339.462.566.159.205.057.061a6.374,6.374,0,0,1-.445-.73c-.047-.091-.086-.187-.133-.278.345.66.114.287.049.086-.016-.049-.03-.1-.044-.149a8.312,8.312,0,0,1-.186-1.035l.07.524c-.161-1.2-.246-2.414-.326-3.623-.118-1.776-.2-3.555-.278-5.334q-.139-3.283-.234-6.568-.111-3.662-.193-7.326-.088-3.821-.156-7.643-.067-3.7-.12-7.41-.049-3.368-.089-6.736-.033-2.793-.061-5.586-.02-1.98-.036-3.959c-.005-.619,0-1.238-.014-1.857,0-.027,0-.053,0-.08a1.972,1.972,0,1,0-3.945,0" transform="translate(-57.282 -868.673)" fill="#060000"/>
            <path id="パス_20834" data-name="パス 20834" d="M255.766,869.682l-.13.746-.353,2.019-.522,2.983-.64,3.655-.7,4-.7,4.026-.657,3.754-.557,3.185-.4,2.281c-.063.362-.127.723-.19,1.085l-.008.046a1.494,1.494,0,0,0-.035.786,1.466,1.466,0,0,0,.234.733,1.972,1.972,0,0,0,2.7.708,1.928,1.928,0,0,0,.906-1.179l.13-.746.353-2.019.522-2.983.64-3.655.7-4,.7-4.026.657-3.754.557-3.185.4-2.282c.063-.362.127-.723.19-1.085l.008-.046a1.491,1.491,0,0,0,.035-.786,1.467,1.467,0,0,0-.234-.733,1.973,1.973,0,0,0-2.7-.708,1.929,1.929,0,0,0-.906,1.179" transform="translate(-217.849 -754.074)" fill="#060000"/>
            <path id="パス_20835" data-name="パス 20835" d="M862.505,658.057q4.673,1.558,9.354,3.088c5.9,1.932,11.8,3.849,17.724,5.7,2.4.748,4.8,1.49,7.221,2.176a17.091,17.091,0,0,0,4.176.919c.823.015,1.646-.025,2.469-.013.451.007.9.022,1.351.053.227.016.453.035.678.059a1.216,1.216,0,0,1,.268.031q-.454-.063-.127-.015.13.02.26.044a8.137,8.137,0,0,1,1.22.308,1.151,1.151,0,0,0,.223.082c-.307.007-.324-.15-.052-.012.066.033.131.068.194.105s.124.074.183.114q.251.176-.145-.121c.039-.025.35.365.359.359l-.095-.119q-.167-.223-.041-.035l.05.087q.158.315-.108-.283a.939.939,0,0,0,.033.1c.152.711.291,1.42.406,2.139.232,1.45.434,2.9.631,4.359.057.417-.076-.568-.019-.138l.044.329q.05.373.1.747.1.754.194,1.509.211,1.661.412,3.324,1,8.258,1.8,16.539.95,9.751,1.638,19.525c.45,6.517.8,13.043.954,19.574.13,5.558.146,11.137-.259,16.685-.082,1.127-.184,2.253-.316,3.376-.029.248-.061.5-.092.745-.058.46.076-.535.012-.089-.021.142-.04.285-.061.427q-.105.713-.233,1.423c-.153.84-.332,1.676-.561,2.5-.1.358-.208.713-.33,1.063q-.081.232-.169.461c-.029.073-.06.146-.088.219-.044.115.256-.569.073-.178-.12.255-.24.509-.382.754-.065.112-.132.221-.2.328-.189.283-.292.387.053-.049a2.024,2.024,0,0,0,0,2.789,1.994,1.994,0,0,0,2.789,0c2.225-2.8,2.693-6.729,3.11-10.167a123.814,123.814,0,0,0,.672-15.624c-.039-6.416-.317-12.83-.7-19.233-.4-6.688-.927-13.369-1.537-20.041q-.809-8.837-1.822-17.653c-.492-4.266-1.011-8.531-1.63-12.781-.158-1.082-.314-2.166-.523-3.24a6.551,6.551,0,0,0-.165-.714c-.576-1.829-2.419-2.826-4.18-3.214a25.559,25.559,0,0,0-5.819-.381c-.226,0-.454,0-.68,0-.4.011.653.114.254.036-.248-.048-.5-.1-.743-.155-1.877-.44-3.727-1.012-5.572-1.568-5.875-1.77-11.713-3.66-17.547-5.558q-6.5-2.113-12.981-4.268l-.669-.223a1.987,1.987,0,0,0-2.426,1.378,2.018,2.018,0,0,0,1.378,2.426" transform="translate(-747.847 -568.154)" fill="#060000"/>
            <path id="パス_20836" data-name="パス 20836" d="M838.132,1066.99l-.922-.863-2.524-2.363-3.718-3.481-4.534-4.246-4.99-4.672-5.014-4.695-4.676-4.378-3.954-3.7-2.856-2.674c-.449-.42-.894-.846-1.347-1.262l-.059-.055a2,2,0,0,0-3.1.4,11.105,11.105,0,0,1-.908,1.318l.308-.4a21.517,21.517,0,0,1-3.869,3.829l.4-.308a23.85,23.85,0,0,1-5.2,3.031l.471-.2a26.494,26.494,0,0,1-6.68,1.807l.524-.07q-.351.047-.7.087a2.068,2.068,0,0,0-1.7.977,2.013,2.013,0,0,0,0,1.991q.52.979,1.051,1.953,1.409,2.6,2.844,5.188,2.075,3.743,4.2,7.458,2.519,4.4,5.114,8.765,2.736,4.589,5.59,9.107c1.823,2.875,3.691,5.722,5.644,8.511,1.735,2.476,3.534,4.919,5.481,7.233.745.885,1.515,1.751,2.333,2.569a32.1,32.1,0,0,0,3.494,2.919c3.75,2.813,8.051,5.32,12.829,5.641a13.427,13.427,0,0,0,5.919-.961,20.918,20.918,0,0,0,6.185-4.028,33.264,33.264,0,0,0,2.708-2.812,2.1,2.1,0,0,0,.578-1.395,1.972,1.972,0,0,0-3.367-1.4,29.64,29.64,0,0,1-4.224,4.091l.4-.308a16.938,16.938,0,0,1-3.656,2.182l.471-.2a12.555,12.555,0,0,1-3.165.875l.524-.07a12.43,12.43,0,0,1-3.223-.011l.524.071a16.519,16.519,0,0,1-4.1-1.159l.471.2a34.384,34.384,0,0,1-7.491-4.591l.4.308a26.08,26.08,0,0,1-2.794-2.46c-.857-.883-1.665-1.814-2.447-2.764q-.75-.911-1.47-1.847l.308.4c-2.518-3.264-4.839-6.679-7.088-10.132-2.5-3.846-4.912-7.755-7.265-11.7q-3.313-5.546-6.491-11.171-2.4-4.245-4.747-8.524c-.706-1.292-1.381-2.6-2.1-3.887-.01-.017-.018-.035-.028-.052l-1.7,2.968a27.591,27.591,0,0,0,12.307-4.278,24.306,24.306,0,0,0,6.01-5.659,10.292,10.292,0,0,0,.751-1.111l-3.1.4.922.863,2.524,2.363,3.717,3.481,4.534,4.246,4.99,4.672,5.014,4.695,4.676,4.378,3.954,3.7,2.856,2.674c.449.421.894.846,1.348,1.262l.059.054a1.972,1.972,0,1,0,2.789-2.789" transform="translate(-679.879 -898.073)" fill="#060000"/>
            <path id="パス_20837" data-name="パス 20837" d="M644.045,764.243l-.469-1.539-1.193-3.914-1.635-5.364-1.759-5.771L637.4,742.44l-1.12-3.673a4.686,4.686,0,0,0-.893-2.07c-.73-.666-1.5-1.292-2.254-1.934q-2.22-1.9-4.46-3.768c-1.558-1.3-3.123-2.595-4.717-3.852-.729-.575-1.462-1.148-2.213-1.7a8.9,8.9,0,0,0-1.2-.789,13.1,13.1,0,0,0-3.223-.9c-1.78-.372-3.571-.695-5.367-.986-2.1-.341-4.217-.646-6.339-.852a18.532,18.532,0,0,0-4.727-.024,2.834,2.834,0,0,0-1.986,1.247,2.486,2.486,0,0,0,.554,3.034,9.93,9.93,0,0,0,1.661,1.322c.669.458,1.364.877,2.065,1.284,1.781,1.032,3.611,1.98,5.449,2.9s3.7,1.825,5.57,2.706q1.85.872,3.712,1.72l.523.237q.236-1.8.471-3.605l-6.7,2.133-.936.3a2,2,0,0,0-1.179,2.9l2.084,3.473,1.179-2.9a37.579,37.579,0,0,0-4.206,1.756,10.284,10.284,0,0,0-2.537,1.645,3.287,3.287,0,0,0-.922,1.477,3.006,3.006,0,0,0,.876,2.745,6.328,6.328,0,0,0,1.947,1.491,9.517,9.517,0,0,0,1.368.594l-.471-3.605c-.948.61-1.857,1.279-2.747,1.971a13.556,13.556,0,0,0-1.566,1.37,3.625,3.625,0,0,0-1.2,2.438,5.521,5.521,0,0,0,.271,1.285c.124.483.245.967.368,1.45.35,1.372.711,2.742,1.111,4.1a38.467,38.467,0,0,0,1.572,4.451c.5,1.158,1.232,2.491,2.545,2.848,1.664.452,2.865-.915,3.658-2.162a25.655,25.655,0,0,0,1.785-3.527c.957-2.187,1.825-4.415,2.611-6.669l.041-.119-3.874-.524c.092.915.229,1.827.376,2.735.289,1.787.66,3.563,1.122,5.314a41.192,41.192,0,0,0,2.422,6.816,19.311,19.311,0,0,0,3.949,5.828,11.139,11.139,0,0,0,2.825,2.035,10.163,10.163,0,0,0,3.818,1.019c.264.018.53.022.795.014a2.057,2.057,0,0,0,1.395-.578,1.972,1.972,0,0,0-1.395-3.367,8.193,8.193,0,0,1-1.314-.067l.524.07a7.752,7.752,0,0,1-1.94-.533l.471.2a8.8,8.8,0,0,1-1.922-1.139l.4.308a12.321,12.321,0,0,1-2.159-2.207l.308.4a22.164,22.164,0,0,1-2.758-4.9l.2.471a40.847,40.847,0,0,1-1.855-5.581q-.606-2.33-1.006-4.707-.151-.887-.272-1.779.035.262.07.524c-.039-.291-.077-.582-.107-.873a2.086,2.086,0,0,0-.578-1.395,2.025,2.025,0,0,0-1.133-.542,1.989,1.989,0,0,0-2.164,1.413c-.435,1.265-.907,2.518-1.4,3.762q-.36.913-.74,1.818l.2-.471c-.392.928-.8,1.849-1.255,2.748a13.034,13.034,0,0,1-1.228,2.067l.308-.4a2.955,2.955,0,0,1-.514.542l.4-.308a1.1,1.1,0,0,1-.227.135l.471-.2a.627.627,0,0,1-.137.038l.524-.07a.482.482,0,0,1-.118,0l.524.07a.574.574,0,0,1-.121-.034l.471.2a.861.861,0,0,1-.185-.112l.4.308a1.852,1.852,0,0,1-.3-.314l.308.4a7.422,7.422,0,0,1-.878-1.646l.2.471a40.482,40.482,0,0,1-1.552-4.675c-.4-1.419-.764-2.849-1.127-4.278-.1-.379-.234-.763-.3-1.147l.07.524a.5.5,0,0,1,0-.119q-.035.262-.07.524a.823.823,0,0,1,.058-.2l-.2.471a2.062,2.062,0,0,1,.257-.414l-.308.4a10.529,10.529,0,0,1,1.905-1.747l-.4.308c.746-.575,1.517-1.122,2.309-1.632a1.984,1.984,0,0,0-.471-3.6c-.111-.037-.22-.082-.329-.127l.471.2a6.738,6.738,0,0,1-1.5-.86l.4.308a4.036,4.036,0,0,1-.692-.686l.309.4a2.217,2.217,0,0,1-.274-.448l.2.471a.532.532,0,0,1-.029-.114q.035.262.07.524a.559.559,0,0,1,0-.118l-.07.524a.705.705,0,0,1,.045-.163l-.2.471a1.209,1.209,0,0,1,.155-.254l-.308.4a2.98,2.98,0,0,1,.514-.486l-.4.308a15.622,15.622,0,0,1,3.452-1.819l-.471.2c.7-.3,1.411-.577,2.13-.829a2,2,0,0,0,1.278-1.142,1.927,1.927,0,0,0-.1-1.755l-2.084-3.473-1.179,2.9,6.7-2.133.936-.3a1.989,1.989,0,0,0,1.413-1.64,1.883,1.883,0,0,0-.135-1.022,1.814,1.814,0,0,0-.807-.943q-.713-.321-1.423-.648-1.79-.823-3.57-1.668-2.311-1.1-4.6-2.241c-1.537-.77-3.065-1.558-4.568-2.392a34.206,34.206,0,0,1-3.471-2.123q-.15-.108-.3-.22l.4.308a4.391,4.391,0,0,1-.787-.729l.308.4a.9.9,0,0,1-.12-.194l.2.471a.454.454,0,0,1-.03-.107l.07.524a.336.336,0,0,1,0-.079l-.071.524a.31.31,0,0,1,.017-.064l-.2.471a.35.35,0,0,1,.039-.068l-.308.4a.465.465,0,0,1,.076-.076l-.4.308a.833.833,0,0,1,.183-.1l-.471.2a2.514,2.514,0,0,1,.62-.149l-.524.071a11.988,11.988,0,0,1,2.1-.042c.961.043,1.92.133,2.876.24q.922.1,1.841.227l-.524-.071c1.881.253,3.756.557,5.624.9,1.449.263,2.9.54,4.331.881a7.62,7.62,0,0,1,1.175.33l-.471-.2a5.346,5.346,0,0,1,.915.564c.5.353.994.725,1.481,1.1l-.4-.308c2.027,1.567,4,3.208,5.961,4.853q2.607,2.184,5.187,4.4.512.44,1.023.881l-.507-.87.807,2.647,1.938,6.359,2.346,7.7,2.034,6.674c.328,1.077.644,2.158.985,3.231l.014.045a2.065,2.065,0,0,0,.906,1.179,1.973,1.973,0,0,0,2.9-2.228" transform="translate(-519.879 -626.846)" fill="#060000"/>
            <path id="パス_20838" data-name="パス 20838" d="M299.668,1260.712l.185-.75.507-2.052.747-3.024.915-3.7,1-4.041,1.007-4.079.939-3.8.794-3.215.573-2.321c.09-.365.182-.729.27-1.094l.012-.047a2.064,2.064,0,0,0-.2-1.52,1.973,1.973,0,0,0-3.6.471l-.185.75-.507,2.052-.747,3.024-.915,3.7-1,4.042-1.007,4.079-.939,3.8-.794,3.215-.573,2.321c-.09.365-.182.729-.27,1.095l-.012.047a2.064,2.064,0,0,0,.2,1.52,1.973,1.973,0,0,0,3.6-.471" transform="translate(-256.906 -1068.344)" fill="#060000"/>
            <path id="パス_20839" data-name="パス 20839" d="M475.7,669.626l-1.663,1.838-2.9,3.21-.939,1.038c-.058.064-.117.126-.173.191a2.489,2.489,0,0,0-.514.88l-.012.035c-.164.473-.325.947-.487,1.421l-1.029,3-1.35,3.934-1.467,4.276-1.366,3.981-1.047,3.052-.522,1.52-.023.068-.071.524a1.485,1.485,0,0,0,.17.76,1.884,1.884,0,0,0,.807.943,2.34,2.34,0,0,0,1,.269,2.036,2.036,0,0,0,1.395-.578l1.059-.962,2.529-2.3,3.057-2.777,2.644-2.4c.429-.39.865-.773,1.288-1.17l.019-.017a1.972,1.972,0,0,0,0-2.789A1.984,1.984,0,0,0,474.7,687a2.14,2.14,0,0,0-1.395.578l-1.059.961-2.529,2.3-3.057,2.777-2.644,2.4c-.429.39-.864.774-1.288,1.17l-.019.017,3.3,1.919.2-.571.529-1.543.787-2.293.96-2.8,1.047-3.051,1.062-3.1.99-2.886.833-2.428.6-1.756c.1-.277.193-.554.286-.832l.012-.036-.507.87,1.921-2.123,3.061-3.384.7-.776a2.075,2.075,0,0,0,.578-1.395,2.007,2.007,0,0,0-.578-1.395,1.973,1.973,0,0,0-2.789,0" transform="translate(-401.367 -581.073)" fill="#060000"/>
            <path id="パス_20840" data-name="パス 20840" d="M810.205,673.683,809.235,675l-2.32,3.149-2.815,3.82-2.424,3.29c-.392.532-.8,1.058-1.178,1.6l-.017.022a1.469,1.469,0,0,0-.234.733,1.5,1.5,0,0,0,.035.787,1.973,1.973,0,0,0,2.426,1.378l.471-.2a1.983,1.983,0,0,0,.708-.708l.97-1.317,2.32-3.149,2.815-3.82,2.424-3.29c.392-.532.8-1.058,1.178-1.6l.016-.023a1.467,1.467,0,0,0,.234-.733,1.493,1.493,0,0,0-.035-.786,2.011,2.011,0,0,0-.906-1.179,1.99,1.99,0,0,0-1.52-.2l-.471.2a1.982,1.982,0,0,0-.708.708" transform="translate(-694.99 -584.247)" fill="#060000"/>
            <path id="パス_20841" data-name="パス 20841" d="M338,1004.867c.044,3.1.135,6.208.238,9.31.225,6.79.544,13.578,1.036,20.354.362,4.991.935,9.96,1.322,14.948.335,4.314.59,8.634.82,12.955q.41,7.717.714,15.438.332,8.13.6,16.261.261,7.824.48,15.649.192,6.8.359,13.592.122,4.945.231,9.891c.035,1.585.046,3.173.1,4.757,0,.07,0,.141,0,.211a1.972,1.972,0,0,0,3.945,0q-.031-1.628-.067-3.255-.094-4.407-.2-8.814-.153-6.389-.327-12.777-.208-7.633-.45-15.266-.26-8.165-.572-16.329-.3-7.863-.684-15.723c-.226-4.566-.476-9.13-.794-13.691-.293-4.205-.738-8.39-1.112-12.588-.628-7.044-1.013-14.109-1.3-21.175q-.263-6.543-.39-13.091-.006-.33-.011-.659a1.972,1.972,0,0,0-3.945,0" transform="translate(-293.557 -871.023)" fill="#060000"/>
            <path id="パス_20842" data-name="パス 20842" d="M1093.4,1548.952q.036,2.127.071,4.254.072,4.338.145,8.675.057,3.469.115,6.938c.01.582.027,1.158.062,1.739q.139,2.341.277,4.682.224,3.777.448,7.554.263,4.437.526,8.875.257,4.331.514,8.662.2,3.413.4,6.826.1,1.73.205,3.461c0,.052.006.1.01.157a1.972,1.972,0,1,0,3.944,0q-.072-1.205-.143-2.41-.184-3.09-.367-6.18-.247-4.155-.493-8.311-.267-4.5-.534-8.99-.238-4.02-.477-8.041l-.326-5.5c-.035-.586-.086-1.172-.1-1.759q-.047-2.827-.094-5.654-.073-4.4-.146-8.8-.049-2.938-.1-5.875c0-.1,0-.2-.005-.3a1.972,1.972,0,1,0-3.945,0" transform="translate(-949.626 -1343.563)" fill="#060000"/>
            <path id="パス_20843" data-name="パス 20843" d="M639.374,797.232l1.888,2.477,2.983,3.916.686.9a2.208,2.208,0,0,0,1.179.906,2.017,2.017,0,0,0,1.52-.2,1.99,1.99,0,0,0,.906-1.179l.07-.524a1.962,1.962,0,0,0-.269-1l-1.887-2.477-2.983-3.916-.686-.9a2.207,2.207,0,0,0-1.179-.906,2.016,2.016,0,0,0-1.52.2,1.991,1.991,0,0,0-.906,1.179l-.07.524a1.966,1.966,0,0,0,.269,1" transform="translate(-555.068 -689.828)" fill="#060000"/>
            <path id="パス_20844" data-name="パス 20844" d="M995.744,960.482q.139,1.005.277,2.01l.665,4.825q.4,2.908.8,5.815.346,2.511.693,5.023c.112.812.208,1.627.336,2.436l0,.033a2.208,2.208,0,0,0,.906,1.179,1.973,1.973,0,0,0,2.7-.708l.2-.471a1.987,1.987,0,0,0,0-1.048l-.277-2.01q-.333-2.412-.666-4.825-.4-2.908-.8-5.816-.346-2.511-.693-5.023c-.112-.812-.208-1.627-.336-2.437,0-.011,0-.022,0-.033a2.207,2.207,0,0,0-.906-1.179,2.014,2.014,0,0,0-1.52-.2,1.993,1.993,0,0,0-1.179.906l-.2.471a1.987,1.987,0,0,0,0,1.049" transform="translate(-864.751 -832.017)" fill="#060000"/>
          </g>
        </g>
      </g>
    </g>
  </g>
</svg>
