<svg xmlns="http://www.w3.org/2000/svg" xmlns:xlink="http://www.w3.org/1999/xlink" width="394" height="240" viewBox="0 0 394 240">
  <defs>
    <clipPath id="clip-path">
      <rect id="長方形_567" data-name="長方形 567" width="394" height="240" transform="translate(1028 4205)" fill="rgba(168,67,67,0.11)"/>
    </clipPath>
    <clipPath id="clip-path-2">
      <rect id="長方形_394" data-name="長方形 394" width="187.586" height="214.216" fill="none"/>
    </clipPath>
  </defs>
  <g id="flow-step04" transform="translate(-1028 -4205)" clip-path="url(#clip-path)">
    <g id="illust04">
      <g id="グループ_2400" data-name="グループ 2400" transform="translate(0 -16)">
        <g id="グループ_2080" data-name="グループ 2080" transform="translate(1229.521 4343.5)">
          <rect id="長方形_122" data-name="長方形 122" width="166.561" height="53.432" transform="translate(5.264 61.665)" fill="#fff"/>
          <path id="パス_694" data-name="パス 694" d="M-211.571-1662.844h-74.924v-49.913l37.462-27.183,37.462,27.183Z" transform="translate(338.452 1741.364)" fill="#fff"/>
          <g id="グループ_439" data-name="グループ 439" transform="translate(74.895 30.136)">
            <g id="グループ_437" data-name="グループ 437" transform="translate(0 0)">
              <ellipse id="楕円形_35" data-name="楕円形 35" cx="12.948" cy="12.434" rx="12.948" ry="12.434" transform="translate(1.577 1.536)" fill="#d3faf8"/>
              <path id="パス_695" data-name="パス 695" d="M-244.892-1705.454a11.035,11.035,0,0,1-7.448,10.235,11.779,11.779,0,0,1-12.706-3.372,10.629,10.629,0,0,1-.92-12.453,11.605,11.605,0,0,1,11.786-5.126,11.154,11.154,0,0,1,9.287,10.716c.028,1.986,3.246,1.992,3.218,0a14.212,14.212,0,0,0-9.488-13.1,15.02,15.02,0,0,0-16.265,4.178,13.673,13.673,0,0,0-1.316,16.071,14.97,14.97,0,0,0,15.246,6.576,14.283,14.283,0,0,0,11.823-13.725C-241.646-1707.443-244.863-1707.444-244.892-1705.454Z" transform="translate(270.757 1719.423)" fill="#060000"/>
            </g>
            <g id="グループ_438" data-name="グループ 438" transform="translate(6.475 5.213)">
              <path id="パス_696" data-name="パス 696" d="M-265.48-1707.641l6.115,2.993a1.788,1.788,0,0,0,2.068-.255l6.595-8a1.643,1.643,0,0,0,0-2.318,1.77,1.77,0,0,0-2.415,0l-6.593,8,2.068-.256-6.114-2.994a1.79,1.79,0,0,0-2.336.588,1.62,1.62,0,0,0,.612,2.242Z" transform="translate(266.314 1715.699)" fill="#060000"/>
            </g>
          </g>
          <g id="グループ_441" data-name="グループ 441" transform="translate(0 44.106)">
            <path id="パス_697" data-name="パス 697" d="M-311.694-1709.442l-10.451,23.514h53.816v-23.514Z" transform="translate(322.144 1709.442)" fill="#19cecd"/>
          </g>
          <g id="グループ_443" data-name="グループ 443" transform="translate(124.718 44.106)">
            <path id="パス_699" data-name="パス 699" d="M-194.491-1709.442l10.451,23.514h-52.532v-23.514Z" transform="translate(236.572 1709.442)" fill="#19cecd"/>
          </g>
          <g id="グループ_445" data-name="グループ 445" transform="translate(51.517)">
            <path id="パス_702" data-name="パス 702" d="M-284.146-1710.413l31.94-24.607,4.527-3.487h-2.135l32.715,24.631,4.6,3.464c1.511,1.138,3.663-.9,2.134-2.05l-32.714-24.631-4.6-3.462a1.621,1.621,0,0,0-2.135,0l-31.94,24.606-4.525,3.487c-1.516,1.167.633,3.208,2.134,2.05Z" transform="translate(286.797 1740.957)" fill="#060000"/>
          </g>
          <g id="グループ_446" data-name="グループ 446" transform="translate(51.517 8.948)">
            <path id="パス_703" data-name="パス 703" d="M-284.146-1704.019l31.94-24.607,4.527-3.488h-2.135l32.715,24.631,4.6,3.464c1.511,1.137,3.663-.9,2.134-2.05l-32.714-24.631-4.6-3.463a1.625,1.625,0,0,0-2.135,0l-31.94,24.607-4.525,3.487c-1.516,1.167.633,3.206,2.134,2.05Z" transform="translate(286.797 1734.563)" fill="#060000"/>
          </g>
          <g id="グループ_448" data-name="グループ 448" transform="translate(52.393 72.057)">
            <rect id="長方形_123" data-name="長方形 123" width="70.902" height="8.703" transform="translate(1.423 1.365)" fill="#fff"/>
            <g id="グループ_447" data-name="グループ 447">
              <path id="パス_704" data-name="パス 704" d="M-213.872-1680.768h-70.9l1.423,1.365v-8.7l-1.423,1.365h70.9l-1.423-1.365v8.7a1.427,1.427,0,0,0,2.845,0v-8.7a1.415,1.415,0,0,0-1.422-1.366h-70.9a1.416,1.416,0,0,0-1.422,1.366v8.7a1.416,1.416,0,0,0,1.422,1.366h70.9A1.366,1.366,0,1,0-213.872-1680.768Z" transform="translate(286.196 1689.47)" fill="#060000"/>
            </g>
          </g>
          <g id="グループ_449" data-name="グループ 449" transform="translate(57.272 93.104)">
            <path id="パス_705" data-name="パス 705" d="M-282.848-1677.406v20.594c0,1.865,3.018,1.869,3.018,0v-20.594c0-1.864-3.018-1.867-3.018,0Z" transform="translate(282.848 1678.806)" fill="#060000"/>
          </g>
          <g id="グループ_450" data-name="グループ 450" transform="translate(118.226 81.438)">
            <path id="パス_706" data-name="パス 706" d="M-241.026-1681.072v31.668a1.52,1.52,0,1,0,3.018,0v-31.668a1.519,1.519,0,1,0-3.018,0Z" transform="translate(241.026 1682.766)" fill="#060000"/>
          </g>
          <g id="グループ_452" data-name="グループ 452" transform="translate(25.344 80.759)">
            <path id="パス_22187" data-name="パス 22187" d="M0,0H15.292V14.684H0Z" transform="translate(1.423 1.366)" fill="#d3faf8"/>
            <g id="グループ_451" data-name="グループ 451">
              <path id="パス_707" data-name="パス 707" d="M-288.04-1668.567h-15.293l1.422,1.366v-14.684l-1.422,1.365h15.293l-1.422-1.365v14.684a1.426,1.426,0,0,0,2.844,0v-14.684a1.415,1.415,0,0,0-1.421-1.366h-15.293a1.417,1.417,0,0,0-1.423,1.366v14.684a1.417,1.417,0,0,0,1.423,1.366h15.293A1.366,1.366,0,1,0-288.04-1668.567Z" transform="translate(304.755 1683.251)" fill="#060000"/>
            </g>
          </g>
          <g id="グループ_454" data-name="グループ 454" transform="translate(133.618 80.759)">
            <rect id="長方形_125" data-name="長方形 125" width="15.292" height="14.684" transform="translate(1.422 1.366)" fill="#d3faf8"/>
            <g id="グループ_453" data-name="グループ 453">
              <path id="パス_708" data-name="パス 708" d="M-213.751-1668.567h-15.292l1.422,1.366v-14.684l-1.422,1.365h15.292l-1.422-1.365v14.684a1.426,1.426,0,0,0,2.845,0v-14.684a1.415,1.415,0,0,0-1.422-1.366h-15.292a1.416,1.416,0,0,0-1.422,1.366v14.684a1.416,1.416,0,0,0,1.422,1.366h15.292A1.366,1.366,0,1,0-213.751-1668.567Z" transform="translate(230.465 1683.251)" fill="#060000"/>
            </g>
          </g>
          <g id="グループ_455" data-name="グループ 455" transform="translate(87.911 81.488)">
            <path id="パス_709" data-name="パス 709" d="M-261.826-1681.034v31.615a1.52,1.52,0,1,0,3.018,0v-31.615a1.52,1.52,0,1,0-3.018,0Z" transform="translate(261.826 1682.731)" fill="#060000"/>
          </g>
          <path id="パス_2113" data-name="パス 2113" d="M-2296.019,2539.448h52.631" transform="translate(2296.019 -2471.938)" fill="none" stroke="#060000" stroke-linecap="round" stroke-width="2"/>
          <path id="パス_2114" data-name="パス 2114" d="M-2296.019,2539.448h52.631" transform="translate(2421.868 -2471.938)" fill="none" stroke="#060000" stroke-linecap="round" stroke-width="2"/>
          <path id="パス_2146" data-name="パス 2146" d="M5.4,60.98v44.441" transform="translate(-0.131 11.076)" fill="none" stroke="#060000" stroke-linecap="round" stroke-width="2"/>
          <path id="パス_2147" data-name="パス 2147" d="M5.4,60.98v44.441" transform="translate(166.439 11.076)" fill="none" stroke="#060000" stroke-linecap="round" stroke-width="2"/>
        </g>
        <g id="グループ_2081" data-name="グループ 2081" transform="translate(0 5)">
          <path id="合体_31" data-name="合体 31" d="M11049.213-3659H11034a4,4,0,0,1-4-4v-29a4,4,0,0,1,4-4h43a4,4,0,0,1,4,4v29a4,4,0,0,1-4,4h-15.951l-5.879,11.229Z" transform="translate(-9737 7978)" fill="#d3faf8"/>
          <circle id="楕円形_74" data-name="楕円形 74" cx="5.5" cy="5.5" r="5.5" transform="translate(1313 4289)" fill="#19cecd"/>
          <path id="前面オブジェクトで型抜き_2" data-name="前面オブジェクトで型抜き 2" d="M18.984,9.088H0a9.5,9.5,0,0,1,16.073-6.44,9.448,9.448,0,0,1,2.911,6.439Z" transform="translate(1309.009 4301.652)" fill="#19cecd"/>
        </g>
      </g>
      <g id="グループ_2638" data-name="グループ 2638" transform="translate(1041.552 4230.758)">
        <g id="グループ_2563" data-name="グループ 2563" transform="translate(0 0.002)" clip-path="url(#clip-path-2)">
          <path id="パス_21155" data-name="パス 21155" d="M565.788,191.023l1.921-25.521,6.86-.823s5.763-8.232,6.037-17.014-1.646-22.228-1.646-22.228-9.6-8.507-17.837-10.7-9.6-2.2-9.6-2.2l-16.191,22.228,4.665,24.7-2.2,9.6s19.209,20.856,27.991,21.954" transform="translate(-481.024 -101.123)" fill="#fff"/>
          <path id="パス_21156" data-name="パス 21156" d="M60.414,669.82l-6.586,5.488s-26.07,10.154-28.265,11.8-6.312,5.488-6.312,5.488-6.037,36.772-6.037,59.549,3.293,34.577,3.293,34.577l21.954-2.47L36.54,815.536h86.716l.549-44.181v-14.27l16.465,2.47L151.8,740.071,130.116,738.7l-.549-22.777-7.958-32.381-14.023-5.958-9.577,4.586-2.486,6.563-5.118-9.87-27.234-5.483Z" transform="translate(-11.874 -601.874)" fill="#c8e3fa"/>
          <path id="パス_21157" data-name="パス 21157" d="M1212.009,1199.456l34.685-8.433L1272.946,1146l-1.591-1.432-33.253,5.569-3.818,2.387-24.98,44.709.318,2.228Z" transform="translate(-1086.633 -1028.461)" fill="#ffec00"/>
          <path id="パス_21158" data-name="パス 21158" d="M551.033,691.974l-3.838-21.75,2.924-9.687-8.956-4.387-3.107,15.536-5.118-9.87-25.771-10.967-1.462,5.483,29.061,36.738,20.471,38.018Z" transform="translate(-454.406 -584.827)" fill="#fff"/>
          <path id="パス_21159" data-name="パス 21159" d="M555.269,446.932l3.062-10.061-5.4-2.187Z" transform="translate(-496.847 -390.589)" fill="#f49902"/>
          <path id="パス_21160" data-name="パス 21160" d="M505.271,55.851s1.021-5.833,3.062-5.687,4.958,2.333,4.958,2.333V48.268s9.186-15.6,9.624-16.04,19.394,2.187,25.81,12.54l2.771-12.978s-7.874-8.457-18.664-10.644a29.306,29.306,0,0,0-18.81,2.333l-6.27,7.145-6.562,7.145Z" transform="translate(-450.348 -18.464)" fill="#f49902"/>
          <path id="パス_21161" data-name="パス 21161" d="M868.935,1372.869s8.232,3.018,13.446,1.646,12.074-6.586,12.074-6.586-2.2,7.409-.549,7.135,6.349-4.006,6.349-4.006l6.823-18.222-7.958-5.488,15.916-3.568,3.567-5.763-27.716,4.665-19.209,11.8-6.311,1.1Z" transform="translate(-777.586 -1202.29)" fill="#fff"/>
          <path id="パス_21162" data-name="パス 21162" d="M1488.019,1406.95l-11.251-.549,2.2,3.568s-5.488.549-5.214,2.2a6.477,6.477,0,0,0,1.647,3.019l-5.763,2.47,3.293,4.939s-4.665-1.1-4.391.275,2.744,3.842,2.744,3.842,7.684,4.665,10.154,3.293,10.428-11.251,10.428-11.251l3.019-11.251s-.549-4.39-2.744-4.665-4.116,4.116-4.116,4.116" transform="translate(-1319.557 -1260.52)" fill="#fff"/>
          <path id="パス_21163" data-name="パス 21163" d="M815.232,233.624c.166.813.3,1.635.422,2.456q.111.731.21,1.464l-.054-.4q.443,3.3.645,6.628a77.669,77.669,0,0,1,.072,8.425c-.082,1.688-.228,3.373-.452,5.048l.054-.4a41.469,41.469,0,0,1-1.772,7.8q-.353,1.038-.778,2.048l.153-.364a24,24,0,0,1-2.738,4.883l1.314-.754-3.649.274-5.77.434-1.333.1a1.622,1.622,0,0,0-1.076.446,1.522,1.522,0,0,0,0,2.152,1.5,1.5,0,0,0,1.076.446l2.988-.225,5.381-.4,1.878-.141c.148-.011.3-.021.443-.033l.061,0a1.63,1.63,0,0,0,.768-.208,2,2,0,0,0,.546-.546l.111-.151q.131-.181.258-.364a27.132,27.132,0,0,0,3.173-6.409,39.366,39.366,0,0,0,1.7-6.836,61.315,61.315,0,0,0,.731-7.378c.088-2.209.069-4.421-.033-6.629q-.131-2.831-.443-5.65-.246-2.241-.6-4.47c-.1-.655-.213-1.309-.341-1.959l-.017-.083a1.522,1.522,0,0,0-2.781-.363,1.677,1.677,0,0,0-.153,1.172" transform="translate(-718.877 -208.194)" fill="#060000"/>
          <path id="パス_21164" data-name="パス 21164" d="M849.608,322.125l.222.945.535,2.282.645,2.749.56,2.387c.09.385.174.772.271,1.155l0,.016a1.522,1.522,0,0,0,2.781.363,1.634,1.634,0,0,0,.154-1.172l-.222-.945-.535-2.282-.645-2.749-.56-2.387c-.09-.385-.174-.772-.271-1.155l0-.016a1.522,1.522,0,0,0-2.781-.363,1.633,1.633,0,0,0-.154,1.172" transform="translate(-763.383 -287.717)" fill="#060000"/>
          <path id="パス_21165" data-name="パス 21165" d="M743.7,322.84a1.571,1.571,0,0,0,1.076-.446,1.522,1.522,0,0,0,0-2.152,1.522,1.522,0,0,0-2.152,0,1.522,1.522,0,0,0,0,2.152,1.581,1.581,0,0,0,1.076.446" transform="translate(-666.896 -287.357)" fill="#060000"/>
          <path id="パス_21166" data-name="パス 21166" d="M905.433,314.754a1.571,1.571,0,0,0,1.076-.446,1.522,1.522,0,0,0,0-2.152,1.522,1.522,0,0,0-2.152,0,1.522,1.522,0,0,0,0,2.152,1.581,1.581,0,0,0,1.076.446" transform="translate(-812.218 -280.091)" fill="#060000"/>
          <path id="パス_21167" data-name="パス 21167" d="M781.924,498.275a17.573,17.573,0,0,0,1.994.232,27.48,27.48,0,0,0,4.281-.051,34.239,34.239,0,0,0,3.62-.511,1.537,1.537,0,0,0,.909-.7,1.521,1.521,0,0,0-.546-2.082l-.363-.153a1.533,1.533,0,0,0-.809,0q-.9.178-1.819.3l.4-.054a27.747,27.747,0,0,1-6.047.178c-.282-.024-.563-.054-.843-.092l.4.054c-.126-.017-.251-.034-.376-.057a1.153,1.153,0,0,0-.607-.027,1.132,1.132,0,0,0-.566.181,1.521,1.521,0,0,0-.546,2.082,1.5,1.5,0,0,0,.909.7" transform="translate(-701.606 -444.748)" fill="#060000"/>
          <path id="パス_21168" data-name="パス 21168" d="M720.2,262.113c.044-.041.092-.078.14-.115l-.308.238a5.932,5.932,0,0,1,1.322-.752l-.363.153a7.31,7.31,0,0,1,1.845-.5l-.4.054a8.246,8.246,0,0,1,2.167.012l-.4-.054a10.323,10.323,0,0,1,2.239.584,1.152,1.152,0,0,0,.607.027,1.133,1.133,0,0,0,.566-.181,1.521,1.521,0,0,0,.546-2.082l-.238-.308a1.519,1.519,0,0,0-.671-.391,11.455,11.455,0,0,0-3-.679,9.422,9.422,0,0,0-2.511.13,8.669,8.669,0,0,0-1.952.622,6.364,6.364,0,0,0-1.014.544,5.877,5.877,0,0,0-.714.543,1.521,1.521,0,0,0,0,2.152,1.53,1.53,0,0,0,1.076.446,1.645,1.645,0,0,0,1.076-.446" transform="translate(-644.808 -231.907)" fill="#060000"/>
          <path id="パス_21169" data-name="パス 21169" d="M892.059,252.55l.016-.012-.308.238a5.24,5.24,0,0,1,1.165-.651l-.363.153a6.745,6.745,0,0,1,1.681-.458l-.4.054a6.9,6.9,0,0,1,1.8,0l-.4-.054a7.644,7.644,0,0,1,1.069.226,1.571,1.571,0,0,0,1.172-.153,1.521,1.521,0,0,0,.546-2.082,1.6,1.6,0,0,0-.909-.7,8.143,8.143,0,0,0-5.793.414,6.022,6.022,0,0,0-.787.411,6.314,6.314,0,0,0-.634.462,1.692,1.692,0,0,0-.446,1.076,1.548,1.548,0,0,0,.446,1.076,1.531,1.531,0,0,0,1.076.446l.4-.054a1.521,1.521,0,0,0,.671-.391" transform="translate(-799.234 -223.543)" fill="#060000"/>
          <path id="パス_21170" data-name="パス 21170" d="M712.008,119.754c.271.011.542.04.811.07q.249.028.5.061l-.4-.054c.915.123,1.824.3,2.724.5a37.8,37.8,0,0,1,3.873,1.113q1.308.451,2.584.99l-.363-.153q1.866.789,3.652,1.752a44.27,44.27,0,0,1,3.883,2.359q1.154.784,2.257,1.638l-.308-.238a47.92,47.92,0,0,1,3.734,3.212,1.584,1.584,0,0,0,1.076.446,1.548,1.548,0,0,0,1.076-.446,1.531,1.531,0,0,0,.446-1.076,1.557,1.557,0,0,0-.446-1.076,48.855,48.855,0,0,0-7.16-5.658,43.437,43.437,0,0,0-6.4-3.421,42.714,42.714,0,0,0-5.733-2.034,32.691,32.691,0,0,0-3.773-.8,18.867,18.867,0,0,0-2.008-.23h-.022a1.522,1.522,0,0,0-1.076,2.6,1.634,1.634,0,0,0,1.076.446" transform="translate(-638.414 -104.871)" fill="#060000"/>
          <path id="パス_21171" data-name="パス 21171" d="M543.68,159.892l-1.322,2.2-2.773,4.606-2.426,4.029c-.179.3-.36.593-.537.892a2.828,2.828,0,0,0-.2,1.656q.093,2.334.187,4.669,0,.053,0,.106l2.6-1.076a13.321,13.321,0,0,0-.995-1.111,12.916,12.916,0,0,0-1.031-.946,9.561,9.561,0,0,0-1.49-1.046,6.839,6.839,0,0,0-.971-.425,4.444,4.444,0,0,0-.994-.2,3.338,3.338,0,0,0-.986.07,1.686,1.686,0,0,0-.289.083,3.781,3.781,0,0,0-.62.281,5.573,5.573,0,0,0-2.1,3.038,15.077,15.077,0,0,0-.727,3.718,16.533,16.533,0,0,0,.118,3.8,7.778,7.778,0,0,0,.327,1.425,7.28,7.28,0,0,0,.378.906,4.4,4.4,0,0,0,.515.755,2.433,2.433,0,0,0,.38.375,8.14,8.14,0,0,0,.854.619,10.918,10.918,0,0,0,1.439.722,30.307,30.307,0,0,0,3.614,1.265c.7.2,1.4.379,2.1.538l.108.024a1.613,1.613,0,0,0,1.172-.153,1.522,1.522,0,0,0,.546-2.082,1.525,1.525,0,0,0-.909-.7,35.773,35.773,0,0,1-3.794-1.049c-.553-.185-1.1-.386-1.638-.612l.364.153a8.792,8.792,0,0,1-1.948-1.061l.308.238a2.53,2.53,0,0,1-.448-.43l.238.308a3.084,3.084,0,0,1-.384-.679l.153.363a7.256,7.256,0,0,1-.46-1.842l.054.4a15.511,15.511,0,0,1,.037-4.067l-.054.4a11.824,11.824,0,0,1,.755-2.976l-.153.363a5.148,5.148,0,0,1,.635-1.132l-.238.308a2.58,2.58,0,0,1,.43-.445l-.308.238a1.781,1.781,0,0,1,.377-.223l-.363.153a1.721,1.721,0,0,1,.423-.115l-.4.054a2.056,2.056,0,0,1,.514,0l-.4-.054a3.1,3.1,0,0,1,.773.218l-.364-.153a6.307,6.307,0,0,1,1.381.84l-.308-.238a13.667,13.667,0,0,1,2.093,2.052c.046.055.091.109.135.165l.308.238.363.153a1.511,1.511,0,0,0,.991-.077,1.543,1.543,0,0,0,.935-1.391q-.038-.947-.076-1.894-.061-1.517-.121-3.034l-.028-.693-.208.768.7-1.171,1.692-2.811,2.047-3.4,1.769-2.938c.286-.475.579-.946.858-1.426l.012-.019a1.57,1.57,0,0,0,.153-1.173,1.522,1.522,0,0,0-1.872-1.063,1.606,1.606,0,0,0-.909.7" transform="translate(-475.296 -142.992)" fill="#060000"/>
          <path id="パス_21172" data-name="パス 21172" d="M499.224,66.555l.494-4.742.364-3.5c.069-.664.167-1.332.208-2a5.289,5.289,0,0,0-.258-1.407q-.214-.942-.419-1.886-.457-2.1-.885-4.2-.961-4.693-1.843-9.4-.869-4.6-1.687-9.2c-.433-2.439-.858-4.88-1.258-7.325-.133-.812-.263-1.624-.382-2.437q-.031-.215-.062-.43c0-.032-.009-.065-.013-.1-.032-.224.049.374.038.287-.007-.06-.016-.12-.023-.179-.02-.16-.044-.322-.052-.484,0-.023,0-.046,0-.069-.029-.22-.067.32-.042.266a.982.982,0,0,0,.051-.171c.05-.2-.18.373-.1.229.024-.041.042-.087.064-.129a5.52,5.52,0,0,1,.33-.539c.062-.092.127-.182.192-.272l.113-.153c.04-.053.224-.293.036-.049s-.017.023.026-.031l.133-.166q.149-.184.3-.364.3-.355.606-.7.641-.726,1.308-1.428,1.032-1.094,2.1-2.152a2.456,2.456,0,0,0,.69-.966c.077-.2.219-.5-.03.047a13.735,13.735,0,0,1,1.2-2.117c.179-.262.367-.517.557-.771.141-.188-.232.293-.033.042.056-.071.112-.142.169-.212q.192-.238.39-.471c.584-.687,1.207-1.34,1.857-1.965.787-.757,1.615-1.47,2.47-2.15l-.671.391a36.577,36.577,0,0,1,3.682-1.207c1.238-.347,2.489-.644,3.753-.881q.534-.1,1.072-.185.228-.036.456-.069c.092-.013.184-.024.276-.039-.494.081-.048.008.058-.005.75-.091,1.5-.157,2.257-.19.724-.032,1.45-.033,2.174,0q.537.028,1.071.086l.231.027c.337.038-.372-.057-.038-.005.212.033.423.066.634.106a27.843,27.843,0,0,1,4.29,1.238q.519.188,1.033.39.283.111.565.227l.282.117-.081-.034.188.081q1.089.468,2.153.991a49,49,0,0,1,4.29,2.373q1.076.668,2.112,1.4.494.349.977.714c.072.055.143.113.217.166-.383-.274-.033-.024.046.039q.242.191.48.388c.552.455,1.087.931,1.6,1.434q.348.344.676.706.167.185.327.375c.089.105.454.571.1.116l-.153-1.172-.612,4.285-.977,6.84-.226,1.584a1.674,1.674,0,0,0,.153,1.172,1.522,1.522,0,0,0,2.781-.363l1.272-8.9q.267-1.865.533-3.731l.01-.074a1.645,1.645,0,0,0-.194-1.227,5.959,5.959,0,0,0-.45-.573,16.056,16.056,0,0,0-1.2-1.3,30.854,30.854,0,0,0-3.438-2.833,46.616,46.616,0,0,0-8.28-4.747A31.218,31.218,0,0,0,519.922.116a29.206,29.206,0,0,0-9.076.7,44.449,44.449,0,0,0-5.892,1.676c-.171.062-.342.125-.512.191l-.08.031a6.064,6.064,0,0,0-1.541,1.1,29.388,29.388,0,0,0-3.485,3.437,16.774,16.774,0,0,0-2.944,4.6c-.024.062-.05.124-.07.188l.391-.671q-1.578,1.537-3.068,3.164a34.54,34.54,0,0,0-2.234,2.661,3.967,3.967,0,0,0-1.011,2.28,10.8,10.8,0,0,0,.149,1.258c.08.579.169,1.158.26,1.735.292,1.851.607,3.7.927,5.545q1.352,7.8,2.857,15.568.752,3.887,1.557,7.763.363,1.734.745,3.463.176.794.359,1.587a1.254,1.254,0,0,0,.042.181c-1.141-2.793-.015-.431-.041-.34,0,.012,0,.025,0,.037-.011.058-.013.12-.019.179l-1.022,9.809-.03.287a1.526,1.526,0,0,0,1.522,1.522,1.564,1.564,0,0,0,1.522-1.522" transform="translate(-440.654 -0.002)" fill="#060000"/>
          <path id="パス_21173" data-name="パス 21173" d="M829.256,627.642l-.181,1.448-.431,3.449-.523,4.182-.452,3.614c-.073.584-.158,1.168-.219,1.753,0,.008,0,.017,0,.025a1.693,1.693,0,0,0,.446,1.076,1.522,1.522,0,0,0,2.152,0l.238-.308a1.515,1.515,0,0,0,.208-.768l.181-1.448.431-3.449.523-4.182.452-3.615c.073-.584.158-1.168.219-1.753,0-.008,0-.017,0-.025a1.693,1.693,0,0,0-.446-1.076,1.522,1.522,0,0,0-2.152,0l-.238.308a1.514,1.514,0,0,0-.208.768" transform="translate(-743.51 -562.606)" fill="#060000"/>
          <path id="パス_21174" data-name="パス 21174" d="M525.394,654.058l-1.282-3-1.938-4.535c-.207-.485-.356-1.038-.87-1.3-.113-.058-.229-.109-.344-.163l-2.264-1.073-3.817-1.808-4.71-2.231-4.929-2.335-4.507-2.135-3.437-1.628-1.695-.8-.074-.035a1.6,1.6,0,0,0-1.173-.154,1.517,1.517,0,0,0-.909.7l-1.584,3.168-.225.45a1.618,1.618,0,0,0-.153,1.173,1.551,1.551,0,0,0,.7.909,1.535,1.535,0,0,0,1.173.153,1.516,1.516,0,0,0,.909-.7l1.584-3.168.225-.45-2.082.546.692.328,1.873.887,2.78,1.317,3.379,1.6,3.7,1.753,3.75,1.776,3.483,1.65,2.955,1.4,2.117,1c.335.159.668.322,1,.476l.044.021-.546-.546,1.2,2.809,1.905,4.459.437,1.024a1.52,1.52,0,0,0,.909.7,1.555,1.555,0,0,0,1.172-.153,1.535,1.535,0,0,0,.7-.909l.054-.4a1.514,1.514,0,0,0-.208-.768" transform="translate(-441.581 -568.61)" fill="#060000"/>
          <path id="パス_21175" data-name="パス 21175" d="M665.868,793.469l.633-.9,1.511-2.159,1.827-2.61,1.58-2.257c.256-.366.52-.728.769-1.1l.011-.016a1.133,1.133,0,0,0,.181-.566,1.153,1.153,0,0,0-.027-.607,1.551,1.551,0,0,0-.7-.909,1.536,1.536,0,0,0-1.172-.154l-.363.154a1.528,1.528,0,0,0-.546.546l-.633.9-1.511,2.159-1.827,2.61-1.58,2.257c-.256.366-.52.728-.769,1.1l-.011.016a1.133,1.133,0,0,0-.18.566,1.153,1.153,0,0,0,.027.607,1.522,1.522,0,0,0,1.872,1.063l.363-.153a1.527,1.527,0,0,0,.546-.546" transform="translate(-595.774 -702.792)" fill="#060000"/>
          <path id="パス_21176" data-name="パス 21176" d="M90.83,676.181c.878,3.519,1.557,7.1,2.3,10.644.367,1.749.675,3.505.944,5.272q.234,1.54.445,3.083.06.431.118.863c.008.06.064.473.032.239-.028-.209.037.278.048.357q.119.895.234,1.79c.685,5.323,1.3,10.656,1.883,15.99q.809,7.344,1.556,14.7.254,2.49.5,4.981c.079.795.113,1.609.237,2.4.006.036.007.072.011.108l2.835-.768-2.347-4.295q-2.751-5.033-5.506-10.065-3.178-5.8-6.365-11.6-2.453-4.462-4.922-8.915a28.161,28.161,0,0,0-1.964-3.214c-1.594-2.134-3.232-4.235-4.862-6.341q-3.692-4.771-7.4-9.526-4.074-5.226-8.156-10.444-3.45-4.412-6.9-8.82L49.9,657.956l-.168-.215a1.515,1.515,0,0,0-1.844-.238l-4.262,3.267-2.26,1.733a2.015,2.015,0,0,1-.456.283c-2.93,1.287-5.9,2.494-8.847,3.74L18.8,672.134,14.377,674a7.821,7.821,0,0,0-1.627.842A32.1,32.1,0,0,0,7,679.671a5.871,5.871,0,0,0-1.011,1.5,3.185,3.185,0,0,0-.234.932c0,.017.087-.554.039-.3s-.083.5-.126.747c-.489,2.839-.961,5.681-1.395,8.529Q3.066,699,2.166,706.963c-.754,6.679-1.339,13.378-1.714,20.09-.414,7.42-.574,14.859-.352,22.288a161.5,161.5,0,0,0,2.056,22.091q.427,2.524.969,5.027A1.561,1.561,0,0,0,5,777.522l2.325-.343,6.328-.934,9.41-1.388,11.433-1.686,12.522-1.847,12.641-1.865,11.84-1.747,9.958-1.469,7.163-1.057c1.129-.166,2.277-.285,3.4-.5.049-.009.1-.014.147-.022.875-.129,1.178-1.145,1.063-1.872L92.043,755.3l-1.884-11.931-.432-2.733a1.515,1.515,0,0,0-1.467-1.117l-6.15.683-14.767,1.641-17.8,1.979L34.1,745.543c-2.5.278-5,.543-7.5.833l-.1.012a1.567,1.567,0,0,0-1.522,1.522,1.531,1.531,0,0,0,1.522,1.522l6.15-.684,14.767-1.641,17.8-1.979,15.441-1.716,5.076-.564c.8-.089,1.631-.125,2.424-.269.034-.006.069-.008.1-.011l-1.467-1.117,1.182,7.487,1.884,11.93.432,2.734,1.063-1.872-2.325.343-6.329.934-9.41,1.388L61.857,766.08l-12.522,1.847L36.7,769.792l-11.84,1.747L14.9,773.008l-7.163,1.057c-1.129.167-2.276.29-3.4.5-.049.009-.1.014-.147.022l1.872,1.063a132.549,132.549,0,0,1-2.693-21.086c-.416-7.381-.405-14.784-.123-22.17.265-6.933.773-13.857,1.467-20.76q.456-4.535,1.018-9.059.125-1.007.255-2.013.065-.5.132-1.008.033-.248.066-.5c.017-.127.073-.545.027-.207q.249-1.852.516-3.7.754-5.236,1.647-10.451c.119-.693.248-1.385.356-2.08l.013-.086c.02-.137.041-.275.056-.413s-.069.492-.038.311c.066-.389.042.078-.036.037a4.934,4.934,0,0,1,.312-.507c.07-.169-.2.232-.071.089.043-.048.082-.1.123-.15.1-.119.2-.235.309-.349a25.557,25.557,0,0,1,2.921-2.6l.336-.264c.174-.137-.2.153-.027.02l.183-.14q.36-.275.725-.544.5-.367,1-.725a2.6,2.6,0,0,1,.478-.283c1.016-.448,2.046-.865,3.068-1.3l12.428-5.254,10.907-4.611a6.758,6.758,0,0,0,1.569-.781l5.127-3.931,1.313-1.006-1.844-.238,2.542,3.243q3.146,4.015,6.29,8.033,4,5.115,8,10.234,3.9,4.992,7.78,9.994.836,1.077,1.671,2.156l.364.471.192.249.081.106-.05-.064.722.936q1.173,1.522,2.338,3.051a25.662,25.662,0,0,1,1.988,2.918c1.429,2.534,2.827,5.085,4.23,7.633q3.121,5.668,6.227,11.343,2.965,5.41,5.924,10.823,1.657,3.031,3.313,6.063l.159.291c.69,1.264,2.984.764,2.835-.768q-.3-3.044-.607-6.087-.72-7.1-1.491-14.2c-.589-5.408-1.2-10.813-1.878-16.211-.523-4.162-1.023-8.347-1.811-12.469-.57-2.985-1.241-5.954-1.886-8.924-.235-1.081-.429-2.188-.727-3.254-.008-.03-.014-.06-.022-.091-.474-1.9-3.409-1.095-2.934.809" transform="translate(-0.001 -590.616)" fill="#060000"/>
          <path id="パス_21177" data-name="パス 21177" d="M841.533,690.2l.881.439,2.117,1.054,2.563,1.276,2.217,1.1c.361.179.719.365,1.083.539l.015.007-.7-1.718-.916,2.671-1.461,4.261-.337.982a1.522,1.522,0,0,0,2.235,1.718,1.678,1.678,0,0,0,.7-.909l.916-2.671,1.461-4.261.337-.982.054-.4a1.146,1.146,0,0,0-.131-.586,1.429,1.429,0,0,0-.623-.728l-.881-.439-2.117-1.054-2.562-1.276-2.217-1.1c-.361-.18-.721-.361-1.083-.539l-.015-.007a1.62,1.62,0,0,0-1.173-.153,1.552,1.552,0,0,0-.909.7,1.536,1.536,0,0,0-.153,1.173,1.514,1.514,0,0,0,.7.909" transform="translate(-755.487 -617.644)" fill="#060000"/>
          <path id="パス_21178" data-name="パス 21178" d="M298.394,1046.72l-.145,1.319-.4,3.59-.584,5.309-.713,6.478-.778,7.07-.788,7.16-.735,6.676-.619,5.624-.448,4.071c-.07.638-.151,1.275-.211,1.914,0,.028-.006.055-.009.083a1.52,1.52,0,0,0,.446,1.076,1.522,1.522,0,0,0,2.152,0,1.751,1.751,0,0,0,.446-1.076l.145-1.319.4-3.59.585-5.309.713-6.478.778-7.07.788-7.161.735-6.676.619-5.624.448-4.071c.07-.638.151-1.275.211-1.914,0-.028.006-.055.009-.083a1.52,1.52,0,0,0-.446-1.076,1.522,1.522,0,0,0-2.152,0,1.752,1.752,0,0,0-.446,1.076" transform="translate(-263.245 -939.173)" fill="#060000"/>
          <path id="パス_21179" data-name="パス 21179" d="M862.7,1347.543l4.567-.523a3.038,3.038,0,0,0,1.121-.25c.052-.028.1-.061.151-.092l.927-.562,3.76-2.282,5.094-3.092,5.061-3.072,3.583-2.174c.271-.164.544-.324.812-.492.24-.151-.234.1-.273.1a1.453,1.453,0,0,0,.283-.053l4.1-.761,5.959-1.107,3.887-.722.2-.037-.4.054,4.366-.489,6.924-.776,1.588-.178a1.653,1.653,0,0,0,1.076-.446,1.522,1.522,0,0,0,0-2.152A1.471,1.471,0,0,0,914.4,1328l-4.172.467-6.847.767c-.956.107-1.911.2-2.858.373l-5.711,1.061-6.536,1.214c-.511.095-1.026.177-1.534.285a2.633,2.633,0,0,0-.792.388l-3.789,2.3-6,3.64-5.84,3.545-3.318,2.013-.158.1.768-.208-4.3.492-.621.071a1.657,1.657,0,0,0-1.076.446,1.522,1.522,0,0,0,0,2.152,1.469,1.469,0,0,0,1.076.446" transform="translate(-773.822 -1193.28)" fill="#060000"/>
          <path id="パス_21180" data-name="パス 21180" d="M415.562,709.2l1.638,5.691,2.591,9,.593,2.059a1.565,1.565,0,0,0,1.467,1.117l3.511.171,5.6.273,1.293.063-1.314-2.289-1.2,2.822-1.912,4.506-.444,1.046a1.732,1.732,0,0,0-.181.97,1.491,1.491,0,0,0,.418.874l.731.731,1.991,1.991,2.945,2.945,3.611,3.611,3.938,3.938,3.975,3.975,3.707,3.707,3.134,3.134,2.255,2.255c.358.358.71.721,1.073,1.073l.045.045a1.522,1.522,0,1,0,2.152-2.152l-.731-.731-1.991-1.991-2.945-2.945-3.611-3.611-3.938-3.938-3.975-3.975-3.707-3.707-3.134-3.134-2.255-2.255c-.357-.357-.708-.724-1.073-1.073l-.045-.045.238,1.844,1.2-2.822,1.912-4.507.444-1.046a1.605,1.605,0,0,0,0-1.536,1.557,1.557,0,0,0-1.314-.754l-3.511-.171-5.6-.273-1.293-.063,1.467,1.117-1.638-5.691-2.591-9-.593-2.059a1.522,1.522,0,1,0-2.934.809" transform="translate(-373.356 -635.521)" fill="#060000"/>
          <path id="パス_21181" data-name="パス 21181" d="M975.956,849.36c.089.534.166,1.069.242,1.6q.071.5.137.994l-.054-.4q.268,2,.486,4,.3,2.73.519,5.469.266,3.3.42,6.609.173,3.751.192,7.507.017,4.024-.167,8.045-.025.522-.053,1.044a1.522,1.522,0,0,0,3.043,0c.192-3.517.253-7.04.208-10.561q-.061-4.743-.37-9.479-.248-3.857-.649-7.7-.3-2.841-.686-5.671c-.1-.744-.189-1.5-.329-2.236l0-.028a1.526,1.526,0,0,0-.7-.909,1.522,1.522,0,0,0-2.082.546l-.153.363a1.531,1.531,0,0,0,0,.809" transform="translate(-876.907 -761.47)" fill="#060000"/>
          <path id="パス_21182" data-name="パス 21182" d="M904.275,717.912l5.671,2.75,9.025,4.376,2.052,1-.7-.909c.67,1.984,1.264,4,1.842,6.007,1.345,4.685,2.529,9.42,3.49,14.2q.413,2.054.766,4.12.179,1.056.34,2.115.077.5.148,1.009.036.252.07.5c0,.017,0,.034.007.051q.034.253-.013-.1a1.041,1.041,0,0,0,.04.3c.38,2.91.57,5.821.718,8.75.226,4.467.47,8.935.83,13.394.076.938.156,1.875.255,2.811a8.249,8.249,0,0,0,.169,1.379.247.247,0,0,1,.005.034,1.384,1.384,0,0,0,.545.79,1.693,1.693,0,0,0,.922.327l7.183.91,1.021.129a1.514,1.514,0,0,0,1.076-.446,1.521,1.521,0,0,0,0-2.152,1.783,1.783,0,0,0-1.076-.446l-7.183-.91-1.021-.129,1.467,1.117c0-.028-.006-.057-.012-.085a2.474,2.474,0,0,1,.039.288c-.007-.056-.014-.111-.02-.167-.05-.419-.093-.838-.134-1.258-.2-2.07-.347-4.146-.485-6.221-.276-4.157-.435-8.32-.7-12.478A104.99,104.99,0,0,0,928.88,746c-.742-3.9-1.643-7.762-2.655-11.6q-1.06-4.013-2.29-7.979-.288-.924-.589-1.844c-.029-.088-.056-.176-.087-.263a1.689,1.689,0,0,0-.9-1L917.8,721.1l-7.038-3.413L906.05,715.4l-.239-.116a1.522,1.522,0,1,0-1.536,2.628" transform="translate(-811.886 -642.562)" fill="#060000"/>
          <path id="パス_21183" data-name="パス 21183" d="M1064.236,1006.559q.064,1.14.122,2.281.156,3.016.293,6.032.2,4.284.354,8.57.182,4.931.3,9.864c.08,3.325.137,6.65.149,9.976q0,.6,0,1.2a1.522,1.522,0,1,0,3.043,0c0-3.312-.048-6.624-.122-9.935s-.174-6.648-.293-9.971q-.157-4.4-.354-8.791-.142-3.193-.3-6.384c-.048-.934-.089-1.868-.148-2.8,0-.013,0-.026,0-.038a1.607,1.607,0,0,0-.446-1.076,1.522,1.522,0,0,0-2.152,0,1.52,1.52,0,0,0-.446,1.076" transform="translate(-956.279 -903.086)" fill="#060000"/>
          <path id="パス_21184" data-name="パス 21184" d="M1084.938,1661.968q0,.575.006,1.149.008,1.55.016,3.1.011,2.307.022,4.614.014,2.8.027,5.591.015,3.083.03,6.166t.03,6.182q.014,2.9.029,5.8.012,2.435.024,4.871.009,1.763.017,3.527c0,.553,0,1.107.008,1.66,0,.024,0,.048,0,.073a1.522,1.522,0,0,0,3.043,0q0-.575-.006-1.149-.008-1.55-.015-3.1-.011-2.307-.023-4.614-.014-2.8-.027-5.591-.015-3.083-.03-6.166t-.03-6.182q-.014-2.9-.028-5.8-.012-2.436-.024-4.871l-.017-3.527c0-.553,0-1.107-.008-1.66,0-.024,0-.048,0-.073a1.522,1.522,0,1,0-3.043,0" transform="translate(-974.882 -1492.011)" fill="#060000"/>
          <path id="パス_21185" data-name="パス 21185" d="M234.422,1809.588q-.02.372-.041.745l-.111,2.026-.163,2.974-.2,3.651-.219,4-.221,4.024q-.1,1.876-.206,3.752l-.174,3.182-.125,2.28c-.02.36-.043.721-.059,1.081,0,.016,0,.031,0,.047a1.522,1.522,0,0,0,2.6,1.076,1.656,1.656,0,0,0,.446-1.076l.041-.745.111-2.026.163-2.974.2-3.651.219-4,.221-4.024.206-3.752.174-3.182.125-2.28c.02-.36.043-.721.059-1.081,0-.016,0-.031,0-.047a1.522,1.522,0,0,0-2.6-1.076,1.657,1.657,0,0,0-.446,1.076" transform="translate(-209.273 -1624.657)" fill="#060000"/>
          <path id="パス_21186" data-name="パス 21186" d="M1476.661,1392.914c0,.055-.008.109-.015.163q.027-.2.054-.4a10.873,10.873,0,0,1-.419,1.654c-.247.813-.519,1.619-.8,2.422-.54,1.56-1.108,3.11-1.689,4.655q-.189.5-.38,1l.153-.364q-1.081,1.453-2.186,2.887l.238-.308c-1,1.292-2.015,2.573-3.081,3.811a31.991,31.991,0,0,1-2.246,2.4c-.314.3-.638.583-.98.847l.308-.238a5.8,5.8,0,0,1-1.253.766l.364-.153a3.2,3.2,0,0,1-.81.227l.4-.055a3.826,3.826,0,0,1-.882,0c-.088-.009-.176-.019-.264-.03l.4.054a11.325,11.325,0,0,1-1.749-.435c-.809-.246-1.61-.52-2.408-.8-1.514-.535-3.016-1.1-4.512-1.686q-.474-.185-.946-.373l.909.7c-.542-.843-1.055-1.71-1.52-2.6-.175-.334-.343-.672-.49-1.019l.153.363a3.37,3.37,0,0,1-.265-.834q.027.2.054.4a.623.623,0,0,1-.005-.156l-.054.4a.3.3,0,0,1,.018-.065l-.153.363a.341.341,0,0,1,.041-.069l-.238.308a.5.5,0,0,1,.08-.078l-.308.238a.921.921,0,0,1,.2-.112l-.364.153a3.136,3.136,0,0,1,.783-.185l-.4.054a14.672,14.672,0,0,1,2.225-.081c.621.013,1.241.045,1.86.091.124.009.248.019.371.03l.4-.054a1.143,1.143,0,0,0,.517-.272,1.451,1.451,0,0,0,.545-.79,1.809,1.809,0,0,0,0-.809,1.592,1.592,0,0,0-.7-.909c-.391-.269-.773-.555-1.149-.845l.308.238a13.451,13.451,0,0,1-2.474-2.287l.238.308a2.76,2.76,0,0,1-.351-.567l.153.363a1.106,1.106,0,0,1-.08-.274c.018.135.036.27.054.4a.567.567,0,0,1,0-.141l-.054.4a.472.472,0,0,1,.033-.116l-.153.363a.769.769,0,0,1,.09-.149l-.238.308a1.56,1.56,0,0,1,.279-.268l-.308.238a5.968,5.968,0,0,1,1.32-.708l-.364.153a30.375,30.375,0,0,1,4.492-1.406c.126-.031.252-.062.379-.092l.363-.153.308-.238a1.5,1.5,0,0,0,.418-.874,1.451,1.451,0,0,0-.1-.788,1.515,1.515,0,0,0-.622-.728,7.982,7.982,0,0,1-.759-.531l.308.238a7.583,7.583,0,0,1-1.341-1.3l.238.308a3.973,3.973,0,0,1-.523-.871l.153.364a2.57,2.57,0,0,1-.168-.595l.055.4a.842.842,0,0,1,0-.211l-.054.4a.784.784,0,0,1,.052-.193l-.153.363a.921.921,0,0,1,.112-.19l-.238.308a1.321,1.321,0,0,1,.234-.228l-.308.238a2.566,2.566,0,0,1,.549-.306l-.363.153a7.934,7.934,0,0,1,2-.481l-.4.055a19.279,19.279,0,0,1,2.227-.164l.156,0a1.6,1.6,0,0,0,.768-.208,1.508,1.508,0,0,0,.623-.728,1.454,1.454,0,0,0,.1-.788,1.386,1.386,0,0,0-.419-.874,13.249,13.249,0,0,1-1.44-1.326c-.2-.215-.4-.438-.579-.673l.238.308a4.3,4.3,0,0,1-.557-.908l.153.363a1.854,1.854,0,0,1-.134-.463l.054.4a1.157,1.157,0,0,1,0-.274l-.054.4a.9.9,0,0,1,.057-.218l-.153.363a.9.9,0,0,1,.106-.183l-.238.308.012-.016-1.076.446,1.286.076,3.089.182,3.738.22,3.233.19c.525.031,1.049.071,1.574.093h.023a1.524,1.524,0,0,0,1.076-.446l.238-.308a1.514,1.514,0,0,0,.208-.768c0-.009,0-.018,0-.026l-.054.4a13.017,13.017,0,0,1,.441-2.036,8.357,8.357,0,0,1,.282-.8l-.153.364a4.089,4.089,0,0,1,.5-.907l-.238.308a1.928,1.928,0,0,1,.328-.335l-.308.238a1.242,1.242,0,0,1,.263-.155l-.363.153a1.462,1.462,0,0,1,.357-.083l-.4.054a3.45,3.45,0,0,1,.906-.012l-.4-.054a2.472,2.472,0,0,1,.621.166l-.363-.154a2.353,2.353,0,0,1,.516.3l-.308-.238a2.747,2.747,0,0,1,.481.488l-.238-.308a4.028,4.028,0,0,1,.5.882l-.153-.364a8.066,8.066,0,0,1,.511,2.026q-.027-.2-.054-.4a19.584,19.584,0,0,1,.121,3.276,1.522,1.522,0,0,0,2.6,1.076,1.628,1.628,0,0,0,.446-1.076,20.8,20.8,0,0,0-.073-2.874,11.593,11.593,0,0,0-.442-2.368,5.089,5.089,0,0,0-2.063-2.889,3.462,3.462,0,0,0-1.185-.46,4.66,4.66,0,0,0-1.212-.082c-.256.022-.514.054-.767.1a2.4,2.4,0,0,0-.643.25,2.948,2.948,0,0,0-.563.416,2,2,0,0,0-.24.255,5.673,5.673,0,0,0-.447.612,7.42,7.42,0,0,0-.517,1.115,11.731,11.731,0,0,0-.668,2.68c-.021.151-.042.3-.061.453l1.521-1.522-2.273-.134-4.824-.284-4.471-.263-1.2-.07c-.06,0-.119-.009-.179-.01a1.606,1.606,0,0,0-1.371.834,2.373,2.373,0,0,0-.24.552,2.092,2.092,0,0,0-.083.826,3.058,3.058,0,0,0,.188.867,5.312,5.312,0,0,0,.413.849,9.313,9.313,0,0,0,1.029,1.311,13.928,13.928,0,0,0,1.438,1.347l.089.071,1.076-2.6c-.411,0-.823.022-1.232.05a15.863,15.863,0,0,0-2.784.4,3.861,3.861,0,0,0-2.543,1.605c-.769,1.418.135,3,1.089,4.076a10.147,10.147,0,0,0,1.532,1.345,7.531,7.531,0,0,0,.633.435q.182-1.391.364-2.781c-.6.139-1.2.3-1.788.463a27.583,27.583,0,0,0-3.591,1.249,6.528,6.528,0,0,0-1.491.89,2.527,2.527,0,0,0-.552.63,2.02,2.02,0,0,0-.224.518,2.088,2.088,0,0,0-.067.473.846.846,0,0,0,0,.1,2.854,2.854,0,0,0,.388,1.256,5.955,5.955,0,0,0,.651.879,11.447,11.447,0,0,0,1.285,1.254,28.678,28.678,0,0,0,2.447,1.891l.04.028.768-2.835c-.533-.048-1.069-.079-1.6-.1a16.984,16.984,0,0,0-2.83.058,4.4,4.4,0,0,0-1.69.452,1.889,1.889,0,0,0-.909,2.2,2.947,2.947,0,0,0,.158.533c.128.338.272.671.427,1,.235.5.5.98.769,1.458.339.6.684,1.2,1.067,1.77a1.617,1.617,0,0,0,.728.623l.183.077.01,0,.052.02.217.086q.413.164.827.324,1.349.525,2.705,1.027c1.051.389,2.107.768,3.172,1.118a17.967,17.967,0,0,0,2.465.689,7.148,7.148,0,0,0,1.372.135,4.432,4.432,0,0,0,1.339-.222,6.147,6.147,0,0,0,1.478-.741,14.044,14.044,0,0,0,1.746-1.442c.672-.644,1.3-1.331,1.911-2.032.865-.992,1.695-2.015,2.51-3.049q.867-1.1,1.715-2.216.418-.548.833-1.1l.436-.582c.071-.1.145-.19.215-.288a1.78,1.78,0,0,0,.188-.411c.15-.387.3-.777.441-1.166q.486-1.3.957-2.6c.362-1,.718-2.011,1.054-3.025.266-.8.534-1.61.73-2.434a5.7,5.7,0,0,0,.17-1.075,1.522,1.522,0,0,0-2.6-1.076,1.634,1.634,0,0,0-.446,1.076" transform="translate(-1302.71 -1243.814)" fill="#060000"/>
          <path id="パス_21187" data-name="パス 21187" d="M1219.026,1179.532l-4.843,1.07-9.961,2.2-8.35,1.845c-.474.1-.968.18-1.434.317.481-.141.35-.038.15-.031-.055,0-.109,0-.164,0-.22-.008-.185-.111.088.019a1.94,1.94,0,0,0-.37-.107c.359.076.252.124.124.042a1.98,1.98,0,0,0-.223-.139c.308.142.216.189.106.074-.043-.045-.09-.085-.132-.131s-.2-.233-.023-.017.024.021-.007-.029a1.386,1.386,0,0,0-.106-.2c.012.013.132.376.068.158-.021-.072-.046-.141-.064-.214-.043-.178.024-.25,0,.109a2.082,2.082,0,0,0,0-.38c.049.313-.055.3-.006.1.012-.052.026-.1.042-.154l.025-.077q.084-.221-.057.135c-.009.008.086-.161.08-.15l0,0,.039-.067c.6-1.037,1.2-2.069,1.807-3.1l3.858-6.626,5.041-8.656,5.355-9.2,4.8-8.244,3.379-5.8.884-1.518.195-.334.027-.047c.048-.082.1-.163.149-.243s.107-.155.159-.234c.088-.133.11-.031-.069.082a2.176,2.176,0,0,0,.3-.356q.189-.205.4-.393c.069-.062.141-.121.211-.182.195-.17-.062.061-.089.066.113-.02.279-.2.382-.264q.216-.137.442-.256.1-.054.208-.1.084-.04.169-.077-.309.128-.148.064a7.347,7.347,0,0,1,1.233-.341l.378-.063,2.224-.374,8.49-1.426,10.411-1.748,8.188-1.375,1.935-.325.173-.029.032-.005h0c-.441.091-.208.039-.077.03.265-.019-.363-.094-.1-.019a1.08,1.08,0,0,0,.217.062c-.026,0-.347-.182-.161-.064a1.117,1.117,0,0,0,.187.115c-.025-.008-.285-.261-.139-.1a1.556,1.556,0,0,0,.15.157c-.252-.2-.175-.253-.109-.134a1.606,1.606,0,0,0,.106.189c-.219-.284-.1-.263-.05-.094s-.017.268,0-.119c0,.047.008.1.009.146,0,.189-.091.234.032-.108a1.284,1.284,0,0,0-.043.186c-.037.189-.137.09.055-.106a1.454,1.454,0,0,0-.123.216l0,0c-.769,1.213-1.58,2.4-2.369,3.6l-5.2,7.9-5.716,8.685-3.92,5.956-.565.858a1.533,1.533,0,0,0,.546,2.082,1.556,1.556,0,0,0,2.082-.546l2.287-3.475,5.25-7.977,5.781-8.784,3.929-5.969a6.577,6.577,0,0,0,.89-1.6,3.242,3.242,0,0,0-2.241-4,3.913,3.913,0,0,0-1.68,0l-5.4.906-9.9,1.662-10.083,1.693-5.969,1a7.934,7.934,0,0,0-4.112,1.964,8.8,8.8,0,0,0-1.6,2.11l-2.382,4.09-4.272,7.336-5.263,9.037-5.354,9.194-4.546,7.807-2.839,4.875c-.166.286-.336.569-.5.857a3.677,3.677,0,0,0,3.691,5.507c.526-.071,1.045-.213,1.562-.328l3.558-.786,10.1-2.231,8.289-1.831,1.286-.284a1.533,1.533,0,0,0,1.063-1.872,1.556,1.556,0,0,0-1.872-1.063" transform="translate(-1070.04 -1015.187)" fill="#060000"/>
          <path id="パス_21188" data-name="パス 21188" d="M1182.993,1394.415a10.7,10.7,0,0,0-1.353-1.891v2.152l1.89-2.079.472-.519.134-.147.032-.035a1.65,1.65,0,0,0,.324-.5,1.743,1.743,0,0,0-.02-1.313l-.24-.8-.424-1.414-.391,1.481c.24-.241.468-.5.689-.753a13.15,13.15,0,0,0,1.419-1.918,5.864,5.864,0,0,0,.543-1.212,3.01,3.01,0,0,0,.064-1.522,2.742,2.742,0,0,0-.931-1.4,21.847,21.847,0,0,0-3.1-2.182c-1.117-.691-2.256-1.348-3.4-1.989-.633-.354-1.266-.711-1.909-1.046l-.029-.016-.364,2.781,1.588-.387,3.876-.943q2.416-.587,4.833-1.173,2.218-.537,4.437-1.071c.92-.221,1.84-.445,2.763-.656l.157-.035a1.522,1.522,0,0,0,.364-2.781,1.65,1.65,0,0,0-1.172-.153c-.823.183-1.643.385-2.463.582q-2.164.519-4.326,1.043l-4.857,1.179-4.04.983c-.646.158-1.3.3-1.94.473l-.026.006-.364.153-.308.238-.238.308a1.133,1.133,0,0,0-.18.566,1.523,1.523,0,0,0,.1.788,1.454,1.454,0,0,0,.623.728c.664.353,1.322.716,1.977,1.083,1.3.728,2.592,1.474,3.851,2.272.635.4,1.265.816,1.861,1.276l-.308-.238a4.526,4.526,0,0,1,.815.749l-.238-.308a.9.9,0,0,1,.12.195l-.153-.363a.9.9,0,0,1,.056.214q-.027-.2-.054-.4a1.311,1.311,0,0,1,0,.327q.027-.2.054-.4a2.478,2.478,0,0,1-.177.6l.153-.364a7.3,7.3,0,0,1-.97,1.565l.238-.308a14.288,14.288,0,0,1-1.185,1.36,1.524,1.524,0,0,0-.391,1.48l.665,2.215.1.322.391-1.48-2.226,2.449-.311.342a1.571,1.571,0,0,0-.446,1.076,1.67,1.67,0,0,0,.446,1.076c.119.134.23.275.34.417l-.238-.308a9.307,9.307,0,0,1,.775,1.166,1.521,1.521,0,0,0,2.082.546,1.536,1.536,0,0,0,.7-.91,1.619,1.619,0,0,0-.153-1.172" transform="translate(-1055.336 -1233.589)" fill="#060000"/>
          <path id="パス_21189" data-name="パス 21189" d="M897.953,1617.031c.31.119.632.209.952.3a24.669,24.669,0,0,0,2.723.57,37.8,37.8,0,0,0,4.705.44,14.76,14.76,0,0,0,1.894-.021,13.811,13.811,0,0,0,1.733-.279,19.126,19.126,0,0,0,3-.991q1.749-.723,3.423-1.605a61.488,61.488,0,0,0,5.4-3.252c.907-.605,1.815-1.22,2.682-1.882l.036-.027-2.082-2.082a20.25,20.25,0,0,0-1.824,4.641,11.5,11.5,0,0,0-.312,2.061,5.1,5.1,0,0,0,.159,1.653,2.792,2.792,0,0,0,1.135,1.6,2.509,2.509,0,0,0,1.92.273,3.7,3.7,0,0,0,1.421-.7,14.916,14.916,0,0,0,1.614-1.422c1.227-1.24,2.357-2.571,3.565-3.829a1.581,1.581,0,0,0,.446-1.076,1.548,1.548,0,0,0-.446-1.076,1.53,1.53,0,0,0-1.076-.446,1.562,1.562,0,0,0-1.076.446c-1.314,1.367-2.53,2.832-3.892,4.153a11.331,11.331,0,0,1-.923.816l.308-.238a3.619,3.619,0,0,1-.779.481l.363-.154a1.8,1.8,0,0,1-.445.125l.4-.054a1.135,1.135,0,0,1-.283,0l.4.054a.887.887,0,0,1-.212-.06l.363.153a.861.861,0,0,1-.17-.1l.308.238a.993.993,0,0,1-.17-.173l.238.308a1.39,1.39,0,0,1-.164-.29l.153.364a2.454,2.454,0,0,1-.154-.608l.054.4a5.668,5.668,0,0,1,.031-1.436l-.054.4a14.5,14.5,0,0,1,1.069-3.654l-.153.363q.366-.863.8-1.693a1.572,1.572,0,0,0,.181-.97,1.446,1.446,0,0,0-.419-.874,1.811,1.811,0,0,0-.671-.391,1.513,1.513,0,0,0-1.172.153c-.727.549-1.477,1.069-2.231,1.581-1.7,1.157-3.455,2.251-5.262,3.241a38.557,38.557,0,0,1-3.5,1.714l.363-.153a19.22,19.22,0,0,1-3.306,1.1c-.292.064-.586.118-.881.158l.4-.054a12.156,12.156,0,0,1-1.876.068q-1.343-.028-2.682-.151-.655-.061-1.307-.148l.4.054a22.522,22.522,0,0,1-4.106-.884c-.074-.025-.148-.049-.221-.077a1.532,1.532,0,0,0-1.172.154,1.521,1.521,0,0,0-.546,2.082l.238.308a1.519,1.519,0,0,0,.671.391" transform="translate(-805.866 -1444.387)" fill="#060000"/>
        </g>
      </g>
    </g>
  </g>
</svg>
