<svg xmlns="http://www.w3.org/2000/svg" xmlns:xlink="http://www.w3.org/1999/xlink" width="394" height="240" viewBox="0 0 394 240">
  <defs>
    <clipPath id="clip-path">
      <rect id="長方形_569" data-name="長方形 569" width="394" height="240" transform="translate(1028 3575)" fill="rgba(168,67,67,0.11)"/>
    </clipPath>
    <clipPath id="clip-path-2">
      <rect id="長方形_400" data-name="長方形 400" width="356.726" height="252.161" fill="none"/>
    </clipPath>
  </defs>
  <g id="flow-step02" transform="translate(-1028 -3575)" clip-path="url(#clip-path)">
    <g id="illust" transform="translate(1040.552 3594.839)">
      <g id="グループ_2579" data-name="グループ 2579" transform="translate(0 0.002)">
        <path id="パス_21534" data-name="パス 21534" d="M0,1266.813,34.408,1349.1l190.358-28.356-2.224-50.923-31.433-18.9Z" transform="translate(0 -1099.471)" fill="#fff"/>
        <g id="グループ_2578" data-name="グループ 2578" transform="translate(0 -0.002)">
          <g id="グループ_2577" data-name="グループ 2577" transform="translate(0 0)" clip-path="url(#clip-path-2)">
            <path id="パス_21535" data-name="パス 21535" d="M604.11,116.8s9.677,10.321,19.884,13.644,14.479-.475,15.428-3.323.491-11.642.491-11.642l-3.577-.7,1.187-3.56,4.984-.237s10.206-3.8,10.919-19.226-.712-21.125-.712-21.125-5.222-11.156-16.615-14-15.428-2.611-15.428-2.611S600.258,70.4,603.106,83.688a109.066,109.066,0,0,0,8.308,23.973l-1.187,6.646Z" transform="translate(-528.37 -47.342)" fill="#fff"/>
            <path id="パス_21536" data-name="パス 21536" d="M602.445,36.884s-18.6-3.664-27.059-13.529A162.049,162.049,0,0,1,564.957,45.34s-3.946-2.819-5.355.846-1.409,4.792-.846,6.483,5.074,3.382,5.074,3.382S567.212,67.607,572,71.835c0,0-15.784,5.074-23.677-10.429s3.946-36.079,16.912-44.253,38.333-2.537,37.206,19.73" transform="translate(-478.368 -11.916)" fill="#f49902"/>
            <path id="パス_21537" data-name="パス 21537" d="M330.612,552.971l-24.8,7.19s-8.07,1.174-12.326,12.766-2.2,36.684-2.2,36.684l3.522,37.711L396.2,638.957s-.88-79.09-2.641-80.264-27.146-7.043-27.146-7.043,2.348,14.087-7.484,15.554-28.32-14.233-28.32-14.233" transform="translate(-254.872 -483.508)" fill="#ffec00"/>
            <path id="パス_21538" data-name="パス 21538" d="M740.273,707.4s1.614,5.136,6.31,7.19,5.87,1.907,5.87,1.907,12.913-10.271,13.793-14.233,1.614-15.7,1.614-15.7,4.842-8.364.88-7.924-19.222,9.978-19.222,9.978Z" transform="translate(-648.832 -594.796)" fill="#fff"/>
            <path id="パス_21539" data-name="パス 21539" d="M521.556,1083.9s-3.522-6.456-8.8-8.657-11.445-4.255-13.059-5.869-6.75-4.549-6.75-4.549-3.228,3.815-1.027,6.456,10.418,10.565,10.418,10.565l-21.423-3.375s-17.461-4.989-19.956-3.375-3.962,2.054-3.668,2.495,1.907,3.521,1.907,3.521l11.3,7.19s11.739,13.94,15.7,14.38,26.559.587,26.559.587-.44-11.445,8.8-19.369" transform="translate(-400.769 -933.298)" fill="#fff"/>
            <path id="パス_21540" data-name="パス 21540" d="M1045.525,739.988l-32.044,7.491-37.87,55.765-55.146-16.421s-10.191,7.266-7.694,23.08c0,0,67.834,30.38,70.331,29.963s39.119-33.293,39.119-33.293l1.665,28.715,2.5-14.982s4.994-7.907,9.155-8.323,46.194-6.242,54.517-7.491,50.771-10.82,50.771-10.82-6.242-50.355-6.659-53.268-2.913-3.329-5.826-4.162-25.8-4.578-25.8-4.578l-4.994-5.41s-32.877-2.913-49.523,7.491Z" transform="translate(-799.677 -636.216)" fill="#c8e3fa"/>
            <path id="パス_21541" data-name="パス 21541" d="M1594.355,692l-13.733-17.479-18.727-6.242-9.572.416s3.745,12.069,5.826,15.4a17.748,17.748,0,0,0,7.075,6.242l4.994,1.665,4.161,4.994Z" transform="translate(-1360.576 -585.728)" fill="#fff"/>
            <path id="パス_21542" data-name="パス 21542" d="M1903.258,298.745s11.393-4.035,20.176-4.51,12.343-.475,12.343-.475l-2.685-11.512-38.14-49.489H1888.3l-3.086,17.327-6.171,9.732,3.561,3.086,2.611,22.074,15.9,2.848Z" transform="translate(-1646.942 -204.008)" fill="#fff"/>
            <path id="パス_21543" data-name="パス 21543" d="M196.8,958.978l-6.074-46.316s1.519-4.935,4.176-6.074,7.213-.759,7.213-.759L207.1,957.7Z" transform="translate(-167.163 -793.885)" fill="#fff"/>
            <path id="パス_21544" data-name="パス 21544" d="M1819.636,1344.01l121.864-16.7,8.732-63.4s.759-7.213-9.111-5.695-34.167,9.87-70.233,14.426l-36.065,4.556s-11.769-1.139-12.908,12.148-2.278,54.668-2.278,54.668" transform="translate(-1594.869 -1102.61)" fill="#fff"/>
            <path id="パス_21545" data-name="パス 21545" d="M1942.339,113.306s1.127,9.02,3.946,12.966a28.26,28.26,0,0,0,4.228,5.074l-.282,10.993s5.355-2.819,6.2-1.127,2.255,4.792,1.409,7.892a10.3,10.3,0,0,1-2.819,4.792l9.3,18.885,24.24-1.409,13.53-48.48-9.583-5.074s-9.02-11.838-14.093-11.556-36.079,7.047-36.079,7.047" transform="translate(-1702.416 -93.13)" fill="#f49902"/>
            <path id="パス_21546" data-name="パス 21546" d="M1871.451,229.577l-.973,4.257-1.762,7.7-.634,2.771q-.08.35-.16.7c-.1.43.278-.506.122-.248-1.019,1.687-1.933,3.447-2.9,5.166-.99,1.767-2,3.525-2.972,5.3l-.053.094a1.9,1.9,0,0,0-.187,1.428,2.086,2.086,0,0,0,.852,1.107l3.923,2.746.571.4-.918-1.6.232,2.182q.276,2.6.553,5.209.336,3.167.672,6.334.291,2.739.582,5.479c.094.887.182,1.776.282,2.662,0,.012,0,.025,0,.037a2.051,2.051,0,0,0,.4,1.123,1.731,1.731,0,0,0,.962.664l5.493,1.068,8.683,1.688,2,.39-1.294-1.294q.591,3.938,1.181,7.876.084.556.167,1.113a1.852,1.852,0,0,0,.852,1.107,1.853,1.853,0,0,0,2.535-.665,2.157,2.157,0,0,0,.187-1.428q-.59-3.938-1.181-7.876-.083-.556-.167-1.113a1.79,1.79,0,0,0-1.294-1.294l-5.494-1.068-8.683-1.688-2-.39,1.36,1.787q-.175-1.653-.351-3.305-.389-3.666-.778-7.332-.4-3.742-.794-7.484c-.133-1.253-.256-2.508-.4-3.759,0-.008,0-.015,0-.023a2.459,2.459,0,0,0-.159-.715,2.055,2.055,0,0,0-.761-.888c-.076-.055-.154-.108-.231-.162l-1.249-.874-2.824-1.977-.187-.131.665,2.535,2.547-4.542,3.253-5.8a4.105,4.105,0,0,0,.434-1.119l.536-2.343q.872-3.812,1.743-7.623c.39-1.706.8-3.41,1.171-5.12.006-.027.012-.054.019-.081a1.853,1.853,0,0,0-3.573-.985" transform="translate(-1631.884 -200.041)" fill="#060000"/>
            <path id="パス_21547" data-name="パス 21547" d="M1940.222,120q-.482-.291-.942-.618-.114-.081-.225-.164c-.064-.048-.308-.235-.034-.023s0,0-.061-.051q-.123-.1-.243-.2a15.7,15.7,0,0,1-1.536-1.492c-.24-.267-.47-.543-.7-.824s.252.334.078.1l-.138-.183q-.17-.23-.334-.465a20.491,20.491,0,0,1-1.1-1.766q-.5-.908-.925-1.86c-.034-.078-.069-.156-.1-.234s-.147-.344-.007-.013.014.033-.018-.046-.073-.178-.108-.268q-.184-.463-.351-.933a32.13,32.13,0,0,1-1.027-3.534q-.376-1.628-.6-3.287l.066.493c-.1-.781-.2-1.571-.224-2.359l-1.36,1.787,5.5-1.1c1.232-.246,2.471-.468,3.7-.745q1.961-.442,3.929-.854,3.593-.759,7.2-1.442c2.717-.511,5.44-.987,8.177-1.379q.476-.068.952-.132l-.492.066a44.5,44.5,0,0,1,6.494-.534,10.917,10.917,0,0,1,1.256.08l-.493-.066a4.29,4.29,0,0,1,.7.144c.043.014.086.031.13.044.271.085-.51-.245-.3-.126.162.091.33.172.49.266.413.241.811.509,1.2.786q.323.229.639.468c.092.069.486.372.184.139-.284-.219-.064-.049,0,0l.191.15c1.993,1.577,3.881,3.289,5.735,5.026,1.115,1.045,2.189,2.132,3.3,3.179a5.04,5.04,0,0,0,1.592.816l.251.1c.1.041.462.194.082.034s-.011,0,.086.037l.356.154q.731.318,1.454.655a32.1,32.1,0,0,1,3.065,1.6c.223.135.443.275.659.422q.138.094.273.193c.05.037.1.076.149.112-.068-.047-.424-.34-.2-.148a4.847,4.847,0,0,1,.433.4c.027.029.052.061.08.089.167.174-.247-.348-.2-.257.035.062.08.127.12.186.134.2-.193-.556-.1-.237a.322.322,0,0,1,.009.045l-.066-.493a2.164,2.164,0,0,1-.034.548l.066-.492c-.121.893-.323,1.777-.518,2.656-.32,1.445-.667,2.884-1.02,4.322q-.685,2.79-1.4,5.572-.812,3.166-1.644,6.326-.875,3.332-1.764,6.66-.874,3.276-1.758,6.55-.809,3-1.625,6-.683,2.512-1.37,5.024-.486,1.779-.975,3.557c-.153.558-.316,1.113-.461,1.673-.006.024-.013.048-.02.072a1.853,1.853,0,0,0,3.573.985q.241-.873.481-1.746.641-2.333,1.279-4.666.919-3.365,1.832-6.731,1.076-3.969,2.139-7.941,1.11-4.145,2.2-8.295,1.024-3.893,2.02-7.793c.545-2.142,1.083-4.285,1.593-6.436.332-1.4.669-2.8.92-4.223a9.162,9.162,0,0,0,.2-1.5c.012-1.309-1-2.217-1.964-2.939a21.514,21.514,0,0,0-3.679-2.094c-1.223-.585-2.47-1.123-3.726-1.634-.18-.073-.36-.146-.542-.217l.818.476c-1-1-2.02-1.977-3.049-2.945-1.94-1.826-3.915-3.628-6-5.283a25.814,25.814,0,0,0-3.014-2.158,5.9,5.9,0,0,0-2.378-.755,22.127,22.127,0,0,0-4.883.116c-2.423.238-4.836.594-7.239.987s-4.817.837-7.217,1.305q-3,.585-5.981,1.223-1.606.343-3.208.7c-.968.218-1.947.394-2.919.589l-5.868,1.174-.38.076a1.864,1.864,0,0,0-1.36,1.787,31.889,31.889,0,0,0,.764,5.579,27.851,27.851,0,0,0,4.2,10.193,18.073,18.073,0,0,0,5.394,5.154,1.853,1.853,0,1,0,1.87-3.2" transform="translate(-1689.843 -82.578)" fill="#060000"/>
            <path id="パス_21548" data-name="パス 21548" d="M2007.574,371.385a13.78,13.78,0,0,1,1.3-1.137l-.375.29a7.317,7.317,0,0,1,1.56-.967l-.443.187a2.549,2.549,0,0,1,.632-.184l-.493.066a1.332,1.332,0,0,1,.336,0l-.493-.066a.965.965,0,0,1,.226.061l-.443-.187a.875.875,0,0,1,.167.1l-.375-.29a.93.93,0,0,1,.159.16l-.29-.375a2.008,2.008,0,0,1,.223.426l-.187-.443a14.9,14.9,0,0,1,.836,2.972q.108.561.184,1.128l-.066-.492a15.12,15.12,0,0,1,.055,3.987q.033-.246.066-.492a8.317,8.317,0,0,1-.549,2.1l.187-.443a5.617,5.617,0,0,1-.7,1.222l.29-.375a4.711,4.711,0,0,1-.822.827l.375-.29a4.716,4.716,0,0,1-.913.549,1.859,1.859,0,0,0-.851,1.107,1.892,1.892,0,0,0,.187,1.428,1.87,1.87,0,0,0,1.107.851l.492.066a1.843,1.843,0,0,0,.935-.253,6.93,6.93,0,0,0,3.549-4.432,12.139,12.139,0,0,0,.443-2.828,15.779,15.779,0,0,0-.073-2.435,21.238,21.238,0,0,0-.905-4.505,5.324,5.324,0,0,0-1-1.977,2.722,2.722,0,0,0-1.906-.812,3.472,3.472,0,0,0-.872.1,2.675,2.675,0,0,0-.449.141,7.749,7.749,0,0,0-1.335.665c-.426.275-.828.589-1.225.9a14.74,14.74,0,0,0-1.116.978l-.055.054a1.91,1.91,0,0,0-.543,1.31,1.885,1.885,0,0,0,.543,1.31,1.865,1.865,0,0,0,1.31.543,1.932,1.932,0,0,0,1.31-.543" transform="translate(-1756.821 -320.72)" fill="#060000"/>
            <path id="パス_21549" data-name="パス 21549" d="M2048.328,511.086l.717,1.568,1.72,3.764,2.074,4.536,1.793,3.922c.291.637.562,1.288.875,1.914,0,.009.008.018.013.027l.29.375a1.389,1.389,0,0,0,.6.383.923.923,0,0,0,.468.127,1.405,1.405,0,0,0,.739-.033c.35-.055.7-.108,1.05-.161q1.389-.209,2.779-.4,1.062-.15,2.125-.293l-.493.066c2.412-.324,4.827-.622,7.248-.874,2.36-.246,4.727-.459,7.1-.539a29.463,29.463,0,0,1,3.072.024l-1.787-1.36,1.066,3.349q.847,2.664,1.7,5.328l.385,1.211a1.949,1.949,0,0,0,.851,1.107,1.853,1.853,0,0,0,2.722-2.092l-1.065-3.349q-.848-2.664-1.7-5.328-.193-.605-.385-1.211a1.907,1.907,0,0,0-.664-.962,1.938,1.938,0,0,0-1.122-.4,36.635,36.635,0,0,0-4.736.055c-1.979.117-3.953.3-5.924.511s-3.948.452-5.917.71q-2.559.337-5.114.709c-.715.1-1.432.2-2.144.323l-.029,0,2.092.852-.717-1.568-1.721-3.764-2.073-4.536-1.793-3.922c-.292-.638-.57-1.283-.875-1.914l-.012-.027a1.86,1.86,0,0,0-1.107-.851,1.894,1.894,0,0,0-1.428.187,1.87,1.87,0,0,0-.852,1.107q-.033.246-.066.493a1.847,1.847,0,0,0,.253.935" transform="translate(-1795.091 -445.515)" fill="#060000"/>
            <path id="パス_21550" data-name="パス 21550" d="M1128.458,778.179c-.839-11.321-1.88-22.643-3.289-33.907-.452-3.612-.938-7.223-1.558-10.81a45.307,45.307,0,0,0-1.639-7.2,6.946,6.946,0,0,0-4.006-4.325,46.737,46.737,0,0,0-10.245-2.995A190.033,190.033,0,0,0,1088.4,716.1l1.31.543-3.4-3.4c-.774-.774-1.524-1.8-2.62-2.082a49.886,49.886,0,0,0-11.265-1.136,89.768,89.768,0,0,0-38.042,7.3c-1.084.482-2.255.822-2.64,2.072-.53,1.718-.878,3.511-1.314,5.255l1.294-1.294c-6.716,1.586-13.413,3.273-20.066,5.105a107.8,107.8,0,0,0-11.445,3.565,6.823,6.823,0,0,0-3.26,2.006c-.285.4-.539.832-.811,1.243-3.7,5.6-7.475,11.146-11.229,16.706q-7.94,11.759-15.9,23.506l-6.132,9.052c-1.033,1.525-2.229,3.024-3.136,4.628-.041.073-.1.141-.142.21l2.092-.852-17.324-5.4-28.9-9-7.977-2.485a2.4,2.4,0,0,0-2.207.09,15.981,15.981,0,0,0-3.155,2.779,22.688,22.688,0,0,0-5.942,16.362,29.521,29.521,0,0,0,.309,3.006c.167,1.125.218,2.771,1.3,3.425.08.049.175.077.259.12.648.339,1.334.619,2,.926q10.979,5.08,22.014,10.039c9.849,4.425,19.726,8.8,29.708,12.917,3.745,1.544,7.5,3.071,11.33,4.407,1.92.671,4.559,1.9,6.651,1.446,2.072-.445,4.072-2.422,5.65-3.688,3.207-2.574,6.284-5.312,9.341-8.061,7.983-7.179,15.777-14.568,23.531-21.992q7.994-7.654,15.907-15.392l.805-.789c1.7-1.673-.916-4.293-2.62-2.62q-8.733,8.574-17.591,17.021c-9.466,9.052-18.941,18.155-28.912,26.654q-1.341,1.143-2.707,2.257c-.361.292-.725.58-1.089.869a2.556,2.556,0,0,1-.249.194c-.18.136-.359.273-.54.407-.56.416-1.129.827-1.726,1.189-.2.122-.42.221-.618.346-.352.221.3-.105.166-.063a1.749,1.749,0,0,1-.267.084c.528-.074.405-.081.046-.045-.588.059.394.109-.218-.031-.634-.144-1.262-.295-1.886-.48-1.883-.558-3.731-1.236-5.568-1.928-12.064-4.542-23.7-9.818-35.52-15.115q-8.344-3.739-16.655-7.551c-2.983-1.367-5.934-2.868-8.962-4.132-.137-.057-.271-.126-.406-.189l.852,1.107a20.158,20.158,0,0,1,2.342-15.628,17.783,17.783,0,0,1,3.147-3.7q.3-.276.618-.539c.1-.083.2-.162.3-.246.252-.213-.415.287-.059.046.149-.1.289-.215.44-.312l-1.428.187,18.554,5.779,29.541,9.2,6.738,2.1a1.9,1.9,0,0,0,2.092-.852q3.79-5.59,7.577-11.182,7.747-11.438,15.482-22.883c4.182-6.189,8.371-12.373,12.516-18.587.47-.7.941-1.408,1.4-2.118a2.885,2.885,0,0,0,.306-.477.812.812,0,0,1-.374.362c.17-.091.328-.213.5-.307.2-.108.4-.2.61-.3.185-.086.447-.189.086-.041.178-.073.357-.145.537-.215.741-.289,1.492-.551,2.246-.8,1.951-.654,3.925-1.24,5.9-1.808,7.5-2.152,15.069-4.045,22.654-5.852l.464-.11a1.839,1.839,0,0,0,1.294-1.294l1.348-5.393-.851,1.107a37.44,37.44,0,0,1,3.807-1.683,83.707,83.707,0,0,1,11.359-3.545,87.274,87.274,0,0,1,28.55-2.055,29.925,29.925,0,0,1,4.745.728l-.818-.477,3.02,3.02c.926.926,1.891,2.309,3.264,2.469,2.134.249,4.27.476,6.4.755,3.693.483,8.1,1.171,12.021,1.976,1.967.4,3.928.853,5.856,1.415.842.245,1.678.512,2.5.82.165.062.329.126.493.191.41.162-.027-.021.249.105.322.147.641.3.951.468.252.139.489.3.733.45.307.193-.063-.063,0-.006.091.085.185.167.276.252.421.394-.054-.237.057.06a3.2,3.2,0,0,0,.235.434c.215.367-.116-.369.065.151.078.223.161.443.234.668.169.52.314,1.048.449,1.578a92.35,92.35,0,0,1,1.717,9.259c1.172,7.916,2.008,16.169,2.768,24.283.476,5.084.849,10.177,1.3,15.263.007.083.013.167.019.251.175,2.364,3.882,2.383,3.706,0" transform="translate(-785.474 -622.305)" fill="#060000"/>
            <path id="パス_21551" data-name="パス 21551" d="M1804.346,1328.307l.171-4.055q.214-5.068.428-10.136.277-6.557.554-13.113.279-6.592.557-13.185.215-5.079.429-10.158c.058-1.363.106-2.728.173-4.091.007-.153.016-.305.029-.458.008-.091.017-.182.026-.272,0,.036-.04.262-.006.044a10.62,10.62,0,0,1,.263-1.224c.095-.341.21-.674.334-1.006.075-.2-.005,0-.02.037.035-.08.071-.16.108-.239q.148-.316.316-.622.252-.457.547-.888c.05-.073.374-.5.174-.252.125-.158.257-.312.392-.463a10.66,10.66,0,0,1,.794-.8c.129-.116.262-.227.394-.339.01-.008.235-.183.085-.069s.136-.1.162-.113c.312-.214.629-.418.96-.6.153-.085.309-.166.466-.243.079-.039.159-.075.239-.113.27-.13-.235.09.044-.023a10.848,10.848,0,0,1,2.333-.64c-.286.046.264-.031.376-.044l.726-.088,1.41-.172q6.987-.855,13.965-1.788,8.945-1.194,17.875-2.508,9.839-1.453,19.651-3.081,10.3-1.716,20.563-3.683c6.686-1.292,13.354-2.68,19.987-4.225q4.685-1.091,9.341-2.3,2.2-.575,4.39-1.184c1.421-.4,2.834-.878,4.273-1.2.061-.014.361-.041.047-.013.089-.008.178-.015.268-.019q.264-.013.529,0c.088,0,.174.011.261.017-.032,0-.281-.048-.064-.009a5.976,5.976,0,0,1,.666.156,2.91,2.91,0,0,0,.336.109c-.143-.059.241.123.311.161.148.081.29.17.432.261.04.026.321.235.152.1-.149-.117.111.1.135.123.123.115.244.23.359.353.055.059.319.381.233.264-.117-.157.044.072.052.086.056.1.123.189.179.287.043.073.082.149.123.223.016.029.167.338.089.164a3.079,3.079,0,0,0,.117.341c.061.195.1.392.149.59.075.333.016-.135.025.212.005.213.016.424.006.638-.02.438-.091.877-.145,1.313q-.4,3.237-.809,6.474l-1.372,10.978q-.823,6.582-1.646,13.165-.827,6.617-1.655,13.235-.687,5.5-1.374,10.994l-.811,6.484-.11.88a1.862,1.862,0,0,0,1.853,1.853,1.9,1.9,0,0,0,1.853-1.853q.225-1.8.45-3.6.579-4.632,1.158-9.263l1.576-12.607q.853-6.817,1.7-13.635.771-6.172,1.543-12.345l1.092-8.739a15.421,15.421,0,0,0,.2-5.339,7.591,7.591,0,0,0-7.865-5.758,27.644,27.644,0,0,0-4.81,1.211q-2.179.612-4.369,1.187c-6.426,1.691-12.9,3.179-19.4,4.554-6.856,1.45-13.74,2.769-20.638,4q-10.239,1.831-20.519,3.427-9.469,1.48-18.962,2.8-2.164.3-4.329.6l-2.048.278-.233.031.029,0-.461.062-1.064.142q-3.749.5-7.5.975-3.193.406-6.388.8c-1.2.146-2.428.233-3.605.5a11.994,11.994,0,0,0-4.494,2.063,12.741,12.741,0,0,0-5.087,8.838c-.068.578-.081,1.162-.105,1.743q-.155,3.669-.31,7.338-.255,6.038-.51,12.075-.289,6.842-.578,13.684-.257,6.082-.514,12.164-.159,3.757-.317,7.515-.022.519-.044,1.038a1.853,1.853,0,0,0,3.706,0" transform="translate(-1578.219 -1087.936)" fill="#060000"/>
            <path id="パス_21552" data-name="パス 21552" d="M1786.075,1368.826q.036.536.072,1.072.1,1.458.2,2.916.145,2.156.291,4.313.177,2.621.354,5.242.193,2.87.387,5.74.2,2.907.392,5.814l.366,5.421.309,4.579.221,3.281c.035.519.068,1.038.1,1.556,0,.022,0,.045,0,.068a1.967,1.967,0,0,0,.542,1.31,1.853,1.853,0,0,0,2.62,0,1.837,1.837,0,0,0,.543-1.31l-.072-1.072q-.1-1.458-.2-2.916l-.291-4.313q-.177-2.621-.353-5.242-.194-2.87-.387-5.74-.2-2.907-.392-5.814-.183-2.711-.365-5.421l-.309-4.579q-.111-1.64-.221-3.281c-.035-.519-.068-1.038-.1-1.557,0-.023,0-.045,0-.068a1.967,1.967,0,0,0-.543-1.31,1.853,1.853,0,0,0-2.62,0,1.837,1.837,0,0,0-.543,1.31" transform="translate(-1565.451 -1198.12)" fill="#060000"/>
            <path id="パス_21553" data-name="パス 21553" d="M507.8,1054.346c-1.344-1.567-2.771-3.069-4.235-4.522-1.236-1.226-2.512-2.418-3.864-3.517a19.067,19.067,0,0,0-4.108-2.754c-1.048-.468-2.156-.755-3.238-1.133q-.8-.28-1.592-.592c-.213-.084-.424-.173-.636-.259.662.269-.076-.034-.25-.112-.513-.229-1.023-.47-1.517-.738-.084-.045-.166-.1-.251-.14s.544.425.3.233q-2.513-1.97-5.029-3.936-2.576-2.016-5.152-4.032l-.093-.073a1.947,1.947,0,0,0-1.8-.477,1.919,1.919,0,0,0-1.294,1.294,15.828,15.828,0,0,0-.847,4.445,9.834,9.834,0,0,0,.444,3.74,8.269,8.269,0,0,0,1.285,2.346,57.544,57.544,0,0,0,7.736,7.792c.725.643,1.455,1.282,2.2,1.906l1.31-3.163-2.27-.223-5.485-.538-6.608-.648-5.741-.563c-.926-.091-1.852-.19-2.779-.272l-.04,0,.493.066a54.222,54.222,0,0,0-5.393-1.5,46.885,46.885,0,0,0-11.594-1.407,19.364,19.364,0,0,0-6.47,1.106,1.964,1.964,0,0,0-1.107.851,2.047,2.047,0,0,0-.187,1.428,13.143,13.143,0,0,0,.973,2.8,7.075,7.075,0,0,0,3.721,3.813c.146.058.3.106.444.16.177.065.8.346.122.04.33.148.658.3.982.457.743.369,1.471.769,2.19,1.182,1.2.692,2.384,1.422,3.548,2.176l.425.277c.033.022.065.045.1.065.179.107-.362-.311-.34-.266a1.137,1.137,0,0,0,.189.212q.618.693,1.246,1.377,2.426,2.649,4.957,5.2c1.99,2,4.031,3.961,6.211,5.754a32.129,32.129,0,0,0,3.173,2.36,8.934,8.934,0,0,0,2.692,1.248,16.11,16.11,0,0,0,2.606.253c1.082.064,2.166.113,3.249.158,2.8.117,5.6.2,8.4.286q4.108.119,8.217.215,2.321.055,4.642.1l.22,0a1.853,1.853,0,1,0,0-3.706l-2.255-.049q-2.764-.062-5.528-.132-3.529-.089-7.058-.2c-2.244-.068-4.489-.143-6.732-.237-1.559-.065-3.122-.124-4.676-.26-.119-.01-.237-.02-.355-.036l.492.066a3.393,3.393,0,0,1-.563-.135c-.1-.034-.206-.073-.308-.112-.281-.106.477.211.264.113l-.183-.083a11.9,11.9,0,0,1-1.45-.826c-.271-.177-.536-.36-.8-.548q-.209-.15-.415-.3l-.187-.141-.118-.09c-.257-.2.342.266.185.143q-.9-.706-1.768-1.451c-2.5-2.15-4.847-4.48-7.135-6.854q-2.234-2.319-4.385-4.718a6.436,6.436,0,0,0-1.4-1.056c-1.471-.945-2.967-1.859-4.507-2.688a25.766,25.766,0,0,0-2.766-1.3c-.17-.067-.342-.131-.516-.188-.265-.085.484.228.124.052a3.331,3.331,0,0,1-.3-.167c-.079-.049-.4-.287-.1-.052s-.02-.022-.08-.076a4.92,4.92,0,0,1-.439-.453c-.031-.036-.06-.072-.091-.108-.192-.225.264.358.137.18-.062-.087-.125-.172-.185-.26-.119-.175-.229-.356-.333-.54s-.2-.365-.286-.552q-.058-.121-.113-.244l-.053-.121c-.118-.268.186.461.087.2a14,14,0,0,1-.545-1.673c-.022-.089-.043-.178-.062-.268l-1.294,2.279a15.288,15.288,0,0,1,3.438-.847l-.493.066a31.8,31.8,0,0,1,8.367.172l-.492-.066a61.165,61.165,0,0,1,9.449,2.085,9.352,9.352,0,0,0,1.733.455c.478.05.956.094,1.434.141l7.418.727,8.945.877c1.671.164,3.351.4,5.027.493.025,0,.051.005.076.008a1.777,1.777,0,0,0,.935-.253,1.881,1.881,0,0,0,.375-2.91c-1.189-1-2.353-2.033-3.5-3.078a59.867,59.867,0,0,1-5.676-5.672q-.145-.173-.286-.348c-.048-.059-.092-.123-.143-.18-.029-.034.331.435.188.243l-.066-.087c-.154-.206-.3-.416-.438-.633-.074-.118-.144-.239-.209-.362a1.77,1.77,0,0,0-.154-.32c.007.007.181.461.085.2-.02-.056-.042-.111-.061-.167a7.1,7.1,0,0,1-.321-1.39l.066.493a11.349,11.349,0,0,1,.039-2.865l-.066.493a14.345,14.345,0,0,1,.685-2.946l-3.1.818,4.409,3.45,5.639,4.414a8.261,8.261,0,0,0,1.441.93,39.737,39.737,0,0,0,5.922,2.322c.225.07.452.133.674.209.189.065.747.33.046,0,.3.139.592.28.879.441a17.861,17.861,0,0,1,1.889,1.247l.258.195c.3.224-.382-.3-.086-.067q.262.207.522.417.5.408.988.833c.668.581,1.32,1.182,1.959,1.794,1.762,1.688,3.421,3.471,5.042,5.294l.082.094a1.862,1.862,0,0,0,2.62,0,1.9,1.9,0,0,0,0-2.62" transform="translate(-385.59 -904.726)" fill="#060000"/>
            <path id="パス_21554" data-name="パス 21554" d="M1577.583,676.821q-1.025-1.161-2.034-2.336-2.191-2.541-4.327-5.129c-.826-1.006-1.643-2.019-2.438-3.049l.29.375c-.709-.919-1.417-1.847-2.036-2.829a8.967,8.967,0,0,1-.51-.926,3.372,3.372,0,0,0-.482-.67,3.04,3.04,0,0,0-.316-.321,12.569,12.569,0,0,0-2.693-1.739c-1.307-.663-2.664-1.231-4.026-1.77-1.423-.564-2.864-1.081-4.316-1.567q-2.23-.746-4.493-1.389c-1.344-.381-2.7-.734-4.061-1.035a29.067,29.067,0,0,0-3.57-.593,5.832,5.832,0,0,0-1.009-.025c-1.058.086-2.115.2-3.174.277-1.078.082-2.156.165-3.224.332a4.482,4.482,0,0,0-1.225.372,2.042,2.042,0,0,0-1.147,1.814,2.075,2.075,0,0,0,.6,1.429,4.965,4.965,0,0,0,.569.446l-.375-.29a1.346,1.346,0,0,1,.2.208l-.29-.375a3.671,3.671,0,0,1,.45.82l-.187-.443a16.908,16.908,0,0,1,.873,3.076c.143.686.23,1.383.372,2.069a4.574,4.574,0,0,0,.3.765q.542,1.32,1.128,2.621a42.535,42.535,0,0,0,3.258,6.07,15.636,15.636,0,0,0,2.231,2.77,14.494,14.494,0,0,0,3.381,2.116c2.132,1.107,4.294,2.158,6.473,3.17l.115.053-.665-.665,3.216,4.294.458.611a2.025,2.025,0,0,0,1.107.852,1.894,1.894,0,0,0,1.428-.187,1.871,1.871,0,0,0,.851-1.107,1.8,1.8,0,0,0-.187-1.428l-3.25-4.339-.421-.562a2.134,2.134,0,0,0-.76-.712l-.4-.186q-1.878-.88-3.738-1.8-1.4-.693-2.786-1.417a14.453,14.453,0,0,1-2.121-1.211l.375.29a9.376,9.376,0,0,1-1.613-1.687l.29.375a35.907,35.907,0,0,1-4.045-7.171q-.365-.8-.708-1.618l.187.443a6.962,6.962,0,0,1-.568-1.578,25.644,25.644,0,0,0-1-4.337,9.074,9.074,0,0,0-.639-1.5,4.592,4.592,0,0,0-.54-.744,4.036,4.036,0,0,0-.647-.529l.375.29a.58.58,0,0,1-.1-.1l.29.375a.269.269,0,0,1-.029-.051l.187.443a.2.2,0,0,1-.009-.036l.066.493a.166.166,0,0,1,0-.035q-.033.246-.066.492a.113.113,0,0,1,.006-.023l-.187.443a.208.208,0,0,1,.025-.043l-.29.375a.362.362,0,0,1,.042-.041l-.375.29a.718.718,0,0,1,.154-.084l-.443.187a4.315,4.315,0,0,1,1.021-.22l-.493.066c1.3-.174,2.622-.235,3.932-.344a17.342,17.342,0,0,1,2.412-.164c.3.018.607.051.909.091l-.492-.066a44.753,44.753,0,0,1,5.792,1.281q3.572.978,7.065,2.226c1.246.445,2.482.916,3.7,1.43l-.443-.187a26.575,26.575,0,0,1,3.764,1.86c.239.149.473.307.7.479l-.375-.29a3.4,3.4,0,0,1,.6.573l-.289-.375a8,8,0,0,1,.473.86c.272.464.578.908.889,1.347.959,1.351,1.99,2.653,3.028,3.944q1.6,1.985,3.247,3.926,1.385,1.639,2.792,3.259c.446.514.882,1.038,1.344,1.538l.019.022a1.853,1.853,0,0,0,3.163-1.31,2.037,2.037,0,0,0-.543-1.31" transform="translate(-1343.459 -573.045)" fill="#060000"/>
            <path id="パス_21555" data-name="パス 21555" d="M1638.651,703.5c-.448-.079-.9-.154-1.346-.228q-1.624-.267-3.252-.5c-1.478-.215-2.958-.415-4.443-.576-1.176-.128-2.358-.242-3.542-.258a9.039,9.039,0,0,0-1.246.052,5.469,5.469,0,0,0-.9.148,2.622,2.622,0,0,0-.892.455,1.929,1.929,0,0,0-.548.6,3.065,3.065,0,0,0-.235.534,1.041,1.041,0,0,0-.041.134,3.4,3.4,0,0,0,.035,1.59,6.379,6.379,0,0,0,.471,1.209,8.524,8.524,0,0,0,.5.9,17.371,17.371,0,0,0,1.608,2.129,11.033,11.033,0,0,0,1.706,1.586,6.571,6.571,0,0,0,2.832.9c1.36.25,2.726.472,4.091.69q1.445.23,2.891.449l.15.023-1.294-1.294a15.7,15.7,0,0,0,.8,2.385,15.393,15.393,0,0,0,3.113,5.025,9.984,9.984,0,0,0,1.487,1.226,7.966,7.966,0,0,0,1.754.865,1.4,1.4,0,0,0,.739.033,1.378,1.378,0,0,0,.689-.22,1.853,1.853,0,0,0,.665-2.535l-.29-.375a1.851,1.851,0,0,0-.818-.476q-.133-.049-.264-.1l.443.187a6.35,6.35,0,0,1-1.386-.821l.375.29a8.781,8.781,0,0,1-1.522-1.551l.29.375a14.548,14.548,0,0,1-1.842-3.239l.187.443a17.639,17.639,0,0,1-.81-2.341c-.013-.05-.027-.1-.039-.152a1.856,1.856,0,0,0-1.294-1.294q-1.39-.209-2.777-.43c-1.58-.25-3.16-.5-4.732-.8-.318-.061-.635-.123-.951-.194a3.6,3.6,0,0,1-.6-.163l.443.187a2.384,2.384,0,0,1-.492-.308l.375.29a10.969,10.969,0,0,1-1.9-2l.29.375a10.089,10.089,0,0,1-1.32-2.138l.187.443a3.09,3.09,0,0,1-.231-.775l.066.493a1.325,1.325,0,0,1,0-.328l-.066.493a.8.8,0,0,1,.051-.194l-.187.443a.546.546,0,0,1,.064-.113l-.29.375a.352.352,0,0,1,.055-.054l-.375.29a.645.645,0,0,1,.143-.081l-.443.187a2.05,2.05,0,0,1,.51-.122l-.493.066a12.1,12.1,0,0,1,2.268-.016c1.048.06,2.094.167,3.137.288q.946.11,1.889.238l-.493-.066q1.716.231,3.427.5,1.119.176,2.235.366l.394.068a1.4,1.4,0,0,0,.739.033,1.378,1.378,0,0,0,.689-.22,1.853,1.853,0,0,0,.665-2.535,1.813,1.813,0,0,0-1.107-.851" transform="translate(-1421.76 -615.227)" fill="#060000"/>
            <path id="パス_21556" data-name="パス 21556" d="M1941.539,369.647a1.913,1.913,0,0,0,1.311-.543,1.853,1.853,0,0,0,0-2.62,1.853,1.853,0,0,0-2.621,0,1.853,1.853,0,0,0,0,2.62,1.926,1.926,0,0,0,1.31.543" transform="translate(-1700.09 -320.739)" fill="#060000"/>
            <path id="パス_21557" data-name="パス 21557" d="M1937.579,312.3l.055-.025-.443.187a3.182,3.182,0,0,1,.786-.2l-.493.066a4.183,4.183,0,0,1,1.1,0l-.492-.066a4.827,4.827,0,0,1,1.145.317l-.443-.187c.11.047.219.1.326.15a1.977,1.977,0,0,0,1.428.187,1.854,1.854,0,0,0,1.294-2.279,1.84,1.84,0,0,0-.852-1.107,6.53,6.53,0,0,0-1.821-.64,5.994,5.994,0,0,0-1.551-.1,5.275,5.275,0,0,0-1.91.5,1.853,1.853,0,0,0,.443,3.386l.492.066a1.845,1.845,0,0,0,.935-.253" transform="translate(-1695.803 -270.464)" fill="#060000"/>
            <path id="パス_21558" data-name="パス 21558" d="M1909.973,498.872h6.945l-1.853-1.853c-.067.9-.161,1.791-.264,2.684q-.083.717-.179,1.433.033-.246.066-.492a45.251,45.251,0,0,1-.905,4.978c-.106.424-.224.846-.358,1.263a1.853,1.853,0,0,0,2.722,2.092,2,2,0,0,0,.852-1.107,32.867,32.867,0,0,0,1.109-5.157q.363-2.406.589-4.831c.027-.287.052-.574.074-.862a2.062,2.062,0,0,0-.543-1.31,1.925,1.925,0,0,0-1.31-.543h-6.945a1.911,1.911,0,0,0-1.31.543,1.853,1.853,0,0,0,0,2.62,1.926,1.926,0,0,0,1.31.543" transform="translate(-1672.423 -434.001)" fill="#060000"/>
            <path id="パス_21559" data-name="パス 21559" d="M862.859,172.406c.018.126.035.251.052.377l-.066-.492c.269,2,.467,4.014.623,6.027a99.322,99.322,0,0,1,.3,10.228,58.675,58.675,0,0,1-.463,6.189l.066-.493a25.939,25.939,0,0,1-1.723,6.684l.187-.443a23.063,23.063,0,0,1-2.948,5.029l.29-.375a23.889,23.889,0,0,1-3.408,3.578q-.4.339-.811.658l.375-.29a13.69,13.69,0,0,1-1.592,1.1l.935-.253-5.306.468-.745.066a2.007,2.007,0,0,0-1.123.4,1.8,1.8,0,0,0-.664.962l-.718,2.814-1.153,4.515-.264,1.036a1.934,1.934,0,0,0,.187,1.428,1.853,1.853,0,0,0,3.386-.443L849,218.36l1.153-4.515.264-1.036-1.787,1.36,3.485-.308,2.081-.184a3.5,3.5,0,0,0,1.462-.32,16.812,16.812,0,0,0,2.067-1.475,23.47,23.47,0,0,0,3.236-3.1,24.93,24.93,0,0,0,3.621-5.424,25.7,25.7,0,0,0,2.261-7.391,60.722,60.722,0,0,0,.647-7.947c.048-2.443-.016-4.887-.154-7.327q-.164-2.89-.469-5.771-.179-1.691-.413-3.376c-.006-.043-.012-.086-.018-.13a1.849,1.849,0,0,0-.851-1.107,1.853,1.853,0,0,0-2.535.665l-.187.443a1.867,1.867,0,0,0,0,.985" transform="translate(-740.312 -149.053)" fill="#060000"/>
            <path id="パス_21560" data-name="パス 21560" d="M867.737,232.924l.318,1.167.764,2.8.925,3.392.8,2.934c.13.476.254.955.39,1.43l.006.021a1.915,1.915,0,0,0,.852,1.107,1.853,1.853,0,0,0,2.535-.665,1.933,1.933,0,0,0,.187-1.428l-.318-1.167-.765-2.8-.925-3.392-.8-2.934c-.13-.476-.254-.955-.39-1.43l-.006-.021a1.916,1.916,0,0,0-.852-1.107,1.853,1.853,0,0,0-2.535.665,1.933,1.933,0,0,0-.187,1.428" transform="translate(-760.496 -202.096)" fill="#060000"/>
            <path id="パス_21561" data-name="パス 21561" d="M933,253.911a1.912,1.912,0,0,0,1.31-.543,1.853,1.853,0,0,0,0-2.62,1.853,1.853,0,0,0-2.62,0,1.853,1.853,0,0,0,0,2.62,1.926,1.926,0,0,0,1.31.543" transform="translate(-816.128 -219.299)" fill="#060000"/>
            <path id="パス_21562" data-name="パス 21562" d="M782.826,265.353a1.912,1.912,0,0,0,1.31-.543,1.853,1.853,0,0,0,0-2.62,1.853,1.853,0,0,0-2.62,0,1.853,1.853,0,0,0,0,2.62,1.926,1.926,0,0,0,1.31.543" transform="translate(-684.504 -229.327)" fill="#060000"/>
            <path id="パス_21563" data-name="パス 21563" d="M810.84,378.991h-10.5a1.815,1.815,0,0,0-1.455.73,1.4,1.4,0,0,0-.332.63,1.866,1.866,0,0,0,0,.985c.123.8.293,1.592.483,2.377.172.713.368,1.422.6,2.117a14.37,14.37,0,0,0,1.017,2.394,5.369,5.369,0,0,0,1.7,1.917,3.568,3.568,0,0,0,.73.336,3.457,3.457,0,0,0,.818.144,3.618,3.618,0,0,0,1.269-.138,6.64,6.64,0,0,0,2.25-1.15,13.714,13.714,0,0,0,2.207-2.046,15.353,15.353,0,0,0,1.841-2.627,13.788,13.788,0,0,0,.724-1.6,7.221,7.221,0,0,0,.349-1.183c.068-.341.112-.687.146-1.033a2.063,2.063,0,0,0-.543-1.31,1.853,1.853,0,0,0-2.62,0l-.29.375a1.844,1.844,0,0,0-.253.935q-.01.1-.023.2l.066-.493a7.217,7.217,0,0,1-.52,1.8l.187-.443a12.115,12.115,0,0,1-1.569,2.63l.29-.375a12.354,12.354,0,0,1-2.154,2.192l.375-.29a6.566,6.566,0,0,1-1.419.863l.443-.187a3.167,3.167,0,0,1-.8.229l.493-.066a1.9,1.9,0,0,1-.471,0l.492.066a1.427,1.427,0,0,1-.343-.091l.443.187a1.7,1.7,0,0,1-.37-.22l.375.29a2.89,2.89,0,0,1-.489-.505l.29.375a7.108,7.108,0,0,1-.864-1.563l.187.443a24.115,24.115,0,0,1-1.409-5.117c-.025-.142-.05-.283-.072-.426l-1.787,2.345h10.5a1.912,1.912,0,0,0,1.31-.543,1.853,1.853,0,0,0,0-2.62,1.926,1.926,0,0,0-1.31-.543" transform="translate(-699.855 -332.176)" fill="#060000"/>
            <path id="パス_21564" data-name="パス 21564" d="M745.734,205.462l.005-.007-.29.375a5.326,5.326,0,0,1,.952-.922l-.375.29a5.978,5.978,0,0,1,1.315-.774l-.443.187a5.272,5.272,0,0,1,1.3-.357l-.492.066a5.259,5.259,0,0,1,1.382,0l-.492-.066a6.279,6.279,0,0,1,1.57.441l-.443-.187q.213.091.42.194a1.974,1.974,0,0,0,1.428.187,1.889,1.889,0,0,0,1.107-.851,1.87,1.87,0,0,0,.187-1.428,1.843,1.843,0,0,0-.851-1.107,9.681,9.681,0,0,0-1.627-.652,8.19,8.19,0,0,0-1.583-.266,5.1,5.1,0,0,0-1.026.021,7.19,7.19,0,0,0-4.57,2.189,7.187,7.187,0,0,0-.671.8,1.379,1.379,0,0,0-.22.689,1.4,1.4,0,0,0,.033.739,1.889,1.889,0,0,0,.851,1.107,1.87,1.87,0,0,0,1.428.187l.443-.187a1.861,1.861,0,0,0,.665-.665" transform="translate(-650.591 -175.793)" fill="#060000"/>
            <path id="パス_21565" data-name="パス 21565" d="M909.369,193.9a5.054,5.054,0,0,1,.884-.46l-.443.187a6.85,6.85,0,0,1,1.7-.47l-.493.066a6.154,6.154,0,0,1,1.585-.007l-.493-.066a6.047,6.047,0,0,1,1.513.412l-.443-.187q.185.079.366.168a1.976,1.976,0,0,0,1.428.187,1.854,1.854,0,0,0,1.294-2.279,1.841,1.841,0,0,0-.852-1.107,7.711,7.711,0,0,0-4.358-.832,8.857,8.857,0,0,0-1.81.378,9.977,9.977,0,0,0-1.353.577,3.865,3.865,0,0,0-.4.233,1.979,1.979,0,0,0-.852,1.107,1.9,1.9,0,0,0,.187,1.428,1.87,1.87,0,0,0,1.107.851,1.842,1.842,0,0,0,1.428-.187" transform="translate(-794.601 -166.061)" fill="#060000"/>
            <path id="パス_21566" data-name="パス 21566" d="M765.879,70.929c.377.4.781.767,1.185,1.134,1.2,1.091,2.47,2.106,3.765,3.084a57.338,57.338,0,0,0,5.456,3.644A60.1,60.1,0,0,0,784.02,82.6a53.042,53.042,0,0,0,9.03,2.8q.615.131,1.233.247a1.4,1.4,0,0,0,.739.033,1.378,1.378,0,0,0,.689-.22,1.852,1.852,0,0,0,.665-2.535,1.824,1.824,0,0,0-1.107-.851,52.574,52.574,0,0,1-8.615-2.4q-1.108-.412-2.2-.872l.443.187a56.981,56.981,0,0,1-5.9-2.9q-2.419-1.37-4.7-2.968-1.067-.748-2.1-1.544l.375.29c-.867-.67-1.714-1.366-2.534-2.093-.458-.405-.908-.819-1.342-1.25-.069-.068-.138-.137-.2-.207a1.853,1.853,0,0,0-2.62,0,1.864,1.864,0,0,0-.543,1.31,1.969,1.969,0,0,0,.543,1.31" transform="translate(-670.798 -59.395)" fill="#060000"/>
            <path id="パス_21567" data-name="パス 21567" d="M638.369,251.451a10.081,10.081,0,0,0-1.238-1.054,6.794,6.794,0,0,0-.924-.6,5.607,5.607,0,0,0-1.456-.572,4.7,4.7,0,0,0-1.015-.12,4.054,4.054,0,0,0-.49.051,3.3,3.3,0,0,0-.516.092,3.827,3.827,0,0,0-1.7,1.059,8.692,8.692,0,0,0-1.625,2.729,11.143,11.143,0,0,0-.711,3.06,7.872,7.872,0,0,0-.029,1.369,8.257,8.257,0,0,0,.282,1.736,5.67,5.67,0,0,0,1.792,2.827,10.552,10.552,0,0,0,1.607,1.1,14.952,14.952,0,0,0,1.776.793,17.432,17.432,0,0,0,4.474,1.012l.07.007a1.863,1.863,0,0,0,1.31-.543,1.852,1.852,0,0,0,0-2.62l-.375-.29a1.843,1.843,0,0,0-.935-.253c-.146-.012-.292-.031-.438-.051l.492.066a15.835,15.835,0,0,1-4.023-1.067l.443.187a9.309,9.309,0,0,1-2.039-1.16l.375.29a4.215,4.215,0,0,1-.743-.718l.29.375a4.015,4.015,0,0,1-.5-.867l.187.443a5.316,5.316,0,0,1-.359-1.353l.066.493a7.83,7.83,0,0,1,.021-2.045l-.066.493a9.614,9.614,0,0,1,.654-2.4l-.187.443a6.892,6.892,0,0,1,.865-1.525l-.29.375a3.207,3.207,0,0,1,.553-.574l-.375.29a1.962,1.962,0,0,1,.4-.232l-.443.187a1.9,1.9,0,0,1,.447-.122l-.493.066a2.251,2.251,0,0,1,.582,0l-.493-.066a3.343,3.343,0,0,1,.82.236l-.443-.187a6.156,6.156,0,0,1,1.324.8l-.375-.29a7.358,7.358,0,0,1,.841.747,1.852,1.852,0,0,0,2.62,0,1.863,1.863,0,0,0,.543-1.31,1.978,1.978,0,0,0-.543-1.31" transform="translate(-550.991 -218.332)" fill="#060000"/>
            <path id="パス_21568" data-name="パス 21568" d="M555.8,44.573a20.658,20.658,0,0,0,.666,4.177,24.468,24.468,0,0,0,3.757,8.287,23.617,23.617,0,0,0,2.132,2.6,22.975,22.975,0,0,0,2.727,2.381v-3.2l-.089.039.443-.187a13.473,13.473,0,0,1-3.369.846l.493-.066a20.645,20.645,0,0,1-5.463-.024l.492.066a21.753,21.753,0,0,1-5.453-1.426l.443.187a15.1,15.1,0,0,1-3.288-1.933l.375.29a17.882,17.882,0,0,1-3.164-3.193l.29.375a22.594,22.594,0,0,1-2.869-4.979l.187.443a28.73,28.73,0,0,1-1.944-7.273l.066.492a34.368,34.368,0,0,1,.026-9.029l-.066.492a39.741,39.741,0,0,1,2.831-10.11l-.187.443a48.9,48.9,0,0,1,4.634-8.583q.657-.961,1.368-1.883l-.29.375a34.583,34.583,0,0,1,4.744-5.057q.563-.485,1.151-.941l-.375.29a17.564,17.564,0,0,1,3.392-2.154c.116-.053.233-.1.351-.153l-.443.187A34.688,34.688,0,0,1,565.6,4.432q1.411-.3,2.842-.494L567.953,4a31.616,31.616,0,0,1,8.327-.045l-.493-.066A25.422,25.422,0,0,1,582.14,5.6l-.443-.187A32.825,32.825,0,0,1,588.872,9.6l-.375-.29a19.2,19.2,0,0,1,3.423,3.341l-.29-.375a13.594,13.594,0,0,1,1.777,3.018l-.187-.443a14.4,14.4,0,0,1,.957,3.621l-.066-.492a40.042,40.042,0,0,1,.131,6.3,1.869,1.869,0,0,0,1.853,1.853,1.889,1.889,0,0,0,1.853-1.853,49.707,49.707,0,0,0-.024-5.294,17.378,17.378,0,0,0-1.484-5.942,16.567,16.567,0,0,0-4.119-5.36,32.756,32.756,0,0,0-8.073-5.174A28.04,28.04,0,0,0,574.414.065a35.155,35.155,0,0,0-8.51.542,37.812,37.812,0,0,0-5.8,1.509c-.846.294-1.683.62-2.5.99a11.807,11.807,0,0,0-1.168.623A26.505,26.505,0,0,0,553.268,6,32.249,32.249,0,0,0,549.4,9.759a43.538,43.538,0,0,0-4.519,6.214,53.275,53.275,0,0,0-4.178,8.721,39.444,39.444,0,0,0-2.242,9.46,35.64,35.64,0,0,0,.157,9.012,29.763,29.763,0,0,0,2.281,7.923,22.709,22.709,0,0,0,4.086,6.248,17.06,17.06,0,0,0,5.633,4.073,23.73,23.73,0,0,0,9.406,1.913,18.659,18.659,0,0,0,5.808-.865,10.721,10.721,0,0,0,1.12-.444,1.854,1.854,0,0,0,.665-2.535,1.86,1.86,0,0,0-.665-.665l-.141-.107.375.29a20.229,20.229,0,0,1-3.617-3.617l.29.375a22.151,22.151,0,0,1-2.829-4.888l.187.443a24.041,24.041,0,0,1-1.661-6.039l.066.493c-.053-.394-.1-.791-.117-1.189a1.853,1.853,0,0,0-3.706,0" transform="translate(-471.761 0.002)" fill="#060000"/>
            <path id="パス_21569" data-name="パス 21569" d="M319.219,478.184l-2.065,6.382,1.294-1.294q-3.471,1.023-6.943,2.043-6.971,2.048-13.945,4.083c-3.537,1.03-7.071,2.079-10.624,3.053a17.725,17.725,0,0,0-2.976,1.034,15.076,15.076,0,0,0-4.077,2.952c-4.246,4.213-6.418,10.225-7.657,15.95a71.05,71.05,0,0,0-1.348,14.134c-.073,5.43.109,10.862.378,16.285.279,5.622.667,11.239,1.119,16.851q.556,6.9,1.24,13.8.353,3.566.743,7.128.018.158.035.316a1.9,1.9,0,0,0,1.853,1.853c.91-.041,1.97-.821,1.853-1.853-.211-1.862-.4-3.726-.592-5.59q-.7-6.926-1.28-13.865c-.492-5.922-.916-11.85-1.222-17.784-.3-5.776-.5-11.564-.418-17.347.035-2.385.12-4.772.325-7.148q.067-.779.155-1.556c.026-.232.055-.464.085-.7.053-.418-.057.4-.016.118.02-.134.038-.268.058-.4a51.567,51.567,0,0,1,1.135-5.471A42.732,42.732,0,0,1,278.043,506c.165-.407-.126.273-.008.019.045-.1.085-.2.129-.3q.1-.232.209-.462.255-.554.533-1.1.487-.951,1.05-1.861.495-.8,1.053-1.549c.047-.063.1-.124.144-.191-.006.011-.3.375-.117.152.087-.107.172-.216.26-.323q.267-.325.548-.637c.346-.384.709-.753,1.089-1.1q.249-.23.508-.448.125-.105.251-.207l.139-.11c.221-.178-.4.293-.155.12a14.469,14.469,0,0,1,1.918-1.2c.14-.07.282-.137.424-.2.159-.073.514-.18-.171.069.074-.027.146-.06.219-.088.25-.1.5-.186.762-.261,1.052-.309,2.117-.577,3.171-.877,4.521-1.286,9.032-2.609,13.543-3.929q6.608-1.933,13.212-3.878c.88-.259,1.781-.483,2.65-.781,1.133-.388,1.337-1.338,1.654-2.319l1.1-3.4.635-1.963a1.868,1.868,0,0,0-1.294-2.279,1.9,1.9,0,0,0-2.279,1.294" transform="translate(-237.405 -417.936)" fill="#060000"/>
            <path id="パス_21570" data-name="パス 21570" d="M601.161,550.279c.488.5,1,.981,1.521,1.454,1.444,1.321,2.957,2.559,4.506,3.754a60.56,60.56,0,0,0,6.2,4.211,47.037,47.037,0,0,0,7.987,3.782,32.587,32.587,0,0,0,4.2,1.207,19.09,19.09,0,0,0,4.009.5,10.77,10.77,0,0,0,3.156-.447,8.28,8.28,0,0,0,2.474-1.213,9.617,9.617,0,0,0,1.165-.983,10.531,10.531,0,0,0,.957-1.17,10.816,10.816,0,0,0,1.21-2.311,16.215,16.215,0,0,0,1.012-4.645,23.6,23.6,0,0,0,.035-3.719c-.055-.837-.15-1.675-.283-2.5,0-.031-.01-.062-.015-.093a1.863,1.863,0,0,0-.851-1.107,1.853,1.853,0,0,0-2.535.665l-.187.443a1.866,1.866,0,0,0,0,.985c.029.16.051.321.072.482l-.066-.492c.079.592.134,1.187.17,1.783a24.483,24.483,0,0,1,.019,2.637c-.027.568-.077,1.134-.152,1.7l.066-.493a14.623,14.623,0,0,1-.624,2.748q-.129.379-.284.749l.187-.443a8.745,8.745,0,0,1-1.113,1.934l.29-.375a6.961,6.961,0,0,1-1.232,1.237l.375-.29a6.711,6.711,0,0,1-1.469.854l.443-.187a7.9,7.9,0,0,1-1.985.53l.493-.066a11.787,11.787,0,0,1-3.1-.034l.493.066a29.572,29.572,0,0,1-6.191-1.608q-.86-.315-1.7-.672l.443.187a46.584,46.584,0,0,1-5.165-2.585c-1.546-.892-3.047-1.863-4.5-2.894q-1.109-.785-2.184-1.617l.375.29q-1.743-1.348-3.4-2.81c-.644-.571-1.279-1.155-1.893-1.759-.1-.1-.2-.2-.3-.3a1.853,1.853,0,0,0-2.62,0,1.864,1.864,0,0,0-.543,1.31,1.955,1.955,0,0,0,.543,1.31" transform="translate(-526.427 -479.206)" fill="#060000"/>
            <path id="パス_21571" data-name="パス 21571" d="M864.586,535.473c2.718.554,5.427,1.156,8.131,1.776,4.988,1.144,9.977,2.348,14.871,3.849,1.064.326,2.124.669,3.172,1.046.431.155.861.317,1.286.488l.336.137c.219.089-.538-.234-.122-.051.182.081.365.161.545.246.312.147.62.3.917.478.118.07.235.143.349.22.054.037.105.076.159.113.147.1-.472-.4-.2-.148.069.065.134.133.2.2.225.211-.327-.475-.161-.2.2.329-.2-.594-.075-.18a8.133,8.133,0,0,1,.214.877c.038.2.071.4.1.606.016.1.031.207.046.311.008.054.015.109.023.164-.117-.807-.056-.423-.032-.237.162,1.264.271,2.535.369,3.806.288,3.749.458,7.508.609,11.266.193,4.8.336,9.6.459,14.395q.2,7.731.329,15.463.125,7.1.214,14.2.069,5.436.12,10.873.025,2.706.045,5.411,0,.116,0,.232a1.853,1.853,0,1,0,3.706,0q-.012-1.9-.03-3.8-.043-4.923-.1-9.846-.081-6.855-.192-13.709-.126-7.738-.3-15.476-.174-7.437-.431-14.872c-.147-4.058-.314-8.116-.579-12.169a58.163,58.163,0,0,0-.81-7.761,3.721,3.721,0,0,0-1.175-2.23,15.569,15.569,0,0,0-4.834-2.376,136.938,136.938,0,0,0-14.457-4.053q-5.54-1.33-11.119-2.494l-.6-.124a1.853,1.853,0,1,0-.985,3.573" transform="translate(-756.613 -466.16)" fill="#060000"/>
            <path id="パス_21572" data-name="パス 21572" d="M994.584,771.843c.025,2.249.009,4.5-.019,6.749-.058,4.712-.193,9.427-.5,14.13-.163,2.512-.372,5.024-.707,7.521l.066-.493c-.57,4.227-1.372,8.424-2.189,12.609q-1.08,5.527-2.264,11.032-.234,1.091-.472,2.18a1.853,1.853,0,0,0,3.573.985q.68-3.094,1.319-6.2c.875-4.208,1.718-8.424,2.478-12.654.765-4.255,1.408-8.52,1.747-12.832.381-4.849.544-9.716.627-14.579.047-2.774.07-5.549.045-8.323v-.129a1.853,1.853,0,1,0-3.706,0" transform="translate(-866.357 -674.877)" fill="#060000"/>
            <path id="パス_21573" data-name="パス 21573" d="M737.013,699.568c.18-.584.374-1.164.569-1.744q.718-2.131,1.52-4.232.56-1.465,1.167-2.91l-.187.443a44.753,44.753,0,0,1,3.2-6.4c.306-.489.631-.966.983-1.423l-.29.375a8.2,8.2,0,0,1,1.425-1.488l-.375.29c.682-.524,1.413-.989,2.14-1.447.931-.587,1.878-1.148,2.833-1.7q3.166-1.814,6.447-3.421c1.115-.544,2.239-1.069,3.382-1.552l-.443.187a19.908,19.908,0,0,1,2.857-1.025,5.2,5.2,0,0,1,.554-.111l-.493.066a1.81,1.81,0,0,1,.457-.015l-.492-.066a.643.643,0,0,1,.163.041l-.443-.187a.4.4,0,0,1,.078.046l-.375-.29a.7.7,0,0,1,.12.121l-.29-.375a.965.965,0,0,1,.111.193l-.187-.443a1.783,1.783,0,0,1,.115.451l-.066-.493a5.476,5.476,0,0,1-.045,1.4l.066-.493a25.535,25.535,0,0,1-1.389,5.159,3.52,3.52,0,0,0-.017,1.547c.1,1.136.176,2.275.213,3.415a28.27,28.27,0,0,1-.147,4.608l.066-.492a8.009,8.009,0,0,1-.558,2.086l.187-.443a32.917,32.917,0,0,1-2.364,4.356c-1.04,1.687-2.145,3.335-3.295,4.949q-.885,1.243-1.815,2.455l.29-.375A20.462,20.462,0,0,1,750.5,703.2c-.319.294-.676.55-1.019.815l.375-.29q-1.792,1.384-3.637,2.7l.443-.187a6.286,6.286,0,0,1-1.029.207l.493-.066a9.507,9.507,0,0,1-2.5,0l.493.066a8.715,8.715,0,0,1-2.2-.594l.443.187a8.525,8.525,0,0,1-1.867-1.089l.375.29a9.71,9.71,0,0,1-1.732-1.746l.29.375a13.31,13.31,0,0,1-1.676-2.936l.187.443a19.93,19.93,0,0,1-.922-2.788,1.853,1.853,0,0,0-2.279-1.294,1.875,1.875,0,0,0-1.107.852,1.958,1.958,0,0,0-.187,1.428,16.736,16.736,0,0,0,3.585,7.154,10.5,10.5,0,0,0,4.738,3,11.245,11.245,0,0,0,2.35.413,9.512,9.512,0,0,0,1.559-.005,9.629,9.629,0,0,0,1.971-.322,3.073,3.073,0,0,0,.937-.543q.678-.491,1.351-.99.856-.634,1.7-1.283c.5-.382,1.024-.749,1.484-1.175a13.633,13.633,0,0,0,1.2-1.326c.66-.8,1.289-1.617,1.908-2.444q1.946-2.6,3.7-5.342a43.106,43.106,0,0,0,2.926-5.109,10.317,10.317,0,0,0,.834-2.258,21.089,21.089,0,0,0,.358-3.872,52.4,52.4,0,0,0-.292-5.986c-.011-.113-.023-.227-.036-.34l-.066.493a32.031,32.031,0,0,0,1.133-3.724c.109-.457.2-.918.274-1.383a10.392,10.392,0,0,0,.162-1.667,4.235,4.235,0,0,0-.394-1.783,2.388,2.388,0,0,0-1.446-1.223,4.054,4.054,0,0,0-2.1.088,15.879,15.879,0,0,0-1.976.661c-2,.783-3.947,1.7-5.863,2.67q-3,1.511-5.9,3.2a40.749,40.749,0,0,0-4.786,3.112,10.406,10.406,0,0,0-1.793,1.978,21.292,21.292,0,0,0-1.483,2.3,55.912,55.912,0,0,0-2.91,6.129c-.744,1.783-1.429,3.591-2.07,5.414-.355,1.009-.7,2.022-1.021,3.042l-.044.14a1.854,1.854,0,0,0,1.294,2.279,1.876,1.876,0,0,0,1.428-.187,1.984,1.984,0,0,0,.851-1.107" transform="translate(-642.785 -587.018)" fill="#060000"/>
            <path id="パス_21574" data-name="パス 21574" d="M550.14,892.718l-.692.772-1.884,2.1-2.786,3.107-3.4,3.791-3.724,4.153-3.76,4.192-3.506,3.909-2.963,3.3-2.131,2.376-1.01,1.127-.043.049a1.954,1.954,0,0,0-.543,1.31,1.885,1.885,0,0,0,.543,1.31,1.853,1.853,0,0,0,2.62,0l.692-.772,1.884-2.1,2.786-3.107,3.4-3.791,3.724-4.153,3.759-4.192,3.506-3.909,2.963-3.3,2.131-2.376,1.01-1.127.044-.049a1.954,1.954,0,0,0,.543-1.31,1.885,1.885,0,0,0-.543-1.31,1.853,1.853,0,0,0-2.62,0" transform="translate(-459.009 -781.969)" fill="#060000"/>
            <path id="パス_21575" data-name="パス 21575" d="M517.664,809.556q0,.523.005,1.047.007,1.412.013,2.825.01,2.1.02,4.2.012,2.548.024,5.1.014,2.809.027,5.618t.027,5.633q.013,2.644.025,5.288.011,2.219.021,4.439l.015,3.214c0,.5,0,1.009.007,1.513,0,.022,0,.044,0,.066a1.915,1.915,0,0,0,.543,1.31,1.853,1.853,0,0,0,3.163-1.31q0-.524,0-1.047-.007-1.413-.013-2.825-.01-2.1-.02-4.2l-.025-5.095q-.013-2.809-.027-5.618t-.027-5.633q-.013-2.644-.025-5.288-.011-2.22-.021-4.439l-.015-3.214c0-.5,0-1.008-.007-1.513,0-.022,0-.044,0-.066a1.915,1.915,0,0,0-.543-1.31,1.853,1.853,0,0,0-3.163,1.31" transform="translate(-453.72 -707.932)" fill="#060000"/>
            <path id="パス_21576" data-name="パス 21576" d="M791.925,962.458l-.686,1.286-1.647,3.088-1.984,3.72-1.715,3.216c-.279.523-.562,1.044-.837,1.569l-.012.022a1.948,1.948,0,0,0-.187,1.428,1.889,1.889,0,0,0,.852,1.107,1.853,1.853,0,0,0,2.535-.665l.686-1.286,1.647-3.088,1.984-3.72,1.715-3.216c.279-.523.562-1.044.837-1.569l.012-.022a1.948,1.948,0,0,0,.187-1.428,1.889,1.889,0,0,0-.851-1.107,1.853,1.853,0,0,0-2.535.665" transform="translate(-687.855 -842.764)" fill="#060000"/>
            <path id="パス_21577" data-name="パス 21577" d="M431.427,1192.9l-1.257,1.32-2.006,2.106-.464.487a1.929,1.929,0,0,0-.543,1.31,1.886,1.886,0,0,0,.543,1.31,1.865,1.865,0,0,0,1.31.542,1.9,1.9,0,0,0,1.31-.542l1.257-1.32,2.006-2.106.464-.487a1.928,1.928,0,0,0,.543-1.31,1.886,1.886,0,0,0-.543-1.31,1.863,1.863,0,0,0-1.31-.543,1.894,1.894,0,0,0-1.31.543" transform="translate(-374.394 -1045.07)" fill="#060000"/>
            <path id="パス_21578" data-name="パス 21578" d="M720.658,1128.508l-1.075,1.654-1.723,2.651-.393.6a1.852,1.852,0,0,0,.665,2.535,1.868,1.868,0,0,0,1.428.187,2.015,2.015,0,0,0,1.107-.851l1.075-1.654,1.723-2.651.393-.6a1.853,1.853,0,0,0-.665-2.535,1.87,1.87,0,0,0-1.428-.187,2.016,2.016,0,0,0-1.107.851" transform="translate(-628.624 -988.303)" fill="#060000"/>
            <path id="パス_21579" data-name="パス 21579" d="M1146.91,1214.253l-1.322.107-3.6.292-5.323.432-6.493.527-7.112.578-7.178.583-6.67.542-5.656.459-4.055.329c-.644.052-1.288.1-1.931.157l-.083.007a1.981,1.981,0,0,0-1.31.543,1.853,1.853,0,0,0,0,2.62,1.822,1.822,0,0,0,1.31.543l1.323-.108,3.6-.292,5.323-.432,6.494-.527,7.112-.578,7.178-.583,6.67-.542,5.656-.459,4.055-.329c.644-.052,1.288-.1,1.931-.157l.084-.007a1.982,1.982,0,0,0,1.31-.543,1.853,1.853,0,0,0,0-2.62,1.821,1.821,0,0,0-1.31-.543" transform="translate(-960.297 -1064.262)" fill="#060000"/>
            <path id="パス_21580" data-name="パス 21580" d="M214.126,1287.816c-2.353-.5-41.067,3.3-51.083,4.108-.694.057-1.388.11-2.081.169l-.09.007a1.981,1.981,0,0,0-1.31.543,1.853,1.853,0,0,0,1.31,3.163l1.425-.116,3.878-.315c9.675-.786,48.793-3.583,49.516-4.654.9-1.34-.229-2.621-1.566-2.906" transform="translate(-139.376 -1128.701)" fill="#060000"/>
            <path id="パス_21581" data-name="パス 21581" d="M339.453,1396.026l-4.434.512-10.7,1.235-12.9,1.489-11.2,1.292c-1.8.208-3.61.406-5.413.625l-.076.009a1.853,1.853,0,0,0-.935,3.453l4.745,3.082,11.574,7.515,14.364,9.327,13.225,8.588,8.142,5.287a2.961,2.961,0,0,0,2.38.787c.677-.107,1.352-.228,2.027-.342l11.548-1.949,16.581-2.8,15.7-2.649,8.763-1.479.4-.068a1.833,1.833,0,0,0,1.327-1.541,1.852,1.852,0,0,0-.885-1.846l-5.147-2.951-12.355-7.083-14.888-8.536-12.866-7.377c-2.084-1.195-4.146-2.443-6.258-3.588l-.089-.051a1.853,1.853,0,0,0-1.87,3.2l5.147,2.951,12.354,7.083,14.889,8.536,12.866,7.377c2.079,1.192,4.128,2.49,6.258,3.588.03.016.06.034.089.052l.443-3.387-5.508.93-13.114,2.213-15.906,2.684-13.748,2.32c-2.219.374-4.465.676-6.67,1.125-.032.007-.065.011-.1.016l1.428.187-5.3-3.444-12.636-8.205-15.273-9.917-13.275-8.62c-2.128-1.382-4.22-2.865-6.4-4.158-.03-.018-.06-.039-.089-.058l-.935,3.453,4.434-.512,10.7-1.235,12.9-1.489,11.2-1.292c1.8-.208,3.609-.409,5.413-.625l.076-.009a1.9,1.9,0,0,0,1.853-1.853c-.041-.909-.822-1.972-1.853-1.853" transform="translate(-256.711 -1223.577)" fill="#060000"/>
            <path id="パス_21582" data-name="パス 21582" d="M221.642,1499.465l-7.446,1.047-11.86,1.668-2.712.381c-1.406.2-1.741,2.224-.818,3.1l4.238,4.007,10.081,9.531,11.975,11.321,9.919,9.378,2.943,2.782.769.727c.058.054.114.111.174.164a2.06,2.06,0,0,0,1.841.512c1.865-.3,3.724-.652,5.585-.978l13.285-2.326,16.213-2.839,14.372-2.517,7.753-1.357.357-.062a1.864,1.864,0,0,0,.818-3.1l-7.243-6.337-1.014-.887a1.853,1.853,0,0,0-2.62,2.62l7.243,6.337,1.014.887.818-3.1-5.767,1.01-13.742,2.406-16.606,2.907-14.356,2.514c-2.328.408-4.685.741-7,1.225-.032.007-.065.011-.1.017l1.8.476-4.012-3.793-9.56-9.037-11.628-10.994-9.991-9.445c-1.622-1.533-3.2-3.146-4.88-4.613-.023-.02-.044-.042-.066-.062l-.818,3.1,7.446-1.047,11.86-1.668,2.712-.382a1.857,1.857,0,0,0,1.294-2.279,1.912,1.912,0,0,0-2.279-1.294" transform="translate(-173.796 -1314.221)" fill="#060000"/>
            <path id="パス_21583" data-name="パス 21583" d="M454.927,1773.193l-7.51,1.105c-6.842,1.007-160.571,24.85-180.537,27.7a5.646,5.646,0,0,0-3.1,1.1c-.823.75-1.031,2.267-.119,2.905a2.838,2.838,0,0,0,2.049.215c25.57-5.114,186.114-28.711,189.732-29.377.155-.029.312-.046.468-.069a1.867,1.867,0,0,0,1.294-2.279,1.9,1.9,0,0,0-2.279-1.294" transform="translate(-230.571 -1554.137)" fill="#060000"/>
            <path id="パス_21584" data-name="パス 21584" d="M189.2,945.275l-.136-1.222-.369-3.318-.544-4.893-.661-5.948-.72-6.481-.721-6.494-.665-5.985-.551-4.956-.378-3.405c-.049-.445-.1-.889-.148-1.333a7.688,7.688,0,0,1,.019-1.807l-.066.493a7.588,7.588,0,0,1,.513-1.88l-.187.443a7.668,7.668,0,0,1,.969-1.655l-.29.375a7.7,7.7,0,0,1,1.3-1.307l-.375.29a7.606,7.606,0,0,1,1.669-.979l-.443.187a7.624,7.624,0,0,1,1.854-.507l-.493.066c.765-.1,1.544-.128,2.313-.184l2.166-.158a1.973,1.973,0,0,0,1.31-.543,1.853,1.853,0,0,0-1.31-3.163l-2.938.215-1.028.075a10.092,10.092,0,0,0-3.43.869,9.229,9.229,0,0,0-5.26,9.186c.074.686.152,1.371.229,2.057l.541,4.867.751,6.762.857,7.717.868,7.811.772,6.945.579,5.213.282,2.541.012.111a2.014,2.014,0,0,0,.543,1.31,1.853,1.853,0,0,0,2.62,0,1.793,1.793,0,0,0,.543-1.31" transform="translate(-158.254 -780.857)" fill="#060000"/>
          </g>
        </g>
      </g>
      <g id="グループ_2581" data-name="グループ 2581" transform="translate(-1443.274 -1511.216)">
        <path id="合体_44" data-name="合体 44" d="M0,16.2A14.263,14.263,0,0,1,4.218,6.27l-3.1-5.153L7.942,3.3A23.324,23.324,0,0,1,20.108,0C31.214,0,40.216,7.252,40.216,16.2s-9,16.2-20.108,16.2S0,25.144,0,16.2Z" transform="translate(1650.24 1561.329) rotate(180)" fill="#c1c1c1"/>
        <g id="グループ_2580" data-name="グループ 2580" transform="translate(1595.5 1540.104)">
          <path id="合体_43" data-name="合体 43" d="M7.584,28.871.109,31.259l3.5-5.8A14.076,14.076,0,0,1,0,16.2C0,7.252,9,0,20.105,0S40.217,7.252,40.217,16.2s-9,16.2-20.111,16.2A23.209,23.209,0,0,1,7.584,28.871Z" fill="#d6d6d6"/>
          <circle id="楕円形_93" data-name="楕円形 93" cx="1.5" cy="1.5" r="1.5" transform="translate(9.586 14.133)" fill="#060000"/>
          <circle id="楕円形_94" data-name="楕円形 94" cx="1.5" cy="1.5" r="1.5" transform="translate(18.608 14.133)" fill="#060000"/>
          <circle id="楕円形_95" data-name="楕円形 95" cx="1.5" cy="1.5" r="1.5" transform="translate(27.63 14.133)" fill="#060000"/>
        </g>
      </g>
    </g>
  </g>
</svg>
