<svg xmlns="http://www.w3.org/2000/svg" xmlns:xlink="http://www.w3.org/1999/xlink" width="394" height="240" viewBox="0 0 394 240">
  <defs>
    <clipPath id="clip-path">
      <rect id="長方形_568" data-name="長方形 568" width="394" height="240" transform="translate(1028 3903)" fill="rgba(168,67,67,0.11)"/>
    </clipPath>
    <clipPath id="clip-path-2">
      <rect id="長方形_414" data-name="長方形 414" width="335" height="216" transform="translate(-0.467 0.294)" fill="#fff" stroke="#707070" stroke-width="1"/>
    </clipPath>
    <clipPath id="clip-path-3">
      <rect id="長方形_399" data-name="長方形 399" width="232.854" height="218.896" fill="none"/>
    </clipPath>
    <clipPath id="clip-path-4">
      <rect id="長方形_393" data-name="長方形 393" width="95.078" height="211.026" transform="translate(0 0)" fill="none"/>
    </clipPath>
  </defs>
  <g id="flow-step03" transform="translate(-1028 -3903)" clip-path="url(#clip-path)">
    <g id="content" transform="translate(1040.051 3926)">
      <g id="グループ_2643" data-name="グループ 2643" transform="translate(316.197)">
        <path id="パス_21824" data-name="パス 21824" d="M-10384.421,7645.634v71.183h53.669v-54.043l-17.14-17.14Z" transform="translate(10384.421 -7645.634)" fill="#f0f0f0"/>
        <path id="パス_21825" data-name="パス 21825" d="M-10194.863,7645.647l17.205,17.3h-17.205Z" transform="translate(10231.457 -7645.647)" fill="#b1b1b1"/>
        <g id="グループ_2643-2" data-name="グループ 2643" transform="translate(9.138 14.904)">
          <rect id="長方形_415" data-name="長方形 415" width="15" height="14" transform="translate(-0.385 0.227)" fill="#b1b1b1"/>
          <rect id="長方形_416" data-name="長方形 416" width="36" height="4" transform="translate(-0.385 20.227)" fill="#222c34"/>
          <rect id="長方形_417" data-name="長方形 417" width="36" height="4" transform="translate(-0.385 30.227)" fill="#222c34"/>
          <rect id="長方形_418" data-name="長方形 418" width="21" height="3" transform="translate(-0.385 40.227)" fill="#222c34"/>
        </g>
      </g>
      <g id="グループ_2644" data-name="グループ 2644" transform="translate(158.098 10.669)">
        <path id="パス_21824-2" data-name="パス 21824" d="M-10384.421,7645.634v71.183h53.669v-54.043l-17.14-17.14Z" transform="translate(10384.421 -7645.634)" fill="#f0f0f0"/>
        <path id="パス_21825-2" data-name="パス 21825" d="M-10194.863,7645.647l17.205,17.3h-17.205Z" transform="translate(10231.457 -7645.647)" fill="#b1b1b1"/>
        <g id="グループ_2643-3" data-name="グループ 2643" transform="translate(9.138 14.904)">
          <rect id="長方形_415-2" data-name="長方形 415" width="15" height="15" transform="translate(-0.286 -0.443)" fill="#b1b1b1"/>
          <rect id="長方形_416-2" data-name="長方形 416" width="36" height="4" transform="translate(-0.286 20.557)" fill="#222c34"/>
          <rect id="長方形_417-2" data-name="長方形 417" width="36" height="3" transform="translate(-0.286 30.557)" fill="#222c34"/>
          <rect id="長方形_418-2" data-name="長方形 418" width="21" height="4" transform="translate(-0.286 39.557)" fill="#222c34"/>
        </g>
      </g>
      <g id="グループ_2645" data-name="グループ 2645" transform="translate(0)">
        <path id="パス_21824-3" data-name="パス 21824" d="M-10384.421,7645.634v71.183h53.669v-54.043l-17.14-17.14Z" transform="translate(10384.421 -7645.634)" fill="#f0f0f0"/>
        <path id="パス_21825-3" data-name="パス 21825" d="M-10194.863,7645.647l17.205,17.3h-17.205Z" transform="translate(10231.457 -7645.647)" fill="#b1b1b1"/>
        <g id="グループ_2643-4" data-name="グループ 2643" transform="translate(9.138 14.904)">
          <rect id="長方形_415-3" data-name="長方形 415" width="15" height="14" transform="translate(-0.188 0.227)" fill="#b1b1b1"/>
          <rect id="長方形_416-3" data-name="長方形 416" width="36" height="4" transform="translate(-0.188 20.227)" fill="#222c34"/>
          <rect id="長方形_417-3" data-name="長方形 417" width="36" height="4" transform="translate(-0.188 30.227)" fill="#222c34"/>
          <rect id="長方形_418-3" data-name="長方形 418" width="21" height="3" transform="translate(-0.188 40.227)" fill="#222c34"/>
        </g>
      </g>
      <g id="グループ_2646" data-name="グループ 2646" transform="translate(24.248 110.572)">
        <path id="パス_21824-4" data-name="パス 21824" d="M-10384.421,7645.634v71.183h53.669v-54.043l-17.14-17.14Z" transform="translate(10384.421 -7645.634)" fill="#f0f0f0"/>
        <path id="パス_21825-4" data-name="パス 21825" d="M-10194.863,7645.647l17.205,17.3h-17.205Z" transform="translate(10231.457 -7645.647)" fill="#b1b1b1"/>
        <g id="グループ_2643-5" data-name="グループ 2643" transform="translate(9.138 14.904)">
          <rect id="長方形_415-4" data-name="長方形 415" width="15" height="15" transform="translate(-0.436 -0.346)" fill="#b1b1b1"/>
          <rect id="長方形_416-4" data-name="長方形 416" width="36" height="4" transform="translate(-0.436 20.654)" fill="#222c34"/>
          <rect id="長方形_417-4" data-name="長方形 417" width="36" height="4" transform="translate(-0.436 29.654)" fill="#222c34"/>
          <rect id="長方形_418-4" data-name="長方形 418" width="21" height="4" transform="translate(-0.436 39.654)" fill="#222c34"/>
        </g>
      </g>
      <g id="グループ_2647" data-name="グループ 2647" transform="translate(189.798 110.572)">
        <path id="パス_21824-5" data-name="パス 21824" d="M-10384.421,7645.634v71.183h53.669v-54.043l-17.14-17.14Z" transform="translate(10384.421 -7645.634)" fill="#f0f0f0"/>
        <path id="パス_21825-5" data-name="パス 21825" d="M-10194.863,7645.647l17.205,17.3h-17.205Z" transform="translate(10231.457 -7645.647)" fill="#b1b1b1"/>
        <g id="グループ_2643-6" data-name="グループ 2643" transform="translate(9.138 14.904)">
          <rect id="長方形_415-5" data-name="長方形 415" width="14.549" height="14.549" fill="#b1b1b1"/>
          <rect id="長方形_416-5" data-name="長方形 416" width="35.887" height="3.88" transform="translate(0 20.368)" fill="#222c34"/>
          <rect id="長方形_417-5" data-name="長方形 417" width="35.887" height="3.88" transform="translate(0 30.068)" fill="#222c34"/>
          <rect id="長方形_418-5" data-name="長方形 418" width="20.368" height="3.88" transform="translate(0 39.767)" fill="#222c34"/>
        </g>
      </g>
    </g>
    <g id="マスクグループ_155" data-name="マスクグループ 155" transform="translate(1070.467 3926.706)" clip-path="url(#clip-path-2)">
      <g id="グループ_2642" data-name="グループ 2642" transform="translate(14.114 5.682)">
        <g id="グループ_2639" data-name="グループ 2639" transform="translate(78.397 0)">
          <g id="グループ_2575" data-name="グループ 2575" transform="translate(0 0)" clip-path="url(#clip-path-3)">
            <path id="パス_21502" data-name="パス 21502" d="M71.093,1161.841l-3.8-.95s-5.465-4.99-9.03-6.178S40.2,1149.96,40.2,1149.96a4.948,4.948,0,0,0,1.188,4.515,44.125,44.125,0,0,0,4.99,4.04l-13.782-.238s-10.455-3.089-13.782-1.663a11.9,11.9,0,0,0-4.99,4.04l19.248,10.218L68,1177.287s4.04-2.852,3.089-15.446" transform="translate(-12.379 -1029.635)" fill="#fff"/>
            <path id="パス_21503" data-name="パス 21503" d="M1294.013,193.43l-1.981-26.325-7.076-.849s-5.944-8.492-6.227-17.55,1.7-22.928,1.7-22.928,9.907-8.775,18.4-11.039,9.907-2.264,9.907-2.264l16.7,22.928-4.812,25.475,2.265,9.907s-19.814,21.513-28.872,22.645" transform="translate(-1144.905 -100.706)" fill="#fff"/>
            <path id="パス_21504" data-name="パス 21504" d="M1657.694,447.253l-3.158-10.378,5.565-2.256Z" transform="translate(-1481.415 -389.143)" fill="#f49902"/>
            <path id="パス_21505" data-name="パス 21505" d="M1311.221,56.9s-1.053-6.016-3.158-5.866-5.114,2.407-5.114,2.407V49.077s-9.476-16.094-9.927-16.545-20,2.256-26.622,12.935l-2.858-13.386s8.122-8.724,19.252-10.98a30.23,30.23,0,0,1,19.4,2.406l6.468,7.37,6.768,7.37Z" transform="translate(-1131.333 -18.341)" fill="#f49902"/>
            <path id="パス_21506" data-name="パス 21506" d="M1319.429,646.086l-3.357-4.06-26.133,10.889-3.7,5.662-2.613-10.018-3.7,3.267s-5.009,22.431-6.316,27.876-4.791,44.645-4.791,44.645l18.729-32.667Z" transform="translate(-1136.053 -574.848)" fill="#fff"/>
            <path id="パス_21507" data-name="パス 21507" d="M1290.3,839.256l2.742-28.03L1300.2,803l-3.5-1.98-7.16-.609-4.265,4.418,2.438,5.332-10.664,29.554-1.219,24.983Z" transform="translate(-1142.334 -716.66)" fill="#ffec00"/>
            <path id="パス_21508" data-name="パス 21508" d="M640.586,680.829l36.672,16.343,8.57,5.78,1.2,6.378s1.794,30.692.8,48.63-3.388,25.311-3.388,25.311a13.225,13.225,0,0,1-9.367,6.577c-6.976,1.4-17.339-2.193-17.339-2.193L656.132,804.4l3.986,22.521h-84.9l1.4-18.336.6-32.686s-11.958.6-18.336-.4-48.231-12.955-48.231-12.955a59.555,59.555,0,0,0,3.588-11.759c1.2-6.378,1.794-11.161,1.794-11.161l54.011,11.161s4.584-37.269,7.573-46.437,2.99-10.165,2.99-10.165l20.482-7.613s-10.627,36.447-10.373,71.058l19.985-34.746Z" transform="translate(-457.211 -609.591)" fill="#c8e3fa"/>
            <path id="パス_21509" data-name="パス 21509" d="M1500.163,1138.766l-1.993-7.773-1.2-10.164s-5.381,1.794-5.381,3.787-.2,10.962-.2,10.962l-2.391,4.185-7.574-1.993s-5.182-8.57-6.975-9.965a6.667,6.667,0,0,0-4.185-1.2v4.783s-5.182,8.57-5.381,9.567,5.979,9.766,5.979,9.766,13.752,5.182,14.35,5.381,7.972,1.993,7.972,1.993,5.58-1.4,7.374-5.182-.4-14.15-.4-14.15" transform="translate(-1311.606 -1003.552)" fill="#fff"/>
            <path id="パス_21510" data-name="パス 21510" d="M1268.762,232.838c-.094.458-.173.92-.25,1.381-.232,1.375-.424,2.757-.593,4.141q-.335,2.738-.511,5.492c-.141,2.221-.2,4.447-.165,6.672a64.6,64.6,0,0,0,.5,7.2,47.377,47.377,0,0,0,1.523,7.518,31.039,31.039,0,0,0,2.9,6.834q.438.745.93,1.455.118.169.238.336c.077.107.157.211.237.315a1.61,1.61,0,0,0,1.233.619l.069.005c.435.035.87.065,1.305.1l5.282.4,4.21.316.223.017a1.569,1.569,0,0,0,1.11-2.679,1.742,1.742,0,0,0-1.11-.46l-3.763-.283-5.952-.447-1.375-.1,1.355.777a24.748,24.748,0,0,1-2.825-5.037l.158.375a37.467,37.467,0,0,1-2.268-7.865q-.207-1.145-.362-2.3.028.209.056.417a66.422,66.422,0,0,1-.55-9.174c.013-2.682.159-5.363.416-8.032q.17-1.768.406-3.528l-.056.417c.172-1.28.366-2.558.609-3.826.014-.072.027-.144.042-.216a1.673,1.673,0,0,0-.158-1.209,1.57,1.57,0,0,0-2.148-.563,1.56,1.56,0,0,0-.721.938" transform="translate(-1134.636 -207.447)" fill="#060000"/>
            <path id="パス_21511" data-name="パス 21511" d="M1351.515,321.339l-.229.974-.552,2.354-.665,2.836-.577,2.462c-.093.4-.19.793-.279,1.191l0,.017a1.651,1.651,0,0,0,.158,1.209,1.57,1.57,0,0,0,2.869-.375l.229-.974.552-2.354.665-2.836.577-2.462c.093-.4.19-.793.279-1.191l0-.017a1.649,1.649,0,0,0-.158-1.209,1.57,1.57,0,0,0-2.869.375" transform="translate(-1207.992 -286.688)" fill="#060000"/>
            <path id="パス_21512" data-name="パス 21512" d="M1462.622,323.418a1.619,1.619,0,0,0,1.11-.46,1.569,1.569,0,0,0,0-2.22,1.569,1.569,0,0,0-2.219,0,1.57,1.57,0,0,0,0,2.22,1.632,1.632,0,0,0,1.11.46" transform="translate(-1308.176 -286.767)" fill="#060000"/>
            <path id="パス_21513" data-name="パス 21513" d="M1300.794,317.708a1.619,1.619,0,0,0,1.11-.46,1.569,1.569,0,0,0,0-2.22,1.57,1.57,0,0,0-2.22,0,1.57,1.57,0,0,0,0,2.22,1.631,1.631,0,0,0,1.11.46" transform="translate(-1163.281 -281.654)" fill="#060000"/>
            <path id="パス_21514" data-name="パス 21514" d="M1447.66,258.5a6.309,6.309,0,0,0-1.618-1.049,9.067,9.067,0,0,0-1.942-.669,9.682,9.682,0,0,0-2.5-.2,11.524,11.524,0,0,0-3.417.725,1.757,1.757,0,0,0-.938.721,1.569,1.569,0,0,0,.563,2.147,1.538,1.538,0,0,0,1.209.158,10.641,10.641,0,0,1,2.309-.6l-.417.056a8.509,8.509,0,0,1,2.235-.012l-.417-.056a7.548,7.548,0,0,1,1.9.512l-.375-.158a6.127,6.127,0,0,1,1.363.776l-.318-.245c.049.038.1.076.144.118a1.647,1.647,0,0,0,1.11.46,1.6,1.6,0,0,0,1.11-.46,1.569,1.569,0,0,0,0-2.22" transform="translate(-1286.664 -229.719)" fill="#060000"/>
            <path id="パス_21515" data-name="パス 21515" d="M1293.247,250.312a8,8,0,0,0-4.869-1.678,8.9,8.9,0,0,0-2.573.351,1.631,1.631,0,0,0-.938.721,1.57,1.57,0,0,0,.563,2.147,1.622,1.622,0,0,0,1.209.158,7.894,7.894,0,0,1,1.1-.233l-.417.056a7.111,7.111,0,0,1,1.859,0l-.417-.056a6.958,6.958,0,0,1,1.734.473l-.375-.158a5.41,5.41,0,0,1,1.2.672l-.318-.245.016.013a1.745,1.745,0,0,0,1.11.46,1.6,1.6,0,0,0,1.11-.46,1.579,1.579,0,0,0,.459-1.11,1.529,1.529,0,0,0-.459-1.11" transform="translate(-1150.234 -222.617)" fill="#060000"/>
            <path id="パス_21516" data-name="パス 21516" d="M1309.757,116.646c-.591.023-1.181.112-1.766.192a32.641,32.641,0,0,0-3.655.722,40.7,40.7,0,0,0-5.4,1.794,46.88,46.88,0,0,0-6.845,3.459,49.826,49.826,0,0,0-7.323,5.531q-.449.409-.889.828a1.57,1.57,0,0,0,0,2.22,1.58,1.58,0,0,0,1.11.46,1.667,1.667,0,0,0,1.11-.46,49.484,49.484,0,0,1,3.851-3.313l-.318.245a46.939,46.939,0,0,1,4.115-2.844q1.9-1.167,3.908-2.143,1.027-.5,2.078-.942l-.375.158a41.7,41.7,0,0,1,4.545-1.619c1.156-.336,2.327-.621,3.51-.841q.7-.131,1.415-.228l-.417.056c.425-.057.852-.107,1.281-.132l.068,0a1.645,1.645,0,0,0,1.11-.46,1.57,1.57,0,0,0-1.11-2.679" transform="translate(-1149.128 -104.44)" fill="#060000"/>
            <path id="パス_21517" data-name="パス 21517" d="M1558.842,161.5l.727,1.207,1.745,2.9,2.111,3.507,1.825,3.031c.295.49.582.986.885,1.471l.012.02-.214-.792q-.039.977-.078,1.953-.062,1.565-.125,3.13-.014.357-.029.715l.056.417.158.375a1.557,1.557,0,0,0,.751.642,1.5,1.5,0,0,0,.813.107,1.428,1.428,0,0,0,.9-.432,14.116,14.116,0,0,1,1.5-1.608c.256-.238.521-.466.8-.68l-.318.245a6.508,6.508,0,0,1,1.424-.866l-.375.158a3.2,3.2,0,0,1,.8-.225l-.417.056a2.114,2.114,0,0,1,.53,0l-.417-.056a1.775,1.775,0,0,1,.436.119l-.375-.158a1.835,1.835,0,0,1,.389.23l-.318-.245a2.652,2.652,0,0,1,.443.459l-.245-.318a5.3,5.3,0,0,1,.655,1.168l-.158-.375a12.194,12.194,0,0,1,.779,3.07l-.056-.417a16.006,16.006,0,0,1,.039,4.2l.056-.417a7.482,7.482,0,0,1-.474,1.9l.158-.375a3.186,3.186,0,0,1-.4.7l.246-.318a2.615,2.615,0,0,1-.463.443l.318-.245a9.064,9.064,0,0,1-2.009,1.095l.375-.158a32.671,32.671,0,0,1-5.179,1.616c-.141.033-.282.066-.424.1a1.57,1.57,0,0,0-.375,2.869,1.712,1.712,0,0,0,1.209.158c.525-.113,1.047-.246,1.566-.384,1.1-.293,2.2-.623,3.27-1.024a20.618,20.618,0,0,0,1.968-.841,8.494,8.494,0,0,0,1.582-1.026,3.575,3.575,0,0,0,.919-1.169,7.231,7.231,0,0,0,.583-1.631,14.83,14.83,0,0,0,.316-3.794,17.715,17.715,0,0,0-.564-3.948,7.934,7.934,0,0,0-1.624-3.272,3.476,3.476,0,0,0-.791-.647,4.046,4.046,0,0,0-.639-.287,1.687,1.687,0,0,0-.3-.083,3.941,3.941,0,0,0-2.044.136,9.143,9.143,0,0,0-3.1,2.018,15.273,15.273,0,0,0-1.44,1.529l-.071.088,2.679,1.11q.087-2.174.174-4.347l.043-1.069a1.923,1.923,0,0,0-.2-1.174c-.124-.217-.258-.428-.386-.642l-2.336-3.879-2.916-4.844c-.548-.91-1.089-1.824-1.643-2.73l-.024-.04a1.631,1.631,0,0,0-.938-.721,1.6,1.6,0,0,0-1.209.158,1.584,1.584,0,0,0-.721.938,1.622,1.622,0,0,0,.158,1.209" transform="translate(-1395.549 -142.487)" fill="#060000"/>
            <path id="パス_21518" data-name="パス 21518" d="M1300.787,67.72q-.338-4.65-.676-9.3a3.57,3.57,0,0,0-.03-.412c.02.106-.092.526-.014.225.032-.123.057-.249.086-.373q.088-.385.175-.771.387-1.72.749-3.446.823-3.9,1.578-7.807,1.547-7.939,2.938-15.908c.349-1.992.691-3.986,1.013-5.983.194-1.2.409-2.415.528-3.63a2.935,2.935,0,0,0-.459-1.74,16.336,16.336,0,0,0-1.889-2.485c-1.233-1.429-2.55-2.788-3.891-4.115l-.257-.253.4.693a12.235,12.235,0,0,0-1.838-3.323,27.473,27.473,0,0,0-2.934-3.407c-.653-.644-1.334-1.258-2.036-1.846a5.8,5.8,0,0,0-1.486-1.049l-.091-.036a41.719,41.719,0,0,0-4.7-1.477,36.487,36.487,0,0,0-9.1-1.28,25.7,25.7,0,0,0-9.321,2.017,51.242,51.242,0,0,0-9.151,4.662,28.36,28.36,0,0,0-6.677,5.567,5.941,5.941,0,0,0-.439.56,1.7,1.7,0,0,0-.2,1.265l.013.091.072.5.289,2.026,1.465,10.254c.011.078.022.156.033.234a1.566,1.566,0,0,0,.721.938,1.569,1.569,0,0,0,2.147-.563,1.841,1.841,0,0,0,.158-1.209l-.631-4.416-1.011-7.076-.231-1.617q-.079.6-.158,1.209c-.358.464-.031.044.056-.06s.185-.219.28-.327q.3-.34.619-.662c.463-.471.95-.917,1.452-1.346q.4-.346.822-.677l.214-.169c.263-.208-.3.224-.026.02.149-.113.3-.226.448-.337q.937-.694,1.914-1.332a49.286,49.286,0,0,1,4.268-2.5q1.12-.584,2.268-1.111c.381-.175.764-.343,1.149-.51.338-.147-.331.136.009,0l.288-.119q.287-.118.576-.231a36.388,36.388,0,0,1,4.52-1.47c.36-.09.722-.172,1.087-.239q.252-.046.506-.084c.115-.017.354-.024-.093.011.125-.01.249-.031.374-.045a20.762,20.762,0,0,1,2.284-.115c.769,0,1.538.04,2.3.108q.571.05,1.139.121c.094.012.188.027.282.036-.023,0-.4-.057-.137-.018.216.032.432.063.648.1,1.375.219,2.738.513,4.085.864a39.327,39.327,0,0,1,4.643,1.473l-.693-.4a31.887,31.887,0,0,1,4.454,4.235q.189.222.373.449l.15.187.1.122c.13.165-.088-.112-.106-.137.2.274.4.54.595.818.293.426.569.864.818,1.317.155.28.292.567.427.858.086.185-.2-.488-.093-.219l.042.108c.012.032.022.064.034.1a5.891,5.891,0,0,0,1.5,1.791c.862.875,1.712,1.765,2.531,2.681.419.469.831.945,1.224,1.436l.113.143a.754.754,0,0,1,.073.094c.024.045-.249-.328-.157-.2s.167.222.248.334c.131.183.258.37.373.563.048.081.094.162.136.246.018.037.032.078.054.113s-.157-.459-.1-.226c.014.055.027.116.045.169-.2-.565-.031-.453-.048-.292-.015.14-.022.28-.039.42-.013.108-.027.215-.041.323.1-.758.022-.165-.005.025-.049.344-.1.687-.155,1.031-.332,2.144-.7,4.283-1.07,6.42q-.775,4.457-1.6,8.906-.89,4.819-1.838,9.628c-.577,2.919-1.172,5.835-1.816,8.74q-.2.906-.409,1.81a2.877,2.877,0,0,0-.075.927q.1,1.31.191,2.62l.461,6.354.031.421a1.57,1.57,0,0,0,3.139,0" transform="translate(-1121.924 0.004)" fill="#060000"/>
            <path id="パス_21519" data-name="パス 21519" d="M1385.314,627.626q.094.747.187,1.493.222,1.779.445,3.558l.539,4.314.466,3.728q.113.9.226,1.808l0,.026a1.749,1.749,0,0,0,.46,1.11,1.569,1.569,0,0,0,2.22,0,1.506,1.506,0,0,0,.46-1.11l-.187-1.493-.445-3.558q-.27-2.157-.539-4.314-.233-1.864-.466-3.728-.113-.9-.226-1.808l0-.026a1.747,1.747,0,0,0-.46-1.11,1.57,1.57,0,0,0-2.22,0,1.508,1.508,0,0,0-.46,1.11" transform="translate(-1240.358 -560.548)" fill="#060000"/>
            <path id="パス_21520" data-name="パス 21520" d="M1433.435,648.98l1.8-4.115.251-.574-.563.563.7-.3,1.926-.822,2.838-1.212,3.462-1.478,3.807-1.626,3.828-1.634,3.569-1.524,3.017-1.288,2.17-.927c.343-.147.688-.29,1.03-.44l.045-.019-1.9-.245,1.3,1.329,2.081,2.133.477.489a1.57,1.57,0,0,0,2.219,0,1.579,1.579,0,0,0,.46-1.11,1.652,1.652,0,0,0-.46-1.11l-1.3-1.329-2.081-2.133-.477-.489a1.532,1.532,0,0,0-.9-.432.789.789,0,0,0-.417,0,1.168,1.168,0,0,0-.584.186l-.975.417-2.58,1.1-3.732,1.594-4.369,1.866-4.533,1.936-4.213,1.8-3.41,1.456-2.123.906c-.142.061-.286.118-.427.182a1.706,1.706,0,0,0-.806,1.054l-1.711,3.908-.134.3a1.169,1.169,0,0,0-.186.583,1.192,1.192,0,0,0,.028.626,1.6,1.6,0,0,0,.721.938,1.584,1.584,0,0,0,1.21.158,1.517,1.517,0,0,0,.938-.721" transform="translate(-1280.83 -564.67)" fill="#060000"/>
            <path id="パス_21521" data-name="パス 21521" d="M1312.21,793.922l-1.481-1.135-3.378-2.589-3.62-2.775-2.258-1.731c-.052-.04-.1-.083-.157-.12a1.817,1.817,0,0,0-.907-.23l-1.33-.126-4.48-.423-1.487-.14a1.567,1.567,0,0,0-.992.2,2.7,2.7,0,0,0-.716.765l-2.475,3.268-.905,1.2a1.5,1.5,0,0,0-.2,1.323c.059.173.125.343.187.514l1.408,3.872.111.306v-.834q-.39,1.141-.775,2.284-.975,2.889-1.934,5.783-1.266,3.823-2.5,7.656c-.849,2.645-1.684,5.295-2.488,7.954-.668,2.21-1.323,4.426-1.9,6.662q-.084.327-.165.655a1.643,1.643,0,0,0,.158,1.209,1.57,1.57,0,0,0,2.869-.375c.3-1.216.632-2.423.975-3.627.42-1.474.858-2.943,1.3-4.409q.738-2.42,1.5-4.832.78-2.463,1.579-4.92.748-2.3,1.508-4.6.653-1.975,1.313-3.947.492-1.468.988-2.934.264-.782.531-1.563a1.6,1.6,0,0,0,.049-1.013c-.11-.36-.259-.713-.388-1.067l-1.24-3.411-.088-.24-.158,1.209,3.136-4.14.451-.6-1.355.777,2.577.243,4.085.385.943.089-.792-.214,3.684,2.823,5.871,4.5,1.346,1.032a1.573,1.573,0,0,0,1.209.158,1.6,1.6,0,0,0,.938-.721,1.583,1.583,0,0,0,.158-1.209l-.158-.375a1.578,1.578,0,0,0-.563-.563" transform="translate(-1145.823 -702.543)" fill="#060000"/>
            <path id="パス_21522" data-name="パス 21522" d="M1472.623,708.542l-1.682,5.844-2.679,9.307-.612,2.125,1.513-1.152-3.624.177-5.778.282-1.33.065a1.606,1.606,0,0,0-1.355.777,1.655,1.655,0,0,0,0,1.584l1.234,2.908,1.979,4.664.452,1.066.245-1.9-.747.728L1458.206,737l-3.024,2.948-3.673,3.581-4.022,3.922-4.061,3.959-3.787,3.692-3.215,3.134-2.3,2.242c-.363.354-.732.7-1.09,1.062l-.047.046a1.57,1.57,0,0,0,2.22,2.22l.747-.728,2.033-1.982,3.024-2.948,3.673-3.581,4.022-3.922,4.061-3.959,3.787-3.692,3.215-3.134,2.3-2.242c.363-.354.735-.7,1.09-1.062l.047-.046a1.528,1.528,0,0,0,.432-.9,1.752,1.752,0,0,0-.186-1l-1.234-2.908-1.979-4.664-.452-1.065-1.355,2.362,3.624-.177,5.778-.282,1.33-.065a1.617,1.617,0,0,0,1.513-1.152l1.682-5.844,2.679-9.307.612-2.125a1.57,1.57,0,1,0-3.027-.834" transform="translate(-1282.644 -633.384)" fill="#060000"/>
            <path id="パス_21523" data-name="パス 21523" d="M1237.171,848.575c-.1.622-.192,1.246-.28,1.87q-.387,2.755-.687,5.521-.417,3.835-.684,7.685-.332,4.777-.432,9.566c-.072,3.6-.038,7.2.126,10.8q.031.682.068,1.363a1.655,1.655,0,0,0,.46,1.11,1.569,1.569,0,0,0,2.219,0,1.568,1.568,0,0,0,.46-1.11q-.229-4.188-.229-8.385-.006-3.917.16-7.832.144-3.475.412-6.943.223-2.906.531-5.8.23-2.159.511-4.313l.057-.426-.056.417c.114-.849.233-1.7.369-2.543q.011-.069.022-.138a1.7,1.7,0,0,0-.158-1.209,1.569,1.569,0,0,0-2.147-.563,1.528,1.528,0,0,0-.721.938" transform="translate(-1105.825 -758.758)" fill="#060000"/>
            <path id="パス_21524" data-name="パス 21524" d="M588.584,718.564l-11.142,4.428-6.9,2.743-1.78.708a2.5,2.5,0,0,0-.907.489,1.916,1.916,0,0,0-.467.924c-1.531,5.632-2.889,11.316-4.127,17.019-.973,4.482-1.86,8.985-2.591,13.513-.779,4.828-1.328,9.692-1.9,14.548-.34,2.913-.67,5.828-.957,8.748-.1.984-.23,1.981-.263,2.97,0,.034,0,.068-.007.1l1.569-1.57-5.969-.746c-.866-.108-1.731-.219-2.6-.325-.306-.037.553.1.287.034-.089-.023-.179-.04-.269-.059l-8.517-1.882-15.124-3.341-14.737-3.256c-2.542-.562-5.08-1.157-7.629-1.686l-.11-.024a1.585,1.585,0,0,0-1.987,1.513,37.433,37.433,0,0,1,.032,4.793q-.054,1.2-.163,2.406-.055.6-.125,1.205c-.025.218-.053.436-.08.654-.051.413.051-.348-.009.067-.018.123-.035.245-.053.368a43.3,43.3,0,0,1-1.262,5.849,28.336,28.336,0,0,1-2.717,6.546,1.589,1.589,0,0,0,.938,2.306q3.037.882,6.082,1.736,7.2,2.032,14.419,3.978c5.761,1.549,11.534,3.056,17.333,4.46,4.807,1.163,9.637,2.308,14.521,3.1a33.333,33.333,0,0,0,4.9.552,1.631,1.631,0,0,0,.373,0c-.264.064-.534-.1-.236-.009a7.254,7.254,0,0,0,1.073.226,15.721,15.721,0,0,0,5.394-.171,18.851,18.851,0,0,0,3.468-1.058,1.611,1.611,0,0,0,1.1-1.931,1.586,1.586,0,0,0-1.931-1.1,18.925,18.925,0,0,1-3.469,1.058c-.263.052-.528.094-.793.136.4-.062-.211.022-.325.033-.441.042-.883.064-1.326.064-.339,0-.679-.013-1.017-.041a4.507,4.507,0,0,0-.47-.049c.544-.014.122.017-.051-.014-.306-.053-.6-.136-.9-.211a11.621,11.621,0,0,0-1.881-.124c-.361-.027-.721-.064-1.08-.105-.19-.022-.38-.046-.57-.07-.433-.055.388.055.038.005l-.336-.048c-4.687-.679-9.322-1.771-13.926-2.865-5.73-1.362-11.433-2.837-17.124-4.355q-7.524-2.008-15.02-4.12-2.484-.7-4.964-1.407c-.779-.223-1.556-.479-2.343-.674-.034-.008-.068-.02-.1-.03l.938,2.306a37.5,37.5,0,0,0,4.179-12.4,52.016,52.016,0,0,0,.7-9.349c-.011-.575-.026-1.152-.074-1.725l-1.987,1.513,6.312,1.394,14.328,3.166,15.436,3.41,9.635,2.129c.733.162,1.463.257,2.21.35l7,.875.576.072c.876.11,1.525-.81,1.57-1.57.062-1.064.176-2.126.281-3.186.406-4.108.888-8.209,1.382-12.307q.3-2.487.611-4.973.035-.276.07-.552c.01-.073.067-.509.045-.346-.025.186.006-.047.009-.07q.019-.14.038-.279.038-.28.078-.56.155-1.1.326-2.19c.453-2.915.976-5.819,1.545-8.714,1.01-5.143,2.161-10.258,3.408-15.348q.636-2.6,1.308-5.181c.215-.826.467-1.648.659-2.479.008-.037.02-.072.03-.109l-1.1,1.1,6.783-2.7,10.8-4.291,2.459-.977a1.609,1.609,0,0,0,1.1-1.931,1.586,1.586,0,0,0-1.931-1.1" transform="translate(-445.787 -643.303)" fill="#060000"/>
            <path id="パス_21525" data-name="パス 21525" d="M1115.9,1041.019q.238-3.741.476-7.482.318-4.99.635-9.981c.068-1.078.048-2.158.06-3.239.023-2.1.069-4.206.125-6.308.13-4.88.315-9.757.521-14.634q.314-7.431.693-14.86.3-5.92.624-11.839c.1-1.876.267-3.759.318-5.638.04-1.469-.134-2.97-.181-4.439-.154-4.768-.176-9.541-.1-14.311q.172-10.532,1.053-21.037.245-2.869.549-5.732a1.579,1.579,0,0,0-1.569-1.57,1.605,1.605,0,0,0-1.57,1.57c-.782,7.362-1.265,14.754-1.494,22.154q-.25,8.125-.083,16.256c.05,2.314.227,4.63.257,6.943.016,1.229-.137,2.481-.206,3.707q-.3,5.3-.571,10.6-.372,7.2-.7,14.408-.336,7.516-.587,15.037-.107,3.38-.178,6.76c-.036,1.825,0,3.656-.062,5.479-.087,2.59-.33,5.184-.495,7.769l-.624,9.806q-.018.29-.037.579a1.569,1.569,0,1,0,3.139,0" transform="translate(-996.328 -823.693)" fill="#060000"/>
            <path id="パス_21526" data-name="パス 21526" d="M1403.012,822.152l-2.329,2.282-3.765,3.688c-.3.3-.611.59-.91.891l-.023.022,0,0a1.1,1.1,0,0,0-.325.505c-.13.307-.078.14-.135.6,0,.009,0,.018,0,.027l-.022.187q-.137,1.142-.274,2.283-.25,2.08-.5,4.16l-.634,5.282-.674,5.616q-.31,2.578-.619,5.156l-.473,3.942-.235,1.958c0,.029-.007.057-.01.086a1.565,1.565,0,0,0,.46,1.11,1.57,1.57,0,0,0,2.22,0l.246-.318a1.564,1.564,0,0,0,.214-.792l.092-.767.25-2.088.371-3.088q.226-1.884.452-3.768l.5-4.127.5-4.166.466-3.885q.2-1.642.394-3.283l.283-2.361c.045-.373.093-.745.134-1.118,0-.016,0-.032.006-.048l-.46,1.11,2.378-2.329,3.788-3.71.866-.848a1.613,1.613,0,0,0,.46-1.11,1.57,1.57,0,0,0-2.68-1.11" transform="translate(-1246.414 -735.726)" fill="#060000"/>
            <path id="パス_21527" data-name="パス 21527" d="M1358.8,479.346l1.314.014,3.155.033,3.816.041,3.3.035c.534.006,1.067.019,1.6.017H1372l-1.513-1.987-.019.046.158-.375c-.189.447-.395.887-.609,1.322a26.769,26.769,0,0,1-1.309,2.372c-.3.485-.625.958-.974,1.411l.245-.318a8.691,8.691,0,0,1-1.523,1.581l.317-.245a4.071,4.071,0,0,1-.865.52l.375-.158a2.589,2.589,0,0,1-.658.185l.417-.056a2,2,0,0,1-.507,0l.417.056a2.676,2.676,0,0,1-.663-.187l.375.158a4.818,4.818,0,0,1-1.042-.63l.318.245a12.654,12.654,0,0,1-2.2-2.305l.246.318a29.1,29.1,0,0,1-1.665-2.418q-.526-.846-1.005-1.72c-.057-.1-.115-.21-.169-.316a1.57,1.57,0,0,0-2.869.375,1.709,1.709,0,0,0,.158,1.209c.432.834.92,1.643,1.426,2.434.531.83,1.1,1.627,1.711,2.4a13.99,13.99,0,0,0,1.739,1.9,6.5,6.5,0,0,0,2.482,1.49,3.958,3.958,0,0,0,3-.424,6.777,6.777,0,0,0,1.231-.911,8.877,8.877,0,0,0,.884-.93,19.464,19.464,0,0,0,1.773-2.525,27.368,27.368,0,0,0,1.649-3.25c.06-.141.12-.283.179-.425a1.581,1.581,0,0,0,0-.834,1.184,1.184,0,0,0-.281-.534,1.545,1.545,0,0,0-1.233-.619l-1.313-.014-3.155-.034-3.816-.041-3.3-.035c-.534-.006-1.067-.018-1.6-.017h-.022a1.613,1.613,0,0,0-1.11.46,1.57,1.57,0,0,0,0,2.22,1.644,1.644,0,0,0,1.11.46" transform="translate(-1215.215 -426.38)" fill="#060000"/>
            <path id="パス_21528" data-name="パス 21528" d="M1299.417,746.779a109.839,109.839,0,0,0,10.121,12.518,69.844,69.844,0,0,0,9.893,8.981,25.332,25.332,0,0,0,11.721,5.051,20.543,20.543,0,0,0,12.5-2.366,14.982,14.982,0,0,0,7.682-10.239,268.565,268.565,0,0,0,3.477-34.91,246.052,246.052,0,0,0-.441-25.57c-.333-4.7-.816-9.4-1.5-14.061q-.092-.628-.188-1.255c-.008-.053-.014-.106-.023-.159a3.775,3.775,0,1,1-.1-.37,6.235,6.235,0,0,0-1.4-2.074,31.37,31.37,0,0,0-3.968-3.423,18.925,18.925,0,0,0-2.259-1.656,9.937,9.937,0,0,0-.918-.388l-2.373-1-7.622-3.222-15.733-6.651c-3.4-1.438-6.615-3.263-9.885-4.98l-1.9-1a1.619,1.619,0,0,0-2.147.563l-2.476,3.438q-3.052,4.239-6.1,8.48-3.856,5.362-7.708,10.727-3.7,5.157-7.4,10.319c-1.69,2.363-3.381,4.725-5.052,7.1a34.889,34.889,0,0,0-1.921,3.034c-1.521,2.71-3.016,5.435-4.515,8.158q-3.167,5.756-6.322,11.518-2.977,5.433-5.948,10.869-1.654,3.024-3.306,6.049l-.158.29,2.925.792q.348-3.491.7-6.981.8-7.926,1.6-15.852.87-8.542,1.764-17.081c.56-5.307,1.041-10.6,2.067-15.822a109.079,109.079,0,0,1,5.068-17.935c.037-.1.074-.194.113-.29l-.4.693,2.583-3.013a1.61,1.61,0,0,0,0-2.22,1.583,1.583,0,0,0-2.219,0l-2.054,2.4a4.83,4.83,0,0,0-.932,1.31c-.05.124-.1.249-.145.375-.9,2.362-1.68,4.772-2.4,7.195a112.826,112.826,0,0,0-3.134,13.383c-.487,2.9-.808,5.814-1.126,8.733-.619,5.679-1.2,11.363-1.786,17.046q-.932,9.092-1.845,18.186-.329,3.271-.656,6.542c-.106,1.06-.264,2.128-.319,3.192,0,.047-.01.1-.014.143-.157,1.58,2.214,2.094,2.925.792l2.337-4.276q2.756-5.042,5.516-10.083,3.211-5.865,6.43-11.725,2.574-4.684,5.164-9.36c.66-1.187,1.285-2.4,2.059-3.522,1.379-1.993,2.8-3.96,4.2-5.933q3.5-4.9,7.014-9.8,3.9-5.436,7.806-10.868,3.339-4.644,6.68-9.287l3.53-4.9.165-.229-2.147.563,6.014,3.157c1.319.692,2.623,1.489,4,2.07L1327.6,673.3l14.584,6.166c.372.157.775.289,1.133.479a13.393,13.393,0,0,1,1.635,1.173q.2.15.4.3c.081.061.535.417.194.147.36.284.721.567,1.075.858.648.533,1.285,1.084,1.883,1.674.239.236.473.478.692.733.059.069.115.141.175.21.2.229-.149-.256-.063-.081a4.581,4.581,0,0,0,.269.413c.023.036.037.084.062.119.154.212-.143-.388-.065-.15.107.325.005-.1-.005-.191.021.187.049.374.076.56.056.385.116.769.172,1.154q.068.458.133.917.035.245.069.49l.043.315c.058.426-.05-.379,0-.029q.439,3.328.755,6.67c.7,7.387,1.007,14.812,1,22.231a263.4,263.4,0,0,1-1.974,31.8c-.366,2.982-.785,5.945-1.258,8.92a19.559,19.559,0,0,1-.859,3.941c-.159.419.137-.28-.053.124-.038.081-.074.164-.113.245q-.172.363-.365.716a13.25,13.25,0,0,1-.772,1.238c-.056.079-.439.577-.229.317-.166.205-.334.408-.51.605a14.254,14.254,0,0,1-1.02,1.032q-.244.223-.5.435c-.1.085-.205.168-.308.251.28-.225-.066.049-.1.077q-.591.436-1.221.815t-1.3.708c-.2.1-.409.191-.615.286-.4.183.184-.073-.063.028q-.222.09-.444.175a18.737,18.737,0,0,1-2.913.839q-.342.069-.685.126c-.138.023-.276.044-.415.064.371-.055-.091.01-.139.016q-.77.088-1.545.116a20.715,20.715,0,0,1-3.121-.134c-.47-.054.317.058-.15-.022l-.283-.045q-.425-.071-.846-.161-.776-.166-1.536-.4t-1.507-.526c-.09-.036-.18-.072-.27-.11.295.124-.105-.049-.143-.067q-.35-.157-.693-.327a33.27,33.27,0,0,1-5.08-3.155c-.192-.142-.381-.285-.571-.429a1.051,1.051,0,0,1-.137-.106l-.34-.269q-.626-.5-1.238-1.016-1.237-1.045-2.42-2.152a97.7,97.7,0,0,1-8.418-9.017q-.836-1.006-1.65-2.028-.371-.466-.738-.935l-.315-.4c-.219-.281.216.283,0,0l-.176-.229q-1.006-1.313-1.975-2.654c-.231-.321-.462-.642-.685-.968a1.61,1.61,0,0,0-2.148-.563,1.584,1.584,0,0,0-.563,2.147" transform="translate(-1122.104 -590.767)" fill="#060000"/>
            <path id="パス_21529" data-name="パス 21529" d="M1819.643,1295.033c-.946-.709-1.926-1.371-2.919-2.012-1.16-.748-2.339-1.466-3.529-2.166q-1.953-1.15-3.939-2.244-2.067-1.144-4.156-2.247-2.057-1.088-4.129-2.147-1.957-1-3.924-1.981-1.734-.865-3.476-1.714-1.421-.693-2.846-1.376-.99-.474-1.982-.943c-.307-.145-.613-.29-.92-.432l-.04-.019a1.694,1.694,0,0,0-1.21-.158,1.6,1.6,0,0,0-.938.721,1.584,1.584,0,0,0-.158,1.21,1.537,1.537,0,0,0,.721.938l.631.3q.873.411,1.744.827,1.325.633,2.645,1.274,1.68.816,3.353,1.645,1.916.949,3.822,1.917,2.062,1.048,4.112,2.121,2.087,1.095,4.156,2.223,2.025,1.107,4.024,2.259c1.228.711,2.446,1.438,3.647,2.193,1.044.656,2.076,1.332,3.078,2.051q.326.234.648.475a1.577,1.577,0,0,0,1.209.158,1.571,1.571,0,0,0,1.1-1.931l-.158-.375a1.573,1.573,0,0,0-.563-.563" transform="translate(-1598.603 -1143.868)" fill="#060000"/>
            <path id="パス_21530" data-name="パス 21530" d="M1891.2,1070.051l.087.752.236,2.045.349,3.025.426,3.69.465,4.027q.236,2.039.471,4.079l.439,3.8q.185,1.6.37,3.2l.268,2.319q.063.545.126,1.09l.006.047a1.744,1.744,0,0,0,.46,1.11,1.569,1.569,0,0,0,2.22,0,1.516,1.516,0,0,0,.46-1.11l-.087-.751-.236-2.045q-.174-1.512-.349-3.024l-.426-3.69q-.233-2.014-.465-4.027l-.471-4.079q-.219-1.9-.439-3.8-.185-1.6-.37-3.2l-.268-2.319q-.063-.545-.126-1.09c0-.016,0-.032-.006-.047a1.745,1.745,0,0,0-.46-1.11,1.569,1.569,0,0,0-2.22,0,1.514,1.514,0,0,0-.46,1.11" transform="translate(-1693.316 -956.681)" fill="#060000"/>
            <path id="パス_21531" data-name="パス 21531" d="M1485.771,1130.73a55.8,55.8,0,0,1-1.841-6.271c-.131-.556-.229-1.116-.306-1.681q.028.209.056.417c-.309-2.306-.353-4.639-.654-6.945a16.045,16.045,0,0,0-.281-1.706,4.133,4.133,0,0,0-.461-1.2,2.067,2.067,0,0,0-1.732-1.052,4.3,4.3,0,0,0-1.283.278c-2.29.748-4.788,2.17-5.578,4.595a7.582,7.582,0,0,0,0,3.26c.151,1.278.322,2.553.494,3.828q.344,2.537.717,5.069l.012.084.4-1.527-2.6,3.308-.371.472,1.527-.4-2.374-.73-3.781-1.164-.865-.266.938.721c-.646-1.195-1.342-2.365-2.056-3.519a42.425,42.425,0,0,0-4.509-6.249,11.8,11.8,0,0,0-1.23-1.2,9.214,9.214,0,0,0-.889-.664,6.252,6.252,0,0,0-.961-.463l.375.158a6.421,6.421,0,0,1-1.365-.766l.318.245a3.245,3.245,0,0,1-.574-.562l.245.318c-.109-.142-.194-.3-.293-.447a1.779,1.779,0,0,0-1.949-.825,2.917,2.917,0,0,0-1.091.659,4.77,4.77,0,0,0-.942.979,4.358,4.358,0,0,0-.582,1.275,8.08,8.08,0,0,0-.261,1.469,11.256,11.256,0,0,0,0,2.189c.046.53.108,1.063.206,1.587l.158-1.209c-.4.565-.778,1.142-1.154,1.722-.785,1.213-1.539,2.449-2.218,3.725-.4.749-.756,1.514-1.083,2.3a7.78,7.78,0,0,0-.531,1.686,4.263,4.263,0,0,0-.093,1.042,5.143,5.143,0,0,0,.182,1.022,12.064,12.064,0,0,0,.838,2,30.6,30.6,0,0,0,2.6,4.149,31.55,31.55,0,0,0,3.409,4.07,11.446,11.446,0,0,0,1.708,1.4,6.905,6.905,0,0,0,.968.5c1.13.5,2.292.928,3.461,1.332,1.378.476,2.768.919,4.161,1.349q2.206.681,4.427,1.313c1.274.364,2.552.718,3.834,1.052.811.211,1.625.43,2.45.586a3.93,3.93,0,0,0,1.243.076,13.023,13.023,0,0,0,1.792-.328,14.093,14.093,0,0,0,2.284-.846,12.151,12.151,0,0,0,2.4-1.507,10.876,10.876,0,0,0,2.165-2.329,11.412,11.412,0,0,0,1.555-3.282,15.3,15.3,0,0,0,.593-4.412,24.883,24.883,0,0,0-.73-5.629c-.244-1.033-.542-2.052-.877-3.059a1.661,1.661,0,0,0-.721-.938,1.6,1.6,0,0,0-1.209-.158,1.571,1.571,0,0,0-1.1,1.931,31.307,31.307,0,0,1,1.362,5.641q-.028-.209-.056-.417a17.844,17.844,0,0,1,.057,4.728l.056-.417a11.805,11.805,0,0,1-.792,2.977l.158-.375a9.768,9.768,0,0,1-1.261,2.169l.245-.318a9.628,9.628,0,0,1-1.714,1.706l.318-.245a10.808,10.808,0,0,1-2.39,1.383l.375-.158a11.634,11.634,0,0,1-2.364.715q-.233.044-.469.076l.417-.056a2.554,2.554,0,0,1-.666.034l.417.056a18.472,18.472,0,0,1-2.021-.453c-1.192-.3-2.379-.626-3.563-.958q-2.161-.606-4.309-1.256c-1.425-.431-2.847-.876-4.259-1.347-1.147-.383-2.293-.777-3.414-1.231l-.331-.136.375.158a7.449,7.449,0,0,1-1.672-.919l.318.245a20.3,20.3,0,0,1-3.488-3.731l.245.318a33.423,33.423,0,0,1-3.116-4.746c-.2-.379-.389-.764-.556-1.158l.158.375a5.181,5.181,0,0,1-.4-1.293l.056.417a2.3,2.3,0,0,1,.009-.579l-.056.417a7.544,7.544,0,0,1,.585-1.9l-.158.375a32.808,32.808,0,0,1,2.333-4.337q.882-1.431,1.837-2.816c.026-.037.052-.073.077-.111a1.675,1.675,0,0,0,.172-1.234c-.025-.154-.05-.307-.071-.462l.056.417a11.708,11.708,0,0,1-.054-3.1q-.028.208-.056.417a4.937,4.937,0,0,1,.32-1.238l-.158.375a2.735,2.735,0,0,1,.335-.581l-.245.318a4.17,4.17,0,0,1,.731-.661l-.318.245a1.277,1.277,0,0,1,.26-.171l-.375.158a.3.3,0,0,1,.061-.018l-.417.056a.161.161,0,0,1,.035,0l-.417-.056a.152.152,0,0,1,.031.008l-.375-.158a.187.187,0,0,1,.029.016l-.318-.245a.309.309,0,0,1,.054.057l-.245-.318c.07.094.123.2.188.3a4.786,4.786,0,0,0,.6.755,7.463,7.463,0,0,0,2.486,1.5l-.375-.158a4.291,4.291,0,0,1,.906.556l-.318-.245a15.342,15.342,0,0,1,2.612,2.791l-.245-.318c1.015,1.315,1.94,2.7,2.821,4.106q.988,1.578,1.9,3.2c.122.217.237.44.364.655a1.722,1.722,0,0,0,.995.758c.123.039.247.076.371.114l3.6,1.108c.984.3,1.966.618,2.954.909l.051.016a1.53,1.53,0,0,0,1.527-.4l2.544-3.237.408-.52.018-.023a2.106,2.106,0,0,0,.4-.693,1.579,1.579,0,0,0,0-.835v-.008l-.019-.129q-.134-.91-.264-1.821-.252-1.766-.491-3.534l.056.417c-.194-1.446-.386-2.893-.534-4.344a4.644,4.644,0,0,1-.028-1.064q-.028.209-.056.417a3.053,3.053,0,0,1,.2-.738l-.158.375a3.722,3.722,0,0,1,.467-.793l-.246.318a5.538,5.538,0,0,1,1-.975l-.318.245a9.494,9.494,0,0,1,2.062-1.172l-.375.158a7.173,7.173,0,0,1,1.685-.546l-.417.056a.368.368,0,0,1,.087,0l-.417-.056a.379.379,0,0,1,.082.022l-.375-.158a.456.456,0,0,1,.089.052l-.318-.245a.682.682,0,0,1,.112.115l-.246-.318a1.451,1.451,0,0,1,.172.31l-.158-.375a7.245,7.245,0,0,1,.4,1.813c-.019-.139-.038-.278-.056-.417.267,2.009.336,4.039.549,6.053a25.479,25.479,0,0,0,.526,3.272c.328,1.369.708,2.726,1.128,4.07.209.668.424,1.336.664,1.995a1.684,1.684,0,0,0,.721.938,1.6,1.6,0,0,0,1.209.158,1.587,1.587,0,0,0,.938-.721,1.549,1.549,0,0,0,.158-1.209" transform="translate(-1295.87 -995.908)" fill="#060000"/>
            <path id="パス_21532" data-name="パス 21532" d="M1889.257,1695.053q-.082,1.065-.164,2.13-.189,2.46-.379,4.921-.212,2.754-.424,5.509-.15,1.946-.3,3.894c-.017.216-.046.436-.05.653a4.9,4.9,0,0,0,.121.807q.26,1.535.519,3.069l.844,4.99.933,5.513.795,4.7.42,2.483.019.113a1.573,1.573,0,0,0,.721.938,1.569,1.569,0,0,0,2.147-.563,1.79,1.79,0,0,0,.158-1.21l-.359-2.124q-.428-2.53-.856-5.061l-1.042-6.156-.9-5.29c-.146-.862-.288-1.725-.438-2.586,0-.012,0-.024-.006-.035q.028.209.056.417.066-.851.131-1.7.157-2.043.314-4.087.19-2.472.38-4.944.164-2.136.329-4.273c.053-.691.124-1.383.16-2.075,0-.009,0-.019,0-.029a1.58,1.58,0,0,0-.459-1.11,1.57,1.57,0,0,0-2.22,0,1.746,1.746,0,0,0-.459,1.11" transform="translate(-1690.399 -1516.286)" fill="#060000"/>
            <path id="パス_21533" data-name="パス 21533" d="M58.316,1145.5l-3.392-.934.693.4-1.466-1.634a4.825,4.825,0,0,0-.725-.7c-.122-.091-.245-.18-.369-.269a42.656,42.656,0,0,0-5.026-3.193,17.469,17.469,0,0,0-1.876-.854,7.036,7.036,0,0,0-1.638-.378l.417.056c-1.764-.241-3.513-.664-5.243-1.076-2.233-.532-4.466-1.109-6.638-1.856-.427-.147-.851-.3-1.268-.472l-.065-.027c-.19-.077.284.124.248.105s-.082-.035-.122-.053q-.135-.06-.269-.122c-.147-.069-.292-.142-.433-.221-.117-.066-.227-.139-.339-.212-.173-.114.252.2.234.182-.149-.115-.293-.237-.449-.342a2.288,2.288,0,0,0-.338-.187,2.921,2.921,0,0,0-2.651.016c-1.513.8-1.845,2.724-1.5,4.249a8.045,8.045,0,0,0,3.048,4.259,17.774,17.774,0,0,0,3.691,2.278,18.267,18.267,0,0,0,2.442.956l.107.032.417-3.083-5.886-.1-9.321-.16-2.157-.037.417.056c-1.34-.451-2.7-.841-4.071-1.2-1.175-.3-2.359-.577-3.556-.781a17.432,17.432,0,0,0-3.61-.337,3.834,3.834,0,0,0-3.359,1.545l.563-.563c-.777.561-1.534,1.155-2.264,1.775a15.346,15.346,0,0,0-1.4,1.31,4.369,4.369,0,0,0-1.095,1.728A1.94,1.94,0,0,0,.6,1147.6a5.668,5.668,0,0,0,.812.592c.667.423,1.365.8,2.061,1.173,2.243,1.205,4.53,2.331,6.828,3.427,2.664,1.271,5.351,2.492,8.076,3.625,1.069.444,2.145.875,3.238,1.258a13.4,13.4,0,0,0,2.226.635c2.089.344,4.164.762,6.238,1.188q4.229.868,8.448,1.787,2.912.629,5.821,1.27c1.064.234,2.15.364,3.226.53l6.634,1.021.442.068a1.716,1.716,0,0,0,1.209-.158,1.57,1.57,0,0,0,.563-2.147,1.516,1.516,0,0,0-.938-.721l-4.429-.682-5.255-.808c-.826-.127-1.646-.355-2.462-.534q-3.3-.721-6.6-1.427c-2.488-.532-4.978-1.057-7.473-1.559-.995-.2-1.991-.4-2.989-.58-.644-.118-1.3-.2-1.941-.339a30.983,30.983,0,0,1-5.025-1.785l-.361-.151-.209-.088.217.092-.132-.056q-.417-.177-.833-.357-.863-.374-1.722-.759-1.778-.8-3.539-1.629c-2.167-1.022-4.32-2.076-6.447-3.18a31.645,31.645,0,0,1-3.681-2.085c-.16-.113.4.339.23.177a.691.691,0,0,0-.063-.056c-.166-.124.2.266.2.265-.09-.146.148.486.107.241l.056.417a.538.538,0,0,1,0-.115l-.056.417c.007-.044.022-.084.03-.127.045-.233-.2.4-.1.235.061-.1.117-.21.187-.31.016-.022.033-.044.048-.066.1-.154-.195.239-.168.216a1.362,1.362,0,0,0,.129-.156c.1-.118.206-.233.313-.345a18,18,0,0,1,1.515-1.377q.376-.312.761-.612l.143-.111c-.435.34-.309.238-.216.167l.081-.062.27-.2.309-.229a2.249,2.249,0,0,0,.594-.592c.021-.03.044-.063.063-.095-.258.451-.269.322-.144.2.192-.185-.137.13-.2.142.035-.007.1-.066.127-.085s.086-.045.128-.068c.249-.138-.429.157-.19.081a4.227,4.227,0,0,1,.721-.167l-.417.056a11.015,11.015,0,0,1,2.839.1l-.417-.056a45.335,45.335,0,0,1,6.856,1.589c.545.163,1.083.355,1.63.511a4.321,4.321,0,0,0,1.094.082l5.417.093,7.153.123c1.367.023,2.736.073,4.1.07h.061a1.572,1.572,0,0,0,.417-3.083c-.211-.059-.419-.13-.626-.2q-.358-.126-.71-.267l-.2-.082c-.216-.087.423.181.108.045q-.229-.1-.456-.2a17.55,17.55,0,0,1-2.086-1.137q-.272-.174-.536-.359-.118-.083-.234-.167l-.133-.1c-.253-.185.3.24.054.042a13.168,13.168,0,0,1-1.016-.9c-.195-.193-.384-.393-.56-.6a1.1,1.1,0,0,1-.136-.167q.191.249.089.11c-.03-.041-.059-.083-.088-.124q-.11-.161-.209-.33c-.077-.132-.146-.268-.214-.406-.057-.116-.027-.2.054.135-.016-.066-.051-.132-.073-.2a4.022,4.022,0,0,1-.175-.715l.056.417a3.251,3.251,0,0,1-.008-.811l-.056.417c.024-.164.124-.36.129-.519,0,0-.186.385-.093.222.022-.039.04-.08.062-.119.093-.163.258-.242-.085.084.047-.045.089-.1.135-.143.21-.214-.32.194-.11.088a.367.367,0,0,0,.1-.056s-.411.145-.247.105c.076-.019.148-.042.226-.054l-.417.056a1.409,1.409,0,0,1,.337,0l-.417-.056a1.656,1.656,0,0,1,.176.037c.034.009.068.026.1.032.107.019-.25-.109-.246-.106a1.382,1.382,0,0,0,.208.113.669.669,0,0,0,.078.052c.15.065-.283-.214-.167-.133.221.154.415.328.647.464a11.286,11.286,0,0,0,1.4.649,32.564,32.564,0,0,0,3.16,1.081c2.465.734,4.971,1.347,7.488,1.876,1.038.218,2.076.411,3.128.549l-.417-.056a4.434,4.434,0,0,1,.76.189c.14.047.279.1.416.153s.4.178-.119-.052c.088.039.176.077.264.116a21.622,21.622,0,0,1,1.936,1.021c1.179.689,2.321,1.443,3.438,2.227q.422.3.838.6c.255.185-.381-.359-.211-.152.13.159.275.307.412.459l1.186,1.323a2.086,2.086,0,0,0,.55.5,3.014,3.014,0,0,0,.636.23l3.131.862a1.57,1.57,0,1,0,.834-3.027" transform="translate(0 -1014.816)" fill="#060000"/>
          </g>
        </g>
        <g id="グループ_2562" data-name="グループ 2562" transform="translate(0 7.87)">
          <g id="グループ_2561" data-name="グループ 2561" transform="translate(0 0)" clip-path="url(#clip-path-4)">
            <path id="パス_21135" data-name="パス 21135" d="M34.41,743.056l-11.269,9.55s-6.457,1.987-6.209,14.4,8.692,45.2,8.692,45.2,9.686,38.495,9.686,63.33H98.64l-1.987-46.194s11.673-1.738,12.169-10.183-3.725-16.391-3.725-16.391l-5.215-46.69-12.418,1.242s-5.96-5.712-6.457-7.2-7.7-7.451-7.7-7.451l-5.2-3.378-18.391,5.117s-14.808-1.354-15.305-1.354" transform="translate(-15.234 -665.427)" fill="#ffec00"/>
            <path id="パス_21136" data-name="パス 21136" d="M226.4,182.192l-6.358,15.769,3.052,1.526s6.867,8.648,1.272,12.717-17.041.254-21.364-1.526-11.083-6.941-11.083-6.941L196.134,200l.509-6.358s5.6,1.017,13.989-2.8,9.665-8.9,9.665-8.9-10.937-10.428-10.428-14.5-.254-3.052,1.272-5.341a48.756,48.756,0,0,0,6.1-11.7,43.048,43.048,0,0,0,1.664-10.293l13.6,2.663,2.289,7.884,7.121,7.63-2.8,3.052-.254,17.8Z" transform="translate(-172.742 -126.108)" fill="#fff"/>
            <path id="パス_21137" data-name="パス 21137" d="M589.874,555.266l12.418-1.242-1.613-18.673s-3.5-2.186-4.372-2.842-2.841-2.623-2.841-2.623l-3.716-.219L586.034,514.8s-1.53,1.093-1.53,7.65,1.093,16.83,1.093,16.83-6.557-1.311-8.524-.437l-1.967.874s7.213,3.934,8.087,5.683,2.215,7.917,6.681,9.86" transform="translate(-517.643 -463.367)" fill="#fff"/>
            <path id="パス_21138" data-name="パス 21138" d="M65.652,55.835A35.521,35.521,0,0,0,72.6,46.054c2.781-5.889,2.781-14.067,2.781-14.067l15.212,2.126s-4.416-13.25-18.811-13.74c0,0-12.817-2.255-23.753,4.1S34.8,45.077,33.023,53.725s.509,20.347,8.9,26.705,18.567,5.6,23.4,3.306,11.445-9.919,11.445-9.919-5.341-2.543-6.358-7.121-1.272-6.867-1.272-6.867Z" transform="translate(-29.215 -17.987)" fill="#f49902"/>
            <path id="パス_21139" data-name="パス 21139" d="M272.838,1460.941l-13.322-9.04-19.507,1.11s-1.11,1.269.793,2.854,6.185,2.062,6.185,2.062-10.467,11.895-10.15,14.432,4.123,1.745,4.123,1.745.952,1.586,2.22,1.744a25.37,25.37,0,0,0,2.7.159s4.441,2.537,7.612,1.269a113.241,113.241,0,0,0,14.273-7.929c2.7-1.9,5.075-8.405,5.075-8.405" transform="translate(-213.168 -1306.833)" fill="#fff"/>
            <path id="パス_21143" data-name="パス 21143" d="M359.164,378.16a2.385,2.385,0,0,0,.105.348,5.911,5.911,0,0,0,.557,1.169,5.512,5.512,0,0,0,1.083,1.262,6.473,6.473,0,0,0,.928.664,6.881,6.881,0,0,0,1.141.5,7.489,7.489,0,0,0,1.5.311,7.912,7.912,0,0,0,1.4.051,1.577,1.577,0,0,0,1.06-.439,1.5,1.5,0,0,0,0-2.12,1.5,1.5,0,0,0-1.06-.439,7.827,7.827,0,0,1-1.413-.053l.4.054a5.592,5.592,0,0,1-1.392-.372l.358.151a4.538,4.538,0,0,1-.983-.57l.3.234a4.272,4.272,0,0,1-.757-.755l.234.3a4.268,4.268,0,0,1-.549-.935l.151.358a2.786,2.786,0,0,1-.174-.522,1.5,1.5,0,0,0-2.739-.358l-.151.358a1.51,1.51,0,0,0,0,.8" transform="translate(-323.23 -338.667)" fill="#060000"/>
            <path id="パス_21144" data-name="パス 21144" d="M21.7,802.572c-.1-12.552-1.925-25.093-4.1-37.432-2.13-12.07-4.766-24.046-7.631-35.961-1.046-4.349-2.128-8.69-3.214-13.029-.9-3.61-1.824-7.213-2.491-10.877a71.466,71.466,0,0,1-1.242-11.389,33.005,33.005,0,0,1,.217-4.944,18.238,18.238,0,0,1,.355-1.837c.065-.256.136-.509.216-.761q.069-.215.146-.428.05-.137.1-.273-.09.207.016-.032a6.645,6.645,0,0,1,.518-.929c.1-.142.2-.277.3-.415-.282.383.165-.193.251-.292.584-.681,1.217-1.319,1.864-1.941,1.713-1.647,3.538-3.178,5.383-4.675,3.287-2.666,6.559-5.122,10.084-7.665.689-.5,1.885-1.11,2.093-1.977.422-1.759.589-3.619.88-5.4l.251-1.543a1.545,1.545,0,0,0-1.047-1.844,1.511,1.511,0,0,0-1.844,1.047l-1.145,7.034.689-.9A163.27,163.27,0,0,0,5.666,679.176a24.991,24.991,0,0,0-3.574,3.857A13.575,13.575,0,0,0,.172,689.5a47.124,47.124,0,0,0,.214,9.829A97.141,97.141,0,0,0,2.273,710.48c1.539,6.74,3.345,13.421,4.956,20.143,2.643,11.027,5.084,22.107,7.109,33.265a248.723,248.723,0,0,1,4.27,34.766q.075,1.958.091,3.918a1.5,1.5,0,0,0,3,0" transform="translate(0 -593.046)" fill="#060000"/>
            <path id="パス_21145" data-name="パス 21145" d="M132.414,899.47l1.07,1.137,2.895,3.078,4.278,4.548,5.243,5.575,5.745,6.108,5.773,6.138,5.384,5.725,4.571,4.86,3.274,3.481c.519.552,1.024,1.121,1.559,1.658.023.023.044.047.067.071a1.5,1.5,0,0,0,1.637.31,1.518,1.518,0,0,0,.921-1.37q.071-1.569.135-3.139.167-3.975.316-7.95.2-5.349.365-10.7.171-5.619.28-11.239c.058-3.247.1-6.5.063-9.744q-.005-.492-.014-.983l-1.5,1.5,5.04-.388,8-.615,1.853-.143-1.445-1.1c.523,2.743.947,5.5,1.327,8.27q.039.281.077.562c.046.341-.048-.362,0-.021l.025.19q.082.623.162,1.245.15,1.176.291,2.353.3,2.484.555,4.973c.694,6.66,1.224,13.341,1.549,20.03a121.718,121.718,0,0,1,.1,15.094c-.031.413-.069.826-.118,1.237a2.621,2.621,0,0,1-.033.266c-.01.044.066-.467.036-.27-.006.042-.012.084-.018.125-.028.193-.061.385-.094.577-.158.925-.316,1.85-.5,2.77s-.394,1.839-.656,2.742c-.135.466-.285.928-.453,1.383-.073.2-.152.394-.23.59-.093.233.163-.376.062-.147l-.069.157q-.081.182-.166.363a12.434,12.434,0,0,1-.644,1.189q-.176.285-.369.558c-.064.091-.134.177-.2.269.327-.477.053-.069-.042.044a8.786,8.786,0,0,1-.929.957q-.126.111-.257.218c-.33.268.264-.187-.01.008-.187.133-.375.264-.571.384s-.406.237-.617.343c-.108.054-.217.1-.326.155s-.336.114.134-.054c-.077.028-.153.063-.229.092a9.786,9.786,0,0,1-1.5.439q-.2.043-.407.078c-.155.027-.635.029-.094.021-.293,0-.595.065-.888.083a15.981,15.981,0,0,1-2.041-.015q-.493-.034-.983-.092c-.092-.011-.185-.029-.278-.035.45.029.124.016.022,0q-.339-.05-.676-.11c-.84-.148-1.672-.338-2.5-.557a44.787,44.787,0,0,1-5.432-1.847c-.12-.049-.59-.261-.083-.033-.126-.057-.255-.109-.382-.164q-.389-.169-.774-.345-.834-.381-1.654-.79c-1.121-.558-2.224-1.151-3.314-1.768a142.979,142.979,0,0,1-14.564-9.675q-1.877-1.39-3.727-2.815c-.125-.1-.247-.2-.378-.291.382.255-.133-.1-.224-.174q-.489-.379-.976-.761-.9-.7-1.787-1.41-3.534-2.808-6.994-5.708-5.748-4.808-11.325-9.816-2.915-2.614-5.78-5.285l-.254-.238a1.5,1.5,0,0,0-2.12,2.12c1.351,1.279,2.726,2.533,4.1,3.783q5.16,4.682,10.465,9.2c4.642,3.954,9.369,7.808,14.209,11.517a175.842,175.842,0,0,0,14.887,10.4,56.464,56.464,0,0,0,16.061,7.183,19.211,19.211,0,0,0,9.006.359,10.021,10.021,0,0,0,5.366-3.324c2.575-3.157,3.3-7.251,3.964-11.156a38.857,38.857,0,0,0,.47-5.574c.065-2.57.023-5.142-.055-7.711-.2-6.568-.657-13.13-1.253-19.673-.592-6.5-1.316-13-2.352-19.45q-.307-1.912-.666-3.816a1.5,1.5,0,0,0-1.445-1.1l-5.04.388-8,.615-1.853.143a1.527,1.527,0,0,0-1.5,1.5c.053,3.136.022,6.273-.027,9.409q-.087,5.583-.26,11.165-.159,5.444-.362,10.885-.154,4.2-.329,8.4c-.053,1.279-.161,2.567-.165,3.847,0,.017,0,.035,0,.052l2.559-1.06-1.07-1.138-2.895-3.078-4.278-4.548-5.243-5.575-5.745-6.108-5.773-6.138L144,907.42l-4.571-4.86-3.274-3.481c-.519-.552-1.028-1.117-1.559-1.658l-.067-.071a1.512,1.512,0,0,0-2.12,0,1.53,1.53,0,0,0,0,2.119" transform="translate(-104.57 -805.025)" fill="#060000"/>
            <path id="パス_21146" data-name="パス 21146" d="M564.326,537.033a32.73,32.73,0,0,1-2.985-2.909c-.428-.47-.841-.955-1.23-1.457l.234.3a10.871,10.871,0,0,1-1.448-2.347l.151.358a7.427,7.427,0,0,0-.62-1.285,9.532,9.532,0,0,0-.959-1.21,17.384,17.384,0,0,0-2.37-2.045,38.585,38.585,0,0,0-4.826-3.014q-.513-.277-1.032-.543a4.781,4.781,0,0,1-.736-.392l.3.234a.627.627,0,0,1-.089-.087l.234.3a.43.43,0,0,1-.048-.078l.151.358a.342.342,0,0,1-.023-.081l.054.4a.349.349,0,0,1,0-.069l-.054.4a.416.416,0,0,1,.027-.1l-.151.358a.645.645,0,0,1,.079-.13l-.234.3a1.289,1.289,0,0,1,.217-.207l-.3.234a3.809,3.809,0,0,1,.831-.453l-.358.151a11.674,11.674,0,0,1,2.927-.742l-.4.053a11.952,11.952,0,0,1,3.083-.036l-.4-.053a10.655,10.655,0,0,1,1.758.434l1.739.544c.43.134.858.272,1.289.4l.063.02a1.5,1.5,0,0,0,1.844-1.844c-.17-1.093-.328-2.187-.482-3.283q-.127-.9-.248-1.8l.053.4c-.249-1.855-.482-3.714-.682-5.575-.188-1.749-.36-3.5-.426-5.263a25.447,25.447,0,0,1,.2-4.285l-.054.4a14.827,14.827,0,0,1,.907-3.717l-.151.358a3.83,3.83,0,0,1,.457-.837l-.234.3a1.29,1.29,0,0,1,.212-.22l-.3.234a.652.652,0,0,1,.133-.079l-.358.151a.448.448,0,0,1,.087-.025l-.4.054a.363.363,0,0,1,.085,0l-.4-.054a.366.366,0,0,1,.083.023l-.358-.151a.452.452,0,0,1,.08.047l-.3-.234a.481.481,0,0,1,.082.081l-.234-.3a1.315,1.315,0,0,1,.155.288l-.151-.358a13.8,13.8,0,0,1,.65,2.353c.27,1.216.5,2.44.722,3.665.433,2.4.82,4.81,1.187,7.222q.118.778.233,1.556l.151.358a1.132,1.132,0,0,0,.386.42,1.413,1.413,0,0,0,.908.322,14.33,14.33,0,0,1,2.741.076l-.4-.054a4.481,4.481,0,0,1,1.137.277l-.358-.151a1.563,1.563,0,0,1,.332.191l-.3-.234a.893.893,0,0,1,.142.143l-.234-.3a13.435,13.435,0,0,0,2.731,3.086,6.144,6.144,0,0,0,1.288.615c.412.168.825.33,1.235.5l-.358-.151A10,10,0,0,1,573.158,520l-.3-.234a2.718,2.718,0,0,1,.479.46l-.234-.3a.988.988,0,0,1,.125.2l-.151-.358a3.681,3.681,0,0,1,.192.925l-.054-.4c.14,1.052.2,2.115.266,3.174.084,1.43.143,2.861.194,4.292q.079,2.218.132,4.437.043,1.767.076,3.535c.01.55.01,1.1.027,1.652,0,.008,0,.016,0,.024a1.5,1.5,0,1,0,3,0q-.015-1.146-.039-2.293-.051-2.641-.129-5.282c-.059-1.954-.128-3.909-.234-5.861a38.376,38.376,0,0,0-.407-4.467,2.867,2.867,0,0,0-1.007-1.762,13.542,13.542,0,0,0-3.745-1.958c-.226-.091-.452-.181-.676-.275l.358.151a3.517,3.517,0,0,1-.8-.445l.3.235a7.734,7.734,0,0,1-1.251-1.347l.234.3c-.215-.279-.422-.563-.631-.847-.144-.2-.286-.4-.444-.586A2.6,2.6,0,0,0,568,512.6a3.5,3.5,0,0,0-1.346-.538,13.457,13.457,0,0,0-2.984-.233c-.212,0-.425.009-.636.022l1.445,1.1q-.118-.811-.243-1.621-.294-1.926-.609-3.849c-.25-1.521-.511-3.04-.8-4.554-.237-1.251-.48-2.505-.81-3.736a9.366,9.366,0,0,0-.5-1.427,1.911,1.911,0,0,0-1.75-1.148,2.551,2.551,0,0,0-2.092,1.668,12.605,12.605,0,0,0-.915,2.841,27.6,27.6,0,0,0-.435,7.418c.128,1.954.338,3.9.568,5.847.234,1.978.5,3.953.774,5.925q.221,1.567.458,3.131c.008.051.016.1.023.152L560,521.757l-1.758-.549a20.039,20.039,0,0,0-3.291-.877,12.237,12.237,0,0,0-3.079-.016,14.755,14.755,0,0,0-2.983.616,5.42,5.42,0,0,0-2.19,1.177,2.053,2.053,0,0,0-.611,1.418,1.926,1.926,0,0,0,.981,1.607c.207.13.441.227.659.338q.448.23.891.468a40.36,40.36,0,0,1,4.677,2.876q.29.21.574.43l-.3-.234a12.48,12.48,0,0,1,2.252,2.146l-.234-.3a4.834,4.834,0,0,1,.622,1.029l-.151-.358a11.859,11.859,0,0,0,1.113,2.149,22.2,22.2,0,0,0,1.656,2.125,34.457,34.457,0,0,0,2.779,2.819c.2.181.4.361.6.535a1.6,1.6,0,0,0,1.06.439,1.525,1.525,0,0,0,1.06-.439,1.508,1.508,0,0,0,.439-1.06,1.478,1.478,0,0,0-.439-1.06" transform="translate(-491.525 -446.998)" fill="#060000"/>
            <path id="パス_21147" data-name="パス 21147" d="M244.4,1435.468q-2.524.174-5.048.34c-2.815.186-5.637.437-8.46.387-1.376-.024-2.758-.117-4.134-.063a4.972,4.972,0,0,0-1.534.215,2.017,2.017,0,0,0-1.107.839,1.786,1.786,0,0,0-.17,1.349,6.923,6.923,0,0,0,1.683,3.226c1.734,1.844,4.373,2.467,6.807,2.623.4.026.8.036,1.2.037l-1.06-2.559c-.635.694-1.259,1.4-1.879,2.1-1.385,1.575-2.747,3.171-4.07,4.8a65.854,65.854,0,0,0-4.12,5.491,14.286,14.286,0,0,0-1.17,2.068,3.745,3.745,0,0,0-.417,2.46,2.73,2.73,0,0,0,.588,1.013,3.177,3.177,0,0,0,.9.741,5.1,5.1,0,0,0,2.335.592,9.715,9.715,0,0,0,2.031-.182,10.452,10.452,0,0,0,1.147-.267c.054-.016.108-.032.162-.05l-1.844-1.047a6.106,6.106,0,0,0,1.217,2.193,3.459,3.459,0,0,0,1.733,1.1,5.229,5.229,0,0,0,1.266.1h2.269l-1.06-.439a7.6,7.6,0,0,0,1.97,1.244,8.733,8.733,0,0,0,2.19.687,9.333,9.333,0,0,0,1.462.132,8.2,8.2,0,0,0,1.249-.118,13.591,13.591,0,0,0,3.387-1.178c1.188-.54,2.339-1.161,3.472-1.808,1.872-1.07,3.713-2.205,5.545-3.342a36.555,36.555,0,0,0,3.508-2.455,15.115,15.115,0,0,0,3.053-3.172,16.386,16.386,0,0,0,1.694-3.951c.133-.373.279-.744.4-1.121l0-.009a1.5,1.5,0,0,0-2.2-1.693,1.673,1.673,0,0,0-.689.9l-.627,1.756c-.207.578-.392,1.169-.629,1.736l.151-.358a7.47,7.47,0,0,1-.972,1.615l.234-.3a15.629,15.629,0,0,1-2.8,2.691l.3-.234a50.854,50.854,0,0,1-4.615,3.031c-1.591.973-3.175,1.955-4.811,2.852a34.294,34.294,0,0,1-3.114,1.537l.358-.151a10.4,10.4,0,0,1-2.575.792l.4-.053a6.452,6.452,0,0,1-1.679-.017l.4.053a7.459,7.459,0,0,1-1.84-.509l.358.151a7.351,7.351,0,0,1-1.619-.932l.3.234a2.345,2.345,0,0,0-.808-.505,3,3,0,0,0-.8-.054h-1.129a11.148,11.148,0,0,1-1.459-.017l.4.053a1.779,1.779,0,0,1-.4-.112l.358.151a2.078,2.078,0,0,1-.442-.262l.3.234a2.941,2.941,0,0,1-.484-.494l.234.3a4.686,4.686,0,0,1-.591-1.036l.151.358c-.05-.121-.1-.244-.137-.369a1.517,1.517,0,0,0-1.844-1.047,9.423,9.423,0,0,1-1.708.378l.4-.054a6.578,6.578,0,0,1-1.71.026l.4.053a3.453,3.453,0,0,1-.857-.225l.358.151a2.378,2.378,0,0,1-.5-.29l.3.234a2.027,2.027,0,0,1-.338-.338l.234.3a1.413,1.413,0,0,1-.181-.288l.151.358a.678.678,0,0,1-.043-.165l.053.4a1.208,1.208,0,0,1,.006-.312l-.054.4a3.359,3.359,0,0,1,.25-.82l-.151.358a12.729,12.729,0,0,1,.99-1.813c.479-.758,1-1.491,1.526-2.213q.5-.677,1.012-1.341l-.234.3c1.279-1.655,2.615-3.266,3.975-4.855q1.467-1.714,2.974-3.392.278-.309.558-.617a1.507,1.507,0,0,0-1.06-2.558,17.222,17.222,0,0,1-2.268-.143l.4.053a10.386,10.386,0,0,1-2.577-.669l.358.151a6.664,6.664,0,0,1-1.464-.837l.3.234a5.3,5.3,0,0,1-.943-.933l.234.3a5.036,5.036,0,0,1-.65-1.112l.151.358a5.416,5.416,0,0,1-.351-1.143l.054.4a.273.273,0,0,1,0-.062l-.054.4a.256.256,0,0,1,.012-.046l-.151.358a.265.265,0,0,1,.029-.052l-.234.3a.359.359,0,0,1,.057-.056l-.3.234a.647.647,0,0,1,.127-.072l-.358.151a2.02,2.02,0,0,1,.5-.118l-.4.053a11.965,11.965,0,0,1,1.615-.06c.732.007,1.464.032,2.2.051,1.548.041,3.088.034,4.634-.059q3.96-.24,7.917-.515l1.927-.131a1.593,1.593,0,0,0,1.06-.439,1.5,1.5,0,0,0,0-2.12,1.486,1.486,0,0,0-1.06-.439" transform="translate(-198.777 -1292.04)" fill="#060000"/>
            <path id="パス_21148" data-name="パス 21148" d="M488.989,1395.161c.577.026,1.153.043,1.73.06q2.278.064,4.558.074,3.218.016,6.435-.069c2.457-.067,4.912-.183,7.363-.37,2.566-.2,5.128-.471,7.67-.87a42.273,42.273,0,0,0,6.383-1.436,19.264,19.264,0,0,0,6.685-3.569,11.408,11.408,0,0,0,3.638-5.81,17.259,17.259,0,0,0,.01-7.414,42.884,42.884,0,0,0-2.518-8.108c-.331-.825-.677-1.644-1.028-2.46a1.5,1.5,0,0,0-.9-.689,1.532,1.532,0,0,0-1.155.151,1.513,1.513,0,0,0-.689.9l-.054.4a1.49,1.49,0,0,0,.2.756q.153.354.3.709l-.151-.358a50.459,50.459,0,0,1,2.892,8.52c.158.7.289,1.413.385,2.128l-.054-.4a15.9,15.9,0,0,1,.054,4.188l.054-.4a10.7,10.7,0,0,1-.73,2.72l.151-.358a9.721,9.721,0,0,1-1.236,2.11l.234-.3a11.274,11.274,0,0,1-2.026,2l.3-.234a17.1,17.1,0,0,1-3.765,2.135l.358-.151a33.177,33.177,0,0,1-7.307,1.947q-1.22.208-2.448.371l.4-.054c-2.3.308-4.605.519-6.917.672-2.264.151-4.531.245-6.8.3q-2.947.07-5.895.051-2.129-.012-4.256-.069c-.62-.017-1.24-.052-1.86-.063h-.025a1.51,1.51,0,0,0-1.5,1.5,1.531,1.531,0,0,0,1.5,1.5" transform="translate(-438.781 -1228.119)" fill="#060000"/>
            <path id="パス_21149" data-name="パス 21149" d="M801.585,1629.563q.061,1.287.117,2.573.154,3.45.3,6.9.208,5,.4,10,.223,5.935.412,11.871.2,6.256.347,12.514.017.749.034,1.5a1.5,1.5,0,1,0,3,0q-.136-6.255-.333-12.508-.185-6.008-.409-12.014-.19-5.146-.4-10.291-.151-3.671-.314-7.341c-.047-1.054-.082-2.109-.144-3.162,0-.013,0-.027,0-.04a1.5,1.5,0,0,0-3,0" transform="translate(-721.493 -1465.393)" fill="#060000"/>
            <path id="パス_21150" data-name="パス 21150" d="M441.41,119.714c1.987.5,3.986.939,5.986,1.381,1.752.387,3.5.782,5.233,1.255q1.553.425,3.081.934a1.5,1.5,0,0,0,1.693-2.2,1.639,1.639,0,0,0-.9-.689c-1.763-.588-3.554-1.083-5.361-1.516s-3.6-.811-5.406-1.218q-1.77-.4-3.532-.836a1.565,1.565,0,0,0-1.155.151,1.5,1.5,0,0,0,.358,2.739" transform="translate(-396.32 -105.108)" fill="#060000"/>
            <path id="パス_21151" data-name="パス 21151" d="M357.894,128.163c.053.3.1.6.145.9l-.054-.4a6.692,6.692,0,0,1,.041,1.614c-.074.694-.156,1.383-.192,2.081q-.04.761-.14,1.516l.054-.4a22.093,22.093,0,0,1-1.185,4.644q-.238.648-.508,1.284l.151-.358a46.551,46.551,0,0,1-2.618,5.139c-.975,1.686-2.01,3.337-3.023,5-.569.934-1.131,1.872-1.672,2.823a1.559,1.559,0,0,0-.151,1.155,1.528,1.528,0,0,0,.689.9,1.513,1.513,0,0,0,1.155.151,1.551,1.551,0,0,0,.9-.689c.953-1.674,1.971-3.309,2.976-4.951s2-3.295,2.9-5a36.05,36.05,0,0,0,2.381-5.467,22.267,22.267,0,0,0,1.1-5.818c.037-.7.128-1.387.2-2.082a8.63,8.63,0,0,0-.128-2.118c-.036-.242-.076-.484-.119-.725a1.507,1.507,0,0,0-.689-.9,1.5,1.5,0,0,0-2.051.538l-.151.358a1.509,1.509,0,0,0,0,.8" transform="translate(-313.851 -113.649)" fill="#060000"/>
            <path id="パス_21152" data-name="パス 21152" d="M470.559,214.233l-3.711-1.192-5.924-1.9-1.372-.441,1.1,1.445c.014-.15.03-.3.047-.451s.037-.316.056-.473c.016-.126.068-.458-.01.067.018-.12.033-.239.051-.359a12.713,12.713,0,0,1,.5-2.326c.044-.125.094-.249.144-.372.058-.143.216-.5-.038.087l.128-.3c.206-.475.418-.947.632-1.419,1.1-2.417,2.229-4.817,3.365-7.215q.434-.917.871-1.833l-.9.689q2.928-.586,5.84-1.253c1.425-.326,2.849-.662,4.258-1.053.533-.148,1.066-.3,1.589-.485a5.55,5.55,0,0,0,1.247-.549c.925-.615,1.039-1.727,1.165-2.736.137-1.094.18-2.2.214-3.3.088-2.868.054-5.741,0-8.609-.035-1.786-.045-3.581-.149-5.365,0-.028,0-.056,0-.083l-.439,1.06,2.978-2.52a1.493,1.493,0,0,0,.439-1.06,1.6,1.6,0,0,0-.439-1.06l-2.4-2.552-3.823-4.07-.881-.938.385.661-1.939-6.217-.275-.881a1.5,1.5,0,1,0-2.89.8c.73,2.339,1.425,4.691,2.189,7.019a2.672,2.672,0,0,0,.673,1.02l1.126,1.2,3.409,3.629,2.3,2.452v-2.12l-1.9,1.611c-.657.556-1.513,1.057-1.511,2.027,0,1.211.08,2.425.111,3.635.056,2.249.093,4.5.092,6.749,0,2.065-.009,4.142-.189,6.2-.016.187-.035.375-.056.562-.01.088-.053.416,0,.055s0-.037-.009.051a4.542,4.542,0,0,1-.161.729c-.027.082-.11.276.026-.046s.065-.144.023-.073c-.113.19.3-.343.178-.226-.139.131.406-.26.209-.16-.1.049-.192.105-.292.152-.258.123.427-.169.148-.063-.082.031-.163.063-.245.093a51.769,51.769,0,0,1-6.185,1.628q-2.664.6-5.343,1.146a1.586,1.586,0,0,0-1.155.741c-.056.1-.1.2-.145.3q-.485,1.018-.967,2.037c-1,2.117-2,4.236-2.97,6.368-.4.885-.8,1.772-1.172,2.672a14.4,14.4,0,0,0-.777,3.6c-.049.372-.095.745-.129,1.119a1.515,1.515,0,0,0,1.1,1.445l3.711,1.192,5.924,1.9,1.372.441a1.511,1.511,0,0,0,1.844-1.047,1.532,1.532,0,0,0-1.047-1.844" transform="translate(-411.925 -140.518)" fill="#060000"/>
            <path id="パス_21153" data-name="パス 21153" d="M83.87,16.214a25.141,25.141,0,0,0-.616-3.49,12.408,12.408,0,0,0-1.393-3.047A18.314,18.314,0,0,0,79.735,6.76,15.945,15.945,0,0,0,77.2,4.589a22.773,22.773,0,0,0-6.486-3.043,36.939,36.939,0,0,0-8.2-1.44,48.324,48.324,0,0,0-8.989.238,36.717,36.717,0,0,0-8.84,1.986,27.592,27.592,0,0,0-11.78,8.428,29.825,29.825,0,0,0-3.538,5.52A50.371,50.371,0,0,0,26.714,23.3a57.4,57.4,0,0,0-3.119,19.494,35.658,35.658,0,0,0,1.486,9.3,22.647,22.647,0,0,0,4.031,7.544A24.622,24.622,0,0,0,41.8,67.671a27.662,27.662,0,0,0,13.891-.08,23.513,23.513,0,0,0,12.548-7.909,25.478,25.478,0,0,0,2.395-3.547,1.513,1.513,0,0,0-.9-2.2,4.407,4.407,0,0,1-.705-.223l-.158-.063a2.641,2.641,0,0,0,.249.105l-.114-.05q-.209-.094-.413-.2a9.688,9.688,0,0,1-.976-.578q-.123-.083-.244-.169l-.124-.09c-.059-.043-.281-.214-.028-.018s.062.048.006,0l-.147-.119q-.141-.117-.279-.238a12,12,0,0,1-1.156-1.175q-.135-.158-.266-.32c-.076-.094-.262-.36.045.063-.049-.067-.1-.133-.15-.2q-.292-.4-.556-.811a16.005,16.005,0,0,1-1.06-1.967c-.05-.109-.1-.219-.145-.328-.02-.046-.08-.186.012.03.1.242,0,.007-.018-.048q-.135-.333-.256-.67-.26-.719-.467-1.457a26.528,26.528,0,0,1-.717-3.46,1.5,1.5,0,0,0-.689-.9,1.5,1.5,0,0,0-2.051.538,1.757,1.757,0,0,0-.151,1.155,20.788,20.788,0,0,0,4.026,10.1,12.054,12.054,0,0,0,4.822,3.672,5.062,5.062,0,0,0,.911.307l-.9-2.2c-.33.595-.682,1.177-1.061,1.742q-.275.411-.568.809c-.054.074-.405.513-.118.162-.112.136-.218.277-.33.414a21.218,21.218,0,0,1-2.623,2.688q-.307.263-.624.514c-.083.066-.335.208.022-.015-.049.03-.1.073-.142.107q-.212.16-.429.314-.713.508-1.466.956t-1.514.823q-.364.18-.733.346c-.116.052-.233.1-.35.154-.288.127.337-.137.045-.019l-.235.1a24.609,24.609,0,0,1-3.186,1.028q-.8.2-1.611.35-.4.074-.806.137l-.4.059c-.1.014-.287.027.157-.021-.08.009-.161.021-.241.03a26.763,26.763,0,0,1-6.447.051c-.055-.007-.11-.015-.164-.021.448.043.221.031.11.014s-.248-.036-.371-.056q-.457-.073-.91-.164-.835-.168-1.657-.4T40.74,64.2q-.39-.139-.776-.291c-.122-.048-.244-.1-.365-.148-.3-.121.33.144.035.014l-.242-.106A24.1,24.1,0,0,1,36.264,62q-.757-.48-1.476-1.018c-.071-.053-.14-.116-.215-.163.022.014.285.224.09.069-.118-.094-.235-.187-.352-.282q-.35-.287-.688-.587a21.267,21.267,0,0,1-2.536-2.68c-.061-.078-.2-.271.036.049-.036-.05-.075-.1-.112-.147q-.139-.185-.274-.372-.284-.4-.549-.805-.522-.808-.965-1.664-.2-.38-.376-.769c-.067-.145-.132-.291-.2-.437-.132-.3.1.249.02.048-.043-.108-.088-.215-.13-.323q-.395-1-.7-2.037a30.925,30.925,0,0,1-.934-4.332c-.01-.073-.026-.149-.032-.223.032.411,0,.03-.006-.048q-.032-.252-.06-.5-.066-.589-.114-1.18-.092-1.125-.122-2.254-.061-2.218.1-4.434.08-1.126.216-2.247c.015-.122.031-.244.046-.366.009-.07.034-.3,0,.033.024-.2.057-.406.087-.608q.1-.638.207-1.273c.287-1.634.651-3.254,1.069-4.86A82.3,82.3,0,0,1,31,19.972q.119-.31.244-.617c.027-.066.19-.457.073-.179s.058-.133.093-.212q.289-.659.61-1.3a28.884,28.884,0,0,1,1.454-2.584q.408-.644.85-1.265.224-.314.457-.622l.118-.154c.118-.157-.244.311-.067.088.089-.112.178-.225.268-.336A26.125,26.125,0,0,1,37.286,10.4q.593-.57,1.221-1.1.287-.243.581-.477c.065-.052.135-.1.2-.156-.015.013-.3.227-.1.08.135-.1.271-.2.408-.305a25.763,25.763,0,0,1,2.956-1.87q.8-.435,1.637-.815.212-.1.426-.19a1.16,1.16,0,0,0,.172-.074c-.308.21-.134.056-.01,0q.442-.182.89-.348a30.021,30.021,0,0,1,3.848-1.14c.7-.158,1.4-.292,2.109-.405.385-.062.77-.118,1.155-.173s-.236.03,0,0l.287-.037q.315-.039.629-.075,2.262-.257,4.541-.314c1.426-.034,2.854,0,4.277.1q1.022.072,2.04.195l.2.025.1.013q.249.033-.1-.014c.066.062.353.05.444.064q.511.076,1.019.167a31.816,31.816,0,0,1,3.659.871q.85.259,1.682.573.2.077.4.157c.1.039.574.254.117.045.256.117.515.224.77.344a18.721,18.721,0,0,1,2.808,1.614q.141.1.279.2c.1.072.448.365.059.04.2.167.407.326.6.5a13.135,13.135,0,0,1,1.064,1.037q.215.236.418.482c.08.1.329.45.027.027.081.113.167.223.247.338.356.506.69,1.031,1.008,1.562a12.835,12.835,0,0,1,.723,1.36c.154.344-.13-.332.008.021q.055.141.105.284c.079.224.148.45.208.679a27.333,27.333,0,0,1,.57,3.325,1.493,1.493,0,0,0,.689.9,1.5,1.5,0,0,0,2.051-.538,1.77,1.77,0,0,0,.151-1.155" transform="translate(-21.21 0.004)" fill="#060000"/>
            <path id="パス_21154" data-name="パス 21154" d="M176.389,725.746q.85.657,1.734,1.265,1.908,1.318,3.915,2.486a61,61,0,0,0,5.732,2.971,49.264,49.264,0,0,0,7.311,2.683,33.079,33.079,0,0,0,7.958,1.211,21.924,21.924,0,0,0,3.886-.26,11.886,11.886,0,0,0,2.964-.88,7.309,7.309,0,0,0,2.075-1.383,5.9,5.9,0,0,0,1.3-1.792,7.327,7.327,0,0,0,.443-1.187,8.493,8.493,0,0,0,.208-1.274,9.292,9.292,0,0,0-.108-2.267,14.455,14.455,0,0,0-1.373-4.158,19.4,19.4,0,0,0-2.23-3.531q-.247-.316-.512-.618a1.5,1.5,0,0,0-2.558,1.06,1.652,1.652,0,0,0,.439,1.06q.293.334.565.686l-.234-.3a17.853,17.853,0,0,1,1.837,2.943q.234.469.438.951l-.151-.358a13.263,13.263,0,0,1,.784,2.46q.072.349.12.7l-.054-.4a7.537,7.537,0,0,1,.017,1.978l.054-.4a5.464,5.464,0,0,1-.368,1.374l.151-.358a4.829,4.829,0,0,1-.621,1.063l.234-.3a5.151,5.151,0,0,1-.918.909l.3-.234a6.713,6.713,0,0,1-1.476.844l.358-.151a11.2,11.2,0,0,1-2.815.724l.4-.054a22.391,22.391,0,0,1-4.838.068q-.722-.061-1.439-.158l.4.054a38.137,38.137,0,0,1-8.091-2.088q-1.06-.392-2.1-.833l.358.151a60.138,60.138,0,0,1-7.2-3.655c-1.477-.874-2.924-1.8-4.32-2.8-.252-.181-.5-.362-.75-.552l.3.234h0a1.666,1.666,0,0,0-1.06-.439,1.525,1.525,0,0,0-1.06.439,1.508,1.508,0,0,0-.439,1.06,1.441,1.441,0,0,0,.439,1.06" transform="translate(-158.369 -646.777)" fill="#060000"/>
            <g id="グループ_2641" data-name="グループ 2641" transform="translate(50.278 18.044) rotate(-3)">
              <path id="パス_21481" data-name="パス 21481" d="M1.585,3.168A1.634,1.634,0,0,0,2.7,2.7a1.61,1.61,0,0,0,.464-1.12A1.6,1.6,0,0,0,2.7.464,1.646,1.646,0,0,0,1.585,0,1.634,1.634,0,0,0,.465.464,1.61,1.61,0,0,0,0,1.584,1.6,1.6,0,0,0,.465,2.7a1.646,1.646,0,0,0,1.12.464" transform="translate(4.299 8.153)" fill="#060000"/>
              <path id="パス_21497" data-name="パス 21497" d="M3.17,6.478c.015-.2.04-.408.068-.612l-.057.421a10.49,10.49,0,0,1,.66-2.644l-.16.378a4.1,4.1,0,0,1,.5-.888l-.248.321a2.175,2.175,0,0,1,.387-.4L4,3.306a1.528,1.528,0,0,1,.322-.188l-.378.16a2.6,2.6,0,0,1,.63-.144l-.421.057a2.974,2.974,0,0,1,.76-.006l-.421-.057a1.9,1.9,0,0,1,.463.125l-.378-.16a1.449,1.449,0,0,1,.3.172L4.55,3.017a1.174,1.174,0,0,1,.2.2L4.5,2.894a.644.644,0,0,1,.08.124,1.2,1.2,0,0,0,.408.444,1.192,1.192,0,0,0,.539.284,1.619,1.619,0,0,0,1.22-.16,1.6,1.6,0,0,0,.728-.947l.056-.421a1.576,1.576,0,0,0-.216-.8A1.932,1.932,0,0,0,6.9.877a3.04,3.04,0,0,0-1.3-.745A4.483,4.483,0,0,0,3.562.105,3.3,3.3,0,0,0,2.683.4a3.209,3.209,0,0,0-.655.459,2.1,2.1,0,0,0-.294.3,5.972,5.972,0,0,0-.491.672A7.353,7.353,0,0,0,.671,3.1,10.626,10.626,0,0,0,.2,4.99C.113,5.482.039,5.98,0,6.478A1.584,1.584,0,0,0,1.586,8.062,1.6,1.6,0,0,0,2.706,7.6l.248-.321a1.576,1.576,0,0,0,.216-.8" transform="translate(0 0)" fill="#060000"/>
              <path id="パス_21498" data-name="パス 21498" d="M9.154.051l-2.7.684-4.3,1.089-.986.25A1.605,1.605,0,0,0,.223,2.8a1.577,1.577,0,0,0-.16,1.22,21.752,21.752,0,0,0,.93,2.2A21.125,21.125,0,0,0,3.3,10.032a14.914,14.914,0,0,0,2.171,2.354,1.187,1.187,0,0,0,.51.327,1.193,1.193,0,0,0,.61.136,1.612,1.612,0,0,0,1.12-.464,1.594,1.594,0,0,0,.464-1.12,1.558,1.558,0,0,0-.464-1.12A13.286,13.286,0,0,1,5.79,8.113l.248.32A21.182,21.182,0,0,1,3.649,4.45q-.19-.407-.365-.821l.16.378c-.115-.273-.228-.547-.325-.826L2.012,5.129l2.7-.684,4.3-1.089L10,3.106a1.627,1.627,0,0,0,.947-.728,1.618,1.618,0,0,0,.16-1.22,1.6,1.6,0,0,0-.728-.947,1.676,1.676,0,0,0-1.22-.16" transform="translate(4.786 19.165)" fill="#060000"/>
            </g>
          </g>
        </g>
      </g>
    </g>
  </g>
</svg>
