<svg xmlns="http://www.w3.org/2000/svg" xmlns:xlink="http://www.w3.org/1999/xlink" width="394" height="240" viewBox="0 0 394 240">
  <defs>
    <clipPath id="clip-path">
      <rect id="長方形_565" data-name="長方形 565" width="394" height="240" transform="translate(1028 4809)" fill="rgba(168,67,67,0.11)"/>
    </clipPath>
    <clipPath id="clip-path-2">
      <rect id="長方形_348" data-name="長方形 348" width="380" height="240" transform="translate(-9258 9085.763)" fill="#fff" stroke="#707070" stroke-width="1"/>
    </clipPath>
  </defs>
  <g id="flow-step06" transform="translate(-1028 -4809)" clip-path="url(#clip-path)">
    <g id="Illust06" transform="translate(1028 4809)">
      <g id="Illust06-2" data-name="Illust06" transform="translate(9258 -9085.763)" clip-path="url(#clip-path-2)">
        <path id="パス_20927" data-name="パス 20927" d="M457.854,145.829l-2.219,10.443s-3.369-1.087-4.278,1.638-1.816,5.449-.545,6.539,4.177,3.633,4.177,3.633l.363,6.9,4.359,5.086-.182,5.631,10.195,7.747,10.706-7.583.351-6.339,4-4.9.182-6.176s5.086-3.088,5.267-5.631-2.18-6.539-2.18-6.539l-1.475.258-4.882-12.609s-7.084-2.18-11.988-.545c0,0-8.621-2.184-11.848,2.45" transform="translate(-9419.522 9039.87)" fill="#fff"/>
        <path id="パス_20928" data-name="パス 20928" d="M495.547,44.561l2.219-10.443s5.874-3.263,11.748-.783c0,0,6.4-2.741,11.487.522l3,11.357,2.48-.392s.261-12.662-.13-13.837-8.746-5.483-9.138-5.744-9.268-4.83-12.532-3.263-5.483,5.613-5.483,5.613l-5.744,4.7.13,11.487,1.175,1.958Z" transform="translate(-9459.434 9151.581)" fill="#f49902"/>
        <path id="パス_20929" data-name="パス 20929" d="M51.75,733.871l12.765,73.842,17.27-73.4s30.317,9.461,30.681,10.369,6.175,24.7,6.9,39.777-.182,25.065-2.906,26.7-18.163-.182-18.163-.182l-1.271,23.612H35.817l-1.271-25.61s-9.445,4-13.078,3.814-5.994.545-8.173-6.539,1.816-41.594,1.816-41.594S19.289,744.5,21.287,743.6s30.464-9.726,30.464-9.726" transform="translate(-9015.97 8494.688)" fill="#c8e3fa"/>
        <path id="パス_20930" data-name="パス 20930" d="M516.066,700.329l5.353,32.86,1.784.149s2.379-2.825,4.163-1.933,2.677.743,2.379,2.082-2.379,13.382-2.379,13.382,4.461-4.015,5.8-3.122a4.839,4.839,0,0,1,1.784,2.082l-2.676,3.271,2.082,1.189,1.933-1.635,9.813-47.878-4.907-3.271-10.706,7.583L519.635,697.5Z" transform="translate(-9480.285 8528.229)" fill="#fff"/>
        <path id="パス_20932" data-name="パス 20932" d="M471.206,1164.176a18.2,18.2,0,0,1-4.178-9.263,70.353,70.353,0,0,0-1.635-9.445,2.14,2.14,0,0,0-3.088,1.453,33.838,33.838,0,0,0-.727,7.084s-8.88-4.357-9.072-3.541-1.933,1.636-1.933,1.636l-2.082-1.19,2.676-3.271s.552-3.264-1.784-2.082-5.8,3.122-5.8,3.122l2.379-13.382a3.092,3.092,0,0,0-2.379-2.082c-1.986-.463-4.163,1.933-4.163,1.933l-2.909.874-2.18,5.449-3.088,1.09-5.631,18.345s-2.18,7.265,3.814,7.447,12.9-4.541,12.9-4.541.727-1.635,1.635-.182a32.038,32.038,0,0,0,6.72,6.357c1.635.908,12.9,2.906,12.9,2.906s7.992-1.816,7.629-8.718" transform="translate(-9396.506 8126.417)" fill="#fff"/>
        <path id="パス_20933" data-name="パス 20933" d="M439.9,302.534a8.286,8.286,0,0,0-1.14-.935,5.256,5.256,0,0,0-1.11-.582,2.573,2.573,0,0,0-1.438-.117,2.14,2.14,0,0,0-.456.171.991.991,0,0,0-.178.1,2.289,2.289,0,0,0-.378.316c-.1.11-.185.23-.272.347a4.426,4.426,0,0,0-.408.69,15.834,15.834,0,0,0-.9,2.31,17.238,17.238,0,0,0-.556,2.272,6.007,6.007,0,0,0-.073,2.278,2.491,2.491,0,0,0,.2.516,2.233,2.233,0,0,0,.155.27,8.021,8.021,0,0,0,.668.859,19.252,19.252,0,0,0,1.447,1.457c.489.452.99.891,1.5,1.322q.433.367.875.725l.042.034a1.3,1.3,0,0,0,.824.341,1.185,1.185,0,0,0,.824-.341,1.172,1.172,0,0,0,.341-.824,1.13,1.13,0,0,0-.341-.824c-.367-.294-.727-.6-1.084-.9-.719-.614-1.427-1.244-2.1-1.913a11.514,11.514,0,0,1-.971-1.074l.182.236a2.793,2.793,0,0,1-.375-.6l.117.278a1.246,1.246,0,0,1-.079-.309l.042.31a4.557,4.557,0,0,1,.042-1.183l-.042.31a16.63,16.63,0,0,1,.818-3.252c.1-.288.21-.574.328-.855l-.117.278a5.677,5.677,0,0,1,.671-1.256l-.182.236a1.224,1.224,0,0,1,.216-.224l-.236.182a.9.9,0,0,1,.186-.107l-.278.117a.951.951,0,0,1,.218-.059l-.31.042a1.228,1.228,0,0,1,.317,0l-.31-.042a2.1,2.1,0,0,1,.525.152l-.278-.117a4.758,4.758,0,0,1,1.015.622l-.236-.182a6.642,6.642,0,0,1,.651.566,1.2,1.2,0,0,0,.824.341,1.186,1.186,0,0,0,.824-.341,1.172,1.172,0,0,0,.341-.824,1.219,1.219,0,0,0-.341-.824" transform="translate(-9403.583 8894.072)" fill="#060000"/>
        <path id="パス_20934" data-name="パス 20934" d="M499.784,456.565c.015.551.039,1.1.066,1.652.052,1.065.118,2.13.234,3.19.061.554.126,1.112.238,1.659a3.517,3.517,0,0,0,.362,1.032,6.183,6.183,0,0,0,.5.718c.314.409.637.81.973,1.2.69.8,1.412,1.582,2.151,2.341s1.484,1.493,2.272,2.191q.569.5,1.175.963a3.977,3.977,0,0,0,.711.458,2.181,2.181,0,0,0,.54.2c.243.043.49.072.735.1.427.042.857.064,1.286.082,1.062.045,2.125.059,3.187.066q1.072.008,2.145,0h.109a1.206,1.206,0,0,0,.824-.341,1.165,1.165,0,0,0,0-1.648,1.2,1.2,0,0,0-.824-.341c-.637,0-1.274,0-1.911,0-1.19-.006-2.38-.019-3.569-.07-.5-.022-1.012-.044-1.513-.111l.31.042a1.519,1.519,0,0,1-.389-.088l.278.117a3.885,3.885,0,0,1-.811-.524l.236.182a26.645,26.645,0,0,1-2.42-2.189c-.878-.87-1.731-1.768-2.547-2.7-.375-.426-.744-.859-1.092-1.308l.182.236a4.338,4.338,0,0,1-.6-.909l.117.278a5.5,5.5,0,0,1-.293-1.37l.042.31c-.122-.908-.19-1.824-.247-2.738q-.07-1.121-.109-2.244c-.005-.146-.01-.291-.014-.437a1.216,1.216,0,0,0-.341-.824,1.165,1.165,0,0,0-1.989.824" transform="translate(-9465.268 8751.527)" fill="#060000"/>
        <path id="パス_20935" data-name="パス 20935" d="M789.48,456.565c-.011.419-.028.838-.047,1.256-.04.887-.091,1.773-.164,2.657-.042.5-.091,1-.158,1.5l.042-.31a5.5,5.5,0,0,1-.293,1.371l.118-.278a5.147,5.147,0,0,1-.712,1.075l.182-.236c-.617.8-1.286,1.557-1.97,2.3-.741.8-1.5,1.59-2.306,2.334-.366.34-.74.672-1.135.978l.236-.182a3.638,3.638,0,0,1-.767.492l.278-.117a.861.861,0,0,1-.144.048,1.165,1.165,0,0,0-.278,2.13,1.263,1.263,0,0,0,.9.117,2.385,2.385,0,0,0,.449-.177,2.144,2.144,0,0,0,.212-.112,5.425,5.425,0,0,0,.529-.368,20.27,20.27,0,0,0,1.582-1.359c.528-.5,1.039-1.017,1.54-1.543s1-1.076,1.484-1.632c.463-.534.911-1.081,1.336-1.645.135-.179.267-.361.389-.55a3.723,3.723,0,0,0,.335-.674,3.562,3.562,0,0,0,.165-.608c.076-.382.126-.77.176-1.156.091-.707.15-1.418.2-2.129.047-.668.083-1.337.112-2.005q.025-.563.042-1.126c0-.018,0-.036,0-.054a1.165,1.165,0,0,0-1.165-1.165,1.177,1.177,0,0,0-.824.341,1.238,1.238,0,0,0-.341.824" transform="translate(-9725.361 8751.527)" fill="#060000"/>
        <path id="パス_20936" data-name="パス 20936" d="M885.311,304.088a6.618,6.618,0,0,1,.651-.566l-.236.182a4.76,4.76,0,0,1,1.015-.622l-.278.117a2.1,2.1,0,0,1,.525-.152l-.31.042a1.233,1.233,0,0,1,.317,0l-.31-.042a.946.946,0,0,1,.218.059l-.278-.118a.906.906,0,0,1,.186.107l-.236-.182a1.228,1.228,0,0,1,.216.224l-.182-.236a5.675,5.675,0,0,1,.672,1.256l-.117-.278a17.673,17.673,0,0,1,.995,3.237c.06.289.112.579.152.871l-.042-.31a4.559,4.559,0,0,1,.042,1.183l.042-.31a1.241,1.241,0,0,1-.079.309l.117-.278a2.8,2.8,0,0,1-.375.6l.182-.236a16.044,16.044,0,0,1-1.9,1.96q-.912.833-1.866,1.616c-.127.1-.254.209-.382.312a1.3,1.3,0,0,0-.341.824,1.186,1.186,0,0,0,.341.824,1.172,1.172,0,0,0,.824.341l.31-.042a1.164,1.164,0,0,0,.514-.3c.209-.167.414-.337.619-.509q.714-.6,1.408-1.218c.523-.471,1.039-.954,1.522-1.466.207-.219.407-.444.593-.682a4.322,4.322,0,0,0,.546-.8,2.5,2.5,0,0,0,.2-.516,3.946,3.946,0,0,0,.079-.62,5.061,5.061,0,0,0-.042-.855,16.481,16.481,0,0,0-.5-2.5,19.05,19.05,0,0,0-.867-2.438,7.394,7.394,0,0,0-.413-.83,3.364,3.364,0,0,0-.2-.3c-.087-.117-.175-.237-.272-.346a2.281,2.281,0,0,0-.38-.316,1,1,0,0,0-.179-.1,2.1,2.1,0,0,0-.456-.17,2.794,2.794,0,0,0-.5-.058,3.294,3.294,0,0,0-.5.057,2.05,2.05,0,0,0-.438.123,5.557,5.557,0,0,0-.7.321,7.672,7.672,0,0,0-1,.706c-.166.133-.327.273-.481.42l-.067.066a1.2,1.2,0,0,0-.341.824,1.186,1.186,0,0,0,.341.824,1.172,1.172,0,0,0,.824.341,1.21,1.21,0,0,0,.824-.341" transform="translate(-9819.013 8894.166)" fill="#060000"/>
        <path id="パス_20937" data-name="パス 20937" d="M479.3,24.527c-.054-.994-.095-1.988-.13-2.982-.067-1.9-.114-3.8-.079-5.695a22.537,22.537,0,0,1,.152-2.561l-.042.31a3.236,3.236,0,0,1,.179-.8l-.117.278a.66.66,0,0,1,.076-.139l-.182.236a13.8,13.8,0,0,1,1.55-1.546c.708-.655,1.429-1.3,2.154-1.933.444-.39.9-.771,1.339-1.164a3.464,3.464,0,0,0,.545-.836,21.363,21.363,0,0,1,1.413-2.071l-.182.236a14.092,14.092,0,0,1,2.454-2.531l-.236.182a7.424,7.424,0,0,1,1.6-.964l-.278.117a4.9,4.9,0,0,1,1.227-.344l-.31.042a4.422,4.422,0,0,1,1.154.012l-.31-.042a15.193,15.193,0,0,1,2.271.523c.97.288,1.925.626,2.87.989q.888.341,1.764.712l-.278-.117q2.215.936,4.359,2.03c1.331.68,2.644,1.4,3.906,2.206.594.378,1.177.774,1.735,1.2l-.236-.182a8.052,8.052,0,0,1,1.454,1.366l-.182-.236a4.17,4.17,0,0,1,.523.922l-.117-.278a11.6,11.6,0,0,1,.717,2.953l-.042-.31a36.885,36.885,0,0,1,.262,5.243q-.02,2.006-.167,4.008c-.018.251-.037.5-.061.753a1.168,1.168,0,0,0,.341.824,1.165,1.165,0,0,0,1.648,0,1.318,1.318,0,0,0,.341-.824c.072-.76.116-1.524.153-2.286.081-1.667.108-3.34.038-5.008-.038-.894-.1-1.788-.221-2.675a15.708,15.708,0,0,0-.522-2.631A6.378,6.378,0,0,0,510.766,9.4a7.753,7.753,0,0,0-1.26-1.208A31.333,31.333,0,0,0,505.034,5.3c-1.76-.968-3.572-1.845-5.415-2.643A48.783,48.783,0,0,0,494.238.63a17,17,0,0,0-2.031-.5A7.58,7.58,0,0,0,490.989,0a5.375,5.375,0,0,0-1.511.217,10.078,10.078,0,0,0-4.629,3.361,21.589,21.589,0,0,0-2.34,3.338c-.033.058-.065.116-.1.175l.182-.236q-1.443,1.237-2.855,2.512c-.609.551-1.218,1.1-1.793,1.69a4.3,4.3,0,0,0-.637.743,2.414,2.414,0,0,0-.263.686,11.326,11.326,0,0,0-.226,1.891c-.045.761-.059,1.525-.063,2.287-.009,1.657.033,3.315.092,4.971.034.95.067,1.9.124,2.849,0,.014,0,.029,0,.043a1.231,1.231,0,0,0,.341.824,1.165,1.165,0,0,0,1.989-.824" transform="translate(-9444.028 9171.552)" fill="#060000"/>
        <path id="パス_20938" data-name="パス 20938" d="M627.476,83.855a2.4,2.4,0,0,1,.229-.194l-.236.182a7.094,7.094,0,0,1,1.2-.732q.273-.135.553-.252l-.278.117a13.838,13.838,0,0,1,2.738-.809q.507-.1,1.019-.166l-.31.042a22.679,22.679,0,0,1,2.991-.19,1.2,1.2,0,0,0,.824-.341,1.165,1.165,0,0,0,0-1.648,1.21,1.21,0,0,0-.824-.341,24.235,24.235,0,0,0-3.583.272,15.759,15.759,0,0,0-2.465.563,13.1,13.1,0,0,0-1.939.79,7.3,7.3,0,0,0-.981.59,5.287,5.287,0,0,0-.586.465l0,0a1.2,1.2,0,0,0-.341.824,1.185,1.185,0,0,0,.341.824,1.172,1.172,0,0,0,.824.341,1.215,1.215,0,0,0,.824-.341" transform="translate(-9581.207 9098.205)" fill="#060000"/>
        <path id="パス_20939" data-name="パス 20939" d="M709.219,125.837a7.62,7.62,0,0,1,.923-.2q.288-.05.578-.089l-.31.042a19.975,19.975,0,0,1,4.026-.1q.765.054,1.526.157l-.31-.042.19.026a.884.884,0,0,0,.465.021.868.868,0,0,0,.433-.138,1.165,1.165,0,0,0,.418-1.594l-.182-.236a1.165,1.165,0,0,0-.514-.3,23.885,23.885,0,0,0-4.7-.248,17.1,17.1,0,0,0-2.77.361c-.133.03-.266.06-.4.1a1.22,1.22,0,0,0-.7.535,1.165,1.165,0,0,0,1.316,1.712" transform="translate(-9657.073 9058.014)" fill="#060000"/>
        <path id="パス_20940" data-name="パス 20940" d="M690.332,338.11v6.128a1.2,1.2,0,0,0,.341.824,1.165,1.165,0,0,0,1.648,0,1.211,1.211,0,0,0,.341-.824V338.11a1.2,1.2,0,0,0-.341-.824,1.165,1.165,0,0,0-1.648,0,1.211,1.211,0,0,0-.341.824" transform="translate(-9641.015 8860.78)" fill="#060000"/>
        <path id="パス_20941" data-name="パス 20941" d="M598.781,339.028a1.2,1.2,0,0,0,.824-.341,1.165,1.165,0,0,0,0-1.648,1.165,1.165,0,0,0-1.648,0,1.165,1.165,0,0,0,0,1.648,1.211,1.211,0,0,0,.824.341" transform="translate(-9555.5 8861.008)" fill="#060000"/>
        <path id="パス_20942" data-name="パス 20942" d="M784.2,339.028a1.2,1.2,0,0,0,.824-.341,1.166,1.166,0,0,0,0-1.648,1.166,1.166,0,0,0-1.648,0,1.165,1.165,0,0,0,0,1.648,1.211,1.211,0,0,0,.824.341" transform="translate(-9726.512 8861.008)" fill="#060000"/>
        <path id="パス_20943" data-name="パス 20943" d="M609.772,483.926c.193-.017.387-.03.581-.042.549-.036,1.1-.062,1.649-.083q1.294-.049,2.589-.056,1.683-.011,3.366.038,2.008.058,4.012.2l.538.039-1.006-1.753c-.139.2-.287.393-.435.585l.182-.236a20.937,20.937,0,0,1-2.327,2.575c-.281.259-.571.508-.873.742l.236-.182a7.353,7.353,0,0,1-1.59.967l.278-.117a3.8,3.8,0,0,1-.947.272l.31-.042a2.7,2.7,0,0,1-.714,0l.31.042a3.5,3.5,0,0,1-.871-.248l.278.117a6.221,6.221,0,0,1-1.345-.814l.236.182a13.629,13.629,0,0,1-2.1-2.085q-.241-.29-.471-.588l.182.236c-.353-.457-.692-.927-1.005-1.413l-.057-.089a1.219,1.219,0,0,0-.7-.536,1.192,1.192,0,0,0-.9.118,1.176,1.176,0,0,0-.535.7,1.193,1.193,0,0,0,.117.9,21.158,21.158,0,0,0,1.493,2.055,17.012,17.012,0,0,0,1.392,1.545,10.371,10.371,0,0,0,1.884,1.488,5.024,5.024,0,0,0,2.306.748,3.949,3.949,0,0,0,1.153-.133,5.894,5.894,0,0,0,1.155-.45,9.847,9.847,0,0,0,1.954-1.352,16.842,16.842,0,0,0,1.53-1.486,23.9,23.9,0,0,0,1.855-2.288l.024-.033a1.152,1.152,0,0,0,0-1.176,1.172,1.172,0,0,0-.418-.418,1.16,1.16,0,0,0-.588-.159q-2.039-.154-4.083-.223-1.727-.058-3.454-.054-1.348,0-2.7.048c-.591.02-1.181.047-1.771.083-.241.015-.481.03-.721.051h-.009a1.3,1.3,0,0,0-.824.341,1.165,1.165,0,0,0,0,1.648,1.141,1.141,0,0,0,.824.341" transform="translate(-9565.637 8727.534)" fill="#060000"/>
        <path id="パス_20944" data-name="パス 20944" d="M561.782,278.165a9.358,9.358,0,0,1,1.694-.366l-.31.042a8.874,8.874,0,0,1,2.341-.023l-.31-.042a5.948,5.948,0,0,1,1.235.3.881.881,0,0,0,.465.021.867.867,0,0,0,.433-.138,1.165,1.165,0,0,0,.418-1.594l-.182-.236a1.165,1.165,0,0,0-.514-.3,7.276,7.276,0,0,0-1.731-.366,8.341,8.341,0,0,0-1.389-.029,12.366,12.366,0,0,0-2.383.372c-.129.034-.259.068-.385.111a1.233,1.233,0,0,0-.7.535,1.19,1.19,0,0,0-.117.9,1.166,1.166,0,0,0,1.433.814" transform="translate(-9521.089 8917.525)" fill="#060000"/>
        <path id="パス_20945" data-name="パス 20945" d="M759.25,275.915a8.584,8.584,0,0,0-1.141-.278,10.68,10.68,0,0,0-2.862-.191,7.311,7.311,0,0,0-1.886.381,1.3,1.3,0,0,0-.7.536,1.165,1.165,0,0,0,.418,1.594,1.149,1.149,0,0,0,.9.117,5.949,5.949,0,0,1,1.235-.3l-.31.042a8.874,8.874,0,0,1,2.341.023l-.31-.042a9.365,9.365,0,0,1,1.694.366,1.165,1.165,0,0,0,1.316-1.712,1.273,1.273,0,0,0-.7-.535" transform="translate(-9698.357 8917.529)" fill="#060000"/>
        <path id="パス_20946" data-name="パス 20946" d="M501.7,185.55l-.249,1.041-.6,2.489-.72,3.009-.623,2.6c-.1.422-.205.843-.3,1.265l0,.018a1.223,1.223,0,0,0,.117.9,1.165,1.165,0,0,0,2.13-.278l.249-1.041.6-2.489.721-3.009.623-2.6c.1-.422.205-.842.3-1.265l0-.018a1.223,1.223,0,0,0-.117-.9,1.166,1.166,0,0,0-2.13.278" transform="translate(-9464.7 9001.199)" fill="#060000"/>
        <path id="パス_20947" data-name="パス 20947" d="M42.964,606.616l.279,5.647.341-.824-4.617,3.629.514-.3q-1.459.432-2.916.871-3.517,1.057-7.027,2.137-4.286,1.32-8.557,2.688c-2.512.809-5.022,1.63-7.5,2.526-.9.324-1.792.659-2.671,1.03a6.31,6.31,0,0,0-1.69.9,10.209,10.209,0,0,0-2.4,3.822A47.3,47.3,0,0,0,4.5,635.486c-.732,2.834-1.316,5.706-1.822,8.588-.585,3.336-1.058,6.692-1.451,10.056q-.6,5.129-.919,10.287c-.2,3.3-.319,6.612-.307,9.92.01,2.916.114,5.837.411,8.739a36.9,36.9,0,0,0,1.261,7c.526,1.728,1.22,3.482,2.894,4.383a9.7,9.7,0,0,0,5.619.751,35.915,35.915,0,0,0,7.349-1.709c2.777-.914,5.491-2.018,8.166-3.2,2.6-1.142,5.152-2.37,7.68-3.652q3.149-1.6,6.241-3.306,1.833-1.012,3.644-2.064.244-.142.487-.286a1.165,1.165,0,1,0-1.176-2.012c-.762.454-1.532.893-2.3,1.329q-2.933,1.659-5.92,3.22c-2.649,1.385-5.329,2.714-8.047,3.959q-1.081.495-2.17.97-.545.237-1.093.47c-.207.088.174-.072-.034.014l-.274.115-.586.242c-1.428.585-2.869,1.139-4.328,1.643-1.354.468-2.723.9-4.112,1.249-.635.162-1.274.308-1.917.432q-.455.088-.914.16l-.191.029-.1.015c.22-.034-.051.006-.1.012l-.247.029a15.831,15.831,0,0,1-1.641.1c-.244,0-.488,0-.731-.017q-.182-.01-.363-.027c-.081-.008-.458-.052-.221-.022s-.13-.023-.207-.037q-.163-.03-.325-.068a5.945,5.945,0,0,1-.61-.176c-.065-.023-.4-.156-.165-.059s-.081-.04-.149-.075a4.868,4.868,0,0,1-.494-.3c-.281-.187.177.165-.019-.014-.069-.063-.14-.123-.207-.188s-.128-.135-.191-.2c-.212-.233.124.2-.016-.017a5.025,5.025,0,0,1-.295-.5c-.049-.1-.095-.195-.139-.293l-.068-.152c-.094-.206.046.114.032.078a21.766,21.766,0,0,1-.918-2.961c-.137-.589-.254-1.181-.358-1.777q-.083-.476-.155-.955-.037-.247-.071-.493c-.006-.046-.039-.292-.013-.1s-.015-.117-.022-.171c-.185-1.453-.31-2.913-.4-4.375-.2-3.371-.211-6.752-.115-10.127.1-3.7.339-7.4.677-11.089q.256-2.793.593-5.577.083-.688.172-1.375.041-.318.083-.635c.008-.063.048-.363.031-.234-.02.146,0-.017.005-.039l.033-.242q.184-1.343.388-2.683c.5-3.3,1.1-6.6,1.857-9.852a57.851,57.851,0,0,1,2.228-7.63c.1-.252.2-.5.3-.753.095-.231-.038.086-.02.048.026-.058.05-.117.076-.176q.075-.171.152-.341c.19-.416.393-.827.617-1.226a10.832,10.832,0,0,1,.628-.99c.026-.036.054-.07.079-.106s-.215.264-.08.1c.053-.063.1-.128.159-.19.1-.116.213-.221.319-.332.152-.158-.107.084-.13.094.039-.019.073-.052.111-.074.1-.058.2-.116.3-.169.134-.069.27-.132.408-.195l.24-.107.11-.048c.225-.1-.224.092-.085.036.951-.385,1.91-.746,2.877-1.09,2.782-.991,5.593-1.9,8.406-2.8q4.578-1.461,9.176-2.86,3.31-1.012,6.626-2c.439-.131.886-.246,1.32-.393a2.6,2.6,0,0,0,.765-.471l1.389-1.091c.982-.772,2.043-1.5,2.97-2.335a1.486,1.486,0,0,0,.377-1.354l-.1-2q-.078-1.581-.156-3.162a1.19,1.19,0,0,0-1.165-1.165,1.176,1.176,0,0,0-1.165,1.165" transform="translate(-9004.308 8613.132)" fill="#060000"/>
        <path id="パス_20948" data-name="パス 20948" d="M825.249,606.616l-.161,3.25-.1,1.955a1.446,1.446,0,0,0,.39,1.321c.932.816,1.961,1.541,2.935,2.307l1.4,1.1a2.658,2.658,0,0,0,.777.484c1.3.441,2.636.783,3.948,1.177q4.074,1.224,8.137,2.481c3.049.945,6.094,1.9,9.125,2.906,2.312.764,4.636,1.526,6.893,2.444.091.037.182.076.273.113-.338-.135-.1-.042.049.023s.3.133.448.2c.21.1.4.242.613.341.031.015-.271-.256-.144-.108.036.042.081.079.12.12.083.088.151.2.238.28-.032-.03-.206-.283-.1-.131.017.025.036.049.053.073.044.065.09.129.133.195.084.128.163.259.239.391.177.309.337.628.487.951q.059.127.115.254c.031.07.167.387.073.167s.037.09.065.16q.063.155.123.311c.362.932.671,1.883.956,2.84.724,2.431,1.29,4.908,1.8,7.393.614,3.021,1.127,6.062,1.574,9.111q.18,1.228.346,2.458c-.028-.208-.008-.063.007.052s.028.211.042.317q.042.318.083.635.079.616.155,1.232.312,2.535.566,5.076c.333,3.327.594,6.662.766,10,.159,3.095.243,6.195.2,9.293a68.779,68.779,0,0,1-.488,7.724c-.024.19-.027.051.009-.068a1.41,1.41,0,0,0-.029.209q-.029.205-.061.411-.059.382-.127.763c-.086.479-.183.957-.3,1.431-.1.422-.216.842-.351,1.255q-.09.276-.193.548c-.031.083-.067.164-.1.247-.059.161.133-.3.048-.114-.019.041-.036.083-.055.124a6.3,6.3,0,0,1-.466.86c-.038.058-.08.114-.119.172-.152.226.217-.248.022-.029-.087.1-.171.2-.267.285-.043.04-.092.076-.134.118-.116.116.247-.166.141-.108-.026.014-.049.037-.075.053-.172.1-.344.2-.524.291l-.159.075c-.241.114.017-.032.033-.01-.006-.009-.367.142-.4.152-.268.1-.542.177-.817.248-.3.078-.607.142-.914.2-.148.026-.3.045-.446.07.162-.028.2-.025.029,0l-.285.032a20.13,20.13,0,0,1-2.081.1c-.74,0-1.48-.033-2.218-.09q-.6-.046-1.205-.112-.285-.031-.57-.066l-.266-.034-.177-.023c.086.011.187.026.042.005a76.948,76.948,0,0,1-10.15-2.249c-3.093-.883-6.15-1.894-9.175-2.99q-2.914-1.056-5.786-2.227l-.595-.247c-.294-.123.315.134.051.021a1.2,1.2,0,0,0-1.594.418,1.173,1.173,0,0,0,.418,1.594c.969.414,1.947.807,2.927,1.193q3.359,1.32,6.776,2.485c2.955,1.008,5.941,1.929,8.965,2.707a63.8,63.8,0,0,0,9.44,1.774,20.41,20.41,0,0,0,7.806-.409A6.57,6.57,0,0,0,867,693.3a5.151,5.151,0,0,0,1.089-1.493,16.293,16.293,0,0,0,1.4-4.771,56.048,56.048,0,0,0,.645-6.9c.107-2.717.09-5.438.008-8.155-.092-3.017-.27-6.03-.509-9.039q-.371-4.655-.938-9.293c-.373-3.056-.8-6.106-1.306-9.143-.441-2.655-.937-5.3-1.528-7.927-.478-2.121-1.01-4.235-1.693-6.3a18.448,18.448,0,0,0-1.869-4.3,4.351,4.351,0,0,0-1.222-1.333,10.659,10.659,0,0,0-1.774-.827c-2.02-.829-4.1-1.52-6.169-2.21-2.753-.919-5.519-1.8-8.29-2.663q-3.963-1.238-7.938-2.437-2.562-.775-5.127-1.536l-.711-.21.514.3-4.618-3.629.341.824.279-5.647a1.165,1.165,0,1,0-2.33,0" transform="translate(-9765.205 8613.132)" fill="#060000"/>
        <path id="パス_20949" data-name="パス 20949" d="M641.509,1292.459c-.229-.271-.448-.551-.665-.831l.182.236a18.338,18.338,0,0,1-2.468-3.911l.117.278a12.157,12.157,0,0,1-.65-2.967q-.079-.544-.152-1.089l.042.31c-.265-1.974-.491-3.953-.707-5.933-.115-1.05-.22-2.1-.332-3.151a1.935,1.935,0,0,0-.323-.9,2.819,2.819,0,0,0-1.088-1,3.368,3.368,0,0,0-1.147-.317,3.738,3.738,0,0,0-1.094.075,3.465,3.465,0,0,0-1.689.776,4.654,4.654,0,0,0-1.237,2.386,15.878,15.878,0,0,0-.4,2.992,29.648,29.648,0,0,0,.066,4.024c0,.022,0,.044.006.066l1.753-1.006c-.365-.195-.734-.384-1.1-.572q-1.279-.65-2.579-1.257c-1.054-.49-2.121-.96-3.211-1.363a7.852,7.852,0,0,0-2.551-.619,2.194,2.194,0,0,0-.63.078,1.954,1.954,0,0,0-.853.555,5.579,5.579,0,0,0-1.305,1.962c-.01.026-.019.052-.027.079l1.712-.7a13.323,13.323,0,0,0-2.779-.987,5.078,5.078,0,0,0-2.309-.08,2.28,2.28,0,0,0-1.089.612,2.249,2.249,0,0,0-.4.591,4.233,4.233,0,0,0-.359,1.021,3.942,3.942,0,0,0,.064,1.856,2.963,2.963,0,0,0,.342.792l1.316-1.712a5.777,5.777,0,0,0-2.542-.01,2.853,2.853,0,0,0-1.743,1.2,3.085,3.085,0,0,0-.4,1.181,8.679,8.679,0,0,0-.141,1.529,6.433,6.433,0,0,0,.2,1.662l.814-1.433a5.7,5.7,0,0,0-1.6.5,2.847,2.847,0,0,0-1.155.965,1.981,1.981,0,0,0-.236,1.676,4.961,4.961,0,0,0,.943,1.5c.436.545.911,1.06,1.393,1.564,1.263,1.321,2.6,2.572,3.987,3.764q1.136.978,2.33,1.885a19.112,19.112,0,0,0,1.87,1.281,15.959,15.959,0,0,0,4.476,1.568c1.747.409,3.516.72,5.289.994,1.131.175,2.266.335,3.4.472a1.82,1.82,0,0,0,.9-.252c.377-.161.747-.338,1.11-.528a16.926,16.926,0,0,0,3.705-2.6,10.327,10.327,0,0,0,3.017-4.776,9.149,9.149,0,0,0,.267-1.621,1.172,1.172,0,0,0-.341-.824,1.166,1.166,0,0,0-1.648,0,1.3,1.3,0,0,0-.341.824q-.017.207-.044.413l.042-.31a7.545,7.545,0,0,1-.517,1.874l.117-.278a8.864,8.864,0,0,1-1.156,1.952l.182-.236a12.352,12.352,0,0,1-2.208,2.166l.236-.182a16.9,16.9,0,0,1-3.12,1.9c-.167.078-.335.154-.5.225l.278-.118c-.073.031-.146.061-.22.089l.31-.042c-.367-.043-.733-.091-1.1-.141l.31.042q-1.942-.261-3.874-.595c-1.553-.27-3.105-.575-4.628-.985a16.793,16.793,0,0,1-2.124-.7l.278.118a14.056,14.056,0,0,1-3.034-1.931l.236.182c-1.15-.89-2.251-1.842-3.321-2.826-1-.923-1.984-1.874-2.911-2.874-.388-.419-.77-.847-1.119-1.3l.182.236a3.644,3.644,0,0,1-.5-.772l.117.278a.976.976,0,0,1-.061-.226l.042.31a.948.948,0,0,1,0-.227l-.042.31a.9.9,0,0,1,.055-.205l-.117.278a1.026,1.026,0,0,1,.132-.222l-.182.236a1.464,1.464,0,0,1,.25-.24l-.236.182a2.675,2.675,0,0,1,.557-.312l-.278.118a4.917,4.917,0,0,1,1.22-.335,1.151,1.151,0,0,0,.7-.536,1.209,1.209,0,0,0,.117-.9,3.92,3.92,0,0,1-.1-.522l.042.31a6.919,6.919,0,0,1,.007-1.828l-.042.31a3.763,3.763,0,0,1,.208-.918l-.117.279a1.446,1.446,0,0,1,.176-.3l-.182.236a1.476,1.476,0,0,1,.233-.232l-.236.182a1.793,1.793,0,0,1,.377-.22l-.278.117a2.718,2.718,0,0,1,.675-.178l-.31.042a4.934,4.934,0,0,1,1.295.013l-.31-.042c.108.015.216.031.323.054a1.181,1.181,0,0,0,1.225-.417,1.157,1.157,0,0,0,.091-1.294,1.584,1.584,0,0,1-.132-.256l.117.279a2.649,2.649,0,0,1-.179-.662l.042.31a2.813,2.813,0,0,1,0-.7l-.042.31a3.122,3.122,0,0,1,.217-.776l-.117.279a1.923,1.923,0,0,1,.211-.393l-.182.236a1.017,1.017,0,0,1,.169-.168l-.236.182a1.2,1.2,0,0,1,.25-.142l-.278.118a1.762,1.762,0,0,1,.42-.108l-.31.042a3.58,3.58,0,0,1,.922.018l-.31-.042a10.712,10.712,0,0,1,2.677.8l-.278-.118c.129.054.257.11.384.17a1.192,1.192,0,0,0,1.037.059,1.144,1.144,0,0,0,.675-.755,1.369,1.369,0,0,1,.061-.164l-.117.278a3.951,3.951,0,0,1,.5-.832l-.182.236a4.046,4.046,0,0,1,.661-.717l-.236.182a.438.438,0,0,1,.091-.051l-.278.117a.754.754,0,0,1,.172-.044l-.31.042a1.936,1.936,0,0,1,.508.014l-.31-.042a10.693,10.693,0,0,1,2.377.721q.412.161.82.334l-.278-.118c.984.416,1.953.867,2.913,1.335q1.04.507,2.067,1.041l.373.2a1.189,1.189,0,0,0,1.176,0,1.147,1.147,0,0,0,.577-1.006,28.841,28.841,0,0,1-.083-3.845c.024-.575.068-1.149.144-1.719l-.042.31a8.314,8.314,0,0,1,.515-2.108l-.117.278a3.235,3.235,0,0,1,.4-.709l-.182.236a1.9,1.9,0,0,1,.319-.325l-.236.182a1.43,1.43,0,0,1,.305-.18l-.278.117a3.922,3.922,0,0,1,.954-.26l-.31.042a2.573,2.573,0,0,1,.656,0l-.31-.042a1.925,1.925,0,0,1,.459.123l-.278-.117a1.737,1.737,0,0,1,.367.212l-.236-.182a1.758,1.758,0,0,1,.3.3l-.182-.236a1.653,1.653,0,0,1,.212.355l-.117-.278c.007.016.014.033.02.05l-.042-.31q.1,1,.208,2,.235,2.2.494,4.4c.187,1.567.38,3.134.623,4.693.077.493.156.988.269,1.475a8.518,8.518,0,0,0,.956,2.252,27.068,27.068,0,0,0,2.709,3.816l.056.067a1.172,1.172,0,0,0,.824.341,1.186,1.186,0,0,0,.824-.341,1.172,1.172,0,0,0,.341-.824,1.31,1.31,0,0,0-.341-.824" transform="translate(-9566.064 7997.28)" fill="#060000"/>
        <path id="パス_20950" data-name="パス 20950" d="M422.78,1141.053a12.738,12.738,0,0,1-1.764,1.717l.236-.182a11.838,11.838,0,0,1-1.87,1.085q-1.051.532-2.136.993l.278-.117a21.19,21.19,0,0,1-5.335,1.565l.31-.042a9.623,9.623,0,0,1-2.482.038l.31.042a5.664,5.664,0,0,1-1.424-.372l.278.117a4.139,4.139,0,0,1-.889-.511l.236.182a3.557,3.557,0,0,1-.632-.632l.182.236a3.676,3.676,0,0,1-.451-.786l.117.278a4.492,4.492,0,0,1-.288-1.093l.042.31a6.561,6.561,0,0,1,.015-1.687l-.042.31a10.5,10.5,0,0,1,.75-2.657l-.117.278c.186-.439.4-.859.627-1.278a1.873,1.873,0,0,0,.161-.392q.083-.3.168-.6.371-1.322.754-2.641.552-1.905,1.129-3.8c.414-1.357.838-2.71,1.286-4.056.379-1.139.77-2.276,1.22-3.39q.068-.169.139-.336l-.117.278a6.415,6.415,0,0,1,.729-1.419l-.182.236a.879.879,0,0,1,.148-.156l-.236.182a3.085,3.085,0,0,1,.628-.318l-.278.118a5.691,5.691,0,0,1,1.416-.394l-.31.042a3.242,3.242,0,0,1,.432-.035,1.184,1.184,0,0,0,1.124-.855c.259-.986.569-1.961.912-2.921.156-.437.323-.871.5-1.3l-.117.278a8.641,8.641,0,0,1,1.035-1.921l-.182.236a2.251,2.251,0,0,1,.387-.4l-.236.182a1.065,1.065,0,0,1,.216-.129l-.278.117a.706.706,0,0,1,.168-.046l-.31.042a6.18,6.18,0,0,1,.865.031q.46.017.921.024c.265,0,.53.007.8,0a1.158,1.158,0,0,0,1.006-.577,9.486,9.486,0,0,1,.984-1.6l-.182.236a3.75,3.75,0,0,1,.616-.649l-.236.182a1.517,1.517,0,0,1,.3-.187l-.278.117a.921.921,0,0,1,.2-.058l-.31.042a1.59,1.59,0,0,1,.4.014l-.31-.041a2.794,2.794,0,0,1,.643.184l-.278-.117a3.551,3.551,0,0,1,.756.443l-.236-.182.069.055a1.166,1.166,0,0,0,1.138.3l-.31.042a2.109,2.109,0,0,1,.538.006l-.31-.042a2.1,2.1,0,0,1,.514.135l-.278-.117a1.71,1.71,0,0,1,.364.211l-.236-.182a1.624,1.624,0,0,1,.257.256l-.182-.236a1.766,1.766,0,0,1,.224.388l-.117-.278a2.291,2.291,0,0,1,.14.529l-.042-.31a5.262,5.262,0,0,1-.088,1.352l.042-.31c-.139,1.03-.333,2.052-.533,3.072-.252,1.286-.524,2.568-.8,3.849s-.568,2.553-.862,3.828q-.347,1.505-.7,3.008c-.11.464-.229.926-.334,1.391l0,.019a1.167,1.167,0,0,0,2.13.9c.4-.615.843-1.21,1.292-1.792l-.182.236a16.354,16.354,0,0,1,2.81-2.993l-.236.182a4.424,4.424,0,0,1,.938-.573l-.278.117a2.024,2.024,0,0,1,.479-.139l-.31.042a1.275,1.275,0,0,1,.337,0l-.31-.041a2.538,2.538,0,0,1,.558.175l-.278-.117a3.127,3.127,0,0,1,.653.373l-.236-.182a2.724,2.724,0,0,1,.475.469l-.182-.236a2.707,2.707,0,0,1,.34.581l-.117-.278a2.529,2.529,0,0,1,.176.63l-.042-.31c0,.031.008.062.009.093l.341-.824a9.3,9.3,0,0,0-.814,1,20.69,20.69,0,0,0-1.6,2.57,1.165,1.165,0,0,0,2.012,1.176,19.972,19.972,0,0,1,1.75-2.762l-.182.236c.154-.2.317-.388.485-.575a1.6,1.6,0,0,0,.18-1.689,3.7,3.7,0,0,0-1.116-1.683,4.6,4.6,0,0,0-1.369-.777,2.417,2.417,0,0,0-.958-.171,5.164,5.164,0,0,0-3.067,1.685,22.923,22.923,0,0,0-2.395,2.765c-.407.533-.8,1.076-1.172,1.636l2.13.9q.244-1,.479-2,.551-2.329,1.075-4.663c.395-1.762.779-3.526,1.128-5.3a38.889,38.889,0,0,0,.678-4.2,3.27,3.27,0,0,0-.42-2.041,2.946,2.946,0,0,0-2.648-1.328c-.146.007-.293.032-.436.052l1.134.3a2.833,2.833,0,0,0-4.591.135,10.8,10.8,0,0,0-.874,1.269c-.119.2-.235.412-.339.625l1.006-.577c-.272.005-.545,0-.817,0q-.48-.007-.959-.025a4.89,4.89,0,0,0-1.115.013,3,3,0,0,0-1.774,1.561,15.116,15.116,0,0,0-1.126,2.445c-.289.754-.545,1.521-.781,2.294-.125.408-.246.818-.354,1.23l1.124-.855a5.337,5.337,0,0,0-1.268.175,7.165,7.165,0,0,0-1.226.437,3.016,3.016,0,0,0-.815.482,3.4,3.4,0,0,0-.705,1.04,33.186,33.186,0,0,0-1.558,3.987c-.573,1.675-1.1,3.365-1.617,5.058q-.7,2.289-1.352,4.59c-.217.756-.448,1.511-.642,2.273,0,.011-.006.022-.009.032l.117-.279a11.9,11.9,0,0,0-1.612,5.141,5.915,5.915,0,0,0,.339,2.439,4.694,4.694,0,0,0,.6,1.138,5.159,5.159,0,0,0,1.135,1.114,5.478,5.478,0,0,0,2.289.905,9.9,9.9,0,0,0,2.73.07,21.819,21.819,0,0,0,6.063-1.7q1.551-.655,3.036-1.448a10.135,10.135,0,0,0,2.524-1.947c.2-.209.394-.423.585-.641a1.236,1.236,0,0,0,.341-.824,1.165,1.165,0,0,0-1.989-.824" transform="translate(-9377.957 8147.149)" fill="#060000"/>
        <path id="パス_20951" data-name="パス 20951" d="M557.018,680.126l1.028.821,2.468,1.973,2.986,2.387,2.582,2.064,1.256,1,.018.014a1.3,1.3,0,0,0,.824.341l.31-.042a1.164,1.164,0,0,0,.514-.3l1.046-.823,2.51-1.977,3.035-2.39,2.609-2.054c.425-.335.857-.661,1.275-1l.018-.014a1.164,1.164,0,0,0,.341-.824,1.186,1.186,0,0,0-.341-.824,1.172,1.172,0,0,0-.824-.341l-.31.042a1.164,1.164,0,0,0-.514.3l-1.046.823-2.51,1.977-3.035,2.39-2.609,2.055c-.425.335-.854.665-1.275,1l-.018.014H569l-1.027-.821-2.468-1.973-2.986-2.387-2.582-2.064-1.256-1-.018-.014a1.3,1.3,0,0,0-.824-.341,1.186,1.186,0,0,0-.824.341,1.172,1.172,0,0,0-.341.824,1.13,1.13,0,0,0,.341.824" transform="translate(-9517.74 8546.093)" fill="#060000"/>
        <path id="パス_20952" data-name="パス 20952" d="M497.225,726.333l.131.377.355,1.021.528,1.516.641,1.841.706,2.026.709,2.036.664,1.907.559,1.6.4,1.159c.063.182.126.365.19.547l.008.024a1.167,1.167,0,0,0,.814.814,1.185,1.185,0,0,0,1.134-.3l.731-.688,1.747-1.646,2.112-1.99,1.831-1.725c.295-.278.594-.552.885-.834l.013-.012a1.165,1.165,0,0,0,0-1.648,1.172,1.172,0,0,0-.824-.341,1.245,1.245,0,0,0-.824.341l-.731.688-1.747,1.646-2.112,1.99-1.831,1.725c-.295.278-.594.552-.885.833l-.013.012,1.948.514-.131-.377-.356-1.021-.528-1.516-.641-1.841-.706-2.026-.709-2.036-.664-1.907-.559-1.6-.4-1.159c-.063-.182-.126-.365-.19-.547l-.008-.024a1.242,1.242,0,0,0-.536-.7,1.165,1.165,0,0,0-1.594.418,1.159,1.159,0,0,0-.117.9" transform="translate(-9462.865 8503.001)" fill="#060000"/>
        <path id="パス_20953" data-name="パス 20953" d="M728.04,733.641l.7.73,1.682,1.745,2.04,2.117,1.758,1.824c.285.3.566.6.855.887l.012.013a1.166,1.166,0,0,0,1.947-.514l.137-.377.373-1.025.549-1.508.672-1.848.733-2.015.743-2.043.693-1.905.585-1.61.419-1.153c.066-.183.135-.365.2-.549l.008-.023a.881.881,0,0,0,.021-.465.867.867,0,0,0-.138-.433,1.165,1.165,0,0,0-1.594-.418l-.236.182a1.165,1.165,0,0,0-.3.514l-.137.377-.373,1.025-.548,1.508-.672,1.848-.733,2.015-.743,2.043L736,736.488l-.585,1.61L735,739.25c-.067.183-.135.365-.2.549l-.009.024,1.948-.514-.7-.73-1.682-1.745-2.04-2.117-1.758-1.824c-.285-.3-.566-.6-.855-.887l-.012-.013a1.165,1.165,0,0,0-1.648,0,1.173,1.173,0,0,0-.341.824,1.234,1.234,0,0,0,.341.824" transform="translate(-9675.478 8502.947)" fill="#060000"/>
        <path id="パス_20957" data-name="パス 20957" d="M201.072,1381.619l-.387.106-1.083.3-1.642.444q-1.039.279-2.078.555-1.2.318-2.4.631-1.285.335-2.573.663-1.314.334-2.63.659-1.284.316-2.572.62-1.18.278-2.364.537c-.679.148-1.359.29-2.042.419l-.439.081a1.173,1.173,0,0,0-.7.536,1.165,1.165,0,0,0,.418,1.594l.278.118a1.173,1.173,0,0,0,.62,0c.65-.116,1.3-.247,1.943-.384.771-.164,1.54-.337,2.308-.515q1.264-.293,2.524-.6,1.314-.321,2.624-.653t2.61-.668q1.223-.317,2.445-.64,1.084-.286,2.166-.576l1.768-.477,1.227-.334c.189-.052.379-.1.568-.156l.024-.007a1.207,1.207,0,0,0,.7-.535,1.191,1.191,0,0,0,.117-.9,1.179,1.179,0,0,0-.536-.7,1.211,1.211,0,0,0-.9-.117" transform="translate(-9170.332 7897.293)" fill="#060000"/>
        <path id="パス_20958" data-name="パス 20958" d="M247.777,994.445l.056.891.154,2.426.227,3.588q.138,2.18.276,4.361l.3,4.775.306,4.837.285,4.51.241,3.809.173,2.729c.027.432.052.863.082,1.295,0,.019,0,.037,0,.056a1.235,1.235,0,0,0,.341.824,1.165,1.165,0,0,0,1.989-.824l-.056-.892L252,1024.4l-.227-3.588-.276-4.361-.3-4.775q-.153-2.418-.306-4.837l-.285-4.51-.241-3.809-.173-2.729c-.027-.432-.052-.863-.082-1.295,0-.019,0-.037,0-.056a1.236,1.236,0,0,0-.341-.824,1.165,1.165,0,0,0-1.989.824" transform="translate(-9232.836 8255.43)" fill="#060000"/>
        <path id="パス_20959" data-name="パス 20959" d="M1110.219,970.042l-.079,1.083q-.107,1.474-.215,2.948-.159,2.18-.318,4.36l-.386,5.3q-.212,2.9-.423,5.8l-.429,5.878q-.2,2.74-.4,5.48l-.338,4.629q-.121,1.658-.242,3.317c-.038.524-.085,1.049-.115,1.573,0,.023,0,.046,0,.068a1.171,1.171,0,0,0,1.165,1.165,1.194,1.194,0,0,0,1.165-1.165q.039-.542.079-1.083.107-1.474.215-2.948.159-2.18.318-4.36.193-2.65.386-5.3.211-2.9.423-5.8l.428-5.877q.2-2.74.4-5.48.169-2.315.337-4.629.121-1.659.242-3.317c.038-.524.085-1.048.115-1.573,0-.023,0-.046,0-.068a1.171,1.171,0,0,0-1.165-1.165,1.193,1.193,0,0,0-1.165,1.165" transform="translate(-10025.563 8277.938)" fill="#060000"/>
        <path id="パス_20960" data-name="パス 20960" d="M986.442,1502.632h17.981c.244,0,.488,0,.732,0h.031a1.2,1.2,0,0,0,.824-.341,1.166,1.166,0,0,0,0-1.648,1.211,1.211,0,0,0-.824-.341H987.205c-.244,0-.488,0-.732,0h-.031a1.2,1.2,0,0,0-.824.341,1.166,1.166,0,0,0,0,1.648,1.21,1.21,0,0,0,.824.341" transform="translate(-9913.047 7787.793)" fill="#060000"/>
        <path id="パス_20961" data-name="パス 20961" d="M280.906,1696.683q.017.326.034.653l.092,1.776.135,2.607.166,3.2.182,3.506.183,3.527.171,3.289.145,2.789q.052,1,.1,2c.016.316.031.632.049.948l0,.041a1.228,1.228,0,0,0,.341.824,1.165,1.165,0,0,0,1.648,0,1.167,1.167,0,0,0,.341-.824q-.017-.326-.034-.653l-.092-1.776-.135-2.607q-.083-1.6-.166-3.2l-.182-3.506-.183-3.527q-.086-1.644-.171-3.289l-.145-2.789q-.052-1-.1-2c-.016-.316-.031-.632-.049-.948l0-.041a1.228,1.228,0,0,0-.341-.824,1.165,1.165,0,0,0-1.648,0,1.166,1.166,0,0,0-.341.824" transform="translate(-9263.392 7607.742)" fill="#060000"/>
        <path id="パス_20962" data-name="パス 20962" d="M1084.683,1710.239q-.016.312-.033.625-.044.849-.089,1.7-.065,1.247-.13,2.494-.08,1.531-.16,3.062-.088,1.677-.176,3.354t-.176,3.375q-.082,1.573-.165,3.147-.07,1.334-.14,2.668-.05.956-.1,1.912c-.016.3-.035.6-.047.907,0,.013,0,.026,0,.039a1.165,1.165,0,0,0,1.989.824,1.265,1.265,0,0,0,.341-.824q.017-.312.033-.625.045-.85.089-1.7l.13-2.494q.08-1.531.16-3.062.088-1.677.175-3.354l.177-3.375.165-3.147.14-2.668q.05-.956.1-1.912c.016-.3.035-.6.047-.907,0-.013,0-.026,0-.04a1.165,1.165,0,0,0-1.989-.824,1.266,1.266,0,0,0-.341.824" transform="translate(-10003.608 7595.239)" fill="#060000"/>
        <path id="パス_20963" data-name="パス 20963" d="M496.938,1356.52c.041.511.063,1.025.08,1.538.04,1.173.039,2.349-.019,3.521-.038.757-.1,1.513-.2,2.264l.042-.31a13.705,13.705,0,0,1-.516,2.412c-.065.2-.136.394-.217.587l.117-.278a4.494,4.494,0,0,1-.561,1l.182-.236a2.838,2.838,0,0,1-.273.306,1.165,1.165,0,0,0,0,1.648,1.172,1.172,0,0,0,.824.341,1.235,1.235,0,0,0,.824-.341,5.867,5.867,0,0,0,1.392-2.536,16.987,16.987,0,0,0,.59-3.205c.108-1.013.156-2.032.169-3.051q.016-1.243-.037-2.485c-.016-.385-.034-.771-.065-1.155v-.016a1.3,1.3,0,0,0-.341-.824,1.165,1.165,0,0,0-1.648,0,1.147,1.147,0,0,0-.341.824" transform="translate(-9461.07 7921.481)" fill="#060000"/>
        <path id="パス_20964" data-name="パス 20964" d="M499.459,738.744l.148.831.4,2.261.592,3.331.722,4.062.794,4.464.8,4.506.744,4.187.629,3.539.454,2.554c.072.4.137.807.215,1.208,0,.017.006.034.009.051a1.171,1.171,0,0,0,.535.7,1.165,1.165,0,0,0,1.594-.418,1.316,1.316,0,0,0,.117-.9l-.148-.831-.4-2.261-.592-3.331-.722-4.062-.794-4.464-.8-4.506-.744-4.187-.629-3.539-.454-2.554c-.072-.4-.137-.807-.215-1.208,0-.017-.006-.034-.009-.051a1.172,1.172,0,0,0-.535-.7,1.165,1.165,0,0,0-1.594.418,1.317,1.317,0,0,0-.117.9" transform="translate(-9464.941 8491.554)" fill="#060000"/>
        <path id="パス_20965" data-name="パス 20965" d="M767.8,738.267l-.263,1.271-.708,3.428-1.054,5.1-1.281,6.206-1.4,6.8-1.416,6.86-1.321,6.4-1.116,5.405-.8,3.887c-.127.614-.257,1.227-.38,1.842l-.016.079a1.165,1.165,0,1,0,2.247.62l.262-1.271.708-3.429,1.053-5.1,1.281-6.206,1.4-6.8,1.416-6.86,1.321-6.4,1.116-5.405.8-3.887c.127-.614.257-1.227.38-1.842l.016-.079a1.165,1.165,0,1,0-2.247-.619" transform="translate(-9703.436 8491.411)" fill="#060000"/>
        <path id="パス_20966" data-name="パス 20966" d="M635.348,1517.824l-.217.8-.521,1.91-.63,2.31-.542,1.989c-.088.324-.182.647-.265.973l0,.014h2.247l-.273-1.22-.651-2.908-.786-3.513-.679-3.035c-.11-.491-.213-.984-.33-1.473l0-.021a1.166,1.166,0,0,0-2.13-.278,1.263,1.263,0,0,0-.117.9l.273,1.22.651,2.908.786,3.513.679,3.035c.11.491.208.985.33,1.474l0,.02.117.278a.879.879,0,0,0,.3.327,1.111,1.111,0,0,0,.706.25,1.385,1.385,0,0,0,.588-.159,1.186,1.186,0,0,0,.535-.7l.217-.8.521-1.91.63-2.31.543-1.989c.089-.324.181-.647.265-.973l0-.014a1.208,1.208,0,0,0-.117-.9,1.165,1.165,0,0,0-1.594-.418,1.213,1.213,0,0,0-.535.7" transform="translate(-9585.747 7776.275)" fill="#060000"/>
        <rect id="長方形_385" data-name="長方形 385" width="109.307" height="158.375" transform="translate(-9004.308 9171.551)" fill="none"/>
        <path id="パス_3223" data-name="パス 3223" d="M-11954.737,9741.62c1.057,1.261,12.4,6.122,12.4,6.122l-2.323,26.812h44.927l1.927-30.615,9.48-2.318v44.609l7.389,17.52v32.93h-81.343l-2.26-32.93,9.8-24.828Z" transform="translate(2813.892 -509.223)" fill="#ffec00"/>
        <path id="パス_21056" data-name="パス 21056" d="M1017.472,664.036s-6.707,9.469-7.693,16.176-.384,7.018-.384,7.018-1.392,7.777.975,14.879,6.115,8.68,6.115,8.68l.986,13.414-7.318,5.429s5.937,12.128,20.141,9.958,19.572-11.815,19.572-11.815-8.13-1.4-8.722-6.333.626-11.831.626-11.831,9.434-7.7,10.618-11.644,1.183-15.387,1.183-15.387l-10.455-15.387s-18.938-7.1-25.645-3.156" transform="translate(-10136.613 8504.65)" fill="#fff"/>
        <path id="パス_21057" data-name="パス 21057" d="M23.647,63.924l10.514,5.783L54.4,85.478l10.777-5.52-.263-4.469,4.469-24.708s-2.366-.263-3.417,1.314-4.206,9.2-4.206,9.2l-4.994-3.154S39.944,40.53,38.367,41.055s-.789,2.891-.789,2.891l6.571,9.2s-14.72-9.2-14.457-7.623,9.989,13.143,9.989,13.143-14.72-7.1-13.931-5.257,11.3,10.514,11.3,10.514-16.034-2.366-13.406,0" transform="translate(-9261.357 9056.816)" fill="#fff"/>
        <path id="パス_21058" data-name="パス 21058" d="M1926.45,55.006l11.566,5.52,22.343-18.4s9.463-7.36,8.411-6.834-12.354,2.1-12.354,2.1,12.617-12.091,10.777-11.566-13.406,5.783-13.406,5.783,11.3-14.983,7.886-13.143-12.88,8.674-12.88,8.674,6.046-12.88,4.469-12.091-13.668,14.72-13.668,14.72l-8.149,6.834s-5.257-9.2-7.1-9.726l-1.84-.526,5.257,21.291s1.314,5.783-1.314,7.36" transform="translate(-10947.83 9079.929)" fill="#fff"/>
        <path id="パス_21059" data-name="パス 21059" d="M351.173,560.143h79.6l6.374-54.694L445,481.733l13.044-31.868,9.19-17.342,24.012-54.991-14.081-7.115L445.147,426l-23.123,40.169-8.693,1.927s-5.085,12.645-20.8,12.645c-9.481,0-18.909-10.788-18.909-10.788s-10.143-.968-11.625-3.191-55.436-96.2-55.436-96.2l-14.378,8.893L314.858,426.3,328.05,456.09,344.8,494.332l3.854,31.127Z" transform="translate(-9500.077 8764.329)" fill="#fff"/>
        <path id="パス_21060" data-name="パス 21060" d="M799.68,1290.606h79.6l3.148-29.163-9.126-22.815.217-44.109a18.356,18.356,0,0,0-2.984,2.114c-1.579,1.363-5.909,1.782-5.909,1.782l-.885,30.87H818.758l-2.538-29.714a7.8,7.8,0,0,1-4.2-2.01,57.905,57.905,0,0,1-3.911-4.563l-2.39,44.326-8.474,23.684Z" transform="translate(-9948.583 8033.867)" fill="#ffec00"/>
        <path id="パス_21061" data-name="パス 21061" d="M998.964,637.628a34.421,34.421,0,0,1,9.126-21.729s16.948,3.911,26.943,13.906l1.087,7.822s2.39-3.911,4.78,1.3-.434,6.953-2.607,8.691a28.178,28.178,0,0,0-3.477,3.259l-3.476,9.126s7.822,4.563,8.039,2.607l.218-1.956,4.563-.217-.652-6.953s4.563-12.82,4.128-23.467-12.385-22.815-26.726-23.032-21.077,6.953-22.6,14.993-1.521,15.427.652,15.645" transform="translate(-10126.182 8554.253)" fill="#f49902"/>
        <path id="パス_21062" data-name="パス 21062" d="M991.738,865.118c-.105.747-.18,1.5-.228,2.249a39.332,39.332,0,0,0-.029,4.522,34.942,34.942,0,0,0,.873,6.326,22.383,22.383,0,0,0,2.532,6.373,15.891,15.891,0,0,0,5.182,5.314q.369.228.751.432l-.832-1.45q.013.676.026,1.353.031,1.625.062,3.25.038,1.976.075,3.952l.065,3.4c.011.552.013,1.1.032,1.656,0,.008,0,.016,0,.024a1.746,1.746,0,0,0,.492,1.188,1.68,1.68,0,0,0,2.868-1.188l-.026-1.353q-.031-1.625-.062-3.25-.038-1.976-.075-3.952-.032-1.7-.065-3.4c-.01-.552-.013-1.1-.032-1.656,0-.008,0-.016,0-.024a1.684,1.684,0,0,0-.832-1.45,13.474,13.474,0,0,1-1.862-1.2l.34.263a13.888,13.888,0,0,1-2.465-2.475l.263.34a17.175,17.175,0,0,1-2.2-3.82l.169.4a24.614,24.614,0,0,1-1.484-5.118q-.131-.717-.228-1.44l.06.447a37.228,37.228,0,0,1-.32-5.118c0-1.129.054-2.258.161-3.382.024-.247.049-.494.082-.74l-.06.447,0-.024a1.27,1.27,0,0,0,.03-.67,1.25,1.25,0,0,0-.2-.625,1.68,1.68,0,0,0-2.3-.6,1.613,1.613,0,0,0-.772,1" transform="translate(-10121.021 8326.118)" fill="#060000"/>
        <path id="パス_21063" data-name="パス 21063" d="M1081.348,668.558c.421.106.837.233,1.252.361,1.143.352,2.273.746,3.391,1.167q1.348.507,2.676,1.068l-.4-.169q3.088,1.3,6.057,2.87a77.826,77.826,0,0,1,6.984,4.157q2.109,1.41,4.118,2.962l-.34-.263q.372.288.741.58a1.868,1.868,0,0,0,1.188.492,1.709,1.709,0,0,0,1.188-.492,1.69,1.69,0,0,0,.492-1.188,1.626,1.626,0,0,0-.492-1.188,78.465,78.465,0,0,0-7.581-5.335q-3.276-2.02-6.74-3.713-2.942-1.438-5.995-2.637c-1.3-.511-2.612-.987-3.942-1.411-.555-.177-1.114-.355-1.68-.5l-.022-.006a1.754,1.754,0,0,0-1.294.169,1.68,1.68,0,0,0,.4,3.07" transform="translate(-10199.779 8502.5)" fill="#060000"/>
        <path id="パス_21064" data-name="パス 21064" d="M1067.845,798.236a1.732,1.732,0,0,0,1.188-.492,1.68,1.68,0,0,0,0-2.376,1.68,1.68,0,0,0-2.375,0,1.68,1.68,0,0,0,0,2.376,1.746,1.746,0,0,0,1.188.492" transform="translate(-10187.386 8387.403)" fill="#060000"/>
        <path id="パス_21065" data-name="パス 21065" d="M1124.047,787.825l-.459,2.426-.73,3.865-.167.884a1.767,1.767,0,0,0,.169,1.294l.262.34a1.681,1.681,0,0,0,.741.432l2.279.337.322.047a1.27,1.27,0,0,0,.67.03,1.249,1.249,0,0,0,.625-.2,1.679,1.679,0,0,0,.6-2.3l-.262-.34a1.68,1.68,0,0,0-.741-.432l-2.279-.337-.322-.048,1.173,2.066.458-2.426.73-3.865.167-.884a1.272,1.272,0,0,0,.03-.67,1.247,1.247,0,0,0-.2-.625,1.68,1.68,0,0,0-2.3-.6,1.655,1.655,0,0,0-.772,1" transform="translate(-10237.539 8394.755)" fill="#060000"/>
        <path id="パス_21066" data-name="パス 21066" d="M1221.173,786.635a1.733,1.733,0,0,0,1.188-.492,1.68,1.68,0,0,0,0-2.376,1.68,1.68,0,0,0-2.376,0,1.68,1.68,0,0,0,0,2.376,1.745,1.745,0,0,0,1.188.492" transform="translate(-10323.543 8397.705)" fill="#060000"/>
        <path id="パス_21067" data-name="パス 21067" d="M1086.913,911.294c.043-.02.086-.038.13-.057l-.4.169a19.006,19.006,0,0,1,3.581-1.048q.9-.183,1.8-.3l-.447.06a30.451,30.451,0,0,1,6.15-.181q1.05.073,2.094.214l-.447-.06q.738.1,1.47.231l-1.173-2.066-.023.054.169-.4a23.415,23.415,0,0,1-1.857,3.5c-.309.482-.636.952-.986,1.406l.263-.34a11.844,11.844,0,0,1-2.069,2.13l.34-.263a6.576,6.576,0,0,1-1.431.854l.4-.169a4.462,4.462,0,0,1-1.114.315l.447-.06a3.463,3.463,0,0,1-.887,0l.447.06a4.155,4.155,0,0,1-1.036-.29l.4.169a6.244,6.244,0,0,1-1.358-.815l.34.263a12.159,12.159,0,0,1-2.12-2.194l.263.34a22.069,22.069,0,0,1-2.217-3.543c-.044-.088-.089-.176-.13-.265a1.689,1.689,0,0,0-1-.772,1.715,1.715,0,0,0-1.294.169,1.7,1.7,0,0,0-.772,1l-.06.447a1.673,1.673,0,0,0,.229.848,22.841,22.841,0,0,0,3.333,5.021,10.905,10.905,0,0,0,2.343,2.007,5.927,5.927,0,0,0,3.129.943,6.282,6.282,0,0,0,3.24-1.042,11.3,11.3,0,0,0,2.47-2.181,21.159,21.159,0,0,0,1.925-2.645,25.518,25.518,0,0,0,1.835-3.594l.023-.054a1.272,1.272,0,0,0,.03-.67,1.252,1.252,0,0,0-.2-.625,1.646,1.646,0,0,0-1-.772,36.034,36.034,0,0,0-5.442-.574,30.139,30.139,0,0,0-4.164.18,30.484,30.484,0,0,0-3.611.61,20.834,20.834,0,0,0-2.069.6,12.6,12.6,0,0,0-1.227.491l-.011,0a1.689,1.689,0,0,0-.772,1,1.718,1.718,0,0,0,.169,1.295,1.7,1.7,0,0,0,1,.772l.447.06a1.674,1.674,0,0,0,.848-.229" transform="translate(-10203.566 8288.283)" fill="#060000"/>
        <path id="パス_21068" data-name="パス 21068" d="M1037.151,745.976l.005-.012-.169.4a4.708,4.708,0,0,1,.609-1.016l-.263.34a4.433,4.433,0,0,1,.79-.8l-.34.263a3.516,3.516,0,0,1,.745-.438l-.4.169a3.2,3.2,0,0,1,.8-.219l-.447.06a3.493,3.493,0,0,1,.9,0l-.447-.06a4.511,4.511,0,0,1,.916.232,1.272,1.272,0,0,0,.67.03,1.249,1.249,0,0,0,.625-.2,1.679,1.679,0,0,0,.6-2.3l-.263-.34a1.68,1.68,0,0,0-.741-.432,6.185,6.185,0,0,0-1.362-.292,3.5,3.5,0,0,0-.84-.011,5,5,0,0,0-1.15.226,5.146,5.146,0,0,0-2.271,1.534,7.379,7.379,0,0,0-.823,1.141,6.8,6.8,0,0,0-.381.823,1.272,1.272,0,0,0-.03.67,1.251,1.251,0,0,0,.2.625,1.679,1.679,0,0,0,2.3.6l.34-.263a1.677,1.677,0,0,0,.432-.741" transform="translate(-10158.689 8434.945)" fill="#060000"/>
        <path id="パス_21069" data-name="パス 21069" d="M1197.123,732.577c.087-.082.181-.156.275-.229l-.34.263a5.772,5.772,0,0,1,1.261-.738l-.4.169a4.461,4.461,0,0,1,1.078-.3l-.447.06a3.614,3.614,0,0,1,.932-.005l-.447-.06a3.572,3.572,0,0,1,.466.1,1.739,1.739,0,0,0,1.294-.169,1.68,1.68,0,0,0,.6-2.3,1.757,1.757,0,0,0-1-.772,5.245,5.245,0,0,0-3.152.125,7.727,7.727,0,0,0-1.28.588,8.894,8.894,0,0,0-.939.668c-.094.073-.189.147-.276.229a1.68,1.68,0,0,0,0,2.376,1.689,1.689,0,0,0,1.188.492,1.793,1.793,0,0,0,1.188-.492" transform="translate(-10301.132 8446.429)" fill="#060000"/>
        <path id="パス_21070" data-name="パス 21070" d="M1348.216,452.451a31.219,31.219,0,0,0,4.8-.131c2.386-.243,5.314-.649,7.041-2.507a16.282,16.282,0,0,0,1.832-2.82c.93-1.563,1.844-3.137,2.755-4.711q7.918-13.687,15.508-27.565c3.28-6.028,6.384-12.13,9.783-18.094,4.969-8.717,10.049-17.372,15.141-26.018q3.237-5.5,6.489-10.986c1.136-1.917,2.371-3.8,3.423-5.768.048-.09.1-.176.157-.264l-2.3.6c4.615,2.5,9.3,4.9,14.059,7.118l-.772-1.9q-1.617,4.006-3.266,8c-2.554,6.209-5.145,12.421-7.748,18.544-3.076,7.237-6.2,14.455-9.456,21.613-2.536,5.579-5.078,11.2-8.1,16.539-1.461,2.58-2.97,5.107-4.29,7.767-1.87,3.77-3.577,7.621-5.218,11.495-3.6,8.487-6.9,17.1-10.025,25.769q-1.885,5.222-3.666,10.48c-.742,2.2-1.536,4.409-2.064,6.676a169.344,169.344,0,0,0-2.842,18.877c-.875,7.541-1.6,15.1-2.273,22.661q-.625,7.047-1.17,14.1-.027.351-.053.7c-.161,2.157,3.2,2.146,3.359,0,.25-3.356.527-6.709.812-10.062.612-7.216,1.278-14.427,2.044-21.628.744-6.99,1.458-13.62,2.694-20.46a100.276,100.276,0,0,1,4.536-15.216q4.376-12.493,9.311-24.783c3.024-7.481,6.13-15.064,10.191-22.054,2.792-4.807,5.28-9.728,7.631-14.768,3.265-7,6.361-14.071,9.409-21.165q4.361-10.151,8.577-20.363,2.333-5.637,4.628-11.29l.219-.542a1.675,1.675,0,0,0-.772-1.9c-4.759-2.219-9.444-4.613-14.059-7.118a1.712,1.712,0,0,0-2.3.6q-4.085,6.862-8.139,13.742-7.623,12.92-15.133,25.907c-1.972,3.43-3.938,6.863-5.837,10.334-1.366,2.5-2.617,5.052-3.954,7.564-4.892,9.186-10.036,18.243-15.209,27.273-1.843,3.216-3.677,6.441-5.6,9.61-.218.36-.434.723-.668,1.074-.08.12-.071.1.022-.011a2.673,2.673,0,0,1-.254.262c-.213.191.327-.212-.08.07a4.179,4.179,0,0,1-1.236.6,20.23,20.23,0,0,1-6.623.8c-.44,0-.881-.007-1.32-.03-2.161-.114-2.154,3.245,0,3.36" transform="translate(-10436.415 8781.507)" fill="#060000"/>
        <path id="パス_21071" data-name="パス 21071" d="M336.345,547.818c-.008-4.8-.532-9.626-.9-14.4q-.936-12.169-2.113-24.32c-.707-7.284-1.435-14.578-2.494-21.82a41.262,41.262,0,0,0-1.08-5.779,38.721,38.721,0,0,0-1.788-4.18c-2.751-6.358-5.431-12.747-8.139-19.123-3.341-7.869-6.685-15.738-10.11-23.572-2.072-4.739-4.171-9.455-6.516-14.065-2.912-5.724-5.72-11.5-8.544-17.268q-5.421-11.072-10.8-22.163-3.387-6.97-6.765-13.945l-.339-.7-.6,2.3,12.88-7.654,1.832-1.089-2.3-.6,10.785,18.131,16.78,28.208c2.436,4.1,4.771,8.216,7.082,12.384,5.716,10.307,11.422,20.63,17.408,30.783.978,1.66,1.959,3.321,3,4.94a19.58,19.58,0,0,0,1.242,1.759,9.289,9.289,0,0,0,4.688,2.909,18.852,18.852,0,0,0,8.711.118,4.986,4.986,0,0,0,1.575-.711l3.579-2.1,2.13-1.251a1.681,1.681,0,0,0-1.7-2.9l-5.817,3.416a7.016,7.016,0,0,1-.67.393c-.329-.345.682-.135.273-.138a2.49,2.49,0,0,0-.432.086c-.213.04-.426.073-.64.107-.07.011-.5.065-.089.014-.1.012-.2.025-.3.035-.762.075-1.523.13-2.289.129-2.506,0-5.291-.511-6.834-2.752-.921-1.337-1.749-2.743-2.582-4.136-5.936-9.926-11.519-20.071-17.135-30.18-2.39-4.3-4.747-8.606-7.262-12.835l-15.854-26.653-12.554-21.1-.206-.346a1.706,1.706,0,0,0-2.3-.6l-12.88,7.654-1.832,1.089a1.722,1.722,0,0,0-.6,2.3q2.412,4.984,4.831,9.965,5.165,10.642,10.353,21.274c3.2,6.56,6.405,13.12,9.665,19.652,2.026,4.059,4.055,8.091,5.906,12.236,3.3,7.385,6.467,14.828,9.637,22.269,3.073,7.213,6.119,14.437,9.2,21.648.874,2.048,1.741,4.1,2.654,6.133.112.25.216.509.344.752.117.22-.151-.485-.039-.082.035.124.082.246.119.37a22.588,22.588,0,0,1,.517,2.313c.214,1.151.394,2.309.563,3.467q.074.5.144,1.007.034.244.068.489c.013.094.1.72.047.345q.154,1.147.3,2.3c.457,3.652.857,7.311,1.236,10.971q1.277,12.34,2.265,24.707c.487,5.964.99,11.935,1.269,17.912.03.64.059,1.281.06,1.921a1.681,1.681,0,0,0,3.36,0" transform="translate(-9483.622 8776.324)" fill="#060000"/>
        <path id="パス_21072" data-name="パス 21072" d="M1288.035,898.661a12.615,12.615,0,0,1-1.6-.129l.446.06a11.517,11.517,0,0,1-2.877-.737l.4.169a6.15,6.15,0,0,1-1.331-.752l.34.263a4.071,4.071,0,0,1-.713-.7l.263.34a7.77,7.77,0,0,1-.931-1.711l.169.4a13.147,13.147,0,0,1-.868-3.3l.06.447a22.032,22.032,0,0,1,.083-5.8l-.06.447a38.006,38.006,0,0,1,1.075-5.106c.426-1.528.929-3.035,1.49-4.519q.4-1.053.837-2.091l-.169.4c.42-.995.863-1.982,1.348-2.947.028-.056.057-.113.086-.169l-.6.6c.852-.528,1.677-1.1,2.479-1.7a14.837,14.837,0,0,0,3.974-3.834,6.856,6.856,0,0,0,.853-2.525,12.274,12.274,0,0,0,.159-1.738,11.807,11.807,0,0,0-.147-1.771,7.446,7.446,0,0,0-1-2.846,5.3,5.3,0,0,0-1.024-1.237,4.222,4.222,0,0,0-1.805-.993,3.447,3.447,0,0,0-1.861.07,4.67,4.67,0,0,0-1.53.907,5.72,5.72,0,0,0-1.19,1.47c-.015.026-.03.051-.044.078a1.772,1.772,0,0,0-.169,1.294,1.681,1.681,0,0,0,3.071.4,4.166,4.166,0,0,1,.395-.6l-.263.34a4.107,4.107,0,0,1,.694-.707l-.34.263a2.686,2.686,0,0,1,.562-.336l-.4.169a2.033,2.033,0,0,1,.493-.136l-.447.06a1.874,1.874,0,0,1,.455,0l-.447-.06a2.084,2.084,0,0,1,.486.135l-.4-.169a2.848,2.848,0,0,1,.6.36l-.34-.263a3.76,3.76,0,0,1,.624.632l-.262-.34a4.916,4.916,0,0,1,.606,1.053l-.169-.4a7.208,7.208,0,0,1,.476,1.8q-.03-.223-.06-.447a9.325,9.325,0,0,1,0,2.412l.06-.446a7.121,7.121,0,0,1-.472,1.818l.169-.4a4.192,4.192,0,0,1-.538.895l.262-.34a14.642,14.642,0,0,1-2.643,2.472l.34-.263c-.912.7-1.86,1.361-2.832,1.98a2.688,2.688,0,0,0-1.013,1.333,60.333,60.333,0,0,0-2.636,6.4,41.453,41.453,0,0,0-2.223,9.776,16.962,16.962,0,0,0,1.656,9.815,6.134,6.134,0,0,0,1.992,2.151,8.881,8.881,0,0,0,2.425,1.075,15.452,15.452,0,0,0,3.793.587c.063,0,.125,0,.188,0a1.729,1.729,0,0,0,1.188-.492,1.68,1.68,0,0,0-1.188-2.868" transform="translate(-10375.39 8332.162)" fill="#060000"/>
        <path id="パス_21073" data-name="パス 21073" d="M996.267,1241.926c.3.37.627.719.956,1.064a33.145,33.145,0,0,0,2.719,2.538,35.754,35.754,0,0,0,4.538,3.258,29.3,29.3,0,0,0,5.915,2.713,23.843,23.843,0,0,0,7.014,1.185,21.3,21.3,0,0,0,6.81-1.038,26.845,26.845,0,0,0,5.8-2.689,35.916,35.916,0,0,0,7.445-6.192q.818-.9,1.554-1.859l.054-.071a1.687,1.687,0,0,0,.169-1.294,1.713,1.713,0,0,0-.772-1,1.7,1.7,0,0,0-1.294-.169l-.4.169a1.688,1.688,0,0,0-.6.6l-.056.074.263-.34c-.368.476-.762.933-1.165,1.379a34.765,34.765,0,0,1-2.547,2.541q-.958.862-1.977,1.652l.34-.263a29.425,29.425,0,0,1-4.672,2.974q-.761.385-1.546.718l.4-.169a21.445,21.445,0,0,1-5.453,1.514l.446-.06a20.189,20.189,0,0,1-5.293-.022l.447.06a23.842,23.842,0,0,1-6.029-1.672l.4.169a29.672,29.672,0,0,1-5.466-3.053q-.642-.45-1.263-.931l.34.263a34.516,34.516,0,0,1-2.881-2.494c-.544-.527-1.074-1.072-1.572-1.643-.082-.094-.165-.189-.243-.286a1.683,1.683,0,0,0-1.188-.492,1.709,1.709,0,0,0-1.188.492,1.69,1.69,0,0,0-.492,1.188l.06.447a1.677,1.677,0,0,0,.432.741" transform="translate(-10124.878 7993.635)" fill="#060000"/>
        <path id="パス_21074" data-name="パス 21074" d="M45.732,63.559h0l.263.34a.905.905,0,0,1-.105-.2l.169.4a3.1,3.1,0,0,1-.19-.766l.06.447a8.41,8.41,0,0,1,.049-2.152l-.06.446c.147-1.083.415-2.149.663-3.213.316-1.361.638-2.721.954-4.082q.579-2.488,1.136-4.982c.368-1.66.724-3.323,1.052-4.991.273-1.389.53-2.783.72-4.186a11.338,11.338,0,0,0,.14-3.408,2.347,2.347,0,0,0-2.473-1.8A4.841,4.841,0,0,0,45.1,36.672a7.185,7.185,0,0,0-1.119,1.155,15.038,15.038,0,0,0-1.431,2.145,31,31,0,0,0-2.5,6.477c-.195.7-.373,1.4-.54,2.1l2.468-1c-1.21-.72-2.392-1.493-3.546-2.3q-.788-.551-1.551-1.136l.34.263a15.708,15.708,0,0,1-2.1-1.889c-.307-.343-.61-.689-.913-1.035q-1.537-1.753-3.089-3.492c-1.336-1.488-2.689-2.961-4.073-4.4-1.342-1.4-2.711-2.775-4.154-4.069q-1.056-.947-2.182-1.806a11.311,11.311,0,0,0-1.583-1.049,4.5,4.5,0,0,0-1.992-.6,2.414,2.414,0,0,0-2.147,1.222c-.8,1.461-.012,3.214.671,4.55a33.747,33.747,0,0,0,2.8,4.377c1.113,1.535,2.282,3.03,3.48,4.5q.976,1.2,1.983,2.369l.1.113,2.036-2.638c-.532-.406-1.068-.806-1.605-1.2Q22.5,37.871,20.53,36.471c-1.582-1.122-3.179-2.223-4.806-3.277a42.688,42.688,0,0,0-4.345-2.552c-1.22-.6-2.787-1.362-4.122-.649a2.174,2.174,0,0,0-.944,2.472,5.034,5.034,0,0,0,.727,1.557A29.867,29.867,0,0,0,10.1,37.844c1.281,1.421,2.616,2.793,3.969,4.146q1.827,1.827,3.7,3.606,1.028.978,2.068,1.943l.1.088,2.036-2.638q-.813-.414-1.631-.819-1.962-.976-3.938-1.923c-1.617-.774-3.241-1.534-4.879-2.263-1.566-.7-3.143-1.383-4.757-1.964a15.3,15.3,0,0,0-1.593-.5,3.775,3.775,0,0,0-1.831-.1,1.93,1.93,0,0,0-1.378,2.4,4.567,4.567,0,0,0,.968,1.607,27.039,27.039,0,0,0,2.939,2.931c1.369,1.236,2.777,2.429,4.2,3.607Q12.021,49.579,14,51.155q1.1.875,2.2,1.738l.1.08,1.634-2.807c-1.485-.421-2.977-.821-4.47-1.213-2.622-.687-5.257-1.36-7.92-1.868a18.15,18.15,0,0,0-3.176-.427,2.826,2.826,0,0,0-1.463.317,1.874,1.874,0,0,0-.638,2.592,3.8,3.8,0,0,0,.915.984c.507.4,1.03.769,1.574,1.116,1.221.779,2.484,1.492,3.746,2.2,1.413.794,2.834,1.575,4.243,2.376,1.138.646,2.282,1.295,3.364,2.032.189.129.376.262.558.4l-.34-.263c.331.257.611.565.922.845.448.4.913.787,1.379,1.168,1.444,1.183,2.917,2.332,4.392,3.477q2.759,2.141,5.54,4.255,2.249,1.712,4.506,3.413c.726.548,1.441,1.121,2.185,1.643l.031.023a1.687,1.687,0,0,0,1.294.169,1.713,1.713,0,0,0,1-.772,1.7,1.7,0,0,0,.169-1.294,1.959,1.959,0,0,0-.772-1q-1.158-.867-2.312-1.738-2.668-2.011-5.325-4.038-1.7-1.3-3.4-2.609l.34.263c-1.466-1.133-2.928-2.27-4.373-3.43a33.455,33.455,0,0,1-2.606-2.2,17.245,17.245,0,0,0-3.452-2.427c-1.819-1.072-3.675-2.08-5.516-3.114a53.463,53.463,0,0,1-4.7-2.821q-.19-.134-.375-.276l.34.263a3.5,3.5,0,0,1-.627-.577l.263.34a.813.813,0,0,1-.1-.161l.169.4a.344.344,0,0,1-.023-.074l.06.447a.178.178,0,0,1,0-.043l-.06.447a.162.162,0,0,1,.009-.032l-.169.4a.168.168,0,0,1,.017-.03l-.263.34a.208.208,0,0,1,.037-.036l-.34.263a.346.346,0,0,1,.07-.039l-.4.169a.884.884,0,0,1,.212-.051l-.446.06a5.8,5.8,0,0,1,1.462.079l-.447-.06A62.506,62.506,0,0,1,9.6,51.433c2.071.511,4.133,1.055,6.189,1.621q.632.174,1.262.351a1.7,1.7,0,0,0,1.9-.772,1.992,1.992,0,0,0,.229-.848,1.66,1.66,0,0,0-.492-1.188c-1.31-1.016-2.606-2.05-3.9-3.092-2.369-1.915-4.726-3.855-6.971-5.916a22.335,22.335,0,0,1-2.62-2.68l.263.34a2.9,2.9,0,0,1-.384-.606l.169.4a.77.77,0,0,1-.054-.182l.06.447a.359.359,0,0,1,0-.092l-.06.446a.233.233,0,0,1,.012-.043l-.169.4a.2.2,0,0,1,.021-.038l-.263.34a.217.217,0,0,1,.036-.037l-.34.263a.3.3,0,0,1,.056-.033l-.4.169a.529.529,0,0,1,.125-.033l-.446.06a1.584,1.584,0,0,1,.417.012l-.447-.06a8.106,8.106,0,0,1,1.39.357c.658.214,1.3.46,1.947.716q.643.256,1.28.526l-.4-.169c2.159.912,4.285,1.9,6.4,2.91q2.482,1.185,4.94,2.417.464.233.928.467a1.7,1.7,0,0,0,2.167-.433,1.673,1.673,0,0,0-.131-2.206c-1.032-.949-2.049-1.916-3.059-2.888-2.033-1.956-4.041-3.943-5.963-6.009-.98-1.053-1.944-2.125-2.825-3.263l.263.34A9.049,9.049,0,0,1,9.5,31.511l.169.4a1.793,1.793,0,0,1-.131-.44l.06.446a.767.767,0,0,1,0-.187l-.06.447a.481.481,0,0,1,.03-.114l-.169.4a.385.385,0,0,1,.045-.078l-.263.34a.39.39,0,0,1,.065-.063l-.34.263a.457.457,0,0,1,.093-.052l-.4.169a.661.661,0,0,1,.151-.039l-.447.06a1.309,1.309,0,0,1,.33.006l-.447-.06a4.789,4.789,0,0,1,1.189.37l-.4-.169A25.6,25.6,0,0,1,12.2,34.947c1.332.807,2.634,1.665,3.923,2.541s2.572,1.779,3.842,2.692q1.505,1.083,2.993,2.19c.459.342.907.7,1.375,1.033l.02.015a1.669,1.669,0,0,0,1.294.169,1.741,1.741,0,0,0,.872-.6,1.7,1.7,0,0,0-.131-2.206c-.87-1-1.711-2.018-2.54-3.048q-.643-.8-1.271-1.611l.263.34A47.718,47.718,0,0,1,18.879,30.7a14.23,14.23,0,0,1-.7-1.41l.169.4a5.053,5.053,0,0,1-.378-1.258l.06.446a1.886,1.886,0,0,1-.007-.469l-.06.446a1.079,1.079,0,0,1,.07-.267l-.169.4a.823.823,0,0,1,.1-.166l-.263.34a.773.773,0,0,1,.135-.134l-.34.263a.712.712,0,0,1,.145-.084l-.4.169a.807.807,0,0,1,.191-.05l-.446.06a1.2,1.2,0,0,1,.3,0l-.446-.06a2.52,2.52,0,0,1,.617.182l-.4-.169a9.527,9.527,0,0,1,2.033,1.284l-.34-.263a46.332,46.332,0,0,1,4.369,3.968c1.58,1.581,3.107,3.214,4.61,4.867q1.881,2.068,3.718,4.176c.384.438.767.877,1.153,1.312A15.378,15.378,0,0,0,34.54,46.51a52.972,52.972,0,0,0,5.633,3.872l.11.066a1.7,1.7,0,0,0,2.468-1,40.086,40.086,0,0,1,1.985-6.324l-.169.4a16.233,16.233,0,0,1,2-3.585l-.263.34A7.15,7.15,0,0,1,47.54,39l-.34.263a3.969,3.969,0,0,1,.861-.516l-.4.169a2.562,2.562,0,0,1,.636-.179l-.447.06a1.844,1.844,0,0,1,.47,0l-.447-.06a1.427,1.427,0,0,1,.364.1l-.4-.169a.61.61,0,0,1,.12.062l-.34-.263a.261.261,0,0,1,.043.043l-.263-.34a.441.441,0,0,1,.049.087l-.169-.4a1.177,1.177,0,0,1,.072.3l-.06-.446a9.745,9.745,0,0,1-.145,2.477l.06-.447c-.225,1.674-.546,3.334-.88,4.989-.4,1.962-.827,3.918-1.269,5.87q-.62,2.74-1.267,5.473c-.289,1.235-.587,2.469-.855,3.709a14.76,14.76,0,0,0-.411,3.337,5.054,5.054,0,0,0,.542,2.442,3.611,3.611,0,0,0,.293.387,1.677,1.677,0,0,0,1.188.492,1.71,1.71,0,0,0,1.188-.492,1.69,1.69,0,0,0,.492-1.188l-.06-.447a1.679,1.679,0,0,0-.432-.741" transform="translate(-9240.617 9070.153)" fill="#060000"/>
        <path id="パス_21075" data-name="パス 21075" d="M1913.169,40.964a4.04,4.04,0,0,0,.485-2.037,12.514,12.514,0,0,0-.534-3.669c-.348-1.291-.732-2.571-1.106-3.854-.558-1.917-1.115-3.834-1.656-5.755-.573-2.032-1.132-4.068-1.649-6.115-.411-1.627-.816-3.265-1.081-4.924q-.037-.227-.068-.454l.06.446a5.324,5.324,0,0,1-.068-1.357l-.06.447a.925.925,0,0,1,.056-.23l-.169.4a.394.394,0,0,1,.044-.077l-.263.34a.233.233,0,0,1,.037-.038l-.34.263a.826.826,0,0,1,.171-.091l-.4.169a1.483,1.483,0,0,1,.369-.1l-.447.06a1.948,1.948,0,0,1,.513,0l-.446-.06a2.767,2.767,0,0,1,.68.191l-.4-.169a4.389,4.389,0,0,1,.954.57l-.34-.263a8.251,8.251,0,0,1,1.442,1.485l-.263-.34a20.08,20.08,0,0,1,2.48,4.475l-.169-.4a45.391,45.391,0,0,1,1.67,4.775,1.7,1.7,0,0,0,2.468,1,55.946,55.946,0,0,0,5.037-3.785,16.528,16.528,0,0,0,2.249-2.226c.357-.445.708-.9,1.061-1.344,1.177-1.5,2.36-2.987,3.563-4.462,1.465-1.795,2.956-3.57,4.507-5.291a42.58,42.58,0,0,1,4.27-4.265q.225-.188.456-.367l-.34.263a6.745,6.745,0,0,1,1.442-.9l-.4.169a2.1,2.1,0,0,1,.515-.151l-.447.06a1.093,1.093,0,0,1,.266,0l-.447-.06a.763.763,0,0,1,.19.05l-.4-.169a.735.735,0,0,1,.152.09l-.34-.263a.762.762,0,0,1,.124.124l-.263-.34a.856.856,0,0,1,.106.184l-.169-.4a1.186,1.186,0,0,1,.072.278l-.06-.447a2.184,2.184,0,0,1-.01.562q.03-.223.06-.446a6.744,6.744,0,0,1-.509,1.665l.169-.4a33.211,33.211,0,0,1-2.953,5.214c-1.072,1.631-2.2,3.223-3.368,4.788q-.559.751-1.13,1.493l.263-.34-.169.218a1.833,1.833,0,0,0-.492,1.188,1.71,1.71,0,0,0,.492,1.188,1.691,1.691,0,0,0,1.188.492,1.881,1.881,0,0,0,1.188-.492q.668-.568,1.344-1.126,1.65-1.37,3.326-2.709,1.163-.929,2.34-1.84l-.34.263a64.121,64.121,0,0,1,6.808-4.792A12.687,12.687,0,0,1,1945.9,6.6l-.4.169a3.439,3.439,0,0,1,.849-.261l-.447.06a1.114,1.114,0,0,1,.274-.006l-.447-.06a.585.585,0,0,1,.148.038l-.4-.169a.432.432,0,0,1,.082.048l-.34-.263a.375.375,0,0,1,.064.064l-.262-.34a.4.4,0,0,1,.045.08l-.169-.4a.526.526,0,0,1,.031.118l-.06-.447a.881.881,0,0,1,0,.224l.06-.447a2.336,2.336,0,0,1-.174.569l.169-.4a15.64,15.64,0,0,1-2.134,3.26l.263-.34c-1.572,2.032-3.275,3.964-5,5.867q-2.1,2.319-4.268,4.575-.418.435-.839.868a1.682,1.682,0,0,0,2.036,2.638c1.168-.675,2.345-1.336,3.524-1.992,2.368-1.317,4.751-2.61,7.17-3.829,1.219-.614,2.447-1.214,3.7-1.746l-.4.169a9.086,9.086,0,0,1,2.206-.736l-.447.06a1.221,1.221,0,0,1,.306-.009l-.447-.06a.46.46,0,0,1,.112.028l-.4-.169a.278.278,0,0,1,.055.032l-.34-.263a.213.213,0,0,1,.031.031l-.263-.34a.2.2,0,0,1,.022.038l-.169-.4a.22.22,0,0,1,.014.053q-.03-.223-.06-.447a.424.424,0,0,1,0,.1l.06-.447a.948.948,0,0,1-.07.234l.169-.4a4.445,4.445,0,0,1-.587.916l.263-.34a28.776,28.776,0,0,1-2.264,2.511c-1.026,1.046-2.083,2.061-3.151,3.063-1.938,1.821-3.915,3.6-5.911,5.358q-.625.55-1.254,1.1a1.564,1.564,0,0,0-.462.964,1.607,1.607,0,0,0,.2,1.071,1.707,1.707,0,0,0,1.9.772c1.3-.443,2.6-.87,3.9-1.29,2.441-.786,4.893-1.551,7.373-2.207a26.564,26.564,0,0,1,3.218-.707l-.447.06a3.35,3.35,0,0,1,.857-.038l-.446-.06a.675.675,0,0,1,.163.041l-.4-.169a.311.311,0,0,1,.059.033l-.34-.263a.217.217,0,0,1,.031.031l-.263-.34a.181.181,0,0,1,.017.029l-.169-.4a.155.155,0,0,1,.009.033l-.06-.447a.2.2,0,0,1,0,.044l.06-.446a.41.41,0,0,1-.027.09l.169-.4a1,1,0,0,1-.123.2l.263-.34a5.623,5.623,0,0,1-1.024.934l.34-.263c-1.132.874-2.344,1.648-3.547,2.419-1.439.922-2.891,1.822-4.333,2.74-1.229.782-2.465,1.563-3.633,2.434a11.117,11.117,0,0,0-1.353,1.11c-.194.2-.371.412-.568.609-1.723,1.717-3.6,3.288-5.442,4.879q-3.59,3.106-7.223,6.163c-1.394,1.177-2.809,2.331-4.19,3.523l-.063.053a1.689,1.689,0,0,0-.492,1.188,1.71,1.71,0,0,0,.492,1.188,1.69,1.69,0,0,0,1.188.492,1.9,1.9,0,0,0,1.188-.492q.906-.757,1.81-1.517,2.154-1.81,4.3-3.63,2.581-2.189,5.144-4.4c1.459-1.261,2.916-2.526,4.341-3.825.46-.419.919-.84,1.358-1.281.305-.306.576-.637.907-.917.13-.11.263-.216.4-.32l-.34.263c1.006-.776,2.079-1.465,3.146-2.152,1.328-.854,2.67-1.689,4-2.533,1.223-.774,2.448-1.551,3.633-2.381.55-.385,1.091-.785,1.61-1.211a5.131,5.131,0,0,0,1.006-1.062,1.9,1.9,0,0,0-.163-2.41,2.267,2.267,0,0,0-1.647-.6,8.491,8.491,0,0,0-1.432.162c-.473.079-.943.18-1.41.289-2.564.6-5.088,1.384-7.6,2.178-1.693.535-3.394,1.066-5.068,1.659l-.08.027,1.634,2.808q.745-.644,1.482-1.3,1.758-1.55,3.491-3.129c1.374-1.254,2.736-2.521,4.067-3.821a45.389,45.389,0,0,0,3.212-3.372,9.5,9.5,0,0,0,1.092-1.486,2.265,2.265,0,0,0,.123-2.3c-.842-1.368-2.532-.92-3.755-.461a47.091,47.091,0,0,0-4.358,1.957c-1.6.8-3.186,1.629-4.76,2.479q-2.1,1.134-4.182,2.306-1.126.633-2.247,1.276l-.106.061,2.036,2.638q.7-.713,1.384-1.438,1.649-1.731,3.262-3.5c1.3-1.42,2.572-2.857,3.807-4.33a46.463,46.463,0,0,0,3.255-4.236c.674-1.024,1.481-2.336,1.114-3.61a2.113,2.113,0,0,0-2.188-1.468,5.843,5.843,0,0,0-2.069.642,27.5,27.5,0,0,0-3.9,2.413c-1.683,1.18-3.319,2.428-4.939,3.692q-2.069,1.614-4.1,3.283-1.111.912-2.21,1.839l-.1.087,2.376,2.376q.837-1.067,1.642-2.159c1.029-1.386,2.03-2.792,2.988-4.228a42.748,42.748,0,0,0,2.828-4.741,14.2,14.2,0,0,0,.964-2.351,4.228,4.228,0,0,0,.116-2.26,2.41,2.41,0,0,0-1.784-1.737,3.539,3.539,0,0,0-2.357.457,11.048,11.048,0,0,0-1.821,1.287c-.622.508-1.211,1.057-1.784,1.619-1.421,1.394-2.754,2.878-4.056,4.382-1.342,1.551-2.648,3.132-3.935,4.729-1,1.246-2,2.5-2.985,3.76-.285.363-.57.727-.86,1.086a16.424,16.424,0,0,1-2.214,2.163c-.471.4-.953.783-1.44,1.16l.34-.263c-1.045.807-2.113,1.588-3.21,2.322l2.468,1a39.221,39.221,0,0,0-2.869-7.36,16.5,16.5,0,0,0-1.322-2.122,11.26,11.26,0,0,0-1.493-1.712A5.616,5.616,0,0,0,1907,11.024a2.5,2.5,0,0,0-2.712,1.6,7.071,7.071,0,0,0,.121,3.022c.22,1.324.528,2.633.848,3.936.4,1.633.834,3.258,1.28,4.88q.684,2.486,1.4,4.962.615,2.13,1.237,4.259c.26.9.528,1.79.762,2.692a14.765,14.765,0,0,1,.338,1.665l-.06-.446a6.874,6.874,0,0,1,.044,1.763q.03-.223.06-.447a2.529,2.529,0,0,1-.157.637l.169-.4a.684.684,0,0,1-.064.126,1.68,1.68,0,0,0,1.9,2.468,1.892,1.892,0,0,0,1-.772" transform="translate(-10931.539 9093.263)" fill="#060000"/>
        <path id="パス_21076" data-name="パス 21076" d="M961.017,1229.065q.05,1.4.1,2.8.119,3.362.239,6.723.144,4.066.289,8.133.125,3.514.25,7.029c.04,1.136.068,2.274.121,3.41,0,.015,0,.031,0,.046a1.712,1.712,0,0,0,1.68,1.68l1.2.023,3.283.063,4.838.092,5.925.113,6.466.123,6.526.124,6.084.116,5.143.1,3.7.07c.586.011,1.172.029,1.759.034h.074a1.711,1.711,0,0,0,1.68-1.68q.086-1.563.171-3.127l.409-7.458.5-9.063q.213-3.9.427-7.791c.069-1.263.163-2.527.208-3.792,0-.018,0-.036,0-.055a1.69,1.69,0,0,0-1.68-1.68,1.718,1.718,0,0,0-1.68,1.68q-.086,1.563-.171,3.126-.2,3.729-.409,7.458-.248,4.531-.5,9.063-.214,3.9-.427,7.79c-.069,1.263-.16,2.527-.208,3.792,0,.018,0,.036,0,.055l1.68-1.68-1.2-.023-3.283-.062-4.839-.092-5.925-.113-6.466-.123-6.526-.124-6.085-.116-5.143-.1-3.7-.071c-.586-.011-1.172-.03-1.759-.033H963.7l1.68,1.68q-.05-1.4-.1-2.8-.119-3.362-.239-6.723-.144-4.067-.289-8.133l-.25-7.028c-.04-1.136-.068-2.274-.121-3.41,0-.016,0-.031,0-.047a1.68,1.68,0,1,0-3.36,0" transform="translate(-10094.013 8005.36)" fill="#060000"/>
        <path id="パス_21077" data-name="パス 21077" d="M797.45,1183.182l-.16,2.786q-.2,3.541-.407,7.083-.272,4.733-.543,9.465l-.57,9.934-.487,8.489-.295,5.13-.03.531c-.019.325-.111.122.049-.268-.163.4-.257.835-.382,1.242l-2.27,7.379-2.879,9.356-1.808,5.877-.088.286a1.7,1.7,0,0,0,1.173,2.066,1.715,1.715,0,0,0,2.066-1.173l1.306-4.243,2.776-9.022,2.574-8.366.675-2.192a3.91,3.91,0,0,0,.168-.942q.115-2,.23-4l.45-7.833q.28-4.877.56-9.754.281-4.9.562-9.791l.45-7.843q.115-2.01.231-4.02.005-.088.01-.177a1.69,1.69,0,0,0-1.68-1.68,1.718,1.718,0,0,0-1.68,1.68" transform="translate(-9939.942 8044.076)" fill="#060000"/>
        <path id="パス_21078" data-name="パス 21078" d="M1460.19,1187.351l.032,2.7q.04,3.446.081,6.893.055,4.651.109,9.3.058,4.961.117,9.922.051,4.377.1,8.753.034,2.9.068,5.808c0,.407.005.814.015,1.221a2.835,2.835,0,0,0,.236,1.011l2.4,6.314,3.469,9.114,2.268,5.957.114.3a1.818,1.818,0,0,0,.772,1,1.68,1.68,0,0,0,2.468-1.9l-1.632-4.288-3.385-8.894-2.871-7.544-.369-.968a1.989,1.989,0,0,0-.166-.437c.036.049.053.658.054.31,0-.157,0-.314-.005-.471q-.028-2.417-.057-4.834-.048-4.091-.1-8.184-.058-4.9-.115-9.8-.057-4.807-.113-9.614-.045-3.817-.09-7.634-.023-1.931-.045-3.861l0-.173a1.68,1.68,0,0,0-3.36,0" transform="translate(-10537.286 8040.373)" fill="#060000"/>
        <path id="パス_21079" data-name="パス 21079" d="M985.977,630.5q-.068-.464-.131-.929l.06.447a51.624,51.624,0,0,1-.432-10.342q.08-1.154.232-2.3l-.06.447a26.993,26.993,0,0,1,1.236-5.314q.211-.6.458-1.192l-.169.4a16.112,16.112,0,0,1,2.057-3.6l-.263.34a10.339,10.339,0,0,1,1.412-1.512q.136-.117.277-.226l-.34.263c.1-.081.214-.153.323-.228.3-.2.549-.46.822-.691q.349-.3.711-.574l-.34.263a27.027,27.027,0,0,1,4.331-2.717q.851-.43,1.73-.8l-.4.169a26.7,26.7,0,0,1,6.8-1.867l-.446.06a25.846,25.846,0,0,1,6.8.008l-.446-.06a28.985,28.985,0,0,1,7.352,2.047l-.4-.169a31.34,31.34,0,0,1,6.9,3.955l-.34-.263a22.26,22.26,0,0,1,3.948,3.932l-.263-.34a21.74,21.74,0,0,1,2.8,4.818l-.169-.4a25.62,25.62,0,0,1,1.728,6.487l-.06-.447a34.678,34.678,0,0,1,.133,7.556q-.087,1.009-.223,2.014l.06-.447a48.005,48.005,0,0,1-1.285,6.271c-.363,1.321-.776,2.631-1.258,3.914-.1.265-.2.53-.311.79l.169-.4a9.37,9.37,0,0,0-.518,2.806,21.17,21.17,0,0,0-.028,3.191,28.522,28.522,0,0,0,.781,5.081c.073.294.15.589.242.879l.772-1.9a3.3,3.3,0,0,1-.537.274l.4-.169a4.529,4.529,0,0,1-1.092.3l.447-.06a4.04,4.04,0,0,1-1.01.005l.447.06a3.917,3.917,0,0,1-.921-.246l.4.169a4.433,4.433,0,0,1-.957-.561l.34.263a5.954,5.954,0,0,1-.48-.425,1.688,1.688,0,0,0-1.835-.347,1.663,1.663,0,0,0-1.033,1.535q.109,1.738.217,3.477l1.68-1.68a16.934,16.934,0,0,1-3.419-.13l.447.06a10.321,10.321,0,0,1-2.547-.644l.4.169a5.2,5.2,0,0,1-1.161-.661l.34.263a3.479,3.479,0,0,1-.584-.582l.263.34q-.058-.077-.112-.156a1.79,1.79,0,0,0-1-.772,1.68,1.68,0,0,0-1.9,2.468,6.831,6.831,0,0,0,4.324,2.624,18.393,18.393,0,0,0,4.147.407c.267,0,.535-.008.8-.026a1.755,1.755,0,0,0,1.188-.492,1.671,1.671,0,0,0,.492-1.188q-.109-1.738-.217-3.477l-2.868,1.188a5.624,5.624,0,0,0,4.556,1.718,5.756,5.756,0,0,0,2.478-.8,1.721,1.721,0,0,0,.772-1.9,22.158,22.158,0,0,1-.79-3.768l.06.447a21.982,21.982,0,0,1-.052-5.766l-.06.446q.078-.559.19-1.112l-.169.4c.34-.793.642-1.6.919-2.418a48.677,48.677,0,0,0,1.468-5.318,46.365,46.365,0,0,0,1.036-7.807,33.2,33.2,0,0,0-.738-8.739,24.1,24.1,0,0,0-3.674-8.476,23.442,23.442,0,0,0-3.419-3.915,27.78,27.78,0,0,0-4.842-3.487,32.243,32.243,0,0,0-12.934-4.276,27.038,27.038,0,0,0-10.276,1.017,29.411,29.411,0,0,0-7.2,3.255A24.682,24.682,0,0,0,988.735,604c-.045.041-.09.082-.134.124l.34-.263a7.043,7.043,0,0,0-1.164.917,13.573,13.573,0,0,0-2.119,2.6,20.21,20.21,0,0,0-2.193,4.773,31.5,31.5,0,0,0-1.338,7.368,50.63,50.63,0,0,0,.361,10.049q.116.917.25,1.832a1.677,1.677,0,0,0,.772,1,1.716,1.716,0,0,0,1.294.169,1.7,1.7,0,0,0,1-.772,1.96,1.96,0,0,0,.169-1.294" transform="translate(-10112.661 8563.103)" fill="#060000"/>
        <rect id="長方形_390" data-name="長方形 390" width="264.418" height="232.5" transform="translate(-9240.617 9093.265)" fill="none"/>
        <path id="パス_3215" data-name="パス 3215" d="M-9152.7,9247.245l2.98,21.79s8.8-11.059,18.742-13.861,32.571-5,32.784-9.527-2.161-13.847-2.161-13.847,13.688-5.475,26.705-4.911,25.36,7.16,25.36,7.16,32.651,22.679,41.509,21.125,7.381-3.2,16.327,0,19.454,12.782,19.454,12.782l14.575-7.976v-14.334h6.223l11.229,2.9,15.248,8.127,5.854-12.055s-9.729-7.928-17.812-10.57a22.654,22.654,0,0,0-14.52,0l-15.51,9.165-1.092,2.433s-8.069-3.266-14.9-3.874a31.727,31.727,0,0,0-12.419,1.441s-10.476,3.893-34.428-11.414-45.1-19.789-45.1-19.789-13.658-.631-24.544,3.087a67.085,67.085,0,0,0-18.994,10.461v8.49s-13.6,3.257-22.48,6.557S-9152.7,9247.245-9152.7,9247.245Z" transform="translate(-67.025 53.523)" fill="#fff"/>
        <path id="パス_3208" data-name="パス 3208" d="M-9640.317,9247.354a1.217,1.217,0,0,1-.8-.3,1.229,1.229,0,0,1-.125-1.731,33.123,33.123,0,0,1,8.845-7.036,55.293,55.293,0,0,1,10.5-4.439,125.172,125.172,0,0,1,19.688-4.082c1.914-.278,3.566-.52,4.822-.764a6.683,6.683,0,0,0,2.114-.592c.648-.527,1.021-1.02.989-1.312-.034-.315-.481-1.046-3.1-2.385-1.88-.96-5.257-1.142-7.969-1.287-2.539-.136-3.9-.229-4.73-.7-.74-.419-1.555-1.394-2.641-8.2-.543-3.384-.9-6.709-.905-6.741a1.228,1.228,0,0,1,1.09-1.351c.045,0,.089-.007.132-.007a1.228,1.228,0,0,1,1.219,1.1c0,.029.325,3.02.818,6.184.813,5.224,1.412,6.6,1.595,6.92a23.184,23.184,0,0,0,3.555.343c2.944.157,6.608.354,8.952,1.551,2.18,1.113,4.227,2.406,4.427,4.311.129,1.2-.488,2.341-1.882,3.478-.994.81-3.21,1.159-8.13,1.876a122.911,122.911,0,0,0-19.3,4,52.912,52.912,0,0,0-10.037,4.235,30.689,30.689,0,0,0-8.191,6.508A1.224,1.224,0,0,1-9640.317,9247.354Z" transform="translate(427.684 71.894)" fill="#060000" stroke="#060000" stroke-linecap="round" stroke-width="0.5"/>
        <path id="パス_3209" data-name="パス 3209" d="M-9643.587,9246.895a1.227,1.227,0,0,1-1.214-1.062l-2.6-19.333.7-.413a93.966,93.966,0,0,1,15.311-6.9,146,146,0,0,1,18.439-4.667,1.159,1.159,0,0,1,.215-.021,1.226,1.226,0,0,1,1.207,1.013,1.225,1.225,0,0,1-.994,1.421,143.869,143.869,0,0,0-18.07,4.576,94.075,94.075,0,0,0-14.159,6.3l2.382,17.7a1.226,1.226,0,0,1-1.05,1.38A1.408,1.408,0,0,1-9643.587,9246.895Z" transform="translate(426.354 73.72)" fill="#060000" stroke="#060000" stroke-linecap="round" stroke-width="0.5"/>
        <path id="パス_3210" data-name="パス 3210" d="M-9467.175,9252.021a1.227,1.227,0,0,1-1.053-.6,1.228,1.228,0,0,1,.422-1.683l10.048-6.014a32.764,32.764,0,0,0-2.543-4.7,24.15,24.15,0,0,0-9.206-8.6c-3.5-1.7-8.462-2.66-14.357-2.772-.394-.006-.781-.01-1.155-.01a61.6,61.6,0,0,0-6.671.35,11.266,11.266,0,0,1-4.647.942c-.2,0-.412.01-.621.01-4.126,0-9.205-1.187-15.107-3.532a121.93,121.93,0,0,1-19.274-9.946c-5.143-3.078-10.971-6.572-19.573-10.729a81.281,81.281,0,0,0-19.024-6.3,56.269,56.269,0,0,0-14.028-1.27,50.923,50.923,0,0,0-11.375,2.356,75.321,75.321,0,0,0-9.856,3.99,78.29,78.29,0,0,0-9.546,5.444,1.227,1.227,0,0,1-1.708-.3,1.227,1.227,0,0,1,.3-1.708,79.132,79.132,0,0,1,9.839-5.62,77.612,77.612,0,0,1,10.2-4.132,53.25,53.25,0,0,1,11.954-2.476c.723-.058,1.512-.086,2.35-.086a65.739,65.739,0,0,1,12.355,1.4,83.736,83.736,0,0,1,19.609,6.5c8.7,4.205,14.582,7.727,19.771,10.834a119.582,119.582,0,0,0,18.918,9.771c6.946,2.761,11.544,3.358,14.226,3.358h.188a9,9,0,0,0,4.014-.722l.24-.171.266-.012a61.042,61.042,0,0,1,7.183-.4q.58,0,1.187.01c6.356.115,11.546,1.131,15.426,3.019a22.927,22.927,0,0,1,6.1,4.4,30.868,30.868,0,0,1,4.128,5.127,32.324,32.324,0,0,1,3.136,6.078l.341.949-11.814,7.07A1.238,1.238,0,0,1-9467.175,9252.021Z" transform="translate(433.315 69.222)" fill="#060000" stroke="#060000" stroke-linecap="round" stroke-width="0.5"/>
        <path id="パス_3211" data-name="パス 3211" d="M-9470.711,9250.813a1.223,1.223,0,0,1-.828-.321,99.73,99.73,0,0,0-10.087-7.872c-7.252-4.905-13.158-7.21-17.079-6.645-1.806.255-3.219.5-4.468.721-2.94.511-4.715.82-7.183.439s-5.557-1.465-10.785-3.462c-10.055-3.842-15.431-7.524-22.873-12.624-2.26-1.547-4.823-3.306-7.735-5.2-12.977-8.47-28.046-7.373-38.407-4.961-12.335,2.872-24.509,10.643-24.628,10.719a1.225,1.225,0,0,1-1.7-.367,1.226,1.226,0,0,1,.367-1.694c.128-.083,3.19-2.045,7.862-4.4a82.513,82.513,0,0,1,17.536-6.648c10.825-2.522,26.605-3.648,40.308,5.3,2.934,1.913,5.509,3.677,7.78,5.235,7.3,5,12.577,8.615,22.359,12.353,5.068,1.938,8.05,2.983,10.288,3.331,2.067.32,3.6.053,6.384-.432,1.2-.212,2.7-.474,4.546-.734,4.605-.654,10.936,1.722,18.823,7.06a99.7,99.7,0,0,1,10.342,8.079,1.223,1.223,0,0,1,.077,1.729A1.213,1.213,0,0,1-9470.711,9250.813Z" transform="translate(433.315 71.952)" fill="#060000" stroke="#060000" stroke-linecap="round" stroke-width="0.5"/>
        <path id="パス_3212" data-name="パス 3212" d="M-9449.846,9239.182l-1.194-.644c-.114-.062-11.468-6.175-18.822-8.872-7.016-2.573-10.444-2.045-10.479-2.039l.01,0-.444-2.411a11.991,11.991,0,0,1,3.076,0,35.71,35.71,0,0,1,8.683,2.151,175.632,175.632,0,0,1,17.943,8.378l4.1-9.846c-2.036-1.726-8.476-6.935-14.567-9.28a30.072,30.072,0,0,0-14.054-1.639l-16.351,9.008-.511,2.667a1.228,1.228,0,0,1-1.2.994,1.266,1.266,0,0,1-.233-.021,1.228,1.228,0,0,1-.974-1.436l.729-3.8,17.729-9.771.2-.033a32.145,32.145,0,0,1,15.548,1.737c7.745,2.983,15.642,10.01,15.977,10.307l.648.581Z" transform="translate(460.896 73.22)" fill="#060000" stroke="#060000" stroke-linecap="round" stroke-width="0.5"/>
        <path id="パス_3213" data-name="パス 3213" d="M-9486.218,9239.271a1.225,1.225,0,0,1-1.215-1.07,47.909,47.909,0,0,1-.025-10.129,27.379,27.379,0,0,1,2.032-8.167,12.65,12.65,0,0,1,5.522-6.3,1.225,1.225,0,0,1,1.657.511,1.226,1.226,0,0,1-.511,1.657,10.261,10.261,0,0,0-4.419,5.113,24.874,24.874,0,0,0-1.839,7.406,46.515,46.515,0,0,0,.015,9.6,1.227,1.227,0,0,1-1.062,1.371A1.407,1.407,0,0,1-9486.218,9239.271Z" transform="translate(462.521 73.485)" fill="#060000" stroke="#060000" stroke-linecap="round" stroke-width="0.5"/>
        <path id="パス_3214" data-name="パス 3214" d="M146.778,5530.818a1.229,1.229,0,0,1-1.139-1.682c.165-.414.456-1.764-.389-5.376-.494-2.11-1.131-3.923-1.137-3.941a1.226,1.226,0,1,1,2.313-.815c.028.076.682,1.938,1.207,4.175.753,3.211.846,5.457.285,6.866A1.227,1.227,0,0,1,146.778,5530.818Z" transform="translate(-9311.806 3769.648)" fill="#060000" stroke="#060000" stroke-linecap="round" stroke-width="0.5"/>
      </g>
    </g>
  </g>
</svg>
