<svg xmlns="http://www.w3.org/2000/svg" xmlns:xlink="http://www.w3.org/1999/xlink" width="394" height="240" viewBox="0 0 394 240">
  <defs>
    <clipPath id="clip-path">
      <rect id="長方形_566" data-name="長方形 566" width="394" height="240" transform="translate(1028 4507)" fill="rgba(168,67,67,0.11)"/>
    </clipPath>
  </defs>
  <g id="flow-step05" transform="translate(-1028 -4507)" clip-path="url(#clip-path)">
    <g id="step05_illust" data-name="step05 illust" transform="translate(1055.271 4535.146)">
      <path id="パス_20643" data-name="パス 20643" d="M276.706-2451.456s10.45.684,9.554-10.041-3.35-13.162-9.129-15.54c-5.464-2.247-12.626-7.082-22.011-.217s-16.568,24.557-8.159,34.692,20.949,4.491,28.168,1.953.3-2.632.3-2.632l-1.744-4.183,1.449-2.356s-6.187-7.342,1.577-8.6,0-.044,0-.044Z" transform="translate(-222.564 2481.055)" fill="#f49902" fill-rule="evenodd"/>
      <path id="パス_20644" data-name="パス 20644" d="M533.472-2212.539s-.84,10.594-3.219,15.083c-1.371,2.586-5.114.939-5.191,1.449-.928,6.193-9,5.514-9,5.514l1.955-5.514,7.649-5.016-2.346-5.01s-2.444-11.945,3.026-11.143l1.785,5.624Z" transform="translate(-472.202 2239.854)" fill="#fff" fill-rule="evenodd"/>
      <path id="パス_20645" data-name="パス 20645" d="M32.43-1579.79H79.424s9.5,2.778,10.235,11.289-6.163,21.049-7.4,26.389-2.249,25.16-2.249,25.16H95.872s4.993,2.887-.588,8.237H37.129a79.876,79.876,0,0,0-2.159-14.953c-1.854-7.013-7.589-23.3-10.988-29.081S15.59-1575.459,32.43-1579.79Z" transform="translate(-18.812 1656.559)" fill="#fff"/>
      <path id="パス_20646" data-name="パス 20646" d="M2095.667-2436.1l-1.113-1.842a11.924,11.924,0,0,1,3.693-12.13c5.912-5.063,13.645-2.813,17.171.219l3.524,1.76s11.266.889,4.067,18.053a6.169,6.169,0,0,1-1.766,7.64s-1.419,11.9,4.651,14.774l-2.185,15.293-10.053,6.28-2.532-3.232-9.261,4.548s-5.481-7.662-3.4-21.323l1.685-.751,2.888-3.456s-5.163-.628-7.011-7.34S2095.008-2433.3,2095.667-2436.1Z" transform="translate(-1916.171 2455.675)" fill="#fff"/>
      <path id="パス_20647" data-name="パス 20647" d="M1798.8-1911.79H1777.65l3.6,25.748s-3.3,8.376,2.035,12.821,9.641-2.055,11.4-5.706h7.049Z" transform="translate(-1626.574 1960.365)" fill="#fff"/>
      <path id="パス_20648" data-name="パス 20648" d="M1593.017-2272.234s6.45.54,6.376,4.522-.571,27.249-.571,27.249h19.386l-6.177-30.57h20.275s1.883-12.651,3.776-16.287,12.074-5.948,12.074-5.948v-2.348s-3.965-4.549-4.55-14.086,2.8-19.481,7.058-19.058,14.707,4.987,17.423,12.57a3.51,3.51,0,0,1,3.643,4.434,19.035,19.035,0,0,1-3.34,7.887l2.106,7.74s16.631,6.61,19.325,10.165,4.318,35.3,3.295,38.363a30.81,30.81,0,0,0-1.187,7.138h27.316l.293,38.127h-53.162l-2.1,6.184-.592,34.307a9.708,9.708,0,0,1,1.8,6.318c-.285,3.7-14.551,10.254-20.708,9.769s-6.892-4.594-2.486-8.409l2.007-6.369-14.979-41.8h-32.847s-.066,5.884-3.7,6.034-49.755.136-49.755.136l-.585-6.17H1494.26l.293-38.127H1585.9Z" transform="translate(-1367.268 2341.941)" fill="#fff"/>
      <path id="パス_20649" data-name="パス 20649" d="M1831.43-288.48a70.246,70.246,0,0,1-6.495,9.575c-3.252,3.779-6.794,7.043-1.619,9.391s11.851-1.994,13.5-3.867,2.986-4.673,6.217-2.9l3.377-2.04-1.321-9.538Z" transform="translate(-1665.961 474.9)" fill="#fff"/>
      <path id="パス_20650" data-name="パス 20650" d="M2177.031-288.48a70.3,70.3,0,0,1-6.494,9.575c-3.252,3.779-6.795,7.043-1.618,9.391s11.85-1.994,13.5-3.867,2.986-4.673,6.217-2.9l3.377-2.04-1.321-9.538Z" transform="translate(-1982.191 474.9)" fill="#fff"/>
      <path id="パス_20651" data-name="パス 20651" d="M175.06-1875.535s7.734-14.266,23.3-14.755l.839,13.651-1.9,8.768H185.683Z" transform="translate(-160.181 1940.692)" fill="#c8e3fa" fill-rule="evenodd"/>
      <path id="パス_20652" data-name="パス 20652" d="M911.178-1088.49a9.1,9.1,0,0,1,3.229,8.894c-1.007,5.926-9.858-4.135-9.858-4.135S907.046-1089,911.178-1088.49Z" transform="translate(-827.675 1207.008)" fill="#fff"/>
      <path id="パス_20653" data-name="パス 20653" d="M678.639-631.79H710.36l3.524,32.822,1.763,1.852,9.7,6.934H703.311l-9.513-4.848-8.718-20.116S680.4-625.082,678.639-631.79Z" transform="translate(-620.963 789.057)" fill="#fff"/>
      <path id="パス_20654" data-name="パス 20654" d="M1840.9-1916.9c-.093-4.391-.846-17.438-2.153-23.673-1.277-6.083-5.72-8.69-8.963-10.593-.326-.191-.642-.376-.943-.559a65.072,65.072,0,0,0-7.468-3.734,1.469,1.469,0,0,0-1.806.568l-5.286,8.332a1.465,1.465,0,0,0-.133,1.307l1.171,3.081a1.467,1.467,0,0,0,.226.4l2.617,3.265-8.391,6.8-1.6-2.022.885-.8a1.467,1.467,0,0,0,.461-1.326,1.468,1.468,0,0,0-.863-1.106c-1.729-.751-2.9-3.016-3.21-3.822a1.467,1.467,0,0,0-.871-.865,3.278,3.278,0,0,1-1.377-.777,1.468,1.468,0,0,0-1.258-1.137,1.47,1.47,0,0,0-1.6,1.1l-2.573,10.2c-3.243-12.271-2.363-18.225-2.354-18.286a1.467,1.467,0,0,0-.48-1.346,1.472,1.472,0,0,0-1.4-.3l-7.893,2.41a1.456,1.456,0,0,0-1.033,1.517l2.342,28.179h-6.236a1.484,1.484,0,0,0-1.353.914c-.025.058-2.553,5.8-6.525,5.8a4.5,4.5,0,0,1-.83-.078c-4.542-.85-5.036-7.678-5.04-7.743a1.461,1.461,0,0,0-1.119-1.332,1.471,1.471,0,0,0-1.608.684c-2.187,3.664-3.229,10.127-1.192,14.565a7.589,7.589,0,0,0,5.724,4.553,9.145,9.145,0,0,0,1.558.219h0c4.335,0,8.007-3.164,10.271-5.654l.6,7.873a1.459,1.459,0,0,0,1.464,1.347h49.637a1.451,1.451,0,0,0,1.469-1.448v-4.089C1838.538-1906.877,1841-1912.4,1840.9-1916.9Z" transform="translate(-1612.212 2000.432)" fill="#c8e3fa"/>
      <path id="パス_20655" data-name="パス 20655" d="M2192.266-845.236a1.462,1.462,0,0,0-1.487-1.4l-21.147.294a1.468,1.468,0,0,0-1.086.5,1.47,1.47,0,0,0-.351,1.144l5.875,47.873a1.469,1.469,0,0,0,1.457,1.292h17.623a1.469,1.469,0,0,0,1.063-.458,1.471,1.471,0,0,0,.4-1.086Z" transform="translate(-1983.918 985.657)" fill="#c8e3fa"/>
      <path id="パス_20656" data-name="パス 20656" d="M1852.989-845.234a1.459,1.459,0,0,0-1.488-1.4l-20.56.294a1.471,1.471,0,0,0-1.085.5,1.469,1.469,0,0,0-.351,1.144l5.874,47.873a1.47,1.47,0,0,0,1.458,1.292h17.035a1.467,1.467,0,0,0,1.063-.458,1.474,1.474,0,0,0,.4-1.086Z" transform="translate(-1674.012 985.654)" fill="#c8e3fa"/>
      <path id="パス_20657" data-name="パス 20657" d="M3133.6-321.61a1.471,1.471,0,0,0-1.175-.981,1.471,1.471,0,0,0-1.41.6c-3.755,5.239-9.166,8.137-11.473,8.137a1.373,1.373,0,0,1-.48-.065c-.373-.143-.426-.3-.451-.376a4.212,4.212,0,0,1,.758-2.6,1.466,1.466,0,0,0-.339-1.957,1.469,1.469,0,0,0-1.98.173l-4.22,4.619a10.125,10.125,0,0,1-4.08,1.527,1.361,1.361,0,0,1-.352-.04c-.575-.161-.656-.385-.685-.469-.28-.77.5-2.541,1.177-3.52a1.466,1.466,0,0,0-.262-1.958,1.468,1.468,0,0,0-1.976.078c-.252.247-6.176,6.088-7.949,8.24a6.3,6.3,0,0,0-1.233,6.089c.394.971,1.509,2.649,4.535,2.987a10.337,10.337,0,0,0,1.136.063,11.926,11.926,0,0,0,6.034-1.753,5.394,5.394,0,0,0,5.273,3.081,10.25,10.25,0,0,0,2.761-.4c4-1.123,13.863-8.424,15.91-12.308C3135.276-316.539,3133.667-321.4,3133.6-321.61Z" transform="translate(-2833.906 506.127)" fill="#f49902"/>
      <path id="パス_20658" data-name="パス 20658" d="M3531.063-854.188a1.529,1.529,0,0,0-1.058-.423l-30.439.421a1.492,1.492,0,0,0-1.476,1.467v5.576a1.49,1.49,0,0,0,1.525,1.436h25.552c.017,0,.031.015.049.014,2.175-.074,6.288-1.714,6.288-7.448A1.467,1.467,0,0,0,3531.063-854.188Z" transform="translate(-3200.8 992.958)" fill="#c8e3fa"/>
      <path id="パス_20659" data-name="パス 20659" d="M3793.919-1684.2c-1.973-3.021-6.72-3.329-7.255-3.355a1.47,1.47,0,0,0-1.121.442,1.462,1.462,0,0,0-.413,1.131c.013.185,1.361,18.561.982,23.188a5.376,5.376,0,0,1-3.039,4.8,1.469,1.469,0,0,0-.984,1.384v1.957a1.468,1.468,0,0,0,.466,1.07,1.471,1.471,0,0,0,1.006.4l.093,0,8.115-.515a1.469,1.469,0,0,0,1.367-1.315C3793.945-1662.919,3795.636-1681.573,3793.919-1684.2Z" transform="translate(-3460.665 1755.174)" fill="#c8e3fa"/>
      <path id="パス_20660" data-name="パス 20660" d="M3301.31-2379.5c-.027-.115-2.646-11.6-3.511-16.337-.128-.7-.28-1.721-.457-2.905-.907-6.078-2.423-16.248-5.775-19.939-2.49-2.744-6.844-4.254-12.26-4.254a30.305,30.305,0,0,0-6.5.714,8.858,8.858,0,0,0-5.9,5.3,4.36,4.36,0,0,0,1.07,4.43c3.941,4.14,10.885,6.449,11.179,6.546a1.47,1.47,0,0,0,1.517-.379l1.963-2.045c1.745,1.741,4.455,4.671,5.331,6.611a1.477,1.477,0,0,0,1.865.766,3.968,3.968,0,0,1,1.235-.209,1.86,1.86,0,0,1,1.784.969,5.242,5.242,0,0,1-.131,4.187,5.861,5.861,0,0,1-3.805,3.536,1.466,1.466,0,0,0-1.057,1.665l1.762,10.166a1.467,1.467,0,0,0,1.038,1.159,1.469,1.469,0,0,0,1.5-.425l.539-.6,6.623,2.728a1.456,1.456,0,0,0,.559.112,1.471,1.471,0,0,0,.949-.347A1.466,1.466,0,0,0,3301.31-2379.5Z" transform="translate(-2989.072 2428.111)" fill="#f49902"/>
      <path id="パス_20661" data-name="パス 20661" d="M419.463-1854.809l-.137-1.964c-.8-11.633-1.786-22.421-4.958-26.586a20.136,20.136,0,0,0-7.583-5.549,9.654,9.654,0,0,0,3.687-4.523,1.465,1.465,0,0,0-.067-1.136c-4.76-9.671-6.1-26.371-6.822-35.343-.148-1.848-.276-3.443-.4-4.59-.789-7.127-2.33-16.241-5.2-19.188-2.4-2.469-10.447-4.637-13.346-5.356-.533-2.1-2.224-5.525-5.772-6.359-3.341-.786-11.52-2.119-11.867-2.175-.528-.086-4.9-.1-5.411-.24-1.87-.515-3.06,5.089-2.21,8.146,1.054,3.792,4.8,2.024,2.162,6.167-1.779,2.794-3.459,5.433-3.739,7.853-.7,6.084,4.471,11.323,4.692,11.542a1.46,1.46,0,0,0,1.068.428c.059,0,6-.125,12.565-.125,3.848,0,7.151.042,9.816.124,10.133.313,11.714,9.117,11.957,11.808.342,3.789-2.4,11.341-4.828,18.005-1.2,3.3-2.333,6.412-3.053,8.947-2.221,7.828-2.362,21.427-2.367,22a1.446,1.446,0,0,0,.426,1.037,1.454,1.454,0,0,0,1.043.416h14.939c1.291,1.359,1.881,2.531,1.755,3.678a5.3,5.3,0,0,1-2.437,3.37H377.954a1.477,1.477,0,0,0-1.249.7,1.482,1.482,0,0,0-.064,1.436l4.112,8.2a1.442,1.442,0,0,0,1.314.781H418a1.443,1.443,0,0,0,1.075-.438A1.4,1.4,0,0,0,419.463-1854.809Z" transform="translate(-327.328 2011.667)" fill="#c8e3fa"/>
      <path id="パス_20662" data-name="パス 20662" d="M183.962-1795.156l-2.454-2.914a1.484,1.484,0,0,0-1.381-.5,5.494,5.494,0,0,1-.846.057,5.587,5.587,0,0,1-4.418-1.9c-1.789-2.148-2.2-6.156-1.2-11.591a1.471,1.471,0,0,0-.647-1.5,1.47,1.47,0,0,0-1.633.021c-.233.162-5.734,4-7.408,8.981-1.665,4.952-.068,10.553,0,10.789a1.44,1.44,0,0,0,1.41,1.026H182.95a1.441,1.441,0,0,0,1.469-1.436A1.391,1.391,0,0,0,183.962-1795.156Z" transform="translate(-149.347 1870.645)" fill="#c8e3fa"/>
      <path id="パス_20663" data-name="パス 20663" d="M851.624-216.384c-1.67-.953-3.882-.96-6.022-.965a16.151,16.151,0,0,1-4.13-.341,31.3,31.3,0,0,1-4.265-1.929c-2.8-1.412-5.692-2.873-7.911-2.985a5.066,5.066,0,0,0-4.632,2.36,15.01,15.01,0,0,0-7.267-1.893,12.95,12.95,0,0,0-4.1.611,1.465,1.465,0,0,0-.954,1.2c-.069.578-.66,5.712-.243,8.06.58,3.25,2.451,4.48,6.905,4.546l.162,0a10.441,10.441,0,0,0,5.673-1.658c1.827,1.876,5.544,1.866,7.367,1.866h.019c.541,0,1.06.007,1.533,0,.38-.007.727,0,1.033,0l1.571,0c8.027,0,12.928-.322,14.984-.984a4.011,4.011,0,0,0,3.063-3.309A4.963,4.963,0,0,0,851.624-216.384Z" transform="translate(-742.945 414.624)" fill="#f49902"/>
      <path id="パス_20664" data-name="パス 20664" d="M2144.917-2200.864a1.5,1.5,0,0,0,1.743,1.2,1.5,1.5,0,0,0,1.206-1.744,1.5,1.5,0,0,0-1.743-1.2A1.5,1.5,0,0,0,2144.917-2200.864Z" transform="translate(-1962.606 2226.509)" fill="#060000"/>
      <path id="パス_20665" data-name="パス 20665" d="M2269.327-2200.864a1.5,1.5,0,0,0,1.743,1.2,1.5,1.5,0,0,0,1.206-1.744,1.5,1.5,0,0,0-1.744-1.2A1.5,1.5,0,0,0,2269.327-2200.864Z" transform="translate(-2076.443 2226.509)" fill="#060000"/>
      <path id="パス_20666" data-name="パス 20666" d="M1483.065-1271.663h222.069v-35.155H1483.065Zm224.958,1.5a1.466,1.466,0,0,1-1.466,1.467h-225a1.471,1.471,0,0,1-1.471-1.467v-38.164a1.47,1.47,0,0,1,1.471-1.467h225a1.466,1.466,0,0,1,1.466,1.467Z" transform="translate(-1354.302 1409.484)" fill="#060000"/>
      <path id="パス_20667" data-name="パス 20667" d="M1744.177-1209.9H1526.828a1.448,1.448,0,0,1-1.469-1.444,1.448,1.448,0,0,1,1.469-1.443h217.348a1.447,1.447,0,0,1,1.468,1.443A1.448,1.448,0,0,1,1744.177-1209.9Z" transform="translate(-1395.726 1320.721)" fill="#060000"/>
      <path id="パス_20668" data-name="パス 20668" d="M17.986-1523.149a1.468,1.468,0,0,1-1.464-1.374c-.7-11.035-5.421-26.691-11.469-38.075l-.2-.374c-3.351-6.3-6.816-12.86-3.531-21.386A14.427,14.427,0,0,1,14.8-1593.79H57.087a1.484,1.484,0,0,1,1.469,1.486,1.484,1.484,0,0,1-1.469,1.486H14.793c-.027,0-.053.027-.08.025a11.226,11.226,0,0,0-10.649,7.52c-2.8,7.277.064,12.675,3.384,18.916l.2.379c6.223,11.712,11.078,27.86,11.806,39.267a1.469,1.469,0,0,1-1.372,1.559C18.049-1523.151,18.017-1523.149,17.986-1523.149Z" transform="translate(0 1669.369)" fill="#060000"/>
      <path id="パス_20669" data-name="パス 20669" d="M696.944-1521.986l-.1,0a1.468,1.468,0,0,1-1.372-1.558c.189-2.958.293-5.694.393-8.339.305-8.038.569-14.98,3.105-22.6.847-2.544,1.842-5.008,2.805-7.391,2.839-7.029,5.291-13.1,3.171-18.6-2.037-5.29-5.611-6.922-8.25-7.359a1.467,1.467,0,0,1-1.208-1.687,1.466,1.466,0,0,1,1.689-1.207c3.394.562,7.974,2.615,10.51,9.2s-.246,13.465-3.189,20.753c-.946,2.341-1.924,4.762-2.743,7.219-2.4,7.22-2.66,13.967-2.958,21.781-.1,2.664-.206,5.419-.4,8.415A1.469,1.469,0,0,1,696.944-1521.986Z" transform="translate(-636.367 1666.585)" fill="#060000"/>
      <path id="パス_20670" data-name="パス 20670" d="M257.876-849.581H199.721a1.484,1.484,0,0,1-1.469-1.486,1.484,1.484,0,0,1,1.469-1.486h57.65a4.164,4.164,0,0,0,1.53-2.558,3.672,3.672,0,0,0-1.113-2.706H242.6a1.484,1.484,0,0,1-1.469-1.486,1.484,1.484,0,0,1,1.469-1.486h15.822a1.5,1.5,0,0,1,1.038.463,6.848,6.848,0,0,1,2.36,5.536,7.518,7.518,0,0,1-3.127,4.957A1.48,1.48,0,0,1,257.876-849.581Z" transform="translate(-181.404 998.611)" fill="#060000"/>
      <path id="パス_20671" data-name="パス 20671" d="M841.411-690.063a1.468,1.468,0,0,1-1.448-1.237l-9.692-61.1a1.467,1.467,0,0,1,1.22-1.679,1.466,1.466,0,0,1,1.68,1.219l9.693,61.1a1.469,1.469,0,0,1-1.22,1.68A1.565,1.565,0,0,1,841.411-690.063Z" transform="translate(-759.693 900.978)" fill="#060000"/>
      <path id="パス_20672" data-name="パス 20672" d="M711.93-690.065a1.468,1.468,0,0,1-1.459-1.32l-6.173-61.1a1.468,1.468,0,0,1,1.313-1.607,1.473,1.473,0,0,1,1.609,1.313l6.173,61.1a1.468,1.468,0,0,1-1.314,1.607A1.462,1.462,0,0,1,711.93-690.065Z" transform="translate(-644.436 900.981)" fill="#060000"/>
      <path id="パス_20673" data-name="パス 20673" d="M215.005-690.06c-.036,0-.071,0-.107,0a1.468,1.468,0,0,1-1.359-1.569l4.405-61.1a1.465,1.465,0,0,1,1.57-1.358,1.468,1.468,0,0,1,1.359,1.569l-4.405,61.1A1.468,1.468,0,0,1,215.005-690.06Z" transform="translate(-195.388 900.975)" fill="#060000"/>
      <path id="パス_20674" data-name="パス 20674" d="M382.375-690.818h-.022a1.331,1.331,0,0,1-1.447-1.328l.886-61.018a1.421,1.421,0,0,1,1.49-1.406,1.487,1.487,0,0,1,1.447,1.509l-.886,60.948A1.347,1.347,0,0,1,382.375-690.818Z" transform="translate(-348.534 901.411)" fill="#060000"/>
      <path id="パス_20675" data-name="パス 20675" d="M582.193-2233.468a.49.49,0,0,0-.47.213,6.711,6.711,0,0,0-.948,4.47,2.744,2.744,0,0,0,.924,1.95,1.827,1.827,0,0,0,.168-.555c.66-4.159.563-5.483.334-6.078Zm-.393,9.6h0c-1.934,0-3.668-2.031-3.946-4.635-.224-2.107.207-5.119,1.684-6.761a3.505,3.505,0,0,1,3.318-1.171c3.316.6,2.5,5.708,1.911,9.445C584.4-2224.687,582.995-2223.873,581.8-2223.873Z" transform="translate(-528.693 2257.505)" fill="#060000"/>
      <path id="パス_20676" data-name="パス 20676" d="M597.534-2016.473a1.447,1.447,0,0,1-1.445-1.467v-5.282a1.447,1.447,0,0,1,1.445-1.467,1.447,1.447,0,0,1,1.445,1.467v5.282A1.447,1.447,0,0,1,597.534-2016.473Z" transform="translate(-545.429 2063.679)" fill="#060000"/>
      <path id="パス_20677" data-name="パス 20677" d="M604.342-2151.864a7.075,7.075,0,0,1-1.792-.243,1.468,1.468,0,0,1-1.047-1.792,1.472,1.472,0,0,1,1.794-1.047c1.963.516,3.4-.4,4.777-3.054,1.5-2.885,1.249-9.189,1.024-11.375a1.467,1.467,0,0,1,1.312-1.608,1.473,1.473,0,0,1,1.61,1.311c.036.356.867,8.78-1.34,13.026C609.026-2153.466,606.9-2151.864,604.342-2151.864Z" transform="translate(-550.338 2197.557)" fill="#060000"/>
      <path id="パス_20678" data-name="パス 20678" d="M2870.015-1638.559a1.469,1.469,0,0,1-1.435-1.162l-5.809-27.291a1.471,1.471,0,0,1,.3-1.231,1.473,1.473,0,0,1,1.142-.547h50.233a1.448,1.448,0,0,1,1.469,1.443,1.449,1.449,0,0,1-1.469,1.444h-48.42l5.432,25.545a1.48,1.48,0,0,1-1.131,1.753A1.476,1.476,0,0,1,2870.015-1638.559Z" transform="translate(-2619.446 1737.999)" fill="#060000"/>
      <path id="パス_20679" data-name="パス 20679" d="M3499.007-1638.5a1.468,1.468,0,0,1-1.434-1.163l-5.81-27.291a1.468,1.468,0,0,1,1.131-1.741,1.47,1.47,0,0,1,1.743,1.13l5.809,27.291a1.468,1.468,0,0,1-1.131,1.741A1.488,1.488,0,0,1,3499.007-1638.5Z" transform="translate(-3194.982 1737.941)" fill="#060000"/>
      <path id="パス_20680" data-name="パス 20680" d="M1798.1-1678.235c-2.644,0-6.948,2.937-7.728,5.941-1.016,3.91.4,7.6,3.356,8.773a5.387,5.387,0,0,0,1.961.355,5.691,5.691,0,0,0,5.093-3.152c1.876-3.466.869-9.933-1.825-11.728A1.623,1.623,0,0,0,1798.1-1678.235Zm-2.41,18a8.339,8.339,0,0,1-3.044-.564c-4.358-1.727-6.509-6.874-5.117-12.237,1.138-4.383,6.763-8.139,10.571-8.139a4.405,4.405,0,0,1,2.487.683c4.356,2.9,5.183,11.121,2.78,15.564A8.559,8.559,0,0,1,1795.69-1660.231Z" transform="translate(-1635.228 1749.329)" fill="#060000"/>
      <path id="パス_20681" data-name="パス 20681" d="M1789.377-1895.956h-7.343a1.484,1.484,0,0,1-1.468-1.486,1.484,1.484,0,0,1,1.468-1.486h5.738L1785.1-1928.9H1766.96l3.094,24.382a1.489,1.489,0,0,1-1.272,1.662,1.463,1.463,0,0,1-1.642-1.261l-3.3-25.987a1.5,1.5,0,0,1,.355-1.17,1.485,1.485,0,0,1,1.1-.512h21.147a1.482,1.482,0,0,1,1.463,1.355l2.937,32.876a1.471,1.471,0,0,1-.379,1.124A1.471,1.471,0,0,1,1789.377-1895.956Z" transform="translate(-1613.923 1978.667)" fill="#060000"/>
      <path id="パス_20682" data-name="パス 20682" d="M1858.1-1657.449a1.46,1.46,0,0,1-.94-.34,1.466,1.466,0,0,1-.188-2.066l4.406-5.282a1.47,1.47,0,0,1,2.069-.188,1.468,1.468,0,0,1,.188,2.067l-4.406,5.281A1.468,1.468,0,0,1,1858.1-1657.449Z" transform="translate(-1698.845 1735.142)" fill="#060000"/>
      <path id="パス_20683" data-name="パス 20683" d="M1889.2-1626.345a1.467,1.467,0,0,1-.94-.34,1.467,1.467,0,0,1-.188-2.067l4.405-5.282a1.47,1.47,0,0,1,2.068-.188,1.467,1.467,0,0,1,.189,2.067l-4.406,5.282A1.463,1.463,0,0,1,1889.2-1626.345Z" transform="translate(-1727.303 1706.677)" fill="#060000"/>
      <path id="パス_20684" data-name="パス 20684" d="M1920.309-1572.813a1.465,1.465,0,0,1-.939-.34,1.468,1.468,0,0,1-.188-2.067l2.937-3.522a1.469,1.469,0,0,1,2.069-.187,1.466,1.466,0,0,1,.188,2.066l-2.936,3.521A1.469,1.469,0,0,1,1920.309-1572.813Z" transform="translate(-1755.766 1656.081)" fill="#060000"/>
      <path id="パス_20685" data-name="パス 20685" d="M2280.29-1787.826a1.47,1.47,0,0,1-1.156-.56l-2.194-2.789a1.464,1.464,0,0,1-.3-1.088,1.468,1.468,0,0,1,.56-.981l8.944-6.9a1.471,1.471,0,0,1,2.06.265,1.468,1.468,0,0,1-.266,2.059l-7.77,5.991,1.278,1.625a1.468,1.468,0,0,1-.247,2.06A1.467,1.467,0,0,1,2280.29-1787.826Z" transform="translate(-2083.145 1858.476)" fill="#060000"/>
      <path id="パス_20686" data-name="パス 20686" d="M2203.645-1960.351a1.468,1.468,0,0,1-1.441-1.2c-.685-3.638-2.165-10.041-3.22-11.74-.211-.342-1.3-1.1-3.875-1.547-2.842-.488-5.1-.161-5.578.162-.479.8.367,2.331.608,2.675a1.466,1.466,0,0,1-.362,2.043,1.47,1.47,0,0,1-2.045-.361c-.9-1.281-2.027-4-.58-6.083.8-1.146,2.683-1.689,5.559-1.614.707.018,6.956.262,8.767,3.177,1.691,2.72,3.42,11.728,3.612,12.745a1.468,1.468,0,0,1-1.172,1.714A1.49,1.49,0,0,1,2203.645-1960.351Z" transform="translate(-2000.64 2020.971)" fill="#060000"/>
      <path id="パス_20687" data-name="パス 20687" d="M2198.839-1908.106a1.473,1.473,0,0,1-.62-.138,5,5,0,0,1-2.545-3.745,3.84,3.84,0,0,1,1.4-3.564c2.3-1.88,6.556-1.131,7.033-1.039a1.469,1.469,0,0,1,1.166,1.719,1.469,1.469,0,0,1-1.718,1.164c-1.087-.2-3.645-.37-4.619.428a.931.931,0,0,0-.346.929,2.148,2.148,0,0,0,.875,1.45,1.466,1.466,0,0,1,.708,1.951A1.469,1.469,0,0,1,2198.839-1908.106Z" transform="translate(-2009.04 1964.967)" fill="#060000"/>
      <path id="パス_20688" data-name="パス 20688" d="M2220.967-1830.621c-.041,0-.083,0-.126,0-2.356-.2-4.367-3.3-5.284-4.97a4.416,4.416,0,0,1-2.493-1.555,4.311,4.311,0,0,1-.738-3.576,1.469,1.469,0,0,1,1.718-1.167,1.467,1.467,0,0,1,1.167,1.716,1.511,1.511,0,0,0,.178,1.233,1.69,1.69,0,0,0,1.224.55,1.472,1.472,0,0,1,1.217.809c1.008,2.018,2.592,3.978,3.26,4.034a1.469,1.469,0,0,1,1.34,1.586A1.468,1.468,0,0,1,2220.967-1830.621Z" transform="translate(-2024.217 1896.428)" fill="#060000"/>
      <path id="パス_20689" data-name="パス 20689" d="M2097.487-2295.438a1.436,1.436,0,0,1-.3-.032c-8.98-1.862-9.039-11.98-9.081-19.369,0-.672-.009-1.33-.018-1.968-.125-8.059,2.86-11.7,2.988-11.855a1.47,1.47,0,0,1,2.069-.18,1.466,1.466,0,0,1,.188,2.057c-.057.073-2.413,3.122-2.307,9.933.01.647.014,1.314.017,2,.05,8.574.577,15.235,6.741,16.514a1.467,1.467,0,0,1,1.14,1.734A1.469,1.469,0,0,1,2097.487-2295.438Z" transform="translate(-1910.625 2342.318)" fill="#060000"/>
      <path id="パス_20690" data-name="パス 20690" d="M2283.167-2059.257a1.469,1.469,0,0,1-1.372-.944,1.465,1.465,0,0,1,.843-1.892,10.307,10.307,0,0,0,5.9-6.783,1.469,1.469,0,0,1,1.769-1.087,1.467,1.467,0,0,1,1.087,1.768,13.3,13.3,0,0,1-7.7,8.842A1.472,1.472,0,0,1,2283.167-2059.257Z" transform="translate(-2087.785 2105.145)" fill="#060000"/>
      <path id="パス_20691" data-name="パス 20691" d="M2383.331-2206.108v-2.935l-.058,0c.071-.007,1.745-.2,2.248-3.978a2.881,2.881,0,0,0-.4-2.271,2.339,2.339,0,0,0-1.63-.51,1.464,1.464,0,0,1-1.613-1.308,1.468,1.468,0,0,1,1.309-1.612,5.211,5.211,0,0,1,4.042,1.384,5.4,5.4,0,0,1,1.205,4.7C2387.571-2206.182,2383.331-2206.108,2383.331-2206.108Z" transform="translate(-2179.441 2241.25)" fill="#060000"/>
      <path id="パス_20692" data-name="パス 20692" d="M3285.4-2180.124a1.5,1.5,0,0,0,1.743,1.2,1.5,1.5,0,0,0,1.206-1.743,1.5,1.5,0,0,0-1.745-1.2A1.5,1.5,0,0,0,3285.4-2180.124Z" transform="translate(-3006.161 2207.531)" fill="#060000"/>
      <path id="パス_20693" data-name="パス 20693" d="M3409.817-2180.124a1.5,1.5,0,0,0,1.743,1.2,1.5,1.5,0,0,0,1.205-1.743,1.5,1.5,0,0,0-1.743-1.2A1.5,1.5,0,0,0,3409.817-2180.124Z" transform="translate(-3120.007 2207.531)" fill="#060000"/>
      <path id="パス_20694" data-name="パス 20694" d="M3523.873-2185.368v-2.935h-.08c.071-.007,1.733-.205,2.237-3.978a2.88,2.88,0,0,0-.407-2.27,2.359,2.359,0,0,0-1.634-.511,1.465,1.465,0,0,1-1.614-1.308,1.469,1.469,0,0,1,1.308-1.611,5.211,5.211,0,0,1,4.042,1.385,5.405,5.405,0,0,1,1.227,4.7C3528.092-2185.443,3523.873-2185.368,3523.873-2185.368Z" transform="translate(-3223.014 2222.27)" fill="#060000"/>
      <path id="パス_20695" data-name="パス 20695" d="M2399.612-2029.588a1.462,1.462,0,0,1-.807-.242c-3.272-2.155-3.147-7.789-3.122-8.424a1.468,1.468,0,0,1,1.524-1.409,1.467,1.467,0,0,1,1.41,1.522c-.042,1.186.2,4.8,1.8,5.859a1.466,1.466,0,0,1,.418,2.033A1.468,1.468,0,0,1,2399.612-2029.588Z" transform="translate(-2192.076 2077.382)" fill="#060000"/>
      <path id="パス_20696" data-name="パス 20696" d="M2200.236-2052.9H2197.3a1.448,1.448,0,0,1-1.469-1.444,1.447,1.447,0,0,1,1.469-1.444h2.937a1.448,1.448,0,0,1,1.469,1.444A1.449,1.449,0,0,1,2200.236-2052.9Z" transform="translate(-2009.215 2092.137)" fill="#060000"/>
      <path id="パス_20697" data-name="パス 20697" d="M2173.444-2343.557a1.46,1.46,0,0,1-.8-.238,36.8,36.8,0,0,1-5.9-5.751l-.063.574a1.467,1.467,0,0,1-.636,1.054,1.468,1.468,0,0,1-1.216.2,19.721,19.721,0,0,1-10.189-6.412,1.467,1.467,0,0,1,.31-2.052,1.47,1.47,0,0,1,2.051.305,16.663,16.663,0,0,0,6.959,4.79l.241-2.2a1.469,1.469,0,0,1,1.052-1.249,1.472,1.472,0,0,1,1.556.494c1.363,1.706,5.356,6.431,7.438,7.788a1.466,1.466,0,0,1,.427,2.031A1.467,1.467,0,0,1,2173.444-2343.557Z" transform="translate(-1971.264 2367.285)" fill="#060000"/>
      <path id="パス_20698" data-name="パス 20698" d="M2077.509-2448.866a1.468,1.468,0,0,1-1.416-1.077c-1.294-4.69-.776-8.607,1.539-11.644,3.293-4.321,9.321-5.473,12.363-5.473a13.8,13.8,0,0,1,9.3,3.357,1.466,1.466,0,0,1,.016,2.075,1.471,1.471,0,0,1-2.072.021,10.858,10.858,0,0,0-7.244-2.519c-2.33,0-7.425.9-10.027,4.316-1.729,2.269-2.08,5.327-1.043,9.087a1.467,1.467,0,0,1-1.026,1.8A1.476,1.476,0,0,1,2077.509-2448.866Z" transform="translate(-1899.019 2468.485)" fill="#060000"/>
      <path id="パス_20699" data-name="パス 20699" d="M2375.442-2392.981a1.461,1.461,0,0,1-.453-.072,1.467,1.467,0,0,1-.944-1.848c1.553-4.784,1.571-8.614.051-11.073a6.374,6.374,0,0,0-4.151-2.869,1.473,1.473,0,0,1-1.238-1.662,1.465,1.465,0,0,1,1.648-1.244,9.374,9.374,0,0,1,6.2,4.176c2.049,3.265,2.143,7.833.279,13.578A1.468,1.468,0,0,1,2375.442-2392.981Z" transform="translate(-2167.386 2417.883)" fill="#060000"/>
      <path id="パス_20700" data-name="パス 20700" d="M2429.84-1754.063a1.461,1.461,0,0,1-1.056-.449l-11.893-12.324a1.466,1.466,0,0,1,.038-2.074,1.469,1.469,0,0,1,2.076.037l11.893,12.324a1.468,1.468,0,0,1-.038,2.075A1.464,1.464,0,0,1,2429.84-1754.063Z" transform="translate(-2211.112 1829.995)" fill="#060000"/>
      <path id="パス_20701" data-name="パス 20701" d="M2481-1916.268c-.045,0-.091,0-.137-.007a1.466,1.466,0,0,1-1.326-1.6l1.249-13.426a1.458,1.458,0,0,1,1.6-1.325,1.467,1.467,0,0,1,1.326,1.6l-1.249,13.426A1.469,1.469,0,0,1,2481-1916.268Z" transform="translate(-2268.808 1979.434)" fill="#060000"/>
      <path id="パス_20702" data-name="パス 20702" d="M2316.039-1638.219c-3.885,0-6.749-3.441-6.895-3.62l-16.76-21.461a1.468,1.468,0,0,1,.254-2.06,1.469,1.469,0,0,1,2.061.254l16.741,21.438c.1.119,3.01,3.576,6.175,2.165a1.471,1.471,0,0,1,1.94.742,1.468,1.468,0,0,1-.744,1.938A6.744,6.744,0,0,1,2316.039-1638.219Z" transform="translate(-2097.278 1735.146)" fill="#060000"/>
      <path id="パス_20703" data-name="パス 20703" d="M2164.231-1669.455a1.471,1.471,0,0,1-1.267-.724,48.963,48.963,0,0,1-5.114-14.485,1.466,1.466,0,0,1,1.17-1.715,1.47,1.47,0,0,1,1.715,1.17,49.219,49.219,0,0,0,3.443,10.9l5.19-11.239a1.469,1.469,0,0,1,1.949-.717,1.467,1.467,0,0,1,.718,1.947l-6.471,14.013a1.47,1.47,0,0,1-1.26.851Z" transform="translate(-1974.44 1754.119)" fill="#060000"/>
      <path id="パス_20704" data-name="パス 20704" d="M2246.884-1572.732a1.466,1.466,0,0,1-.966-.362,1.468,1.468,0,0,1-.141-2.07l7.83-8.965a1.469,1.469,0,0,1,2.072-.141,1.467,1.467,0,0,1,.141,2.07l-7.83,8.965A1.462,1.462,0,0,1,2246.884-1572.732Z" transform="translate(-2054.586 1660.989)" fill="#060000"/>
      <path id="パス_20705" data-name="パス 20705" d="M2050.064-1873.877a1.465,1.465,0,0,1-1.187-.6c-5.474-7.5-11.879-17.959-11.3-25.191a69.533,69.533,0,0,1,2.269-12.031,1.469,1.469,0,0,1,1.82-1,1.468,1.468,0,0,1,1,1.818,67.7,67.7,0,0,0-2.163,11.446c-.393,4.943,3.426,13.192,10.75,23.228a1.467,1.467,0,0,1-.321,2.051A1.467,1.467,0,0,1,2050.064-1873.877Z" transform="translate(-1864.374 1961.253)" fill="#060000"/>
      <path id="パス_20706" data-name="パス 20706" d="M1972.583-1471.391a1.47,1.47,0,0,1-1.461-1.332l-.44-4.73a1.468,1.468,0,0,1,1.326-1.6,1.473,1.473,0,0,1,1.6,1.326l.44,4.73a1.467,1.467,0,0,1-1.326,1.6C1972.674-1471.393,1972.628-1471.391,1972.583-1471.391Z" transform="translate(-1803.195 1564.378)" fill="#060000"/>
      <path id="パス_20707" data-name="パス 20707" d="M2148.393-1850.568a1.459,1.459,0,0,1-.872-.288,1.466,1.466,0,0,1-.308-2.052l2.932-3.962a1.469,1.469,0,0,1,2.054-.307,1.467,1.467,0,0,1,.308,2.052l-2.932,3.961A1.467,1.467,0,0,1,2148.393-1850.568Z" transform="translate(-1964.466 1910.653)" fill="#060000"/>
      <path id="パス_20708" data-name="パス 20708" d="M2148.39-1940.9a1.459,1.459,0,0,1-.813-.247,1.466,1.466,0,0,1-.407-2.034l1.174-1.76a1.47,1.47,0,0,1,2.036-.407,1.467,1.467,0,0,1,.407,2.035l-1.174,1.76A1.467,1.467,0,0,1,2148.39-1940.9Z" transform="translate(-1964.464 1991.297)" fill="#060000"/>
      <path id="パス_20709" data-name="パス 20709" d="M3231.837-213.66a1.468,1.468,0,0,1-1.353-.9c-2.109-4.976,3.628-10.631,3.873-10.869a1.471,1.471,0,0,1,2.078.03,1.466,1.466,0,0,1-.03,2.074c-1.269,1.24-4.319,5.024-3.217,7.621a1.468,1.468,0,0,1-.781,1.923A1.462,1.462,0,0,1,3231.837-213.66Z" transform="translate(-2955.511 417.578)" fill="#060000"/>
      <path id="パス_20710" data-name="パス 20710" d="M3471.973-775.861h-.041a1.341,1.341,0,0,1-1.428-1.369c.675-24.664.588-36.7.587-36.817a1.438,1.438,0,0,1,1.456-1.445,1.473,1.473,0,0,1,1.481,1.473c0,.12.088,12.136-.587,36.86A1.364,1.364,0,0,1,3471.973-775.861Z" transform="translate(-3175.558 957.159)" fill="#060000"/>
      <path id="パス_20711" data-name="パス 20711" d="M3285.226-775.952a1.467,1.467,0,0,1-1.459-1.323c-.6-6.03-7.833-39.592-7.905-39.931a1.467,1.467,0,0,1,1.126-1.743,1.467,1.467,0,0,1,1.745,1.125c.3,1.387,7.343,34.064,7.957,40.26a1.468,1.468,0,0,1-1.317,1.6A1.441,1.441,0,0,1,3285.226-775.952Z" transform="translate(-2997.429 960.353)" fill="#060000"/>
      <path id="パス_20712" data-name="パス 20712" d="M3220.274-316.1a1.452,1.452,0,0,1-.732-.2,1.466,1.466,0,0,1-.539-2c.007-.012.694-1.2,1.426-2.645a1.468,1.468,0,0,1,1.973-.644,1.466,1.466,0,0,1,.646,1.972c-.77,1.516-1.471,2.733-1.5,2.784A1.467,1.467,0,0,1,3220.274-316.1Z" transform="translate(-2945.252 505.34)" fill="#060000"/>
      <path id="パス_20713" data-name="パス 20713" d="M3089.462-792.03a1.36,1.36,0,0,1-1.467-1.3c-.251-2.007-8.872-25.074-14.248-39.17a1.432,1.432,0,0,1,.85-1.861,1.478,1.478,0,0,1,1.895.865c3.375,8.849,14.388,37.78,14.438,40.093a1.356,1.356,0,0,1-1.435,1.376Z" transform="translate(-2812.433 974.516)" fill="#060000"/>
      <path id="パス_20714" data-name="パス 20714" d="M3246.933-2283.843q-.366,0-.734-.019c-7.332-.368-10.836-4.981-11.716-15.428-.959-11.388,2.741-18.135,2.9-18.416a1.471,1.471,0,0,1,2-.563,1.468,1.468,0,0,1,.564,1.995c-.056.1-3.412,6.343-2.537,16.739.961,11.394,5.117,12.552,8.936,12.743,5.753.289,10.125-3.668,11.026-7.66a1.468,1.468,0,0,1,1.755-1.109,1.466,1.466,0,0,1,1.11,1.754C3259.107-2288.807,3253.869-2283.844,3246.933-2283.843Z" transform="translate(-2959.45 2332.5)" fill="#060000"/>
      <path id="パス_20715" data-name="パス 20715" d="M3329.349-2047.96a4.419,4.419,0,0,1-4.187-2.863,1.468,1.468,0,0,1,.893-1.874,1.47,1.47,0,0,1,1.868.871,1.5,1.5,0,0,0,1.426.932,1.5,1.5,0,0,0,1.418-.911,1.468,1.468,0,0,1,1.875-.892,1.467,1.467,0,0,1,.892,1.874A4.417,4.417,0,0,1,3329.349-2047.96Z" transform="translate(-3042.491 2089.386)" fill="#060000"/>
      <path id="パス_20716" data-name="パス 20716" d="M3303.128-1892.473a1.47,1.47,0,0,1-1.373-.946,62.941,62.941,0,0,1-4.036-19.577,1.467,1.467,0,0,1,1.447-1.487,1.456,1.456,0,0,1,1.49,1.446,61.136,61.136,0,0,0,3.844,18.572,1.468,1.468,0,0,1-.849,1.894A1.469,1.469,0,0,1,3303.128-1892.473Z" transform="translate(-3017.458 1962.83)" fill="#060000"/>
      <path id="パス_20717" data-name="パス 20717" d="M3409.773-1929.959a1.454,1.454,0,0,1-.633-.145,1.466,1.466,0,0,1-.69-1.957c2.481-5.167,4.259-8.445,5.827-11.337a110.964,110.964,0,0,0,5.688-11.664,1.469,1.469,0,0,1,1.922-.788,1.467,1.467,0,0,1,.789,1.92,115.313,115.313,0,0,1-5.816,11.93c-1.553,2.862-3.313,6.105-5.762,11.208A1.469,1.469,0,0,1,3409.773-1929.959Z" transform="translate(-3118.646 2000.789)" fill="#060000"/>
      <path id="パス_20718" data-name="パス 20718" d="M3325.135-1832.625a16.839,16.839,0,0,1-6.973-1.326,1.468,1.468,0,0,1-.667-1.966,1.469,1.469,0,0,1,1.961-.669c.084.039,5.007,2.316,12.2-.074a1.469,1.469,0,0,1,1.855.93,1.467,1.467,0,0,1-.93,1.855A23.572,23.572,0,0,1,3325.135-1832.625Z" transform="translate(-3035.416 1891.685)" fill="#060000"/>
      <path id="パス_20719" data-name="パス 20719" d="M2676.074-1652.73l-.071,0a1.468,1.468,0,0,1-1.4-1.535c.01-.209.989-20.919.926-24.293-.04-2.182-2.421-2.753-2.693-2.812a1.472,1.472,0,0,1-1.136-1.733,1.465,1.465,0,0,1,1.72-1.143c1.716.342,4.979,1.961,5.046,5.634.064,3.471-.888,23.63-.929,24.487A1.469,1.469,0,0,1,2676.074-1652.73Z" transform="translate(-2444.617 1752.172)" fill="#060000"/>
      <path id="パス_20720" data-name="パス 20720" d="M2446.128-844.52a1.484,1.484,0,0,1-1.469-1.486,1.484,1.484,0,0,1,1.469-1.486H2461.4c.551,0,3.43-.269,3.43-4.368a1.454,1.454,0,0,1,1.469-1.45,1.462,1.462,0,0,1,1.468,1.461c0,5.765-4.157,7.33-6.355,7.33Z" transform="translate(-2236.897 991.766)" fill="#060000"/>
      <path id="パス_20721" data-name="パス 20721" d="M2104.64-781.818h-4.112a1.484,1.484,0,0,1-1.469-1.486,1.484,1.484,0,0,1,1.469-1.486h4.112a1.484,1.484,0,0,1,1.469,1.486A1.485,1.485,0,0,1,2104.64-781.818Z" transform="translate(-1920.67 929.064)" fill="#060000"/>
      <path id="パス_20722" data-name="パス 20722" d="M2155.714-249.886a8.569,8.569,0,0,1-5.508-1.539,4.164,4.164,0,0,1-1.551-3.013c-.116-2.574,2.151-5.112,4.685-7.7a39.071,39.071,0,0,0,4.819-6.19,1.47,1.47,0,0,1,2.017-.5,1.467,1.467,0,0,1,.5,2.015,41.634,41.634,0,0,1-5.231,6.722c-1.37,1.4-3.919,4.006-3.852,5.52a1.219,1.219,0,0,0,.527.914c2,1.71,8.969.542,11.2-1.067a14.538,14.538,0,0,0,2.241-2.3c1.562-1.838,3.506-4.127,6.132-3.118a2.709,2.709,0,0,0,2.641-.9,40.921,40.921,0,0,0-1.06-5.658,1.467,1.467,0,0,1,1.031-1.8,1.469,1.469,0,0,1,1.8,1.03,43.826,43.826,0,0,1,1.221,6.809,1.473,1.473,0,0,1-.307,1.035c-1.048,1.334-3.572,3.3-6.383,2.224-.682-.262-1.827,1.089-2.839,2.279a16.4,16.4,0,0,1-2.761,2.774C2163.23-251.042,2159.271-249.886,2155.714-249.886Z" transform="translate(-1966.045 457.108)" fill="#060000"/>
      <path id="パス_20723" data-name="パス 20723" d="M1810.114-249.886a8.567,8.567,0,0,1-5.508-1.539,4.166,4.166,0,0,1-1.552-3.013c-.116-2.574,2.15-5.112,4.685-7.7a39.151,39.151,0,0,0,4.818-6.19,1.47,1.47,0,0,1,2.017-.5,1.466,1.466,0,0,1,.5,2.015,41.555,41.555,0,0,1-5.231,6.722c-1.369,1.4-3.919,4.006-3.852,5.52a1.223,1.223,0,0,0,.528.914c2,1.71,8.969.542,11.2-1.067a14.532,14.532,0,0,0,2.241-2.3c1.562-1.838,3.5-4.127,6.132-3.118a2.708,2.708,0,0,0,2.641-.9,40.987,40.987,0,0,0-1.06-5.658,1.467,1.467,0,0,1,1.031-1.8,1.47,1.47,0,0,1,1.8,1.03,43.984,43.984,0,0,1,1.221,6.809,1.471,1.471,0,0,1-.307,1.035c-1.048,1.334-3.572,3.3-6.383,2.224-.682-.262-1.827,1.089-2.839,2.279a16.409,16.409,0,0,1-2.761,2.774C1817.63-251.042,1813.672-249.886,1810.114-249.886Z" transform="translate(-1649.815 457.108)" fill="#060000"/>
      <path id="パス_20724" data-name="パス 20724" d="M1998.1-254.161a1.47,1.47,0,0,1-.635-.144l-3.555-1.709a1.467,1.467,0,0,1-.686-1.959,1.47,1.47,0,0,1,1.96-.685l2.394,1.151.631-.965a1.47,1.47,0,0,1,2.033-.425,1.466,1.466,0,0,1,.425,2.031l-1.337,2.043A1.468,1.468,0,0,1,1998.1-254.161Z" transform="translate(-1823.692 448.05)" fill="#060000"/>
      <path id="パス_20725" data-name="パス 20725" d="M2343.7-254.161a1.474,1.474,0,0,1-.636-.144l-3.554-1.709a1.468,1.468,0,0,1-.687-1.959,1.47,1.47,0,0,1,1.96-.685l2.394,1.151.632-.965a1.469,1.469,0,0,1,2.032-.425,1.466,1.466,0,0,1,.425,2.031l-1.337,2.043A1.469,1.469,0,0,1,2343.7-254.161Z" transform="translate(-2139.926 448.05)" fill="#060000"/>
      <path id="パス_20726" data-name="パス 20726" d="M2660.571-708.624a1.6,1.6,0,0,1-1.467-1.575l-1.269-47.615a1.5,1.5,0,0,1,1.429-1.542,1.465,1.465,0,0,1,1.507,1.41l1.269,47.386a1.327,1.327,0,0,1-1.429,1.35C2660.6-708.624,2660.584-708.624,2660.571-708.624Z" transform="translate(-2431.954 905.791)" fill="#060000"/>
      <path id="パス_20727" data-name="パス 20727" d="M2529.24-708.624a1.6,1.6,0,0,1-1.467-1.575l-1.269-47.615a1.5,1.5,0,0,1,1.43-1.542,1.459,1.459,0,0,1,1.507,1.41l1.268,47.386a1.327,1.327,0,0,1-1.429,1.35C2529.267-708.624,2529.253-708.624,2529.24-708.624Z" transform="translate(-2311.785 905.791)" fill="#060000"/>
      <path id="パス_20728" data-name="パス 20728" d="M3835.62-708.624a1.6,1.6,0,0,1-1.468-1.575l-1.268-47.615a1.5,1.5,0,0,1,1.427-1.542,1.457,1.457,0,0,1,1.508,1.41l1.269,47.386a1.328,1.328,0,0,1-1.43,1.35C3835.646-708.624,3835.632-708.624,3835.62-708.624Z" transform="translate(-3507.141 905.791)" fill="#060000"/>
      <path id="パス_20729" data-name="パス 20729" d="M3704.29-706.275a1.6,1.6,0,0,1-1.468-1.575l-1.268-47.488a1.408,1.408,0,0,1,1.428-1.452h.04a1.364,1.364,0,0,1,1.467,1.3l1.269,47.332a1.283,1.283,0,0,1-1.429,1.291C3704.316-706.28,3704.3-706.275,3704.29-706.275Z" transform="translate(-3386.972 903.443)" fill="#060000"/>
      <path id="パス_20730" data-name="パス 20730" d="M3067.647-651.876h-.022c-.811-.51-1.458-.788-1.446-1.6l.635-42.314a1.5,1.5,0,0,1,1.49-1.473,1.457,1.457,0,0,1,1.448,1.476l-.636,42.361A1.558,1.558,0,0,1,3067.647-651.876Z" transform="translate(-2805.596 848.968)" fill="#060000"/>
      <path id="パス_20731" data-name="パス 20731" d="M3102.207-1893.065a1.451,1.451,0,0,1-.252-.021,1.468,1.468,0,0,1-1.2-1.7c.184-1.062,1.845-10.478,3.689-13.78,2.025-3.629,9.743-5.661,10.616-5.881a1.467,1.467,0,0,1,1.782,1.064,1.467,1.467,0,0,1-1.065,1.781c-2.825.714-7.7,2.556-8.769,4.464-1.355,2.428-2.885,10.1-3.36,12.85A1.469,1.469,0,0,1,3102.207-1893.065Z" transform="translate(-2837.216 1962.834)" fill="#060000"/>
      <path id="パス_20732" data-name="パス 20732" d="M3154.776-1740.211a1.467,1.467,0,0,1-1.454-1.271l-.735-5.463a1.468,1.468,0,0,1,1.26-1.649,1.464,1.464,0,0,1,1.651,1.259l.734,5.462a1.467,1.467,0,0,1-1.259,1.65A1.387,1.387,0,0,1,3154.776-1740.211Z" transform="translate(-2884.649 1811.04)" fill="#060000"/>
      <path id="パス_20733" data-name="パス 20733" d="M3222.605-1888.146a1.467,1.467,0,0,1-1.212-.638,28.875,28.875,0,0,1-3.9-9.188c-1.17-5.316,1.883-11.938,2.012-12.217a1.47,1.47,0,0,1,1.952-.71,1.468,1.468,0,0,1,.71,1.95c-.027.06-2.76,6.009-1.805,10.347a26.1,26.1,0,0,0,3.448,8.158,1.466,1.466,0,0,1-.381,2.04A1.459,1.459,0,0,1,3222.605-1888.146Z" transform="translate(-2943.812 1959.677)" fill="#060000"/>
      <path id="パス_20734" data-name="パス 20734" d="M3599.625-1888.094a1.467,1.467,0,0,1-1.438-1.185,1.466,1.466,0,0,1,1.158-1.722c.264-.059,2.741-.715,3.031-4.316.478-5.9-1.262-33-3.277-35.6-1.7-2.2-10.714-6.073-15.994-8a1.467,1.467,0,0,1-.876-1.881,1.468,1.468,0,0,1,1.882-.876c1.48.538,14.536,5.368,17.311,8.96,3.092,4,4.2,33.659,3.881,37.634-.383,4.745-3.7,6.628-5.394,6.961A1.565,1.565,0,0,1,3599.625-1888.094Z" transform="translate(-3277.707 1987.795)" fill="#060000"/>
      <path id="パス_20735" data-name="パス 20735" d="M3545.638-1484.2a1.468,1.468,0,0,1-1.444-1.211,1.468,1.468,0,0,1,1.189-1.7l12.881-2.284a1.47,1.47,0,0,1,1.7,1.188,1.47,1.47,0,0,1-1.19,1.7l-12.881,2.284A1.513,1.513,0,0,1,3545.638-1484.2Z" transform="translate(-3242.966 1573.86)" fill="#060000"/>
      <path id="パス_20736" data-name="パス 20736" d="M3652.535-1672.964a1.447,1.447,0,0,1-1.445-1.467v-17.021a1.447,1.447,0,0,1,1.445-1.468,1.448,1.448,0,0,1,1.445,1.468v17.021A1.448,1.448,0,0,1,3652.535-1672.964Z" transform="translate(-3340.798 1760.081)" fill="#060000"/>
      <path id="パス_20737" data-name="パス 20737" d="M255.849-2454.054h0a8.583,8.583,0,0,0,6.106-3.171c1.575-1.91,2.89-5.051,2.61-10.286-.621-11.607-12.949-14.917-14.222-15.229-1.325-.438-17.486-5.39-26.932,9.99-5.782,9.415-6.4,16.761-4.8,22.062a16.046,16.046,0,0,0,9.58,10.377,32.647,32.647,0,0,0,16.725,1.339c4.067-.849,7.68-2.761,9.871-6.1a1.57,1.57,0,0,0,.1-1.548,1.573,1.573,0,0,0-1.279-.879,2.544,2.544,0,0,1-1.839-.941c-.442-.674-.32-1.715.551-3.407a1.572,1.572,0,0,0-.678-2.116,1.574,1.574,0,0,0-2.117.678c-1.662,3.225-1.229,5.281-.387,6.567a4.771,4.771,0,0,0,1.686,1.523,13.255,13.255,0,0,1-6.552,3.149,29.222,29.222,0,0,1-14.981-1.207,13.072,13.072,0,0,1-8.235-11.262c-.4-4.363.9-9.869,5.03-16.589,8.5-13.844,23.292-8.642,23.292-8.642a1.579,1.579,0,0,0,.194.055s11.312,2.341,11.848,12.35c.22,4.114-.659,6.62-1.9,8.121a5.5,5.5,0,0,1-3.726,2.027,1.573,1.573,0,0,0-1.549,1.595A1.573,1.573,0,0,0,255.849-2454.054Z" transform="translate(-199.334 2483.843)" fill="#060000" fill-rule="evenodd"/>
      <path id="パス_20738" data-name="パス 20738" d="M444.06-1883.225c-.025,0-.049,0-.075,0l-5.874-.293a1.469,1.469,0,0,1-1.393-1.54,1.463,1.463,0,0,1,1.54-1.392l5.874.293a1.469,1.469,0,0,1,1.393,1.54A1.469,1.469,0,0,1,444.06-1883.225Z" transform="translate(-399.6 1937.18)" fill="#060000"/>
      <path id="パス_20739" data-name="パス 20739" d="M580.482-1875.21a1.471,1.471,0,0,1-.27-.025l-7.515-1.4a1.468,1.468,0,0,1-1.176-1.711,1.47,1.47,0,0,1,1.712-1.174l7.515,1.4a1.468,1.468,0,0,1,1.175,1.711A1.468,1.468,0,0,1,580.482-1875.21Z" transform="translate(-522.927 1930.857)" fill="#060000"/>
      <path id="パス_20740" data-name="パス 20740" d="M690.229-1734.715a1.468,1.468,0,0,1-1.466-1.407c-.312-7.587,2.533-11.364,2.654-11.521a1.469,1.469,0,0,1,2.06-.265,1.465,1.465,0,0,1,.272,2.049c-.052.071-2.314,3.226-2.052,9.618a1.467,1.467,0,0,1-1.407,1.526Z" transform="translate(-630.206 1810.681)" fill="#060000"/>
      <path id="パス_20741" data-name="パス 20741" d="M762.4-1193.84a9.17,9.17,0,0,1-6.258-2.466,1.454,1.454,0,0,1-.3-.452l-4.514-10.707a1.467,1.467,0,0,1,.784-1.922,1.468,1.468,0,0,1,1.923.782l4.39,10.412a6.487,6.487,0,0,0,6.559.923,1.47,1.47,0,0,1,1.888.866,1.468,1.468,0,0,1-.865,1.887A10.334,10.334,0,0,1,762.4-1193.84Z" transform="translate(-687.369 1317.713)" fill="#060000"/>
      <path id="パス_20742" data-name="パス 20742" d="M969.957-1093.564a1.466,1.466,0,0,1-.4-.056,1.466,1.466,0,0,1-1.011-1.812c.988-3.484-2.818-7.418-2.857-7.456a1.467,1.467,0,0,1,0-2.076,1.469,1.469,0,0,1,2.077,0c.207.208,5.073,5.153,3.6,10.331A1.47,1.47,0,0,1,969.957-1093.564Z" transform="translate(-883.224 1222.443)" fill="#060000"/>
      <path id="パス_20743" data-name="パス 20743" d="M890.394-465.3a1.484,1.484,0,0,1-1.487-1.467v-2.686l-6.714-19.163a1.464,1.464,0,0,1,.9-1.869,1.466,1.466,0,0,1,1.871.9l6.815,19.4a1.49,1.49,0,0,1,.1.485v2.935A1.484,1.484,0,0,1,890.394-465.3Z" transform="translate(-807.142 659.83)" fill="#060000"/>
      <path id="パス_20744" data-name="パス 20744" d="M1041.019-600.789a1.468,1.468,0,0,1-1.458-1.311l-3.393-31.655a1.468,1.468,0,0,1,1.3-1.615,1.465,1.465,0,0,1,1.616,1.3l3.393,31.654a1.468,1.468,0,0,1-1.3,1.616C1041.125-600.792,1041.071-600.789,1041.019-600.789Z" transform="translate(-948.101 792.34)" fill="#060000"/>
      <path id="パス_20745" data-name="パス 20745" d="M1106.151-233.174a1.465,1.465,0,0,1-.877-.291,60.956,60.956,0,0,0-7.592-5.137,1.47,1.47,0,0,1-.683-1.957,1.466,1.466,0,0,1,1.951-.69c.089.042,2.255,1.09,8.08,5.431a1.466,1.466,0,0,1,.3,2.053A1.465,1.465,0,0,1,1106.151-233.174Z" transform="translate(-1003.637 431.81)" fill="#060000"/>
      <path id="パス_20746" data-name="パス 20746" d="M683.246-606.486a1.47,1.47,0,0,1-1.339-.864c-.071-.156-7.133-15.76-9.425-20.582a76.381,76.381,0,0,1-4.177-12.552,1.467,1.467,0,0,1,1.09-1.766,1.47,1.47,0,0,1,1.769,1.089,74.742,74.742,0,0,0,3.971,11.971c2.3,4.846,9.378,20.476,9.449,20.633a1.467,1.467,0,0,1-.733,1.941A1.461,1.461,0,0,1,683.246-606.486Z" transform="translate(-611.472 798.666)" fill="#060000"/>
      <path id="パス_20747" data-name="パス 20747" d="M727.132-1018.461a10.467,10.467,0,0,1-1.79-.132,1.467,1.467,0,0,1-1.174-1.712,1.467,1.467,0,0,1,1.707-1.173,12.874,12.874,0,0,0,10.7-4,1.469,1.469,0,0,1,2.076.009,1.466,1.466,0,0,1-.008,2.075A16.267,16.267,0,0,1,727.132-1018.461Z" transform="translate(-662.602 1149.705)" fill="#060000"/>
      <path id="パス_20748" data-name="パス 20748" d="M-9087.589,8923.215c-5.146,0-7.358-1.677-7.594-1.866l-.419-.342-.062-.535-5.63-47.73a1.328,1.328,0,0,1,1.165-1.476,1.212,1.212,0,0,1,.157-.009,1.332,1.332,0,0,1,1.32,1.174l5.555,47.087a6.641,6.641,0,0,0,.94.39,14.276,14.276,0,0,0,4.566.648,73.211,73.211,0,0,0,11.149-1.329l-2.188-46.577a1.332,1.332,0,0,1,1.269-1.393,1.332,1.332,0,0,1,1.39,1.267l2.3,48.869-1.117.227A82.133,82.133,0,0,1-9087.589,8923.215Z" transform="translate(9255.528 -8732.156)" fill="#060000"/>
      <path id="パス_20749" data-name="パス 20749" d="M-9056.663,8922.789c-2.877,0-4.955-.176-5.084-.189l-1.064-.093-.14-1.057-6.451-48.689a1.331,1.331,0,0,1,1.146-1.493,1.206,1.206,0,0,1,.178-.011,1.332,1.332,0,0,1,1.317,1.154l6.307,47.61a65.3,65.3,0,0,0,8.5-.072,84.776,84.776,0,0,0,9.29-1.379l-2.668-43.431a1.329,1.329,0,0,1,1.247-1.409c.027,0,.056,0,.083,0a1.329,1.329,0,0,1,1.326,1.247l2.808,45.71-1.106.249a89.888,89.888,0,0,1-10.763,1.667C-9053.489,8922.743-9055.183,8922.789-9056.663,8922.789Z" transform="translate(9251.94 -8732.158)" fill="#060000"/>
      <path id="パス_20750" data-name="パス 20750" d="M-8942.946,8737.907a1.319,1.319,0,0,1-.478-.088c-2.881-1.106-4.955-3.6-6-7.2a18.381,18.381,0,0,1-.709-4.989,1.334,1.334,0,0,1,1.332-1.3h.031a1.332,1.332,0,0,1,1.3,1.358h0a15.778,15.778,0,0,0,.62,4.253c.819,2.78,2.293,4.6,4.379,5.4a1.331,1.331,0,0,1,.763,1.719A1.33,1.33,0,0,1-8942.946,8737.907Z" transform="translate(9238.514 -8715.51)" fill="#060000"/>
    </g>
  </g>
</svg>
