<svg xmlns="http://www.w3.org/2000/svg" width="43" height="43" viewBox="0 0 43 43">
  <g id="merit01-icon" transform="translate(3.798)">
    <circle id="楕円形_54" data-name="楕円形 54" cx="21.5" cy="21.5" r="21.5" transform="translate(-3.798)" fill="#d6b2b2"/>
    <g id="icon" transform="translate(6.587 -0.7)">
      <path id="パス_22584" data-name="パス 22584" d="M6.758,23.651V37.543H9.536v2.779H20.65V37.543h2.779V23.651Z" transform="translate(-3.979 -7.957)" fill="#fdd0ad"/>
      <rect id="長方形_451" data-name="長方形 451" width="2.778" height="2.778" transform="translate(2.759 12.915)" fill="#754800"/>
      <rect id="長方形_452" data-name="長方形 452" width="2.778" height="2.778" transform="translate(5.557 10.137)" fill="#754800"/>
      <rect id="長方形_453" data-name="長方形 453" width="2.778" height="2.778" transform="translate(8.336 10.137)" fill="#996501"/>
      <rect id="長方形_454" data-name="長方形 454" width="2.778" height="2.778" transform="translate(11.114 10.137)" fill="#996501"/>
      <rect id="長方形_455" data-name="長方形 455" width="2.778" height="2.778" transform="translate(13.893 10.137)" fill="#996501"/>
      <rect id="長方形_456" data-name="長方形 456" width="2.778" height="2.778" transform="translate(2.779 15.694)" fill="#754800"/>
      <rect id="長方形_457" data-name="長方形 457" width="2.778" height="2.778" transform="translate(2.779 18.472)" fill="#996501"/>
      <rect id="長方形_458" data-name="長方形 458" width="2.778" height="2.778" transform="translate(5.557 12.915)" fill="#996501"/>
      <rect id="長方形_459" data-name="長方形 459" width="2.778" height="2.778" transform="translate(11.114 12.915)" fill="#996501"/>
      <rect id="長方形_460" data-name="長方形 460" width="2.778" height="2.778" transform="translate(5.557 20.672)" fill="#996501"/>
      <rect id="長方形_461" data-name="長方形 461" width="2.778" height="2.778" transform="translate(13.429 20.672)" fill="#996501"/>
      <rect id="長方形_462" data-name="長方形 462" width="2.778" height="2.778" transform="translate(13.893 12.915)" fill="#754800"/>
      <rect id="長方形_463" data-name="長方形 463" width="2.778" height="2.778" transform="translate(16.671 12.915)" fill="#996501"/>
      <rect id="長方形_464" data-name="長方形 464" width="2.778" height="2.778" transform="translate(16.671 15.694)" fill="#996501"/>
      <rect id="長方形_465" data-name="長方形 465" width="2.778" height="2.778" transform="translate(19.449 15.694)" fill="#996501"/>
      <rect id="長方形_466" data-name="長方形 466" width="2.778" height="2.778" transform="translate(19.449 18.472)" fill="#996501"/>
      <rect id="長方形_467" data-name="長方形 467" width="2.778" height="2.778" transform="translate(19.449 21.25)" fill="#996501"/>
      <rect id="長方形_468" data-name="長方形 468" width="2.778" height="2.778" transform="translate(19.449 24.029)" fill="#996501"/>
      <rect id="長方形_469" data-name="長方形 469" width="2.778" height="2.778" transform="translate(19.449 26.807)" fill="#996501"/>
      <rect id="長方形_470" data-name="長方形 470" width="2.778" height="2.778" transform="translate(19.449 29.586)" fill="#754800"/>
      <rect id="長方形_471" data-name="長方形 471" width="2.778" height="2.778" transform="translate(19.449 32.364)" fill="#754800"/>
      <rect id="長方形_472" data-name="長方形 472" width="2.778" height="2.778" transform="translate(16.671 29.586)" fill="#996501"/>
      <rect id="長方形_473" data-name="長方形 473" width="2.778" height="2.778" transform="translate(16.671 32.364)" fill="#996501"/>
      <rect id="長方形_474" data-name="長方形 474" width="2.778" height="2.778" transform="translate(13.893 35.143)" fill="#754800"/>
      <rect id="長方形_475" data-name="長方形 475" width="2.778" height="2.778" transform="translate(16.671 35.143)" fill="#996501"/>
      <rect id="長方形_476" data-name="長方形 476" width="2.779" height="2.778" transform="translate(13.892 37.921)" fill="#754800"/>
      <rect id="長方形_477" data-name="長方形 477" width="2.778" height="2.778" transform="translate(16.671 37.921)" fill="#996501"/>
      <rect id="長方形_478" data-name="長方形 478" width="2.778" height="2.778" transform="translate(8.336 12.915)" fill="#754800"/>
      <rect id="長方形_479" data-name="長方形 479" width="2.778" height="2.778" transform="translate(0 15.694)" fill="#754800"/>
      <rect id="長方形_480" data-name="長方形 480" width="2.778" height="2.778" transform="translate(0 18.472)" fill="#754800"/>
      <rect id="長方形_481" data-name="長方形 481" width="2.778" height="2.778" transform="translate(0 21.25)" fill="#754800"/>
      <rect id="長方形_482" data-name="長方形 482" width="2.778" height="2.779" transform="translate(0 24.029)" fill="#754800"/>
      <rect id="長方形_483" data-name="長方形 483" width="2.778" height="2.778" transform="translate(0 26.807)" fill="#754800"/>
    </g>
  </g>
</svg>
