<svg xmlns="http://www.w3.org/2000/svg" width="43" height="43" viewBox="0 0 43 43">
  <g id="merit02-icon" transform="translate(4 -1.56)">
    <circle id="楕円形_54" data-name="楕円形 54" cx="21.5" cy="21.5" r="21.5" transform="translate(-4 1.56)" fill="#debd68"/>
    <g id="グループ_2731" data-name="グループ 2731" transform="translate(-66.856 4.4)">
      <path id="パス_22586" data-name="パス 22586" d="M79.808,26.84v14.1h2.819v2.819H93.9V40.936h2.819V26.84Z" transform="translate(-3.921 -11.594)" fill="#fdd0ad"/>
      <rect id="長方形_517" data-name="長方形 517" width="2.819" height="2.819" transform="translate(79.123 21.042)" fill="#633d00"/>
      <rect id="長方形_518" data-name="長方形 518" width="2.819" height="2.819" transform="translate(87.111 21.042)" fill="#633d00"/>
      <rect id="長方形_519" data-name="長方形 519" width="2.819" height="2.819" transform="translate(73.08 12.585)" fill="#412b00"/>
      <rect id="長方形_520" data-name="長方形 520" width="2.819" height="2.819" transform="translate(75.899 9.766)" fill="#412b00"/>
      <rect id="長方形_521" data-name="長方形 521" width="2.819" height="2.819" transform="translate(78.718 6.947)" fill="#412b00"/>
      <rect id="長方形_522" data-name="長方形 522" width="2.819" height="2.819" transform="translate(73.08 15.404)" fill="#412b00"/>
      <rect id="長方形_523" data-name="長方形 523" width="2.819" height="2.819" transform="translate(75.899 12.585)" fill="#633d00"/>
      <rect id="長方形_524" data-name="長方形 524" width="2.819" height="2.819" transform="translate(78.718 9.766)" fill="#633d00"/>
      <rect id="長方形_525" data-name="長方形 525" width="2.819" height="2.819" transform="translate(81.537 6.947)" fill="#633d00"/>
      <rect id="長方形_526" data-name="長方形 526" width="2.819" height="2.819" transform="translate(73.08 18.223)" fill="#412b00"/>
      <rect id="長方形_527" data-name="長方形 527" width="2.819" height="2.819" transform="translate(78.718 12.585)" fill="#412b00"/>
      <rect id="長方形_528" data-name="長方形 528" width="2.819" height="2.819" transform="translate(81.537 12.585)" fill="#633d00"/>
      <rect id="長方形_529" data-name="長方形 529" width="2.819" height="2.819" transform="translate(84.356 12.585)" fill="#633d00"/>
      <rect id="長方形_530" data-name="長方形 530" width="2.819" height="2.819" transform="translate(81.537 15.404)" fill="#633d00"/>
      <rect id="長方形_531" data-name="長方形 531" width="2.819" height="2.819" transform="translate(84.356 15.404)" fill="#633d00"/>
      <rect id="長方形_532" data-name="長方形 532" width="2.819" height="2.819" transform="translate(87.175 12.585)" fill="#633d00"/>
      <rect id="長方形_533" data-name="長方形 533" width="2.819" height="2.819" transform="translate(89.994 12.585)" fill="#633d00"/>
      <rect id="長方形_534" data-name="長方形 534" width="2.819" height="2.819" transform="translate(84.356 9.766)" fill="#633d00"/>
      <rect id="長方形_535" data-name="長方形 535" width="2.819" height="2.819" transform="translate(87.175 9.766)" fill="#633d00"/>
      <rect id="長方形_536" data-name="長方形 536" width="2.819" height="2.819" transform="translate(89.994 9.766)" fill="#633d00"/>
      <rect id="長方形_537" data-name="長方形 537" width="2.819" height="2.819" transform="translate(92.813 12.585)" fill="#633d00"/>
      <rect id="長方形_538" data-name="長方形 538" width="2.819" height="2.819" transform="translate(92.813 15.404)" fill="#633d00"/>
      <rect id="長方形_539" data-name="長方形 539" width="2.819" height="2.819" transform="translate(92.813 18.223)" fill="#633d00"/>
      <rect id="長方形_540" data-name="長方形 540" width="2.819" height="2.819" transform="translate(73.08 21.042)" fill="#fdd0ad"/>
      <rect id="長方形_541" data-name="長方形 541" width="2.819" height="2.819" transform="translate(92.813 21.042)" fill="#fdd0ad"/>
      <rect id="長方形_542" data-name="長方形 542" width="2.819" height="2.819" transform="translate(81.537 9.766)" fill="#412b00"/>
    </g>
  </g>
</svg>
