<svg xmlns="http://www.w3.org/2000/svg" width="43" height="43" viewBox="0 0 43 43">
  <g id="merit03-icon" transform="translate(3.798)">
    <circle id="楕円形_54" data-name="楕円形 54" cx="21.5" cy="21.5" r="21.5" transform="translate(-3.798)" fill="#e2c4f0"/>
    <g id="グループ_2732" data-name="グループ 2732" transform="translate(-139.535 5.986)">
      <path id="パス_22585" data-name="パス 22585" d="M153.126,27.03V40.614h2.717v2.717h10.868V40.614h2.717V27.03Z" transform="translate(-4.04 -16.161)" fill="#fdd0ad"/>
      <rect id="長方形_484" data-name="長方形 484" width="2.717" height="2.717" transform="translate(149.067 8.152)" fill="#754800"/>
      <rect id="長方形_485" data-name="長方形 485" width="2.717" height="2.717" transform="translate(151.803 5.435)" fill="#754800"/>
      <rect id="長方形_486" data-name="長方形 486" width="2.717" height="2.717" transform="translate(154.52 5.435)" fill="#996501"/>
      <rect id="長方形_487" data-name="長方形 487" width="2.717" height="2.717" transform="translate(157.237 5.435)" fill="#996501"/>
      <rect id="長方形_488" data-name="長方形 488" width="2.717" height="2.717" transform="translate(154.52 2.718)" fill="#f8c100"/>
      <rect id="長方形_489" data-name="長方形 489" width="2.717" height="2.717" transform="translate(157.237 2.718)" fill="#f8c100"/>
      <rect id="長方形_490" data-name="長方形 490" width="2.717" height="2.717" transform="translate(154.519 0.001)" fill="#996501"/>
      <rect id="長方形_491" data-name="長方形 491" width="2.717" height="2.717" transform="translate(157.237 0.001)" fill="#996501"/>
      <rect id="長方形_492" data-name="長方形 492" width="2.717" height="2.717" transform="translate(159.954 5.435)" fill="#996501"/>
      <rect id="長方形_493" data-name="長方形 493" width="2.717" height="2.717" transform="translate(159.954 8.152)" fill="#996501"/>
      <rect id="長方形_494" data-name="長方形 494" width="2.717" height="2.717" transform="translate(159.954 10.869)" fill="#996501"/>
      <rect id="長方形_495" data-name="長方形 495" width="2.717" height="2.717" transform="translate(149.086 10.869)" fill="#996501"/>
      <rect id="長方形_496" data-name="長方形 496" width="2.717" height="2.717" transform="translate(149.086 13.586)" fill="#996501"/>
      <rect id="長方形_497" data-name="長方形 497" width="2.717" height="2.717" transform="translate(151.803 8.152)" fill="#996501"/>
      <rect id="長方形_498" data-name="長方形 498" width="2.717" height="2.717" transform="translate(157.237 8.152)" fill="#996501"/>
      <rect id="長方形_499" data-name="長方形 499" width="2.717" height="2.717" transform="translate(151.803 15.736)" fill="#996501"/>
      <rect id="長方形_500" data-name="長方形 500" width="2.717" height="2.717" transform="translate(159.501 15.736)" fill="#996501"/>
      <rect id="長方形_501" data-name="長方形 501" width="2.717" height="2.717" transform="translate(157.237 10.869)" fill="#754800"/>
      <rect id="長方形_502" data-name="長方形 502" width="2.717" height="2.717" transform="translate(162.671 8.152)" fill="#996501"/>
      <rect id="長方形_503" data-name="長方形 503" width="2.717" height="2.717" transform="translate(162.671 10.869)" fill="#996501"/>
      <rect id="長方形_504" data-name="長方形 504" width="2.717" height="2.717" transform="translate(162.671 13.586)" fill="#996501"/>
      <rect id="長方形_505" data-name="長方形 505" width="2.717" height="2.717" transform="translate(165.388 10.869)" fill="#996501"/>
      <rect id="長方形_506" data-name="長方形 506" width="2.717" height="2.717" transform="translate(165.388 13.585)" fill="#996501"/>
      <rect id="長方形_507" data-name="長方形 507" width="2.717" height="2.717" transform="translate(165.388 16.302)" fill="#996501"/>
      <rect id="長方形_508" data-name="長方形 508" width="2.717" height="2.717" transform="translate(165.388 19.02)" fill="#996501"/>
      <rect id="長方形_509" data-name="長方形 509" width="2.717" height="2.717" transform="translate(165.388 21.736)" fill="#996501"/>
      <rect id="長方形_510" data-name="長方形 510" width="2.717" height="2.717" transform="translate(165.388 24.453)" fill="#996501"/>
      <rect id="長方形_511" data-name="長方形 511" width="2.717" height="2.717" transform="translate(154.52 8.152)" fill="#754800"/>
      <rect id="長方形_512" data-name="長方形 512" width="2.717" height="2.717" transform="translate(146.369 10.869)" fill="#754800"/>
      <rect id="長方形_513" data-name="長方形 513" width="2.717" height="2.717" transform="translate(146.369 13.586)" fill="#754800"/>
      <rect id="長方形_514" data-name="長方形 514" width="2.717" height="2.717" transform="translate(146.369 16.302)" fill="#754800"/>
      <rect id="長方形_515" data-name="長方形 515" width="2.717" height="2.717" transform="translate(146.369 19.02)" fill="#754800"/>
      <rect id="長方形_516" data-name="長方形 516" width="2.717" height="2.717" transform="translate(146.369 21.736)" fill="#754800"/>
    </g>
  </g>
</svg>
