<svg xmlns="http://www.w3.org/2000/svg" xmlns:xlink="http://www.w3.org/1999/xlink" width="348" height="274" viewBox="0 0 348 274">
  <defs>
    <clipPath id="clip-path">
      <rect id="長方形_730" data-name="長方形 730" width="348" height="274" transform="translate(-90.606 -8.303)" fill="#fff" stroke="#707070" stroke-width="1"/>
    </clipPath>
    <clipPath id="clip-path-2">
      <rect id="長方形_410" data-name="長方形 410" width="229.548" height="259.895" fill="none"/>
    </clipPath>
  </defs>
  <g id="merit_illust" transform="translate(90.606 8.303)" clip-path="url(#clip-path)">
    <g id="グループ_3172" data-name="グループ 3172" transform="translate(-100.009 10.992)">
      <path id="合体_75" data-name="合体 75" d="M43.6,112.792A57.1,57.1,0,0,1,0,57.166C0,25.594,25.4,0,56.737,0s56.738,25.594,56.738,57.166a57.106,57.106,0,0,1-43.434,55.585l-13.66,16.521Z" transform="matrix(0.643, -0.766, 0.766, 0.643, 0, 86.927)" fill="#fff5b9" stroke="#19cecd" stroke-linecap="round" stroke-linejoin="round" stroke-width="5"/>
      <g id="グループ_2877" data-name="グループ 2877" transform="translate(60.428 56.046)">
        <path id="パス_23321" data-name="パス 23321" d="M-14925.654,5237.229a2.061,2.061,0,0,1,1.356-1.7,2.661,2.661,0,0,1,2.443,0l14.045,8.495v39.943l-17.845-10.379Z" transform="translate(14927.707 -5233.183)" fill="#fff"/>
        <path id="パス_23322" data-name="パス 23322" d="M-14907.81,5237.229a2.059,2.059,0,0,0-1.353-1.7,2.668,2.668,0,0,0-2.447,0l-14.045,8.495v39.943l17.845-10.379Z" transform="translate(14945.556 -5233.183)" fill="#19cecd"/>
        <path id="合体_26" data-name="合体 26" d="M18.4,51.339a2.3,2.3,0,0,1-1.161-.309L-.606,40.531A1.71,1.71,0,0,1-1.5,39.074V2.287A3.842,3.842,0,0,1,.889-.97,5.089,5.089,0,0,1,3.148-1.5a4.706,4.706,0,0,1,2.4.627L18.4,6.991,31.256-.876a4.712,4.712,0,0,1,2.4-.624,5.086,5.086,0,0,1,2.257.529A3.844,3.844,0,0,1,38.3,2.287V39.074a1.71,1.71,0,0,1-.894,1.457l-17.846,10.5A2.3,2.3,0,0,1,18.4,51.339ZM2.609,38.144,18.4,47.435l15.791-9.291V2.371c-.02-.052-.089-.162-.322-.277a.522.522,0,0,0-.217-.063.3.3,0,0,0-.085.013L19.593,10.6a2.333,2.333,0,0,1-2.384,0L3.233,2.044a.3.3,0,0,0-.085-.013.528.528,0,0,0-.22.065c-.231.114-.3.223-.319.276Z" transform="translate(1.5 1.5)" fill="#313131"/>
      </g>
    </g>
    <g id="グループ_2619" data-name="グループ 2619" transform="translate(13.824 19.048)" clip-path="url(#clip-path-2)">
      <path id="パス_21746" data-name="パス 21746" d="M292.8,277.8a16.689,16.689,0,0,1-.035-1.731c.247-7.851-.206-15.695-.421-23.535-.185-6.764-1.194-13.444-4.2-19.673a15.416,15.416,0,0,0-5.969-6.56c-5.074-3.133-10.69-4.9-16.38-6.467-1.885-.52-3.78-.979-5.68-1.412l5.245,93.516c14.589-.115,25.527-.2,30.312-.231q-.9-6.5-1.523-13.027c-.675-6.946-.839-13.924-1.349-20.879" transform="translate(-72.225 -60.649)" fill="#fff"/>
      <path id="パス_21747" data-name="パス 21747" d="M211.36,211.383c-1.063-.168-2.126-.332-3.185-.516a1.7,1.7,0,0,0-2.14,1.219,54,54,0,0,0-2.674,7.682,51.6,51.6,0,0,1-9.775,20.085,9.53,9.53,0,0,0-1.716,3.54q-1.21,4.622-2.4,9.248h9.387Z" transform="translate(-52.608 -58.537)" fill="#fff"/>
      <path id="パス_21748" data-name="パス 21748" d="M130.024,251.988a2.846,2.846,0,0,1,.844.14q2.732-5.593,5.477-11.179c.434-.881.764-1.807,1.186-2.694.748-1.574.713-1.627-1.06-1.939a35.524,35.524,0,0,1-20.048-10.873,47.784,47.784,0,0,1-9.179-14.174c-.41-.954-.873-1.555-2.057-1.313-1.515.31-3.036.59-4.558.857l9.059,41.177Z" transform="translate(-27.941 -58.282)" fill="#fff"/>
      <path id="パス_21749" data-name="パス 21749" d="M24.437,224.931a17.983,17.983,0,0,0-9.931,11.362,64.482,64.482,0,0,0-2.659,14.07c-.373,4.791-.019,9.581-.319,14.353-.454,7.2-.168,14.414-.683,21.6-.663,9.258-1.43,18.508-2.775,27.7-.009.057-.019.113-.027.17,5.327-.188,16.851-.391,31.976-.6l2.123-94.651a86.717,86.717,0,0,0-17.7,5.99" transform="translate(-2.233 -60.792)" fill="#fff"/>
      <path id="パス_21750" data-name="パス 21750" d="M61.566,349.718l-.259.253H91.15c.1-.2.2-.4.3-.6-10.678.115-20.795.231-29.887.347" transform="translate(-17.023 -97.008)" fill="#fff"/>
      <path id="パス_21751" data-name="パス 21751" d="M168.852,348.513q-.139.535-.286,1.069H232.8l-.091-1.614c-18.22.146-40.816.334-63.856.545" transform="translate(-46.805 -96.619)" fill="#fff"/>
      <path id="パス_21752" data-name="パス 21752" d="M212.82,18.079c0-.007-.009-.011-.012-.017s-.01-.009-.017-.012Z" transform="translate(-59.085 -5.012)" fill="#060000"/>
      <path id="パス_21753" data-name="パス 21753" d="M212.333,17.608c0-.007-.009-.011-.012-.018s-.011-.009-.019-.012Z" transform="translate(-58.949 -4.881)" fill="#060000"/>
      <path id="パス_21754" data-name="パス 21754" d="M213.3,18.559c0-.007-.008-.011-.011-.017s-.011-.009-.018-.011Z" transform="translate(-59.218 -5.145)" fill="#060000"/>
      <path id="パス_21755" data-name="パス 21755" d="M211.834,17.151a.214.214,0,0,1-.007-.02c-.011,0-.016-.012-.027-.014Z" transform="translate(-58.809 -4.753)" fill="#060000"/>
      <path id="パス_21756" data-name="パス 21756" d="M211.334,16.7c0-.016-.014-.02-.019-.034a.112.112,0,0,0-.017,0Z" transform="translate(-58.67 -4.626)" fill="#060000"/>
      <path id="パス_21757" data-name="パス 21757" d="M121.8,14.257c-.006,0-.012,0-.018,0s-.009.013-.011.022Z" transform="translate(-33.811 -3.959)" fill="#060000"/>
      <path id="パス_21758" data-name="パス 21758" d="M213.78,19.038c0-.007-.008-.011-.011-.017s-.011-.009-.017-.011Z" transform="translate(-59.351 -5.278)" fill="#060000"/>
      <path id="パス_21759" data-name="パス 21759" d="M215.212,20.486c0-.008-.009-.012-.012-.02s-.012-.009-.02-.012Z" transform="translate(-59.748 -5.68)" fill="#060000"/>
      <path id="パス_21760" data-name="パス 21760" d="M214.259,19.518c0-.007-.008-.011-.011-.017s-.011-.009-.017-.011Z" transform="translate(-59.485 -5.412)" fill="#060000"/>
      <path id="パス_21761" data-name="パス 21761" d="M116.447,17.07l-.012.009h0Z" transform="translate(-32.33 -4.74)" fill="#060000"/>
      <path id="パス_21762" data-name="パス 21762" d="M218.579,24.314c0-.009-.01-.014-.014-.022l-.014-.007Z" transform="translate(-60.684 -6.743)" fill="#060000"/>
      <path id="パス_21763" data-name="パス 21763" d="M216.135,21.481c0-.008-.007-.011-.009-.019s-.016-.015-.03-.017Z" transform="translate(-60.002 -5.955)" fill="#060000"/>
      <path id="パス_21764" data-name="パス 21764" d="M214.74,20c0-.007-.008-.011-.012-.017s-.011-.009-.018-.012Z" transform="translate(-59.618 -5.545)" fill="#060000"/>
      <path id="パス_21765" data-name="パス 21765" d="M209.005,14.69,209,14.683s-.007-.007-.012-.009Z" transform="translate(-58.029 -4.074)" fill="#060000"/>
      <path id="パス_21766" data-name="パス 21766" d="M215.674,20.984c0-.009-.009-.013-.011-.021s-.014-.01-.023-.012Z" transform="translate(-59.876 -5.817)" fill="#060000"/>
      <path id="パス_21767" data-name="パス 21767" d="M202.292,9.888l0,0-.011-.008Z" transform="translate(-56.166 -2.742)" fill="#060000"/>
      <path id="パス_21768" data-name="パス 21768" d="M199.878,8.475l-.007-.007-.02-.013Z" transform="translate(-55.492 -2.348)" fill="#060000"/>
      <path id="パス_21769" data-name="パス 21769" d="M197.014,7.014h0A.086.086,0,0,1,197,7.007Z" transform="translate(-54.7 -1.946)" fill="#060000"/>
      <path id="パス_21770" data-name="パス 21770" d="M198.932,7.975l0,0-.011-.006Z" transform="translate(-55.233 -2.212)" fill="#060000"/>
      <path id="パス_21771" data-name="パス 21771" d="M130.37,7.481l-.015.011h0Z" transform="translate(-36.194 -2.077)" fill="#060000"/>
      <path id="パス_21772" data-name="パス 21772" d="M128,8.943c-.006,0-.009.007-.014.008s-.013.011-.017.02Z" transform="translate(-35.534 -2.483)" fill="#060000"/>
      <path id="パス_21773" data-name="パス 21773" d="M124.211,11.856c-.008,0-.011.007-.018.008s-.015.017-.017.03Z" transform="translate(-34.479 -3.292)" fill="#060000"/>
      <path id="パス_21774" data-name="パス 21774" d="M126.588,9.921c-.007,0-.009.007-.016.008s-.015.014-.02.027Z" transform="translate(-35.139 -2.755)" fill="#060000"/>
      <path id="パス_21775" data-name="パス 21775" d="M126.048,10.354s-.006.006-.011.008l0,0Z" transform="translate(-34.995 -2.875)" fill="#060000"/>
      <path id="パス_21776" data-name="パス 21776" d="M122.757,13.277c-.009,0-.013.009-.022.012s-.009.013-.012.022Z" transform="translate(-34.076 -3.687)" fill="#060000"/>
      <path id="パス_21777" data-name="パス 21777" d="M219.015,24.836c0-.007,0-.011,0-.017s-.02-.018-.035-.022Z" transform="translate(-60.802 -6.886)" fill="#060000"/>
      <path id="パス_21778" data-name="パス 21778" d="M122.293,13.773c-.009,0-.014.009-.023.011s-.009.014-.011.024Z" transform="translate(-33.947 -3.824)" fill="#060000"/>
      <path id="パス_21779" data-name="パス 21779" d="M208.491,14.261c0-.012-.014-.014-.019-.025s-.009-.007-.014-.008Z" transform="translate(-57.882 -3.951)" fill="#060000"/>
      <path id="パス_21780" data-name="パス 21780" d="M123.716,12.319c-.009,0-.013.009-.022.012s-.009.013-.012.022Z" transform="translate(-34.342 -3.421)" fill="#060000"/>
      <path id="パス_21781" data-name="パス 21781" d="M123.236,12.8c-.009,0-.013.009-.022.012s-.009.013-.012.022Z" transform="translate(-34.209 -3.554)" fill="#060000"/>
      <path id="パス_21782" data-name="パス 21782" d="M206.595,12.793l0-.007c-.009,0-.015-.012-.025-.016Z" transform="translate(-57.356 -3.546)" fill="#060000"/>
      <path id="パス_21783" data-name="パス 21783" d="M218.132,23.791l-.008-.01h0Z" transform="translate(-60.565 -6.603)" fill="#060000"/>
      <path id="パス_21784" data-name="パス 21784" d="M297.784,224.316l-.006-.007c-.008,0-.012-.01-.02-.014Z" transform="translate(-82.677 -62.279)" fill="#060000"/>
      <path id="パス_21785" data-name="パス 21785" d="M299.637,225.833a.216.216,0,0,0-.012-.033.221.221,0,0,0-.025-.006Z" transform="translate(-83.189 -62.695)" fill="#060000"/>
      <path id="パス_21786" data-name="パス 21786" d="M300.139,226.283c0-.007-.006-.013-.007-.02s-.016-.012-.027-.014Z" transform="translate(-83.328 -62.821)" fill="#060000"/>
      <path id="パス_21787" data-name="パス 21787" d="M290.6,219.984h0a.051.051,0,0,0-.011-.006Z" transform="translate(-80.685 -61.08)" fill="#060000"/>
      <path id="パス_21788" data-name="パス 21788" d="M292.5,220.961l-.006-.005-.019-.013Z" transform="translate(-81.211 -61.348)" fill="#060000"/>
      <path id="パス_21789" data-name="パス 21789" d="M300.618,226.761c0-.009-.009-.013-.012-.022s-.013-.01-.022-.012Z" transform="translate(-83.462 -62.954)" fill="#060000"/>
      <path id="パス_21790" data-name="パス 21790" d="M291.556,220.464l0,0a.051.051,0,0,1-.011-.006Z" transform="translate(-80.951 -61.213)" fill="#060000"/>
      <path id="パス_21791" data-name="パス 21791" d="M194.178,155.726c-1.115-.225-1.113-.235-.7-1.342a47.9,47.9,0,0,0,2.231-6.9,11.761,11.761,0,0,0,.329-4.941c-.7-3.347-3.522-5.373-7.5-4.281a8.132,8.132,0,0,0-3.252,1.913c-.514.459-1,.948-1.482,1.4-.46-.111-.354-.444-.354-.7a81.342,81.342,0,0,0-.638-10.338,2.873,2.873,0,0,1,.677-2.073,56.764,56.764,0,0,0,4.323-7.082,41.478,41.478,0,0,0,3.648-12.722c1.492-10.313,1.384-20.687,1.415-31.06a10.315,10.315,0,0,0-.923-4.507c-1.57-3.4-3.058-6.841-4.6-10.256a4.411,4.411,0,0,0-4-2.723,61.7,61.7,0,0,1-31.084-12.4,52.128,52.128,0,0,1-12.9-13.854c-.912-1.461-2.008-1.854-3.338-1.336-1.388.541-1.906,1.7-1.508,3.365h0a26.993,26.993,0,0,0,3.778,5.573,66.359,66.359,0,0,0,37.825,22.777c1.8.394,3.624.717,5.451.966a1.694,1.694,0,0,1,1.551,1.081c1.372,3.113,2.785,6.208,4.215,9.3a4.314,4.314,0,0,1,.345,1.846c.066,8.316-.055,16.627-.812,24.913a75.538,75.538,0,0,1-1.654,11.289,28.581,28.581,0,0,1-3.3,7.645c-.331-1.8-.573-3.225-.856-4.637-.329-1.639-.667-3.277-1.057-4.9a11.164,11.164,0,0,0-.744-2.116,4.242,4.242,0,0,0-6.023-2.271c-.872.407-1.315.31-1.859-.375a5.55,5.55,0,0,0-1.169-1.022c-2.306-1.628-4.61-1.089-5.887,1.447-.341.676-.668.965-1.43.855a3.43,3.43,0,0,0-1.879.166,1.888,1.888,0,0,1-1.323-.028,50.42,50.42,0,0,0-18.05-1.011,29.26,29.26,0,0,0-4.768.844c-1.987.576-2.7,1.914-1.955,3.825a26.374,26.374,0,0,0,6.474,10.12,9.448,9.448,0,0,0,8.388,2.748,9.829,9.829,0,0,0,3.917-1.742c.412-.286.81-.591,1.219-.89.108.191.207.284.2.373-.2,6.992.415,13.96.658,20.938a87.267,87.267,0,0,1-.3,10.6l5.273.716c.011-.112.025-.224.036-.336a72.934,72.934,0,0,0,.22-9.343c-.2-6.577-.443-13.152-.649-19.729a4.238,4.238,0,0,1,.09-1.687c.521-.131.509.365.71.583a2.806,2.806,0,0,0,3.3.672,2.56,2.56,0,0,0,1.291-3.086c-.466-1.723-1.011-3.426-1.518-5.139a2.384,2.384,0,0,1-.125-1.462c2.835,1.4,4.211.635,4.859-2.592,2.446,2.635,3.362,2.691,5.68.344.462.179.427.623.519.992a98.363,98.363,0,0,1,2.331,14.857,123.7,123.7,0,0,1,.648,15.732c-.085,2.421-.139,4.845-.462,7.254a2.636,2.636,0,0,0,5.044,1.488,48.992,48.992,0,0,1,3.572-6.521,14.4,14.4,0,0,1,2.483-2.877,4.7,4.7,0,0,1,1.156-.743c.519-.23.92-.072.936.57a9.532,9.532,0,0,1-.32,2.566,79.931,79.931,0,0,1-3.784,10.576c-.181.446-.351.894-.529,1.34l10.45,1.419,1.042-3.435c-1.184-.189-2.365-.4-3.541-.632m-43.482-36.9a3.82,3.82,0,0,1-5.09.021,16.948,16.948,0,0,1-4.627-6.107,50.682,50.682,0,0,1,14.093.049,16.408,16.408,0,0,1-4.377,6.037" transform="translate(-37.312 -8.969)" fill="#060000"/>
      <path id="パス_21792" data-name="パス 21792" d="M301.572,227.723c0-.014-.014-.021-.017-.035s-.012-.007-.018-.008Z" transform="translate(-83.726 -63.219)" fill="#060000"/>
      <path id="パス_21793" data-name="パス 21793" d="M307.373,237.256c-.005-.007-.007-.015-.011-.022l0,0Z" transform="translate(-85.343 -65.87)" fill="#060000"/>
      <path id="パス_21794" data-name="パス 21794" d="M161.063,358.543Z" transform="translate(-44.721 -99.555)" fill="#060000"/>
      <path id="パス_21795" data-name="パス 21795" d="M103.011,359.483s-.008,0-.011-.006H103Z" transform="translate(-28.598 -99.814)" fill="#060000"/>
      <path id="パス_21796" data-name="パス 21796" d="M303.5,230.113c0-.007-.007-.011-.009-.018s-.016-.016-.029-.021Z" transform="translate(-84.26 -63.884)" fill="#060000"/>
      <path id="パス_21797" data-name="パス 21797" d="M304.459,231.547c0-.007-.008-.012-.009-.019s-.014-.016-.027-.021Z" transform="translate(-84.528 -64.281)" fill="#060000"/>
      <path id="パス_21798" data-name="パス 21798" d="M304.991,232.444s0-.009-.007-.012l0,0Z" transform="translate(-84.683 -64.538)" fill="#060000"/>
      <path id="パス_21799" data-name="パス 21799" d="M231.557,45.383c0-.006-.006-.012-.009-.018l0,0Z" transform="translate(-64.292 -12.596)" fill="#060000"/>
      <path id="パス_21800" data-name="パス 21800" d="M225.746,34.41c0-.006,0-.011-.005-.017s-.017-.018-.032-.024Z" transform="translate(-62.672 -9.543)" fill="#060000"/>
      <path id="パス_21801" data-name="パス 21801" d="M224.824,32.935c0-.007-.008-.01-.011-.017s-.008-.011-.014-.014Z" transform="translate(-62.419 -9.136)" fill="#060000"/>
      <path id="パス_21802" data-name="パス 21802" d="M226.278,35.31s0-.009-.007-.013l0-.006Z" transform="translate(-62.826 -9.799)" fill="#060000"/>
      <path id="パス_21803" data-name="パス 21803" d="M223.876,31.484c0-.006-.008-.009-.011-.015s-.005-.007-.009-.009Z" transform="translate(-62.157 -8.735)" fill="#060000"/>
      <path id="パス_21804" data-name="パス 21804" d="M227.687,37.747c0-.007-.005-.011-.006-.017s-.012-.015-.022-.021Z" transform="translate(-63.213 -10.47)" fill="#060000"/>
      <path id="パス_21805" data-name="パス 21805" d="M221.922,28.644c0-.007-.007-.01-.009-.017s-.013-.015-.025-.02Z" transform="translate(-61.611 -7.943)" fill="#060000"/>
      <path id="パス_21806" data-name="パス 21806" d="M222.91,30.052c0-.005-.007-.008-.009-.013s-.008-.011-.015-.014Z" transform="translate(-61.888 -8.337)" fill="#060000"/>
      <path id="パス_21807" data-name="パス 21807" d="M119,171.766c1.045-.347,2.091-.692,3.132-1.052,2.493-.864,2.879-1.462,2.813-4.056-.059-2.307-.168-4.614-.232-6.921a2.16,2.16,0,0,1,.178-1.4c1.419.641,2.809,1.312,4.234,1.9a13.24,13.24,0,0,0,4.135,1.208,2.518,2.518,0,0,0,2.853-3,2.437,2.437,0,0,0-2.011-2.122,32.648,32.648,0,0,1-9.413-4.264,7.152,7.152,0,0,1-1.515-1.138,77.469,77.469,0,0,1-11.567-15.29,32.322,32.322,0,0,1-3.6-12.372,247.9,247.9,0,0,1-1.358-30.6c.014-1.671-.165-3.141-2.08-3.682-2.3.056-3.151.868-3.149,3.11,0,4.907-.157,9.824.1,14.718.294,5.511.438,11.039,1.222,16.523a52.227,52.227,0,0,0,1.958,9.619,46.664,46.664,0,0,0,7.192,12.755,75.3,75.3,0,0,0,6.854,8.235,2.422,2.422,0,0,1,.689,1.87c0,3-.006,6.005.094,9.005.036,1.094-.436,1.5-1.38,1.822-4.314,1.467-8.693,2.7-13.119,3.77-2.106.509-4.229.93-6.359,1.305a2.909,2.909,0,0,1,.4.935l.328,1.494c3.225-.563,5.177-.873,5.177-.873Z" transform="translate(-27.4 -24.703)" fill="#060000"/>
      <path id="パス_21808" data-name="パス 21808" d="M233.459,49.715c0-.007-.006-.014-.01-.022l-.007-.008Z" transform="translate(-64.819 -13.796)" fill="#060000"/>
      <path id="パス_21809" data-name="パス 21809" d="M234.427,52.106c-.006-.007-.007-.017-.012-.024l0,0Z" transform="translate(-65.088 -14.461)" fill="#060000"/>
      <path id="パス_21810" data-name="パス 21810" d="M235.87,55.94a.266.266,0,0,1-.012-.025h0Z" transform="translate(-65.489 -15.526)" fill="#060000"/>
      <path id="パス_21811" data-name="パス 21811" d="M232.01,46.364c0-.007-.005-.014-.009-.021s-.006-.007-.01-.011Z" transform="translate(-64.416 -12.865)" fill="#060000"/>
      <path id="パス_21812" data-name="パス 21812" d="M220.493,26.715c0-.006-.006-.009-.009-.014s-.012-.014-.023-.019Z" transform="translate(-61.214 -7.409)" fill="#060000"/>
      <path id="パス_21813" data-name="パス 21813" d="M228.193,38.672s0-.011-.008-.015l-.005-.006Z" transform="translate(-63.358 -10.732)" fill="#060000"/>
      <path id="パス_21814" data-name="パス 21814" d="M301.1,227.241c0-.009-.009-.013-.012-.022s-.013-.01-.022-.012Z" transform="translate(-83.595 -63.087)" fill="#060000"/>
      <path id="パス_21815" data-name="パス 21815" d="M11.393,235.322c-.006,0-.007.009-.012.013s0,.014-.009.02Z" transform="translate(-3.158 -65.341)" fill="#060000"/>
      <path id="パス_21816" data-name="パス 21816" d="M19.534,224.78c-.009,0-.013.01-.022.014s-.006.007-.008.011Z" transform="translate(-5.416 -62.414)" fill="#060000"/>
      <path id="パス_21817" data-name="パス 21817" d="M13.78,231.006c-.007,0-.009.012-.017.016s-.008.009-.01.016Z" transform="translate(-3.819 -64.142)" fill="#060000"/>
      <path id="パス_21818" data-name="パス 21818" d="M15.184,229.075l0,0a.13.13,0,0,1-.009.012Z" transform="translate(-4.213 -63.606)" fill="#060000"/>
      <path id="パス_21819" data-name="パス 21819" d="M12.355,233.409c-.006,0-.006.007-.011.01s-.013.017-.018.027Z" transform="translate(-3.423 -64.81)" fill="#060000"/>
      <path id="パス_21820" data-name="パス 21820" d="M11.872,234.365c-.006,0-.007.009-.013.012a.19.19,0,0,1-.007.018Z" transform="translate(-3.291 -65.075)" fill="#060000"/>
      <path id="パス_21821" data-name="パス 21821" d="M14.772,229.59c-.012,0-.016.015-.027.02s-.008.01-.009.017Z" transform="translate(-4.092 -63.749)" fill="#060000"/>
      <path id="パス_21822" data-name="パス 21822" d="M21.468,223.355c-.006,0-.008.006-.014.008s-.014.012-.018.022Z" transform="translate(-5.952 -62.018)" fill="#060000"/>
      <path id="パス_21823" data-name="パス 21823" d="M301.447,309.705a.547.547,0,0,1-.052-.534c-.294-.6.034-1.293-.283-1.89q-.029-.3-.057-.593c-.353-.692.067-1.488-.292-2.179l-.054-.594c-.378-.809.093-1.719-.3-2.526l-.048-.58c-.361-.816.074-1.72-.284-2.535a1.284,1.284,0,0,1-.066-.9c-.368-.943.094-1.969-.29-2.91a1.3,1.3,0,0,1-.056-.907c-.377-1.059.092-2.191-.282-3.25a2.21,2.21,0,0,1-.064-1.249c-.383-1.3.092-2.652-.283-3.948a3.506,3.506,0,0,1-.063-1.591c-.407-1.762.113-3.574-.282-5.338a7.2,7.2,0,0,1-.062-2.324,6.142,6.142,0,0,1-.142-2.223c-.1-3.45.173-6.9-.147-10.352q-.189-4.467-.052-8.936c-.435-2.087.119-4.221-.3-6.31a1.472,1.472,0,0,1-.051-.958c-.4-.92.094-1.933-.3-2.854l-.052-.606c-.373-.684.087-1.488-.311-2.168a.178.178,0,0,1-.035-.261c-.3-.449,0-1.011-.278-1.465l-.08-.571c-.2-.362-.051-.8-.266-1.161l-.085-.532c-.189-.381-.025-.849-.3-1.207a.128.128,0,0,1-.045-.21c-.209-.363-.012-.836-.319-1.172l0,.012c-.3-.293-.042-.751-.316-1.052a.165.165,0,0,1-.06-.24,5.464,5.464,0,0,0-.273-.8.192.192,0,0,1-.068-.26c-.136-.244-.115-.545-.278-.779a.191.191,0,0,1-.071-.255c-.137-.249-.1-.563-.3-.788l-.084-.076.025-.111c-.1-.286-.083-.616-.339-.837.005.007.006.016.012.023l-.014-.027,0,0c-.141-.219-.113-.514-.313-.706v0c-.2-.191-.146-.5-.328-.7l-.006-.015c-.227-.17-.159-.485-.337-.679l-.007-.019c-.233-.163-.157-.488-.353-.67l0-.007c-.215-.173-.144-.506-.373-.673l.006.012-.009-.014,0,0c-.167-.192-.118-.514-.38-.649,0,.007.009.012.01.019l-.036-.04c.012.005.015.015.026.021a.905.905,0,0,0-.29-.4v0c-.2-.165-.139-.506-.4-.631,0,.007.007.011.009.018l-.038-.039c.013.005.017.016.029.021a.719.719,0,0,0-.311-.4l.01.013c-.089-.137-.219-.24-.307-.377l-.019-.025a.664.664,0,0,1-.263-.3.149.149,0,0,1-.138-.187.5.5,0,0,0-.371-.468c0,.014.015.02.018.035l-.036-.043c.007,0,.012.006.018.008a.451.451,0,0,0-.337-.337c0,.009.009.013.012.022l-.034-.033c.009,0,.014.009.022.012a.464.464,0,0,0-.347-.346c0,.009.009.012.012.022l-.034-.034c.009,0,.014.009.022.012a.462.462,0,0,0-.342-.344.171.171,0,0,1,.007.02l-.034-.035c.011,0,.016.011.027.014a.416.416,0,0,0-.365-.337.255.255,0,0,1,.012.033l-.037-.038c.009,0,.017.005.025.006-.078-.283-.458-.194-.569-.438l-.04-.029a1.755,1.755,0,0,1-.353-.3l-.007-.005a1.548,1.548,0,0,0-.368-.306l.006.007-.026-.021c.007,0,.012.01.02.014a.614.614,0,0,0-.474-.339.154.154,0,0,1-.2-.117,1.791,1.791,0,0,1-.345-.267h0a.784.784,0,0,0-.466-.313.182.182,0,0,1-.23-.118,2.233,2.233,0,0,1-.356-.257l.009.006c-.156-.225-.5-.137-.644-.378l-.035-.017a1.281,1.281,0,0,0-.457-.28.2.2,0,0,1-.248-.108c-.121-.079-.243-.157-.363-.236l.006.006-.025-.018.02.012c-.16-.248-.479-.2-.684-.358l0,0-.013-.008s.007,0,.011.006c-.172-.234-.485-.185-.693-.347v0l-.012-.008a.051.051,0,0,0,.011.006c-.181-.243-.511-.181-.727-.354a.3.3,0,0,1-.308-.1q-.2-.124-.416-.236a.236.236,0,0,1-.275-.092,1.186,1.186,0,0,0-.468-.243.155.155,0,0,1-.221-.077c-.2-.173-.5-.1-.682-.311l-.012,0c-.207-.2-.521-.159-.748-.319a.265.265,0,0,1-.3-.086,1.055,1.055,0,0,0-.49-.24.125.125,0,0,1-.2-.064c-.213-.192-.525-.139-.748-.3a.266.266,0,0,1-.3-.08c-.2-.144-.5-.081-.675-.288l-.015-.005a2.66,2.66,0,0,0-.811-.3.155.155,0,0,1-.226-.067c-.226-.182-.532-.149-.775-.289a.21.21,0,0,1-.267-.069c-.229-.165-.529-.137-.766-.279a.218.218,0,0,1-.274-.069c-.229-.165-.529-.135-.766-.278a.218.218,0,0,1-.274-.064,4.224,4.224,0,0,0-.806-.273.157.157,0,0,1-.232-.059c-.293-.285-.76-.011-1.045-.321l-.347-.063c-.235-.138-.524-.119-.759-.261a.213.213,0,0,1-.276-.057c-.306-.266-.763-.015-1.062-.306l-.327-.058a4.761,4.761,0,0,0-.834-.257l-.554-.1a5.572,5.572,0,0,0-.832-.25l-.555-.1c-.317-.226-.756,0-1.058-.283a.291.291,0,0,1-.326-.051c-.337-.234-.78-.045-1.117-.277l-.62-.09c-.262-.17-.593-.067-.873-.165l.175,3.113c7.86,1.7,30.929,7.85,33.58,21.9,3.2,16.975,4.8,74.3,4.8,74.3l-2.662.019c.121.87.239,1.739.368,2.608.173,1.159.522,2.28,1.832,2.709.875-.069,1.786.268,2.624-.23l-.047.03a.753.753,0,0,0,.412-.3h0a3.35,3.35,0,0,0,.348-.345h0a.869.869,0,0,0,.313-.41l-.034.051a7.618,7.618,0,0,0,.089-3.787" transform="translate(-72.094 -58.321)" fill="#060000"/>
      <path id="パス_21824" data-name="パス 21824" d="M159.517,351.99a4.929,4.929,0,0,0-.034,3.21H159.3a2.7,2.7,0,0,0,.628.614c0-.011-.012-.014-.015-.025l.046.046c-.012-.006-.02-.014-.031-.021.1.3.456.223.628.414a3.483,3.483,0,0,0,2.4,0h0c.176-.189.509-.128.643-.386-.006,0-.009.007-.015.009l.036-.035c-.005.012-.015.016-.021.027a.507.507,0,0,0,.351-.354c-.011.006-.014.017-.027.022l.038-.04c0,.007-.008.01-.01.017.264-.14.208-.47.38-.664l-.011.021c.347-.289.1-.763.334-1.085l-.021.015a2.03,2.03,0,0,0,.4-.424c.349-1.04.651-2.093.939-3.15h-6q-.23.894-.459,1.788" transform="translate(-44.211 -97.239)" fill="#060000"/>
      <path id="パス_21825" data-name="パス 21825" d="M22.91,222.4l-.012,0c-.006.01-.016.014-.021.025Z" transform="translate(-6.352 -61.752)" fill="#060000"/>
      <path id="パス_21826" data-name="パス 21826" d="M27.195,219.977l-.019.012,0,0Z" transform="translate(-7.545 -61.08)" fill="#060000"/>
      <path id="パス_21827" data-name="パス 21827" d="M101.1,357.545c.006.007.007.017.012.024l0,.007Z" transform="translate(-28.072 -99.278)" fill="#060000"/>
      <path id="パス_21828" data-name="パス 21828" d="M107.441,352.367l1.052-2.165h-6.4c-.191.374-.376.751-.568,1.124a6.211,6.211,0,0,0-.811,2.267c.23.626-.155,1.344.293,1.937a.263.263,0,0,0-.012-.025l.017.031,0-.007c.138.206.1.511.36.648,0-.007-.008-.01-.009-.017l.039.04c-.014-.005-.018-.017-.03-.023a.486.486,0,0,0,.352.353c-.006-.011-.016-.014-.021-.027l.038.036c-.007,0-.01-.007-.017-.009.134.261.454.212.649.371a3.048,3.048,0,0,0,2.389-.024l-.028.014a2.212,2.212,0,0,0,1.084-1h0a3.855,3.855,0,0,1,.576-.7h-.222a14.252,14.252,0,0,1,1.275-2.827" transform="translate(-27.964 -97.239)" fill="#060000"/>
      <path id="パス_21829" data-name="パス 21829" d="M102.073,358.928c.005.012.015.016.021.027s.01.008.017.009Z" transform="translate(-28.342 -99.662)" fill="#060000"/>
      <path id="パス_21830" data-name="パス 21830" d="M101.6,358.452c0,.007.007.01.009.017s.016.017.03.023Z" transform="translate(-28.211 -99.53)" fill="#060000"/>
      <path id="パス_21831" data-name="パス 21831" d="M160.172,357.935c0,.012.012.014.015.025s.02.015.031.021Z" transform="translate(-44.474 -99.386)" fill="#060000"/>
      <path id="パス_21832" data-name="パス 21832" d="M79.774,135.611c.359-3.8.148-7.611.357-11.406.47-8.534.072-17.077.314-25.61.165-5.817.317-11.64.73-17.442a153.846,153.846,0,0,1,5.147-31.8c2.506-8.7,5.905-16.994,11.452-24.26,2.79-3.654,5.982-6.93,10.161-8.963a20.418,20.418,0,0,0,5.024-3.539,25.519,25.519,0,0,1,10.324-5.438,44.972,44.972,0,0,1,15.737-1.7A61.32,61.32,0,0,1,156.3,8.55a36.643,36.643,0,0,1,12.2,7.408c6.466,5.856,10.827,13.12,14.269,21.026a120.359,120.359,0,0,1,7.438,24.954,149.967,149.967,0,0,1,2.246,15.184c.435,4.7.808,9.4,1.039,14.118.352,7.141.5,14.286.736,21.428.1,3.109.124,6.224.286,9.33.3,5.639.421,11.287.759,16.92.143,2.385.048,4.793.375,7.174l5.475.828c-.014-.056-.022-.113-.039-.169a2.555,2.555,0,0,1-.056-1.323c-.431-1.618.111-3.3-.3-4.915a3.711,3.711,0,0,1-.056-1.619c-.42-1.869.128-3.788-.29-5.657a5.058,5.058,0,0,1-.057-1.938c-.417-2.111.124-4.265-.286-6.377a7.283,7.283,0,0,1-.059-2.312c-.419-2.45.116-4.936-.28-7.388a9.646,9.646,0,0,1-.056-2.709,4.982,4.982,0,0,1-.151-2.036c-.1-2.344.166-4.7-.148-7.036a10.089,10.089,0,0,1-.048-2.708,4.336,4.336,0,0,1-.152-1.86A48.664,48.664,0,0,0,199,93.394a5.45,5.45,0,0,1-.064-1.968c-.407-1.519.108-3.094-.281-4.614a2.534,2.534,0,0,1-.06-1.307c-.413-1.155.1-2.387-.293-3.545a1.422,1.422,0,0,1-.057-.948c-.393-.924.1-1.939-.3-2.864l-.046-.618c-.393-.8.085-1.7-.3-2.5q-.027-.3-.053-.592c-.352-.693.066-1.488-.292-2.18-.02-.194-.038-.387-.058-.581-.313-.581.032-1.26-.278-1.841-.021-.2-.043-.4-.064-.605-.335-.569.046-1.253-.293-1.822-.021-.186-.043-.372-.064-.558-.256-.477,0-1.045-.272-1.519l-.072-.576c-.274-.467.012-1.041-.285-1.5a.246.246,0,0,1-.04-.306c-.389-.541.071-1.241-.333-1.779a.135.135,0,0,1-.036-.222c-.28-.467.031-1.053-.3-1.509a.147.147,0,0,1-.04-.233c-.292-.462.042-1.055-.319-1.5l-.077-.09.041-.111c-.194-.369-.036-.822-.28-1.18a.214.214,0,0,1-.047-.282c-.252-.326-.053-.767-.28-1.1a.279.279,0,0,1-.053-.323c-.366-.412.036-1.009-.341-1.419l-.079-.082.04-.106c-.2-.375-.015-.847-.308-1.2l-.078-.08.039-.105c-.2-.373-.008-.85-.322-1.192l.006.017c-.287-.3-.042-.752-.306-1.058a.191.191,0,0,1-.057-.261c-.244-.336-.019-.807-.324-1.125l0,.007c-.306-.287-.045-.747-.316-1.046a.181.181,0,0,1-.058-.253c-.129-.247-.119-.542-.266-.783a.25.25,0,0,1-.067-.3c-.277-.312-.015-.8-.346-1.09l.006.015c-.294-.295-.027-.769-.34-1.058l0,.006c-.313-.283-.032-.763-.348-1.045v.005c-.316-.278-.023-.769-.361-1.04l.006.014c-.3-.287-.006-.784-.371-1.049.006.008.007.017.013.025l-.013-.025c-.142-.213-.113-.494-.274-.7a.176.176,0,0,1-.072-.245c-.126-.257-.108-.57-.308-.8h0c-.332-.264-.015-.774-.386-1.024.005.007.007.017.012.024l-.014-.026,0,0c-.142-.217-.107-.508-.293-.706l-.086-.076.025-.112c-.1-.283-.08-.615-.342-.829,0,.007.005.014.009.021l-.017-.03s0,.006.007.009c-.135-.225-.108-.519-.311-.714l0,.006c-.2-.19-.136-.5-.311-.7a.136.136,0,0,1-.077-.207c-.108-.273-.079-.606-.349-.808,0,.007.005.014.009.021l-.02-.032s.006.008.01.011c-.129-.228-.1-.53-.33-.709,0,.006.006.013.01.018l-.012-.02v0c-.155-.212-.116-.516-.332-.7l.006.012c-.188-.2-.134-.516-.339-.709v0c-.2-.189-.144-.506-.342-.7v0c-.211-.182-.147-.5-.345-.69v0c-.212-.181-.144-.506-.356-.686l0,0c-.2-.191-.135-.516-.358-.694l.006.011c-.188-.2-.128-.524-.367-.692,0,0,0,.011.009.015l-.014-.021.005.006c-.152-.2-.113-.514-.359-.665,0,.007.005.011.007.017l-.03-.038c.011.005.014.014.023.02-.04-.158-.175-.255-.254-.388a.14.14,0,0,1-.092-.2.849.849,0,0,0-.3-.5l0-.008c-.217-.17-.144-.506-.379-.667a.127.127,0,0,1,.007.014l-.012-.019,0,.005c-.158-.2-.113-.514-.375-.646,0,.006,0,.01.006.017l-.037-.04c.014.006.019.017.031.024a.908.908,0,0,0-.282-.411l0-.008c-.215-.165-.147-.5-.388-.649,0,.006.009.01.011.017l-.025-.031c.007,0,.008.01.014.014a3.372,3.372,0,0,0-.277-.39l-.016-.03c-.242-.14-.16-.484-.394-.629,0,.005.008.009.011.014l-.02-.025s.005.007.009.01c-.073-.142-.2-.241-.277-.383l-.02-.035c-.246-.13-.166-.474-.4-.613,0,.005.007.008.009.013l-.024-.027c.007,0,.009.011.015.014a2.756,2.756,0,0,0-.291-.386l-.012-.02c-.228-.142-.156-.488-.408-.613,0,.007.007.01.009.017l-.035-.036c.012,0,.015.014.025.02a.866.866,0,0,0-.308-.394l.005.006a2.4,2.4,0,0,1-.29-.372l-.027-.043c-.251-.116-.172-.465-.412-.588,0,.005.006.008.009.014l-.032-.033c.011,0,.014.014.023.02a.944.944,0,0,0-.318-.388l.006.007a4.4,4.4,0,0,1-.3-.371l-.02-.03c-.235-.121-.163-.479-.426-.577,0,.006,0,.01,0,.017l-.04-.038c.017,0,.022.017.036.022a.5.5,0,0,0-.328-.386c0,.009.011.014.014.022l-.028-.03.014.007a.906.906,0,0,0-.322-.37l.009.01-.011-.012,0,0c-.09-.133-.212-.238-.315-.361l-.009-.011a1.525,1.525,0,0,1-.3-.345l-.032-.04a.6.6,0,0,1-.284-.312l-.049-.059c-.257-.088-.177-.46-.441-.542,0,.007.007.011.009.019l-.039-.037c.014,0,.018.014.03.018a.437.437,0,0,0-.337-.363c0,.009.009.013.011.021l-.034-.033c.009,0,.014.01.023.012a.517.517,0,0,0-.335-.359c0,.008.009.012.012.02l-.031-.031c.008,0,.012.009.02.012a.6.6,0,0,0-.342-.351c0,.007.009.011.012.017l-.029-.029c.007,0,.011.009.017.012a.63.63,0,0,0-.346-.346c0,.007.008.01.011.017l-.029-.028c.007,0,.011.009.018.012a.633.633,0,0,0-.347-.347c0,.007.008.01.011.017l-.029-.029c.007,0,.011.009.018.012a.637.637,0,0,0-.347-.347c0,.007.008.011.011.017l-.029-.028c.007,0,.011.008.018.011a.634.634,0,0,0-.347-.346c0,.007.009.01.011.017l-.028-.029c.007,0,.01.009.017.012a.6.6,0,0,0-.351-.342c0,.007.009.011.011.018l-.03-.03c.008,0,.012.009.02.012a.514.514,0,0,0-.356-.331c0,.007.006.013.007.02l-.034-.033c.011,0,.016.01.027.013a.422.422,0,0,0-.371-.34c0,.014.016.018.019.033l-.035-.038.017,0c-.08-.266-.451-.188-.543-.44l-.055-.045a.715.715,0,0,1-.321-.287l-.033-.026a2.557,2.557,0,0,1-.353-.308l-.005,0a1.877,1.877,0,0,0-.365-.32l.006.007-.017-.016s.007.007.012.009a.7.7,0,0,0-.381-.323c0,.01.014.013.018.025l-.033-.033c.006,0,.009.007.014.008-.111-.246-.467-.165-.571-.419l-.054-.035a1.378,1.378,0,0,1-.353-.286l-.008-.006a1.388,1.388,0,0,0-.369-.3l0,.007-.03-.023c.009,0,.016.012.025.017a.59.59,0,0,0-.494-.345.13.13,0,0,1-.183-.108,2.809,2.809,0,0,1-.353-.273l.006,0a.764.764,0,0,0-.459-.32.2.2,0,0,1-.236-.128,1.253,1.253,0,0,1-.339-.254l0,0a.787.787,0,0,0-.475-.307.17.17,0,0,1-.221-.111,4.246,4.246,0,0,1-.355-.255l0,0-.014-.012.011.008c-.155-.23-.493-.149-.648-.38L165,6.75a1.035,1.035,0,0,0-.469-.284.183.183,0,0,1-.234-.1c-.121-.083-.243-.163-.366-.241l.007.007-.026-.02.019.013c-.158-.249-.477-.2-.683-.36l0,0-.012-.008s.007,0,.01.006c-.169-.238-.5-.175-.693-.36l.005,0c-.179-.222-.488-.175-.7-.337h0l-.012-.007a.052.052,0,0,0,.011.006c-.188-.244-.516-.189-.745-.347a.256.256,0,0,1-.289-.094c-.151-.082-.273-.217-.456-.239a.172.172,0,0,1-.234-.079c-.2-.167-.5-.1-.686-.3l-.009,0c-.22-.209-.534-.183-.787-.311a.19.19,0,0,1-.251-.073c-.217-.17-.52-.121-.737-.29a.272.272,0,0,1-.306-.074c-.22-.147-.514-.1-.723-.277a.291.291,0,0,1-.316-.066c-.236-.147-.529-.131-.771-.265a.2.2,0,0,1-.266-.059c-.308-.267-.764-.021-1.068-.306a.286.286,0,0,1-.32-.054c-.323-.241-.767-.022-1.083-.287l-.654-.089c-.265-.112-.553-.146-.825-.235l-.557-.08c-.433-.3-1,.04-1.423-.292l-.66-.07c-.442-.267-1,.045-1.427-.274l-1-.088c-.464-.222-1.009.03-1.465-.247a3.073,3.073,0,0,1-1.307-.088c-.808-.311-1.692.1-2.494-.263L137.254.124a4.379,4.379,0,0,0-2.056,0l-3.689.1c-.592.285-1.261,0-1.859.247a2.939,2.939,0,0,1-1.27.1c-.363.189-.789.07-1.155.238l-.941.107c-.353.208-.792.048-1.143.264l-.571.087c-.266.1-.554.121-.813.241l-.591.1c-.257.112-.548.116-.8.254l-.338.062c-.291.306-.763.03-1.055.328a.118.118,0,0,1-.194.055,2.6,2.6,0,0,0-.846.292.116.116,0,0,1-.192.055,1.136,1.136,0,0,0-.492.228l-.334.084c-.2.192-.5.128-.71.3a.182.182,0,0,1-.243.077c-.173.027-.293.16-.444.23l-.321.094c-.209.181-.527.124-.725.329l-.01,0c-.183.205-.494.144-.688.328l-.023.009c-.167.225-.484.152-.67.338l-.022.009c-.165.224-.492.147-.666.356l0,0c-.184.2-.516.131-.68.369a.114.114,0,0,0,.015-.011l-.017.013,0,0c-.114.087-.231.17-.353.246a.191.191,0,0,1-.24.111.977.977,0,0,0-.462.3l-.016.009c-.158.215-.5.145-.633.392.006,0,.009-.007.014-.008l-.03.027c0-.009.012-.011.017-.02a1.331,1.331,0,0,0-.393.288l-.017.01c-.148.218-.5.147-.613.409.006,0,.009-.007.016-.008l-.035.035c0-.012.014-.016.019-.027a.671.671,0,0,0-.391.313l.01-.009-.014.012,0,0c-.137.085-.24.209-.366.3l-.019.014a1.025,1.025,0,0,1-.339.29l-.051.038c-.1.25-.469.17-.553.438.007,0,.01-.007.018-.008l-.036.038c0-.014.014-.018.018-.03a.43.43,0,0,0-.362.337c.008,0,.012-.009.021-.012l-.033.034c0-.009.009-.014.012-.022a.464.464,0,0,0-.347.347c.008,0,.012-.009.021-.012l-.033.033c0-.009.009-.013.012-.022a.462.462,0,0,0-.347.346c.009,0,.013-.009.022-.012l-.034.034c0-.009.009-.014.012-.022a.434.434,0,0,0-.337.357c.009,0,.014-.009.023-.011l-.034.035c0-.01.009-.014.011-.024a.422.422,0,0,0-.353.342c.007,0,.011,0,.018,0l-.029.025c0-.009.009-.013.011-.022-.177.005-.272.155-.407.235a.2.2,0,0,1-.248.082,1.556,1.556,0,0,0-.441.243.25.25,0,0,1-.282.094q-.207.118-.41.243a.249.249,0,0,1-.283.1q-.209.118-.411.25a.2.2,0,0,1-.249.107,1.281,1.281,0,0,0-.457.28l-.035.016c-.145.241-.489.152-.641.384l.012-.009-.013.01h0a4.047,4.047,0,0,1-.352.256.154.154,0,0,1-.207.111.677.677,0,0,0-.483.324l.012-.009q-.184.152-.379.287l-.044.026c-.119.246-.469.166-.59.41.005,0,.008-.006.013-.007l-.031.03c0-.01.014-.013.018-.022a.929.929,0,0,0-.389.312l0,0a3.206,3.206,0,0,1-.366.3l-.036.025c-.12.239-.478.162-.581.423.007,0,.009-.007.016-.008l-.035.037c0-.014.014-.017.02-.029a.546.546,0,0,0-.379.324c.006,0,.01-.008.016-.011l-.026.025c0-.006.007-.009.01-.014a1.019,1.019,0,0,0-.371.325l.007-.006-.008.007h0c-.13.095-.237.215-.358.319l-.012.009a2.047,2.047,0,0,1-.342.314l-.029.025a.887.887,0,0,1-.323.3l-.049.041a.554.554,0,0,1-.3.287l-.051.05a11.853,11.853,0,0,0-1.682,1.712l-.03.033a1.123,1.123,0,0,1-.307.329l-.019.022a4.224,4.224,0,0,1-.318.354l0,0a2.09,2.09,0,0,0-.326.36l.007,0-.014.015s.006-.007.008-.011a.852.852,0,0,0-.325.369c.007,0,.01-.008.017-.011l-.028.03c0-.007.009-.012.012-.019a.508.508,0,0,0-.324.376c.012,0,.016-.015.03-.019l-.038.038c0-.007.007-.011.009-.019-.267.1-.189.46-.432.574l-.026.037a2.141,2.141,0,0,1-.3.363,1.246,1.246,0,0,0-.31.371c.005,0,.007-.007.012-.009l-.026.032c0-.009.011-.014.014-.023a.6.6,0,0,0-.342.477.151.151,0,0,1-.126.2,1.068,1.068,0,0,1-.267.328l-.005.008a1.427,1.427,0,0,0-.306.386c.009,0,.01-.013.019-.017l-.026.03c0-.005.006-.007.007-.012-.232.134-.153.48-.4.6l-.022.039c-.087.129-.182.251-.281.37h0l-.01.014.009-.013a.62.62,0,0,0-.3.41c.014-.006.019-.018.035-.023l-.039.041c0-.007,0-.012,0-.018-.276.115-.212.459-.4.631l0-.006a.74.74,0,0,0-.315.49.152.152,0,0,1-.113.205,3.523,3.523,0,0,1-.264.365l.012-.017c-.233.152-.142.5-.39.642l-.016.031c-.078.139-.216.238-.272.394.007,0,.009-.012.017-.015l-.027.033c0-.007.009-.012.011-.018-.248.151-.186.483-.381.665l0-.005c-.215.165-.127.5-.373.65l-.014.03c-.081.142-.233.238-.264.411.011-.007.015-.017.027-.023l-.033.04A.164.164,0,0,1,88.787,29c-.255.146-.218.454-.358.664,0,0,.005-.007.009-.009l-.017.027a.13.13,0,0,0,.008-.017c-.243.16-.2.475-.361.677h0l-.009.015s0-.01.008-.014c-.233.173-.169.5-.363.695l0-.008c-.217.184-.157.506-.35.7l0-.008c-.217.183-.157.506-.351.7l0-.008c-.217.185-.158.506-.349.7l0-.009c-.214.184-.173.49-.332.7v0l-.011.019c0-.005.005-.012.009-.017-.23.18-.2.482-.329.708,0,0,.005-.007.009-.01L86,34.537c0-.007.005-.014.009-.021-.268.2-.235.531-.349.8a.151.151,0,0,1-.08.22c-.169.2-.1.506-.309.69h0c-.2.2-.168.49-.308.71l0-.005-.015.027a.2.2,0,0,0,.011-.022c-.257.217-.239.547-.34.828a.122.122,0,0,1-.067.2c-.179.2-.143.488-.29.7h0l-.012.023c.005-.006.007-.016.012-.023-.368.251-.048.761-.386,1.022l0,.005c-.2.227-.173.54-.307.791a.19.19,0,0,1-.072.255c-.157.207-.13.486-.272.7h0l-.013.025a.249.249,0,0,0,.012-.024c-.364.265-.07.762-.369,1.051l.007-.017c-.339.277-.058.764-.355,1.054l.006-.014c-.334.28-.057.763-.352,1.055l.007-.016c-.332.3-.079.782-.343,1.1a.222.222,0,0,1-.065.282,5.612,5.612,0,0,0-.267.8.154.154,0,0,1-.057.232c-.279.3-.023.761-.316,1.057l.005-.014c-.316.327-.106.8-.324,1.158a.143.143,0,0,1-.051.223c-.277.329-.066.791-.3,1.131a.182.182,0,0,1-.056.258c-.259.327-.045.78-.3,1.11a.208.208,0,0,1-.049.276c-.251.342-.066.794-.287,1.143a.158.158,0,0,1-.046.24c-.264.361-.107.825-.294,1.2q-.04.267-.082.533c-.223.351-.06.793-.272,1.147a.146.146,0,0,1-.04.232c-.341.45-.018,1.037-.308,1.5a.149.149,0,0,1-.039.236c-.332.462-.033,1.05-.3,1.524-.025.186-.05.373-.074.561-.284.457.007,1.023-.28,1.479a.162.162,0,0,1-.037.247c-.372.573.02,1.272-.306,1.852q-.031.289-.064.578c-.328.571.045,1.252-.288,1.821q-.03.3-.06.6c-.306.6.013,1.288-.279,1.888a1.257,1.257,0,0,1-.074.885c-.327.7.064,1.488-.277,2.184q-.023.293-.047.584c-.4.927.087,1.949-.3,2.878a1.4,1.4,0,0,1-.06.935c-.377,1.063.093,2.2-.284,3.262a2.252,2.252,0,0,1-.061,1.242c-.414,1.5.139,3.067-.3,4.568a3.971,3.971,0,0,1-.056,1.67c-.4,2.2.142,4.445-.29,6.645a10.23,10.23,0,0,1-.044,2.707,60.268,60.268,0,0,0-.142,6.844c-.1,3.769.175,7.544-.15,11.311q.184,5.476-.059,10.95a4.928,4.928,0,0,0-.139,1.877,49.217,49.217,0,0,1-.15,5.857,2.3,2.3,0,0,1-.064,1.276c-.347.826.069,1.735-.277,2.561-.019.185-.037.369-.056.554-.361.55.062,1.237-.309,1.786a.231.231,0,0,1-.043.294c-.241.363-.092.816-.279,1.19l.04.108-.079.083c-.3.339-.1.809-.311,1.169a.14.14,0,0,1-.053.22c-.293.29-.017.761-.33,1.045v-.005a2.288,2.288,0,0,0-.306.843.121.121,0,0,1-.062.2c-.186.2-.144.493-.3.7h0l-.011.019c.005-.006.006-.013.01-.019-.233.181-.2.485-.331.713.005,0,.007-.008.012-.011l-.02.03c0-.006,0-.013.008-.019-.251.163-.215.472-.347.694.005,0,.007-.009.012-.012l-.019.028a.163.163,0,0,1,.007-.017c-.25.157-.206.472-.36.68,0,0,0,0,.006-.007l-.014.022c0-.005.005-.011.008-.015-.238.162-.17.495-.376.675h0a.781.781,0,0,0-.3.5.153.153,0,0,1,0,.1L77,147.593a41.236,41.236,0,0,0,2.774-11.983" transform="translate(-19.55 0)" fill="#060000"/>
      <path id="パス_21833" data-name="パス 21833" d="M165.73,357.537c.012-.005.017-.016.027-.022s.008-.011.01-.018Z" transform="translate(-46.017 -99.265)" fill="#060000"/>
      <path id="パス_21834" data-name="パス 21834" d="M165.261,358.009c.006,0,.009-.007.015-.009s.017-.014.021-.027Z" transform="translate(-45.887 -99.397)" fill="#060000"/>
      <path id="パス_21835" data-name="パス 21835" d="M.783,353.711l0,0c.008.006.01.014.019.019Z" transform="translate(-0.217 -98.213)" fill="#060000"/>
      <path id="パス_21836" data-name="パス 21836" d="M6.081,259.235S5.12,225.927,24.016,219.2c4.632-1.649,10.189-3.221,15.938-4.654l.069-3.1a2.857,2.857,0,0,1,.156-.849.817.817,0,0,0-.452.112l-.594.094c-.254.112-.54.122-.791.241l-.62.1c-.24.13-.522.127-.766.244l-.62.1c-.241.131-.525.124-.768.248l-.581.107a6.422,6.422,0,0,0-.808.255l-.333.061c-.3.3-.756.038-1.057.313a.186.186,0,0,1-.255.059c-.248.126-.54.116-.781.262a.29.29,0,0,1-.317.066c-.209.173-.5.135-.72.264l-.353.071c-.282.318-.756.03-1.043.332a.118.118,0,0,1-.2.055,2.59,2.59,0,0,0-.845.292.115.115,0,0,1-.191.054,1.176,1.176,0,0,0-.492.225l-.356.08c-.182.206-.473.143-.684.277l-.329.079c-.2.186-.5.129-.714.288a.23.23,0,0,1-.277.075c-.236.15-.55.1-.768.3a.113.113,0,0,1-.187.059,1.009,1.009,0,0,0-.5.241.262.262,0,0,1-.294.085c-.227.16-.54.116-.749.316l-.015.006c-.176.212-.483.139-.678.308a.165.165,0,0,1-.229.079,1.287,1.287,0,0,0-.462.242.234.234,0,0,1-.274.093c-.142.076-.28.155-.417.24a.263.263,0,0,1-.295.1c-.225.163-.557.1-.738.356l.019-.013-.022.015,0,0c-.115.082-.233.161-.355.233a.249.249,0,0,1-.282.105q-.212.117-.412.252a.2.2,0,0,1-.25.1,1.365,1.365,0,0,0-.458.277l-.038.017c-.143.247-.48.157-.641.372-.178.191-.508.131-.649.381l.012-.005-.033.03c.005-.012.015-.014.021-.025-.172.041-.27.186-.4.287l-.018.01c-.152.218-.493.148-.625.4.005,0,.008-.007.013-.008l-.032.03c0-.01.014-.013.019-.022a.989.989,0,0,0-.392.3l-.007,0a1.257,1.257,0,0,1-.333.265.149.149,0,0,1-.2.124.588.588,0,0,0-.478.342c.008,0,.013-.01.022-.014l-.03.025s.007-.007.009-.011a1.053,1.053,0,0,0-.368.317l0,0c-.118.107-.24.212-.363.314l-.021.016a10.051,10.051,0,0,0-2.061,2.07l-.01.013c-.1.126-.22.23-.308.365l0,0-.012.014.009-.012a.727.727,0,0,0-.316.389c.011-.005.014-.016.027-.02l-.036.038c0-.007.007-.01.009-.017-.256.121-.184.469-.412.609l-.012.02a2.161,2.161,0,0,0-.286.389c.007,0,.009-.012.017-.016l-.027.032c0-.007.008-.01.01-.016-.241.147-.174.483-.388.647l0,.008a.882.882,0,0,0-.3.487.152.152,0,0,1-.1.213,2.865,2.865,0,0,0-.239.375s.006-.007.011-.01l-.029.038c.005-.009.013-.018.018-.027-.262.157-.224.468-.353.693.006,0,.007-.009.013-.012l-.02.03a.135.135,0,0,0,.007-.018c-.254.161-.22.467-.345.692.006,0,.007-.009.013-.013l-.021.033c0-.007,0-.014.008-.02-.274.2-.243.532-.351.8a.135.135,0,0,1-.075.207c-.176.2-.116.508-.308.7l0-.009c-.22.223-.2.542-.32.8a.165.165,0,0,1-.072.236c-.164.205-.134.487-.277.7h0l-.013.025a.245.245,0,0,0,.012-.024c-.365.265-.07.762-.37,1.05l.007-.016c-.337.281-.063.764-.35,1.06l.009-.02c-.339.312-.1.8-.339,1.138a.166.166,0,0,1-.056.243c-.269.319-.038.777-.306,1.1a.237.237,0,0,1-.056.293c-.236.34-.05.785-.281,1.127a.173.173,0,0,1-.043.254c-.334.438.008,1.018-.309,1.46a.2.2,0,0,1-.04.273c-.366.555.052,1.245-.31,1.8a.2.2,0,0,1-.033.278c-.385.693.05,1.5-.3,2.194a1.487,1.487,0,0,1-.069.928c-.356.94.09,1.958-.279,2.9a3.718,3.718,0,0,1-.068,1.608,6.842,6.842,0,0,0-.129,2.229c-.1,2.877.17,5.761-.151,8.634a52.252,52.252,0,0,1-.066,6.461,5.958,5.958,0,0,0-.129,2.054c-.095,2.586.17,5.179-.151,7.761a7.2,7.2,0,0,1-.064,2.311c-.4,1.853.141,3.755-.293,5.607a2.573,2.573,0,0,1-.05,1.322c-.4,1.385.13,2.837-.3,4.221a1.547,1.547,0,0,1-.048.976c-.381,1.063.091,2.2-.285,3.263a1.259,1.259,0,0,1-.053.894c-.391.94.079,1.966-.293,2.907a1.294,1.294,0,0,1-.065.906c-.362.81.083,1.713-.287,2.522q-.025.3-.051.595c-.353.711.038,1.518-.289,2.233a1.269,1.269,0,0,1-.074.888c-.3.59.025,1.271-.272,1.862q-.028.28-.056.56c-.381.674.08,1.468-.308,2.141a.206.206,0,0,1-.031.282,6.425,6.425,0,0,0,.005,3.116l0,.006c.211.165.151.49.372.65l0,0L.587,314c-.009-.005-.011-.014-.019-.019a1.019,1.019,0,0,0,.345.356l0-.006.016.015s-.007-.007-.012-.009a.537.537,0,0,0,.418.3l-.056-.033c.807.538,1.707.163,2.56.261,1.452-.5,1.776-1.711,1.974-2.993a23.1,23.1,0,0,0-3.252.208Z" transform="translate(0 -58.477)" fill="#060000"/>
      <path id="パス_21837" data-name="パス 21837" d="M113.612,19.018c-.005,0-.008.006-.013.007s-.014.012-.018.022Z" transform="translate(-31.537 -5.281)" fill="#060000"/>
      <path id="パス_21838" data-name="パス 21838" d="M9.443,240.105h0c-.005.007-.007.017-.012.024Z" transform="translate(-2.618 -66.669)" fill="#060000"/>
      <path id="パス_21839" data-name="パス 21839" d="M1.259,354.2l0,.006a.135.135,0,0,0,.012.009Z" transform="translate(-0.35 -98.349)" fill="#060000"/>
      <path id="パス_21840" data-name="パス 21840" d="M101.123,31.948c-.009,0-.011.013-.019.017s-.006.007-.008.012Z" transform="translate(-28.071 -8.871)" fill="#060000"/>
      <path id="パス_21841" data-name="パス 21841" d="M104.056,28.152c-.014,0-.017.014-.03.019s-.008.011-.009.019Z" transform="translate(-28.882 -7.817)" fill="#060000"/>
      <path id="パス_21842" data-name="パス 21842" d="M71.352,204.134l-.006.007-.007.014Z" transform="translate(-19.808 -56.681)" fill="#060000"/>
      <path id="パス_21843" data-name="パス 21843" d="M100.127,33.371h0l-.01.013Z" transform="translate(-27.799 -9.266)" fill="#060000"/>
      <path id="パス_21844" data-name="パス 21844" d="M97.29,37.7c-.007,0-.009.011-.017.015s-.009.012-.011.019Z" transform="translate(-27.007 -10.469)" fill="#060000"/>
      <path id="パス_21845" data-name="パス 21845" d="M99.745,33.907c-.016,0-.021.017-.035.022a.166.166,0,0,0,0,.018Z" transform="translate(-27.685 -9.415)" fill="#060000"/>
      <path id="パス_21846" data-name="パス 21846" d="M110.68,21.38l-.007.007h0Z" transform="translate(-30.73 -5.936)" fill="#060000"/>
      <path id="パス_21847" data-name="パス 21847" d="M104.491,27.641c-.007,0-.01.008-.017.011s-.009.012-.012.02Z" transform="translate(-29.006 -7.675)" fill="#060000"/>
      <path id="パス_21848" data-name="パス 21848" d="M111.2,20.924c-.006,0-.01.008-.016.011s-.007.008-.01.014Z" transform="translate(-30.869 -5.81)" fill="#060000"/>
      <path id="パス_21849" data-name="パス 21849" d="M111.719,20.479c-.007,0-.009.007-.016.008s-.016.015-.019.028Z" transform="translate(-31.011 -5.686)" fill="#060000"/>
      <path id="パス_21850" data-name="パス 21850" d="M95.877,40.117c-.013.006-.017.017-.028.023s0,.011-.005.017Z" transform="translate(-26.613 -11.139)" fill="#060000"/>
      <path id="パス_21851" data-name="パス 21851" d="M104.932,27.139l-.006.005-.008.01Z" transform="translate(-29.132 -7.536)" fill="#060000"/>
      <path id="パス_21852" data-name="パス 21852" d="M102.561,30.027s-.007.006-.011.009-.012.014-.014.022Z" transform="translate(-28.471 -8.337)" fill="#060000"/>
      <path id="パス_21853" data-name="パス 21853" d="M72.784,201.252h0c0,.006-.006.013-.01.019Z" transform="translate(-20.207 -55.881)" fill="#060000"/>
      <path id="パス_21854" data-name="パス 21854" d="M95.362,41.055s-.005.006-.009.009a.173.173,0,0,1-.008.017Z" transform="translate(-26.474 -11.4)" fill="#060000"/>
      <path id="パス_21855" data-name="パス 21855" d="M89.586,53.517h0c-.005.008-.007.017-.012.024Z" transform="translate(-24.872 -14.86)" fill="#060000"/>
      <path id="パス_21856" data-name="パス 21856" d="M72.337,202.226c-.005,0-.006.008-.012.011s0,.013-.008.019Z" transform="translate(-20.08 -56.151)" fill="#060000"/>
      <path id="パス_21857" data-name="パス 21857" d="M71.857,203.186c-.006,0-.006.009-.012.012a.158.158,0,0,1-.007.017Z" transform="translate(-19.947 -56.418)" fill="#060000"/>
      <path id="パス_21858" data-name="パス 21858" d="M88.149,57.354h0c-.005.007-.007.017-.012.024Z" transform="translate(-24.472 -15.925)" fill="#060000"/>
      <path id="パス_21859" data-name="パス 21859" d="M92.459,46.8v0c0,.005-.005.012-.009.017Z" transform="translate(-25.67 -12.995)" fill="#060000"/>
      <path id="パス_21860" data-name="パス 21860" d="M94.853,42h0s0,.011-.009.014Z" transform="translate(-26.335 -11.663)" fill="#060000"/>
      <path id="パス_21861" data-name="パス 21861" d="M90.556,51.121l0,.006c0,.007-.006.014-.011.021Z" transform="translate(-25.14 -14.195)" fill="#060000"/>
      <path id="パス_21862" data-name="パス 21862" d="M92.01,47.77s-.005.007-.009.01-.005.014-.009.021Z" transform="translate(-25.543 -13.264)" fill="#060000"/>
      <path id="パス_21863" data-name="パス 21863" d="M293.467,236.256c-2.652-14.054-25.719-20.2-33.58-21.9l.165,2.943c1.9.433,3.8.891,5.681,1.412,5.689,1.572,11.306,3.334,16.38,6.467a15.419,15.419,0,0,1,5.969,6.56c3,6.229,4.014,12.908,4.2,19.672.215,7.841.667,15.685.42,23.536a16.7,16.7,0,0,0,.035,1.731c.51,6.955.674,13.933,1.349,20.879q.635,6.529,1.523,13.027l2.663-.02s-1.6-57.329-4.8-74.3" transform="translate(-72.162 -59.518)" fill="#060000"/>
      <path id="パス_21864" data-name="パス 21864" d="M104.925,207.5c1.184-.242,1.648.358,2.056,1.313a47.8,47.8,0,0,0,9.179,14.174,35.527,35.527,0,0,0,20.049,10.874c1.773.313,1.808.366,1.06,1.939-.422.887-.753,1.813-1.186,2.694q-2.748,5.585-5.477,11.18a2.879,2.879,0,0,1,1.968,2.108h3.336q2.565-5.277,5.129-10.553a2.122,2.122,0,0,1,.732-1.055,23.717,23.717,0,0,0,17.98,4.623,42.979,42.979,0,0,1-1.316,5.67c-.112.439-.226.877-.338,1.316h.477a3.6,3.6,0,0,1,3.134-1.85h2.828q1.2-4.624,2.4-9.248a9.53,9.53,0,0,1,1.716-3.54,51.6,51.6,0,0,0,9.776-20.085,53.883,53.883,0,0,1,2.674-7.682,1.7,1.7,0,0,1,2.139-1.219c1.06.184,2.123.347,3.185.517l.613-2.023-10.45-1.418a123.629,123.629,0,0,0-4.563,13.354c-1.625,5.991-4.869,11.187-8.689,16.022a7.292,7.292,0,0,0-1.723,3.331,1.574,1.574,0,0,1-1.463,1.41,18.2,18.2,0,0,1-15.072-3.3c-1.045-.782-.988-.786-.577-2.118,1.481-4.8,2.6-9.687,3.664-14.587a156.416,156.416,0,0,0,2.935-17.574l-5.273-.716a117.414,117.414,0,0,1-2.341,14.975c-.8,3.659-1.679,7.3-2.553,10.946-.4,1.676-.09,1.753-2.189,1.5a28.981,28.981,0,0,1-15.226-6.508,41.619,41.619,0,0,1-11.739-16.4c.351-.493.844-.487,1.275-.628q3.111-1.021,6.221-2.048l-14.42,1.492s-1.952.311-5.176.873l.682,3.1c1.523-.266,3.043-.546,4.559-.856" transform="translate(-27.679 -55.826)" fill="#060000"/>
      <path id="パス_21865" data-name="パス 21865" d="M9.595,285.521c.515-7.19.229-14.406.683-21.6.3-4.773-.053-9.562.319-14.354a64.49,64.49,0,0,1,2.659-14.07,17.98,17.98,0,0,1,9.931-11.362,86.716,86.716,0,0,1,17.7-5.99l.046-2.079c-5.748,1.434-11.305,3-15.938,4.654C6.1,227.443,7.064,260.752,7.064,260.752L3.54,313.6a23.044,23.044,0,0,1,3.252-.209c.009-.057.019-.113.027-.17,1.345-9.19,2.112-18.439,2.775-27.7" transform="translate(-0.983 -59.993)" fill="#060000"/>
      <path id="パス_21866" data-name="パス 21866" d="M160.526,348.778c-.087.337-.173.675-.261,1.013h6q.146-.534.286-1.069l-6.022.056" transform="translate(-44.5 -96.828)" fill="#060000"/>
      <path id="パス_21867" data-name="パス 21867" d="M109.347,349.277l-6.422.068c-.1.2-.2.4-.3.6h6.4q.161-.335.324-.668" transform="translate(-28.494 -96.982)" fill="#060000"/>
      <path id="パス_21868" data-name="パス 21868" d="M179.583,276.652h-.953a3.612,3.612,0,0,1-3.612-3.612,3.573,3.573,0,0,1,.477-1.762h-.477q-7.172,28-14.393,56l6.022-.056c.473-1.822.905-3.656,1.372-5.478q5.78-22.544,11.562-45.089" transform="translate(-44.6 -75.325)" fill="#060000"/>
      <path id="パス_21869" data-name="パス 21869" d="M133.506,271.279a2.871,2.871,0,0,1-2.813,3.53h-1.9q-8.183,16.8-16.331,33.615c-3.126,6.427-6.175,12.893-9.416,19.264l6.422-.068q13.684-28.173,27.379-56.341Z" transform="translate(-28.611 -75.325)" fill="#060000"/>
      <path id="パス_21870" data-name="パス 21870" d="M112.842,143.982c.944-.321,1.416-.729,1.38-1.822-.1-3-.09-6-.094-9.005a2.422,2.422,0,0,0-.689-1.87,75.305,75.305,0,0,1-6.854-8.235,46.664,46.664,0,0,1-7.192-12.755,52.166,52.166,0,0,1-1.958-9.619c-.784-5.485-.928-11.012-1.221-16.523-.261-4.894-.1-9.811-.1-14.718,0-2.243.847-3.055,3.149-3.11-.353-.5-.1-1.024,0-1.505,1.837-8.685,4.646-17.006,9.395-24.577a41.323,41.323,0,0,1,5.454-7.129c-.147-1.008-.285-2.016-.441-3.022a2.8,2.8,0,0,1,2.322-3.19,2.519,2.519,0,0,1,2.655,2.291,1.184,1.184,0,0,0,.29.774c.144-.32-.047-.756.344-.992-.4-1.667.12-2.824,1.508-3.365,1.33-.517,2.426-.124,3.337,1.336a52.143,52.143,0,0,0,12.9,13.854,61.711,61.711,0,0,0,31.083,12.4,4.412,4.412,0,0,1,4,2.723c1.545,3.414,3.032,6.855,4.6,10.256a10.3,10.3,0,0,1,.922,4.507c-.03,10.373.079,20.748-1.414,31.06a41.5,41.5,0,0,1-3.648,12.722,56.681,56.681,0,0,1-4.324,7.082,2.873,2.873,0,0,0-.676,2.073,81.616,81.616,0,0,1,.639,10.338c0,.258-.108.592.353.7.48-.456.967-.945,1.482-1.4a8.126,8.126,0,0,1,3.251-1.913c3.982-1.092,6.8.934,7.505,4.281a11.785,11.785,0,0,1-.33,4.941,47.807,47.807,0,0,1-2.232,6.9c-.412,1.107-.413,1.117.7,1.342,1.177.236,2.356.444,3.54.632l.157-.516a3.615,3.615,0,0,1,4-2.523l11.539,1.743c-.326-2.381-.231-4.789-.375-7.174-.338-5.633-.463-11.281-.759-16.92-.163-3.107-.183-6.221-.286-9.33-.237-7.142-.384-14.287-.735-21.428-.233-4.718-.605-9.416-1.039-14.118A149.983,149.983,0,0,0,192.74,64,120.335,120.335,0,0,0,185.3,39.042c-3.442-7.905-7.8-15.17-14.269-21.026a36.636,36.636,0,0,0-12.2-7.408,61.32,61.32,0,0,0-17.282-3.1,44.975,44.975,0,0,0-15.738,1.7,25.519,25.519,0,0,0-10.324,5.438,20.4,20.4,0,0,1-5.024,3.539c-4.179,2.033-7.371,5.31-10.161,8.963-5.546,7.266-8.946,15.559-11.452,24.26a153.8,153.8,0,0,0-5.147,31.8c-.413,5.8-.566,11.625-.731,17.441-.242,8.534.155,17.077-.313,25.611-.209,3.8,0,7.6-.358,11.406a41.219,41.219,0,0,1-2.774,11.983l10.913-1.886a2.877,2.877,0,0,1,2.919,1.292c2.13-.375,4.253-.8,6.359-1.306,4.426-1.07,8.805-2.3,13.119-3.769" transform="translate(-22.083 -2.058)" fill="#f49902"/>
      <path id="パス_21871" data-name="パス 21871" d="M148.125,144.971c-.243-6.978-.86-13.945-.657-20.938,0-.09-.1-.182-.2-.373-.409.3-.807.6-1.219.891a9.829,9.829,0,0,1-3.917,1.741,9.446,9.446,0,0,1-8.389-2.748,26.374,26.374,0,0,1-6.474-10.12c-.741-1.911-.032-3.251,1.955-3.825a29.262,29.262,0,0,1,4.768-.844,50.4,50.4,0,0,1,18.05,1.011,1.892,1.892,0,0,0,1.323.028,3.424,3.424,0,0,1,1.879-.166c.762.109,1.089-.179,1.43-.855,1.277-2.535,3.581-3.075,5.887-1.447a5.55,5.55,0,0,1,1.169,1.022c.544.685.987.782,1.859.375a4.241,4.241,0,0,1,6.023,2.271,11.166,11.166,0,0,1,.744,2.116c.39,1.625.728,3.263,1.057,4.9.283,1.412.525,2.833.856,4.637a28.572,28.572,0,0,0,3.3-7.645,75.512,75.512,0,0,0,1.654-11.288c.757-8.287.878-16.6.812-24.913a4.3,4.3,0,0,0-.345-1.846c-1.43-3.087-2.843-6.182-4.215-9.3a1.693,1.693,0,0,0-1.551-1.081c-1.827-.249-3.649-.572-5.451-.966a66.367,66.367,0,0,1-37.825-22.777,27.032,27.032,0,0,1-3.778-5.573h0c-.241.295.089.8-.335,1.029A30.055,30.055,0,0,0,138.7,56.9a38.2,38.2,0,0,0,9.733,5.165,2.693,2.693,0,0,1,2.12,2.417,2.552,2.552,0,0,1-3.571,2.621,43.509,43.509,0,0,1-9.3-4.52A36.293,36.293,0,0,1,122,42.016a2.025,2.025,0,0,0-.187-.4c-.983,1.687-2.4,3.045-3.523,4.633-5.7,8.072-8.877,17.169-10.987,26.709a5.011,5.011,0,0,1-.458,1.657c1.913.541,2.093,2.01,2.079,3.682a248.048,248.048,0,0,0,1.358,30.6,32.326,32.326,0,0,0,3.6,12.372,77.464,77.464,0,0,0,11.567,15.29,7.135,7.135,0,0,0,1.515,1.138,32.654,32.654,0,0,0,9.413,4.264,2.436,2.436,0,0,1,2.011,2.122,2.518,2.518,0,0,1-2.853,3,13.216,13.216,0,0,1-4.135-1.208c-1.425-.586-2.816-1.257-4.234-1.9a2.15,2.15,0,0,0-.178,1.4c.064,2.307.173,4.614.231,6.921.066,2.593-.32,3.192-2.812,4.055-1.041.361-2.088.706-3.133,1.053L144,155.056l3.82.519a87.264,87.264,0,0,0,.3-10.6m14.891-58.948a2.7,2.7,0,0,1-2.689-2.587,2.615,2.615,0,0,1,2.6-2.637,2.564,2.564,0,0,1,2.667,2.55,2.648,2.648,0,0,1-2.579,2.673M152.484,69.185a15.58,15.58,0,0,1,6.256-1.463,14.8,14.8,0,0,1,8.174,2.653,3.226,3.226,0,0,1,1.337,1.532,2.611,2.611,0,0,1-.657,2.843,2.689,2.689,0,0,1-2.9.434,7.048,7.048,0,0,1-.871-.557,8.966,8.966,0,0,0-8.4-.991c-.324.117-.637.269-.966.369a2.593,2.593,0,0,1-3.27-1.469,2.563,2.563,0,0,1,1.3-3.352M138.671,79.96a2.446,2.446,0,0,1,2.036-2.611,2.565,2.565,0,0,1,3.168,2.544c.069,1.208.017,2.423.017,3.634,0,3.347.019,6.693-.009,10.039-.014,1.712-.9,2.77-2.333,2.912a2.5,2.5,0,0,1-2.878-2.672c-.044-2.307-.011-4.616-.011-6.924s-.029-4.616.009-6.923m-20.446-5.017a2.594,2.594,0,0,1-3.849-.9,2.623,2.623,0,0,1,.966-3.48,14.781,14.781,0,0,1,8.482-2.831,16.056,16.056,0,0,1,5.916,1.333,2.63,2.63,0,0,1,1.564,3.514,2.576,2.576,0,0,1-3.455,1.362,9.873,9.873,0,0,0-5.895-.715,11.4,11.4,0,0,0-3.73,1.721m7.824,11.081a2.619,2.619,0,0,1-2.592-2.647,2.615,2.615,0,0,1,5.23.036,2.646,2.646,0,0,1-2.639,2.611" transform="translate(-29.667 -10.346)" fill="#fff"/>
      <path id="パス_21872" data-name="パス 21872" d="M123.931,202.689q-3.109,1.033-6.222,2.048c-.431.142-.923.135-1.274.628a41.616,41.616,0,0,0,11.739,16.4,28.983,28.983,0,0,0,15.227,6.507c2.1.259,1.787.181,2.189-1.495.875-3.643,1.752-7.286,2.553-10.946a117.451,117.451,0,0,0,2.341-14.976l-3.82-.519Z" transform="translate(-32.33 -55.627)" fill="#fff"/>
      <path id="パス_21873" data-name="パス 21873" d="M118.219,47.835c1.123-1.588,2.54-2.946,3.523-4.634-.039-.07-.079-.141-.116-.212a41.293,41.293,0,0,0-5.454,7.129c-4.749,7.572-7.558,15.891-9.395,24.577-.1.482-.356,1.005,0,1.506a5.012,5.012,0,0,0,.458-1.657c2.11-9.541,5.282-18.637,10.987-26.709" transform="translate(-29.597 -11.937)" fill="#fff"/>
      <path id="パス_21874" data-name="パス 21874" d="M134.427,37.261c-.391.235-.2.671-.344.992l.009.038c.424-.227.094-.735.335-1.029" transform="translate(-37.23 -10.346)" fill="#fff"/>
      <path id="パス_21876" data-name="パス 21876" d="M171.977,260.774a23.236,23.236,0,0,1-14.526-3.544c-1.606-.953-1.54-.946-2.414.771-1.553,3.051-3.064,6.123-4.564,9.2h21.221c.461-1.721.949-3.434,1.375-5.165.251-1.023-.019-1.374-1.092-1.263" transform="translate(-41.781 -71.247)" fill="#fff"/>
      <path id="パス_21877" data-name="パス 21877" d="M112.447,349.142c-.11.225-.222.449-.332.673h34.328l.259-1.008c-11.565.108-23.149.22-34.254.336" transform="translate(-31.13 -96.851)" fill="#fff000"/>
      <path id="パス_21878" data-name="パス 21878" d="M133.928,283.7c-6.223,12.762-12.394,25.55-18.63,38.306-.914,1.868-1.812,3.743-2.723,5.613,11.105-.116,22.688-.228,34.253-.337q3.742-14.654,7.507-29.3c2.127-8.334,4.31-16.653,6.395-25q.213-.852.441-1.7H139.951c-2.015,4.135-4.007,8.283-6.023,12.418" transform="translate(-31.258 -75.325)" fill="#fff"/>
      <path id="パス_21879" data-name="パス 21879" d="M111.045,350.2h-.457l-1.052,2.165a14.263,14.263,0,0,0-1.274,2.826h.222c.033-.033.065-.069.1-.1.848-1.617,1.661-3.251,2.464-4.889" transform="translate(-30.061 -97.239)" fill="#fff000"/>
      <path id="パス_21880" data-name="パス 21880" d="M159.345,351.99q.231-.894.459-1.788h-.453q-.285,1.116-.571,2.231a3.163,3.163,0,0,0,.251,2.669c.033.03.062.065.092.1h.187a4.929,4.929,0,0,1,.034-3.21" transform="translate(-44.039 -97.239)" fill="#fff000"/>
      <path id="パス_21881" data-name="パス 21881" d="M173.677,259.831a23.714,23.714,0,0,1-17.98-4.623,2.114,2.114,0,0,0-.733,1.055q-2.566,5.276-5.129,10.553h.461c1.5-3.077,3.011-6.149,4.564-9.2.873-1.716.808-1.723,2.413-.771a23.237,23.237,0,0,0,14.526,3.544c1.073-.111,1.343.24,1.092,1.262-.425,1.731-.914,3.445-1.375,5.165h.5q.17-.658.339-1.315a42.965,42.965,0,0,0,1.316-5.67" transform="translate(-41.604 -70.862)" fill="#fff"/>
      <path id="パス_21882" data-name="パス 21882" d="M111.807,349.275q-.163.334-.324.668h.457c.11-.225.222-.448.332-.673l-.464.005" transform="translate(-30.955 -96.98)" fill="#fff000"/>
      <path id="パス_21883" data-name="パス 21883" d="M159.638,349.812h.453c.087-.337.173-.675.261-1.013l-.455,0q-.129.5-.259,1.009" transform="translate(-44.326 -96.849)" fill="#fff000"/>
      <path id="パス_21884" data-name="パス 21884" d="M115.12,322c6.236-12.756,12.408-25.543,18.63-38.306,2.016-4.135,4.008-8.282,6.023-12.417h-.461q-13.694,28.168-27.379,56.341l.464-.005c.912-1.869,1.809-3.744,2.723-5.613" transform="translate(-31.08 -75.325)" fill="#fff"/>
      <path id="パス_21885" data-name="パス 21885" d="M174.339,271.279c-.151.565-.3,1.131-.441,1.7-2.085,8.344-4.269,16.663-6.395,25q-3.74,14.656-7.507,29.3l.455,0q7.216-27.992,14.393-56Z" transform="translate(-44.425 -75.325)" fill="#fff"/>
      <path id="パス_21886" data-name="パス 21886" d="M200.507,177.4a9.562,9.562,0,0,0,.32-2.567c-.016-.641-.417-.8-.936-.57a4.7,4.7,0,0,0-1.156.744,14.358,14.358,0,0,0-2.483,2.877,48.991,48.991,0,0,0-3.572,6.521,2.636,2.636,0,0,1-5.045-1.488c.323-2.409.376-4.835.462-7.254a123.827,123.827,0,0,0-.648-15.732,98.348,98.348,0,0,0-2.331-14.857c-.092-.369-.058-.814-.519-.992-2.319,2.347-3.235,2.291-5.68-.344-.648,3.227-2.024,3.992-4.859,2.592a2.386,2.386,0,0,0,.125,1.462c.506,1.713,1.051,3.415,1.518,5.139a2.56,2.56,0,0,1-1.291,3.086,2.807,2.807,0,0,1-3.3-.672c-.2-.219-.189-.714-.711-.583a4.252,4.252,0,0,0-.09,1.687c.207,6.577.445,13.152.649,19.729a72.943,72.943,0,0,1-.22,9.343c-.011.112-.025.224-.037.336l25.489,3.46c.178-.446.348-.895.529-1.34a79.923,79.923,0,0,0,3.784-10.576" transform="translate(-47.279 -39.91)" fill="#fff"/>
      <path id="パス_21887" data-name="パス 21887" d="M165.295,219.62c-1.067,4.9-2.181,9.791-3.663,14.588-.412,1.331-.469,1.336.577,2.117a18.2,18.2,0,0,0,15.072,3.3,1.574,1.574,0,0,0,1.463-1.411,7.3,7.3,0,0,1,1.723-3.331c3.82-4.835,7.064-10.032,8.69-16.023a123.632,123.632,0,0,1,4.563-13.354l-25.489-3.46a156.221,156.221,0,0,1-2.935,17.574" transform="translate(-44.803 -56.101)" fill="#fff"/>
      <path id="パス_21888" data-name="パス 21888" d="M143.517,143.481a16.954,16.954,0,0,0,4.627,6.107,3.82,3.82,0,0,0,5.09-.021,16.409,16.409,0,0,0,4.377-6.037,50.682,50.682,0,0,0-14.093-.049" transform="translate(-39.85 -39.71)" fill="#fff"/>
      <path id="パス_21889" data-name="パス 21889" d="M128.544,42.608c4.117,11.8,12.608,19.116,24.044,23.394a2.217,2.217,0,0,0,3.027-1.154,2.172,2.172,0,0,0-1.484-2.87,42.583,42.583,0,0,1-11.814-6.748,30.348,30.348,0,0,1-10.051-15.588c-.168-.619-.5-1.273-.078-1.922-.006,0-.009.007-.017.009-.555-.144-.55-.664-.718-1.069-.433-1.051-1.131-1.743-2.353-1.5a2.4,2.4,0,0,0-1.7,2.616c.058,1.016.506,2,.237,3.043-.013.024-.028.046-.042.069.685.342.734,1.1.951,1.72" transform="translate(-35.373 -9.749)" fill="#060000"/>
      <path id="パス_21890" data-name="パス 21890" d="M127.456,40.613c.269-1.042-.179-2.028-.237-3.043a2.4,2.4,0,0,1,1.7-2.616,2,2,0,0,1,2.354,1.5c.167.406.163.925.718,1.07.007,0,.01-.007.017-.01.014-.021.022-.043.037-.064a1.192,1.192,0,0,1-.29-.775,2.519,2.519,0,0,0-2.654-2.291,2.8,2.8,0,0,0-2.322,3.19c.157,1.005.3,2.015.442,3.022a1.331,1.331,0,0,1,.191.086c.013-.023.029-.046.042-.069" transform="translate(-35.194 -9.543)" fill="#060000"/>
      <path id="パス_21891" data-name="パス 21891" d="M132.314,40.635a30.343,30.343,0,0,0,10.051,15.588,42.582,42.582,0,0,0,11.814,6.748,2.172,2.172,0,0,1,1.484,2.869,2.216,2.216,0,0,1-3.027,1.154C141.2,62.716,132.709,55.4,128.591,43.6c-.217-.62-.265-1.378-.951-1.72-.024.043-.051.084-.076.126a2.025,2.025,0,0,1,.187.4,36.293,36.293,0,0,0,15.685,20.565,43.511,43.511,0,0,0,9.3,4.52,2.552,2.552,0,0,0,3.57-2.621,2.692,2.692,0,0,0-2.12-2.417,38.2,38.2,0,0,1-9.733-5.165,30.06,30.06,0,0,1-12.168-18.607c-.016.009-.027.019-.046.027-.421.649-.09,1.3.078,1.922" transform="translate(-35.42 -10.742)" fill="#060000"/>
      <path id="パス_21892" data-name="パス 21892" d="M127.6,43.076a1.417,1.417,0,0,0-.191-.087c.036.072.077.142.116.212.025-.042.052-.083.076-.126" transform="translate(-35.376 -11.937)" fill="#060000"/>
      <path id="パス_21893" data-name="パス 21893" d="M134.077,38.672l-.009-.038c-.015.021-.023.043-.037.064a.391.391,0,0,0,.045-.026" transform="translate(-37.216 -10.727)" fill="#060000"/>
      <path id="パス_21894" data-name="パス 21894" d="M150.9,109.194a2.5,2.5,0,0,0,2.878,2.673c1.431-.142,2.319-1.2,2.333-2.912.027-3.346.009-6.692.009-10.038,0-1.212.053-2.426-.017-3.634a2.566,2.566,0,0,0-3.169-2.545,2.447,2.447,0,0,0-2.036,2.611c-.038,2.307-.01,4.616-.009,6.924s-.033,4.616.012,6.923" transform="translate(-41.893 -25.734)" fill="#060000"/>
      <path id="パス_21895" data-name="パス 21895" d="M130.625,85.648a2.577,2.577,0,0,0,3.455-1.362,2.63,2.63,0,0,0-1.564-3.514,16.057,16.057,0,0,0-5.916-1.334,14.781,14.781,0,0,0-8.482,2.831,2.624,2.624,0,0,0-.966,3.481,2.594,2.594,0,0,0,3.849.9,11.414,11.414,0,0,1,3.731-1.721,9.878,9.878,0,0,1,5.894.716" transform="translate(-32.441 -22.057)" fill="#060000"/>
      <path id="パス_21896" data-name="パス 21896" d="M171.421,85.714c.329-.1.641-.252.966-.369a8.969,8.969,0,0,1,8.4.991,7,7,0,0,0,.871.557,2.688,2.688,0,0,0,2.9-.434,2.611,2.611,0,0,0,.658-2.843,3.225,3.225,0,0,0-1.338-1.531,14.787,14.787,0,0,0-8.173-2.654,15.586,15.586,0,0,0-6.256,1.463,2.563,2.563,0,0,0-1.3,3.352,2.592,2.592,0,0,0,3.27,1.469" transform="translate(-46.632 -22.055)" fill="#060000"/>
      <path id="パス_21897" data-name="パス 21897" d="M135.074,100.147a2.615,2.615,0,0,0-5.23-.036,2.619,2.619,0,0,0,2.592,2.647,2.646,2.646,0,0,0,2.639-2.611" transform="translate(-36.053 -27.08)" fill="#060000"/>
      <path id="パス_21898" data-name="パス 21898" d="M183.488,97.535a2.615,2.615,0,0,0-2.6,2.637,2.7,2.7,0,0,0,2.689,2.587,2.649,2.649,0,0,0,2.579-2.673,2.564,2.564,0,0,0-2.667-2.55" transform="translate(-50.226 -27.082)" fill="#060000"/>
      <path id="パス_21899" data-name="パス 21899" d="M60.283,350.924l.74-.722H60.3Z" transform="translate(-16.739 -97.239)" fill="#fff"/>
      <path id="パス_21900" data-name="パス 21900" d="M60.311,349.865l-.005.24h.723l.259-.252-.977.012" transform="translate(-16.745 -97.142)" fill="#fff"/>
      <path id="パス_21901" data-name="パス 21901" d="M115.867,258.472H96.17a2.89,2.89,0,0,1-2.822-2.269l-.277-1.261-9.35-42.5c-7.1,1.081-14.22,1.985-21.258,3.417l-2.116,94.314-.035,1.537.978-.013c9.091-.116,19.208-.233,29.887-.347,3.242-6.371,6.29-12.837,9.416-19.264q8.174-16.8,16.331-33.615Z" transform="translate(-16.747 -58.988)" fill="#ffec00"/>
      <path id="パス_21902" data-name="パス 21902" d="M84.2,210.251,63.321,213.86l-.032,1.391c7.038-1.431,14.163-2.335,21.258-3.416Z" transform="translate(-17.573 -58.379)" fill="#ffec00"/>
      <path id="パス_21903" data-name="パス 21903" d="M55.168,349.922l-2.891.039-.083,3.7a2.889,2.889,0,0,0,2.824,2.954h.066a2.889,2.889,0,0,0,2.887-2.824l.066-2.946-2.954,2.881Z" transform="translate(-14.492 -97.161)" fill="#060000"/>
      <path id="パス_21904" data-name="パス 21904" d="M56.556,209.081c.345-.232.787-.056,1.135-.274l.6-.085c.338-.217.774-.031,1.107-.269l.627-.084c.346-.2.778-.035,1.12-.259l.613-.08c.359-.207.8-.064,1.158-.259l.926-.108c.342-.186.767-.016,1.1-.252a.2.2,0,0,0,.282-.084,1.011,1.011,0,0,0,.309-.3l.017-.027c.242-.142.158-.489.4-.634q.129-.182.259-.362a.134.134,0,0,0,.1-.1l-8.437,1.458a2.884,2.884,0,0,0-2.24,1.934.858.858,0,0,0,.605-.166.292.292,0,0,0,.326-.05" transform="translate(-15.445 -57.173)" fill="#060000"/>
      <path id="パス_21905" data-name="パス 21905" d="M128.74,254.586l1.031-2.108a2.841,2.841,0,0,0-.844-.14H108.59l-9.059-41.177q-1.425.249-2.853.478l9.449,42.947Z" transform="translate(-26.844 -58.632)" fill="#060000"/>
      <path id="パス_21906" data-name="パス 21906" d="M57.337,218.019q-1.456.321-2.905.666l-2.123,94.65L55.2,313.3Z" transform="translate(-14.524 -60.536)" fill="#060000"/>
      <path id="パス_21907" data-name="パス 21907" d="M137.222,275.411h1.057q.479-.982.956-1.964Z" transform="translate(-38.102 -75.927)" fill="#060000"/>
      <path id="パス_21908" data-name="パス 21908" d="M109.9,271.92h22.161l.311-.641H109.759Z" transform="translate(-30.476 -75.325)" fill="#060000"/>
      <path id="パス_21909" data-name="パス 21909" d="M69.912,206.535l-.006.007-.012.017Z" transform="translate(-19.407 -57.348)" fill="#060000"/>
      <path id="パス_21910" data-name="パス 21910" d="M55.313,212.577q1.445-.361,2.905-.709l.052-2.324,25.942-4.484.3,1.377c1.031-.185,1.984-.354,2.847-.5l-.328-1.494a2.909,2.909,0,0,0-.4-.935c-2.514.442-5.039.817-7.57,1.158-2.215.3-4.42.662-6.617,1-.3-.516.052-.825.2-1.164.056-.131.1-.264.157-.4l-6.592,1.139a.132.132,0,0,1-.1.1c-.087.12-.173.241-.259.361l.007-.006-.019.025.012-.018c-.238.146-.153.493-.4.635l-.016.027a1.02,1.02,0,0,1-.309.3.2.2,0,0,1-.282.084c-.331.236-.756.066-1.1.251l-.925.108c-.362.2-.8.052-1.158.259l-.613.08c-.341.223-.773.056-1.119.259l-.628.084c-.333.238-.768.052-1.107.269l-.6.085c-.347.218-.79.042-1.134.274a.292.292,0,0,1-.326.05.86.86,0,0,1-.605.166,2.862,2.862,0,0,0-.157.849Z" transform="translate(-15.359 -56.506)" fill="#060000"/>
      <path id="パス_21911" data-name="パス 21911" d="M99.271,209.969l-.683-3.1c-.862.15-1.815.319-2.847.5l.677,3.076q1.428-.231,2.853-.479" transform="translate(-26.584 -57.44)" fill="#060000"/>
      <path id="パス_21912" data-name="パス 21912" d="M142.1,268.36q-.515,1.054-1.031,2.109h3a2.882,2.882,0,0,0-1.968-2.109" transform="translate(-39.169 -74.514)" fill="#060000"/>
      <path id="パス_21913" data-name="パス 21913" d="M55.295,215.791l-.048,2.078q1.449-.345,2.905-.666l.048-2.122q-1.458.349-2.905.709" transform="translate(-15.34 -59.721)" fill="#060000"/>
      <path id="パス_21914" data-name="パス 21914" d="M140.092,271.92h.5l-.949.925-.956,1.964h1.9a2.871,2.871,0,0,0,2.813-3.53h-3l-.312.641" transform="translate(-38.508 -75.325)" fill="#060000"/>
      <path id="パス_21915" data-name="パス 21915" d="M90.265,201.7l-10.913,1.886c-.054.131-.1.264-.158.4-.144.339-.495.648-.2,1.164,2.2-.332,4.4-.7,6.616-1,2.532-.34,5.057-.716,7.571-1.158a2.878,2.878,0,0,0-2.919-1.292" transform="translate(-21.902 -55.993)" fill="#060000"/>
      <path id="パス_21916" data-name="パス 21916" d="M58.515,350.113l.09-.233-2.327.03-.086,3.805,2.955-2.881.016-.722Z" transform="translate(-15.603 -97.15)" fill="#060000"/>
      <path id="パス_21917" data-name="パス 21917" d="M95.578,211.823q-1.429.231-2.86.448l9.35,42.5h2.959Z" transform="translate(-25.745 -58.816)" fill="#060000"/>
      <path id="パス_21918" data-name="パス 21918" d="M61.352,217.173c-.31.063-.621.117-.931.182-.659.139-1.316.285-1.973.429l-2.137,95.278,2.327-.03.6-1.544Z" transform="translate(-15.636 -60.301)" fill="#060000"/>
      <path id="パス_21919" data-name="パス 21919" d="M59.408,350.11h.649l.006-.24-.564.007Z" transform="translate(-16.496 -97.147)" fill="#060000"/>
      <path id="パス_21920" data-name="パス 21920" d="M59.533,349.287l.563-.007.035-1.536Z" transform="translate(-16.53 -96.556)" fill="#060000"/>
      <path id="パス_21921" data-name="パス 21921" d="M130.923,271.92H108.762l-.141-.641h-2.959l.277,1.262a2.891,2.891,0,0,0,2.822,2.268h19.7l2.014-1.964q.226-.463.451-.925" transform="translate(-29.339 -75.325)" fill="#060000"/>
      <path id="パス_21922" data-name="パス 21922" d="M85.33,205.658l-25.942,4.484-.053,2.324c9.723-2.325,19.64-4.231,26.3-5.43Z" transform="translate(-16.475 -57.104)" fill="#060000"/>
      <path id="パス_21923" data-name="パス 21923" d="M62.174,214.505l.031-1.391,20.878-3.609.348,1.584q1.431-.219,2.86-.448l-.677-3.076c-6.658,1.2-16.575,3.1-26.3,5.429l-.048,2.121c.657-.144,1.313-.29,1.973-.429.31-.065.621-.119.931-.182" transform="translate(-16.457 -57.634)" fill="#060000"/>
      <path id="パス_21924" data-name="パス 21924" d="M140.959,272.166h-.5l-.451.925Z" transform="translate(-38.876 -75.571)" fill="#060000"/>
      <path id="パス_21925" data-name="パス 21925" d="M233.711,307.851l-5.225-93.165-.124-2.218-14.877-2.1-.6,1.982-12.737,42.014-.852,2.81a3.612,3.612,0,0,1-3.456,2.564H181.9q-5.821,22.535-11.563,45.089c-.467,1.822-.9,3.656-1.372,5.478,23.04-.211,46.636-.4,64.856-.545Z" transform="translate(-46.915 -58.413)" fill="#ffec00"/>
      <path id="パス_21926" data-name="パス 21926" d="M262.777,349.7l-.379-1.3.072,1.3Z" transform="translate(-72.859 -96.741)" fill="#060000"/>
      <path id="パス_21927" data-name="パス 21927" d="M259.157,347.949l-1.792.014.091,1.613h3.33Z" transform="translate(-71.461 -96.613)" fill="#060000"/>
      <path id="パス_21928" data-name="パス 21928" d="M186.87,277.905h2.663l-2.116-2.114q-.273,1.057-.547,2.114" transform="translate(-51.887 -76.578)" fill="#060000"/>
      <path id="パス_21929" data-name="パス 21929" d="M201.17,273.041l.534-1.762h-13.08q-.229.881-.458,1.762Z" transform="translate(-52.247 -75.325)" fill="#060000"/>
      <path id="パス_21930" data-name="パス 21930" d="M252.6,208.638l.633.1a3.437,3.437,0,0,0-.633-.1" transform="translate(-70.138 -57.932)" fill="#060000"/>
      <path id="パス_21931" data-name="パス 21931" d="M187.174,268.718h-2.827a3.6,3.6,0,0,0-3.135,1.85h5.481q.239-.925.481-1.85" transform="translate(-50.316 -74.614)" fill="#060000"/>
      <path id="パス_21932" data-name="パス 21932" d="M184.163,273.041h1.888q.229-.881.458-1.762h-5.481a3.587,3.587,0,0,0,3.135,5.373h.952l.547-2.114Z" transform="translate(-50.133 -75.325)" fill="#060000"/>
      <path id="パス_21933" data-name="パス 21933" d="M254.27,208.891l-.794-.12a.7.7,0,0,1,.129.043Z" transform="translate(-70.382 -57.968)" fill="#060000"/>
      <path id="パス_21934" data-name="パス 21934" d="M262.358,348.276l-.02-.347h-.082q.054.182.1.346" transform="translate(-72.819 -96.608)" fill="#060000"/>
      <path id="パス_21935" data-name="パス 21935" d="M262.4,350.506l-.017-.3H262.1Z" transform="translate(-72.776 -97.239)" fill="#060000"/>
      <path id="パス_21936" data-name="パス 21936" d="M259.846,347.944l1.629,1.627h.287l-.072-1.3c-.032-.108-.066-.225-.1-.346l-1.742.014" transform="translate(-72.15 -96.608)" fill="#060000"/>
      <path id="パス_21937" data-name="パス 21937" d="M204.477,274.089l.852-2.809h-3.774l-.534,1.761h-13q-.194.75-.389,1.5l2.116,2.114h11.278a3.612,3.612,0,0,0,3.456-2.564" transform="translate(-52.098 -75.325)" fill="#060000"/>
      <path id="パス_21938" data-name="パス 21938" d="M245.558,306.765l-5.246-93.516-.165-2.944-.175-3.113-.056-1a3.611,3.611,0,0,0-3.066-3.369L234,202.392l-5.475-.827-11.539-1.744a3.616,3.616,0,0,0-4,2.524l-.157.516-1.041,3.435-.613,2.023-12.508,41.258H189.28q-.239.925-.481,1.85h16.855l12.737-42.014.6-1.982,13.877,2.1H234l4.223,95.383.107,1.911,1.792-.014,1.742-.014h.082l.02.347.379,1.3h-.306l.017.3-.3-.3h-3.33l.028.506a3.612,3.612,0,0,0,3.6,3.41c.068,0,.137,0,.205-.006a3.612,3.612,0,0,0,3.4-3.808Zm-9.912-100.447a.693.693,0,0,0-.129-.043l-.633-.1a3.49,3.49,0,0,1,.633.1l.794.12Z" transform="translate(-52.423 -55.472)" fill="#060000"/>
      <path id="パス_21939" data-name="パス 21939" d="M187.051,275.215q.194-.749.389-1.5h-1.888Z" transform="translate(-51.521 -76.002)" fill="#060000"/>
    </g>
  </g>
</svg>
