<svg xmlns="http://www.w3.org/2000/svg" width="383.643" height="128.648" viewBox="0 0 383.643 128.648">
  <g id="merit_ttl" transform="translate(-565.533 -4916.188)">
    <path id="パス_23971" data-name="パス 23971" d="M3.572-10.452a45.2,45.2,0,0,1,5.6,5.4,46.1,46.1,0,0,1,5.4,7.056l2.94-2.352C16.06-2.332,15-3.676,13.82-5.02a43.308,43.308,0,0,0,9.044-10.612A8.742,8.742,0,0,1,24.1-17.284L22.136-19.5a7.332,7.332,0,0,1-2.324.224l-15.568.028a20.422,20.422,0,0,1-3.64-.2v3.556a30.367,30.367,0,0,1,3.584-.14H17.544c.588,0,1.008-.028,1.288-.056a.718.718,0,0,0-.056.14,1.965,1.965,0,0,0-.168.252,37.035,37.035,0,0,1-3.416,4.564A34.386,34.386,0,0,1,11.524-7.6c-.2-.168-.2-.168-1.736-1.736C8.64-10.452,7.8-11.208,6.316-12.44Zm41.86-11.284A22.4,22.4,0,0,1,40.224-16.5a40.892,40.892,0,0,1-14.7,7.28A10.532,10.532,0,0,1,27.4-6.028a45.366,45.366,0,0,0,10-4.536V-.708a15.749,15.749,0,0,1-.168,3.024h3.92a21.182,21.182,0,0,1-.14-3.108V-12.748a49.514,49.514,0,0,0,6.608-5.768,11.534,11.534,0,0,1,1.036-.98Zm21.476,6.8c0-.308,0-.308.028-2.156l.028-1.68a17.662,17.662,0,0,1,.14-2.688H63.24a17.624,17.624,0,0,1,.14,2.688v1.652c0,.5,0,1.008-.028,2.184H56.3a20.239,20.239,0,0,1-3.64-.2V-11.6a28.76,28.76,0,0,1,3.584-.14h6.944c-.224,2.856-.532,4.116-1.372,5.628-1.26,2.324-3.388,4.06-6.748,5.516a8.7,8.7,0,0,1,2.548,3.024c3.64-1.988,5.6-3.724,7.14-6.272,1.288-2.156,1.764-4,2.016-7.9h5.74a28.76,28.76,0,0,1,3.584.14v-3.528a20.056,20.056,0,0,1-3.64.2Zm19.264-3.136a14.213,14.213,0,0,1,.14-2.6H82.56a14.789,14.789,0,0,1,.112,2.576L82.7-5.1a21.1,21.1,0,0,0,.084,2.576A3.871,3.871,0,0,0,84.156.328c1.092.84,3.024,1.2,6.552,1.2,1.708,0,5.236-.168,6.888-.336,2.968-.28,3.108-.308,3.7-.308l-.168-3.724a16.543,16.543,0,0,1-3.192.672,52.8,52.8,0,0,1-6.5.448c-2.716,0-4.312-.224-4.788-.728-.392-.392-.5-1.036-.5-2.66a1.859,1.859,0,0,1,.028-.364v-3.7a47.408,47.408,0,0,0,11.956-3.864c1.484-.728,2.324-1.12,2.52-1.2L98.408-17.4c-1.82,1.708-8.008,4.2-12.236,4.984Zm11.312-3.024a17.908,17.908,0,0,1,2.772,4.284l2.016-.924a17.8,17.8,0,0,0-2.8-4.256Zm8.176,1.652a16.473,16.473,0,0,0-2.744-4.06l-1.932.9a20.838,20.838,0,0,1,2.688,4.172Zm15.4,9.464h-4.62c-1.26,0-2.156-.056-3.052-.14v3.108a25.37,25.37,0,0,1,3.052-.168h3.332a17.761,17.761,0,0,1-2.688,2.968,21.884,21.884,0,0,1-4.816,3.36,9.412,9.412,0,0,1,1.9,2.772,19.977,19.977,0,0,0,3.36-2.492,16.128,16.128,0,0,0,3.584-4.34c-.028,1.736-.056,2.744-.056,2.968V.692a20.005,20.005,0,0,1-.168,2.6h3.3A19.577,19.577,0,0,1,124.028.72v-2.6c0-.756-.028-2.072-.084-3A16.3,16.3,0,0,0,127.3-.9a28.567,28.567,0,0,0,3.556,2.66,15.984,15.984,0,0,1,1.876-3,19.309,19.309,0,0,1-4.48-2.856,18.524,18.524,0,0,1-3-3.08h3.752a28.751,28.751,0,0,1,2.968.168v-3.136a26.4,26.4,0,0,1-3.052.168h-4.9v-2.3h3.556c.364,0,.812,0,1.344.028a5.971,5.971,0,0,0,.616.028,6.136,6.136,0,0,1,.812.028,22.736,22.736,0,0,1-.112-2.632V-18.8a24.029,24.029,0,0,1,.112-2.716,22.936,22.936,0,0,1-3.08.14h-8.932a21.9,21.9,0,0,1-3.108-.14,22.724,22.724,0,0,1,.112,2.548v4.088a25,25,0,0,1-.112,2.716,26.156,26.156,0,0,1,2.856-.112h2.968Zm-2.772-8.652h8.96v3.612h-8.96ZM109.16-.008a29.394,29.394,0,0,1-.168,3.276h3.22a30.511,30.511,0,0,1-.14-3.248V-15.352a29.408,29.408,0,0,0,2.156-5.208,7.711,7.711,0,0,1,.42-1.26l-3.136-1.008a19.567,19.567,0,0,1-1.064,3.808,20,20,0,0,1-4.732,7.42,15.516,15.516,0,0,1,1.344,3.388,14.294,14.294,0,0,0,2.156-2.828c-.056,1.512-.056,2.156-.056,3.08Zm35.672-20.5h-7.56a19.968,19.968,0,0,1-3.248-.168v2.94a24.108,24.108,0,0,1,3.024-.14h4.424a13.354,13.354,0,0,1-1.652,2.436h-2.632a19.722,19.722,0,0,1-2.212-.084l.336,2.8a6.663,6.663,0,0,1,1.008-.084,7.4,7.4,0,0,0,.9-.028c.5,0,.924-.028,1.2-.028,6.132-.112,11.06-.364,15.9-.784a33.262,33.262,0,0,1,2.576,2.268l2.184-2.072a64.186,64.186,0,0,0-6.384-4.424h3.7a24.461,24.461,0,0,1,3,.14v-2.94a19.614,19.614,0,0,1-3.192.168h-8.26v-.364a9.417,9.417,0,0,1,.14-1.82h-3.416a7.968,7.968,0,0,1,.168,1.848Zm6.076,2.632-1.512.812c.98.616,1.26.784,1.96,1.26-2.352.14-6.02.28-8.288.336.616-.784,1.344-1.82,1.708-2.408ZM140.464-1.38h12.46V-.26c0,.56-.224.728-1.036.728a34.379,34.379,0,0,1-3.444-.2A13.472,13.472,0,0,1,149.2,2.9c1.652.056,2.408.084,3.024.084A4.466,4.466,0,0,0,155,2.456a2.63,2.63,0,0,0,.868-2.38v-8.9a28.04,28.04,0,0,1,.112-3c-.14.028-.252.028-.336.056a3.043,3.043,0,0,0-.364.028c-.168,0-.168,0-2.324.028h-12.46c-1.512,0-2.492-.028-3.164-.084a18.13,18.13,0,0,1,.14,2.8V-.288A29.309,29.309,0,0,1,137.3,3.24h3.3c-.084-.868-.14-1.876-.14-3.164Zm0-3.864h12.46v1.4h-12.46Zm12.46-2.464h-12.46V-9.164h12.46Zm19.292-6.608h-6.5a34.737,34.737,0,0,1-4.088-.2v3.472a37.75,37.75,0,0,1,4.088-.2h6.5V-1.184h-5.628a26.949,26.949,0,0,1-3.5-.168V2.036a29.633,29.633,0,0,1,3.528-.168h14.952a24.242,24.242,0,0,1,3.5.168V-1.352a23.532,23.532,0,0,1-3.528.168H175.6V-11.236h7.224a31.829,31.829,0,0,1,3.78.2v-3.472a34.814,34.814,0,0,1-3.892.2H175.6V-19.16a26.984,26.984,0,0,1,.168-3.22h-3.724a26.491,26.491,0,0,1,.168,3.192Zm17.612-.56a35.141,35.141,0,0,1,4.648-.56c5.432-.392,7.168-.56,9.436-.9A12.382,12.382,0,0,0,200.02-13.5a9.75,9.75,0,0,0-2.66,6.58,7.492,7.492,0,0,0,4,6.748,16.845,16.845,0,0,0,6.552,1.848c.532.084.588.084.952.168l.5-3.808c-.28.028-.532.028-.56.028a16.992,16.992,0,0,1-4.172-.728,4.7,4.7,0,0,1-3.724-4.564c0-2.828,2.1-5.628,5.656-7.476a12.522,12.522,0,0,1,5.544-1.512,4.335,4.335,0,0,1,.588.028l-.2-3.556a15.086,15.086,0,0,1-2.884.224c-7.476.364-12.264.616-14.308.728-4.116.28-4.116.28-4.62.28-.14,0-.448,0-1.064-.028Zm17.136,2.688a18.9,18.9,0,0,1,2.94,4.172l1.96-1.036a18.146,18.146,0,0,0-2.94-4.116Zm8.232,1.316a16.193,16.193,0,0,0-2.912-3.948l-1.876.98a20.629,20.629,0,0,1,2.856,4.06ZM9.184,32.956h1.9a16.313,16.313,0,0,1,2.548.14V30.212a13.809,13.809,0,0,1-2.3.14H9.184V28.7h1.624a23.138,23.138,0,0,1,2.464.084c-.056-.672-.084-1.344-.084-3.024V20.776c0-1.484.028-2.128.084-2.716a20.992,20.992,0,0,1-2.352.084H9.156V16.492h2.1a19.959,19.959,0,0,1,2.576.112V13.776a16.929,16.929,0,0,1-2.716.14H9.156v-.28a11.6,11.6,0,0,1,.2-2.268H6.272a14.9,14.9,0,0,1,.168,2.268v.28H4.256a16.716,16.716,0,0,1-2.716-.14V16.6a22,22,0,0,1,2.576-.112H6.44v1.652H5.068a22.6,22.6,0,0,1-2.8-.112,27.881,27.881,0,0,1,.112,2.94v4.676c0,1.316-.028,2.24-.112,3.136.924-.056,1.6-.084,2.856-.084H6.44v1.652H3.892a15.633,15.633,0,0,1-2.576-.14v2.912a15.1,15.1,0,0,1,2.716-.168H6.44v1.708a15.6,15.6,0,0,1-.2,2.6H9.352A17.911,17.911,0,0,1,9.184,34.8ZM9.1,26.264v-1.82h1.708v1.82Zm0-4V20.58h1.708v1.68ZM6.524,20.58v1.68H4.788V20.58Zm0,3.864v1.82H4.788v-1.82Zm10.892-1.008a63.028,63.028,0,0,1-2.94,9.828c-.9.084-1.26.084-1.988.112l.644,3.164c.448-.084.616-.112,1.624-.28q5.208-.882,5.964-1.008c1.176-.252,1.876-.42,3.024-.7.392,1.26.392,1.26.728,2.548l2.744-1.344a65.284,65.284,0,0,0-3.892-10.08l-2.576,1.008c.9,1.96,1.428,3.248,2.212,5.432-1.736.336-3.108.56-5.376.84a75.016,75.016,0,0,0,2.94-9.52h3.668a18.9,18.9,0,0,1,2.744.14V20.468a14.713,14.713,0,0,1-2.744.168H16.744A14.891,14.891,0,0,1,14,20.468v3.108a18.13,18.13,0,0,1,2.66-.14Zm-2.464-7.112a17.362,17.362,0,0,1,2.716-.14H23.3c.84,0,1.6.028,2.016.056.42.056.42.056.448.056a.788.788,0,0,0,.224-.028V13.244a13.386,13.386,0,0,1-2.688.168H17.668a13.533,13.533,0,0,1-2.716-.168Zm31.332-2.408A17.147,17.147,0,0,1,44.3,14H43.288v-.168a12.114,12.114,0,0,1,.14-2.268h-3a11.491,11.491,0,0,1,.168,2.268V14H39.256a10.624,10.624,0,0,1-1.736-.112V12.18a13.418,13.418,0,0,1-2.436.14h-4.4a15.6,15.6,0,0,1-2.352-.14v2.968a11.035,11.035,0,0,1,1.232-.112v15.6a8.088,8.088,0,0,1-1.54.224l.644,3.024a10.8,10.8,0,0,1,1.876-.56c.98-.28,2.3-.7,3.528-1.092v2.1a27.5,27.5,0,0,1-.14,3h2.828a20.184,20.184,0,0,1-.14-2.968v-12.4H47.012a39.157,39.157,0,0,0,1.12,8.344A24.417,24.417,0,0,1,45.92,32.76v-7.2c0-1.428,0-1.848.056-2.492a17.306,17.306,0,0,1-1.82.084H39.7a12.438,12.438,0,0,1-1.764-.084c.056.924.084,1.26.084,2.492v7.588c0,.924-.056,1.624-.112,2.436h2.52v-1.82h4.284a21.6,21.6,0,0,1-1.9,1.344,8.28,8.28,0,0,1,1.764,2.156,23.887,23.887,0,0,0,4.508-4.144c.98,2.268,2.3,3.612,3.472,3.612a1.935,1.935,0,0,0,1.736-1.288A14.029,14.029,0,0,0,55.1,31.36a10.049,10.049,0,0,1-2.212-1.512c-.084,2.212-.28,3.528-.476,3.528-.056,0-.168-.14-.42-.588a12.35,12.35,0,0,1-.952-2.3,32.566,32.566,0,0,0,2.38-4.62c.224-.5.448-1.008.616-1.344L51.772,23.1A18.472,18.472,0,0,1,50.2,27.076c-.224-1.456-.392-2.94-.532-5.124h1.54a23.1,23.1,0,0,1,3.136.14v-2.94a17.506,17.506,0,0,1-3.136.168H49.588c-.028-.84-.056-3.164-.056-4.144a21.531,21.531,0,0,1,.14-3.556H46.76a17.372,17.372,0,0,1,.084,2.016c.028,3.724.028,3.724.084,5.684h-2.24a22.636,22.636,0,0,0,.7-3,7.623,7.623,0,0,1,.9.056Zm-3.22,2.38a19.808,19.808,0,0,1-.616,3.024H41.272c-.14-1.2-.308-2.212-.476-3.024Zm-6.44,3.024V15.036c.336.028.448.028.84.056V16.38c.42-.056.532-.056.952-.084.28,1.148.476,2.184.616,3.024Zm-4.48-4.284h1.932v3.276H32.144Zm0,5.768h1.932v3H32.144Zm0,5.488h1.932v3.22c-.756.224-1.008.308-1.932.532Zm8.288-.812h3.136v1.792H40.432ZM40.4,29.456h3.164v1.988H40.4ZM50.064,13.8a14.71,14.71,0,0,1,2.072,4.424l2.212-1.288a22.459,22.459,0,0,0-2.24-4.228Zm20.524,5.684h-4.34a23.038,23.038,0,0,1-3.08-.168v3.192a24.87,24.87,0,0,1,3.08-.168h4.34v3.612H66.724a15.767,15.767,0,0,1-2.212-.112,21.4,21.4,0,0,1,.112,2.408v6.1c0,1.092-.056,2.156-.112,2.912h3.08v-1.4h9.38v1.4h3.164A27.55,27.55,0,0,1,80,34.384v-6.02a20.97,20.97,0,0,1,.112-2.52,14.781,14.781,0,0,1-2.212.112H73.64V22.344h4.9a22.919,22.919,0,0,1,3.108.168V19.32a23.091,23.091,0,0,1-3.136.168H73.64v-3.7c1.988-.308,4.48-.812,5.852-1.176.9-.224.9-.224,1.372-.364l-2.044-2.8c-2.6,1.288-8.988,2.352-15.064,2.464a8.541,8.541,0,0,1,1.064,2.772c2.408-.14,2.968-.2,5.768-.5Zm-3,9.212h9.38v4.312h-9.38ZM56.7,13.776a32.033,32.033,0,0,1,5.04,3.92l1.82-2.408A35.6,35.6,0,0,0,58.6,11.62Zm-.9,7.2a29.313,29.313,0,0,1,5.236,3.556l1.68-2.548A33.045,33.045,0,0,0,57.512,18.7Zm4.536,5.46a30.435,30.435,0,0,1-3.416,7.028,6.242,6.242,0,0,1-1.008,1.232l2.716,2.156A55.959,55.959,0,0,0,62.776,28.2Zm29.316-10.3H86.24a16.874,16.874,0,0,1-2.6-.14v2.576a16.875,16.875,0,0,1,2.6-.14h3.416v1.2H87.248c-1.232,0-1.96-.028-2.744-.084.056.7.084,1.232.084,2.548V25.7c0,1.372-.028,1.96-.084,2.66.784-.056,1.456-.084,2.716-.084h2.436v1.232H86.8a16.612,16.612,0,0,1-2.632-.14V32a25.156,25.156,0,0,1,2.6-.112h2.884v1.54c-2.968.168-3.5.2-4.76.2a12.417,12.417,0,0,1-1.456-.056l.5,3c.672-.112,1.092-.168,1.624-.224,5.124-.392,7.168-.616,11-1.176a8.305,8.305,0,0,1,2.212,2.212,18.2,18.2,0,0,0,2.24-3.668,8.258,8.258,0,0,1,.644,3.024c.42.028,1.792.084,2.24.084,2.1,0,3-.42,3.5-1.652.7-1.624,1.064-5.572,1.2-12.8.084-4.032.084-4.256.2-5.264a22.126,22.126,0,0,1-2.632.112H103.74c.084-4.844.084-4.844.224-5.6h-3.22a17.857,17.857,0,0,1,.168,3.556c0,.868,0,1.344-.028,2.044h-.42a12.233,12.233,0,0,1-1.988-.112v3.024a17.04,17.04,0,0,1,2.324-.112,41.6,41.6,0,0,1-.728,7.392,19.279,19.279,0,0,1-2.66,6.44v-1.2c-2.632.364-3.584.476-5.04.616V31.892h3.136a8.145,8.145,0,0,1,1.96.14V29.4a19.042,19.042,0,0,1-2.632.112H92.372V28.28h2.6c1.316,0,1.876,0,2.52.056-.028-.364-.056-1.2-.084-2.548v-3.78a22.416,22.416,0,0,1,.084-2.464,22.06,22.06,0,0,1-2.352.084H92.372v-1.2h3.5a9.625,9.625,0,0,1,2.016.112V15.988a14.794,14.794,0,0,1-2.6.14H92.372V14.56c1.4-.2,2.8-.42,3.836-.616.364-.084,1.288-.224,1.54-.252l-1.68-2.3c-1.9.9-6.72,1.484-12.208,1.512a9.249,9.249,0,0,1,.98,2.24c2.1-.112,2.884-.168,4.816-.336Zm0,5.6V22.9H87.22V21.728Zm2.716,0h2.436V22.9H92.372Zm-2.716,3.22V26.18H87.22V24.948Zm2.716,0h2.436V26.18H92.372Zm13.44-4.928c-.028.924-.028,1.092-.056,1.96-.028,2.268-.028,2.268-.056,3.248a55.679,55.679,0,0,1-.392,5.8c-.336,2.6-.532,2.94-1.792,2.94a14.7,14.7,0,0,1-2.464-.28c1.708-3.752,2.352-7,2.632-13.664Zm7.028-1.96a3.093,3.093,0,0,1,.448-.028c.252,0,.252,0,.784.028.616,0,3.08.056,3.528.056,0,0,.364-.028.476-.028a1.37,1.37,0,0,0-.224.364,37.086,37.086,0,0,1-3.36,4.788,17.153,17.153,0,0,1-2.52,2.492l2.548,2.52a12.589,12.589,0,0,1,2.436-2.548c2.156-1.9,4.116-2.884,5.74-2.884a1.537,1.537,0,0,1,1.708,1.512c-3.164,1.316-4.76,2.38-6.02,3.948a4.462,4.462,0,0,0-1.232,3.108A4.06,4.06,0,0,0,119.2,35c1.428.84,3.276,1.176,6.244,1.176a50.785,50.785,0,0,0,7.168-.5,8.25,8.25,0,0,1,1.288-.112l-.28-3.612a24.327,24.327,0,0,1-8.232,1.176c-3.388,0-4.732-.588-4.732-2.044a2.948,2.948,0,0,1,1.456-2.3,17.017,17.017,0,0,1,2.688-1.456V28a22.167,22.167,0,0,1-.168,3.248l3.248-.084a11.5,11.5,0,0,1-.084-1.484c0-.2,0-.448.028-.924v-1.12c0-.392,0-.392-.028-1.12v-.308q3.612-1.26,4.2-1.428a24.716,24.716,0,0,1,3.108-.756l-1.316-3.22a8.748,8.748,0,0,1-2.072.84q-1.05.336-4.284,1.512a3.684,3.684,0,0,0-4-2.968,6.769,6.769,0,0,0-3.948,1.26c-.364.28-.364.28-.56.42l-.028-.056a14.489,14.489,0,0,0,2.576-3.724c2.828-.084,6.384-.308,8.428-.56,1.428-.168,1.428-.168,2.212-.224l-.2-3.192a37.826,37.826,0,0,1-7.336.952c-1.54.084-1.54.084-1.764.112.056-.112.112-.2.252-.5a21.392,21.392,0,0,1,1.12-2.52l-3.668-.392a11.089,11.089,0,0,1-1.12,3.472,33.836,33.836,0,0,1-6.5-.364ZM155.26,20.1v-1.82c2.212-.056,2.716-.056,3.388-.056,2.324,0,3.668.056,4.7.14l-.028-3.22c-1.036.112-3.22.168-8.092.2a22.014,22.014,0,0,1,.14-3.332l-3.528.028a15.192,15.192,0,0,1,.168,3.388c-1.456.056-1.456.056-2.38.084-2.3.056-2.576.056-4.4.112-3.612.14-4.06.14-4.76.14a12.193,12.193,0,0,1-1.372-.056l.112,3.332c.756-.112.756-.112,4.984-.42,1.232-.084,3.864-.168,7.868-.28,0,.756,0,2.324.028,2.38a1.154,1.154,0,0,0,.028.336,4.679,4.679,0,0,0-2.912-.84c-3.248,0-5.572,2.128-5.572,5.1a4.375,4.375,0,0,0,1.932,3.78A5.16,5.16,0,0,0,148.82,30.1a4.613,4.613,0,0,0,4.116-1.988,5.894,5.894,0,0,1-3.248,4.088,13.214,13.214,0,0,1-4.76,1.624,9.189,9.189,0,0,1,1.988,3.164,19.574,19.574,0,0,0,5.068-2.3,8.984,8.984,0,0,0,4.172-7.56,8.521,8.521,0,0,0-.9-3.948c0-.336-.028-.56-.028-.672Zm-3.22,4.62a2.551,2.551,0,0,1-2.744,2.52,2.21,2.21,0,0,1-2.38-2.212,2.453,2.453,0,0,1,2.6-2.24C151.06,22.792,152.04,23.548,152.04,24.724Zm23.632-1.344a10.991,10.991,0,0,0,1.148-.728c.56-.364,2.576-1.876,3.08-2.3.952-.812,3-2.632,4.4-3.92a6,6,0,0,1,1.456-1.148l-1.736-2.464a4.126,4.126,0,0,1-1.736.364c-2.716.2-6.132.336-8.512.336a25.323,25.323,0,0,1-3.3-.168l.14,3.36a9.445,9.445,0,0,1,1.344-.14c5.068-.224,6.86-.336,7.924-.476l.028.028-.5.5a93.491,93.491,0,0,1-8.372,7.28,25.182,25.182,0,0,1-3.948,2.632l1.9,3.024a17.252,17.252,0,0,1,11.536-4.7c3.388,0,5.544,1.428,5.544,3.612,0,1.988-1.008,3.192-3.332,4.06a7.53,7.53,0,0,0-1.288-2.52,6.026,6.026,0,0,0-4.844-2.3c-2.8,0-4.816,1.68-4.816,4a4,4,0,0,0,1.68,3.22,9.473,9.473,0,0,0,5.432,1.288,13.853,13.853,0,0,0,6.776-1.6,6.843,6.843,0,0,0,3.808-6.188c0-3.836-3.08-6.3-7.868-6.3a13.668,13.668,0,0,0-5.88,1.288Zm4.032,9.968a7.579,7.579,0,0,1-1.456.112c-2.072,0-3.332-.644-3.332-1.764,0-.784.644-1.288,1.652-1.288C178.136,30.408,179.2,31.416,179.7,33.348Z" transform="translate(663.916 4945.688)" fill="#060000"/>
    <path id="パス_23972" data-name="パス 23972" d="M37.015-44.055c-.715,3.96-4.235,11.935-7.755,17.71-.44-.275-.44-.275-4.565-3.245-2.695-1.925-5.06-3.465-9.075-5.83l-4.84,4.84a98.6,98.6,0,0,1,14.575,9.9A56.018,56.018,0,0,1,18.37-13.2,55.969,55.969,0,0,1,4.125-3.685a17.045,17.045,0,0,1,4.84,5.72A69.834,69.834,0,0,0,22.055-7.04a63.072,63.072,0,0,0,8.58-9.185A81.809,81.809,0,0,1,41.8-4.62l5.28-5.665a131.881,131.881,0,0,0-12.265-11.66c2.145-3.19,4.29-7.37,7.755-15.565A33.589,33.589,0,0,1,44.5-41.47Zm23,.66a34.725,34.725,0,0,1,.22,4.95V-23.32a39.665,39.665,0,0,1-.275,4.95H67.5a26.549,26.549,0,0,1-.22-4.84V-38.39a27.956,27.956,0,0,1,.22-4.95Zm24.805.11A28.962,28.962,0,0,1,85.1-38.06v6.875c0,4.4-.055,6.82-.275,9.185-.6,7.26-2.42,10.615-7.59,14.025-3.3,2.2-6.49,3.355-11.88,4.4a18.789,18.789,0,0,1,3.85,6.545A46.522,46.522,0,0,0,79.93-1.265c5.72-3.19,9.24-7.315,10.835-12.815.99-3.465,1.375-8.085,1.43-16.665V-38.17a26.088,26.088,0,0,1,.275-5.115ZM103.4-29.92a55.025,55.025,0,0,1,5,13.31l6.215-1.98a63.442,63.442,0,0,0-5.39-13.035Zm11.77-2.31a60.48,60.48,0,0,1,5.005,12.925l6.1-1.925a54.031,54.031,0,0,0-5.335-12.65Zm18.92-.55a24.4,24.4,0,0,1-.99,6.325c-2.365,8.8-6.05,14.41-12.485,19.085a35.676,35.676,0,0,1-9.35,5.06,19.977,19.977,0,0,1,4.4,5.445C123.8-.99,128.37-4.565,132.44-10.12c3.52-4.785,5.995-10.835,7.59-18.315a11.576,11.576,0,0,1,.77-2.805ZM162.51,2.475a60.466,60.466,0,0,1-.22-6.105V-18.15a28.434,28.434,0,0,0-.22-3.74,17.77,17.77,0,0,0,1.87.935c9.185,4.235,14.9,7.37,19.47,10.505l3.85-6.49a161.586,161.586,0,0,0-24.97-11.6v-10.23a36.869,36.869,0,0,1,.22-5.775h-7.535a35.352,35.352,0,0,1,.33,5.61V-3.685a37.05,37.05,0,0,1-.33,6.16Z" transform="translate(761.916 5039.688)" fill="#19cecd"/>
    <path id="パス_23969" data-name="パス 23969" d="M5.568-27.26a21.158,21.158,0,0,1,4.64-1.624C19.546-31.668,27.028-33,33.06-33a15.115,15.115,0,0,1,7.482,1.566A8.494,8.494,0,0,1,44.95-23.9a12.789,12.789,0,0,1-.638,4.118c-1.16,3.422-4.582,6.728-8.758,8.584-4.93,2.146-9.8,3.016-19.082,3.422A25.139,25.139,0,0,1,19.43-.29C30.044-1.45,34.568-2.494,39.846-5.1c8.236-4,12.876-10.672,12.876-18.56,0-9.86-7.482-16.3-18.966-16.3-6.728,0-9.86.464-23.084,3.306A41.461,41.461,0,0,1,3.886-35.5ZM85.01-28.845a9.835,9.835,0,0,1,4.545,1.35A11.148,11.148,0,0,1,95.09-17.5a12.6,12.6,0,0,1-6.255,11.25C86.72-5.04,84.02-4.32,79.88-3.78a14.355,14.355,0,0,1,2.745,5.265A29.42,29.42,0,0,0,89.69-.4c6.885-2.79,10.935-9,10.935-16.785,0-10.125-7.02-16.7-17.82-16.7-6.39,0-11.7,2.16-15.48,6.3a19.33,19.33,0,0,0-4.95,13.095c0,7.245,3.69,12.465,8.82,12.465,3.69,0,6.57-2.655,9.135-8.46A65.1,65.1,0,0,0,85.01-28.845Zm-5.49.045a59.307,59.307,0,0,1-3.735,15.21c-1.62,3.87-3.15,5.76-4.635,5.76-1.98,0-3.555-2.925-3.555-6.615a15.066,15.066,0,0,1,6.12-12.15A11.455,11.455,0,0,1,79.52-28.8Z" transform="translate(657.916 5040.688)" fill="#19cecd"/>
    <path id="パス_23970" data-name="パス 23970" d="M6.617-33.43l23.375-2.836q1.117,8.938,6.016,13.664a16.454,16.454,0,0,0,11.859,4.727,16.289,16.289,0,0,0,12.59-5.672q5.113-5.672,5.113-15.3,0-9.109-4.9-14.437a15.616,15.616,0,0,0-11.945-5.328,42.128,42.128,0,0,0-11.086,1.8L40.3-76.484q9.8.258,14.953-4.254a15.142,15.142,0,0,0,5.156-11.988q0-6.359-3.781-10.141a13.59,13.59,0,0,0-10.055-3.781,14.551,14.551,0,0,0-10.57,4.3q-4.383,4.3-5.328,12.547L8.422-93.586q2.32-11.43,7-18.262A31.612,31.612,0,0,1,28.488-122.59a43.874,43.874,0,0,1,18.777-3.91q17.789,0,28.531,11.344,8.852,9.281,8.852,20.969,0,16.586-18.133,26.469a29.336,29.336,0,0,1,17.316,10.4A30.173,30.173,0,0,1,90.32-37.812,37.839,37.839,0,0,1,78.2-9.539Q66.086,2.148,48.039,2.148q-17.1,0-28.359-9.84T6.617-33.43Z" transform="translate(558.916 5042.688)" fill="#19cecd"/>
  </g>
</svg>
