<svg xmlns="http://www.w3.org/2000/svg" xmlns:xlink="http://www.w3.org/1999/xlink" width="282" height="105.518" viewBox="0 0 282 105.518">
  <defs>
    <filter id="長方形_130" x="0" y="3.518" width="282" height="102" filterUnits="userSpaceOnUse">
      <feOffset dx="2" dy="2" input="SourceAlpha"/>
      <feGaussianBlur stdDeviation="8" result="blur"/>
      <feFlood flood-color="#ddc0a8" flood-opacity="0.678"/>
      <feComposite operator="in" in2="blur"/>
      <feComposite in="SourceGraphic"/>
    </filter>
    <clipPath id="clip-path">
      <rect id="長方形_562" data-name="長方形 562" width="34.602" height="34.38" fill="none"/>
    </clipPath>
  </defs>
  <g id="mv-guide02" transform="translate(-27 -18)">
    <g id="グループ_1905" data-name="グループ 1905" transform="translate(0 43.518)">
      <g transform="matrix(1, 0, 0, 1, 27, -25.52)" filter="url(#長方形_130)">
        <rect id="長方形_130-2" data-name="長方形 130" width="234" height="54" rx="10" transform="translate(22 25.52)" fill="#fff"/>
      </g>
      <g id="グループ_1868" data-name="グループ 1868" transform="translate(41.798 4)">
        <g id="グループ_1895" data-name="グループ 1895" transform="translate(0 12)">
          <rect id="長方形_155" data-name="長方形 155" width="168" height="15" transform="translate(65.202 10.071)" fill="#a2efef"/>
          <text id="すぐ転職したい方" transform="translate(149.202 18)" fill="#060000" font-size="21" font-family="HiraKakuProN-W6, Hiragino Kaku Gothic ProN" letter-spacing="-0.02em"><tspan x="-82.53" y="0">すぐ転職したい方</tspan></text>
        </g>
        <g id="グループ_1878" data-name="グループ 1878" transform="translate(19)">
          <circle id="楕円形_54" data-name="楕円形 54" cx="21.5" cy="21.5" r="21.5" transform="translate(-3.798)" fill="none"/>
          <g id="グループ_2754" data-name="グループ 2754" transform="translate(0.4 5.481)">
            <g id="グループ_2753" data-name="グループ 2753" clip-path="url(#clip-path)">
              <path id="パス_22717" data-name="パス 22717" d="M16.126.425A12.855,12.855,0,1,0,21.58,22.3l2.352,2.352.941-.94L22.51,21.348A12.854,12.854,0,0,0,16.126.425" transform="translate(0 0)" fill="#acacae"/>
              <path id="パス_22718" data-name="パス 22718" d="M33.742,26.945a9.533,9.533,0,1,1-6.8-11.644,9.533,9.533,0,0,1,6.8,11.644" transform="translate(-11.663 -11.663)" fill="#8fbddb"/>
              <path id="パス_22719" data-name="パス 22719" d="M115.717,114.717h0a2.328,2.328,0,0,1-3.292,0l-6.646-6.646a2.328,2.328,0,0,1,3.292-3.292l6.646,6.646a2.328,2.328,0,0,1,0,3.292" transform="translate(-81.797 -81.018)" fill="#5083a5"/>
              <path id="パス_22720" data-name="パス 22720" d="M58.07,28.187a.776.776,0,0,1-.728-.507,6.571,6.571,0,0,0-6.524-4.375.776.776,0,0,1-.122-1.547,8.234,8.234,0,0,1,8.1,5.383.777.777,0,0,1-.728,1.046" transform="translate(-38.902 -16.928)" fill="#fff"/>
            </g>
          </g>
        </g>
      </g>
    </g>
    <g id="グループ_1892" data-name="グループ 1892" transform="translate(98 18)">
      <text id="こんな方におすすめ" transform="translate(-7 14.456)" fill="#060000" font-size="15" font-family="HiraKakuProN-W6, Hiragino Kaku Gothic ProN" letter-spacing="-0.02em"><tspan x="0" y="0">こんな方におすすめ</tspan></text>
      <g id="グループ_1890" data-name="グループ 1890" transform="translate(130.954)">
        <g id="グループ_1891" data-name="グループ 1891">
          <circle id="楕円形_48" data-name="楕円形 48" cx="9.259" cy="9.259" r="9.259" fill="#f49902"/>
          <path id="パス_2105" data-name="パス 2105" d="M158.938,24.694a1.111,1.111,0,0,1-.786-.325l-3.685-3.685a1.111,1.111,0,0,1,1.571-1.571l2.781,2.781,4.886-6.48a1.111,1.111,0,1,1,1.774,1.338l-5.655,7.5a1.111,1.111,0,0,1-.81.439Z" transform="translate(-150.377 -9.692)" fill="#fff"/>
        </g>
      </g>
    </g>
  </g>
</svg>
