<svg xmlns="http://www.w3.org/2000/svg" width="264.865" height="44" viewBox="0 0 264.865 44">
  <g id="mv-merit03-sp" transform="translate(0 0.58)">
    <g id="グループ_1905" data-name="グループ 1905" transform="translate(0)">
      <rect id="長方形_130" data-name="長方形 130" width="264.865" height="44" rx="10" transform="translate(0 -0.58)" fill="#fff"/>
      <g id="グループ_1868" data-name="グループ 1868" transform="translate(36.282 4)">
        <g id="グループ_1895" data-name="グループ 1895" transform="translate(-1.149 9.048)">
          <rect id="長方形_155" data-name="長方形 155" width="208.865" height="11.309" transform="translate(12.867 7.593)" fill="#a2efef"/>
          <text id="ご入職後のアフターフォロー" transform="translate(107.867 13)" fill="#060000" font-size="15" font-family="HiraKakuProN-W6, Hiragino Kaku Gothic ProN" letter-spacing="-0.02em"><tspan x="-95.1" y="0">ご入職後のアフターフォロー</tspan></text>
        </g>
        <g id="グループ_2814" data-name="グループ 2814" transform="translate(-28.043 -0.155)">
          <circle id="楕円形_54" data-name="楕円形 54" cx="16.5" cy="16.5" r="16.5" transform="translate(-0.24 -0.424)" fill="#e2c4f0"/>
          <g id="グループ_2728" data-name="グループ 2728" transform="translate(8.496 5.144)">
            <path id="パス_22585" data-name="パス 22585" d="M153.126,27.03V37.306h2.055v2.056H163.4V37.306h2.056V27.03Z" transform="translate(-151.071 -18.809)" fill="#fdd0ad"/>
            <rect id="長方形_484" data-name="長方形 484" width="2.055" height="2.055" transform="translate(2.041 6.166)" fill="#754800"/>
            <rect id="長方形_485" data-name="長方形 485" width="2.055" height="2.055" transform="translate(4.111 4.11)" fill="#754800"/>
            <rect id="長方形_486" data-name="長方形 486" width="2.055" height="2.055" transform="translate(6.166 4.11)" fill="#996501"/>
            <rect id="長方形_487" data-name="長方形 487" width="2.055" height="2.055" transform="translate(8.221 4.11)" fill="#996501"/>
            <rect id="長方形_488" data-name="長方形 488" width="2.055" height="2.055" transform="translate(6.166 2.055)" fill="#f8c100"/>
            <rect id="長方形_489" data-name="長方形 489" width="2.055" height="2.055" transform="translate(8.221 2.055)" fill="#f8c100"/>
            <rect id="長方形_490" data-name="長方形 490" width="2.056" height="2.055" transform="translate(6.166 0)" fill="#996501"/>
            <rect id="長方形_491" data-name="長方形 491" width="2.055" height="2.055" transform="translate(8.221 0)" fill="#996501"/>
            <rect id="長方形_492" data-name="長方形 492" width="2.055" height="2.055" transform="translate(10.277 4.11)" fill="#996501"/>
            <rect id="長方形_493" data-name="長方形 493" width="2.055" height="2.055" transform="translate(10.277 6.166)" fill="#996501"/>
            <rect id="長方形_494" data-name="長方形 494" width="2.055" height="2.055" transform="translate(10.277 8.221)" fill="#996501"/>
            <rect id="長方形_495" data-name="長方形 495" width="2.055" height="2.055" transform="translate(2.055 8.221)" fill="#996501"/>
            <rect id="長方形_496" data-name="長方形 496" width="2.055" height="2.055" transform="translate(2.055 10.277)" fill="#996501"/>
            <rect id="長方形_497" data-name="長方形 497" width="2.055" height="2.055" transform="translate(4.111 6.166)" fill="#996501"/>
            <rect id="長方形_498" data-name="長方形 498" width="2.055" height="2.055" transform="translate(8.221 6.166)" fill="#996501"/>
            <rect id="長方形_499" data-name="長方形 499" width="2.055" height="2.055" transform="translate(4.111 11.904)" fill="#996501"/>
            <rect id="長方形_500" data-name="長方形 500" width="2.055" height="2.055" transform="translate(9.934 11.904)" fill="#996501"/>
            <rect id="長方形_501" data-name="長方形 501" width="2.055" height="2.055" transform="translate(8.221 8.221)" fill="#754800"/>
            <rect id="長方形_502" data-name="長方形 502" width="2.055" height="2.055" transform="translate(12.332 6.166)" fill="#996501"/>
            <rect id="長方形_503" data-name="長方形 503" width="2.055" height="2.055" transform="translate(12.332 8.221)" fill="#996501"/>
            <rect id="長方形_504" data-name="長方形 504" width="2.055" height="2.055" transform="translate(12.332 10.277)" fill="#996501"/>
            <rect id="長方形_505" data-name="長方形 505" width="2.055" height="2.055" transform="translate(14.387 8.221)" fill="#996501"/>
            <rect id="長方形_506" data-name="長方形 506" width="2.055" height="2.055" transform="translate(14.387 10.276)" fill="#996501"/>
            <rect id="長方形_507" data-name="長方形 507" width="2.055" height="2.056" transform="translate(14.387 12.332)" fill="#996501"/>
            <rect id="長方形_508" data-name="長方形 508" width="2.055" height="2.055" transform="translate(14.387 14.387)" fill="#996501"/>
            <rect id="長方形_509" data-name="長方形 509" width="2.055" height="2.055" transform="translate(14.387 16.443)" fill="#996501"/>
            <rect id="長方形_510" data-name="長方形 510" width="2.055" height="2.055" transform="translate(14.387 18.498)" fill="#996501"/>
            <rect id="長方形_511" data-name="長方形 511" width="2.055" height="2.055" transform="translate(6.166 6.166)" fill="#754800"/>
            <rect id="長方形_512" data-name="長方形 512" width="2.055" height="2.055" transform="translate(0 8.221)" fill="#754800"/>
            <rect id="長方形_513" data-name="長方形 513" width="2.055" height="2.055" transform="translate(0 10.277)" fill="#754800"/>
            <rect id="長方形_514" data-name="長方形 514" width="2.055" height="2.055" transform="translate(0 12.332)" fill="#754800"/>
            <rect id="長方形_515" data-name="長方形 515" width="2.055" height="2.055" transform="translate(0 14.387)" fill="#754800"/>
            <rect id="長方形_516" data-name="長方形 516" width="2.055" height="2.055" transform="translate(0 16.443)" fill="#754800"/>
          </g>
        </g>
      </g>
    </g>
  </g>
</svg>
