<svg xmlns="http://www.w3.org/2000/svg" width="219.877" height="44" viewBox="0 0 219.877 44">
  <g id="mv-merit01-sp" transform="translate(1.077 -1.717)">
    <g id="グループ_166" data-name="グループ 166" transform="translate(0 0.984)">
      <rect id="長方形_130" data-name="長方形 130" width="219.877" height="44" rx="10" transform="translate(-1.077 0.733)" fill="#fff"/>
      <g id="グループ_1886" data-name="グループ 1886" transform="translate(49.466 13.063)">
        <rect id="長方形_153" data-name="長方形 153" width="159.333" height="11.309" transform="translate(0 7.593)" fill="#a2efef"/>
        <text id="丁寧に転職をサポート" transform="translate(74 13)" fill="#060000" font-size="15" font-family="HiraKakuProN-W6, Hiragino Kaku Gothic ProN" letter-spacing="-0.02em"><tspan x="-73.65" y="0">丁寧に転職をサポート</tspan></text>
      </g>
      <g id="グループ_2812" data-name="グループ 2812" transform="translate(8.923 5.169)">
        <circle id="楕円形_54" data-name="楕円形 54" cx="16.5" cy="16.5" r="16.5" transform="translate(0 -0.436)" fill="#d6b2b2"/>
        <g id="icon" transform="translate(7.942 5.721)">
          <path id="パス_22584" data-name="パス 22584" d="M6.758,23.651V34.16h2.1v2.1h8.407v-2.1h2.1V23.651Z" transform="translate(-4.656 -19.448)" fill="#fdd0ad"/>
          <rect id="長方形_451" data-name="長方形 451" width="2.102" height="2.102" transform="translate(2.087 2.102)" fill="#754800"/>
          <rect id="長方形_452" data-name="長方形 452" width="2.102" height="2.102" transform="translate(4.204)" fill="#754800"/>
          <rect id="長方形_453" data-name="長方形 453" width="2.102" height="2.102" transform="translate(6.306)" fill="#996501"/>
          <rect id="長方形_454" data-name="長方形 454" width="2.102" height="2.102" transform="translate(8.408)" fill="#996501"/>
          <rect id="長方形_455" data-name="長方形 455" width="2.102" height="2.102" transform="translate(10.51)" fill="#996501"/>
          <rect id="長方形_456" data-name="長方形 456" width="2.102" height="2.102" transform="translate(2.102 4.204)" fill="#754800"/>
          <rect id="長方形_457" data-name="長方形 457" width="2.102" height="2.102" transform="translate(2.102 6.306)" fill="#996501"/>
          <rect id="長方形_458" data-name="長方形 458" width="2.102" height="2.102" transform="translate(4.204 2.102)" fill="#996501"/>
          <rect id="長方形_459" data-name="長方形 459" width="2.102" height="2.102" transform="translate(8.408 2.102)" fill="#996501"/>
          <rect id="長方形_460" data-name="長方形 460" width="2.102" height="2.102" transform="translate(4.204 7.97)" fill="#996501"/>
          <rect id="長方形_461" data-name="長方形 461" width="2.102" height="2.102" transform="translate(10.159 7.97)" fill="#996501"/>
          <rect id="長方形_462" data-name="長方形 462" width="2.102" height="2.102" transform="translate(10.51 2.102)" fill="#754800"/>
          <rect id="長方形_463" data-name="長方形 463" width="2.102" height="2.102" transform="translate(12.611 2.102)" fill="#996501"/>
          <rect id="長方形_464" data-name="長方形 464" width="2.102" height="2.102" transform="translate(12.611 4.204)" fill="#996501"/>
          <rect id="長方形_465" data-name="長方形 465" width="2.102" height="2.102" transform="translate(14.713 4.204)" fill="#996501"/>
          <rect id="長方形_466" data-name="長方形 466" width="2.102" height="2.102" transform="translate(14.713 6.306)" fill="#996501"/>
          <rect id="長方形_467" data-name="長方形 467" width="2.102" height="2.102" transform="translate(14.713 8.407)" fill="#996501"/>
          <rect id="長方形_468" data-name="長方形 468" width="2.102" height="2.102" transform="translate(14.713 10.509)" fill="#996501"/>
          <rect id="長方形_469" data-name="長方形 469" width="2.102" height="2.102" transform="translate(14.713 12.611)" fill="#996501"/>
          <rect id="長方形_470" data-name="長方形 470" width="2.102" height="2.102" transform="translate(14.713 14.713)" fill="#754800"/>
          <rect id="長方形_471" data-name="長方形 471" width="2.102" height="2.102" transform="translate(14.713 16.815)" fill="#754800"/>
          <rect id="長方形_472" data-name="長方形 472" width="2.102" height="2.102" transform="translate(12.611 14.713)" fill="#996501"/>
          <rect id="長方形_473" data-name="長方形 473" width="2.102" height="2.102" transform="translate(12.611 16.815)" fill="#996501"/>
          <rect id="長方形_474" data-name="長方形 474" width="2.102" height="2.102" transform="translate(10.51 18.917)" fill="#754800"/>
          <rect id="長方形_475" data-name="長方形 475" width="2.102" height="2.102" transform="translate(12.611 18.917)" fill="#996501"/>
          <rect id="長方形_476" data-name="長方形 476" width="2.102" height="2.102" transform="translate(10.509 21.019)" fill="#754800"/>
          <rect id="長方形_477" data-name="長方形 477" width="2.102" height="2.102" transform="translate(12.611 21.019)" fill="#996501"/>
          <rect id="長方形_478" data-name="長方形 478" width="2.102" height="2.102" transform="translate(6.306 2.102)" fill="#754800"/>
          <rect id="長方形_479" data-name="長方形 479" width="2.102" height="2.102" transform="translate(0 4.204)" fill="#754800"/>
          <rect id="長方形_480" data-name="長方形 480" width="2.102" height="2.102" transform="translate(0 6.306)" fill="#754800"/>
          <rect id="長方形_481" data-name="長方形 481" width="2.102" height="2.102" transform="translate(0 8.407)" fill="#754800"/>
          <rect id="長方形_482" data-name="長方形 482" width="2.102" height="2.102" transform="translate(0 10.509)" fill="#754800"/>
          <rect id="長方形_483" data-name="長方形 483" width="2.102" height="2.102" transform="translate(0 12.611)" fill="#754800"/>
        </g>
      </g>
    </g>
  </g>
</svg>
