<svg xmlns="http://www.w3.org/2000/svg" width="221.923" height="44" viewBox="0 0 221.923 44">
  <g id="mv-merit02-sp" transform="translate(0 -299.119)">
    <g id="グループ_1898" data-name="グループ 1898" transform="translate(0 300.149)">
      <rect id="長方形_130" data-name="長方形 130" width="221.923" height="44" rx="10" transform="translate(0 -1.03)" fill="#fff"/>
      <g id="グループ_1882" data-name="グループ 1882" transform="translate(14.845 4.97)">
        <g id="グループ_1894" data-name="グループ 1894" transform="translate(-0.92 8.993)">
          <rect id="長方形_154" data-name="長方形 154" width="159.345" height="11.241" transform="translate(38.653 5.995)" fill="#a2efef"/>
          <text id="厳選した求人をご紹介" transform="translate(111.075 13)" fill="#060000" font-size="15" font-family="HiraKakuProN-W6, Hiragino Kaku Gothic ProN" letter-spacing="-0.02em"><tspan x="-73.65" y="0">厳選した求人をご紹介</tspan></text>
        </g>
        <g id="グループ_2813" data-name="グループ 2813" transform="translate(-4.604 -0.26)">
          <ellipse id="楕円形_54" data-name="楕円形 54" cx="16.5" cy="16" rx="16.5" ry="16" transform="translate(-0.24 0.26)" fill="#debd68"/>
          <g id="グループ_2730" data-name="グループ 2730" transform="translate(7.676 6.845)">
            <path id="パス_22586" data-name="パス 22586" d="M79.808,26.84V37.5H81.94v2.133h8.53V37.5H92.6V26.84Z" transform="translate(-77.684 -20.562)" fill="#fdd0ad"/>
            <rect id="長方形_517" data-name="長方形 517" width="2.132" height="2.132" transform="translate(4.571 10.663)" fill="#633d00"/>
            <rect id="長方形_518" data-name="長方形 518" width="2.132" height="2.132" transform="translate(10.614 10.663)" fill="#633d00"/>
            <rect id="長方形_519" data-name="長方形 519" width="2.132" height="2.132" transform="translate(0 4.265)" fill="#412b00"/>
            <rect id="長方形_520" data-name="長方形 520" width="2.132" height="2.132" transform="translate(2.132 2.133)" fill="#412b00"/>
            <rect id="長方形_521" data-name="長方形 521" width="2.132" height="2.132" transform="translate(4.265)" fill="#412b00"/>
            <rect id="長方形_522" data-name="長方形 522" width="2.132" height="2.132" transform="translate(0 6.398)" fill="#412b00"/>
            <rect id="長方形_523" data-name="長方形 523" width="2.132" height="2.132" transform="translate(2.132 4.265)" fill="#633d00"/>
            <rect id="長方形_524" data-name="長方形 524" width="2.132" height="2.132" transform="translate(4.265 2.133)" fill="#633d00"/>
            <rect id="長方形_525" data-name="長方形 525" width="2.132" height="2.132" transform="translate(6.397)" fill="#633d00"/>
            <rect id="長方形_526" data-name="長方形 526" width="2.132" height="2.132" transform="translate(0 8.53)" fill="#412b00"/>
            <rect id="長方形_527" data-name="長方形 527" width="2.132" height="2.132" transform="translate(4.265 4.265)" fill="#412b00"/>
            <rect id="長方形_528" data-name="長方形 528" width="2.132" height="2.132" transform="translate(6.397 4.265)" fill="#633d00"/>
            <rect id="長方形_529" data-name="長方形 529" width="2.132" height="2.132" transform="translate(8.53 4.265)" fill="#633d00"/>
            <rect id="長方形_530" data-name="長方形 530" width="2.132" height="2.132" transform="translate(6.397 6.398)" fill="#633d00"/>
            <rect id="長方形_531" data-name="長方形 531" width="2.132" height="2.132" transform="translate(8.53 6.398)" fill="#633d00"/>
            <rect id="長方形_532" data-name="長方形 532" width="2.132" height="2.132" transform="translate(10.663 4.265)" fill="#633d00"/>
            <rect id="長方形_533" data-name="長方形 533" width="2.132" height="2.132" transform="translate(12.795 4.265)" fill="#633d00"/>
            <rect id="長方形_534" data-name="長方形 534" width="2.132" height="2.132" transform="translate(8.53 2.133)" fill="#633d00"/>
            <rect id="長方形_535" data-name="長方形 535" width="2.132" height="2.132" transform="translate(10.663 2.133)" fill="#633d00"/>
            <rect id="長方形_536" data-name="長方形 536" width="2.132" height="2.132" transform="translate(12.795 2.133)" fill="#633d00"/>
            <rect id="長方形_537" data-name="長方形 537" width="2.132" height="2.132" transform="translate(14.928 4.265)" fill="#633d00"/>
            <rect id="長方形_538" data-name="長方形 538" width="2.132" height="2.132" transform="translate(14.928 6.398)" fill="#633d00"/>
            <rect id="長方形_539" data-name="長方形 539" width="2.132" height="2.132" transform="translate(14.928 8.53)" fill="#633d00"/>
            <rect id="長方形_540" data-name="長方形 540" width="2.132" height="2.132" transform="translate(0 10.663)" fill="#fdd0ad"/>
            <rect id="長方形_541" data-name="長方形 541" width="2.132" height="2.132" transform="translate(14.928 10.663)" fill="#fdd0ad"/>
            <rect id="長方形_542" data-name="長方形 542" width="2.132" height="2.132" transform="translate(6.397 2.133)" fill="#412b00"/>
          </g>
        </g>
      </g>
    </g>
  </g>
</svg>
