<svg xmlns="http://www.w3.org/2000/svg" width="439.15" height="56.911" viewBox="0 0 439.15 56.911">
  <g id="mynavi_logo" transform="translate(0 0)">
    <path id="パス_23536" data-name="パス 23536" d="M180.475,23.873c-.442-1.406-1.176-3.7-1.468-4.514l-.075-.222a1.628,1.628,0,0,0-1.615-1.184h-5.068a.992.992,0,0,0-.881.37,1.423,1.423,0,0,0-.147.962c.147.37,1.176,3.478,1.69,5.032a1.763,1.763,0,0,0,1.835,1.11h4.481c.734,0,1.029-.222,1.176-.444A1.341,1.341,0,0,0,180.475,23.873Z" transform="translate(123.45 -9.144)"/>
    <path id="パス_23537" data-name="パス 23537" d="M173.579,19.063a1.616,1.616,0,0,0-1.616-1.11H166.9c-.589,0-.809.222-.881.37a1.055,1.055,0,0,0-.147.962c.147.444,1.176,3.478,1.69,5.032a1.763,1.763,0,0,0,1.835,1.11h4.554a1.188,1.188,0,0,0,1.1-.444,1.282,1.282,0,0,0,.075-1.184C174.608,22.245,173.652,19.359,173.579,19.063Z" transform="translate(118.814 -9.144)"/>
    <path id="パス_23538" data-name="パス 23538" d="M71.678,43.08a6.133,6.133,0,1,1-6.17-6.142A6.03,6.03,0,0,1,71.678,43.08Z" transform="translate(26.948 7.245)" fill="#00b6f1"/>
    <path id="パス_23539" data-name="パス 23539" d="M115.364,19.666a4.568,4.568,0,0,0-2.644-6.142c-2.571-.962-4.995.518-6.317,2.812-2.13,3.774-13.075,24.643-14.911,28.122s-4.113,8.437-6.1,7.622c-1.763-.666-3.82-8.288-4.7-10.435-1.542-3.848-4.774-8.437-10.136-7.252-4.113.888-6.39,4.144-10.063,11.249a70.8,70.8,0,0,1-5.142,9.029c-3.819,5.18-5.95-3.33-7.2-7.77C46.466,40.979,43.38,32.542,36.7,32.542c-3.746,0-7.712,2.22-12.634,10.287C21.2,47.565,14.44,60.738,13.486,63.106a4.672,4.672,0,0,0,2.35,6.29c2.5,1.036,4.921-.074,6.39-2.294,4.774-7.4,6.023-10.361,8.52-13.765,2.571-3.626,6.17-6.882,8.814,1.85,1.689,5.476,4.7,14.5,12.707,14.579,4.848,0,9.842-4.144,12.12-8.14,2.644-4.514,3.305-6.956,5.288-9.1,1.028-1.11,2.571-1.48,3.966,1.7,1.4,3.108,4.26,13.025,9.4,15.171,7.272,3.034,14.1-11.767,16.453-16.5C101.481,49.045,114.555,21.664,115.364,19.666Z" transform="translate(-13.064 -13.225)" fill="#00b6f1"/>
    <path id="パス_23540" data-name="パス 23540" d="M121.576,19.186a2.133,2.133,0,0,0-1.616-.518c-2.13,0-44.145.074-44.145.074a1.676,1.676,0,0,0-1.175.518,1.611,1.611,0,0,0-.367,1.036V25.92a1.5,1.5,0,0,0,1.542,1.48h.22s30.776-.074,32.172-.074h1.322c.955,0,1.175.148,1.4.444.514.666,0,1.7-.073,1.924A27.055,27.055,0,0,1,97.411,47.011l-.367.222-.22-.37c-1.616-2.294-2.864-3.848-4.334-5.624l-.147-.222a2.754,2.754,0,0,0-1.983-1.184H82.941a1,1,0,0,0-1.028.666,1.194,1.194,0,0,0,.147,1.184,165.865,165.865,0,0,1,14.69,22.423,1.778,1.778,0,0,0,1.689.962h8.08a.886.886,0,0,0,.881-.592,1,1,0,0,0,0-1.11,68.09,68.09,0,0,0-4.554-7.622l-.294-.37.367-.3c9.475-6.66,18.29-15.245,19.1-34.486A1.81,1.81,0,0,0,121.576,19.186Z" transform="translate(39.778 -8.527)"/>
    <path id="パス_23541" data-name="パス 23541" d="M144.848,18.828a1.414,1.414,0,0,0-1.174-.518c-.883,0-4.848,0-7.345.074a2.121,2.121,0,0,0-1.765,1.184c-4.187,9.694-16.379,16.947-33.053,19.759-1.1.222-1.615.888-1.615,1.554v5.846a1.338,1.338,0,0,0,.514,1.11,1.769,1.769,0,0,0,1.323.444c8.079-.962,14.323-2.59,19.244-4.884l.734-.3V63.748a1.575,1.575,0,0,0,1.616,1.554h6.244a1.519,1.519,0,0,0,1.468-1.406l-.073-25.235.22-.148c6.317-4.366,11.826-11.471,13.882-18.353A1.475,1.475,0,0,0,144.848,18.828Z" transform="translate(61.899 -8.835)"/>
    <path id="パス_23542" data-name="パス 23542" d="M157.026,38.992v-.444l14.1-.074a1.756,1.756,0,0,0,1.1-.444,1.662,1.662,0,0,0,.442-1.036V31.369a1.472,1.472,0,0,0-.367-1.036,1.559,1.559,0,0,0-1.176-.518H157.1V19.824a1.569,1.569,0,0,0-1.615-1.554h-6.244a1.314,1.314,0,0,0-1.1.518,1.662,1.662,0,0,0-.442,1.036v9.991H126.543a1.58,1.58,0,0,0-1.176.444,1.7,1.7,0,0,0-.44,1.11v5.624a1.542,1.542,0,0,0,1.543,1.48h.22l20.934-.074v.518c-.736,12.211-6.538,15.689-17.482,17.909-.956.222-1.47.666-1.47,1.554v5.772a1.123,1.123,0,0,0,.514,1.036,1.611,1.611,0,0,0,1.176.37C148.654,63.191,156.071,55.494,157.026,38.992Z" transform="translate(83.51 -8.87)"/>
    <path id="パス_23543" data-name="パス 23543" d="M194.8,30.185a1.648,1.648,0,0,0-1.029-.444h-.294l-30.629.074V19.824a1.547,1.547,0,0,0-.442-1.11,1.393,1.393,0,0,0-1.174-.444h-5.95a1.555,1.555,0,0,0-1.543,1.554l.073,33.45c0,8.363,3.233,11.841,12.341,11.841h.734l27.618-.074a1.515,1.515,0,0,0,1.4-1.48v-5.7a1.555,1.555,0,0,0-1.543-1.554H169.169c-2.277,0-3.967-.148-4.921-.962-1.248-1.036-1.323-2.516-1.323-4.884V38.4l30.776-.074a1.558,1.558,0,0,0,1.543-1.554v-5.55A1.925,1.925,0,0,0,194.8,30.185Z" transform="translate(108.387 -8.87)"/>
    <path id="パス_23544" data-name="パス 23544" d="M192.643,58.813a2.134,2.134,0,0,1-2.351,2.442,2.11,2.11,0,0,1-2.35-2.442V42.754a2.727,2.727,0,0,1-1.91,1.036,2.907,2.907,0,0,1-2.644-2.96,4.214,4.214,0,0,1,1.248-2.738,36.687,36.687,0,0,0,5.655-12.063c.294-1.406.589-2.516,2.351-2.516.293,0,2.57.074,2.57,2.072,0,1.258-1.1,5.106-2.57,8.658Zm3.965-13.025a2.082,2.082,0,0,1-2.422-2.294c0-1.924,1.248-2.294,2.422-2.294h8.741V38.166h-4.187c-3.158,0-4.554-1.184-4.554-4.662V29.211c0-3.552,1.543-4.588,4.554-4.588h13.149c2.937,0,4.554.962,4.554,4.588V33.5c0,3.478-1.47,4.662-4.554,4.662h-4.334V41.2h8.666a2.121,2.121,0,0,1,2.424,2.294c0,2.072-1.4,2.294-2.424,2.294h-6.831a32.883,32.883,0,0,0,5.95,6.808c3.086,2.59,3.233,2.664,3.233,3.552a2.936,2.936,0,0,1-2.571,2.812c-.807,0-1.543-.444-3.158-2.146a45.431,45.431,0,0,1-5.363-6.882v8.806a2.093,2.093,0,0,1-2.2,2.442c-1.763,0-2.424-.814-2.424-2.442V50.3c-2.719,3.774-7.418,8.658-9.4,8.658a2.549,2.549,0,0,1-.807-4.884,28.345,28.345,0,0,0,8.446-8.362h-6.905Zm17.409-15.615a1.174,1.174,0,0,0-1.323-1.332h-9.842c-.954,0-1.321.444-1.321,1.332v2.516a1.172,1.172,0,0,0,1.321,1.332h9.769a1.174,1.174,0,0,0,1.323-1.332V30.173Z" transform="translate(133.979 -4.344)" fill="#f47920"/>
    <path id="パス_23545" data-name="パス 23545" d="M234.079,30.276a53.514,53.514,0,0,1,5.288,3.478c2.35,1.776,2.864,2.294,2.864,3.256a2.854,2.854,0,0,1-2.644,2.664,2.517,2.517,0,0,1-1.616-.666c-.367-.3-2.057-1.7-2.5-2-1.248.074-3.967.37-9.844.666-4.479.222-15.644.592-15.939.592-1.1,0-2.57,0-2.57-2.22,0-1.924,1.468-2,2.13-2.072.44,0,4.26-.074,5.068-.074,1.248-1.7,1.835-2.738,2.424-3.626h-8.521c-1.4,0-2.13-.592-2.13-2.22,0-1.924,1.543-1.924,2.13-1.924H222.18v-.888c0-1.332.587-1.85,2.864-1.85,2.13,0,2.352.962,2.352,1.85v.888h14.029c1.468,0,2.057.592,2.057,2.22a1.753,1.753,0,0,1-2.057,1.924ZM215.863,53.958v4.884a2.111,2.111,0,0,1-2.352,2.442c-2.13,0-2.644-1.036-2.644-2.442V43.523c0-3.256,1.4-4.292,4.334-4.292h19.244c2.864,0,4.334,1.036,4.334,4.292V56.7c0,1.11-.075,2.812-1.47,3.7-.734.444-1.321.666-5.435.666-3.525,0-3.745-.148-4.187-.37a2.209,2.209,0,0,1-.881-2,1.916,1.916,0,0,1,2.2-2.146c.587,0,3.084.074,3.6.074.736,0,1.25-.074,1.25-.962v-1.7Zm0-8.955h17.921v-.888a.857.857,0,0,0-.954-.962H216.817a.856.856,0,0,0-.954.962Zm17.921,3.478H215.863v2h17.921ZM222.4,30.276c-.367.592-2.057,2.96-2.424,3.478,2.13,0,4.334-.074,8.227-.222.367,0,2.13-.148,2.5-.148a1.872,1.872,0,0,1-1.1-1.7,1.982,1.982,0,0,1,.589-1.48H222.4Z" transform="translate(153.582 -4.447)" fill="#f47920"/>
    <path id="パス_23546" data-name="パス 23546" d="M263.576,33.868c.661,0,2.424,0,2.424,2.516,0,2.368-1.615,2.516-2.424,2.516H249.989V54.959h11.458c.661,0,2.424,0,2.424,2.442,0,2.368-1.543,2.516-2.424,2.516H233.241c-.661,0-2.424,0-2.424-2.442,0-2.294,1.543-2.442,2.424-2.442H244.7V38.9H231.184c-.734,0-2.424,0-2.424-2.442,0-2.368,1.47-2.59,2.424-2.59H244.7V25.876c0-.814,0-2.442,2.5-2.442,1.983,0,2.791.666,2.791,2.442v7.992Z" transform="translate(173.15 -4.412)" fill="#f47920"/>
  </g>
</svg>
