<svg xmlns="http://www.w3.org/2000/svg" width="153.851" height="82.481" viewBox="0 0 153.851 82.481">
  <g id="mynavi-deco" transform="translate(-3.851)">
    <g id="グループ_6" data-name="グループ 6" transform="translate(3.851)">
      <path id="パス_3" data-name="パス 3" d="M52.78,26.35a8.9,8.9,0,0,1-1.535,5.016A9.151,9.151,0,0,1,47.127,34.7a9.353,9.353,0,0,1-5.312.524A9.246,9.246,0,0,1,37.1,32.763a8.961,8.961,0,0,1-2.523-4.616,8.854,8.854,0,0,1,.518-5.213,9.055,9.055,0,0,1,3.385-4.051,9.393,9.393,0,0,1,8.623-.845,9.182,9.182,0,0,1,2.982,1.947A8.972,8.972,0,0,1,52.08,22.9,8.837,8.837,0,0,1,52.78,26.35Z" transform="translate(94.996 47.088)" fill="#fff"/>
      <path id="パス_4" data-name="パス 4" d="M153.466,9.33a6.542,6.542,0,0,0,.021-5.377,6.662,6.662,0,0,0-1.627-2.237,6.812,6.812,0,0,0-2.409-1.4,8,8,0,0,0-5.439.361,7.793,7.793,0,0,0-3.892,3.745c-3.139,5.548-19.54,36.062-22.282,41.028s-6.221,12.261-9.077,11.1-5.655-12.095-7.1-15.257C99.315,35.739,94.508,29,86.534,30.718,80.4,31.994,76.948,36.71,71.406,47.112a99.2,99.2,0,0,1-7.691,13.177c-5.656,7.6-8.879-4.882-10.745-11.318-2.517-8.682-7.126-20.944-17.136-20.916-5.655,0-11.565,3.218-18.974,15.008C12.533,49.942,2.381,69.193.883,72.633a6.624,6.624,0,0,0-.238,5.3,6.725,6.725,0,0,0,1.472,2.29A6.877,6.877,0,0,0,4.389,81.76a7.686,7.686,0,0,0,5.446.121,7.508,7.508,0,0,0,4.112-3.506c7.126-10.847,9.077-15.09,12.725-20.084s9.19-10.07,13.262,2.774c2.545,8.017,7.013,21.193,19,21.277,7.239,0,14.732-6.075,18.211-11.9,3.959-6.6,4.977-10.125,7.974-13.315,1.555-1.637,3.846-2.219,5.995,2.5S97.534,78.6,105.253,81.815c10.887,4.438,21.123-17.171,24.658-24.051,2.828-5.548,22.452-45.466,23.7-48.379" transform="translate(-0.203 0)" fill="#fff"/>
    </g>
  </g>
</svg>
