<svg xmlns="http://www.w3.org/2000/svg" width="41" height="41" viewBox="0 0 41 41">
  <g id="question_icon" transform="translate(-529 -13268)">
    <circle id="楕円形_141" data-name="楕円形 141" cx="20.5" cy="20.5" r="20.5" transform="translate(529 13268)" fill="#19cecd"/>
    <path id="パス_23987" data-name="パス 23987" d="M21.006-.054a21.865,21.865,0,0,1-1.755-1.512L18.5-2.3A9.912,9.912,0,0,0,20.52-5.481a13.946,13.946,0,0,0,.864-4.995c0-6.777-3.915-11.124-10.017-11.124-6.129,0-10.152,4.455-10.152,11.259A11.721,11.721,0,0,0,4.266-1.917a9.524,9.524,0,0,0,7.02,2.7A9.271,9.271,0,0,0,16.254-.486a25.346,25.346,0,0,1,2.565,2.727Zm-9.4-4.725a21.6,21.6,0,0,1,2.16,1.89,5.184,5.184,0,0,1-2.43.54c-3.888,0-6.4-3.159-6.4-8.046,0-2.781.756-5.022,2.16-6.426a5.83,5.83,0,0,1,4.185-1.647,5.722,5.722,0,0,1,4.158,1.647A8.747,8.747,0,0,1,17.6-10.53c0,2.7-.486,4.32-1.674,5.778a26.589,26.589,0,0,1-2.106-2.187Z" transform="translate(538 13299)" fill="#fff"/>
  </g>
</svg>
