<svg xmlns="http://www.w3.org/2000/svg" xmlns:xlink="http://www.w3.org/1999/xlink" width="125" height="105" viewBox="0 0 125 105">
  <defs>
    <clipPath id="clip-path">
      <rect id="長方形_560" data-name="長方形 560" width="125" height="105" transform="translate(770 1684)" fill="#fff" stroke="#707070" stroke-width="1" opacity="0.66"/>
    </clipPath>
  </defs>
  <g id="suits-me02" transform="translate(-770 -1684)" clip-path="url(#clip-path)">
    <g id="_2回目以降illust" data-name="2回目以降illust" transform="translate(788.689 1699.085)">
      <path id="パス_3285" data-name="パス 3285" d="M52.183-164.75,66.329-150.5s-5.542,3.715,1.3,5.618" transform="translate(-41.713 202.108)" fill="none" stroke="#060000" stroke-linecap="round" stroke-linejoin="round" stroke-width="1"/>
      <path id="パス_3286" data-name="パス 3286" d="M67.633-221.623s-1.1,6.549,5.016,4.414c0,0-.6,6.094,5.657,4.214,0,0,.114,5.175,4.978,3.21,0,0,5.733,2.257,6.02-3.21,0,0,7.377,5.337,7.825-2.809,0,0,7.265,5.374,6.421-3.812,0,0,7.262-2.9,2.007-8.026l15.049-16L104.152-260.75l-4.013,4.013-18.059.2s-2.814-.422-3.774,1.4H72.047l-3.411-3.612L52.183-241.487l14.146,13.845S61.042-224.282,67.633-221.623Z" transform="translate(-41.713 278.845)" fill="#fff" fill-rule="evenodd"/>
      <path id="パス_3287" data-name="パス 3287" d="M11.558-271.605l-4.712-4.38a1.3,1.3,0,0,1-.055-1.85l20.339-20.047c.491-.516,1.927-.85,2.448-.365l4.712,4.38a1.3,1.3,0,0,1,.055,1.85L13.384-271.659A1.3,1.3,0,0,1,11.558-271.605Z" transform="translate(-5.141 309.007)" fill="#19cecd"/>
      <path id="パス_3288" data-name="パス 3288" d="M325.326-278.176l4.322-4.67a1.3,1.3,0,0,0,.055-1.85l-20.34-20.047a1.3,1.3,0,0,0-1.826-.054l-4.712,4.38a1.3,1.3,0,0,0-.055,1.85l20.94,21.253C324.2-276.8,324.8-277.691,325.326-278.176Z" transform="translate(-241.73 314.333)" fill="#19cecd"/>
      <path id="パス_3289" data-name="パス 3289" d="M63.3-301.33,45-319.632l.5-.5a15.726,15.726,0,0,0,11.928,5.524,15.652,15.652,0,0,0,2.385-.181.943.943,0,0,0,.789-1.072.945.945,0,0,0-1.072-.787,14.156,14.156,0,0,1-2.1.158,13.834,13.834,0,0,1-10.41-4.767h4.521a.942.942,0,0,0,.941-.941.943.943,0,0,0-.941-.941H40.905a.986.986,0,0,0-.205.024h-.24l-.178.219a.922.922,0,0,0-.183.223c-1.8,2.189-3.818,4.192-6.315,4.192-1.178,0-2.538-.592-2.8-1.216-.037-.09-.149-.359.392-.9,1.083-1.082,5.859-5.859,6.259-6.26a4.466,4.466,0,0,1,2.24-1.049H58.97l3.61-3.61,15.453,15.452Zm1.553,5.251a2.557,2.557,0,0,1-2.555,2.552,4.58,4.58,0,0,1-1.814-.841L48.941-305.911a.96.96,0,0,0-1.331,0,.942.942,0,0,0,0,1.33l12.942,12.942a3.487,3.487,0,0,1,.909,1.944,2.557,2.557,0,0,1-2.554,2.554,2.541,2.541,0,0,1-1.771-.712l-2.3-2.388-.045.044-8.99-8.991a.965.965,0,0,0-1.33,0,.936.936,0,0,0-.277.666.936.936,0,0,0,.277.666l9.493,9.491a2.94,2.94,0,0,1,.609,1.563,2.557,2.557,0,0,1-2.555,2.554,2.538,2.538,0,0,1-1.549-.536.917.917,0,0,0-.135-.175l-3.2-3.2-.231-.239,0,0-7.782-7.785a.968.968,0,0,0-1.331,0,.943.943,0,0,0,0,1.33l7.946,7.946a3.541,3.541,0,0,1,.91,1.946,2.559,2.559,0,0,1-2.554,2.554,2.52,2.52,0,0,1-.9-.173,4.313,4.313,0,0,0,.728-1.308,2.958,2.958,0,0,0-.549-2.645,4.2,4.2,0,0,0-3.182-1.8,2.673,2.673,0,0,0-.542.054l-.135.036a3.515,3.515,0,0,0,.1-.674,3.952,3.952,0,0,0-1.244-3.172,4.111,4.111,0,0,0-2.578-1.021,3.818,3.818,0,0,0-.824.124,3.058,3.058,0,0,0,.312-1.108c.067-1.78-1.7-3.4-3.328-3.732a3.753,3.753,0,0,0-.726-.076,3.332,3.332,0,0,0-1.109.191A3.281,3.281,0,0,0,29.18-300a4.17,4.17,0,0,0-2.954-1.284,3.607,3.607,0,0,0-.389.022,3.441,3.441,0,0,0-1.228.431L11.3-314.132l15.418-15.42,3.483,3.483h4.058c-1.563,1.563-3.53,3.531-4.178,4.178a2.548,2.548,0,0,0-.789,2.9c.631,1.523,2.785,2.348,4.49,2.348,3.147,0,5.563-2.273,7.521-4.609H43.7l-1.521,1.459,21.763,21.763A3.54,3.54,0,0,1,64.854-296.079Zm-22.22,11.77a3.731,3.731,0,0,1-.744,1.2l-.064.078a2.236,2.236,0,0,1-2.182,1.088,2.327,2.327,0,0,1-2.13-2.536c0-.544.583-1.168,1.018-1.587a2.6,2.6,0,0,1,1.4-.875,1.358,1.358,0,0,1,.26-.026,2.858,2.858,0,0,1,2.08,1.242A1.64,1.64,0,0,1,42.634-284.309Zm-6.393-1.712a2.754,2.754,0,0,1-1.881.63,2.512,2.512,0,0,1-1.729-.879,2.513,2.513,0,0,1-.6-1.848c.027-.331.29-.985,1.4-2.217a3.464,3.464,0,0,1,2.428-1.415h.035a2.893,2.893,0,0,1,1.588.684,2.655,2.655,0,0,1,.781,2.087,2.427,2.427,0,0,1-.426,1.214A11.8,11.8,0,0,1,36.242-286.021Zm-5.357-3.907a2.513,2.513,0,0,1-1.823.582,2.54,2.54,0,0,1-2.333-2.725c.053-.688,1.316-2.211,2.2-3.072l.045-.046a3.054,3.054,0,0,1,2.258-1.35,2.231,2.231,0,0,1,.453.048c1.048.217,2.282,1.312,2.242,2.35C33.89-293.254,32.134-291.151,30.885-289.927Zm-5.236-4.7a.455.455,0,0,1-.053,0,2.522,2.522,0,0,1-1.731-.881,2.513,2.513,0,0,1-.6-1.846,4.17,4.17,0,0,1,2.724-2.548,2.318,2.318,0,0,1,.237-.014,2.817,2.817,0,0,1,1.97.863,1.917,1.917,0,0,1,.569,1.419C28.712-296.573,26.7-294.631,25.649-294.631ZM89.606-320.86,69.117-341.348a.917.917,0,0,0-1.3,0,.916.916,0,0,0,0,1.3L87.678-320.2l-5.448,5.739-21.669-21.67,12.887-13.251a.917.917,0,0,0-.018-1.3.916.916,0,0,0-1.3.018L59.1-337.253a1.6,1.6,0,0,0,0,2.257l2.184,2.185-3.073,3.074H39.878a6.235,6.235,0,0,0-3.458,1.511l-.051.046-.228.229H30.982l-2.931-2.932,2.594-2.594a1.6,1.6,0,0,0,.009-2.249L17.61-349.137a.916.916,0,0,0-1.3-.018.917.917,0,0,0-.017,1.3l12.887,13.251-21.66,21.66-5.567-6.463,19.626-18.733a.917.917,0,0,0,.03-1.3.917.917,0,0,0-1.3-.03L.061-320.135,0-318.875l6.335,7.356.049.052A1.589,1.589,0,0,0,7.509-311a1.588,1.588,0,0,0,1.129-.466L9.972-312.8l13.136,13.137a3.9,3.9,0,0,0-1.2,2.2,3.862,3.862,0,0,0,.924,2.835,3.872,3.872,0,0,0,2.659,1.348c.05,0,.1.008.157.008.03,0,.06,0,.091-.006a3.048,3.048,0,0,0-.364,1.1,3.9,3.9,0,0,0,3.582,4.184c.1.01.2.012.306.012a3.868,3.868,0,0,0,1.416-.271.223.223,0,0,0,0,.028,3.869,3.869,0,0,0,.923,2.835,3.867,3.867,0,0,0,2.657,1.35c.095.006.19.01.284.01a3.834,3.834,0,0,0,1.619-.373,3.677,3.677,0,0,0,3.28,3.792,3.429,3.429,0,0,0,.53.044,3.175,3.175,0,0,0,1.842-.59,4.4,4.4,0,0,0,2.281.634,4.447,4.447,0,0,0,4.354-3.584l.446.443a4.4,4.4,0,0,0,3.13,1.292,4.447,4.447,0,0,0,4.371-3.674,4.437,4.437,0,0,0,2.515.781,4.44,4.44,0,0,0,4.437-4.434,4.316,4.316,0,0,0-.543-1.978,4.458,4.458,0,0,0,3.934-4.406,5.325,5.325,0,0,0-1.448-3.265l-.69-.69,14.732-14.732,1.777,1.778a1.588,1.588,0,0,0,1.129.467,1.591,1.591,0,0,0,1.125-.465l6.262-6.593Z" transform="translate(0 350.934)" fill="#060000" stroke="#050000" stroke-linecap="round" stroke-linejoin="round" stroke-width="1"/>
    </g>
  </g>
</svg>
