<svg xmlns="http://www.w3.org/2000/svg" xmlns:xlink="http://www.w3.org/1999/xlink" width="432" height="357" viewBox="0 0 432 357">
  <defs>
    <clipPath id="clip-path">
      <rect id="長方形_834" data-name="長方形 834" width="432" height="357" transform="translate(1270.925 10123.857)" fill="#fff" stroke="#707070" stroke-width="1"/>
    </clipPath>
  </defs>
  <g id="voice_illust" transform="translate(-1270.925 -10123.858)" clip-path="url(#clip-path)">
    <g id="グループ_3278" data-name="グループ 3278" transform="translate(4140.356 8905.051)">
      <g id="グループ_3275" data-name="グループ 3275" transform="translate(0 0)">
        <g id="グループ_3278-2" data-name="グループ 3278" transform="translate(-1876 269)">
          <path id="パス_1" data-name="パス 1" d="M456.93,598.993l-2.446-6.727c5.19-1.887,7.125-4.973,7.2-5.1-.018.029-.026.045-.026.045l6.215,3.551A15.237,15.237,0,0,1,465.193,594a23.972,23.972,0,0,1-8.262,4.995" transform="translate(-363.392 -469.479)" fill="#fff000"/>
          <path id="パス_2" data-name="パス 2" d="M288.089,914.831a19.847,19.847,0,0,1-8.2-6.91,17.288,17.288,0,0,1-2.206-4.383l6.856-2.057-.01-.033a12.386,12.386,0,0,0,6.522,6.866Z" transform="translate(-222.027 -720.772)" fill="#fff000"/>
          <path id="パス_3" data-name="パス 3" d="M1375.76,428.221a12.426,12.426,0,0,1-6.712-7.915,17.79,17.79,0,0,1-.851-5.023h7.158v-.022c0,.05.1,4.992,3.313,6.419Z" transform="translate(-1093.97 -332.031)" fill="#fff000"/>
          <path id="パス_4" data-name="パス 4" d="M1627.738,728.294a12.4,12.4,0,0,0-6.374-6.558l.042.014,2.263-6.791a15.748,15.748,0,0,1,4.092,2.255,20.756,20.756,0,0,1,6.493,8.119Z" transform="translate(-1296.395 -571.661)" fill="#fff000"/>
          <rect id="長方形_1" data-name="長方形 1" width="7.158" height="8.394" transform="matrix(0.504, -0.864, 0.864, 0.504, 306.213, 207.789)" fill="#fff000"/>
          <rect id="長方形_2" data-name="長方形 2" width="10.271" height="7.158" transform="translate(106.212 65.775)" fill="#fff000"/>
          <rect id="長方形_3" data-name="長方形 3" width="7.158" height="12.746" transform="translate(45.154 101.432) rotate(-31.429)" fill="#fff000"/>
          <rect id="長方形_4" data-name="長方形 4" width="12.846" height="7.158" transform="translate(255.511 47.326) rotate(-41.186)" fill="#fff000"/>
          <rect id="長方形_5" data-name="長方形 5" width="7.158" height="9.743" transform="translate(334.515 82.61) rotate(-29.744)" fill="#fff000"/>
          <rect id="長方形_6" data-name="長方形 6" width="11.141" height="7.158" transform="translate(65.817 41.261) rotate(-40.601)" fill="#fff000"/>
          <path id="パス_5" data-name="パス 5" d="M901.313,174.864c-8.98-2.072-12.117-6.448-12.445-6.94l5.956-3.971a1,1,0,0,0-.061-.088c.02.026,2.045,2.612,8.159,4.023Z" transform="translate(-710.713 -131.023)" fill="#fff000"/>
          <rect id="長方形_7" data-name="長方形 7" width="11.239" height="7.158" transform="matrix(0.591, -0.806, 0.806, 0.591, 323.257, 50.925)" fill="#fff000"/>
          <rect id="長方形_8" data-name="長方形 8" width="10.128" height="7.158" transform="translate(73.794 264.654) rotate(-72.647)" fill="#fff000"/>
          <rect id="長方形_9" data-name="長方形 9" width="7.158" height="8.797" transform="translate(322.097 275.768) rotate(-15.945)" fill="#fff000"/>
          <rect id="長方形_10" data-name="長方形 10" width="9.836" height="7.158" transform="matrix(0.737, -0.676, 0.676, 0.737, 87.479, 224.414)" fill="#fff000"/>
          <rect id="長方形_11" data-name="長方形 11" width="7.158" height="10.289" transform="matrix(0.763, -0.646, 0.646, 0.763, 38.226, 243.865)" fill="#fff000"/>
          <rect id="長方形_12" data-name="長方形 12" width="9.836" height="7.158" transform="translate(341.851 249.791) rotate(-42.51)" fill="#fff000"/>
          <rect id="長方形_13" data-name="長方形 13" width="9.438" height="7.158" transform="translate(288.35 118.421) rotate(-50.194)" fill="#fff000"/>
          <rect id="長方形_14" data-name="長方形 14" width="7.158" height="10.892" transform="translate(128.007 56.235) rotate(-33.69)" fill="#fff000"/>
          <rect id="長方形_15" data-name="長方形 15" width="7.158" height="10.128" transform="translate(33.849 80.625) rotate(-72.646)" fill="#fff000"/>
          <rect id="長方形_16" data-name="長方形 16" width="7.158" height="9.243" transform="translate(310.549 28.971) rotate(-11.31)" fill="#fff000"/>
          <rect id="長方形_17" data-name="長方形 17" width="11.092" height="7.158" transform="matrix(0.49, -0.872, 0.872, 0.49, 342.357, 170.315)" fill="#fff000"/>
          <rect id="長方形_18" data-name="長方形 18" width="7.158" height="10.892" transform="matrix(0.832, -0.555, 0.555, 0.832, 57.919, 310.605)" fill="#fff000"/>
          <rect id="長方形_19" data-name="長方形 19" width="10.552" height="7.158" transform="matrix(0.401, -0.916, 0.916, 0.401, 313.196, 327.125)" fill="#fff000"/>
          <path id="パス_6" data-name="パス 6" d="M195.118,864.566l-4.161-5.825a22.333,22.333,0,0,0,5.625-6.123l-.006.01,6.215,3.551a29.413,29.413,0,0,1-7.673,8.387" transform="translate(-152.684 -681.729)" fill="#fff000"/>
        </g>
      </g>
    </g>
    <g id="グループ_3281" data-name="グループ 3281">
      <g id="グループ_3277" data-name="グループ 3277" transform="translate(1237.356 10121.174)">
        <path id="パス_7" data-name="パス 7" d="M847.3,512.053s-11.065,26.359-11.065,30.915.325,7.485.325,7.485,6.508,40.352,9.763,45.234,16.469,10.948,16.469,10.948l.3,16.038,7.966,7.183,5.857,24.407L887,630.507l12.692-4.231s17.247-16.922,23.1-42.63,6.183-48.813,4.231-50.441-39.051-24.407-56.3-24.732-23.43,3.58-23.43,3.58" transform="translate(-638.214 -397.016)" fill="#fff"/>
        <path id="パス_8" data-name="パス 8" d="M738.339,1638.708H880.3l-7.847-39.949s-26.038,7.847-69.2,7.847-60.637-6.42-60.637-6.42Z" transform="translate(-570.063 -1156.026)" fill="#fff000"/>
        <path id="パス_9" data-name="パス 9" d="M820.247,456.364s23.167-1.485,52.273,18.414c0,0,7.128,4.752,8.019,10.1,0,0,7.722-8.613,9.5-5.346s6.831,13.662,3.267,19.6a38.954,38.954,0,0,1-8.019,9.5s-1.188,22.572-5.643,29.4-13.365,17.82-9.5,33.265,10.692,25.84,7.128,32.077S861.531,621.5,863.313,631.6s13.069,18.415,10.989,25.839-5.346,8.91-5.346,8.91,12.177,1.188,19.9-4.455,8.613-9.207,8.613-9.207L895.39,601.9l3.267-2.97-2.97-17.227s14.85-27.027,15.742-29.107,2.97-9.5,4.158-9.207,5.346-3.564,5.346-3.564,1.782-15.147-3.564-24.355S901.924,502.994,904,479.53a49.276,49.276,0,0,0-34.155-51.085c-21.088-6.534-49.6,4.752-59.1,20.79s-10.692,30.592-9.207,52.57-4.158,27.919-6.237,36.235-4.752,25.246,6.831,35.344l16.633-2.673,14.553-5.049-.3-16.038a39.693,39.693,0,0,1-19.009-20.2c-5.94-14.554-6.534-39.205-6.534-39.205s4.455-24.057,12.771-33.859" transform="translate(-608.437 -340.005)" fill="#f49902"/>
        <path id="パス_10" data-name="パス 10" d="M667.734,884.353,653.18,889.4l-35.406,5.063-4.23,23.1-27.987-4.556s-20.176,58.576-26.034,95.674-7.81,61.505,13.668,64.434,25.708-14.319,27.01-18.875,10.088-41.979,10.088-41.979l6.183,79.078-1.06,11.51s24.165,5.086,64.517,6.714,65.318-8.141,65.318-8.141l3.672-33.514A22.641,22.641,0,0,0,770.4,1074.1c13.668-2.929,15.946-16.6,17.9-30.59s1.952-16.922,1.952-16.922,10.414-113.573,8.787-115.851-24.407-20.176-24.407-20.176L763.889,902.6l-2.929,11.715L733.3,920.173s-3.254,1.627-3.254,4.231,1.842,46.972,1.842,46.972-4.445,8.025-11.6,10.953-16.908,2.709-16.908,2.709,7.8-6.614,4.217-15.075-12.691-15.62-8.135-27.01S713.123,924.4,712.8,913.34s-8.461-25.383-8.461-25.383l-12.692,4.231-10.088,23.756L675.7,891.536Z" transform="translate(-442.856 -658.696)" fill="#fff"/>
        <path id="パス_11" data-name="パス 11" d="M618.46,802.076s6.183-19.2,4.231-23.105-8.136-33.193-9.112-35.471-3.9-1.627-5.532,2.929-1.952,12.691-1.952,12.691l-13.017-6.183s-19.525-30.915-23.431-33.193-6.183-1.3-6.183.976-2.6,30.59,1.627,39.051,28.637,30.264,28.637,30.264l-3.254,7.485Z" transform="translate(-447.771 -543.202)" fill="#fff"/>
        <path id="パス_12" data-name="パス 12" d="M1133.076,839.29l-3.195-19.782s13.319-22.673,15.742-29.106,6-11.64,7.3-7.41a54.835,54.835,0,0,1,1.627,10.739s15.946-16.922,21.8-19.525,15.946-8.135,16.271-5.207-5.532,23.756-11.064,31.566-17.9,21.153-17.9,21.153l-2.929,11.715Z" transform="translate(-842.633 -577.812)" fill="#fff"/>
        <path id="パス_13" data-name="パス 13" d="M832.063,630.407c.048.648.1,1.295.16,1.942q.224,2.571.492,5.138.379,3.656.84,7.3c.388,3.062.813,6.12,1.3,9.168.461,2.872.978,5.736,1.593,8.58.554,2.564,1.182,5.118,1.985,7.616a40.71,40.71,0,0,0,3.677,8.3,35.552,35.552,0,0,0,5.9,7.485,32.295,32.295,0,0,0,17.724,8.744c1.072.154,2.145.289,3.225.366a3.052,3.052,0,0,0,2.158-5.21,3.373,3.373,0,0,0-2.158-.894q-1.048-.074-2.089-.212l.811.109a30.616,30.616,0,0,1-7.78-2.1l.729.308a29.492,29.492,0,0,1-6.459-3.776l.618.477a31.325,31.325,0,0,1-5.6-5.623l.477.618a34.752,34.752,0,0,1-4.439-7.646l.308.729a56.986,56.986,0,0,1-2.829-9.261c-.8-3.462-1.441-6.963-2-10.472q-.475-2.979-.874-5.969.055.406.109.812-.637-4.746-1.127-9.51-.31-2.993-.564-5.992c-.029-.343-.057-.686-.082-1.029a3.255,3.255,0,0,0-.894-2.158,3.052,3.052,0,0,0-4.316,0,3.013,3.013,0,0,0-.894,2.158" transform="translate(-635.304 -479.786)" fill="#060000"/>
        <path id="パス_14" data-name="パス 14" d="M1066.126,602c.1-.145.21-.286.319-.427l-.478.618a19.881,19.881,0,0,1,3.529-3.605l-.618.477a9.942,9.942,0,0,1,2.1-1.267l-.729.308a5.7,5.7,0,0,1,1.42-.4l-.811.109a4.209,4.209,0,0,1,1.028-.006l-.812-.109a3.823,3.823,0,0,1,.957.261l-.729-.307a4.251,4.251,0,0,1,.874.519l-.618-.477a5.778,5.778,0,0,1,.979.992l-.477-.618a8.647,8.647,0,0,1,1.089,1.914l-.308-.729a15.985,15.985,0,0,1,1.017,3.98l-.109-.812a30.088,30.088,0,0,1-.071,7.939q.055-.406.109-.811a22.825,22.825,0,0,1-1.421,5.7l.307-.729a12.042,12.042,0,0,1-1.565,2.647l.477-.617a15.628,15.628,0,0,1-2.74,2.709l.618-.477a15.878,15.878,0,0,1-3.443,2.087l.729-.308-.009,0-.729.308a2.306,2.306,0,0,0-.856.786,2.8,2.8,0,0,0-.656,1.849c.122,1.1.184,2.209.236,3.314.128,2.747.125,5.5-.017,8.249-.1,1.946-.273,3.888-.53,5.818q.054-.405.109-.811a50.015,50.015,0,0,1-2.061,9.212q-.42,1.254-.931,2.476l.308-.73a26.054,26.054,0,0,1-3.294,5.776l.477-.618q-.408.527-.848,1.028a3.229,3.229,0,0,0-.894,2.158,3.106,3.106,0,0,0,.894,2.159,3.052,3.052,0,0,0,4.317,0,29.7,29.7,0,0,0,5.331-9.157,45.725,45.725,0,0,0,2.382-9.272,77.857,77.857,0,0,0,.911-9.606q.11-3.427-.057-6.855c-.05-1.031-.1-2.073-.223-3.1l0-.042-2.241,2.944a18.068,18.068,0,0,0,2.975-1.541,22.872,22.872,0,0,0,2.672-2.036,18.268,18.268,0,0,0,2.535-2.842c2.359-3.179,3.077-7.39,3.411-11.239a24.37,24.37,0,0,0-1.67-12.2,10.569,10.569,0,0,0-1.621-2.458,5.723,5.723,0,0,0-.791-.763,9.623,9.623,0,0,0-1.051-.772,8.658,8.658,0,0,0-1.17-.532,6.538,6.538,0,0,0-1.768-.37,4.48,4.48,0,0,0-1.028.006,8.524,8.524,0,0,0-1.781.34,12.348,12.348,0,0,0-1.682.716,14.778,14.778,0,0,0-2.467,1.706,17.9,17.9,0,0,0-1.631,1.5,27.462,27.462,0,0,0-2.35,2.823c-.031.042-.062.084-.092.127a3.053,3.053,0,0,0,3.447,4.483,3.447,3.447,0,0,0,1.824-1.4" transform="translate(-791.934 -454.948)" fill="#060000"/>
        <path id="パス_15" data-name="パス 15" d="M937.78,639.317q-.051.842-.1,1.685-.121,2.023-.242,4.045-.146,2.438-.293,4.876-.127,2.115-.254,4.231c-.041.685-.09,1.37-.123,2.056,0,.01,0,.019,0,.029a3.136,3.136,0,0,0,3.052,3.052,3.083,3.083,0,0,0,2.158-.894l.477-.618a3.038,3.038,0,0,0,.417-1.54q.05-.842.1-1.685.122-2.022.243-4.045.146-2.438.293-4.876.127-2.115.254-4.231c.041-.685.09-1.371.123-2.056l0-.029a3.138,3.138,0,0,0-3.052-3.052,3.085,3.085,0,0,0-2.158.894l-.477.618a3.041,3.041,0,0,0-.417,1.54" transform="translate(-708.194 -485.99)" fill="#060000"/>
        <path id="パス_16" data-name="パス 16" d="M920.484,731.641c.287-.083.575-.16.864-.236q1.232-.327,2.473-.622,1.922-.461,3.857-.868,2.529-.533,5.074-.985,3.014-.536,6.045-.959l.815-.112-.811.109q3.531-.474,7.081-.789,1.063-.093,2.126-.171l-3.052-3.052c.009.352,0,.705-.005,1.057-.021.921-.074,1.84-.154,2.758q-.09,1.035-.228,2.065.055-.406.109-.812c-.137,1.014-.309,2.023-.525,3.022a30.469,30.469,0,0,1-.857,3.171q-.3.891-.659,1.759l.308-.729a17.862,17.862,0,0,1-1.591,2.992q-.262.391-.551.765l.477-.617a11.478,11.478,0,0,1-2.02,2.044l.618-.477a9.637,9.637,0,0,1-2.122,1.245l.729-.307a9.8,9.8,0,0,1-2.47.669l.811-.109a9.512,9.512,0,0,1-2.506,0l.811.109a9.957,9.957,0,0,1-2.5-.69l.729.308a12.843,12.843,0,0,1-2.832-1.683l.618.477a19.387,19.387,0,0,1-2.895-2.815q-.371-.439-.721-.893l.477.618a32.975,32.975,0,0,1-2.4-3.6c-.638-1.1-1.222-2.229-1.761-3.38q-.367-.785-.7-1.584l.308.729c-.285-.676-.557-1.357-.8-2.049-.014-.039-.028-.078-.04-.117a3.411,3.411,0,0,0-1.4-1.824,2.271,2.271,0,0,0-1.135-.362,2.307,2.307,0,0,0-1.217.055,3.053,3.053,0,0,0-2.132,3.754c.218.651.475,1.29.738,1.923a51.63,51.63,0,0,0,2.468,5.219,35.925,35.925,0,0,0,4,5.824,20.254,20.254,0,0,0,2.28,2.315,17.66,17.66,0,0,0,3.167,2.234,16.867,16.867,0,0,0,2.1.921,9.825,9.825,0,0,0,1.48.413,11.846,11.846,0,0,0,4.775.072,12.057,12.057,0,0,0,3.7-1.243,9.584,9.584,0,0,0,1.284-.789,15.98,15.98,0,0,0,1.737-1.422,11.98,11.98,0,0,0,1-1.1,21.381,21.381,0,0,0,1.336-1.819,22.316,22.316,0,0,0,1.725-3.456,29.088,29.088,0,0,0,1.706-5.866,49.351,49.351,0,0,0,.745-5.906c.06-.913.1-1.83.089-2.745,0-.042,0-.084,0-.126a3.392,3.392,0,0,0-.894-2.158,3.014,3.014,0,0,0-2.158-.894q-4.439.325-8.854.912c-2.816.372-5.625.794-8.421,1.3q-3.058.552-6.094,1.22-2.045.452-4.075.966c-.561.143-1.124.285-1.681.448l-.021.006a3.409,3.409,0,0,0-1.824,1.4,2.269,2.269,0,0,0-.362,1.135,2.311,2.311,0,0,0,.054,1.217,3.088,3.088,0,0,0,1.4,1.824,3.152,3.152,0,0,0,2.352.308" transform="translate(-694.165 -544.909)" fill="#060000"/>
        <path id="パス_17" data-name="パス 17" d="M896.713,645.831a3.137,3.137,0,0,0,3.052-3.052,3.084,3.084,0,0,0-.893-2.158,3.172,3.172,0,0,0-2.158-.894,3.138,3.138,0,0,0-3.052,3.052,3.086,3.086,0,0,0,.894,2.158,3.173,3.173,0,0,0,2.158.894" transform="translate(-678.187 -488.4)" fill="#060000"/>
        <path id="パス_18" data-name="パス 18" d="M1012.492,632.362a3.138,3.138,0,0,0,3.052-3.052,3.087,3.087,0,0,0-.894-2.158,3.172,3.172,0,0,0-2.158-.894,3.137,3.137,0,0,0-3.052,3.052,3.083,3.083,0,0,0,.894,2.158,3.171,3.171,0,0,0,2.158.894" transform="translate(-758.787 -479.024)" fill="#060000"/>
        <path id="パス_19" data-name="パス 19" d="M863.375,595.249a4.575,4.575,0,0,1,.338-.485l-.477.618a8.568,8.568,0,0,1,1.538-1.525l-.618.477A8.886,8.886,0,0,1,866.1,593.2l-.729.308a9.23,9.23,0,0,1,2.322-.63l-.811.109a11.018,11.018,0,0,1,2.884.013l-.812-.109a15.834,15.834,0,0,1,3.832,1.057,2.312,2.312,0,0,0,1.217.054,2.272,2.272,0,0,0,1.135-.362,3.419,3.419,0,0,0,1.4-1.824q.055-.406.109-.812a3.038,3.038,0,0,0-.417-1.54l-.477-.618a3.049,3.049,0,0,0-1.347-.785,17.294,17.294,0,0,0-5.572-1.253,10.641,10.641,0,0,0-1.955.074,13.429,13.429,0,0,0-2.415.472,11.369,11.369,0,0,0-3.235,1.592,11.971,11.971,0,0,0-2.094,1.849c-.316.373-.619.759-.9,1.161-.049.07-.1.141-.14.215a2.27,2.27,0,0,0-.362,1.135,3.136,3.136,0,0,0,1.457,3.041,3.081,3.081,0,0,0,2.352.307,3.178,3.178,0,0,0,1.824-1.4" transform="translate(-653.144 -451.55)" fill="#060000"/>
        <path id="パス_20" data-name="パス 20" d="M983.5,585.365c.105-.1.219-.188.333-.276l-.618.477a11.268,11.268,0,0,1,2.5-1.431l-.729.308a12.982,12.982,0,0,1,3.293-.894l-.811.109a14.064,14.064,0,0,1,3.682.011l-.812-.109a17.39,17.39,0,0,1,4.411,1.236,2.311,2.311,0,0,0,1.217.055,2.274,2.274,0,0,0,1.135-.362,3.414,3.414,0,0,0,1.4-1.824l.109-.811a3.036,3.036,0,0,0-.417-1.541l-.477-.618a3.051,3.051,0,0,0-1.347-.785,18.53,18.53,0,0,0-2.536-.867,21.343,21.343,0,0,0-3.034-.521,16.534,16.534,0,0,0-4.663.22,15.911,15.911,0,0,0-3.673,1.194,11.666,11.666,0,0,0-1.895,1.045,11.494,11.494,0,0,0-1.382,1.066,3.138,3.138,0,0,0,0,4.316,3.07,3.07,0,0,0,2.158.894l.811-.109a3.048,3.048,0,0,0,1.347-.785" transform="translate(-737.098 -445.043)" fill="#060000"/>
        <path id="パス_21" data-name="パス 21" d="M912.934,540.534a21.713,21.713,0,0,0,1.554-2.947,35.927,35.927,0,0,0,2.644-8.078,31.488,31.488,0,0,0-2.955-20.7,37.714,37.714,0,0,0-3.08-4.823c-.691-.936-1.406-1.855-2.121-2.773q-.416-.535-.833-1.069l-.208-.269c-.307-.395.5.656.2.258-.161-.211-.324-.422-.484-.634a45.811,45.811,0,0,1-3.247-4.809,32.268,32.268,0,0,1-1.47-2.879c-.056-.124-.108-.249-.164-.372-.229-.506.3.743.094.223-.1-.261-.21-.52-.311-.782q-.339-.887-.627-1.793a37.458,37.458,0,0,1-.968-3.708q-.214-1.032-.379-2.073c-.04-.253-.151-1.5-.076-.472-.032-.447-.111-.894-.158-1.341a81.952,81.952,0,0,1-.234-11.033,56.281,56.281,0,0,0-2.8-19.572,50.79,50.79,0,0,0-22.705-27.907,50.186,50.186,0,0,0-16.981-6,56.845,56.845,0,0,0-19.814.43,60.553,60.553,0,0,0-31.332,16.2,48.13,48.13,0,0,0-7.691,10.1,56.783,56.783,0,0,0-6,15.464,55.275,55.275,0,0,0-1.41,12.16c-.006,3.131.037,6.262.075,9.393.081,6.88.181,13.763.034,20.643-.065,3.057-.177,6.116-.416,9.166-.1,1.333-.25,2.66-.407,3.987.136-1.153.008-.069-.033.2s-.085.55-.132.824c-.094.551-.2,1.1-.323,1.646a18.764,18.764,0,0,1-.733,2.489c-.221.59.381-.854.046-.124-.1.218-.2.435-.3.652q-.361.779-.716,1.56a77.686,77.686,0,0,0-3.189,8.029,40.575,40.575,0,0,0-1.368,21.533,35.174,35.174,0,0,0,5.058,11.55,3.053,3.053,0,1,0,5.271-3.081c-.6-.9-1.169-1.827-1.689-2.78q-.373-.686-.714-1.389-.167-.345-.326-.693c-.057-.125-.535-1.1-.191-.425a22.22,22.22,0,0,1-1.672-5.484q-.139-.672-.247-1.35c-.035-.222-.079-.448-.1-.671.081.851.017.081,0-.079q-.144-1.314-.18-2.637a38.752,38.752,0,0,1,.255-5.29c.079-.727-.11.715,0,0,.03-.2.059-.4.091-.606q.08-.5.171-1,.233-1.266.542-2.517c.358-1.458.788-2.9,1.274-4.318.459-1.34.972-2.659,1.515-3.968.232-.561-.3.7-.063.151.041-.094.081-.189.122-.283q.178-.413.36-.824.367-.828.746-1.649a26.073,26.073,0,0,0,2.055-5.781,64.36,64.36,0,0,0,1-7.839c.487-6.374.5-12.783.469-19.172-.029-6.561-.175-13.121-.175-19.682a51.444,51.444,0,0,1,.317-5.763c.027-.232.056-.464.084-.7.1-.792-.107.678.016-.1.071-.449.137-.9.214-1.348q.225-1.3.514-2.592a55.363,55.363,0,0,1,2.84-8.977c.08-.194.342-.754-.054.124.066-.146.126-.294.19-.44q.155-.355.315-.707.383-.846.8-1.678.617-1.244,1.3-2.453c.41-.72.862-1.41,1.3-2.112.206-.331.4-.669.615-1,.248-.378.506-.75.771-1.117q.249-.346.507-.687c.164-.217.558-.7-.193.246.12-.151.239-.3.359-.456a49.116,49.116,0,0,1,8.1-7.968c.169-.133.633-.466-.152.115.12-.089.238-.181.357-.271q.364-.274.732-.543.826-.6,1.674-1.17,1.665-1.117,3.408-2.112,1.876-1.071,3.831-2,.51-.242,1.025-.474a5.883,5.883,0,0,0,1.053-.462c-.567.423-.3.123-.012.007l.546-.221q.648-.259,1.3-.5a63.83,63.83,0,0,1,9.972-2.807c.868-.171,1.739-.327,2.613-.462l.575-.086c.691-.1-.738.09-.046,0,.445-.055.889-.109,1.335-.155q2.258-.232,4.53-.27,2.222-.035,4.442.125,1.093.079,2.183.206c.18.021.361.044.541.066.666.081-.754-.111-.092-.012.358.054.715.106,1.072.165a48.26,48.26,0,0,1,8.436,2.191q.993.357,1.969.758c.193.079.741.368-.082-.036.156.077.322.139.482.209q.48.212.956.434,1.974.924,3.857,2.028,1.8,1.055,3.5,2.267.424.3.841.614c.138.1.273.217.415.314-.745-.51-.23-.178-.069-.051q.818.646,1.607,1.327a46.79,46.79,0,0,1,5.921,6.144c.11.137.218.275.327.412.4.505-.435-.578-.048-.061.211.282.422.563.629.848q.622.858,1.2,1.743,1.224,1.859,2.271,3.828.465.873.893,1.765.235.489.459.983.112.248.221.5c.087.2.364,1.007.051.107.484,1.39,1.071,2.735,1.516,4.141q.679,2.146,1.165,4.348.248,1.118.446,2.247.1.57.188,1.141c.029.191.056.383.085.575q.069.5-.03-.233.025.193.049.386c.847,6.852-.112,13.744.733,20.6a40.264,40.264,0,0,0,4.72,15.206,45,45,0,0,0,3.24,4.826c.682.9,1.378,1.793,2.072,2.685l.416.534.208.267c.306.393-.5-.657-.2-.261.274.359.549.718.819,1.08a39.383,39.383,0,0,1,3.11,4.773q.353.652.672,1.32.15.315.293.633c.043.1.086.2.129.294.207.461-.33-.822-.055-.129a28.362,28.362,0,0,1,1.558,5.308c.009.048.217,1.161.189,1.168l-.049-.349q.028.229.052.46.036.341.063.684a27.779,27.779,0,0,1,.078,2.878q-.031,1.26-.171,2.514c-.012.1-.167.694-.02.2s-.014.093-.029.189q-.1.674-.235,1.343a32.5,32.5,0,0,1-1.146,4.251q-.27.788-.58,1.562c-.051.128-.117.258-.159.39.287-.91.2-.469.1-.235-.117.265-.234.53-.357.792a20.943,20.943,0,0,1-1.4,2.618,3.075,3.075,0,0,0,1.095,4.176,3.122,3.122,0,0,0,4.176-1.1" transform="translate(-601.177 -332.873)" fill="#060000"/>
        <path id="パス_22" data-name="パス 22" d="M797.378,838.872l.208,3.535q.166,2.822.332,5.644.038.653.077,1.307l1.512-2.635-4.747,2.164-7.507,3.422-1.728.787.729-.307-1.47.2-.89.12.811-.109q-2.941.395-5.883.777-3.986.518-7.976,1.011-4.3.531-8.609,1.019c-2.623.294-5.247.574-7.876.81-1.888.169-3.784.337-5.681.375-.159,0-.318,0-.477,0a3.153,3.153,0,0,0-2.158.894,3.052,3.052,0,0,0,0,4.316,3.169,3.169,0,0,0,2.158.894c1.539,0,3.08-.124,4.614-.248,2.2-.178,4.4-.4,6.6-.634q3.8-.4,7.592-.862t7.6-.936q3.266-.414,6.53-.844,2.641-.348,5.281-.7l1.165-.158a3.28,3.28,0,0,0,1.058-.364q1.761-.8,3.518-1.6l6.066-2.765,4.148-1.891.214-.1a3.049,3.049,0,0,0,1.512-2.635l-.208-3.535-.332-5.644-.077-1.307a3.23,3.23,0,0,0-.894-2.158,3.053,3.053,0,0,0-4.316,0,3.044,3.044,0,0,0-.894,2.158" transform="translate(-574.804 -624.909)" fill="#060000"/>
        <path id="パス_23" data-name="パス 23" d="M614.676,791.317l1.419-7.148.2-1.015-.308.729a22.373,22.373,0,0,0,1.441-6.134,40.971,40.971,0,0,0,.28-10.778,22.442,22.442,0,0,0-1.318-5.637,28.421,28.421,0,0,1-.96-2.812c-.7-2.442-1.231-4.935-1.736-7.425-1.075-5.3-1.908-10.654-3.2-15.9-.227-.921-.471-1.841-.777-2.74a10.513,10.513,0,0,0-1.068-2.442,4.008,4.008,0,0,0-3.34-2.041,4.887,4.887,0,0,0-3.6,2.032,24.349,24.349,0,0,0-4.017,8.453,37.541,37.541,0,0,0-1.15,5.676,23.248,23.248,0,0,0-.176,4.854,20.746,20.746,0,0,0,.429,2.938l4.483-3.447a94.906,94.906,0,0,1-8.595-4.918c-1.117-.72-2.214-1.472-3.267-2.284l.618.477a14.83,14.83,0,0,1-2.7-2.535l.477.618a4.33,4.33,0,0,1-.531-.867l.308.729a28.249,28.249,0,0,0-1.894-3.448q-1.975-3.314-3.994-6.6-2.56-4.169-5.21-8.283c-1.646-2.542-3.322-5.07-5.108-7.517-.828-1.134-1.675-2.258-2.579-3.332a12.555,12.555,0,0,0-1.646-1.7c-.464-.376-.95-.7-1.423-1.066l.618.477a8.814,8.814,0,0,1-1.52-1.47l.477.618A21.006,21.006,0,0,0,564,705.3a3.316,3.316,0,0,0-3.206-.859,4.5,4.5,0,0,0-1.374.666,7.99,7.99,0,0,0-2.745,2.924,19.052,19.052,0,0,0-1.452,3.593,28.558,28.558,0,0,0-1.074,5.744q-.4,4.3-.586,8.611c-.182,4.069-.239,8.15-.034,12.22q.169,3.352.646,6.671a29.609,29.609,0,0,0,1.1,5,14.189,14.189,0,0,0,2.534,4.8c.413.5.912.936,1.368,1.393q2.857,2.872,5.689,5.769,4.034,4.1,8.061,8.216,3.794,3.87,7.585,7.743l4.251,4.343.2.2-.894-2.158q-.378,3.45-.757,6.9-.054.491-.108.982a3.048,3.048,0,0,0,.894,2.158,3.052,3.052,0,0,0,4.316,0l.477-.618a3.035,3.035,0,0,0,.417-1.54l.5-4.551q.147-1.343.295-2.686a3.255,3.255,0,0,0-.844-2.826c-1.385-1.474-2.832-2.894-4.246-4.339q-4.344-4.437-8.691-8.872-4.446-4.535-8.9-9.063c-1.618-1.644-3.222-3.3-4.871-4.916a6.258,6.258,0,0,1-.565-.629l.477.618a9.353,9.353,0,0,1-1.159-2.064l.308.729a26.278,26.278,0,0,1-1.6-6.623q.054.406.109.811a91.385,91.385,0,0,1-.564-14.341q.139-5.644.641-11.273c.063-.718.128-1.437.206-2.154q-.054.406-.109.811a23.9,23.9,0,0,1,1.467-5.274l-.308.729a8.753,8.753,0,0,1,1.069-1.931l-.478.618a3.826,3.826,0,0,1,.6-.613l-.618.477a5.461,5.461,0,0,1,1.034-.654l-.729.308a.7.7,0,0,1,.128-.041l-.811.109a.378.378,0,0,1,.062,0l-.811-.109a.239.239,0,0,1,.053.013l-.729-.308a.258.258,0,0,1,.046.028l-.618-.477a.43.43,0,0,1,.041.043l-.477-.618a2.879,2.879,0,0,1,.245.5,5.416,5.416,0,0,0,.563.924,10.631,10.631,0,0,0,1.6,1.778c.582.5,1.216.924,1.821,1.39l-.618-.477a16.454,16.454,0,0,1,2.69,2.986l-.477-.618c3.039,3.94,5.716,8.169,8.369,12.373q3.658,5.8,7.155,11.693.707,1.186,1.406,2.377l-.308-.729a9.759,9.759,0,0,0,2.729,3.765,38.119,38.119,0,0,0,4.267,3.241c2.505,1.682,5.127,3.192,7.784,4.62.585.314,1.172.626,1.764.926a3.068,3.068,0,0,0,4.484-3.447c-.1-.428-.174-.86-.233-1.3q.055.405.109.811a22.046,22.046,0,0,1,.088-5.685q-.054.406-.109.811a33.062,33.062,0,0,1,2.259-8.316l-.308.729a16.437,16.437,0,0,1,1.975-3.6l-.477.618a4.86,4.86,0,0,1,.843-.879l-.618.477a2.119,2.119,0,0,1,.4-.239l-.729.307a.893.893,0,0,1,.209-.067l-.811.109a.478.478,0,0,1,.106,0l-.811-.109a.554.554,0,0,1,.124.032l-.729-.308a.786.786,0,0,1,.159.093l-.618-.477a1.447,1.447,0,0,1,.246.254l-.477-.618a4.61,4.61,0,0,1,.542,1l-.308-.729a29.826,29.826,0,0,1,1.415,4.935c.537,2.365.992,4.749,1.447,7.131.93,4.87,1.751,9.8,3.094,14.575a27.58,27.58,0,0,0,.935,2.838,20.8,20.8,0,0,1,1.3,4.969q-.054-.405-.109-.812a38.045,38.045,0,0,1-.142,9.986l.109-.811c-.164,1.216-.369,2.428-.633,3.627a11.128,11.128,0,0,1-.5,1.846l.308-.729a6.34,6.34,0,0,0-.457,1.441l-.385,1.939q-.447,2.25-.894,4.5l-.207,1.042a3.26,3.26,0,0,0,.307,2.352,3.052,3.052,0,0,0,4.176,1.1,3.025,3.025,0,0,0,1.4-1.824" transform="translate(-441.318 -533.383)" fill="#060000"/>
        <path id="パス_24" data-name="パス 24" d="M573.936,976.094l10.332,1.973,16.475,3.146,3.791.724-2.24-2.943c-.131,4.086-.3,8.171-.465,12.255q-.621,14.895-1.466,29.779c-.7,12.284-1.521,24.563-2.573,36.823-.511,5.96-1.079,11.917-1.744,17.863q-.45,4.021-.971,8.033-.062.47-.124.94c-.08.606.108-.8.026-.191q-.032.231-.063.462-.135.986-.276,1.972-.261,1.821-.547,3.638a124.507,124.507,0,0,1-3.125,14.859c-.57,1.993-1.211,3.966-1.942,5.906q-.205.545-.42,1.086-.127.319-.257.637c-.056.138-.316.862-.04.1a26.485,26.485,0,0,1-1.175,2.566,44.884,44.884,0,0,1-2.433,4.362q-.595.934-1.244,1.833c-.149.205-.933,1.114-.269.375-.267.3-.5.63-.761.936a27.3,27.3,0,0,1-2.831,2.9q-.346.3-.7.594a1.866,1.866,0,0,0-.355.283c.313-.478.479-.357.141-.115-.515.369-1.033.729-1.574,1.06q-.725.442-1.484.823c-.248.125-.5.239-.752.357s-.66.168.224-.09c-.172.05-.34.138-.508.2a18.6,18.6,0,0,1-3.231.906c-.261.048-.529.073-.788.128,1.137-.245.193-.03-.113,0q-.8.072-1.6.078t-1.609-.052q-.4-.029-.808-.074c-.134-.015-.27-.04-.4-.049,1.088.07.4.054.136.011a24.1,24.1,0,0,1-3.39-.81q-.824-.259-1.629-.571c-.3-.116-1.1-.615-.22-.078a9.82,9.82,0,0,0-.948-.424,30.485,30.485,0,0,1-3.345-1.81q-.374-.237-.737-.492c-.12-.084-.236-.175-.356-.258-.47-.327.59.492.155.12-.48-.41-.959-.812-1.405-1.26-.412-.412-.792-.849-1.168-1.293-.207-.244-.231-.533.115.159a2.863,2.863,0,0,0-.263-.353q-.3-.417-.586-.851-.49-.755-.913-1.55-.216-.4-.414-.817c-.084-.174-.293-.913-.449-.988.194.095.285.706.1.221-.047-.123-.1-.245-.145-.369q-.172-.448-.329-.9-.349-1.011-.624-2.045a38.478,38.478,0,0,1-.876-4.255c-.027-.179-.045-.36-.077-.538.173.935.04.3.014.085q-.068-.553-.124-1.107-.124-1.234-.193-2.473c-.1-1.672-.122-3.348-.1-5.022a109.784,109.784,0,0,1,.75-10.969c.106-.931.2-1.865.345-2.791-.124.816,0,.011.019-.131q.049-.355.1-.711.118-.836.245-1.67.444-2.929.97-5.846c1.548-8.636,3.521-17.192,5.585-25.718,4.228-17.47,8.625-34.9,13.336-52.248,2.478-9.123,5.02-18.232,7.733-27.288q.176-.588.354-1.174a3.081,3.081,0,0,0-2.132-3.754,3.116,3.116,0,0,0-3.754,2.132c-.516,1.69-1.013,3.385-1.51,5.08q-2.084,7.116-4.068,14.26-3.094,11.1-6.014,22.253c-2.424,9.241-4.74,18.51-7.042,27.782-2.184,8.8-4.37,17.594-6.273,26.456a231.2,231.2,0,0,0-4.183,25.083,76.23,76.23,0,0,0,.322,21.077c.983,5.513,3.193,11.1,7.355,14.994a25.084,25.084,0,0,0,6.846,4.407,28.752,28.752,0,0,0,7.443,2.364,22.768,22.768,0,0,0,15.074-2.619c5.3-3.06,9.234-8.118,12.038-13.466a76.709,76.709,0,0,0,6.861-20.385c.985-4.842,1.7-9.734,2.361-14.629.752-5.608,1.376-11.232,1.934-16.862q.919-9.286,1.624-18.592.727-9.385,1.312-18.781.561-8.894,1.027-17.793.4-7.635.745-15.273.259-5.77.484-11.541.123-3.17.232-6.34.014-.411.028-.823a3.073,3.073,0,0,0-2.241-2.943l-10.332-1.973-16.475-3.146-3.791-.724a3.053,3.053,0,0,0-1.623,5.886" transform="translate(-433.482 -718.404)" fill="#060000"/>
        <path id="パス_25" data-name="パス 25" d="M1125.49,985.512l11.354-2.28,18.081-3.631,4.129-.829-3.755-2.132q1.5,6.1,2.941,12.206,3.516,14.795,6.844,29.633c2.712,12.1,5.327,24.232,7.746,36.4,2.184,10.984,4.245,22,5.773,33.1.078.571-.108-.82-.034-.251q.027.208.055.417.054.411.107.823.111.867.215,1.736.188,1.574.347,3.151c.317,3.168.519,6.348.522,9.533,0,1.974-.07,3.948-.238,5.915q-.057.661-.128,1.321-.035.324-.074.646c-.023.188-.038.9,0,.036a17.792,17.792,0,0,1-.4,2.442,40.461,40.461,0,0,1-1.142,4.618q-.316,1.007-.694,1.995c-.092.24-.6,1.311-.138.369-.169.345-.311.7-.476,1.051a25.219,25.219,0,0,1-1.848,3.246q-.249.368-.512.727a3.325,3.325,0,0,0-.263.351c.39-.724.309-.39.119-.163-.394.471-.792.936-1.221,1.376q-.576.593-1.2,1.135c-.2.178-.417.345-.625.519-.42.351.637-.464.192-.149-.146.1-.287.211-.433.314a18.428,18.428,0,0,1-2.862,1.65c-.12.055-.241.106-.36.162-.493.23.751-.3.243-.1-.205.079-.409.161-.615.237-.539.2-1.088.369-1.642.518q-.775.207-1.565.354c-.266.05-.533.089-.8.134-.553.1.832-.094.272-.036-.181.019-.362.042-.544.061a25,25,0,0,1-3.494.1q-.867-.034-1.731-.123c-.289-.029-.586-.093-.877-.1.005,0,.847.127.37.048-.2-.033-.394-.059-.59-.092a24.778,24.778,0,0,1-3.616-.83q-.4-.132-.8-.282a3.077,3.077,0,0,0-.393-.155c.8.178.5.22.213.085-.551-.259-1.093-.528-1.619-.835-.486-.285-.959-.594-1.416-.923a2.446,2.446,0,0,0-.342-.253c.662.305.432.345.168.127s-.518-.427-.769-.651a22.88,22.88,0,0,1-2.458-2.574c-.1-.118-.191-.24-.288-.358-.378-.456.447.611.1.128-.183-.255-.374-.5-.554-.76q-.6-.855-1.148-1.749a40.077,40.077,0,0,1-2.01-3.742q-.228-.482-.445-.969c-.1-.225-.528-1.375-.195-.434-.247-.7-.56-1.378-.82-2.073-.569-1.523-1.08-3.068-1.545-4.625-1.005-3.366-1.8-6.791-2.482-10.236q-.541-2.75-.983-5.517-.225-1.4-.43-2.795-.1-.709-.2-1.418-.05-.357-.1-.714c-.022-.159-.043-.318-.065-.477q.083.618.013.092c-1.075-8.31-1.79-16.66-2.386-25.017q-1.889-26.476-3.157-53c-.441-9.4-.828-18.8-1.053-28.206q-.015-.606-.027-1.212a3.052,3.052,0,0,0-6.1,0c.033,1.719.083,3.438.133,5.156q.217,7.331.524,14.66.474,11.547,1.105,23.086c.514,9.468,1.12,18.93,1.729,28.391.556,8.643,1.126,17.288,1.969,25.908a227.324,227.324,0,0,0,3.456,24.207,77.492,77.492,0,0,0,6.332,19.366c2.463,4.851,6,9.486,10.859,12.124a22.846,22.846,0,0,0,7.479,2.4,30.078,30.078,0,0,0,7.785.329,22.787,22.787,0,0,0,13.727-6.177c4.207-4.09,6.646-9.739,7.882-15.395a71.664,71.664,0,0,0,.864-22c-.455-4.821-1.136-9.623-1.881-14.407-.869-5.586-1.855-11.155-2.894-16.711q-1.73-9.245-3.643-18.453-1.926-9.341-3.971-18.657-1.928-8.809-3.934-17.6-1.733-7.6-3.515-15.192-1.349-5.743-2.725-11.481-.757-3.151-1.524-6.3l-.2-.812a3.117,3.117,0,0,0-3.755-2.132l-11.354,2.28L1128,978.8l-4.129.829a3.071,3.071,0,0,0-2.132,3.754,3.128,3.128,0,0,0,3.754,2.132" transform="translate(-836.879 -720.278)" fill="#060000"/>
        <path id="パス_26" data-name="パス 26" d="M1130.245,827.966q-.283-2.427-.54-4.856c-.316-2.947-.622-5.9-.852-8.851-.053-.682-.1-1.364-.138-2.046a6.56,6.56,0,0,1-.007-1.185q-.055.406-.109.811a11.333,11.333,0,0,1,.9-2.8l-.307.729a71.707,71.707,0,0,1,3.443-6.812c1.48-2.665,3.029-5.292,4.6-7.9,1.409-2.347,2.839-4.68,4.258-7.021.827-1.364,1.726-2.72,2.423-4.158a21.52,21.52,0,0,0,1.305-3.82c.4-1.47.773-2.948,1.284-4.384q.176-.5.379-.982l-.307.729a7.959,7.959,0,0,1,.932-1.7l-.477.618a3.225,3.225,0,0,1,.557-.574l-.618.477a1.975,1.975,0,0,1,.418-.244l-.729.308a1.591,1.591,0,0,1,.364-.1l-.812.109a1.585,1.585,0,0,1,.342,0l-.811-.109a1.514,1.514,0,0,1,.371.1l-.729-.307a1.506,1.506,0,0,1,.309.183l-.618-.477a2.273,2.273,0,0,1,.384.394l-.477-.618a4.7,4.7,0,0,1,.567,1.025l-.307-.729a17.714,17.714,0,0,1,1.033,4.416l-.109-.811a63.4,63.4,0,0,1,.5,7.979c0,.2,0,.4,0,.607a3.068,3.068,0,0,0,5.21,2.158q2.628-2.531,5.227-5.093c3.19-3.135,6.366-6.287,9.459-9.518.706-.738,1.384-1.507,2.11-2.224a24.5,24.5,0,0,1,2.236-1.924l-.618.477a60.217,60.217,0,0,1,10.536-6.324q1.46-.707,2.954-1.341l-.729.307a21.247,21.247,0,0,1,5.186-1.676l-.811.109a3.261,3.261,0,0,1,.822-.024l-.811-.109a1.145,1.145,0,0,1,.282.071l-.729-.307a.627.627,0,0,1,.127.073l-.618-.477a.479.479,0,0,1,.071.07l-.477-.617a.446.446,0,0,1,.05.083l-.307-.729a.68.68,0,0,1,.04.163q-.055-.406-.109-.812a2.746,2.746,0,0,1-.028.681l.109-.811a26.719,26.719,0,0,1-1.132,4.341c-.692,2.2-1.455,4.371-2.236,6.536-1.683,4.668-3.466,9.3-5.29,13.917-.639,1.617-1.276,3.236-1.944,4.843l.308-.729a13.389,13.389,0,0,1-1.845,2.837l.477-.618c-1.908,2.466-4.025,4.772-6.143,7.057-2.4,2.594-4.855,5.145-7.3,7.7-1.814,1.893-3.661,3.766-5.384,5.744a8.93,8.93,0,0,0-1.636,2.3,15.011,15.011,0,0,0-.729,3.415c-.458,2.8-.872,5.607-1.276,8.415l-.025.173a2.317,2.317,0,0,0-.055,1.217,2.268,2.268,0,0,0,.363,1.135,3.052,3.052,0,0,0,4.176,1.1,2.932,2.932,0,0,0,1.4-1.824c.469-3.273.94-6.549,1.505-9.808.07-.4.14-.8.22-1.2a3.376,3.376,0,0,1,.15-.634l-.308.729a2.614,2.614,0,0,1,.346-.522l-.477.618c.738-.951,1.58-1.827,2.4-2.706,1.293-1.383,2.6-2.749,3.915-4.115,3.114-3.249,6.239-6.491,9.246-9.84,1.267-1.411,2.52-2.84,3.693-4.331a18.573,18.573,0,0,0,2.534-3.7c.616-1.378,1.15-2.8,1.709-4.2q1.089-2.734,2.152-5.48c1.644-4.244,3.256-8.5,4.745-12.806.607-1.753,1.2-3.515,1.709-5.3a14.8,14.8,0,0,0,.763-3.923,3.6,3.6,0,0,0-1.775-3.207,5.211,5.211,0,0,0-3.491-.371,20.787,20.787,0,0,0-4.812,1.52,66.647,66.647,0,0,0-13.6,7.384,38.694,38.694,0,0,0-3.125,2.466c-.76.677-1.438,1.429-2.137,2.168-1.819,1.924-3.68,3.809-5.55,5.683q-4.609,4.62-9.3,9.152l-.531.512,5.21,2.158c.011-1.191-.025-2.384-.078-3.573a52.084,52.084,0,0,0-.816-7.573,16.093,16.093,0,0,0-1.1-3.489,5.3,5.3,0,0,0-2.272-2.586,4.669,4.669,0,0,0-5.452.888,10.555,10.555,0,0,0-2.26,3.928c-.888,2.31-1.315,4.759-2.115,7.095-.071.206-.146.409-.229.609l.308-.729a19.87,19.87,0,0,1-1.271,2.3c-.791,1.334-1.6,2.658-2.407,3.983-2.14,3.514-4.28,7.03-6.329,10.6a85.639,85.639,0,0,0-5.283,10.345,9.836,9.836,0,0,0-.889,3.651c.005,1.859.237,3.737.407,5.586.332,3.593.719,7.181,1.133,10.765.008.067.015.134.024.2a3.4,3.4,0,0,0,.894,2.158,3.052,3.052,0,0,0,4.316,0,2.944,2.944,0,0,0,.894-2.158" transform="translate(-837.547 -568.502)" fill="#060000"/>
        <path id="パス_27" data-name="パス 27" d="M937.126,907.074l-.28-1.221-.731-3.186q-.5-2.2-1.011-4.4l-1.14-4.969-1.1-4.792q-.445-1.94-.89-3.879l-.529-2.306c-.025-.109-.047-.22-.075-.328l-.308-.729c-10.111-19.137-.278-.436-.477-.618l0,0-.026-.023-.112-.1-.436-.385-3.373-2.976-2.881-2.542-.158-.14a3.138,3.138,0,0,0-4.316,0,3.071,3.071,0,0,0-.894,2.158l.109.811a3.047,3.047,0,0,0,.785,1.347l2.359,2.082,3.764,3.32.868.767-.785-1.347.154.668.42,1.829.618,2.695.758,3.3q.414,1.8.827,3.6l.834,3.635.781,3.405.657,2.864.473,2.061c.075.327.147.655.225.981l.01.042a3.411,3.411,0,0,0,1.4,1.824,2.27,2.27,0,0,0,1.135.362,2.308,2.308,0,0,0,1.217-.054,3.088,3.088,0,0,0,1.824-1.4l.308-.729a3.073,3.073,0,0,0,0-1.623" transform="translate(-695.397 -650.537)" fill="#060000"/>
        <path id="パス_28" data-name="パス 28" d="M980.61,884.549l-3.2,1.378-5.925,2.548-2.255.97-.643.277-.17.073-.038.016-.009,0h0a1.6,1.6,0,0,0-.618.477,3.05,3.05,0,0,0-.785,1.347q-.309.774-.615,1.548l-1.607,4.044-2.22,5.589L960.063,909l-2.3,5.791-1.794,4.515-.9,2.254-.039.1a2.311,2.311,0,0,0-.055,1.217,2.273,2.273,0,0,0,.362,1.135,3.418,3.418,0,0,0,1.824,1.4,3.091,3.091,0,0,0,2.352-.308l.618-.477a3.051,3.051,0,0,0,.785-1.347l.318-.8.87-2.19,1.282-3.228,1.564-3.937,1.72-4.329,1.73-4.353,1.612-4.059,1.363-3.431.981-2.468c.155-.39.312-.78.465-1.171l.02-.051-1.4,1.824,1.214-.522,2.933-1.261,3.533-1.519,3.056-1.314c.5-.213,1-.418,1.49-.641l.022-.009a2.942,2.942,0,0,0,1.457-3.041,2.274,2.274,0,0,0-.362-1.135,3.084,3.084,0,0,0-1.824-1.4l-.811-.109a3.036,3.036,0,0,0-1.541.417" transform="translate(-720.836 -658.543)" fill="#060000"/>
        <path id="パス_29" data-name="パス 29" d="M868.812,894.36q-.025.373-.049.747-.067,1.016-.134,2.033-.1,1.5-.2,3.007-.122,1.835-.243,3.669-.133,2.01-.266,4.019-.134,2.037-.269,4.075-.125,1.892-.25,3.783-.106,1.6-.212,3.2l-.152,2.3c-.024.363-.053.726-.072,1.089,0,.016,0,.031,0,.047q.054.406.109.811l.308.729.477.618a2.284,2.284,0,0,0,.982.631,1.521,1.521,0,0,0,.77.208,1.537,1.537,0,0,0,.811,0,1.519,1.519,0,0,0,.77-.208,2.284,2.284,0,0,0,.982-.631l.4-.5,1.1-1.365,1.613-2.01,1.967-2.452,2.165-2.7,2.175-2.712,2.029-2.529,1.723-2.148,1.233-1.536.585-.729.026-.032a3.139,3.139,0,0,0,0-4.316,3.072,3.072,0,0,0-2.158-.894l-.812.109a3.052,3.052,0,0,0-1.347.785l-.4.5-1.1,1.365-1.613,2.01-1.967,2.452-2.165,2.7-2.175,2.712-2.029,2.529-1.723,2.147-1.233,1.537c-.195.243-.392.485-.585.729l-.026.032,5.21,2.158q.025-.374.049-.747.068-1.016.135-2.033l.2-3.007q.121-1.835.243-3.669.133-2.01.266-4.019l.27-4.074q.125-1.892.25-3.783.105-1.6.211-3.2.076-1.149.152-2.3c.024-.363.051-.726.072-1.089,0-.015,0-.031,0-.047a3.138,3.138,0,0,0-3.052-3.052,3.084,3.084,0,0,0-2.158.894l-.478.618a3.042,3.042,0,0,0-.417,1.541" transform="translate(-659.602 -663.536)" fill="#060000"/>
        <path id="パス_30" data-name="パス 30" d="M1019.27,934.07l1.228,1.418,2.949,3.406,3.568,4.121,3.084,3.563c.5.577.992,1.16,1.5,1.731l.021.024a3.139,3.139,0,0,0,4.316,0,3.072,3.072,0,0,0,.894-2.158q-.055-.406-.109-.811a3.047,3.047,0,0,0-.785-1.347l-1.228-1.419-2.949-3.407-3.568-4.121-3.084-3.563c-.5-.577-.992-1.16-1.5-1.731l-.021-.024a3.139,3.139,0,0,0-4.316,0,3.072,3.072,0,0,0-.894,2.158q.055.406.109.812a3.051,3.051,0,0,0,.785,1.347" transform="translate(-765.006 -689.679)" fill="#060000"/>
        <path id="パス_31" data-name="パス 31" d="M741.306,989.467c-2.987,12.041-5.585,24.195-7.906,36.38-1.889,9.916-3.572,19.888-4.689,29.924a179.164,179.164,0,0,0-.939,23.473c.372,18.589,1.9,37.153,3.345,55.683.576,7.385,1.189,14.769,1.646,22.162a83.305,83.305,0,0,1-.087,13.2c-.739,7.774-1.746,15.525-2.752,23.268q-.388,2.984-.785,5.967-.089.672-.179,1.343c-.031.232-.22,1.64-.094.7q-.176,1.308-.353,2.616-.469,3.456-.948,6.91-.065.468-.131.938a3.156,3.156,0,0,0,2.131,3.755c1.429.393,3.524-.489,3.755-2.132,1.776-12.657,3.492-25.331,4.9-38.034a93.609,93.609,0,0,0,.861-14.518c-.288-6.511-.84-13.012-1.344-19.509-1.437-18.522-2.992-37.051-3.671-55.621a214.181,214.181,0,0,1,.1-23.266c.161-2.223.372-4.441.615-6.655q.185-1.684.395-3.365.107-.858.219-1.715c.008-.058.134-1.009.044-.342q.078-.581.159-1.161c.691-4.973,1.5-9.93,2.374-14.874,2.542-14.35,5.586-28.628,9.041-42.787q.087-.357.175-.714a3.053,3.053,0,1,0-5.886-1.623" transform="translate(-562.439 -730.316)" fill="#060000"/>
        <path id="パス_32" data-name="パス 32" d="M649.439,1044.085l.65.135,1.757.365,2.611.542,3.17.658,3.489.724,3.522.731,3.269.679,2.775.576,1.987.412c.315.066.631.132.946.2l.04.009a2.317,2.317,0,0,0,1.217.054,2.267,2.267,0,0,0,1.135-.362,3.415,3.415,0,0,0,1.4-1.824q.054-.406.109-.811a3.052,3.052,0,0,0-2.241-2.943l-.65-.135-1.757-.365-2.611-.542-3.17-.658-3.489-.724-3.522-.731-3.269-.678-2.775-.576-1.987-.412c-.315-.066-.631-.132-.946-.2l-.04-.008a2.309,2.309,0,0,0-1.217-.054,2.272,2.272,0,0,0-1.135.362,3.414,3.414,0,0,0-1.4,1.824l-.109.811a3.051,3.051,0,0,0,2.241,2.943" transform="translate(-506.615 -765.718)" fill="#060000"/>
        <path id="パス_33" data-name="パス 33" d="M1153.658,1049.191l.724-.146,1.958-.4,2.893-.584,3.546-.716,3.868-.78,3.9-.788,3.656-.738,3.077-.621,2.222-.448c.349-.07.7-.138,1.048-.211l.045-.009a3.147,3.147,0,0,0,2.132-3.755,3.088,3.088,0,0,0-1.4-1.824l-.729-.307a3.078,3.078,0,0,0-1.623,0l-.724.146-1.958.4-2.894.584-3.546.716-3.867.78-3.9.788-3.656.738-3.077.621-2.222.449c-.349.071-.7.138-1.048.212l-.045.009a3.4,3.4,0,0,0-1.824,1.4,2.264,2.264,0,0,0-.362,1.134,2.31,2.31,0,0,0,.054,1.217,3.088,3.088,0,0,0,1.4,1.824l.729.307a3.08,3.08,0,0,0,1.622,0" transform="translate(-856.494 -765.49)" fill="#060000"/>
        <path id="パス_34" data-name="パス 34" d="M1271.808,905.854c1.876,1.168,3.719,2.392,5.547,3.633q2.646,1.8,5.231,3.682.651.477,1.3.961.357.268.713.538l.323.246c.4.307.146.118-.1-.081.917.733,1.844,1.451,2.744,2.2a45.874,45.874,0,0,1,4.4,4.107c.286.311.562.631.832.957.5.605-.428-.6-.032-.047.112.155.225.309.332.468a8.562,8.562,0,0,1,.51.852c.167.325.179.778-.113-.314.019.069.055.133.074.2.086.309.151.614.21.93.1.555-.085-.725-.063-.483.009.1.024.2.034.295.027.249.047.5.063.75.079,1.2.078,2.4.056,3.6-.154,8.615-1.146,17.238-2.009,25.8-1.328,13.176-2.783,26.339-4.134,39.513-1.583,15.44-3.056,30.892-4.234,46.369q-.225,2.951-.435,5.9a3.068,3.068,0,0,0,3.052,3.052,3.126,3.126,0,0,0,3.052-3.052c1.124-15.8,2.576-31.568,4.166-47.325,1.373-13.615,2.868-27.218,4.267-40.831.949-9.223,2-18.48,2.333-27.751a35.856,35.856,0,0,0-.3-7.675,8.031,8.031,0,0,0-1.408-3.135,28.778,28.778,0,0,0-4.066-4.515,106.767,106.767,0,0,0-11.162-8.737q-3.789-2.661-7.7-5.144c-.134-.084-.268-.169-.4-.253a3.082,3.082,0,0,0-4.176,1.095,3.116,3.116,0,0,0,1.1,4.176" transform="translate(-940.4 -669.71)" fill="#060000"/>
        <path id="パス_35" data-name="パス 35" d="M1172.173,1468.272q-.223,1.838-.436,3.677-.511,4.389-.99,8.783c-.39,3.592-.763,7.185-1.1,10.783-.293,3.135-.57,6.275-.737,9.42a20.709,20.709,0,0,0,.175,5.781c.416,1.774.715,3.579,1.043,5.37q.866,4.718,1.69,9.443.935,5.31,1.854,10.621.794,4.588,1.582,9.178.416,2.422.83,4.844l.038.226a3.065,3.065,0,0,0,1.4,1.824,3.052,3.052,0,0,0,4.176-1.095,3.476,3.476,0,0,0,.308-2.352q-.323-1.893-.647-3.786-.786-4.583-1.578-9.165-.971-5.608-1.954-11.213-.882-5.018-1.792-10.03c-.343-1.869-.666-3.747-1.091-5.6-.025-.109-.047-.216-.062-.326q.054.405.109.811a14.4,14.4,0,0,1-.067-2.147c.019-1.124.078-2.247.146-3.369.187-3.054.459-6.1.747-9.151q.479-5.057,1.036-10.107.455-4.194.943-8.384c.154-1.326.354-2.653.471-3.982,0-.018,0-.037.007-.055a3.043,3.043,0,0,0-.894-2.158,3.054,3.054,0,0,0-4.317,0l-.477.618a3.038,3.038,0,0,0-.416,1.54" transform="translate(-869.724 -1063.063)" fill="#060000"/>
        <path id="パス_36" data-name="パス 36" d="M750.231,1595.765c2.106.586,4.251,1.05,6.388,1.5,6.047,1.28,12.151,2.257,18.277,3.07q13.361,1.773,26.854,2.248a287.227,287.227,0,0,0,33.73-.744,276.272,276.272,0,0,0,39.454-6.052q2.48-.569,4.947-1.188a3.053,3.053,0,0,0-1.623-5.886q-9.915,2.479-20,4.187-2.49.423-4.988.8-1.117.168-2.235.326l-1.054.147c-.234.032-.467.066-.7.1.82-.106.008,0-.121.016q-4.7.617-9.414,1.073a285.845,285.845,0,0,1-34.406,1.232q-13.819-.332-27.565-1.99-1.44-.176-2.878-.366c-.766-.1.772.1,0,0l-.67-.092q-.657-.091-1.314-.186-2.513-.361-5.018-.772-4.084-.671-8.143-1.49c-2.616-.531-5.2-1.154-7.8-1.787l-.1-.027a3.053,3.053,0,0,0-1.622,5.886" transform="translate(-576.798 -1148.966)" fill="#060000"/>
        <path id="パス_37" data-name="パス 37" d="M1029.055,800.791a40.349,40.349,0,0,0-7.943,24.383,41.364,41.364,0,0,0,2.271,13.024c1.441,4.248,3.32,8.368,4.295,12.763.112.507.212,1.017.3,1.529.023.136.043.273.064.41.094.595-.019-.192-.026-.2a3.94,3.94,0,0,1,.094.928,19.773,19.773,0,0,1-.005,3.334c-.016.179.025.589-.078.723.142-.184.091-.6.02-.2-.024.136-.046.273-.071.408q-.15.814-.365,1.615t-.489,1.584c-.091.262-.187.522-.287.78q-.056.145-.115.29c-.165.411-.144.206.027-.056a16.234,16.234,0,0,0-.712,1.513q-.378.748-.8,1.476c-.557.972-1.161,1.916-1.8,2.835q-.451.649-.924,1.284-.26.35-.525.7l-.266.347c-.257.336.454-.584.01-.013-.829,1.067-1.665,2.129-2.465,3.218a25.133,25.133,0,0,0-5.066,13.335,24.493,24.493,0,0,0,3.423,13.779c1.143,2.008,2.462,3.908,3.672,5.875.6.97,1.164,1.959,1.67,2.981q.166.335.322.675c.06.129.115.26.175.389.177.382-.209-.534-.059-.141.2.529.4,1.054.57,1.6.154.5.286,1.013.39,1.528.027.138.049.276.077.413.108.533-.017-.107-.017-.189,0,.309.067.632.082.943a10.906,10.906,0,0,1-.016,1.419,3.264,3.264,0,0,0-.033.34c-.023-.707.088-.556.037-.3s-.095.506-.156.758c-.1.42-.243.823-.385,1.231-.162.467.083-.215.111-.253a2.278,2.278,0,0,0-.144.31c-.112.23-.233.456-.362.676-.1.17-.206.338-.317.5a2.243,2.243,0,0,0-.195.276c.233-.518.351-.428.167-.221a13.147,13.147,0,0,1-.932.95c-.354.325.193-.145.231-.167-.092.055-.179.131-.269.191q-.274.185-.564.344c-.277.151-.851.27-.024.042-.215.059-.423.15-.639.212a3.053,3.053,0,1,0,1.623,5.886c4.724-1.362,7.435-5.845,7.933-10.52.517-4.852-1.9-9.617-4.4-13.594-1.229-1.954-2.538-3.861-3.638-5.892-.274-.505-.534-1.018-.776-1.539-.045-.1-.089-.2-.134-.294-.23-.5.034.054.051.135a7.859,7.859,0,0,0-.34-.881,19.856,19.856,0,0,1-.867-3.265c-.018-.1-.035-.2-.051-.3l-.016-.1q-.059-.4,0,0c.009.068.018.135.027.2q-.019-.153-.036-.305-.022-.2-.041-.408-.078-.868-.083-1.741-.005-.769.048-1.537.028-.409.072-.817c.011-.1.032-.205.035-.306-.018.829-.029.221.007,0a20.531,20.531,0,0,1,.782-3.182q.13-.389.275-.772.055-.143.111-.287c.047-.118.264-.486.042-.109s0,.007.053-.1.115-.248.175-.371q.207-.427.434-.843a28.5,28.5,0,0,1,1.864-2.933c.316-.444.641-.881.97-1.315l.265-.347c.064-.084.355-.463.094-.124s.031-.039.1-.123l.335-.432a60.548,60.548,0,0,0,4.275-6.012,26.329,26.329,0,0,0,4.089-13.75c-.075-4.76-1.635-9.28-3.286-13.687-.8-2.131-1.613-4.258-2.275-6.436-.314-1.035-.592-2.081-.818-3.139q-.163-.763-.292-1.533c-.037-.224-.07-.45-.106-.674-.085-.528.021.173.028.232-.021-.194-.05-.387-.072-.581a37.181,37.181,0,0,1-.187-6.23q.04-.731.107-1.459.036-.389.079-.776c.011-.1.022-.194.034-.291s.024-.194.036-.291q.046-.358-.044.328a9.218,9.218,0,0,0,.233-1.445q.147-.816.331-1.625a40.7,40.7,0,0,1,1.871-5.95c.12-.306.193-.105-.083.189a1.784,1.784,0,0,0,.155-.358q.157-.357.321-.711.328-.708.686-1.4.716-1.385,1.549-2.707c.556-.88,1.151-1.734,1.78-2.563a3.06,3.06,0,0,0,.308-2.352,3.113,3.113,0,0,0-1.4-1.824,3.08,3.08,0,0,0-2.352-.308,3.583,3.583,0,0,0-1.824,1.4" transform="translate(-762.067 -599.467)" fill="#060000"/>
        <path id="パス_38" data-name="パス 38" d="M1036.327,1176.287a30.183,30.183,0,0,0,7.749.494,30.824,30.824,0,0,0,7.652-1.494,33.185,33.185,0,0,0,3.92-1.623,24.283,24.283,0,0,0,2.841-1.63,26.476,26.476,0,0,0,3.058-2.384,20.423,20.423,0,0,0,4.176-5.428,15.652,15.652,0,0,0,1.287-3.544q.08-.376.135-.756a2.314,2.314,0,0,0,.055-1.217,2.279,2.279,0,0,0-.362-1.135,3.417,3.417,0,0,0-1.824-1.4l-.811-.109a3.035,3.035,0,0,0-1.541.417l-.618.477a3.05,3.05,0,0,0-.785,1.347,12.145,12.145,0,0,1-.823,2.927l.308-.729a14.459,14.459,0,0,1-1.884,3.185l.478-.618a18.921,18.921,0,0,1-3.386,3.34l.618-.477a24.354,24.354,0,0,1-5.362,3.085l.729-.308a27.639,27.639,0,0,1-6.984,1.907l.812-.109a27.427,27.427,0,0,1-7.239.014l.811.109q-.7-.093-1.387-.223a2.311,2.311,0,0,0-1.217-.054,2.273,2.273,0,0,0-1.135.362,3.41,3.41,0,0,0-1.4,1.824q-.054.405-.109.812a3.037,3.037,0,0,0,.417,1.54,3,3,0,0,0,1.824,1.4" transform="translate(-775.944 -847.842)" fill="#060000"/>
        <path id="パス_39" data-name="パス 39" d="M876.565,518.642c.5-.04,1.005-.045,1.507-.048,1.406-.009,2.813.056,4.214.167q1.691.134,3.374.362l-.811-.109q3.269.44,6.487,1.189a75.215,75.215,0,0,1,7.7,2.225q2.4.832,4.736,1.819l-.729-.308a81.877,81.877,0,0,1,14.245,7.784q2.139,1.459,4.188,3.044l-.618-.477a92.252,92.252,0,0,1,8.262,7.233q1.177,1.161,2.314,2.361a3.052,3.052,0,0,0,4.316,0,3.07,3.07,0,0,0,.894-2.158,3.25,3.25,0,0,0-.894-2.158,94.932,94.932,0,0,0-16.5-13.863,82.489,82.489,0,0,0-7.809-4.556,87.1,87.1,0,0,0-8.049-3.6q-3.356-1.308-6.825-2.3-3-.857-6.072-1.458c-1.955-.381-3.926-.675-5.9-.907-1.343-.158-2.691-.274-4.041-.339-.9-.043-1.808-.065-2.713-.054-.407.005-.816.014-1.222.042l-.05,0a3.261,3.261,0,0,0-2.158.894,3.052,3.052,0,0,0,0,4.316,3.006,3.006,0,0,0,2.158.894" transform="translate(-664.162 -399.825)" fill="#060000"/>
      </g>
      <path id="パス_1-2" data-name="パス 1" d="M458.259,605.419l-3.775-10.381c8.009-2.912,11-7.674,11.118-7.875-.027.045-.04.069-.04.069l9.591,5.48a23.513,23.513,0,0,1-4.144,5,36.994,36.994,0,0,1-12.75,7.708" transform="translate(862.777 9668.758)" fill="#fff000"/>
      <path id="パス_3-2" data-name="パス 3" d="M1379.869,435.261c-4.909-2.182-8.49-6.406-10.358-12.215a27.452,27.452,0,0,1-1.314-7.751h11.046v-.034c0,.077.157,7.7,5.112,9.906Z" transform="translate(231.673 9787.492)" fill="#ff930f"/>
      <rect id="長方形_2-2" data-name="長方形 2" width="15.851" height="11.046" transform="translate(1340.594 10175.816)" fill="#ff930f"/>
      <rect id="長方形_4-2" data-name="長方形 4" width="19.823" height="11.046" transform="translate(1570.987 10147.348) rotate(-41.186)" fill="#ff930f"/>
      <rect id="長方形_6-2" data-name="長方形 6" width="17.192" height="11.046" transform="translate(1278.258 10137.986) rotate(-40.601)" fill="#ff930f"/>
      <path id="パス_5-2" data-name="パス 5" d="M908.072,180.838c-13.858-3.2-18.7-9.95-19.2-10.709L898.059,164a1.551,1.551,0,0,0-.094-.135c.031.04,3.155,4.031,12.591,6.209Z" transform="translate(562.746 9961.131)" fill="#ff930f"/>
      <rect id="長方形_7-2" data-name="長方形 7" width="17.343" height="11.046" transform="matrix(0.591, -0.806, 0.806, 0.591, 1675.531, 10152.9)" fill="#ff930f"/>
      <rect id="長方形_13-2" data-name="長方形 13" width="14.564" height="11.046" transform="translate(1621.663 10257.059) rotate(-50.194)" fill="#fff000"/>
      <rect id="長方形_14-2" data-name="長方形 14" width="11.046" height="16.809" transform="translate(1374.227 10161.096) rotate(-33.69)" fill="#fff000"/>
      <rect id="長方形_16-2" data-name="長方形 16" width="11.046" height="14.263" transform="translate(1655.921 10119.021) rotate(-11.31)" fill="#fff000"/>
    </g>
  </g>
</svg>
