<svg xmlns="http://www.w3.org/2000/svg" width="211.939" height="62.578" viewBox="0 0 211.939 62.578">
  <g id="voice_ttl_sp" transform="translate(-4.608 -32.198)">
    <path id="パス_27851" data-name="パス 27851" d="M7.544-1.679H9.108a13.4,13.4,0,0,1,2.093.115V-3.933a11.343,11.343,0,0,1-1.886.115H7.544V-5.175H8.878a19.006,19.006,0,0,1,2.024.069c-.046-.552-.069-1.1-.069-2.484v-4.094c0-1.219.023-1.748.069-2.231a17.244,17.244,0,0,1-1.932.069H7.521V-15.2H9.246a16.4,16.4,0,0,1,2.116.092v-2.323a13.906,13.906,0,0,1-2.231.115H7.521v-.23a9.528,9.528,0,0,1,.161-1.863H5.152a12.241,12.241,0,0,1,.138,1.863v.23H3.5a13.732,13.732,0,0,1-2.231-.115v2.323A18.068,18.068,0,0,1,3.381-15.2H5.29v1.357H4.163a18.564,18.564,0,0,1-2.3-.092,22.9,22.9,0,0,1,.092,2.415v3.841c0,1.081-.023,1.84-.092,2.576.759-.046,1.311-.069,2.346-.069H5.29v1.357H3.2a12.841,12.841,0,0,1-2.116-.115v2.392a12.406,12.406,0,0,1,2.231-.138H5.29v1.4a12.814,12.814,0,0,1-.161,2.139H7.682A14.713,14.713,0,0,1,7.544-.161Zm-.069-5.5v-1.5h1.4v1.5Zm0-3.289v-1.38h1.4v1.38Zm-2.116-1.38v1.38H3.933v-1.38Zm0,3.174v1.5H3.933v-1.5ZM14.306-9.5a51.773,51.773,0,0,1-2.415,8.073c-.736.069-1.035.069-1.633.092l.529,2.6c.368-.069.506-.092,1.334-.23l4.9-.828C17.986,0,18.561-.138,19.5-.368c.322,1.035.322,1.035.6,2.093l2.254-1.1a53.626,53.626,0,0,0-3.2-8.28l-2.116.828c.736,1.61,1.173,2.668,1.817,4.462-1.426.276-2.553.46-4.416.69A61.62,61.62,0,0,0,16.859-9.5h3.013a15.527,15.527,0,0,1,2.254.115v-2.553a12.086,12.086,0,0,1-2.254.138H13.754a12.232,12.232,0,0,1-2.254-.138v2.553A14.892,14.892,0,0,1,13.685-9.5Zm-2.024-5.842a14.261,14.261,0,0,1,2.231-.115h4.623c.69,0,1.311.023,1.656.046.345.046.345.046.368.046a.647.647,0,0,0,.184-.023v-2.484a11,11,0,0,1-2.208.138H14.513a11.116,11.116,0,0,1-2.231-.138Zm25.737-1.978a14.085,14.085,0,0,1-1.633.069h-.828v-.138a9.951,9.951,0,0,1,.115-1.863H33.212a9.439,9.439,0,0,1,.138,1.863v.138h-1.1a8.727,8.727,0,0,1-1.426-.092v-1.4a11.021,11.021,0,0,1-2,.115H25.208a12.814,12.814,0,0,1-1.932-.115v2.438a9.065,9.065,0,0,1,1.012-.092V-3.588a6.643,6.643,0,0,1-1.265.184L23.552-.92a8.874,8.874,0,0,1,1.541-.46c.805-.23,1.886-.575,2.9-.9V-.552a22.586,22.586,0,0,1-.115,2.461H30.2a16.58,16.58,0,0,1-.115-2.438V-10.718h8.533a32.165,32.165,0,0,0,.92,6.854A20.057,20.057,0,0,1,37.72-1.84V-7.751c0-1.173,0-1.518.046-2.047a14.215,14.215,0,0,1-1.495.069H32.614A10.216,10.216,0,0,1,31.165-9.8c.046.759.069,1.035.069,2.047v6.233c0,.759-.046,1.334-.092,2h2.07V-1.012h3.519a17.742,17.742,0,0,1-1.564,1.1,6.8,6.8,0,0,1,1.449,1.771,19.621,19.621,0,0,0,3.7-3.4c.805,1.863,1.886,2.967,2.852,2.967A1.589,1.589,0,0,0,44.6.368a11.524,11.524,0,0,0,.667-3.358,8.255,8.255,0,0,1-1.817-1.242c-.069,1.817-.23,2.9-.391,2.9-.046,0-.138-.115-.345-.483A10.145,10.145,0,0,1,41.929-3.7a26.751,26.751,0,0,0,1.955-3.8c.184-.414.368-.828.506-1.1L42.527-9.775a15.173,15.173,0,0,1-1.288,3.266c-.184-1.2-.322-2.415-.437-4.209h1.265a18.971,18.971,0,0,1,2.576.115v-2.415a14.38,14.38,0,0,1-2.576.138H40.733c-.023-.69-.046-2.6-.046-3.4A17.686,17.686,0,0,1,40.8-19.2H38.41a14.27,14.27,0,0,1,.069,1.656c.023,3.059.023,3.059.069,4.669h-1.84a18.594,18.594,0,0,0,.575-2.461,6.262,6.262,0,0,1,.736.046Zm-2.645,1.955a16.27,16.27,0,0,1-.506,2.484H33.9c-.115-.989-.253-1.817-.391-2.484Zm-5.29,2.484V-16.4c.276.023.368.023.69.046V-15.3c.345-.046.437-.046.782-.069.23.943.391,1.794.506,2.484ZM26.4-16.4h1.587v2.691H26.4Zm0,4.738h1.587V-9.2H26.4Zm0,4.508h1.587v2.645c-.621.184-.828.253-1.587.437Zm6.808-.667h2.576v1.472H33.212Zm-.023,3.266h2.6v1.633h-2.6Zm7.935-12.857a12.083,12.083,0,0,1,1.7,3.634l1.817-1.058a18.449,18.449,0,0,0-1.84-3.473ZM63.3-12.259a15.881,15.881,0,0,1-2.208,5.382,31.173,31.173,0,0,1-1.058-6.877h4.14c1.173,0,2.047.046,2.806.115v-2.53a12.818,12.818,0,0,1-2.438.138h-.69l1.2-.828a12.869,12.869,0,0,0-2.323-2.415L60.95-18.147a10.867,10.867,0,0,1,2.024,2.116H59.938v-1.058a18.982,18.982,0,0,1,.115-2.185H57.316a7.126,7.126,0,0,1,.115,1.449c.046,1.012.046,1.61.069,1.794H50.83c-1.2,0-2.139-.046-2.967-.115A22.759,22.759,0,0,1,48-12.88a43.227,43.227,0,0,1-.69,9.085A10.753,10.753,0,0,1,45.724-.161a8.443,8.443,0,0,1,2,1.955,12.441,12.441,0,0,0,1.886-4.485,35.542,35.542,0,0,0,.713-5.773h3.358A25,25,0,0,1,53.337-4.3c-.115.575-.322.713-1.035.713a14.021,14.021,0,0,1-2.231-.184,8.608,8.608,0,0,1,.6,2.438c.736.046,1.1.069,1.748.069,1.771,0,2.6-.345,2.967-1.265.391-.966.529-2.185.759-6.325.046-.9.092-1.541.138-1.955a10.049,10.049,0,0,1-1.633.092H50.416c.023-.828.023-.828.046-3.036h7.13a28.519,28.519,0,0,0,1.725,9.177A17.264,17.264,0,0,1,53.13-.345a7.631,7.631,0,0,1,1.748,2,21.166,21.166,0,0,0,5.566-4.025c1.334,2.162,3.151,3.7,4.324,3.7,1.265,0,2.07-1.357,2.6-4.462A6.859,6.859,0,0,1,65.3-4.669a13.392,13.392,0,0,1-.437,2.691c-.115.3-.207.437-.3.437a3.343,3.343,0,0,1-1.035-.828,9.909,9.909,0,0,1-1.38-1.978,25.007,25.007,0,0,0,3.1-5.75c.368-.874.368-.874.506-1.219ZM83.145-14.1c.023-.943.046-1.817.069-3.013a13.221,13.221,0,0,1,.138-2.047H80.546a12.466,12.466,0,0,1,.138,2.185c0,.989-.023,1.771-.069,2.875H78.522a9.49,9.49,0,0,1-1.886-.115v2.507a13.222,13.222,0,0,1,2.093-.115h1.7c-.644,6.049-2.415,9.154-6.647,11.707a7.717,7.717,0,0,1,1.15,1.1c.506.644.506.644.736.92a15.517,15.517,0,0,0,5.359-6,21.8,21.8,0,0,0,1.932-7.728H86.5a63.3,63.3,0,0,1-.667,9.407c-.23,1.219-.414,1.4-1.426,1.4a19.835,19.835,0,0,1-3.105-.3,8.389,8.389,0,0,1,.713,2.622c1.1.092,1.817.138,2.438.138A5.364,5.364,0,0,0,87.239.92c.644-.46,1.035-1.495,1.242-3.4.207-1.7.483-5.98.575-8.1.069-2.783.092-3.082.138-3.611a19.68,19.68,0,0,1-2.346.092Zm-11.431-.69v9.338a17.128,17.128,0,0,1-3.22.8l.575,2.714A8.306,8.306,0,0,1,70.2-2.369,74.911,74.911,0,0,0,77.28-4.991V-7.36c-1.4.575-1.863.736-3.1,1.15v-8.579h1.5a8.734,8.734,0,0,1,1.587.115v-2.507a12.462,12.462,0,0,1-2.024.115H70.771a12.123,12.123,0,0,1-2.024-.115v2.507a10.025,10.025,0,0,1,1.656-.115Zm28.52,8.027H93.587A15.779,15.779,0,0,1,91.1-6.877v2.185a16.472,16.472,0,0,1,2.53-.115h6.6v.989h-5.5a16.7,16.7,0,0,1-2.185-.092v2.139a15.677,15.677,0,0,1,2.277-.115h5.4v1.1c0,.414-.184.529-.9.529A26.083,26.083,0,0,1,96.416-.46a6.546,6.546,0,0,1,.713,2.277c.736.046,1.656.092,2.208.092,2.806,0,3.381-.437,3.381-2.507V-1.886H107.8v.9h2.576a17.293,17.293,0,0,1-.115-2.484V-4.807a13.665,13.665,0,0,1,2,.115V-6.877a12.994,12.994,0,0,1-2,.115v-.8a15.565,15.565,0,0,1,.069-2.093c-.644.046-1.1.069-2.461.069h-5.152v-.874h5.29c.736,0,1.334.023,1.84.069a14.532,14.532,0,0,1-.069-1.541v-1.518a15.655,15.655,0,0,1,.069-1.61c-.552.046-1.058.069-1.932.069h-5.2v-.874h6.6a22.179,22.179,0,0,1,2.691.138v-2.277a21.575,21.575,0,0,1-2.829.138h-6.463a6.5,6.5,0,0,1,.161-1.564H100.1a8.5,8.5,0,0,1,.138,1.564H94.07a21.335,21.335,0,0,1-2.829-.138v2.277a22.179,22.179,0,0,1,2.691-.138h6.3V-15H95.381c-.874,0-1.357-.023-1.955-.069.046.552.069.966.069,1.61v1.518c0,.575-.023,1.058-.069,1.541.529-.046,1.1-.069,1.932-.069h4.876v.874h-5.4a17.214,17.214,0,0,1-2.162-.092v2a19.1,19.1,0,0,1,2.116-.092h5.451Zm2.484,0V-7.774H107.8v1.012Zm0,1.955H107.8v.989h-5.083ZM100.234-13.2v.943h-4.3V-13.2Zm2.484,0h4.623v.943h-4.623Zm23.506-.46a10.287,10.287,0,0,1-1.7.092H123.05a19.074,19.074,0,0,0,.414-2.392h2.093a12.594,12.594,0,0,1,1.794.092v-2.415a14.231,14.231,0,0,1-2.254.115h-3.335a13.646,13.646,0,0,1-2.162-.115v2.415a10.231,10.231,0,0,1,1.633-.092,14.6,14.6,0,0,1-3.381,8.027,10.65,10.65,0,0,1,1.357,2.254,17.957,17.957,0,0,0,1.449-2.024,19.351,19.351,0,0,1,2.254,2.3,14.524,14.524,0,0,1-4.738,5.336,9.993,9.993,0,0,1,1.748,1.932c4.278-3.5,6.279-7.383,6.992-13.57.069-.506.069-.621.115-.92Zm-1.518,2.254a15.256,15.256,0,0,1-.828,3.772,23.6,23.6,0,0,0-2.139-2.093c.276-.621.437-1.012.69-1.679Zm-6.992-2.231a23.4,23.4,0,0,0,1.38-3.749c.069-.253.253-.9.368-1.173l-2.369-.874a19.638,19.638,0,0,1-4.163,9.154,9.862,9.862,0,0,1,1.012,2.691,12.7,12.7,0,0,0,1.518-2.323c-.046,1.035-.046,1.633-.046,2.737v6.141a23.151,23.151,0,0,1-.138,2.76h2.553a23.749,23.749,0,0,1-.115-2.76Zm12.6,9.867a14.484,14.484,0,0,1-.092-1.978v-9.959a14.537,14.537,0,0,1,.092-1.955h-2.461a16.646,16.646,0,0,1,.092,1.955v9.982a14.879,14.879,0,0,1-.115,1.955Zm3.772-12.857A15.911,15.911,0,0,1,134.205-19h-2.53a17.059,17.059,0,0,1,.138,2.369V-1.288c0,.529-.138.6-1.311.6-.575,0-1.725-.092-2.668-.184a7.35,7.35,0,0,1,.621,2.369c.966.046,1.449.046,2.047.046,2.921,0,3.588-.437,3.588-2.369Z" transform="translate(4.847 54.525)" fill="#060000"/>
    <path id="パス_27850" data-name="パス 27850" d="M6.368-20.288c.224,0,.384.032.448.032.128,0,.352.032.736.064a50.457,50.457,0,0,0,5.856.384,34.111,34.111,0,0,0,4.8-.256,5.789,5.789,0,0,1-.7.384c-.416.256-.512.32-.832.512-.8.448-1.152.672-3.168,1.952l2.784,2.208a57.949,57.949,0,0,1,8.544-5.28L24.7-23.9a39.685,39.685,0,0,1-8.448.608,41.97,41.97,0,0,1-9.6-.8Zm2.368,7.232c-2.88,2.4-4.128,4.512-4.128,6.976,0,2.5,1.344,4.256,4.1,5.344A22.89,22.89,0,0,0,16.7.32a51.638,51.638,0,0,0,8.64-.736,13.434,13.434,0,0,1,1.408-.128L26.4-4.928A32.955,32.955,0,0,1,16.352-3.552c-5.408,0-7.744-.9-7.744-2.976,0-1.376.9-2.72,2.912-4.416ZM30.72-14.368a18.506,18.506,0,0,0-3.328-4.512l-2.144,1.12a23.577,23.577,0,0,1,3.264,4.64Zm-9.408-1.5a21.6,21.6,0,0,1,3.36,4.768l2.24-1.184a20.738,20.738,0,0,0-3.36-4.7Zm17.856-2.272h-2.88a14.966,14.966,0,0,1-3.008-.192v3.552a19.143,19.143,0,0,1,2.944-.192h2.3a38.791,38.791,0,0,1-2.5,4.8,19.436,19.436,0,0,1-3.488,4.288,16.917,16.917,0,0,1,1.792,3.36,21.669,21.669,0,0,0,2.784-3.52A23.87,23.87,0,0,0,39.3-10.56c-.1,1.088-.16,2.56-.16,3.84v5.344a27.978,27.978,0,0,1-.224,4.064H42.72a26.61,26.61,0,0,1-.192-4.064V-6.944c0-1.632-.064-2.944-.16-4.032a17.684,17.684,0,0,0,3.744,5.12,14.745,14.745,0,0,1,1.7-3.136,18.958,18.958,0,0,1-5.12-5.984h2.336a16.731,16.731,0,0,1,2.752.16V-18.3a15.675,15.675,0,0,1-2.688.16h-2.56v-4.128c1.408-.384,2.88-.832,5.184-1.632l-2.08-2.944c-1.984,1.28-7.04,2.528-12.32,3.072A12.806,12.806,0,0,1,34.5-20.7c1.92-.288,2.592-.384,4.672-.8Zm10.24-6.368A25.06,25.06,0,0,1,49.6-20.64V-8.48a24.547,24.547,0,0,1-.16,3.744h3.776a26.67,26.67,0,0,1-.16-3.808v-12.1a24.331,24.331,0,0,1,.192-3.872Zm7.552-1.92c.128,1.408.192,2.752.192,4.352v20c0,.832-.224.96-1.632.96A39.857,39.857,0,0,1,51.3-1.408a14.227,14.227,0,0,1,1.088,3.552c1.088.064,1.568.064,2.368.064,2.592,0,3.68-.128,4.448-.544C60.224,1.12,60.64.192,60.64-1.5V-22.08a33.466,33.466,0,0,1,.224-4.352ZM77.344-7.424v5.28a26.362,26.362,0,0,1-.192,3.776h3.776a28.1,28.1,0,0,1-.16-3.808V-7.424h7.68v5.6c0,.672-.288.8-1.6.8-1.024,0-2.432-.1-4.032-.256a12.943,12.943,0,0,1,.9,3.328c.96.064,2.592.128,3.584.128,3.648,0,4.608-.672,4.608-3.328V-22.176c0-1.728.032-2.528.128-3.616a35.585,35.585,0,0,1-3.68.128H70.4c-1.728,0-2.56-.032-3.68-.128a43.227,43.227,0,0,1,.16,4.64c0,3.776-.128,8.32-.288,11.008a32.379,32.379,0,0,1-.64,4.9A14.635,14.635,0,0,1,63.616.16a19.251,19.251,0,0,1,3.1,2.528A21.482,21.482,0,0,0,69.984-7.424Zm0-3.168H70.208c0-.64,0-.864.032-2.368,0-.448.032-1.088.032-2.016h7.072Zm3.424,0v-4.384h7.68v4.384Zm-3.424-7.52H70.336l.032-.9v-3.3h6.976Zm3.424,0V-22.3h7.68v4.192Zm27.456,3.456A53.179,53.179,0,0,1,95.04-8.768a11.7,11.7,0,0,1,1.888,3.2c2.464-.992,3.136-1.28,5.088-2.24-.032.576-.032,1.28-.032,1.792v4.96a29.714,29.714,0,0,1-.192,3.616h3.744V1.184h11.616V2.56h3.712a25.017,25.017,0,0,1-.192-3.616v-7.9a30.758,30.758,0,0,1,.128-3.488c-.928.064-1.824.1-3.36.1h-4.7c-.832,0-1.888,0-2.592.032,1.44-.928,2.24-1.472,3.456-2.336h6.88a33.429,33.429,0,0,1,3.968.192v-3.52a27.117,27.117,0,0,1-3.648.192h-3.3a46.776,46.776,0,0,0,4.352-4.416q1.1-1.3,1.44-1.632l-3.168-2.08a22.789,22.789,0,0,1-3.712,4.864v-2.752a25.432,25.432,0,0,1-3.584.192h-2.3v-.544a13.634,13.634,0,0,1,.192-2.816h-3.9a17.122,17.122,0,0,1,.192,2.816v.544h-4.672a26.983,26.983,0,0,1-3.776-.192v3.36a35.28,35.28,0,0,1,3.648-.128h4.8v2.784h-7.3a28.164,28.164,0,0,1-3.9-.192v3.52a32.211,32.211,0,0,1,3.84-.192Zm2.3-3.136v-2.784h2.624c1.28,0,1.824.032,2.688.1a31.3,31.3,0,0,1-3.072,2.688ZM105.536-9.44H117.12v2.368H105.536Zm0,5.152H117.12v2.464H105.536Z" transform="translate(0 90.695)" fill="#fff"/>
    <path id="パス_27849" data-name="パス 27849" d="M14.45-16.025a5.464,5.464,0,0,1,2.525.75,6.194,6.194,0,0,1,3.075,5.55,7,7,0,0,1-3.475,6.25A13.286,13.286,0,0,1,11.6-2.1,7.975,7.975,0,0,1,13.125.825,16.344,16.344,0,0,0,17.05-.225,9.631,9.631,0,0,0,23.125-9.55c0-5.625-3.9-9.275-9.9-9.275a11.222,11.222,0,0,0-8.6,3.5A10.739,10.739,0,0,0,1.875-8.05c0,4.025,2.05,6.925,4.9,6.925,2.05,0,3.65-1.475,5.075-4.7A36.167,36.167,0,0,0,14.45-16.025ZM11.4-16A32.948,32.948,0,0,1,9.325-7.55c-.9,2.15-1.75,3.2-2.575,3.2-1.1,0-1.975-1.625-1.975-3.675a8.37,8.37,0,0,1,3.4-6.75A6.364,6.364,0,0,1,11.4-16Z" transform="translate(125.8 92.096)" fill="#fff"/>
    <path id="パス_27848" data-name="パス 27848" d="M29.346-50.719H12.462a57.848,57.848,0,0,1-8.107-.4v7.1c2.144-.2,4.489-.335,7.906-.335H29.346V-40.2H15.008a44.053,44.053,0,0,1-7.035-.335V-33.7a53.72,53.72,0,0,1,7.035-.335H52.461A55.767,55.767,0,0,1,59.7-33.7v-6.834a44.51,44.51,0,0,1-7.1.335H36.984v-4.154H55.878c3.417,0,5.561.134,7.839.335v-7.1a57.394,57.394,0,0,1-8.04.4H36.984v-.469a27,27,0,0,1,.335-5.293H28.944a28.339,28.339,0,0,1,.4,5.293Zm21.105,39.2v3.551H58.29a49.183,49.183,0,0,1-.335-6.9v-9.782a46.742,46.742,0,0,1,.268-6.03,56.046,56.046,0,0,1-6.767.268H16.281a57.657,57.657,0,0,1-6.7-.268,48.087,48.087,0,0,1,.268,6.03c0,13.2-2.412,20.5-8.375,25.46A28.587,28.587,0,0,1,8.241,6.1C13,1,15.142-3.685,16.482-11.524ZM17.018-17.755a62.775,62.775,0,0,0,.268-6.566h12.6v6.566Zm20.1,0v-6.566h13.4v6.566Z" transform="translate(152.83 88.68)" fill="#fff"/>
  </g>
</svg>
