<svg xmlns="http://www.w3.org/2000/svg" width="361.324" height="108.344" viewBox="0 0 361.324 108.344">
  <g id="voice_ttl" transform="translate(-7.776 -53.274)">
    <path id="パス_23975" data-name="パス 23975" d="M13.448-2.993h2.788a23.886,23.886,0,0,1,3.731.2V-7.011a20.221,20.221,0,0,1-3.362.205H13.448V-9.225h2.378a33.88,33.88,0,0,1,3.608.123c-.082-.984-.123-1.968-.123-4.428v-7.3c0-2.173.041-3.116.123-3.977a30.739,30.739,0,0,1-3.444.123H13.407V-27.1h3.075a29.226,29.226,0,0,1,3.772.164v-4.141a24.789,24.789,0,0,1-3.977.2h-2.87v-.41a16.985,16.985,0,0,1,.287-3.321H9.184a21.821,21.821,0,0,1,.246,3.321v.41h-3.2a24.478,24.478,0,0,1-3.977-.2v4.141A32.208,32.208,0,0,1,6.027-27.1h3.4v2.419H7.421a33.093,33.093,0,0,1-4.1-.164,40.826,40.826,0,0,1,.164,4.305v6.847c0,1.927-.041,3.28-.164,4.592,1.353-.082,2.337-.123,4.182-.123H9.43v2.419H5.7a22.891,22.891,0,0,1-3.772-.205v4.264A22.115,22.115,0,0,1,5.9-2.993H9.43v2.5a22.842,22.842,0,0,1-.287,3.813h4.551a26.227,26.227,0,0,1-.246-3.608Zm-.123-9.8v-2.665h2.5v2.665Zm0-5.863v-2.46h2.5v2.46Zm-3.772-2.46v2.46H7.011v-2.46Zm0,5.658v2.665H7.011v-2.665ZM25.5-16.933A92.29,92.29,0,0,1,21.2-2.542c-1.312.123-1.845.123-2.911.164l.943,4.633c.656-.123.9-.164,2.378-.41Q29.233.554,30.34.369C32.062,0,33.087-.246,34.768-.656c.574,1.845.574,1.845,1.066,3.731l4.018-1.968a95.594,95.594,0,0,0-5.7-14.76l-3.772,1.476c1.312,2.87,2.091,4.756,3.239,7.954-2.542.492-4.551.82-7.872,1.23a109.845,109.845,0,0,0,4.3-13.94h5.371a27.678,27.678,0,0,1,4.018.2v-4.551a21.544,21.544,0,0,1-4.018.246H24.518a21.805,21.805,0,0,1-4.018-.246v4.551a26.547,26.547,0,0,1,3.9-.2ZM21.894-27.347a25.423,25.423,0,0,1,3.977-.2h8.241c1.23,0,2.337.041,2.952.082.615.082.615.082.656.082a1.154,1.154,0,0,0,.328-.041v-4.428a19.6,19.6,0,0,1-3.936.246H25.871a19.816,19.816,0,0,1-3.977-.246Zm45.879-3.526a25.108,25.108,0,0,1-2.911.123H63.386V-31a17.739,17.739,0,0,1,.2-3.321H59.2A16.826,16.826,0,0,1,59.45-31v.246H57.482a15.557,15.557,0,0,1-2.542-.164v-2.5a19.647,19.647,0,0,1-3.567.205H44.936a22.843,22.843,0,0,1-3.444-.205v4.346a16.159,16.159,0,0,1,1.8-.164V-6.4a11.843,11.843,0,0,1-2.255.328l.943,4.428a15.819,15.819,0,0,1,2.747-.82c1.435-.41,3.362-1.025,5.166-1.6V-.984a40.261,40.261,0,0,1-.2,4.387h4.141a29.555,29.555,0,0,1-.205-4.346V-19.106H68.839c.369,5.945.738,8.815,1.64,12.218A35.755,35.755,0,0,1,67.24-3.28V-13.817c0-2.091,0-2.706.082-3.649a25.34,25.34,0,0,1-2.665.123H58.138a18.212,18.212,0,0,1-2.583-.123c.082,1.353.123,1.845.123,3.649V-2.706c0,1.353-.082,2.378-.164,3.567H59.2V-1.8h6.273A31.626,31.626,0,0,1,62.689.164a12.124,12.124,0,0,1,2.583,3.157,34.977,34.977,0,0,0,6.6-6.068c1.435,3.321,3.362,5.289,5.084,5.289A2.833,2.833,0,0,0,79.5.656,20.542,20.542,0,0,0,80.688-5.33a14.715,14.715,0,0,1-3.239-2.214c-.123,3.239-.41,5.166-.7,5.166-.082,0-.246-.2-.615-.861A18.085,18.085,0,0,1,74.743-6.6a47.685,47.685,0,0,0,3.485-6.765c.328-.738.656-1.476.9-1.968l-3.321-2.091a27.048,27.048,0,0,1-2.3,5.822c-.328-2.132-.574-4.305-.779-7.5h2.255a33.818,33.818,0,0,1,4.592.2v-4.305a25.633,25.633,0,0,1-4.592.246H72.611c-.041-1.23-.082-4.633-.082-6.068a31.528,31.528,0,0,1,.205-5.207H68.47a25.438,25.438,0,0,1,.123,2.952c.041,5.453.041,5.453.123,8.323h-3.28a33.147,33.147,0,0,0,1.025-4.387,11.163,11.163,0,0,1,1.312.082Zm-4.715,3.485a29,29,0,0,1-.9,4.428H60.434c-.2-1.763-.451-3.239-.7-4.428Zm-9.43,4.428v-6.273c.492.041.656.041,1.23.082v1.886c.615-.082.779-.082,1.394-.123.41,1.681.7,3.2.9,4.428Zm-6.56-6.273H49.9v4.8H47.068Zm0,8.446H49.9V-16.4H47.068Zm0,8.036H49.9v4.715c-1.107.328-1.476.451-2.829.779ZM59.2-13.94H63.8v2.624H59.2Zm-.041,5.822H63.8v2.911H59.163ZM73.308-31.037a21.54,21.54,0,0,1,3.034,6.478l3.239-1.886a32.887,32.887,0,0,0-3.28-6.191Zm39.524,9.184a28.31,28.31,0,0,1-3.936,9.594,55.57,55.57,0,0,1-1.886-12.259h7.38c2.091,0,3.649.082,5,.2v-4.51a22.85,22.85,0,0,1-4.346.246h-1.23l2.132-1.476a22.941,22.941,0,0,0-4.141-4.305l-3.157,2.009a19.373,19.373,0,0,1,3.608,3.772h-5.412v-1.886a33.837,33.837,0,0,1,.205-3.9h-4.879a12.7,12.7,0,0,1,.205,2.583c.082,1.8.082,2.87.123,3.2H90.61c-2.132,0-3.813-.082-5.289-.2a40.569,40.569,0,0,1,.246,5.822c0,7.3-.41,12.751-1.23,16.2A19.168,19.168,0,0,1,81.508-.287,15.05,15.05,0,0,1,85.075,3.2,22.178,22.178,0,0,0,88.437-4.8a63.357,63.357,0,0,0,1.271-10.291h5.986a44.566,44.566,0,0,1-.615,7.421C94.874-6.642,94.5-6.4,93.234-6.4a24.994,24.994,0,0,1-3.977-.328,15.345,15.345,0,0,1,1.066,4.346c1.312.082,1.968.123,3.116.123,3.157,0,4.633-.615,5.289-2.255.7-1.722.943-3.895,1.353-11.275.082-1.6.164-2.747.246-3.485a17.913,17.913,0,0,1-2.911.164H89.872c.041-1.476.041-1.476.082-5.412h12.71c.451,7.216,1.353,12.136,3.075,16.359A30.775,30.775,0,0,1,94.71-.615a13.6,13.6,0,0,1,3.116,3.567,37.73,37.73,0,0,0,9.922-7.175c2.378,3.854,5.617,6.6,7.708,6.6,2.255,0,3.69-2.419,4.633-7.954a12.227,12.227,0,0,1-3.69-2.747c-.492,3.854-.492,3.854-.779,4.8-.205.533-.369.779-.533.779a5.96,5.96,0,0,1-1.845-1.476,17.664,17.664,0,0,1-2.46-3.526A44.577,44.577,0,0,0,116.317-18c.656-1.558.656-1.558.9-2.173Zm35.383-3.28c.041-1.681.082-3.239.123-5.371a23.568,23.568,0,0,1,.246-3.649h-5a22.222,22.222,0,0,1,.246,3.9c0,1.763-.041,3.157-.123,5.125h-3.731a16.917,16.917,0,0,1-3.362-.2v4.469a23.569,23.569,0,0,1,3.731-.2h3.034c-1.148,10.783-4.3,16.318-11.849,20.869a13.756,13.756,0,0,1,2.05,1.968c.9,1.148.9,1.148,1.312,1.64a27.66,27.66,0,0,0,9.553-10.7,38.869,38.869,0,0,0,3.444-13.776H154.2c-.246,8.815-.533,13.325-1.189,16.769-.41,2.173-.738,2.5-2.542,2.5a35.358,35.358,0,0,1-5.535-.533,14.954,14.954,0,0,1,1.271,4.674c1.968.164,3.239.246,4.346.246,2.3,0,4.1-.328,4.961-.943,1.148-.82,1.845-2.665,2.214-6.068.369-3.034.861-10.66,1.025-14.432.123-4.961.164-5.494.246-6.437a35.082,35.082,0,0,1-4.182.164Zm-20.377-1.23V-9.717a30.532,30.532,0,0,1-5.74,1.435l1.025,4.838a14.806,14.806,0,0,1,2.009-.779A133.539,133.539,0,0,0,137.76-8.9V-13.12c-2.5,1.025-3.321,1.312-5.535,2.05V-26.363h2.665a15.569,15.569,0,0,1,2.829.2v-4.469a22.215,22.215,0,0,1-3.608.2h-7.954a21.61,21.61,0,0,1-3.608-.2v4.469a17.871,17.871,0,0,1,2.952-.2Zm50.84,14.309H166.829a28.127,28.127,0,0,1-4.428-.2v3.895a29.364,29.364,0,0,1,4.51-.2h11.767v1.763h-9.8a29.777,29.777,0,0,1-3.895-.164v3.813a27.946,27.946,0,0,1,4.059-.2h9.635v1.968c0,.738-.328.943-1.6.943a46.5,46.5,0,0,1-5.207-.369,11.67,11.67,0,0,1,1.271,4.059c1.312.082,2.952.164,3.936.164,5,0,6.027-.779,6.027-4.469v-2.3h9.061v1.6h4.592a30.826,30.826,0,0,1-.205-4.428V-8.569a24.36,24.36,0,0,1,3.567.2v-3.895a23.164,23.164,0,0,1-3.567.2v-1.435a27.743,27.743,0,0,1,.123-3.731c-1.148.082-1.968.123-4.387.123h-9.184v-1.558h9.43c1.312,0,2.378.041,3.28.123a25.908,25.908,0,0,1-.123-2.747v-2.706a27.909,27.909,0,0,1,.123-2.87c-.984.082-1.886.123-3.444.123h-9.266V-28.29h11.767a39.537,39.537,0,0,1,4.8.246V-32.1a38.458,38.458,0,0,1-5.043.246H183.106a11.583,11.583,0,0,1,.287-2.788h-4.961a15.151,15.151,0,0,1,.246,2.788H167.69a38.031,38.031,0,0,1-5.043-.246v4.059a39.537,39.537,0,0,1,4.8-.246h11.234v1.558h-8.651c-1.558,0-2.419-.041-3.485-.123.082.984.123,1.722.123,2.87v2.706c0,1.025-.041,1.886-.123,2.747.943-.082,1.968-.123,3.444-.123h8.692V-17.1h-9.635a30.686,30.686,0,0,1-3.854-.164v3.567a34.054,34.054,0,0,1,3.772-.164h9.717Zm4.428,0v-1.8h9.061v1.8Zm0,3.485h9.061v1.763h-9.061Zm-4.428-14.965v1.681h-7.667v-1.681Zm4.428,0h8.241v1.681h-8.241Zm41.9-.82a18.337,18.337,0,0,1-3.034.164H219.35a34,34,0,0,0,.738-4.264h3.731a22.45,22.45,0,0,1,3.2.164V-32.6A25.368,25.368,0,0,1,223-32.39h-5.945A24.325,24.325,0,0,1,213.2-32.6v4.305a18.237,18.237,0,0,1,2.911-.164c-.82,5.986-2.665,10.414-6.027,14.309a18.984,18.984,0,0,1,2.419,4.018,32.012,32.012,0,0,0,2.583-3.608,34.5,34.5,0,0,1,4.018,4.1,25.89,25.89,0,0,1-8.446,9.512,17.813,17.813,0,0,1,3.116,3.444c7.626-6.232,11.193-13.161,12.464-24.19.123-.9.123-1.107.205-1.64ZM222.3-20.336a27.2,27.2,0,0,1-1.476,6.724,42.075,42.075,0,0,0-3.813-3.731c.492-1.107.779-1.8,1.23-2.993Zm-12.464-3.977A41.7,41.7,0,0,0,212.3-31c.123-.451.451-1.6.656-2.091l-4.223-1.558c-1.025,5.986-3.895,12.341-7.421,16.318a17.58,17.58,0,0,1,1.8,4.8,22.641,22.641,0,0,0,2.706-4.141c-.082,1.845-.082,2.911-.082,4.879V-1.845a41.27,41.27,0,0,1-.246,4.92h4.551a42.333,42.333,0,0,1-.205-4.92ZM232.306-6.724a25.82,25.82,0,0,1-.164-3.526V-28a25.913,25.913,0,0,1,.164-3.485h-4.387A29.673,29.673,0,0,1,228.083-28v17.794a26.522,26.522,0,0,1-.205,3.485Zm6.724-22.919a28.368,28.368,0,0,1,.2-4.223h-4.51a30.407,30.407,0,0,1,.246,4.223V-2.3c0,.943-.246,1.066-2.337,1.066-1.025,0-3.075-.164-4.756-.328a13.1,13.1,0,0,1,1.107,4.223c1.722.082,2.583.082,3.649.082,5.207,0,6.4-.779,6.4-4.223Z" transform="translate(8.923 90.983)" fill="#060000"/>
    <path id="パス_23974" data-name="パス 23974" d="M10.746-34.236c.378,0,.648.054.756.054.216,0,.594.054,1.242.108a85.146,85.146,0,0,0,9.882.648,57.563,57.563,0,0,0,8.1-.432,9.77,9.77,0,0,1-1.188.648c-.7.432-.864.54-1.4.864-1.35.756-1.944,1.134-5.346,3.294l4.7,3.726c4.536-3.348,11.178-7.506,14.418-8.91l-.216-6.1c-3.564.756-7.4,1.026-14.256,1.026-7.236,0-12.042-.378-16.2-1.35Zm4,12.2c-4.86,4.05-6.966,7.614-6.966,11.772,0,4.212,2.268,7.182,6.912,9.018C17.55-.054,22.3.54,28.188.54A87.139,87.139,0,0,0,42.768-.7a22.669,22.669,0,0,1,2.376-.216l-.594-7.4c-3.456,1.35-10.53,2.322-16.956,2.322-9.126,0-13.068-1.512-13.068-5.022,0-2.322,1.512-4.59,4.914-7.452Zm37.1-2.214a31.228,31.228,0,0,0-5.616-7.614l-3.618,1.89a39.786,39.786,0,0,1,5.508,7.83ZM35.964-26.784a36.446,36.446,0,0,1,5.67,8.046l3.78-2a35,35,0,0,0-5.67-7.938Zm29.052-3.834h-4.86a25.255,25.255,0,0,1-5.076-.324v5.994a32.3,32.3,0,0,1,4.968-.324h3.888a65.46,65.46,0,0,1-4.212,8.1,32.8,32.8,0,0,1-5.886,7.236,28.548,28.548,0,0,1,3.024,5.67,36.566,36.566,0,0,0,4.7-5.94,40.28,40.28,0,0,0,3.672-7.614c-.162,1.836-.27,4.32-.27,6.48v9.018a47.211,47.211,0,0,1-.378,6.858H71.01a44.9,44.9,0,0,1-.324-6.858v-9.4c0-2.754-.108-4.968-.27-6.8a29.842,29.842,0,0,0,6.318,8.64A24.881,24.881,0,0,1,79.6-15.174a31.992,31.992,0,0,1-8.64-10.1H74.9a28.234,28.234,0,0,1,4.644.27v-5.886a26.451,26.451,0,0,1-4.536.27h-4.32v-6.966c2.376-.648,4.86-1.4,8.748-2.754l-3.51-4.968c-3.348,2.16-11.88,4.266-20.79,5.184a21.611,21.611,0,0,1,2,5.184c3.24-.486,4.374-.648,7.884-1.35ZM82.3-41.364a42.289,42.289,0,0,1,.324,6.534v20.52a41.423,41.423,0,0,1-.27,6.318h6.372a45.006,45.006,0,0,1-.27-6.426V-34.83a41.057,41.057,0,0,1,.324-6.534ZM95.04-44.6c.216,2.376.324,4.644.324,7.344V-3.51c0,1.4-.378,1.62-2.754,1.62a67.259,67.259,0,0,1-7.128-.486,24.009,24.009,0,0,1,1.836,5.994c1.836.108,2.646.108,4,.108,4.374,0,6.21-.216,7.506-.918,1.728-.918,2.43-2.484,2.43-5.346V-37.26a56.473,56.473,0,0,1,.378-7.344Zm33.318,32.076v8.91a44.486,44.486,0,0,1-.324,6.372h6.372a47.419,47.419,0,0,1-.27-6.426v-8.856H147.1v9.45c0,1.134-.486,1.35-2.7,1.35-1.728,0-4.1-.162-6.8-.432A21.842,21.842,0,0,1,139.1,3.456c1.62.108,4.374.216,6.048.216,6.156,0,7.776-1.134,7.776-5.616V-37.422c0-2.916.054-4.266.216-6.1a60.051,60.051,0,0,1-6.21.216H116.64c-2.916,0-4.32-.054-6.21-.216a72.947,72.947,0,0,1,.27,7.83c0,6.372-.216,14.04-.486,18.576a54.638,54.638,0,0,1-1.08,8.262A24.7,24.7,0,0,1,105.192.27a32.487,32.487,0,0,1,5.238,4.266c3.132-4.806,4.752-9.882,5.508-17.064Zm0-5.346H116.316c0-1.08,0-1.458.054-4,0-.756.054-1.836.054-3.4h11.934Zm5.778,0v-7.4H147.1v7.4Zm-5.778-12.69H116.532l.054-1.512v-5.562h11.772Zm5.778,0v-7.074H147.1v7.074Zm45.252,5.832A89.74,89.74,0,0,1,157.14-14.8a19.739,19.739,0,0,1,3.186,5.4c4.158-1.674,5.292-2.16,8.586-3.78-.054.972-.054,2.16-.054,3.024v8.37a50.141,50.141,0,0,1-.324,6.1h6.318V2h19.6V4.32h6.264a42.216,42.216,0,0,1-.324-6.1V-15.12a51.9,51.9,0,0,1,.216-5.886c-1.566.108-3.078.162-5.67.162H187c-1.4,0-3.186,0-4.374.054,2.43-1.566,3.78-2.484,5.832-3.942h11.61a56.411,56.411,0,0,1,6.7.324v-5.94a45.76,45.76,0,0,1-6.156.324h-5.562a78.934,78.934,0,0,0,7.344-7.452q1.863-2.187,2.43-2.754l-5.346-3.51a38.456,38.456,0,0,1-6.264,8.208v-4.644a42.916,42.916,0,0,1-6.048.324h-3.888v-.918a23.008,23.008,0,0,1,.324-4.752h-6.588a28.9,28.9,0,0,1,.324,4.752v.918h-7.884a45.534,45.534,0,0,1-6.372-.324v5.67a59.536,59.536,0,0,1,6.156-.216h8.1v4.7H165.024a47.527,47.527,0,0,1-6.588-.324v5.94a54.355,54.355,0,0,1,6.48-.324Zm3.888-5.292v-4.7H187.7c2.16,0,3.078.054,4.536.162a52.822,52.822,0,0,1-5.184,4.536ZM174.852-15.93H194.4v4H174.852Zm0,8.694H194.4v4.158H174.852Z" transform="translate(0 154.162)" fill="#19cecd"/>
    <path id="パス_23973" data-name="パス 23973" d="M25.432-28.2a9.617,9.617,0,0,1,4.444,1.32,10.9,10.9,0,0,1,5.412,9.768,12.319,12.319,0,0,1-6.116,11C27.1-4.928,24.464-4.224,20.416-3.7A14.036,14.036,0,0,1,23.1,1.452,28.766,28.766,0,0,0,30.008-.4C36.74-3.124,40.7-9.2,40.7-16.808c0-9.9-6.864-16.324-17.424-16.324-6.248,0-11.44,2.112-15.136,6.16a18.9,18.9,0,0,0-4.84,12.8C3.3-7.084,6.908-1.98,11.924-1.98c3.608,0,6.424-2.6,8.932-8.272A63.654,63.654,0,0,0,25.432-28.2Zm-5.368.044a57.989,57.989,0,0,1-3.652,14.872C14.828-9.5,13.332-7.656,11.88-7.656c-1.936,0-3.476-2.86-3.476-6.468A14.732,14.732,0,0,1,14.388-26,11.2,11.2,0,0,1,20.064-28.16Z" transform="translate(210.575 157.961)" fill="#19cecd"/>
    <path id="パス_23976" data-name="パス 23976" d="M50.808-87.812H21.576a100.155,100.155,0,0,1-14.036-.7v12.3c3.712-.348,7.772-.58,13.688-.58h29.58V-69.6H25.984c-6.032,0-9.512-.116-12.18-.58v11.832a93.008,93.008,0,0,1,12.18-.58H90.828a96.552,96.552,0,0,1,12.528.58V-70.18c-2.668.464-6.148.58-12.3.58H64.032v-7.192H96.744c5.916,0,9.628.232,13.572.58v-12.3a99.368,99.368,0,0,1-13.92.7H64.032v-.812a46.744,46.744,0,0,1,.58-9.164h-14.5a49.065,49.065,0,0,1,.7,9.164Zm36.54,67.86V-13.8H100.92a85.153,85.153,0,0,1-.58-11.948V-42.688a80.927,80.927,0,0,1,.464-10.44,97.034,97.034,0,0,1-11.716.464h-60.9a99.825,99.825,0,0,1-11.6-.464,83.255,83.255,0,0,1,.464,10.44c0,22.852-4.176,35.5-14.5,44.08a49.494,49.494,0,0,1,11.716,9.164C22.5,1.74,26.216-6.38,28.536-19.952ZM29.464-30.74a108.686,108.686,0,0,0,.464-11.368H51.736V-30.74Zm34.8,0V-42.108h23.2V-30.74Z" transform="translate(258.784 151.062)" fill="#19cecd"/>
  </g>
</svg>
