<svg xmlns="http://www.w3.org/2000/svg" xmlns:xlink="http://www.w3.org/1999/xlink" width="246" height="204" viewBox="0 0 246 204">
  <defs>
    <clipPath id="clip-path">
      <rect id="長方形_622" data-name="長方形 622" width="246" height="204" transform="translate(-7336 3048)" fill="#a2a2a2"/>
    </clipPath>
  </defs>
  <g id="voicelist_img04" transform="translate(7336 -3048)" clip-path="url(#clip-path)">
    <g id="グループ_2789" data-name="グループ 2789" transform="translate(115.705 -17.078)">
      <path id="パス_22928" data-name="パス 22928" d="M3801.444,2089.336H3626.058s-2.407-21.693,13.195-38.832l29.723-8.923,7.451-1.187,37.811,11.762,38.323-11.844,34.875,10.794s14.669,18.232,14.008,38.229" transform="translate(-11020.023 1178.222)" fill="#ffec00"/>
      <path id="パス_22929" data-name="パス 22929" d="M3613.739,2115.563a2.817,2.817,0,0,1-2.763-3.363c5.047-25.4,7.439-28.851,10.923-32.379.328-.332.638-.646.947-1,3.2-3.618,12.887-6.963,14.8-7.6a2.814,2.814,0,1,1,1.773,5.342c-4.153,1.38-10.732,4.149-12.352,5.982-.413.467-.81.869-1.16,1.224-2.28,2.309-4.433,4.49-9.408,29.522a2.815,2.815,0,0,1-2.757,2.266" transform="translate(-11007.836 1153.224)" fill="#060000"/>
      <path id="パス_22930" data-name="パス 22930" d="M4398.447,2103.141a2.627,2.627,0,0,1-2.595-2.24c-2.96-19.9-9.652-27.426-12.868-31.043l-.342-.386c-.134-.152-1.57-1.569-10.5-4.5-4.815-1.582-9.359-2.793-9.4-2.805a2.627,2.627,0,1,1,1.35-5.077c.19.051,4.715,1.256,9.672,2.884,9.361,3.073,11.768,4.833,12.818,6.021l.332.374c3.553,4,10.947,12.313,14.138,33.761a2.627,2.627,0,0,1-2.212,2.985,2.667,2.667,0,0,1-.389.029" transform="translate(-11617.008 1164.667)" fill="#060000"/>
      <path id="パス_22931" data-name="パス 22931" d="M3758.069,1999.262s12.737,25.354,61.656,25.354,63.074-25.549,63.074-25.549l-64.056-19.858Z" transform="translate(-11127.375 1227.861)" fill="#ffec00"/>
      <path id="パス_22932" data-name="パス 22932" d="M3878.749,1435.9l1.307-17.244s10.451-6.009,15.154-16.722,3.919-15.154,3.919-15.154,11.758-2.613,10.712-12.8-2.09-15.154-3.658-14.632a9.865,9.865,0,0,1-3.658.261s4.964-23.253-6.271-39.452-38.669-19.6-59.571-11.235-23.776,30.308-24.3,39.975.522,11.757.522,11.757-3.657-2.613-4.7,8.361,1.829,14.109,9.406,15.415c0,0,.261,25.344,19.073,32.921v18.35h-1.14l-30.6,12.046s17.423,15.908,52.27,15.908,52.648-15.529,52.648-15.529l-31.272-12.046c.1-.115.156-.179.156-.179" transform="translate(-11165.458 1775.975)" fill="#fff"/>
      <path id="パス_22933" data-name="パス 22933" d="M3790.422,1360.893l24.238-36.047s10.255,34.8,40.4,27.035l13.052,4.661,2.175,4.35s6.215-5.9,8.39,2.175,2.486,15.227.311,17.712-7.107,5.646-7.107,5.646-4.391,22.942-14.956,27.914c0,0,27.035,4.35,32.318-22.684s-6.526-68.364-31.7-80.794-50.962-7.147-64.324,10.566-22.685,39.464-21.752,64.945,17.713,30.764,35.114,29.521c0,0-11.808-11.5-14.294-19.888s-1.927-11.932-1.927-11.932-7.707-.809-9.571-10.131,3.107-17.712,9.633-13.051" transform="translate(-11138.207 1776.326)" fill="#f49902"/>
      <path id="パス_22934" data-name="パス 22934" d="M3773.833,1588.081a9.6,9.6,0,0,0-4.184-2.122,7.209,7.209,0,0,0-4.654.543,7.944,7.944,0,0,0-3.413,3.592,22.047,22.047,0,0,0-1.749,5.316,31.163,31.163,0,0,0-.705,5.2,16.837,16.837,0,0,0,2.076,9.34,15.424,15.424,0,0,0,9.891,6.745l-2.066-2.714c.018.795.1,1.591.191,2.38a52.8,52.8,0,0,0,1.181,6.7,42.677,42.677,0,0,0,8.62,17.353,32.707,32.707,0,0,0,10.224,8.051l-1.394-2.43q0,2.575-.026,5.15c-.027,3.068-.064,6.137-.18,9.2-.044,1.179-.075,2.37-.229,3.541q.05-.374.1-.748a1.863,1.863,0,0,1-.087.457l.284-.672a.479.479,0,0,1-.057.092l.44-.57a1.465,1.465,0,0,1-.245.229l.57-.44a10.278,10.278,0,0,1-1.76,1c-.993.485-2.009.926-3.027,1.356l.672-.284c-2.422,1.021-4.874,1.971-7.332,2.9q-4.294,1.628-8.617,3.177-4.149,1.5-8.312,2.952-3.2,1.123-6.415,2.227c-.976.335-1.956.657-2.928,1l-.042.014a2.815,2.815,0,1,0,1.5,5.428q3.563-1.207,7.114-2.449,7.518-2.617,14.995-5.352c4.7-1.73,9.41-3.47,13.976-5.524a13.262,13.262,0,0,0,3.685-2.107,4.057,4.057,0,0,0,1.133-2.806c.11-.939.151-1.888.191-2.832.208-4.868.222-9.748.229-14.62q0-.163,0-.326a2.789,2.789,0,0,0-1.394-2.43,30.886,30.886,0,0,1-4.95-3.1l.57.44a31.509,31.509,0,0,1-5.637-5.665l.44.57a37.426,37.426,0,0,1-4.722-8.185l.284.672a46.445,46.445,0,0,1-2.885-9.772q-.19-1.049-.333-2.107.051.374.1.748a29.387,29.387,0,0,1-.3-3.219,2.87,2.87,0,0,0-2.066-2.714,18.377,18.377,0,0,1-2.718-.874l.672.284a13.22,13.22,0,0,1-2.92-1.681l.57.44a10.934,10.934,0,0,1-1.858-1.852l.44.57a10.964,10.964,0,0,1-1.408-2.427l.284.672a13.441,13.441,0,0,1-.874-3.329q.05.374.1.748a20.582,20.582,0,0,1,.073-5.362q-.05.374-.1.748a25.777,25.777,0,0,1,1.565-6.274l-.283.672a8.779,8.779,0,0,1,1.033-1.842l-.44.569a5.457,5.457,0,0,1,.912-.937l-.57.44a4.206,4.206,0,0,1,.9-.528l-.672.284a3.95,3.95,0,0,1,.909-.25l-.748.1a4.439,4.439,0,0,1,1.142,0l-.748-.1a6.016,6.016,0,0,1,1.484.413l-.672-.284a7.678,7.678,0,0,1,1.682.971l-.57-.44c.027.021.054.042.08.064a3.022,3.022,0,0,0,1.99.824,2.814,2.814,0,0,0,1.99-4.8" transform="translate(-11119.662 1547.458)" fill="#060000"/>
      <path id="パス_22935" data-name="パス 22935" d="M4207.415,1591.925l.079-.063-.569.44a7.684,7.684,0,0,1,1.665-.965l-.672.284a6.056,6.056,0,0,1,1.472-.417l-.748.1a4.488,4.488,0,0,1,1.134-.008l-.748-.1a3.929,3.929,0,0,1,.967.264l-.672-.284a4.213,4.213,0,0,1,.827.484l-.569-.44a5.364,5.364,0,0,1,.911.91l-.44-.57a8.67,8.67,0,0,1,1.085,1.912l-.284-.672a25.8,25.8,0,0,1,1.56,6.247q-.05-.374-.1-.748a20.538,20.538,0,0,1,.067,5.442q.051-.374.1-.748a13.387,13.387,0,0,1-.882,3.309q.141-.336.284-.672a10.986,10.986,0,0,1-1.351,2.335l.44-.57a10.918,10.918,0,0,1-1.917,1.918l.57-.44a13.215,13.215,0,0,1-2.912,1.671l.672-.284a18.341,18.341,0,0,1-2.708.87,2.863,2.863,0,0,0-2.066,2.714,29.317,29.317,0,0,1-.292,3.2q.051-.375.1-.748a47.475,47.475,0,0,1-2.066,8.857q-.519,1.538-1.151,3.035l.284-.672a37.429,37.429,0,0,1-4.759,8.236l.44-.57a31.519,31.519,0,0,1-5.624,5.638l.57-.44q-1.156.887-2.392,1.663-.612.382-1.239.735a8.246,8.246,0,0,0-1.871,1.13,3.6,3.6,0,0,0-.9,2.42c-.376,2.692-.7,5.392-.923,8.1a41.156,41.156,0,0,0,.03,9.041,6.526,6.526,0,0,0,1.456,3.551,5.07,5.07,0,0,0,1.6,1.114c1.739.838,3.57,1.507,5.38,2.174,2.427.894,4.871,1.741,7.318,2.575,5.541,1.889,11.107,3.7,16.68,5.495,3.255,1.046,6.5,2.126,9.778,3.108l.146.046a2.839,2.839,0,0,0,3.461-1.966,2.875,2.875,0,0,0-1.965-3.462q-1.5-.47-3-.945-3.719-1.177-7.433-2.372-4.84-1.557-9.667-3.15c-3.194-1.056-6.384-2.127-9.562-3.234-2.438-.85-4.878-1.707-7.272-2.677q-.311-.126-.621-.256l.672.284a8.546,8.546,0,0,1-1.9-.947l.569.44a1.35,1.35,0,0,1-.229-.236l.439.57a2.493,2.493,0,0,1-.284-.509l.284.672a7.11,7.11,0,0,1-.425-1.771q.051.374.1.748a32.529,32.529,0,0,1-.093-5.831c.108-2.114.305-4.224.545-6.327q.16-1.4.348-2.806l-.1.748c.083-.621.168-1.242.264-1.861l-1.293,1.682a34.838,34.838,0,0,0,15.337-15.814,49.524,49.524,0,0,0,4.621-15.727,28.485,28.485,0,0,0,.259-2.939l-2.067,2.714a18.139,18.139,0,0,0,5.324-2.151,14.383,14.383,0,0,0,4.011-3.757,15.6,15.6,0,0,0,2.652-9.051,27.9,27.9,0,0,0-.491-5.136,26.372,26.372,0,0,0-1.244-4.8,10.122,10.122,0,0,0-3.5-4.915,6.368,6.368,0,0,0-3.978-1.109,9.674,9.674,0,0,0-5.516,2.3,2.826,2.826,0,0,0-.824,1.99,2.867,2.867,0,0,0,.824,1.99,2.834,2.834,0,0,0,1.99.824,3.191,3.191,0,0,0,1.99-.824" transform="translate(-11472.221 1547.595)" fill="#060000"/>
      <path id="パス_22936" data-name="パス 22936" d="M3790.04,1398.133c-1.09-.072-2.178-.169-3.263-.3l-.35-.044c-.607-.074.546.079.142.019-.256-.037-.512-.074-.768-.113q-.751-.117-1.5-.257a42.919,42.919,0,0,1-5.5-1.4q-1.25-.411-2.468-.909c-.088-.036-.175-.074-.263-.109.013.005.685.3.282.117-.171-.076-.343-.15-.513-.227q-.6-.27-1.182-.564a30.868,30.868,0,0,1-4.044-2.422c-.29-.206-.572-.421-.858-.633.765.565.262.2.082.058q-.24-.192-.476-.389-.833-.7-1.612-1.458-.759-.742-1.461-1.539-.345-.392-.675-.8c-.1-.119-.191-.241-.289-.36-.258-.315.241.313.228.3-.073-.088-.14-.183-.208-.274a29.2,29.2,0,0,1-2.2-3.41q-.482-.873-.906-1.776-.2-.423-.385-.852c-.282-.65.2.491.049.117-.068-.169-.138-.337-.2-.507a36.146,36.146,0,0,1-2-7.324c-.051-.309-.1-.619-.143-.929-.089-.6.082.654.031.234-.021-.171-.043-.342-.062-.514q-.106-.916-.172-1.835-.127-1.785-.107-3.577.019-1.7.168-3.393c.046-.521.1-1.041.167-1.561.009-.072.025-.146.028-.218s-.112.869-.066.489c.034-.28.083-.547.113-.835,0-.009,0-.018,0-.026.045-.436.088-.872.139-1.307s.111-.894.169-1.34c-.182,1.394-.03.225.021-.126q.066-.464.137-.928.345-2.266.779-4.518,1.2-6.247,3.01-12.356,1.08-3.63,2.389-7.186.7-1.888,1.465-3.748.086-.21.174-.419c.263-.633-.259.606-.04.095q.214-.5.431-1,.417-.952.854-1.9a80.47,80.47,0,0,1,8.684-14.679l.3-.388c.242-.317-.483.62-.029.039q.357-.456.723-.907.694-.856,1.418-1.687,1.455-1.67,3.029-3.23t3.248-2.968q.405-.341.817-.674l.39-.312.246-.193c.356-.282-.136.106-.224.172.6-.452,1.2-.906,1.822-1.34a48.878,48.878,0,0,1,8.021-4.569q.24-.108.481-.213l.242-.1c.464-.2-.579.24-.246.1.389-.16.778-.32,1.171-.472q1.129-.438,2.279-.819a49.328,49.328,0,0,1,5.106-1.394q.938-.2,1.885-.368.5-.088,1-.165l.447-.067.336-.047q-.506.068-.188.026c1.313-.149,2.624-.281,3.943-.347a53.359,53.359,0,0,1,7.953.19q.51.051,1.019.111l.452.056c.463.056-.693-.106.042.007.676.1,1.351.209,2.023.334q1.393.259,2.773.586,2.583.609,5.1,1.45,1.178.4,2.338.843.554.214,1.1.44c.669.276-.539-.236.03.011.211.092.421.182.631.276q2.184.969,4.274,2.136,2.044,1.141,3.978,2.465.944.646,1.859,1.334c.135.1.268.2.4.3.39.3-.5-.388-.221-.171l.2.155q.467.367.924.745a54.57,54.57,0,0,1,6.241,6.064q.706.8,1.381,1.632.318.389.627.783c.1.123.192.248.29.371-.634-.8-.155-.2-.012-.011q1.259,1.665,2.4,3.413a69.161,69.161,0,0,1,4.028,7.016q.86,1.719,1.632,3.48c.121.276.239.553.358.83.157.365-.18-.409-.16-.38a1.356,1.356,0,0,1,.1.243q.1.243.2.485.354.866.689,1.74a90.653,90.653,0,0,1,3.822,12.78q.578,2.6,1.009,5.224.18,1.1.333,2.207.016.113.031.225c.051.365-.126-.95-.06-.445q.033.252.065.5.055.444.106.888c.16,1.407.255,2.816.362,4.226.258,3.394.389,6.8.333,10.205-.027,1.647-.1,3.293-.225,4.935q-.094,1.227-.231,2.45c-.043.381-.09.761-.138,1.142-.056.441.047-.35.047-.348-.006.087-.025.179-.037.266q-.047.331-.1.662a46.4,46.4,0,0,1-2.24,9q-.181.494-.376.982c-.04.1-.117.443-.21.512-.009.007.309-.717.14-.334-.049.112-.1.224-.147.336q-.443.994-.952,1.956a27.183,27.183,0,0,1-2.246,3.552c-.058.078-.114.16-.177.234-.011.013.485-.608.224-.292-.1.12-.195.244-.294.365q-.353.429-.726.842-.687.76-1.44,1.458-.389.36-.793.7-.181.152-.365.3c-.077.062-.155.122-.232.184-.252.206.587-.444.241-.186-.578.43-1.169.84-1.783,1.217s-1.276.743-1.938,1.068c-.321.157-.645.3-.972.449-.548.244.67-.272.024-.012q-.3.121-.6.234a28.142,28.142,0,0,1-4.725,1.293q-.571.106-1.145.191c-.779.115.576-.064-.06.009-.224.026-.448.054-.674.077q-1.32.138-2.648.181a48.179,48.179,0,0,1-5.986-.19,2.825,2.825,0,0,0-2.814,2.814,2.888,2.888,0,0,0,2.814,2.814c7.377.665,15.259-.143,21.67-4.133,5.532-3.443,9.244-8.813,11.512-14.835,2.34-6.212,3.1-13.012,3.225-19.611.08-4.058-.15-8.1-.446-12.149-.182-2.491-.518-4.975-.921-7.439a94.288,94.288,0,0,0-2.657-11.593,86.748,86.748,0,0,0-5.71-14.448,67.042,67.042,0,0,0-9.728-14.362,55.316,55.316,0,0,0-14.589-11.656,58.4,58.4,0,0,0-22.737-6.87,52.487,52.487,0,0,0-42.347,15.341,70.6,70.6,0,0,0-11.1,14.575,99.466,99.466,0,0,0-7.3,15.745,121.55,121.55,0,0,0-4.2,14.027c-.8,3.387-1.472,6.807-1.986,10.249-.242,1.621-.509,3.262-.621,4.9.1-1.434.007-.063-.047.35q-.051.395-.1.79-.092.814-.151,1.631-.13,1.763-.118,3.533a46.236,46.236,0,0,0,.773,8.01,35.207,35.207,0,0,0,6.955,15.539,33.642,33.642,0,0,0,16.463,10.841,52.294,52.294,0,0,0,12.234,2.136,2.83,2.83,0,0,0,2.814-2.814,2.881,2.881,0,0,0-2.814-2.814" transform="translate(-11123.756 1791.106)" fill="#060000"/>
      <path id="パス_22937" data-name="パス 22937" d="M4071.531,1642.467v11.192a2.9,2.9,0,0,0,.824,1.99,2.814,2.814,0,0,0,3.98,0,2.924,2.924,0,0,0,.824-1.99v-11.192a2.9,2.9,0,0,0-.824-1.99,2.815,2.815,0,0,0-3.98,0,2.926,2.926,0,0,0-.824,1.99" transform="translate(-11382.024 1503.71)" fill="#060000"/>
      <path id="パス_22938" data-name="パス 22938" d="M3974.578,1631.359a2.9,2.9,0,0,0,1.99-.824,2.814,2.814,0,0,0,0-3.98,2.814,2.814,0,0,0-3.98,0,2.815,2.815,0,0,0,0,3.98,2.924,2.924,0,0,0,1.99.824" transform="translate(-11300.975 1515.02)" fill="#060000"/>
      <path id="パス_22939" data-name="パス 22939" d="M4175.112,1631.359a2.9,2.9,0,0,0,1.99-.824,2.815,2.815,0,0,0,0-3.98,2.814,2.814,0,0,0-3.979,0,2.814,2.814,0,0,0,0,3.98,2.921,2.921,0,0,0,1.99.824" transform="translate(-11463.883 1515.02)" fill="#060000"/>
      <path id="パス_22940" data-name="パス 22940" d="M3937.768,1565.591a10.106,10.106,0,0,1,1.531-.766l-.673.284a16.5,16.5,0,0,1,4.171-1.127l-.748.1a16.4,16.4,0,0,1,4.265,0l-.748-.1a17.171,17.171,0,0,1,4.328,1.192l-.672-.284q.753.32,1.476.7a2.966,2.966,0,0,0,2.169.284,2.815,2.815,0,0,0,.672-5.144,19.72,19.72,0,0,0-10.506-2.378,18.64,18.64,0,0,0-7.1,1.844,8.673,8.673,0,0,0-1.006.533,2.962,2.962,0,0,0-1.293,1.682,2.876,2.876,0,0,0,.284,2.169,2.814,2.814,0,0,0,3.85,1.01" transform="translate(-11269.923 1569.79)" fill="#060000"/>
      <path id="パス_22941" data-name="パス 22941" d="M4151.471,1560.77a7.885,7.885,0,0,0-.795-.432,18.538,18.538,0,0,0-6.842-1.905,18.959,18.959,0,0,0-4.865.214,19.86,19.86,0,0,0-6.109,2.124,2.815,2.815,0,0,0,.672,5.144,3.046,3.046,0,0,0,2.168-.284q.724-.381,1.476-.7l-.672.284a17.145,17.145,0,0,1,4.328-1.192l-.748.1a16.394,16.394,0,0,1,4.265,0l-.748-.1a16.5,16.5,0,0,1,4.171,1.127l-.672-.284a10.122,10.122,0,0,1,1.53.766,2.814,2.814,0,0,0,3.851-1.01,2.843,2.843,0,0,0,.284-2.169,3.044,3.044,0,0,0-1.293-1.682" transform="translate(-11430.72 1569.751)" fill="#060000"/>
      <path id="パス_22942" data-name="パス 22942" d="M4000.531,1764.6a23.9,23.9,0,0,0,1.835,2.252,27.455,27.455,0,0,0,4.369,3.83,18.4,18.4,0,0,0,2.66,1.588,17.624,17.624,0,0,0,3.668,1.354,14.426,14.426,0,0,0,8.436-.507,17.825,17.825,0,0,0,4.432-2.453,26.5,26.5,0,0,0,2.5-2.132,27.607,27.607,0,0,0,1.979-2.18c.469-.573.921-1.16,1.366-1.752a2.1,2.1,0,0,0,.334-1.047,2.135,2.135,0,0,0-.05-1.122,2.872,2.872,0,0,0-1.293-1.682,2.841,2.841,0,0,0-2.169-.284l-.672.284a2.829,2.829,0,0,0-1.01,1.01q-.167.222-.337.443l.44-.569a25.555,25.555,0,0,1-4.5,4.611l.57-.44a15.751,15.751,0,0,1-3.444,2.041l.672-.284a12.267,12.267,0,0,1-3.042.842l.748-.1a11.658,11.658,0,0,1-3.062,0l.748.1a13.483,13.483,0,0,1-3.411-.946l.673.284a18.526,18.526,0,0,1-4.075-2.424l.57.44a24.745,24.745,0,0,1-3.8-3.658q-.257-.306-.5-.621l.44.57c-.074-.1-.147-.192-.218-.29a3.148,3.148,0,0,0-1.682-1.293,2.877,2.877,0,0,0-2.169.284,2.84,2.84,0,0,0-1.293,1.682,2.771,2.771,0,0,0,.284,2.169" transform="translate(-11324.039 1405.653)" fill="#060000"/>
      <path id="パス_22943" data-name="パス 22943" d="M3959.274,1897.058a21.038,21.038,0,0,0,3.234,1.722,43.4,43.4,0,0,0,9.722,3.1,51.7,51.7,0,0,0,8.083.9,2.814,2.814,0,0,0,1.99-4.8,3,3,0,0,0-1.99-.824,48.046,48.046,0,0,1-4.831-.393l.748.1a43.217,43.217,0,0,1-8.915-2.153q-.93-.336-1.842-.72l.672.284a26.491,26.491,0,0,1-3.828-1.938c-.068-.043-.137-.086-.2-.132a2.1,2.1,0,0,0-1.046-.334,2.133,2.133,0,0,0-1.122.05,2.816,2.816,0,0,0-1.966,3.462l.284.672a2.83,2.83,0,0,0,1.01,1.01" transform="translate(-11289.691 1298.861)" fill="#060000"/>
      <path id="パス_22944" data-name="パス 22944" d="M4321.179,1713.973a2.9,2.9,0,0,0,1.99-.824,2.814,2.814,0,0,0,0-3.98,2.814,2.814,0,0,0-3.98,0,2.815,2.815,0,0,0,0,3.98,2.924,2.924,0,0,0,1.99.824" transform="translate(-11582.545 1447.906)" fill="#060000"/>
      <path id="パス_22945" data-name="パス 22945" d="M3793.442,2061.226c.757.565,1.559,1.075,2.359,1.575a77.532,77.532,0,0,0,6.821,3.78,103.407,103.407,0,0,0,26.093,8.756,110.111,110.111,0,0,0,18.457,1.977,106.553,106.553,0,0,0,18.912-1.3,91.958,91.958,0,0,0,14.75-3.579,87.431,87.431,0,0,0,11.551-4.781,66.683,66.683,0,0,0,7.121-4.112,37.18,37.18,0,0,0,3.6-2.651c.041-.035.083-.069.124-.1a2.829,2.829,0,0,0,0-3.98,2.885,2.885,0,0,0-3.98,0c-.168.145-.343.283-.517.42l-.128.1c-.237.187.748-.572.389-.3-.116.088-.232.177-.349.264q-.446.333-.9.653a61.113,61.113,0,0,1-6.063,3.737q-2.217,1.205-4.513,2.259-.624.287-1.253.563-.337.148-.674.293c-.1.045-.214.085-.317.135-.074.037.677-.283.406-.171l-.215.09q-1.421.592-2.865,1.132a89.785,89.785,0,0,1-13.722,3.9q-2,.4-4.021.72-.489.077-.979.149l-.494.071c-.123.017-.779.107-.29.042s-.1.012-.211.027l-.5.063q-.6.073-1.191.139-4.527.5-9.087.6-4.794.1-9.585-.225-2.272-.156-4.535-.409c-.719-.081-1.435-.176-2.153-.264-.028,0,.64.088.323.043l-.254-.035-.506-.072q-.544-.079-1.087-.163a103.8,103.8,0,0,1-15.293-3.574q-3.171-1-6.271-2.207-.736-.287-1.467-.585-.329-.134-.656-.271c-.107-.045-.214-.1-.323-.135-.078-.029.674.286.406.171l-.212-.09q-1.292-.552-2.568-1.142a83.586,83.586,0,0,1-7.715-4.045c-1.17-.7-2.306-1.439-3.427-2.211-.049-.034-.1-.069-.143-.1a2.826,2.826,0,0,0-2.169-.284,2.869,2.869,0,0,0-1.682,1.293,2.84,2.84,0,0,0-.284,2.169,3.28,3.28,0,0,0,1.293,1.682" transform="translate(-11154.973 1165.488)" fill="#060000"/>
      <path id="パス_22946" data-name="パス 22946" d="M3984.184,1403.779c.345.861.722,1.712,1.113,2.553q1.131,2.432,2.448,4.772a68.2,68.2,0,0,0,3.991,6.31,55.248,55.248,0,0,0,5.875,7.042,35.992,35.992,0,0,0,7.358,5.743q.464.267.938.514a2.97,2.97,0,0,0,2.169.284,2.815,2.815,0,0,0,1.966-3.462,2.838,2.838,0,0,0-1.293-1.682,28.863,28.863,0,0,1-4.22-2.722l.57.44a40.852,40.852,0,0,1-6.149-5.971q-.773-.914-1.5-1.862l.44.57a65.356,65.356,0,0,1-4.819-7.236c-1.042-1.8-2.011-3.654-2.891-5.543-.252-.54-.5-1.084-.728-1.634l.284.672c-.04-.095-.08-.19-.118-.286a3.154,3.154,0,0,0-1.293-1.682,2.814,2.814,0,0,0-3.851,1.01,2.73,2.73,0,0,0-.284,2.169" transform="translate(-11310.966 1698.223)" fill="#060000"/>
      <path id="パス_22947" data-name="パス 22947" d="M4088.544,1411.341c.165.423.347.84.531,1.256.244.552.5,1.1.776,1.636q.631,1.252,1.336,2.465.92,1.587,1.948,3.108c.942,1.4,1.954,2.745,3,4.064q1.548,1.944,3.269,3.741a51.616,51.616,0,0,0,3.99,3.745,55.256,55.256,0,0,0,5.269,3.946,47.5,47.5,0,0,0,5.512,3.113,52.506,52.506,0,0,0,6.979,2.768q.845.266,1.7.5a2.915,2.915,0,0,0,2.168-.284,2.814,2.814,0,0,0,1.01-3.851,2.934,2.934,0,0,0-1.682-1.293,48.219,48.219,0,0,1-5.936-2.052l.672.284a47.646,47.646,0,0,1-8.554-4.7q-1.063-.735-2.086-1.526l.569.44a50.807,50.807,0,0,1-4.205-3.639q-1.843-1.779-3.506-3.731-.859-1.006-1.669-2.053l.44.57a54.758,54.758,0,0,1-3.7-5.422c-.749-1.254-1.448-2.539-2.075-3.859-.18-.379-.354-.76-.517-1.146l.284.672c-.035-.083-.07-.166-.1-.249a3.153,3.153,0,0,0-1.293-1.682,2.814,2.814,0,0,0-3.851,1.01,2.743,2.743,0,0,0-.283,2.169" transform="translate(-11395.747 1692.08)" fill="#060000"/>
    </g>
  </g>
</svg>
