<svg xmlns="http://www.w3.org/2000/svg" xmlns:xlink="http://www.w3.org/1999/xlink" width="88.21" height="68.883" viewBox="0 0 88.21 68.883">
  <defs>
    <clipPath id="clip-path">
      <rect id="長方形_707" data-name="長方形 707" width="88.21" height="68.883" transform="translate(0 0)" fill="none"/>
    </clipPath>
    <clipPath id="clip-path-2">
      <rect id="長方形_695" data-name="長方形 695" width="86.451" height="86.038" fill="none"/>
    </clipPath>
    <clipPath id="clip-path-4">
      <rect id="長方形_704" data-name="長方形 704" width="42.304" height="66.645" fill="none"/>
    </clipPath>
    <clipPath id="clip-path-5">
      <rect id="長方形_765" data-name="長方形 765" width="67.288" height="76.07" fill="none"/>
    </clipPath>
  </defs>
  <g id="worries-item05_illust_sp" transform="translate(-507.946 -1612.468)">
    <rect id="長方形_708" data-name="長方形 708" width="14.078" height="23.037" transform="translate(511.664 1621.813)" fill="#a2efef"/>
    <g id="グループ_2922" data-name="グループ 2922" transform="translate(507.946 1612.468)" clip-path="url(#clip-path)">
      <g id="グループ_2924" data-name="グループ 2924" transform="translate(3.129 8.855)">
        <path id="長方形_694" data-name="長方形 694" d="M-1.895-1.9H12.89V21.874H-1.895Zm13.9.882H-1.013V20.993H12.009Z" transform="translate(2.384 1.895)" fill="#060000"/>
        <path id="パス_23513" data-name="パス 23513" d="M32.531,93.091a.325.325,0,0,1-.184-.2.356.356,0,0,1,.006-.272,12.262,12.262,0,0,0,.639-1.911.376.376,0,0,1,.165-.228.346.346,0,0,1,.272-.051l.215.044a.354.354,0,0,1,.228.155.337.337,0,0,1,.05.269c0,.021-.012.052-.022.092s-.018.071-.022.092a.137.137,0,0,0,.013.1,1.988,1.988,0,0,0,.854.81c.03.013.044,0,.044-.032V90.042a.045.045,0,0,0-.05-.051H33.524a.364.364,0,0,1-.361-.329c0-.034-.017-.046-.051-.038a.363.363,0,0,1-.088.013h-.215a.335.335,0,0,1-.25-.107.352.352,0,0,1-.1-.253v-.93a.357.357,0,0,1,.354-.354h1.816c.034,0,.051-.019.051-.057v-.158a.335.335,0,0,1,.107-.25.351.351,0,0,1,.253-.1h.316a.351.351,0,0,1,.253.1.336.336,0,0,1,.108.25v.158c0,.038.017.057.05.057H37.58a.356.356,0,0,1,.354.354v.93a.351.351,0,0,1-.1.253.336.336,0,0,1-.25.107h-.215a.365.365,0,0,1-.089-.013c-.034-.008-.05,0-.05.038a.364.364,0,0,1-.361.329h-.987c-.034,0-.051.019-.051.057v.538a.045.045,0,0,0,.051.051H37.2a.337.337,0,0,1,.25.107.351.351,0,0,1,.1.253v.076a.351.351,0,0,1-.1.253.336.336,0,0,1-.25.107H35.878a.045.045,0,0,0-.051.051v.74a.06.06,0,0,0,.051.063,15.609,15.609,0,0,0,1.765.076h.1a.326.326,0,0,1,.247.107.335.335,0,0,1,.1.253l-.013.133a.391.391,0,0,1-.12.256.358.358,0,0,1-.259.1H37.63a10.588,10.588,0,0,1-2.572-.237,2.855,2.855,0,0,1-1.44-.857c0-.008-.014-.013-.029-.013a.027.027,0,0,0-.028.019q-.152.437-.342.854a.357.357,0,0,1-.206.193.372.372,0,0,1-.281,0Zm.234-6.258a.368.368,0,0,1-.36-.361V82.082a.368.368,0,0,1,.36-.361h1.8c.034,0,.05-.019.05-.057v-.215a.336.336,0,0,1,.108-.25.351.351,0,0,1,.253-.1h.291a.352.352,0,0,1,.253.1.336.336,0,0,1,.107.25v.215c0,.038.017.057.051.057h1.841a.336.336,0,0,1,.25.108.351.351,0,0,1,.1.253v3.6q0,.291-.01.455a1.329,1.329,0,0,1-.054.31.569.569,0,0,1-.1.209.446.446,0,0,1-.2.107,1.21,1.21,0,0,1-.291.054q-.152.009-.424.01-.177,0-.7-.019a.4.4,0,0,1-.262-.111.361.361,0,0,1-.117-.256l-.006-.133a.317.317,0,0,1,.095-.244.311.311,0,0,1,.247-.1q.278.013.531.013a.482.482,0,0,0,.247-.035q.038-.035.038-.225v-.911c0-.008,0-.013-.01-.013a.022.022,0,0,0-.016.006c-.009.008-.038.034-.089.076l-.209.133a.368.368,0,0,1-.272.057.356.356,0,0,1-.234-.146,10.89,10.89,0,0,0-.823-.993.044.044,0,0,0-.038-.01.034.034,0,0,0-.032.022,3.59,3.59,0,0,1-1.12,1.069.382.382,0,0,1-.282.054.422.422,0,0,1-.25-.149l-.051-.057c-.008-.009-.016-.011-.022-.006a.021.021,0,0,0-.01.019v1.6a.368.368,0,0,1-.36.361Zm.759,2.36h3.341a.363.363,0,0,1,.088.013c.034.008.051,0,.051-.038V88.84c0-.034-.019-.051-.057-.051H33.442c-.038,0-.057.017-.057.051v.329c0,.034.017.046.05.038A.364.364,0,0,1,33.524,89.194Zm-.057-6.625c-.034,0-.051.019-.051.057V84.2c0,.034.017.042.051.025a2.268,2.268,0,0,0,.81-.668,1.91,1.91,0,0,0,.329-.927c0-.038-.017-.057-.05-.057Zm3.4.057c0-.038-.017-.057-.051-.057H35.669c-.038,0-.057.017-.057.051q-.025.215-.05.329a.1.1,0,0,0,.031.095A11.774,11.774,0,0,1,36.84,84.4c.008.009.016.012.022.01a.014.014,0,0,0,.01-.016Z" transform="translate(-27.19 -76.852)" fill="#060000"/>
      </g>
      <g id="グループ_3177" data-name="グループ 3177" transform="translate(7.207 7.928) rotate(-3)" clip-path="url(#clip-path-5)">
        <path id="パス_23991" data-name="パス 23991" d="M46.633,110.442,47.8,125.4l-.2,2.177a81.351,81.351,0,0,0,12.2,1.27,33.186,33.186,0,0,0,12.356-1.54l.695-6.339a4.283,4.283,0,0,0,4.063,1.17c2.586-.554,3.016-3.14,3.386-5.787s.369-3.2.369-3.2,8.61-24.882,8.3-25.313-10-1.637-10-1.637-5.9-2.5-7.136-2.972c-1.158-.445-.412,5.932-1.748,6.294-1.118.3.94,3.259-.194,3.5,0,0-.616.308-.616.8s.348,8.885.348,8.885a5.227,5.227,0,0,1-2.195,2.072,9.442,9.442,0,0,1-3.2.512,2.631,2.631,0,0,0,.8-2.852c-.677-1.6-2.4-2.954-1.539-5.109s2.586-3.509,2.524-5.6a13.041,13.041,0,0,0-1.6-4.8l-2.4.8-1.908,4.494L59.007,87.6,57.5,86.246l-2.753.955-6.7.958-2.375.688Z" transform="translate(-32.576 -59.344)" fill="#fff000"/>
        <path id="パス_23992" data-name="パス 23992" d="M133.133,31.173l1,1.31,5.329-.087,7.947,1.335,2.285,1.137,3.458.714s-.769-1.606.4-5.508,3.165-11.1,2.926-13.744-3.872-7.838-8.818-8.032-7.241,1.334-8.879,4.323-3.327,11.336-3.327,11.336Z" transform="translate(-94.954 -5.906)" fill="#f49902"/>
        <path id="パス_23993" data-name="パス 23993" d="M152.022,40.6s-1.552-.979,1.081.509c.715.4.292,4.121,1.4,4.228,1.188.114,1.537-2.761,2.352-3.147a4.862,4.862,0,0,1,4.932.1l-2.742-1.559.763-2.294a9.982,9.982,0,0,0,3.79-4.29,30.062,30.062,0,0,0,1.518-6.617l-.249-1.6a14.17,14.17,0,0,1-5.11-3.162,10.4,10.4,0,0,1-2.582-3.473,11.43,11.43,0,0,0-5.738,5.783s-1.6,6.514-1.021,8.433a14.719,14.719,0,0,0,1.9,3.751l-.654,2.861Z" transform="translate(-107.191 -13.762)" fill="#fff"/>
        <path id="パス_23994" data-name="パス 23994" d="M141.254,38.841c-.091.409-.175.818-.256,1.228-.18.9-.344,1.813-.481,2.725a20.135,20.135,0,0,0-.272,2.778,5.761,5.761,0,0,0,.125,1.347,10.131,10.131,0,0,0,.616,1.82,16.835,16.835,0,0,0,1.225,2.292l.022.035-.095-.355q-.073.489-.146.977l-.234,1.566-.053.358.41-.413q-.523.032-1.045.06-1.195.065-2.391.115-.762.032-1.525.054a.48.48,0,0,0-.229.855h0a.551.551,0,0,0,.36.1c.886-.026,1.771-.063,2.656-.105q.971-.047,1.943-.1l.36-.021a.485.485,0,0,0,.41-.412l.219-1.473q.074-.5.149-1,.024-.16.048-.32c0-.028.009-.056.013-.085a.549.549,0,0,0-.091-.378c-.109-.173-.216-.347-.318-.523l.062.107a15.446,15.446,0,0,1-1.113-2.3c-.1-.26-.186-.523-.26-.79l.034.12a5.423,5.423,0,0,1-.2-1.429V45.8a20.919,20.919,0,0,1,.341-3.316c.157-.98.341-1.957.544-2.929.041-.2.082-.391.126-.585a.48.48,0,0,0-.768-.443.539.539,0,0,0-.184.318" transform="translate(-97.526 -27.406)" fill="#060000"/>
        <path id="パス_23995" data-name="パス 23995" d="M172.408,16.368a8.466,8.466,0,0,0,.933,1.891,12.032,12.032,0,0,0,3.418,3.566,13.307,13.307,0,0,0,3.424,1.672l-.288-.376.293,1.313.194.872.059.262a.407.407,0,0,0,.017.076c.032.066-.015-.073,0-.1a.9.9,0,0,0-.051.253q-.064.311-.132.622-.209.964-.445,1.921c-.193.778-.358,1.4-.6,2.174a11.922,11.922,0,0,1-.7,1.853c-.029.058-.061.114-.091.171-.013.025-.049.077.017-.029-.031.048-.06.1-.091.145a6.273,6.273,0,0,1-.422.572,9.72,9.72,0,0,1-.978,1.014,16.8,16.8,0,0,1-1.711,1.356.712.712,0,0,0-.387.475c-.054.238-.1.477-.148.716l-.326,1.582a.49.49,0,0,0,.289.5,24.293,24.293,0,0,0,2.843,1.3c.949.368,1.923.636,2.9.911a1.651,1.651,0,0,0,.776.151c.239-.059.478-.215.471-.489-.011-.469-.726-.5-1.067-.6-.482-.134-.964-.267-1.441-.415a23.772,23.772,0,0,1-3.886-1.631c-.074-.039-.149-.078-.223-.118l.289.5q.24-1.161.479-2.321l-.184.318a15.4,15.4,0,0,0,1.976-1.552,7.723,7.723,0,0,0,2.058-2.78,25.354,25.354,0,0,0,.961-3.1c.235-.905.447-1.816.642-2.731.044-.207.1-.415.13-.625a1.487,1.487,0,0,0-.077-.543c-.16-.718-.308-1.44-.48-2.156-.1-.406-.49-.45-.831-.575s-.656-.256-.976-.4a11.329,11.329,0,0,1-1.626-.912,11.091,11.091,0,0,1-2.374-2.134,11.5,11.5,0,0,1-.771-1.04c-.1-.156-.2-.315-.3-.475-.034-.055.045.08.014.024l-.031-.054-.06-.105c-.039-.071-.078-.142-.116-.213a10.489,10.489,0,0,1-.474-1.068c-.007-.017-.012-.034-.018-.052a.483.483,0,0,0-.628-.256.491.491,0,0,0-.256.629" transform="translate(-122.94 -11.202)" fill="#060000"/>
        <path id="パス_23996" data-name="パス 23996" d="M171.236,21.055c.016.125.039.249.067.372a8.506,8.506,0,0,0,.931,2.405,8.661,8.661,0,0,0,2.858,3.03q.122.078.247.153a.353.353,0,0,0,.169.08.366.366,0,0,0,.191.017.491.491,0,0,0,.313-.182.483.483,0,0,0,.1-.36l-.034-.12a.486.486,0,0,0-.148-.193,8.48,8.48,0,0,1-1.348-.992q-.164-.148-.319-.305l.087.087a8.245,8.245,0,0,1-1.049-1.3q-.117-.179-.224-.364l.061.107a8.508,8.508,0,0,1-.435-.857q-.161-.368-.286-.751-.059-.178-.108-.358l.034.12q-.06-.217-.105-.438c-.017-.081-.032-.163-.044-.245,0-.013,0-.025-.005-.039a.48.48,0,0,0-.541-.41h0a.485.485,0,0,0-.313.182.507.507,0,0,0-.1.36" transform="translate(-122.128 -14.629)" fill="#060000"/>
        <path id="パス_23997" data-name="パス 23997" d="M133.023,29.786c.2-.628.44-1.245.67-1.864.279-.747.549-1.5.794-2.255.348-1.079.65-2.172.921-3.273.378-1.536.694-3.087.975-4.643.146-.8.314-1.6.521-2.392.014-.055-.008.028-.009.032.006-.024.013-.048.02-.073l.036-.127c.025-.089.051-.179.077-.268q.074-.251.154-.5.151-.469.326-.93a15.641,15.641,0,0,1,.714-1.608q.09-.175.185-.347l.09-.161.045-.079c.039-.067-.022.038-.024.041l.026-.044q.184-.308.386-.6a9.648,9.648,0,0,1,.769-.985q.092-.1.188-.2l.09-.093.045-.045c-.038.041-.085.084-.024.024q.176-.172.363-.333a6.572,6.572,0,0,1,.683-.514c.051-.034.1-.066.156-.1l.073-.044c.054-.032-.123.071-.06.035l.04-.023c.092-.052.186-.1.281-.147a4.293,4.293,0,0,1,.452-.19c.056-.02.113-.037.17-.054.107-.032-.136.035-.049.013l.054-.013a3.747,3.747,0,0,0,.487-.166c.231-.089.467-.166.706-.235l.054-.015c.087-.025-.069.018-.048.013l.124-.033c.088-.023.176-.044.265-.064q.284-.065.572-.115a10.284,10.284,0,0,1,1.362-.142l.179-.005h.13c.061,0-.122,0-.037,0,.129,0,.258,0,.388.009q.413.018.822.071.426.056.846.15l.209.05.1.027c.109.028-.082-.024.027.007.148.042.295.087.44.135a9.261,9.261,0,0,1,.9.353q.237.108.468.229.11.058.219.118l.11.062a.238.238,0,0,1,.046.027c-.038-.039-.052-.032,0,0a10.728,10.728,0,0,1,1.828,1.389q.11.1.216.208l.046.046c.054.052-.047-.049.006.005l.123.127q.227.237.441.486a9.894,9.894,0,0,1,.675.856q.119.174.227.354c.035.058.022.048-.005-.01.016.033.037.065.055.1q.05.091.1.183a6.9,6.9,0,0,1,.322.729q.07.186.129.376c.019.061.037.123.055.184.023.08-.027-.1,0,0,.009.036.019.071.028.106.067.265.119.533.16.8s.068.543.085.815q.013.208.02.416c0,.067,0,.135,0,.2,0,.12,0-.085,0,0,0,.039,0,.078,0,.117a15.217,15.217,0,0,1-.131,1.751,29.37,29.37,0,0,1-.754,3.664c-.04.154-.077.311-.123.463.027-.09.011-.039-.005.02L154,22l-.066.239q-.129.465-.263.928c-.179.623-.362,1.245-.54,1.867-.355,1.235-.7,2.475-.963,3.734a16.516,16.516,0,0,0-.4,3.412,9.174,9.174,0,0,0,.121,1.537.48.48,0,0,0,.951-.132q-.065-.38-.094-.762-.015-.193-.021-.386c0-.063,0-.126,0-.189,0-.036,0-.072,0-.109,0-.007,0,.115,0,.061,0-.023,0-.046,0-.068a13.551,13.551,0,0,1,.124-1.666,28.4,28.4,0,0,1,.75-3.558l.059-.219c.017-.065-.026.1-.008.03l.013-.048.034-.126q.065-.237.132-.473.132-.468.267-.936c.18-.623.362-1.246.54-1.869.362-1.27.711-2.546.971-3.841a18.043,18.043,0,0,0,.392-3.66,9.077,9.077,0,0,0-.6-3.313,9.616,9.616,0,0,0-2.538-3.413,10.382,10.382,0,0,0-3.736-2.234,10.174,10.174,0,0,0-3.544-.495,10.75,10.75,0,0,0-2.556.413c-.245.07-.49.148-.727.239-.069.026-.137.053-.205.082a.31.31,0,0,0-.087.038c-.007.008.172-.04.1-.028-.025,0-.049.01-.073.015a4.127,4.127,0,0,0-.408.119,5.39,5.39,0,0,0-1.141.581,7.672,7.672,0,0,0-1.51,1.319,11.312,11.312,0,0,0-1.585,2.335,17.681,17.681,0,0,0-1.361,3.555c-.455,1.659-.7,3.361-1.056,5.043q-.226,1.077-.485,2.146-.112.458-.231.913l-.055.208c-.01.039-.022.077-.032.116,0,0,.029-.1.014-.052-.007.024-.013.048-.02.071q-.055.2-.112.4-.385,1.358-.859,2.687c-.239.67-.5,1.334-.74,2-.108.3-.212.592-.309.891a.48.48,0,0,0,.879.386l0-.012" transform="translate(-94.217 -4.498)" fill="#060000"/>
        <path id="パス_23998" data-name="パス 23998" d="M174.3,49.687q-.068.326-.137.652l-.217,1.029-.05.238a.48.48,0,0,0,.768.444l.087-.087a.477.477,0,0,0,.1-.231q.068-.326.137-.652l.217-1.029.05-.238a.48.48,0,0,0-.768-.443l-.087.087a.477.477,0,0,0-.1.231" transform="translate(-124.022 -35.14)" fill="#060000"/>
        <path id="パス_23999" data-name="パス 23999" d="M163.345,44.663a6.6,6.6,0,0,0,1.009.174,5.3,5.3,0,0,0,.56.02.533.533,0,0,0,.313-.181.48.48,0,0,0-.084-.673h0l-.107-.064a.486.486,0,0,0-.253-.033h.1a5.911,5.911,0,0,1-1.311-.17l-.1-.025a.533.533,0,0,0-.355.095.48.48,0,0,0-.089.673l.087.087a.477.477,0,0,0,.232.1" transform="translate(-116.206 -31.174)" fill="#060000"/>
        <path id="パス_24000" data-name="パス 24000" d="M185.933,48.163c-.225-.037-.449-.09-.669-.15l.124.034a4.894,4.894,0,0,1-.728-.252.48.48,0,0,0-.629.255.486.486,0,0,0,0,.373.511.511,0,0,0,.256.256,5.279,5.279,0,0,0,.789.269c.206.056.414.106.624.147l.108.02a.48.48,0,0,0,.444-.768.512.512,0,0,0-.318-.184" transform="translate(-131.229 -34.061)" fill="#060000"/>
        <path id="パス_24001" data-name="パス 24001" d="M164.829,35.522l-.857.186-1.366.3-.314.068a.514.514,0,0,0-.313.181.48.48,0,0,0,.084.673.475.475,0,0,0,.36.1l.857-.186,1.366-.3.313-.068a.513.513,0,0,0,.313-.181.49.49,0,0,0,.1-.36.485.485,0,0,0-.182-.313.474.474,0,0,0-.36-.1" transform="translate(-115.455 -25.332)" fill="#060000"/>
        <path id="パス_24002" data-name="パス 24002" d="M183.824,38.459l.245.145.592.35.714.421.617.364.3.178,0,0a.361.361,0,0,0,.17.08.366.366,0,0,0,.191.017.48.48,0,0,0,.41-.541h0l-.034-.12a.481.481,0,0,0-.148-.193l-.245-.145-.592-.35-.714-.421-.617-.364-.3-.178,0,0a.357.357,0,0,0-.169-.08.367.367,0,0,0-.191-.017.49.49,0,0,0-.313.182.483.483,0,0,0-.1.36l.034.12a.483.483,0,0,0,.148.192" transform="translate(-130.975 -26.816)" fill="#060000"/>
        <path id="パス_24003" data-name="パス 24003" d="M168.129,66.057v0l-.064.107a1.685,1.685,0,0,1,.264-.332l-.087.087a1.553,1.553,0,0,1,.3-.235l-.107.062a1.19,1.19,0,0,1,.273-.117l-.12.034a1.064,1.064,0,0,1,.269-.037h-.129a.957.957,0,0,1,.247.031l-.124-.034a1.074,1.074,0,0,1,.25.107L169,65.665a1.631,1.631,0,0,1,.324.256l-.087-.087a2.364,2.364,0,0,1,.356.469l-.06-.107a1.787,1.787,0,0,1,.18.409l-.034-.12a.685.685,0,0,1,.028.174V66.53a.281.281,0,0,1-.009.069l.034-.124a.145.145,0,0,1-.014.033l.064-.107a.1.1,0,0,1-.014.019l.087-.087-.015.011.107-.062a.157.157,0,0,1-.038.015l.12-.034a.561.561,0,0,1-.14.014h.129a2.892,2.892,0,0,1-.447-.043c-.189-.029-.377-.066-.564-.1-.35-.074-.7-.158-1.045-.247l-.258-.068.124.034h0l.288.376c0-.014,0-.028,0-.043,0,.043,0,.086,0,.128a1.233,1.233,0,0,1,.032-.323l-.034.124a.378.378,0,0,1,.021-.057.48.48,0,0,0-.255-.629.487.487,0,0,0-.373,0,.515.515,0,0,0-.256.256,1.076,1.076,0,0,0-.084.385c-.005.1-.005.194,0,.291a.481.481,0,0,0,.288.376q.491.134.986.251c.245.057.49.111.738.157a4.779,4.779,0,0,0,.632.087,1.4,1.4,0,0,0,.33-.006.738.738,0,0,0,.18-.05.587.587,0,0,0,.291-.291.76.76,0,0,0,.041-.463,1.877,1.877,0,0,0-.145-.435,2.866,2.866,0,0,0-.658-.888,1.81,1.81,0,0,0-.467-.307,1.555,1.555,0,0,0-.311-.1,1.467,1.467,0,0,0-.344-.021,1.059,1.059,0,0,0-.227.029,1.793,1.793,0,0,0-.315.1,1.821,1.821,0,0,0-.427.27,2.162,2.162,0,0,0-.429.482c-.027.043-.052.087-.077.13a.54.54,0,0,0,0,.373.479.479,0,0,0,.628.256h0l.107-.062a.478.478,0,0,0,.149-.194" transform="translate(-119.219 -46.123)" fill="#060000"/>
        <path id="パス_24004" data-name="パス 24004" d="M99.431,17.942s.359-3.282-1.169-4.594c-4.344.4-8.686.91-13,1.555-1.867.279-3.733.583-5.578.984-.735.159-1.469.332-2.189.549-.409.123-.613.148-.8.5a5.783,5.783,0,0,0-.139,2.559,4.135,4.135,0,0,0,1.109,2.591,6.157,6.157,0,0,0,1.487.977c.931.49,1.817,1.121,2.837.775.828-.282,1.636-.66,2.447-.987l4.293-1.731,8.945-2.741Z" transform="translate(-54.548 -9.52)" fill="#fff000"/>
        <path id="パス_24005" data-name="パス 24005" d="M153.6,13.615a9.276,9.276,0,0,1,2.4.908,10.9,10.9,0,0,0,4.849,1.38c1.275-.128,1.75-.361,1.405-.555s-1.169-.672-1.169-.672a38.576,38.576,0,0,0,4.769-1.368c1.26-.574,2.931-1.463,2.422-1.53S165.4,11.7,165.4,11.7s1.332-.564.764-1.305-1.077-.808-1.019-1.245-.148-1.129-.584-1.187-1.659-.885-2.507-.628l-.848.259.448,1.1s-5.07.293-5.507.235-3.713.1-3.713.1a5.5,5.5,0,0,1,1.169,4.594" transform="translate(-108.718 -5.193)" fill="#fff"/>
        <path id="パス_24006" data-name="パス 24006" d="M105.335,41.057l-.539-.413q-.719-.553-1.434-1.112-1.017-.795-2.025-1.6-1.178-.942-2.342-1.9-1.186-.979-2.348-1.984c-.7-.611-1.4-1.232-2.076-1.874q-.225-.214-.446-.432l-.1-.1c-.033-.033-.166-.17-.037-.036l-.19-.194c-.229-.236-.453-.478-.665-.729a5.354,5.354,0,0,1-.454-.6l-.037-.061c-.032-.05.071.127.04.068l-.018-.033c-.02-.038-.04-.078-.059-.118s-.027-.071-.041-.107c-.032-.082.027.132.018.067,0-.016-.007-.033-.01-.049s0-.028,0-.041c-.014-.061,0,.165,0,.083a.255.255,0,0,0,0-.037c0-.048-.052.165-.022.085a.271.271,0,0,0,.017-.036c0-.017-.091.13-.037.066l.063-.077c.062-.073-.1.091-.044.044.016-.014.032-.03.048-.043q.052-.045.106-.085c.086-.064.175-.123.267-.179l.074-.044c.069-.042-.042.025-.057.033l.051-.03q.09-.051.182-.1c.133-.072.27-.139.406-.205.327-.157.659-.3.994-.445.835-.351,1.683-.669,2.534-.977.97-.35,1.946-.683,2.923-1.007s1.962-.64,2.946-.949q1.3-.407,2.6-.8.927-.28,1.857-.554l.749-.219.027-.008.054-.015-.08.022.054-.015q.274-.073.552-.134a9.206,9.206,0,0,1,1.709-.231l.1,0c.054,0-.058,0-.054,0a.406.406,0,0,0,.059,0c.077,0,.154,0,.231.01a2.964,2.964,0,0,1,.393.054l.088.02c0,.011-.119-.036-.051-.014l.048.015a1.546,1.546,0,0,1,.168.065l.072.036c.07.034-.1-.065-.017-.01.067.043.135.085.2.126a14.215,14.215,0,0,0,2.073,1.02,10.334,10.334,0,0,0,2.372.67,7.542,7.542,0,0,0,1.391.053,4.082,4.082,0,0,0,1.1-.187.879.879,0,0,0,.655-.653.819.819,0,0,0-.477-.774,16.551,16.551,0,0,0-1.629-.855q-.465-.222-.936-.433l.288.376a2.739,2.739,0,0,0-2.252-2.517.482.482,0,0,0-.539.413.492.492,0,0,0,.413.538l.079.017c-.067-.014.038.011.056.017.075.024.147.05.219.081s.124.056.185.089l.04.022c.056.029-.081-.053-.03-.017.028.02.058.037.086.056.051.035.1.072.147.112.025.02.049.041.073.063s.093.089.034.031.014.017.029.033l.051.059c.037.045.073.091.107.139s.056.088.086.132-.035-.062-.032-.055.015.027.023.04.025.047.037.071a2.541,2.541,0,0,1,.116.264c.015.039.029.078.042.119l.019.061c.027.085-.015-.059-.012-.045.013.066.032.13.044.2a1.7,1.7,0,0,1,.028.211.477.477,0,0,0,.288.376q.5.222.99.458c.281.134.561.272.837.416.125.065.248.132.371.2l.092.052c.072.041-.1-.063-.01-.006.048.03.1.059.144.089s.085.069.13.1c.016.01-.081-.1-.032-.026.011.015.031.048-.015-.027a.234.234,0,0,1-.044-.121c.01.065.011-.147,0-.073a.319.319,0,0,1,.069-.166c-.04.06-.047,0,.036-.03a.22.22,0,0,0-.058.042s.116-.059.054-.032l-.029.014c-.025.012-.05.022-.075.032s-.056.021-.085.03l-.052.017c-.054.017.121-.028.021-.007a4.51,4.51,0,0,1-.494.083c-.1.01-.2.018-.3.024-.05,0-.1,0-.149,0l-.065,0s-.128,0-.069,0h-.118l-.186-.007q-.177-.009-.353-.026a7.149,7.149,0,0,1-1.1-.207c-.09-.024-.009,0,.008,0l-.078-.022-.137-.04q-.148-.044-.293-.093-.294-.1-.584-.208-.565-.216-1.109-.478-.244-.117-.483-.243l-.231-.125-.1-.058c-.023-.013-.132-.081-.073-.042s-.038-.023-.054-.032l-.089-.055c-.086-.054-.171-.109-.261-.158a1.6,1.6,0,0,0-.321-.127,4.854,4.854,0,0,0-1.917-.078,11.6,11.6,0,0,0-1.477.283c-.258.065-.513.141-.768.216q-.764.223-1.527.452-1.194.357-2.385.726-1.437.445-2.866.908-1.491.484-2.973,1c-.91.317-1.817.645-2.713,1-.694.274-1.388.559-2.052.9a7.1,7.1,0,0,0-.763.441,1.75,1.75,0,0,0-.451.409,1.149,1.149,0,0,0,.171,1.329,9.074,9.074,0,0,0,1.148,1.349c.616.632,1.26,1.235,1.915,1.825.739.667,1.493,1.315,2.254,1.957q1.178.993,2.377,1.962,1.1.89,2.209,1.767.874.69,1.753,1.372.5.391,1.011.778l.132.1a.48.48,0,1,0,.606-.745l-.017-.013" transform="translate(-65.347 -14.938)" fill="#060000"/>
        <path id="パス_24007" data-name="パス 24007" d="M104.33,8.438a1.855,1.855,0,0,0,.289-1.081,1.08,1.08,0,0,0-.944-1,3.967,3.967,0,0,0-1.967.415l.372.885a2.1,2.1,0,0,0,1.1-.952c.166-.4-.2-.948-.475-1.2a1.762,1.762,0,0,0-1.682-.153c-.5.114-1.3.3-1.309.944a1.235,1.235,0,0,0,.585.884,2.909,2.909,0,0,0,.6.371l.121-.917-.718.193-.452.121c-.139.037-.17.013-.018.036a14.24,14.24,0,0,0-1.446-.067,25.147,25.147,0,0,0-3.855-.027c-1.025.114-2.047.3-3.073.391-.413.036-.828.051-1.241.08q-3.288.229-6.566.591c-2.995.33-5.986.736-8.943,1.309-1.449.281-2.889.606-4.31,1-.685.192-1.362.4-2.029.646-.426.159-1.544.369-1.565.927a.468.468,0,0,0,.2.392c.291.2.593.022.871-.1.647-.272,1.311-.5,1.981-.713q.274-.086.551-.167l.262-.076.122-.033.124-.035.106-.029.125-.033.316-.082.579-.146c1.682-.411,3.385-.736,5.093-1.018,1.733-.286,3.474-.526,5.218-.735q2.311-.277,4.629-.485,1.661-.15,3.326-.268c.435-.03.874-.043,1.309-.084,1.288-.122,2.564-.41,3.859-.454.079,0-.127,0-.007,0h.092l.262,0q.283.006.567.015.671.021,1.342.05c.65.027,1.3.065,1.95.088a2.111,2.111,0,0,0,.627-.122l.847-.228a.5.5,0,0,0,.41-.412.49.49,0,0,0-.289-.5c-.028-.012-.055-.026-.081-.04l-.08-.043c.064.036-.013-.009-.037-.025-.04-.027-.5-.355-.457-.407.013-.016.034.191.034.191a.286.286,0,0,1-.084.179c.008-.011.109-.077.026-.028a.994.994,0,0,1,.106-.051,2.611,2.611,0,0,1,.512-.153c.194-.042.389-.076.585-.107.053-.009.107-.013.159-.023-.064.011.063.015.011,0s.059.025.07.031c-.071-.038.012.013.025.026.036.037-.03-.042.024.024.028.034.053.069.078.106.052.072-.011-.026.011.019.014.028.028.056.041.085.028.063.111.346.051.113L102.3,6.3a.965.965,0,0,1-.355.334c-.035.023-.07.046-.108.066.078-.045-.027.013-.036.017-.032.016-.063.033-.1.047a.48.48,0,0,0,.372.885c.147-.063.3-.117.45-.168a3.182,3.182,0,0,1,.84-.186c.031,0,.062,0,.093-.005-.093,0,.005,0,.024,0s.068.01.1.012l.039.008q-.085-.025-.034-.008c0-.007.135.071,0-.008.06.035-.015-.032.024.021a.155.155,0,0,1,.041.089c.031.123.009-.019.007.049a.94.94,0,0,1-.013.123c0,.012-.031.133-.015.076s-.023.064-.023.063c-.027.069-.174.345-.045.126a.5.5,0,0,0,.084.673.483.483,0,0,0,.673-.084" transform="translate(-47.645 -3.714)" fill="#060000"/>
        <path id="パス_24008" data-name="パス 24008" d="M180.057,19.337c.356.013.713.012,1.07.008a10.929,10.929,0,0,0,1.693-.118,3.819,3.819,0,0,0,.486-.116,1.667,1.667,0,0,0,.36-.172l-.107.062a5.628,5.628,0,0,1,.627-.292c.322-.137.646-.268.969-.4.356-.149.712-.3,1.063-.462a10.785,10.785,0,0,0,1.026-.533,3.009,3.009,0,0,0,.33-.223,2.242,2.242,0,0,0,.2-.188.707.707,0,0,0,.086-.1.822.822,0,0,0,.109-.2.84.84,0,0,0,.041-.167.687.687,0,0,0,0-.17.671.671,0,0,0-.047-.163.882.882,0,0,0-.072-.124l-.015-.021a.8.8,0,0,0-.274-.214,1.094,1.094,0,0,0-.244-.08,1.19,1.19,0,0,0-.161-.03,3.491,3.491,0,0,0-.531-.013,7.924,7.924,0,0,0-.995.106c-.317.05-.631.11-.945.178-.177.038-.353.077-.529.12l-.026.006.357.856a5.975,5.975,0,0,0,.826-.757,2.734,2.734,0,0,0,.227-.281,1.771,1.771,0,0,0,.212-.38.98.98,0,0,0,.069-.486,1,1,0,0,0-.178-.419,1.593,1.593,0,0,0-.269-.287,2.1,2.1,0,0,0-.264-.2,3.612,3.612,0,0,0-.757-.372,1.513,1.513,0,0,0-1.7.2.806.806,0,0,0-.168.6,1.151,1.151,0,0,0,.186.48,2.054,2.054,0,0,0,.394.454l.022.02.229-.855-.677.13-1.07.205-.248.048a.509.509,0,0,0-.313.181.479.479,0,0,0,.084.673h0a.482.482,0,0,0,.36.1l.676-.13,1.07-.205.248-.048a.538.538,0,0,0,.226-.094l.087-.087a.357.357,0,0,0,.08-.169.483.483,0,0,0,0-.251.491.491,0,0,0-.165-.253c-.032-.028-.063-.058-.093-.086l.087.087a1.566,1.566,0,0,1-.241-.306l.062.107a.756.756,0,0,1-.073-.167l.034.12a.455.455,0,0,1-.017-.114c0,.043,0,.086,0,.128a.345.345,0,0,1,.011-.085l-.034.124a.331.331,0,0,1,.032-.075l-.063.107a.372.372,0,0,1,.051-.065l-.087.087a.508.508,0,0,1,.1-.075l-.107.062a.514.514,0,0,1,.122-.051l-.12.034a.874.874,0,0,1,.226-.028h-.129a1.879,1.879,0,0,1,.484.072l-.124-.034a3.123,3.123,0,0,1,.756.319l-.107-.064a2.031,2.031,0,0,1,.41.307l-.087-.087a.9.9,0,0,1,.138.175l-.062-.107a.491.491,0,0,1,.048.111l-.034-.12a.348.348,0,0,1,.012.084c0-.043,0-.086,0-.129a.49.49,0,0,1-.019.124l.034-.124a.962.962,0,0,1-.1.227l.064-.107a2.813,2.813,0,0,1-.453.554l.087-.087a6.116,6.116,0,0,1-.543.477l-.04.031-.087.087a.359.359,0,0,0-.08.169.244.244,0,0,0-.017.126.358.358,0,0,0,.033.184.565.565,0,0,0,.148.193.353.353,0,0,0,.169.08.361.361,0,0,0,.191.017c.2-.051.408-.095.612-.139.423-.089.849-.168,1.279-.221a6.043,6.043,0,0,1,.709-.052h-.128a1.741,1.741,0,0,1,.456.045l-.124-.034a.552.552,0,0,1,.131.052l-.107-.063a.279.279,0,0,1,.056.043l-.087-.087a.211.211,0,0,1,.032.041l-.062-.107a.184.184,0,0,1,.017.041l-.034-.12a.18.18,0,0,1,.006.044v-.129a.2.2,0,0,1-.007.052l.034-.124a.32.32,0,0,1-.031.072l.063-.107a.643.643,0,0,1-.1.125l.087-.087a2.454,2.454,0,0,1-.5.355l.107-.062c-.233.135-.474.256-.717.37-.272.128-.547.249-.824.368s-.547.23-.822.344c-.233.1-.467.193-.7.293a4.752,4.752,0,0,0-.457.218l-.143.083.107-.062a1.193,1.193,0,0,1-.278.108L183,18.2a4.7,4.7,0,0,1-.809.13c-.309.029-.621.043-.932.05q-.242.006-.485.006h.128c-.226,0-.453,0-.679-.009h-.042a.534.534,0,0,0-.355.095.48.48,0,0,0-.089.673.468.468,0,0,0,.318.184" transform="translate(-128.12 -9.657)" fill="#060000"/>
        <path id="パス_24009" data-name="パス 24009" d="M186.341,10.635a2.446,2.446,0,0,0-.306.234,1.512,1.512,0,0,0-.272.292.866.866,0,0,0-.124.263.522.522,0,0,0-.023.106.632.632,0,0,0,.036.285.693.693,0,0,0,.375.373,1.758,1.758,0,0,0,.361.114,4.543,4.543,0,0,0,.623.1c.131.013.262.025.392.031a.534.534,0,0,0,.355-.1.48.48,0,0,0,.089-.672.472.472,0,0,0-.318-.184,6.8,6.8,0,0,1-.762-.079c-.1-.016-.2-.036-.3-.062l.124.034a.928.928,0,0,1-.224-.085l.107.064a.285.285,0,0,1-.056-.042l.087.087a.151.151,0,0,1-.021-.028l.061.107a.151.151,0,0,1-.013-.032l.034.12a.155.155,0,0,1,0-.034v.129a.2.2,0,0,1,.006-.047l-.034.124a.344.344,0,0,1,.034-.077l-.063.107a.852.852,0,0,1,.132-.163l-.087.087a2.256,2.256,0,0,1,.369-.293.483.483,0,0,0,.184-.318.489.489,0,0,0-.095-.355.483.483,0,0,0-.318-.184h-.128a.48.48,0,0,0-.226.094" transform="translate(-132.383 -7.52)" fill="#060000"/>
        <path id="パス_24010" data-name="パス 24010" d="M187.894,22.951l.812-.194L190,22.448l.3-.071a.535.535,0,0,0,.313-.181.48.48,0,0,0-.084-.673.469.469,0,0,0-.36-.1l-.812.194-1.294.309-.3.071a.537.537,0,0,0-.313.181.492.492,0,0,0-.1.36.485.485,0,0,0,.181.313.469.469,0,0,0,.36.1" transform="translate(-133.622 -15.278)" fill="#060000"/>
        <path id="パス_24011" data-name="パス 24011" d="M183.455,14.092l.737-.274.1-.039a.48.48,0,0,0,0-.884.519.519,0,0,0-.373,0l-.737.274-.1.039a.48.48,0,0,0,0,.885.519.519,0,0,0,.373,0" transform="translate(-130.369 -9.172)" fill="#060000"/>
        <path id="パス_24012" data-name="パス 24012" d="M151.761,13.74a.9.9,0,0,1,.1.134c.021.03.039.061.057.093l-.061-.107a3.389,3.389,0,0,1,.272.622q.043.129.079.26l-.034-.12a7.8,7.8,0,0,1,.246,1.633q.017.311.017.623c0-.043,0-.086,0-.129q0,.374-.018.747a.531.531,0,0,0,.095.355.48.48,0,0,0,.672.089.471.471,0,0,0,.184-.318,13.659,13.659,0,0,0-.016-1.737,7.918,7.918,0,0,0-.172-1.166,5.613,5.613,0,0,0-.27-.88,3.423,3.423,0,0,0-.28-.534,1.147,1.147,0,0,0-.11-.149v0a.534.534,0,0,0-.318-.184.49.49,0,0,0-.355.095.483.483,0,0,0-.184.318.466.466,0,0,0,.095.355" transform="translate(-108.167 -9.249)" fill="#060000"/>
        <path id="パス_24013" data-name="パス 24013" d="M71.289,19.146S69.2,24.132,69.2,24.994a14.158,14.158,0,0,0,.062,1.416s1.231,7.633,1.847,8.557,3.115,2.071,3.115,2.071l.057,3.034,1.507,1.359,1.108,4.617L78.8,41.553l2.4-.8a18,18,0,0,0,4.37-8.064c1.108-4.863,1.17-9.234.8-9.542s-7.387-4.617-10.65-4.678-4.432.677-4.432.677" transform="translate(-49.352 -13.169)" fill="#fff"/>
        <path id="パス_24014" data-name="パス 24014" d="M65.688,7.691s4.382-.281,9.888,3.483c0,0,1.348.9,1.517,1.91,0,0,1.461-1.629,1.8-1.011s1.292,2.584.618,3.708a7.368,7.368,0,0,1-1.517,1.8s-.225,4.27-1.067,5.563-2.528,3.371-1.8,6.292,2.023,4.888,1.348,6.068S73.5,38.93,73.834,40.84s2.472,3.483,2.079,4.888S74.9,47.414,74.9,47.414a6.316,6.316,0,0,0,3.765-.843c1.205-.881,1.161-1.644,1.7-2.912a6.8,6.8,0,0,0,.921-3.586c-.1-1.535-.4-2.6.212-4A15.654,15.654,0,0,0,83.015,31.6c.1-.907-.072-1.93.1-2.811.128-.646.586-1.259.744-1.927.274-1.159-.032-2.129.654-3.186a2.407,2.407,0,0,0,.268-1.632,6.693,6.693,0,0,0-.724-3.169c-1.011-1.742-2.921-2.36-2.528-6.8A9.32,9.32,0,0,0,75.07,2.41c-3.989-1.236-9.382.9-11.181,3.933s-2.023,5.787-1.742,9.944-.787,5.281-1.18,6.854-.9,4.775,1.292,6.686l3.146-.506,2.753-.955L68.1,25.332a7.508,7.508,0,0,1-3.6-3.82A26.475,26.475,0,0,1,63.27,14.1s.843-4.551,2.416-6.4" transform="translate(-43.237 -1.465)" fill="#f49902"/>
        <path id="パス_24015" data-name="パス 24015" d="M68.359,42.873c.009.122.02.245.03.367q.043.487.093.972.072.691.159,1.381c.073.579.154,1.158.246,1.734.086.543.185,1.085.3,1.623.1.485.224.968.375,1.441a7.71,7.71,0,0,0,.7,1.571,6.727,6.727,0,0,0,1.115,1.416,6.109,6.109,0,0,0,3.353,1.654c.2.029.406.055.61.069a.577.577,0,0,0,.408-.986.638.638,0,0,0-.408-.169q-.2-.014-.4-.04l.153.021a5.784,5.784,0,0,1-1.472-.4l.138.057a5.581,5.581,0,0,1-1.222-.714l.117.09A5.931,5.931,0,0,1,71.6,51.9l.09.117a6.57,6.57,0,0,1-.84-1.447l.057.138a10.8,10.8,0,0,1-.535-1.752c-.152-.655-.273-1.317-.379-1.981q-.09-.564-.165-1.129l.021.153q-.121-.9-.213-1.8-.057-.566-.107-1.133-.008-.1-.015-.194a.616.616,0,0,0-.169-.408.577.577,0,0,0-.816,0,.57.57,0,0,0-.169.408" transform="translate(-48.755 -30.165)" fill="#060000"/>
        <path id="パス_24016" data-name="パス 24016" d="M115.17,37.1c.019-.029.04-.054.06-.081l-.09.117a3.767,3.767,0,0,1,.668-.682l-.117.09a1.873,1.873,0,0,1,.4-.24l-.138.057a1.085,1.085,0,0,1,.269-.076l-.153.021a.788.788,0,0,1,.194,0l-.153-.021a.732.732,0,0,1,.181.049l-.138-.057a.8.8,0,0,1,.165.1l-.117-.09a1.092,1.092,0,0,1,.185.188l-.09-.117a1.626,1.626,0,0,1,.206.362l-.057-.138a3.023,3.023,0,0,1,.192.753l-.021-.153a5.686,5.686,0,0,1-.013,1.5l.021-.153a4.318,4.318,0,0,1-.269,1.079l.057-.138a2.275,2.275,0,0,1-.3.5l.09-.117a2.953,2.953,0,0,1-.518.512l.117-.09a2.993,2.993,0,0,1-.651.395l.138-.057h0l-.138.057a.439.439,0,0,0-.162.149.53.53,0,0,0-.124.35c.023.208.035.418.045.627.024.52.024,1.041,0,1.56-.019.368-.052.735-.1,1.1l.021-.153a9.44,9.44,0,0,1-.39,1.743q-.079.237-.176.468l.057-.138a4.92,4.92,0,0,1-.623,1.093l.09-.117q-.077.1-.16.194a.612.612,0,0,0-.169.408.589.589,0,0,0,.169.408.577.577,0,0,0,.816,0,5.611,5.611,0,0,0,1.008-1.732,8.649,8.649,0,0,0,.451-1.754,14.675,14.675,0,0,0,.172-1.817q.021-.648-.011-1.3c-.009-.2-.018-.392-.042-.586v-.008l-.424.557a3.4,3.4,0,0,0,.563-.292,4.311,4.311,0,0,0,.505-.385,3.457,3.457,0,0,0,.479-.538,4.157,4.157,0,0,0,.645-2.126,4.608,4.608,0,0,0-.315-2.307,1.991,1.991,0,0,0-.307-.465,1.072,1.072,0,0,0-.15-.143,1.805,1.805,0,0,0-.2-.146,1.638,1.638,0,0,0-.221-.1,1.235,1.235,0,0,0-.334-.07.848.848,0,0,0-.194,0,1.626,1.626,0,0,0-.337.064,2.349,2.349,0,0,0-.318.135,2.805,2.805,0,0,0-.467.323,3.444,3.444,0,0,0-.309.284,5.211,5.211,0,0,0-.444.534l-.017.024a.577.577,0,0,0,.652.848.652.652,0,0,0,.344-.265" transform="translate(-80.917 -25.067)" fill="#060000"/>
        <path id="パス_24017" data-name="パス 24017" d="M89.539,44.661l-.019.319-.046.765-.055.922-.048.8c-.008.13-.017.258-.023.389v.005a.593.593,0,0,0,.577.577.583.583,0,0,0,.408-.169l.09-.117a.572.572,0,0,0,.079-.291q.009-.16.019-.319.023-.382.046-.765l.055-.922q.024-.4.048-.8c.008-.13.017-.258.023-.389v-.005a.594.594,0,0,0-.577-.577.584.584,0,0,0-.408.169l-.09.117a.578.578,0,0,0-.079.291" transform="translate(-63.724 -31.442)" fill="#060000"/>
        <path id="パス_24018" data-name="パス 24018" d="M86.043,63.077l.163-.045q.233-.062.468-.118.363-.086.73-.164.478-.1.96-.186.57-.1,1.144-.182l.154-.021-.153.021q.668-.09,1.34-.149.2-.018.4-.032l-.577-.577c0,.067,0,.133,0,.2,0,.174-.014.348-.029.522q-.017.2-.043.391l.021-.153c-.026.192-.057.383-.1.572a5.7,5.7,0,0,1-.162.6q-.057.169-.125.333l.057-.138a3.377,3.377,0,0,1-.3.566q-.049.074-.1.143l.09-.117a2.178,2.178,0,0,1-.382.387l.117-.09a1.821,1.821,0,0,1-.4.236l.138-.057a1.845,1.845,0,0,1-.467.127l.153-.021a1.8,1.8,0,0,1-.474,0l.153.021a1.877,1.877,0,0,1-.473-.13l.138.057a2.418,2.418,0,0,1-.536-.318l.117.09a3.669,3.669,0,0,1-.547-.533q-.07-.083-.136-.169l.09.117a6.232,6.232,0,0,1-.453-.68c-.121-.208-.231-.422-.333-.64q-.069-.148-.133-.3l.057.138c-.054-.128-.106-.258-.151-.388l-.008-.022a.644.644,0,0,0-.265-.344.43.43,0,0,0-.215-.069.439.439,0,0,0-.229.01.578.578,0,0,0-.4.71c.041.123.09.244.14.364a9.723,9.723,0,0,0,.467.987,6.791,6.791,0,0,0,.757,1.1,3.828,3.828,0,0,0,.43.438,3.333,3.333,0,0,0,.6.423,3.144,3.144,0,0,0,.4.174,1.827,1.827,0,0,0,.28.078,2.244,2.244,0,0,0,.9.013,2.279,2.279,0,0,0,.7-.235,1.787,1.787,0,0,0,.243-.149,3.042,3.042,0,0,0,.329-.269,2.29,2.29,0,0,0,.189-.209,4.058,4.058,0,0,0,.253-.344,4.252,4.252,0,0,0,.326-.654,5.494,5.494,0,0,0,.323-1.11,9.34,9.34,0,0,0,.141-1.118c.011-.172.019-.346.017-.519v-.024a.642.642,0,0,0-.169-.408.57.57,0,0,0-.408-.169q-.84.062-1.675.172c-.533.071-1.064.15-1.593.245q-.579.1-1.153.229-.387.086-.771.183c-.106.027-.213.054-.318.086h0a.644.644,0,0,0-.344.265.43.43,0,0,0-.069.215.436.436,0,0,0,.01.229.584.584,0,0,0,.265.344.6.6,0,0,0,.445.057" transform="translate(-60.846 -43.539)" fill="#060000"/>
        <path id="パス_24019" data-name="パス 24019" d="M81.285,45.933a.593.593,0,0,0,.577-.577.584.584,0,0,0-.169-.408.577.577,0,0,0-.986.408.583.583,0,0,0,.169.408.6.6,0,0,0,.408.169" transform="translate(-57.563 -31.937)" fill="#060000"/>
        <path id="パス_24020" data-name="パス 24020" d="M104.489,43.232a.594.594,0,0,0,.577-.577.583.583,0,0,0-.169-.408.6.6,0,0,0-.408-.169.593.593,0,0,0-.577.577.584.584,0,0,0,.169.408.6.6,0,0,0,.408.169" transform="translate(-74.112 -30.01)" fill="#060000"/>
        <path id="パス_24021" data-name="パス 24021" d="M74.585,35.769a.875.875,0,0,1,.064-.092l-.09.117a1.62,1.62,0,0,1,.291-.288l-.117.09a1.691,1.691,0,0,1,.368-.215l-.138.057a1.74,1.74,0,0,1,.439-.119l-.153.021a2.088,2.088,0,0,1,.545,0l-.153-.021a2.988,2.988,0,0,1,.725.2.439.439,0,0,0,.229.01.43.43,0,0,0,.215-.069.646.646,0,0,0,.265-.344l.021-.153a.572.572,0,0,0-.079-.291l-.09-.117a.576.576,0,0,0-.255-.149,3.274,3.274,0,0,0-1.054-.237,2.017,2.017,0,0,0-.37.014,2.553,2.553,0,0,0-.457.089,2.15,2.15,0,0,0-.612.3,2.265,2.265,0,0,0-.4.35c-.06.071-.117.143-.169.22-.009.013-.018.027-.026.041a.43.43,0,0,0-.069.215.593.593,0,0,0,.276.575.583.583,0,0,0,.445.057.6.6,0,0,0,.344-.265" transform="translate(-52.432 -24.371)" fill="#060000"/>
        <path id="パス_24022" data-name="パス 24022" d="M98.668,33.794c.02-.019.042-.036.063-.052l-.117.09a2.125,2.125,0,0,1,.472-.271l-.138.057a2.457,2.457,0,0,1,.623-.169l-.153.021a2.659,2.659,0,0,1,.7,0l-.153-.021a3.283,3.283,0,0,1,.834.234.436.436,0,0,0,.229.01.43.43,0,0,0,.215-.069.644.644,0,0,0,.265-.344l.021-.153a.572.572,0,0,0-.079-.291l-.09-.117a.577.577,0,0,0-.255-.149,3.491,3.491,0,0,0-.48-.164,4.042,4.042,0,0,0-.574-.1,3.138,3.138,0,0,0-.882.042,3.007,3.007,0,0,0-.695.226,2.225,2.225,0,0,0-.358.2,2.189,2.189,0,0,0-.262.2.594.594,0,0,0,0,.816.582.582,0,0,0,.408.169l.153-.021a.576.576,0,0,0,.255-.149" transform="translate(-69.673 -23.035)" fill="#060000"/>
        <path id="パス_24023" data-name="パス 24023" d="M83.12,23.5a4.1,4.1,0,0,0,.294-.557,6.793,6.793,0,0,0,.5-1.528,5.955,5.955,0,0,0-.559-3.916,7.1,7.1,0,0,0-.582-.912c-.131-.177-.266-.351-.4-.525l-.157-.2-.039-.051c-.057-.075.1.124.038.049l-.091-.12a8.654,8.654,0,0,1-.614-.91,6.079,6.079,0,0,1-.278-.545L81.2,14.21c-.043-.1.057.141.018.042-.02-.049-.04-.1-.057-.148q-.064-.168-.119-.339a7.112,7.112,0,0,1-.183-.7q-.041-.2-.072-.392c-.007-.048-.029-.284-.014-.089-.006-.085-.021-.169-.029-.254a15.5,15.5,0,0,1-.044-2.087,10.643,10.643,0,0,0-.529-3.7,9.608,9.608,0,0,0-4.3-5.279A9.489,9.489,0,0,0,72.659.127a10.758,10.758,0,0,0-3.748.081,11.456,11.456,0,0,0-5.928,3.064,9.105,9.105,0,0,0-1.455,1.91,10.739,10.739,0,0,0-1.135,2.925,10.455,10.455,0,0,0-.267,2.3c0,.592.007,1.185.014,1.778.015,1.3.034,2.6.006,3.905-.012.578-.034,1.157-.079,1.734-.02.252-.047.5-.077.754.026-.218,0-.013-.006.038s-.016.1-.025.156c-.018.1-.038.208-.061.311a3.53,3.53,0,0,1-.139.471c-.042.112.072-.161.009-.024l-.057.123q-.068.148-.135.3a14.675,14.675,0,0,0-.6,1.52,7.674,7.674,0,0,0-.258,4.072,6.653,6.653,0,0,0,.957,2.185.578.578,0,1,0,1.009-.563l-.011-.02c-.115-.172-.221-.344-.319-.526q-.071-.129-.135-.263c-.021-.043-.042-.087-.062-.131-.011-.024-.1-.208-.036-.08a4.206,4.206,0,0,1-.315-1.037q-.026-.127-.047-.256c-.007-.042-.015-.086-.019-.127.015.161,0,.015,0-.015q-.027-.249-.034-.5a7.337,7.337,0,0,1,.048-1c.015-.137-.021.135,0,0,.006-.038.011-.077.017-.115q.015-.095.032-.189.044-.24.1-.476c.068-.276.149-.548.241-.817.086-.254.184-.5.287-.75.044-.106-.057.133-.012.029l.023-.054q.034-.078.068-.156.069-.157.141-.312a4.939,4.939,0,0,0,.389-1.094,12.165,12.165,0,0,0,.188-1.483c.092-1.2.094-2.418.089-3.627-.005-1.241-.033-2.482-.033-3.723a9.742,9.742,0,0,1,.06-1.09l.016-.132c.018-.15-.02.128,0-.02.013-.086.026-.17.04-.255q.043-.246.1-.49a10.477,10.477,0,0,1,.537-1.7c.015-.037.065-.143-.01.024l.036-.083q.029-.067.06-.134.073-.16.15-.317.117-.235.246-.464c.078-.136.163-.267.246-.4.039-.063.076-.126.116-.188s.1-.142.146-.211l.1-.13c.031-.041.106-.132-.036.046l.068-.086a9.292,9.292,0,0,1,1.532-1.507c.032-.025.12-.088-.029.022l.068-.051.139-.1q.156-.115.315-.221.315-.211.645-.4.355-.2.725-.378l.194-.089a1.115,1.115,0,0,0,.2-.086c-.107.08-.056.023,0,0l.1-.042q.123-.049.246-.1a12.061,12.061,0,0,1,1.886-.531c.164-.032.329-.062.494-.086l.109-.016c.131-.02-.14.017-.009,0,.084-.01.168-.021.253-.029q.427-.044.857-.051t.84.024q.207.015.413.039l.1.012c.126.015-.143-.021-.018,0l.2.031a9.123,9.123,0,0,1,1.6.414q.188.068.373.143c.036.015.14.069-.015-.007.029.015.061.026.091.04l.181.082q.373.175.73.383.34.2.662.43l.159.116c.026.02.052.041.079.059-.141-.1-.044-.034-.013-.01q.154.122.3.251a8.865,8.865,0,0,1,1.12,1.162l.062.078c.076.1-.082-.109-.009-.012.04.053.08.106.119.16q.117.162.228.33.231.351.43.724.088.165.169.334.044.092.086.186l.042.094c.016.037.069.19.009.02.091.263.2.516.287.783s.159.545.221.822q.047.212.084.425.019.108.036.216l.016.109c.009.063.007.048-.006-.044,0,.024.006.049.009.073.16,1.3-.021,2.6.139,3.9a7.613,7.613,0,0,0,.893,2.876,8.522,8.522,0,0,0,.613.913c.129.171.261.339.392.508l.079.1.039.05-.038-.049c.052.068.1.136.155.2a7.506,7.506,0,0,1,.588.9q.067.123.127.25c.019.04.038.079.055.12l.024.056c.039.086-.063-.155-.011-.024a5.366,5.366,0,0,1,.295,1c0,.009.041.22.036.221l-.009-.066c0,.029.007.058.01.086s.008.086.012.129a5.233,5.233,0,0,1,.015.545q-.006.238-.032.475c0,.019-.032.131,0,.037s0,.018-.005.036q-.019.128-.044.254a6.167,6.167,0,0,1-.217.8q-.051.149-.11.3a.664.664,0,0,0-.029.074c.054-.172.038-.089.018-.044s-.044.1-.067.15a3.95,3.95,0,0,1-.266.5.582.582,0,0,0,.207.79.591.591,0,0,0,.79-.207" transform="translate(-41.762 0)" fill="#060000"/>
        <path id="パス_24024" data-name="パス 24024" d="M61.649,84.662l.039.669.063,1.068.015.247.287-.5-.9.409-1.42.647-.327.149.138-.057-.278.038-.168.023.153-.021-1.113.147q-.754.1-1.509.191-.814.1-1.629.193c-.5.056-.993.109-1.49.153-.553.05-1.175.1-1.37.715-.23.731.582.5,1.078.463.417-.034.832-.076,1.249-.12q.719-.077,1.436-.163t1.437-.177q.618-.078,1.235-.16l1-.133.221-.029a.618.618,0,0,0,.2-.069l.665-.3,1.147-.523.785-.358.04-.018a.577.577,0,0,0,.287-.5l-.039-.669-.063-1.068-.015-.247a.611.611,0,0,0-.169-.408.577.577,0,0,0-.986.408" transform="translate(-37.161 -59.972)" fill="#060000"/>
        <path id="パス_24025" data-name="パス 24025" d="M89.216,98.435l-.053-.231-.138-.6-.191-.832-.216-.94-.208-.907-.168-.734-.1-.438c0-.021-.043-.158-.048-.179l-.114-.139,0,0-.021-.019-.083-.073-.638-.563-.545-.481-.029-.026a.594.594,0,0,0-.816,0,.58.58,0,0,0-.169.408l.021.153a.576.576,0,0,0,.149.255l.446.394.712.628.164.145L87.017,94l.029.126.079.346.117.51.143.625.156.681.158.688.148.644.124.542.089.39c.014.062.029.124.042.186l0,.008a.644.644,0,0,0,.265.344.433.433,0,0,0,.215.069.439.439,0,0,0,.229-.01.585.585,0,0,0,.344-.265l.057-.138a.58.58,0,0,0,0-.307" transform="translate(-61.105 -65.692)" fill="#060000"/>
        <path id="パス_24026" data-name="パス 24026" d="M97.845,93.837l-.606.261-1.121.483-.427.184-.122.052-.032.014-.007,0h0a.3.3,0,0,0-.117.09.576.576,0,0,0-.149.255q-.057.146-.116.293l-.3.765-.42,1.057-.464,1.169-.435,1.1-.339.854-.169.426-.007.019a.436.436,0,0,0-.01.229.43.43,0,0,0,.069.215.646.646,0,0,0,.344.265.585.585,0,0,0,.445-.057l.117-.09a.576.576,0,0,0,.149-.255l.06-.151.165-.414.243-.611.3-.746.325-.819.327-.824.305-.768.258-.649.186-.467c.029-.074.059-.148.088-.222l0-.01-.265.344.229-.1.555-.239.668-.287.578-.249c.094-.04.189-.079.282-.121l0,0a.556.556,0,0,0,.276-.575.43.43,0,0,0-.069-.215.584.584,0,0,0-.344-.265l-.153-.021a.572.572,0,0,0-.291.079" transform="translate(-66.32 -66.87)" fill="#060000"/>
        <path id="パス_24027" data-name="パス 24027" d="M75.706,95.776l-.009.141q-.012.192-.026.385-.019.284-.038.569-.023.347-.046.694l-.05.76-.051.771-.047.717-.04.6-.029.435c0,.069-.01.137-.014.206v.009l.021.153.057.138.09.117a.433.433,0,0,0,.186.119.576.576,0,0,0,.445,0,.433.433,0,0,0,.186-.119l.076-.094.207-.258.305-.38.373-.464.41-.51.412-.513.384-.478.326-.406.233-.291.111-.138,0-.006a.594.594,0,0,0,0-.816.582.582,0,0,0-.408-.169l-.153.021a.576.576,0,0,0-.255.149l-.076.094-.207.258-.305.38-.373.464-.41.51-.412.513-.384.477-.326.406-.233.291-.111.138,0,.006.986.408.009-.141q.013-.192.026-.385l.038-.569.046-.694q.025-.38.05-.76l.051-.771.047-.717q.02-.3.04-.6l.029-.435c0-.069.01-.137.013-.206v-.009a.594.594,0,0,0-.577-.577.585.585,0,0,0-.408.169l-.09.117a.575.575,0,0,0-.079.291" transform="translate(-53.746 -67.897)" fill="#060000"/>
        <path id="パス_24028" data-name="パス 24028" d="M105.872,103.734l.232.268.558.644.675.779.583.674c.094.109.188.219.283.327l0,0a.594.594,0,0,0,.816,0,.58.58,0,0,0,.169-.408l-.021-.153a.573.573,0,0,0-.149-.255l-.232-.268-.558-.644-.675-.779-.583-.674c-.094-.109-.188-.219-.283-.327l0,0a.594.594,0,0,0-.816,0,.582.582,0,0,0-.169.408l.021.153a.579.579,0,0,0,.149.255" transform="translate(-75.39 -73.287)" fill="#060000"/>
        <path id="パス_24029" data-name="パス 24029" d="M49.992,114.832c-.565,2.278-1.056,4.577-1.5,6.883-.357,1.876-.676,3.762-.887,5.661a33.863,33.863,0,0,0-.178,4.44c.07,3.516.36,7.028.633,10.533.109,1.4.225,2.794.311,4.192a15.777,15.777,0,0,1-.016,2.5c-.14,1.471-.33,2.937-.52,4.4q-.074.564-.149,1.129l-.034.254c-.006.044-.042.31-.018.132q-.033.247-.067.495-.089.654-.18,1.307l-.025.178a.6.6,0,0,0,.4.71.581.581,0,0,0,.71-.4c.336-2.394.66-4.792.928-7.195a17.729,17.729,0,0,0,.163-2.746c-.054-1.232-.159-2.461-.254-3.691-.272-3.5-.566-7.009-.694-10.522a40.519,40.519,0,0,1,.019-4.4c.03-.42.07-.84.116-1.259q.035-.318.075-.636.02-.162.041-.324c0-.011.025-.191.008-.065.01-.073.019-.147.029-.22.131-.941.283-1.878.449-2.814.481-2.715,1.057-5.415,1.71-8.094l.033-.135a.578.578,0,1,0-1.11-.32l0,.013" transform="translate(-33.772 -81.595)" fill="#060000"/>
        <path id="パス_24030" data-name="パス 24030" d="M136.485,210.8q-.042.348-.082.7-.1.832-.187,1.661-.111,1.019-.208,2.04c-.055.593-.108,1.187-.139,1.782a3.915,3.915,0,0,0,.033,1.093c.079.336.135.677.2,1.016q.164.893.32,1.786.177,1,.351,2.009.15.868.3,1.736l.157.918.007.043a.578.578,0,0,0,1.055.137h0a.658.658,0,0,0,.057-.445l-.122-.717q-.148-.867-.3-1.734-.184-1.061-.37-2.122-.167-.949-.339-1.9c-.065-.354-.126-.709-.206-1.059,0-.021-.009-.041-.012-.062l.021.153a2.744,2.744,0,0,1-.013-.406c0-.212.015-.425.029-.637.036-.578.086-1.155.141-1.731q.091-.957.2-1.912.086-.793.178-1.586c.029-.251.067-.5.089-.753v-.01a.577.577,0,0,0-.986-.408l-.09.117a.578.578,0,0,0-.079.291" transform="translate(-96.888 -149.938)" fill="#060000"/>
        <path id="パス_24031" data-name="パス 24031" d="M51.951,236.313c.4.111.8.2,1.208.284,1.144.242,2.3.427,3.457.581q2.527.335,5.08.425a54.326,54.326,0,0,0,6.38-.141,52.216,52.216,0,0,0,7.463-1.145q.469-.108.936-.225a.578.578,0,0,0-.307-1.114q-1.876.469-3.783.792-.471.08-.943.151l-.423.062-.2.029-.133.018-.023,0q-.889.117-1.781.2a54.1,54.1,0,0,1-6.51.233q-2.614-.063-5.214-.377l-.545-.069h0l-.127-.017-.249-.035q-.475-.068-.949-.146-.773-.127-1.54-.282c-.495-.1-.984-.218-1.475-.338l-.019-.005a.578.578,0,0,0-.307,1.113" transform="translate(-36.758 -167.579)" fill="#060000"/>
        <path id="パス_24032" data-name="パス 24032" d="M107.688,77.05a7.632,7.632,0,0,0-1.5,4.612,7.826,7.826,0,0,0,.43,2.464,23.38,23.38,0,0,1,.812,2.414q.032.144.057.289c0,.026.008.052.012.077.018.112,0-.036,0-.037a.738.738,0,0,1,.018.176,3.74,3.74,0,0,1,0,.631c0,.034,0,.112-.015.137.027-.035.017-.113,0-.037,0,.026-.009.052-.013.077q-.029.154-.069.305t-.093.3c-.017.05-.035.1-.054.148-.007.019-.014.037-.022.055-.031.078-.027.039,0-.011a3.1,3.1,0,0,0-.134.287q-.072.142-.151.279c-.105.184-.22.362-.34.536q-.086.123-.175.243l-.1.132-.05.066c-.049.064.086-.111,0,0-.157.2-.315.4-.466.609a4.753,4.753,0,0,0-.958,2.524,4.635,4.635,0,0,0,.648,2.607c.216.38.466.739.695,1.111.113.184.22.371.315.564.021.042.041.085.061.128l.033.074c.034.072-.04-.1-.011-.027.038.1.076.2.108.3s.054.192.074.289c.005.026.009.052.015.078.02.1,0-.02,0-.036,0,.057.013.12.015.178a2.045,2.045,0,0,1,0,.268.6.6,0,0,0-.006.064c0-.134.017-.105.007-.057s-.018.1-.029.143c-.02.079-.046.156-.073.233s.016-.041.021-.048a.428.428,0,0,0-.029.057c-.021.044-.044.086-.069.128s-.039.064-.06.095a.415.415,0,0,0-.037.052c.044-.1.067-.081.032-.042-.056.063-.115.123-.176.18s.037-.029.044-.032c-.017.01-.034.025-.051.036q-.052.035-.107.065c-.052.029-.161.051,0,.008-.041.011-.08.029-.121.04a.578.578,0,0,0,.307,1.114,2.232,2.232,0,0,0,1.5-1.99,4.214,4.214,0,0,0-.832-2.572c-.233-.37-.48-.73-.688-1.114q-.078-.143-.147-.291l-.026-.056c-.044-.094.006.01.01.026a1.448,1.448,0,0,0-.065-.167,3.744,3.744,0,0,1-.164-.618c0-.019-.007-.038-.01-.057l0-.019h0l.005.038c0-.019,0-.038-.007-.057s-.005-.051-.008-.077q-.015-.164-.016-.329,0-.146.009-.291c0-.052.008-.1.013-.155,0-.019.006-.039.007-.057,0,.157-.005.042,0,0a3.877,3.877,0,0,1,.148-.6c.016-.049.034-.1.052-.146l.021-.054c.009-.022.05-.092.008-.021s0,0,.01-.02.022-.047.033-.07c.026-.054.054-.107.082-.159a5.349,5.349,0,0,1,.353-.555c.06-.084.121-.167.184-.249l.05-.066c.012-.016.067-.087.018-.024l.018-.023.063-.082A11.44,11.44,0,0,0,107.9,89.9a4.981,4.981,0,0,0,.774-2.6,7.793,7.793,0,0,0-.621-2.589c-.151-.4-.305-.806-.43-1.218-.06-.2-.112-.394-.155-.594q-.031-.143-.055-.29c-.007-.042-.013-.086-.02-.128-.016-.1,0,.033.005.044,0-.037-.009-.073-.013-.11a7.036,7.036,0,0,1-.035-1.179q.007-.138.02-.276c0-.049.009-.1.015-.147,0-.018,0-.037.007-.055l.007-.055q.009-.068-.008.062a1.76,1.76,0,0,0,.044-.273q.029-.154.063-.307a7.693,7.693,0,0,1,.354-1.126c.023-.057.036-.02-.016.036a.343.343,0,0,0,.029-.068q.028-.068.061-.135c.041-.089.085-.178.13-.265q.136-.262.293-.512t.337-.485a.58.58,0,0,0,.057-.445.589.589,0,0,0-.265-.344.583.583,0,0,0-.445-.057.676.676,0,0,0-.344.265" transform="translate(-74.799 -54.751)" fill="#060000"/>
        <path id="パス_24033" data-name="パス 24033" d="M109.278,152.09a5.71,5.71,0,0,0,1.466.093,5.835,5.835,0,0,0,1.447-.283,6.243,6.243,0,0,0,.742-.307,4.615,4.615,0,0,0,.537-.308,4.99,4.99,0,0,0,.578-.451,3.859,3.859,0,0,0,.79-1.027,2.963,2.963,0,0,0,.243-.67c.01-.047.019-.1.026-.143a.439.439,0,0,0,.01-.229.43.43,0,0,0-.069-.215.644.644,0,0,0-.344-.265l-.153-.021a.572.572,0,0,0-.291.079l-.117.09a.576.576,0,0,0-.149.255,2.3,2.3,0,0,1-.155.554l.057-.138a2.737,2.737,0,0,1-.356.6l.09-.117a3.585,3.585,0,0,1-.64.631l.117-.09a4.6,4.6,0,0,1-1.014.584l.138-.057a5.218,5.218,0,0,1-1.321.361l.153-.021a5.187,5.187,0,0,1-1.369,0l.153.021q-.132-.018-.262-.042a.436.436,0,0,0-.229-.01.43.43,0,0,0-.215.069.644.644,0,0,0-.265.344l-.021.153a.578.578,0,0,0,.423.557" transform="translate(-77.638 -105.745)" fill="#060000"/>
        <path id="パス_24034" data-name="パス 24034" d="M77.25,20.438c.095-.007.19-.008.285-.009.266,0,.532.011.8.032q.32.025.638.069l-.153-.021q.618.083,1.227.225a14.171,14.171,0,0,1,1.456.421q.453.157.9.344l-.138-.057a15.479,15.479,0,0,1,2.7,1.472q.4.276.792.576l-.117-.09a17.447,17.447,0,0,1,1.563,1.368q.223.22.438.447a.577.577,0,0,0,.986-.408.615.615,0,0,0-.169-.408,17.957,17.957,0,0,0-3.12-2.622,15.618,15.618,0,0,0-1.477-.862,16.5,16.5,0,0,0-1.523-.681q-.635-.247-1.29-.435-.568-.162-1.149-.276c-.37-.072-.743-.128-1.117-.172-.254-.029-.509-.052-.765-.064-.172-.008-.342-.012-.513-.01q-.116,0-.231.008h-.009a.617.617,0,0,0-.408.169.577.577,0,0,0,0,.816.569.569,0,0,0,.408.169" transform="translate(-54.686 -13.747)" fill="#060000"/>
        <path id="パス_24035" data-name="パス 24035" d="M152.415,121l6.523,1.845-5.057,21.182s-2.018,6.665-5.387,6.483a5.265,5.265,0,0,1-4.477-3.426,18.043,18.043,0,0,1,1.182-7.549C146.777,135,152.415,121,152.415,121" transform="translate(-102.684 -86.301)" fill="#fff000"/>
        <path id="パス_24036" data-name="パス 24036" d="M176.211,100.214l1.039-3.645s4.1-2.817,5.031-3.725,1.962-1.513,1.846-.684a10.388,10.388,0,0,1-.582,1.97s4.089-1.621,5.3-1.6,3.384-.115,3.205.413a17.778,17.778,0,0,1-4.427,4.521c-1.575.894-4.763,2.189-4.763,2.189l-1.441,1.772Z" transform="translate(-125.678 -65.45)" fill="#fff"/>
        <path id="パス_24037" data-name="パス 24037" d="M151.428,120.1l2.128.521,3.389.827.774.189-.472-.666q-.232,1.165-.475,2.327-.584,2.817-1.2,5.626c-.506,2.291-1.03,4.579-1.592,6.857-.507,2.057-1.037,4.11-1.665,6.134-.032.1.047-.149.015-.046l-.024.076-.048.149q-.051.157-.1.315-.094.285-.193.568c-.2.568-.42,1.129-.675,1.675-.158.338-.328.67-.515.994q-.063.109-.128.216l-.065.1c-.019.03-.079.153,0,.006a3.376,3.376,0,0,1-.264.387,7.66,7.66,0,0,1-.566.7q-.135.148-.279.286c-.035.034-.208.177-.053.052-.056.046-.108.1-.166.142a4.794,4.794,0,0,1-.577.408q-.072.043-.146.083a.64.64,0,0,0-.073.039c.125-.093.083-.042.033-.018-.106.049-.211.1-.319.138s-.2.07-.3.1c-.049.014-.1.026-.149.039-.1.026.146-.028.045-.011-.034.005-.066.013-.1.019a3.461,3.461,0,0,1-.623.053h-.075c-.1,0,.154.009.05,0l-.124-.009q-.162-.014-.323-.043t-.3-.065c-.05-.013-.1-.028-.148-.041-.1-.028.15.051.049.016l-.1-.033a4.774,4.774,0,0,1-.605-.263q-.146-.076-.287-.16c-.047-.028-.093-.063-.142-.088,0,0,.135.09.06.038l-.094-.063a4.657,4.657,0,0,1-.553-.432q-.059-.055-.114-.112a.617.617,0,0,0-.055-.058c.122.094.068.078.03.032-.073-.089-.145-.178-.21-.273s-.117-.178-.169-.272a.457.457,0,0,0-.038-.071c.089.105.046.094.019.035s-.054-.115-.079-.173a4.316,4.316,0,0,1-.215-.639c-.007-.028-.013-.056-.021-.084-.028-.108.029.141.007.03-.011-.059-.024-.116-.034-.174q-.036-.2-.057-.392a7.572,7.572,0,0,1-.044-.8c0-.067,0-.135,0-.2,0-.046.02-.278,0-.09.014-.14.015-.281.026-.421.024-.305.061-.612.106-.917.1-.657.235-1.308.4-1.953q.127-.514.274-1.024.074-.257.15-.513l.079-.259.04-.13.027-.087c-.024.075-.025.081-.005.017.482-1.51,1.03-3,1.6-4.477q1.8-4.688,3.709-9.333c.678-1.646,1.366-3.287,2.081-4.917l.093-.21a.577.577,0,1,0-1.046-.489c-.132.3-.261.6-.391.894q-.551,1.274-1.085,2.554-.845,2.016-1.662,4.044c-.671,1.663-1.326,3.333-1.98,5-.6,1.525-1.193,3.051-1.74,4.6A42.948,42.948,0,0,0,142.8,140.8a14.661,14.661,0,0,0-.468,3.826,5.235,5.235,0,0,0,.888,2.949,4.323,4.323,0,0,0,1.088,1.011,5.7,5.7,0,0,0,1.307.681,4.309,4.309,0,0,0,2.847.042,5.735,5.735,0,0,0,2.585-2.005,13.549,13.549,0,0,0,1.912-3.7c.309-.862.577-1.74.833-2.618.3-1.027.576-2.06.844-3.1q.445-1.723.856-3.453.419-1.755.816-3.515.376-1.663.737-3.331.313-1.441.616-2.885.229-1.092.453-2.186.123-.6.244-1.2l.031-.155a.59.59,0,0,0-.472-.666l-2.128-.521-3.39-.826-.774-.189a.581.581,0,0,0-.666.472.592.592,0,0,0,.473.666" transform="translate(-101.511 -84.839)" fill="#060000"/>
        <path id="パス_24038" data-name="パス 24038" d="M175.4,98.2q.146-.438.3-.874c.182-.53.366-1.06.564-1.585.046-.121.092-.242.141-.362a1.226,1.226,0,0,1,.1-.2l-.084.13a2.136,2.136,0,0,1,.378-.408l-.11.1a13.622,13.622,0,0,1,1.136-.891c.467-.338.944-.663,1.422-.986.429-.289.861-.574,1.293-.861.251-.167.514-.327.749-.518a4.074,4.074,0,0,0,.53-.55c.186-.22.369-.443.572-.648q.07-.071.144-.138l-.11.1a1.508,1.508,0,0,1,.3-.216l-.131.067a.632.632,0,0,1,.142-.054l-.144.032a.363.363,0,0,1,.091-.008l-.149-.007a.289.289,0,0,1,.07.013l-.148-.046a.318.318,0,0,1,.058.028l-.13-.084a.287.287,0,0,1,.056.046l-.1-.111a.292.292,0,0,1,.037.056L182.3,90.1a.441.441,0,0,1,.034.1l-.032-.144a.89.89,0,0,1,.015.221l.007-.149a3.348,3.348,0,0,1-.177.839l.046-.148a11.954,11.954,0,0,1-.554,1.407l-.048.1a.58.58,0,0,0,.72.787q.653-.223,1.3-.453c.8-.282,1.6-.567,2.384-.873.18-.07.358-.147.54-.212a4.637,4.637,0,0,1,.537-.15l-.144.032a11.389,11.389,0,0,1,2.312-.239q.307,0,.613.007l-.149-.007a4.022,4.022,0,0,1,1.023.128l-.148-.046a.613.613,0,0,1,.143.062l-.13-.084a.224.224,0,0,1,.042.035l-.1-.11a.122.122,0,0,1,.016.023l-.067-.131a.076.076,0,0,1,.007.017l-.032-.144a.1.1,0,0,1,0,.018l.007-.149a.128.128,0,0,1-.006.031l.046-.148a.516.516,0,0,1-.06.114l.084-.13a5.049,5.049,0,0,1-.542.653c-.295.321-.6.632-.907.94-.662.665-1.34,1.316-2.022,1.96-.239.226-.478.452-.721.674l.11-.1a2.53,2.53,0,0,1-.544.338l.131-.067c-.524.27-1.073.495-1.619.717-.619.252-1.243.492-1.868.733-.463.178-.929.352-1.383.552a1.694,1.694,0,0,0-.465.262,2.853,2.853,0,0,0-.4.527c-.3.443-.6.891-.893,1.34l-.018.028a.438.438,0,0,0-.107.2.43.43,0,0,0-.029.223.577.577,0,0,0,.627.522h0a.555.555,0,0,0,.386-.2c.343-.523.686-1.047,1.044-1.56.044-.063.088-.126.134-.188a.634.634,0,0,1,.077-.1l-.11.1a.488.488,0,0,1,.1-.062l-.131.067c.2-.1.417-.186.628-.271.333-.133.667-.262,1-.391.794-.307,1.589-.612,2.373-.944.33-.14.659-.284.98-.446a3.514,3.514,0,0,0,.731-.432c.216-.187.422-.387.63-.583q.406-.38.808-.766c.622-.6,1.24-1.2,1.84-1.814.245-.252.488-.506.718-.772a2.8,2.8,0,0,0,.444-.611.681.681,0,0,0-.047-.692.985.985,0,0,0-.568-.343,3.933,3.933,0,0,0-.946-.126,12.606,12.606,0,0,0-2.921.175,7.375,7.375,0,0,0-.733.172c-.184.055-.361.13-.54.2-.466.184-.936.357-1.407.529q-1.16.422-2.328.822l-.132.045.72.787c.1-.2.187-.41.273-.619a9.868,9.868,0,0,0,.468-1.364,3.048,3.048,0,0,0,.092-.685,1,1,0,0,0-.182-.625.883.883,0,0,0-1.006-.286,2,2,0,0,0-.7.492c-.337.325-.607.71-.932,1.045-.029.03-.059.058-.088.085l.11-.1a3.763,3.763,0,0,1-.4.293c-.243.165-.488.327-.732.49-.648.43-1.3.861-1.934,1.308a16.213,16.213,0,0,0-1.735,1.349,1.859,1.859,0,0,0-.445.554c-.149.319-.259.659-.378.99-.231.642-.453,1.288-.669,1.935l-.012.036a.643.643,0,0,0-.02.442.577.577,0,0,0,.739.346.556.556,0,0,0,.326-.3" transform="translate(-124.323 -63.603)" fill="#060000"/>
        <path id="パス_24039" data-name="パス 24039" d="M172.818,133.538l.136.032.367.089.543.132.665.161.725.176.732.178.686.167.577.14.417.1.2.048.008,0a.646.646,0,0,0,.424-.095.429.429,0,0,0,.153-.165.436.436,0,0,0,.088-.212.584.584,0,0,0-.094-.424l-.1-.11a.58.58,0,0,0-.278-.13l-.136-.032-.367-.089-.543-.132-.665-.162-.725-.176-.732-.178-.685-.167-.577-.141-.417-.1-.2-.048-.008,0a.643.643,0,0,0-.424.094.431.431,0,0,0-.153.165.438.438,0,0,0-.088.212.583.583,0,0,0,.094.424l.1.11a.582.582,0,0,0,.278.13" transform="translate(-122.916 -94.428)" fill="#060000"/>
        <path id="パス_24040" data-name="パス 24040" d="M20.231,116.5l5.99-.11s3.315,22.285,1.073,26.494-4.61,3.563-4.61,3.563-3.349.182-4.106-4.381a37.5,37.5,0,0,1-.219-9.182Z" transform="translate(-12.962 -83.009)" fill="#fff000"/>
        <path id="パス_24041" data-name="パス 24041" d="M13.87,80.288s.6-3.769.12-4.442-2.484-5.968-2.733-6.367-.777-.191-.949.708a10.508,10.508,0,0,0,0,2.429L7.7,71.838s-4.547-5.213-5.344-5.524-1.193-.064-1.127.362.4,5.793,1.437,7.252S8.9,78.754,8.9,78.754l-.391,1.493Z" transform="translate(-0.871 -47.197)" fill="#fff"/>
        <path id="パス_24042" data-name="パス 24042" d="M13.471,77.873l.058-1.377.008-.2-.036.145a4.233,4.233,0,0,0,.091-1.188,7.753,7.753,0,0,0-.26-2.023,4.243,4.243,0,0,0-.41-1.016,5.4,5.4,0,0,1-.261-.5c-.2-.436-.373-.887-.54-1.338-.354-.959-.666-1.936-1.06-2.88-.069-.166-.141-.331-.225-.49a1.991,1.991,0,0,0-.269-.426.759.759,0,0,0-.683-.284.924.924,0,0,0-.614.484,4.6,4.6,0,0,0-.506,1.7,7.086,7.086,0,0,0-.05,1.094,4.4,4.4,0,0,0,.108.912,3.948,3.948,0,0,0,.165.537l.738-.775a17.976,17.976,0,0,1-1.749-.67c-.23-.1-.457-.211-.677-.332l.129.071a2.8,2.8,0,0,1-.578-.4l.107.1a.831.831,0,0,1-.124-.147l.078.127a5.383,5.383,0,0,0-.454-.589q-.465-.562-.938-1.118-.6-.705-1.214-1.4c-.381-.427-.768-.851-1.173-1.257-.188-.188-.377-.374-.578-.549a2.384,2.384,0,0,0-.357-.27c-.1-.057-.2-.1-.3-.157l.129.071a1.674,1.674,0,0,1-.326-.231l.107.1a3.958,3.958,0,0,0-.3-.349A.628.628,0,0,0,.881,63.2a.85.85,0,0,0-.237.164,1.512,1.512,0,0,0-.428.626,3.611,3.611,0,0,0-.167.714,5.392,5.392,0,0,0-.034,1.1q.051.814.141,1.627c.084.766.192,1.53.348,2.285q.129.622.314,1.228a5.606,5.606,0,0,0,.35.9,2.684,2.684,0,0,0,.613.824c.092.081.2.149.3.221q.617.454,1.231.913l1.745,1.3,1.642,1.227.919.689.043.032-.23-.377.059,1.312q0,.093.008.187a.578.578,0,0,0,1.037.252L8.6,78.3a.576.576,0,0,0,.033-.3L8.6,77.137l-.023-.511a.615.615,0,0,0-.24-.5c-.3-.235-.613-.459-.919-.688L5.532,74.028,3.606,72.592c-.35-.26-.7-.524-1.053-.777a1.2,1.2,0,0,1-.124-.1l.107.1a1.768,1.768,0,0,1-.276-.352l.078.128A4.972,4.972,0,0,1,1.845,70.4l.044.148a17.284,17.284,0,0,1-.521-2.664q-.138-1.059-.207-2.126c-.009-.136-.018-.272-.024-.409,0,.052,0,.1,0,.155a4.516,4.516,0,0,1,.121-1.028l-.036.145a1.655,1.655,0,0,1,.144-.392l-.071.129a.709.709,0,0,1,.094-.13l-.1.107a1.027,1.027,0,0,1,.174-.153l-.128.078a.131.131,0,0,1,.023-.011l-.149.044.012,0-.155,0h.01l-.145-.036.01,0-.129-.071.009.007-.107-.1a.537.537,0,0,1,.06.086,1.023,1.023,0,0,0,.132.156,2.021,2.021,0,0,0,.35.286c.123.076.254.137.381.207l-.129-.071a3.121,3.121,0,0,1,.59.48l-.107-.1c.681.649,1.306,1.361,1.923,2.07q.852.977,1.677,1.978l.332.4-.078-.128a1.847,1.847,0,0,0,.619.625,7.18,7.18,0,0,0,.892.482c.517.242,1.051.448,1.589.638.118.042.237.083.357.122a.58.58,0,0,0,.738-.775c-.03-.077-.057-.155-.081-.235l.044.148A4.177,4.177,0,0,1,9.854,69.4l0,.155a6.255,6.255,0,0,1,.181-1.62L10,68.083a3.1,3.1,0,0,1,.264-.731l-.071.129a.908.908,0,0,1,.132-.189l-.1.107a.419.419,0,0,1,.067-.056l-.127.078A.166.166,0,0,1,10.2,67.4l-.148.044.02,0-.155,0,.024,0L9.8,67.414a.156.156,0,0,1,.031.013L9.7,67.355a.261.261,0,0,1,.053.04l-.107-.1a.871.871,0,0,1,.13.171L9.7,67.338a5.628,5.628,0,0,1,.408.881c.169.426.323.859.477,1.29.315.884.612,1.78,1,2.635a5.161,5.161,0,0,0,.257.5,3.933,3.933,0,0,1,.387.891l-.044-.148a7.2,7.2,0,0,1,.263,1.871l0-.155c0,.231,0,.464-.013.7a2.133,2.133,0,0,1-.04.36l.035-.145a1.209,1.209,0,0,0-.043.283l-.016.374-.036.867-.008.2a.616.616,0,0,0,.125.431.577.577,0,0,0,.812.083h0a.573.573,0,0,0,.209-.381" transform="translate(0 -45.035)" fill="#060000"/>
        <path id="パス_24043" data-name="パス 24043" d="M19.33,114.817l1.989.069,3.171.11.73.025-.5-.485c.094.769.182,1.536.269,2.3q.316,2.8.59,5.609c.225,2.316.429,4.635.587,6.958.077,1.129.144,2.259.192,3.389q.032.765.052,1.53c0,.06,0,.12,0,.179,0,.116,0-.152,0-.036,0,.03,0,.059,0,.088q0,.188.005.376,0,.348,0,.7a23.606,23.606,0,0,1-.153,2.868c-.049.389-.112.776-.192,1.161q-.022.108-.047.215c-.009.042-.02.085-.03.126s-.034.17,0,.021a5.079,5.079,0,0,1-.145.514,8.537,8.537,0,0,1-.327.886q-.084.192-.179.379c-.022.043-.142.235-.039.078-.041.065-.075.132-.114.2a5.154,5.154,0,0,1-.445.624c-.037.044-.075.088-.114.131a.357.357,0,0,0-.058.063c.045-.1.079-.081.023-.026-.085.084-.172.166-.263.244s-.166.135-.254.2c-.043.03-.087.059-.131.089s-.119.051.039-.023c-.03.014-.059.036-.089.052a3.533,3.533,0,0,1-.577.264c-.047.017-.1.029-.144.046.205-.079.035-.011-.021,0q-.147.037-.3.061c-.1.016-.2.029-.3.037-.051,0-.1.007-.153.009-.025,0-.052,0-.077,0,.206-.019.077,0,.026,0a4.544,4.544,0,0,1-.657-.053q-.161-.025-.321-.059c-.06-.013-.224-.083-.043-.009a1.886,1.886,0,0,0-.19-.052,5.74,5.74,0,0,1-.678-.241c-.051-.022-.1-.046-.152-.071l-.074-.038c-.1-.048.124.075.032.018s-.2-.124-.3-.195-.173-.136-.256-.208c-.046-.04-.059-.093.026.026a.543.543,0,0,0-.059-.059q-.069-.069-.134-.142-.114-.127-.215-.263c-.035-.046-.069-.093-.1-.141-.021-.03-.081-.162-.114-.172.039.012.074.124.024.039-.012-.021-.025-.043-.039-.065q-.046-.08-.088-.16-.095-.179-.176-.364a7.242,7.242,0,0,1-.287-.77c-.01-.033-.019-.066-.03-.1.059.17.016.054.005.015-.019-.068-.038-.136-.055-.2q-.059-.227-.108-.457c-.066-.309-.12-.622-.165-.936q-.141-1.031-.178-2.072c-.007-.177-.016-.354-.017-.532,0,.156,0,0,0-.025,0-.045,0-.091,0-.136q0-.16,0-.319,0-.56.012-1.121c.039-1.66.159-3.316.3-4.969.283-3.388.6-6.774.978-10.154.2-1.777.409-3.554.653-5.325q.016-.115.032-.229a.583.583,0,0,0-.507-.64.589.589,0,0,0-.64.507c-.047.331-.091.662-.136.994q-.183,1.391-.346,2.783-.256,2.165-.478,4.334c-.185,1.8-.349,3.6-.51,5.4-.153,1.707-.306,3.416-.4,5.127a43.759,43.759,0,0,0-.054,4.81,14.43,14.43,0,0,0,.672,3.93,5.059,5.059,0,0,0,1.81,2.589,4.752,4.752,0,0,0,1.408.625,5.439,5.439,0,0,0,1.46.226,4.308,4.308,0,0,0,2.742-.927,6.2,6.2,0,0,0,1.859-2.866,14.513,14.513,0,0,0,.691-4.009c.044-.934.036-1.869.017-2.8-.021-1.071-.069-2.14-.128-3.208q-.1-1.762-.236-3.522-.136-1.776-.3-3.549-.154-1.678-.325-3.356-.146-1.439-.3-2.877-.119-1.086-.245-2.171-.069-.6-.141-1.192l-.019-.155a.581.581,0,0,0-.5-.485l-1.989-.069-3.171-.11-.729-.025a.578.578,0,0,0-.132,1.147" transform="translate(-12.018 -81.07)" fill="#060000"/>
        <path id="パス_24044" data-name="パス 24044" d="M27.876,128.051l.126.006.339.017.5.026.612.031.673.034.679.034.631.032.535.027.383.02.183.009h.008a.437.437,0,0,0,.228-.025.428.428,0,0,0,.2-.1.645.645,0,0,0,.209-.381l0-.155a.577.577,0,0,0-.5-.485l-.126-.006-.339-.017-.5-.026-.612-.031-.673-.034-.68-.034-.631-.032-.536-.027-.383-.019-.182-.009h-.008a.437.437,0,0,0-.228.025.432.432,0,0,0-.2.1.644.644,0,0,0-.209.381l0,.155a.577.577,0,0,0,.5.485" transform="translate(-19.52 -90.507)" fill="#060000"/>
        <path id="パス_24045" data-name="パス 24045" d="M45.888,101.257l-.969-.358c.236-.639.974-1.089,2.256-1.376a11.674,11.674,0,0,1,1.663-.24l.062,1.031a10.79,10.79,0,0,0-1.51.219C46.4,100.758,45.963,101.054,45.888,101.257Z" transform="translate(-32.36 -71.155)" fill="#060000"/>
        <path id="パス_24046" data-name="パス 24046" d="M158.448,96.969l-.03-.235-.078-.613-.108-.847-.121-.956-.117-.923-.094-.747-.055-.446c0-.021-.027-.161-.03-.182l-.1-.149,0,0-.019-.021-.075-.081-.579-.624-.494-.533-.026-.029a.594.594,0,0,0-.812-.081.582.582,0,0,0-.209.39l.005.155a.577.577,0,0,0,.122.268l.4.436.646.7.149.161-.122-.268.016.128.044.352.066.519.081.636.088.693.088.7.083.656.07.551.05.4c.008.063.016.126.024.189v.008a.647.647,0,0,0,.23.369.647.647,0,0,0,.436.1.583.583,0,0,0,.369-.23l.071-.131a.581.581,0,0,0,.031-.305" transform="translate(-110.903 -64.456)" fill="#060000"/>
        <path id="パス_24047" data-name="パス 24047" d="M165.837,94.384l-.629.2-1.163.369-.443.14-.126.04-.034.011-.007,0h0a.3.3,0,0,0-.125.078.577.577,0,0,0-.173.239q-.071.14-.145.28l-.379.731-.523,1.01-.578,1.117-.542,1.047-.423.816-.211.408-.009.018a.435.435,0,0,0-.033.227.429.429,0,0,0,.047.221.644.644,0,0,0,.316.3.583.583,0,0,0,.448-.013l.125-.078a.579.579,0,0,0,.173-.239l.075-.145.205-.4.3-.583.369-.712.4-.783.408-.787.38-.734.321-.62.231-.446c.036-.071.073-.141.11-.212l0-.009-.3.316.238-.076.576-.182.693-.219.6-.19c.1-.031.2-.06.293-.093h0a.557.557,0,0,0,.332-.545.428.428,0,0,0-.047-.22.583.583,0,0,0-.316-.3l-.151-.036a.575.575,0,0,0-.3.049" transform="translate(-114.321 -67.279)" fill="#060000"/>
        <path id="パス_24048" data-name="パス 24048" d="M143.959,93.065l-.024.14-.064.38-.094.562q-.057.343-.115.686l-.126.751-.127.762q-.059.354-.118.709l-.1.6-.072.43c-.011.068-.024.136-.034.2V98.3c0,.052,0,.1.005.155l.043.143.078.125a.43.43,0,0,0,.173.137.567.567,0,0,0,.294.069.283.283,0,0,0,.149-.025.436.436,0,0,0,.2-.1l.085-.087.232-.236.342-.348.417-.424.458-.467.461-.47.429-.438.365-.372.261-.266.124-.127.005-.005a.594.594,0,0,0,.081-.812.583.583,0,0,0-.389-.209l-.155.005a.576.576,0,0,0-.268.122l-.085.086-.232.237-.342.348-.417.424-.458.467-.46.469-.43.436-.365.372-.261.266-.124.126-.005.005.94.5.023-.139.064-.38.094-.562.115-.686.126-.752.128-.762q.059-.353.118-.708l.1-.6.072-.43c.011-.068.023-.136.034-.2v-.009a.594.594,0,0,0-.517-.632.584.584,0,0,0-.423.128l-.1.107a.58.58,0,0,0-.108.282" transform="translate(-102.051 -66.005)" fill="#060000"/>
        <path id="パス_24049" data-name="パス 24049" d="M174.495,103.9l.2.29c.234.332.506,1,.948.865a1.05,1.05,0,0,0,.44-.215c.409-.4-.218-.989-.446-1.312-.083-.118-.165-.237-.253-.359a.594.594,0,0,0-.812-.081.581.581,0,0,0-.209.389l.005.155a.577.577,0,0,0,.122.268" transform="translate(-124.363 -73.435)" fill="#060000"/>
        <path id="パス_24050" data-name="パス 24050" d="M40.439,26.159a1.791,1.791,0,0,0-.63,1.434c.1.811.738,3.42-1.691,7.408h0A3.775,3.775,0,0,0,38,37.218a7.111,7.111,0,0,1-.224,4.266c-.154.5-.929.784-.806,1.584" fill="none" stroke="#060000" stroke-width="1"/>
      </g>
      <g id="グループ_3179" data-name="グループ 3179" transform="translate(0.83 -1.098)">
        <rect id="長方形_709" data-name="長方形 709" width="14.078" height="23.48" transform="translate(70.628 9.786)" fill="#f6e3ff"/>
        <path id="長方形_692" data-name="長方形 692" d="M-1.9-1.9H12.89V21.874H-1.9Zm13.9.882H-1.013V20.993H12.009Z" transform="translate(72.057 11.392)" fill="#060000"/>
        <path id="パス_23514" data-name="パス 23514" d="M307.1,94.49l-.025-.241a.249.249,0,0,1,.05-.171.244.244,0,0,1,.152-.095c.021-.008.032-.021.032-.038V90.688a.022.022,0,0,0-.025-.025.173.173,0,0,1-.171-.171v-.3a.336.336,0,0,1,.108-.25.351.351,0,0,1,.253-.1h1.36a.341.341,0,0,1,.329.209.058.058,0,0,0,.076.031.545.545,0,0,1,.1-.012h.266c.034,0,.051-.019.051-.057v-.038a.335.335,0,0,1,.107-.25.352.352,0,0,1,.253-.1h.266a.357.357,0,0,1,.354.354v.038a.05.05,0,0,0,.057.057h.228a.329.329,0,0,1,.291.152c.008,0,.017,0,.025-.013v-.2a.352.352,0,0,1,.1-.253.337.337,0,0,1,.25-.107h.126a.357.357,0,0,1,.361.361v.025c0,.038.017.048.05.032l.146-.063a.364.364,0,0,1,.279,0,.334.334,0,0,1,.2.193q.095.215.215.55a.326.326,0,0,1-.009.263.338.338,0,0,1-.193.18.312.312,0,0,1-.253-.006.329.329,0,0,1-.177-.184q-.076-.2-.228-.582c0-.008-.01-.012-.016-.012s-.009,0-.009.012q.006.481.019.937c0,.042.019.063.057.063h.6a.368.368,0,0,1,.36.361v.006a.367.367,0,0,1-.36.361h-.582a.045.045,0,0,0-.051.051q.006.222.032.557a.011.011,0,0,0,.013.013.026.026,0,0,0,.019-.006l.054-.111q.035-.073.047-.1a.339.339,0,0,1,.2-.174.317.317,0,0,1,.266.022l.05.031a.384.384,0,0,1,.18.218.373.373,0,0,1-.016.282q-.127.26-.31.582a.05.05,0,0,0,.019.076l.209.12a.544.544,0,0,1,.221.231.524.524,0,0,1,.057.307,2.3,2.3,0,0,1-.25.914.511.511,0,0,1-.427.294.84.84,0,0,1-.778-.614q-.025-.044-.057-.013-.139.133-.468.4a.351.351,0,0,1-.262.069.332.332,0,0,1-.231-.139l-.063-.088a.1.1,0,0,0-.088-.044h-.532a.034.034,0,0,0-.038.038.227.227,0,0,1-.234.234h-.209a.356.356,0,0,1-.354-.354V92.757a.352.352,0,0,1,.1-.253.336.336,0,0,1,.25-.107H310.8a.367.367,0,0,1,.361.36v1.392a.021.021,0,0,0,.009.019.021.021,0,0,0,.022,0,2.448,2.448,0,0,0,.228-.247.087.087,0,0,0,.025-.088,16.272,16.272,0,0,1-.158-1.639c0-.034-.019-.051-.057-.051h-1.98a.344.344,0,0,1-.221-.076.021.021,0,0,0-.025-.006.02.02,0,0,0-.013.019v3.037a.361.361,0,0,1-.721,0v-.443c0-.038-.017-.053-.05-.044q-.411.1-.734.152a.307.307,0,0,1-.263-.057A.317.317,0,0,1,307.1,94.49Zm.386,7-.152-.171a.67.67,0,0,1-.146-.62,7.1,7.1,0,0,0,.123-.962q.035-.532.035-1.6V96.49a.335.335,0,0,1,.108-.25.351.351,0,0,1,.253-.1h2.309a.351.351,0,0,1,.253.1.336.336,0,0,1,.108.25v.082a.368.368,0,0,1-.361.36h-.19a.063.063,0,0,0-.069.051.779.779,0,0,0-.025.111.852.852,0,0,1-.025.111c-.009.034,0,.05.038.05h.266a.368.368,0,0,1,.361.361V99.4a.368.368,0,0,1-.361.36h-.222a.05.05,0,0,0-.057.057v1.031a1.488,1.488,0,0,1-.114.753q-.114.146-.576.146h-.07a.366.366,0,0,1-.259-.12.408.408,0,0,1-.114-.272l-.006-.285s-.01,0-.019,0a.522.522,0,0,1-.032.079.466.466,0,0,0-.032.079.3.3,0,0,1-.19.19.324.324,0,0,1-.272-.019l-.126-.057q-.051-.025-.063.025a.215.215,0,0,1-.006.032.08.08,0,0,1-.013.031.184.184,0,0,1-.155.133A.211.211,0,0,1,307.482,101.495Zm.089-14.983a.368.368,0,0,1-.361-.361v-.1a.367.367,0,0,1,.361-.361h.835a.336.336,0,0,1,.25.107.351.351,0,0,1,.1.253v1.613a.19.19,0,0,0,.032.1.816.816,0,0,0,.361.313,2.482,2.482,0,0,0,.728.143q.506.044,1.519.044h1.246a.331.331,0,0,1,.247.1.325.325,0,0,1,.095.25l-.013.108a.391.391,0,0,1-.12.256.359.359,0,0,1-.26.1h-1.183a12.46,12.46,0,0,1-1.933-.114,2.184,2.184,0,0,1-1.022-.392.067.067,0,0,0-.082-.006q-.253.215-.525.405a.312.312,0,0,1-.256.051.327.327,0,0,1-.212-.158l-.1-.158a.352.352,0,0,1-.041-.272.387.387,0,0,1,.161-.234q.164-.108.36-.26a.1.1,0,0,0,.044-.088v-1.3c0-.033-.019-.05-.057-.05Zm.069-2.8a.344.344,0,0,1,.26-.1.356.356,0,0,1,.253.114q.2.215.607.658a.333.333,0,0,1,.092.259.367.367,0,0,1-.117.253l-.108.1a.334.334,0,0,1-.253.095.347.347,0,0,1-.247-.114q-.2-.215-.626-.658a.345.345,0,0,1-.1-.253.336.336,0,0,1,.111-.247Zm.5,15.033a10.7,10.7,0,0,1-.184,2.24.006.006,0,1,0,.013,0,5.1,5.1,0,0,0,.253-.842.3.3,0,0,1,.123-.184.275.275,0,0,1,.212-.05.287.287,0,0,1,.187.114.242.242,0,0,1,.047.209,5.162,5.162,0,0,1-.146.588.046.046,0,0,0,.038.063.749.749,0,0,0,.133.013c.059,0,.094-.011.1-.032a.837.837,0,0,0,.016-.228v-.823c0-.038-.017-.057-.05-.057h-.241a.368.368,0,0,1-.361-.36V97.616a.368.368,0,0,1,.361-.361h.063a.063.063,0,0,0,.069-.05q.013-.038.032-.111c.013-.048.021-.085.025-.111s0-.051-.038-.051h-.607a.045.045,0,0,0-.051.051Zm-.088-8.086a.045.045,0,0,0-.051.051v.468c0,.038.017.057.051.057h.171c.034,0,.05-.019.05-.057v-.468a.045.045,0,0,0-.05-.051Zm0,1.272a.045.045,0,0,0-.051.051v.481c0,.038.017.057.051.057h.171c.034,0,.05-.019.05-.057v-.481a.045.045,0,0,0-.05-.051Zm0,1.285a.045.045,0,0,0-.051.05v.513c0,.038.017.053.051.044l.082-.019.082-.019a.065.065,0,0,0,.057-.069v-.449a.045.045,0,0,0-.05-.05Zm4.151-5.125a3.359,3.359,0,0,1-1.05-.74c-.008-.008-.016-.011-.022-.006a.021.021,0,0,0-.01.019v.019a.4.4,0,0,1-.069.281.374.374,0,0,1-.241.161,14.341,14.341,0,0,1-1.449.259.334.334,0,0,1-.263-.076.386.386,0,0,1-.142-.241l-.038-.234a.2.2,0,0,1,.047-.161.231.231,0,0,1,.149-.086c.021,0,.032-.013.032-.038V83.861a.368.368,0,0,1,.361-.361h2.79a.336.336,0,0,1,.25.107.352.352,0,0,1,.1.253v2.018a.248.248,0,0,1-.253.253c-.009,0-.013,0-.013.006a.018.018,0,0,0,.006.013l.19.139a.315.315,0,0,1,.126.228.289.289,0,0,1-.089.24q-.114.114-.354.329a.044.044,0,0,0-.009.038.034.034,0,0,0,.022.032q.2.114.348.184a.339.339,0,0,1,.174.2.3.3,0,0,1-.022.259l-.063.12a.391.391,0,0,1-.222.19.385.385,0,0,1-.291-.013Zm-2.9,3.322c.034,0,.046-.019.038-.057q-.025-.1-.076-.291a.494.494,0,0,1-.006-.209c0-.025-.011-.046-.044-.063a.283.283,0,0,1-.139-.095c-.021-.03-.044-.038-.07-.025,0,0-.006,0-.006.013v.785a.027.027,0,0,0,.013.022.017.017,0,0,0,.025,0,.343.343,0,0,1,.221-.076Zm-.19,6.5c-.034,0-.05.019-.05.057v.19a.045.045,0,0,0,.05.051h.405c.038,0,.057-.017.057-.051v-.19a.05.05,0,0,0-.057-.057Zm0,.88c-.034,0-.05.019-.05.057v.2c0,.038.017.057.05.057h.405a.05.05,0,0,0,.057-.057v-.2a.05.05,0,0,0-.057-.057Zm.937,2.645a.3.3,0,0,1,.05-.373.039.039,0,0,0,0-.063.278.278,0,0,1-.107-.171q-.038-.2-.126-.582a.248.248,0,0,1,.038-.2.278.278,0,0,1,.386-.082.3.3,0,0,1,.127.177q.076.3.133.589a.169.169,0,0,1,.006.05.027.027,0,0,0,.013.022.022.022,0,0,0,.025,0q.253-.133.3-.165a.385.385,0,0,1,.272-.051.336.336,0,0,1,.228.146l.044.063a.365.365,0,0,1,.063.279.332.332,0,0,1-.152.234,4.916,4.916,0,0,1-.759.4.371.371,0,0,1-.288.01.38.38,0,0,1-.212-.193Zm.329-10.566c.008-.034,0-.051-.038-.051H310c-.034,0-.046.017-.038.051q.044.165.12.494a.063.063,0,0,0,.069.05h.019a.064.064,0,0,0,.07-.05q.076-.247.133-.494Zm-.019,2.543c.038,0,.057-.017.057-.05v-.228c0-.034-.019-.051-.057-.051h-.329c-.038,0-.057.017-.057.051v.228c0,.034.019.05.057.05Zm0,.937a.05.05,0,0,0,.057-.057v-.228a.05.05,0,0,0-.057-.057h-.329a.05.05,0,0,0-.057.057v.228a.05.05,0,0,0,.057.057Zm-.171-10.086c-.038,0-.057.017-.057.051v.158a.05.05,0,0,0,.057.057h1.411c.034,0,.051-.019.051-.057v-.158a.045.045,0,0,0-.051-.051Zm-.057,1.1c0,.034.019.05.057.05h1.411a.045.045,0,0,0,.051-.05v-.158a.045.045,0,0,0-.051-.051h-1.411c-.038,0-.057.017-.057.051v.158Zm.057,1.772q.373-.07.62-.12.051-.013.019-.057a3.155,3.155,0,0,1-.4-.778.069.069,0,0,0-.069-.051h-.171c-.038,0-.057.017-.057.051v.911c0,.038.019.053.057.044Zm1.993,9.82a.06.06,0,0,0-.063.051c-.017.067-.029.116-.038.146s0,.051.038.051h.532a.367.367,0,0,1,.361.361v2.619a.336.336,0,0,1-.108.25.352.352,0,0,1-.253.1h-.418c-.009,0-.013,0-.013.009a.021.021,0,0,0,.006.016,5.973,5.973,0,0,1,.74.4.359.359,0,0,1,.168.231.376.376,0,0,1-.041.281l-.044.082a.32.32,0,0,1-.215.161.333.333,0,0,1-.266-.041q-.3-.184-.677-.373a.359.359,0,0,1-.18-.206.309.309,0,0,1,.022-.262l.139-.247c.008-.008.008-.019,0-.031a.037.037,0,0,0-.032-.019h-.93a.357.357,0,0,1-.354-.354V97.565a.352.352,0,0,1,.1-.253.336.336,0,0,1,.25-.107h.12a.063.063,0,0,0,.069-.051l.019-.073c.009-.031.015-.056.019-.073.008-.034-.006-.051-.044-.051h-.209a.352.352,0,0,1-.253-.1.336.336,0,0,1-.107-.25V96.49a.335.335,0,0,1,.107-.25.351.351,0,0,1,.253-.1h1.9a.351.351,0,0,1,.253.1.335.335,0,0,1,.108.25V96.6a.336.336,0,0,1-.108.25.352.352,0,0,1-.253.1Zm-.968-6.3a.363.363,0,0,1-.146.127c-.034.017-.047.038-.038.063a.394.394,0,0,1,.006.209q-.013.051-.035.149c-.015.065-.026.115-.035.149s0,.057.038.057h.2q.051,0,.051-.063-.006-.114-.009-.342t0-.348s0-.006-.013-.006A.026.026,0,0,0,311.209,90.662Zm.462-4.075q.2-.177.424-.417c.008-.017,0-.029-.019-.038h-.715a.031.031,0,0,0-.029.016.028.028,0,0,0,0,.029,2.287,2.287,0,0,0,.26.4q.032.044.082.006Zm.405,11.421c0-.038-.017-.057-.051-.057h-.551a.05.05,0,0,0-.057.057v.114a.05.05,0,0,0,.057.057h.551c.034,0,.051-.019.051-.057Zm-.051.981a.045.045,0,0,0,.051-.051v-.126a.045.045,0,0,0-.051-.051h-.551c-.038,0-.057.017-.057.051v.126c0,.034.019.051.057.051Zm0,.816a.045.045,0,0,0,.051-.051v-.126c0-.038-.017-.057-.051-.057h-.551a.05.05,0,0,0-.057.057v.126c0,.034.019.051.057.051Zm.544-6.156q-.12.2-.247.38a.105.105,0,0,0-.019.095q.063.3.133.3t.152-.766c0-.008,0-.013-.006-.013a.018.018,0,0,0-.013.006Z" transform="translate(-232.528 -71.204)" fill="#060000"/>
      </g>
    </g>
  </g>
</svg>
