<svg xmlns="http://www.w3.org/2000/svg" xmlns:xlink="http://www.w3.org/1999/xlink" width="161.542" height="72" viewBox="0 0 161.542 72">
  <defs>
    <clipPath id="clip-path">
      <rect id="長方形_835" data-name="長方形 835" width="161.542" height="72" transform="translate(3 -2)" fill="none"/>
    </clipPath>
  </defs>
  <g id="worries-item04_illust_sp2" transform="translate(-3 2)" clip-path="url(#clip-path)">
    <path id="パス_25825" data-name="パス 25825" d="M980.485,116.611s-1.577,1.632-1.632,2.992a12.227,12.227,0,0,1-.707,3.1l-1.849,1.469,1.414,1.9.925,7.125,3.862,2.067,2.448,6.146,5.6-.707-3.7-21.594Z" transform="translate(-856.53 -102.306)" fill="#fff"/>
    <path id="パス_25826" data-name="パス 25826" d="M714.144,199.554s5.71-.336,6.478,1.3,3.359,7.39,3.359,7.39,4.127,10.077,4.223,11.037.768,4.99-3.743,5.95c0,0-2.591-5.662-4.031-5.374l1.535-1.44-3.359-8.061Z" transform="translate(-626.537 -175.048)" fill="#fff"/>
    <path id="パス_25827" data-name="パス 25827" d="M120.175,409.307,37.061,421.212,1.907,397.4l107.486-8.761,10.125,5.6Z" transform="translate(-1.673 -340.964)" fill="#fff"/>
    <path id="パス_25828" data-name="パス 25828" d="M603.887,55.677a17.165,17.165,0,0,0,5.883,4.037c3.02.983,4.284-.14,4.564-.983a15.649,15.649,0,0,0,.145-3.444l-.172-.212.163-.306.776-.813s3.019-1.124,3.23-5.688a25.22,25.22,0,0,0-.211-6.25s-.629-4.03-4-4.872a9.879,9.879,0,0,0-5.48-.043s-6.039,4.845-5.2,8.778a32.272,32.272,0,0,0,2.458,7.092l-.351,1.966Z" transform="translate(-529.475 -32.25)" fill="#fff"/>
    <path id="パス_25829" data-name="パス 25829" d="M239.1,48.155l.151-3.709s2.876-.151,3.558-2.044.681-9.537.681-9.537l-.757-3.406S240.6,28.284,238.9,27.32s-11.538,6.605-11.538,6.605l2.866,7.988-.6,4.274,7.04,2.2v4.466Z" transform="translate(-199.474 -23.894)" fill="#fff"/>
    <path id="パス_25830" data-name="パス 25830" d="M236.912,10.725a3.906,3.906,0,0,0-3-2.085l-.751-1a19.653,19.653,0,0,1-3.669,4.5,6.474,6.474,0,0,1-3.169,1.5l.167,2.835s-1.418-1.084-1.751-.667a4.469,4.469,0,0,0-.584,2.752c.25.584,1.5,1.334,1.5,1.334l-.417,2.669-.751-.334-3.669-9.923s2.835-5.587,4.753-6.671,4.753-.917,6.588-.584,2.752.584,3,1.167a9.037,9.037,0,0,1,.417,1.668l1.751.417Z" transform="translate(-193.729 -4.213)" fill="#f49902"/>
    <path id="パス_25831" data-name="パス 25831" d="M522.335,188.177,515,190.3s-2.388.347-3.647,3.777-.651,10.853-.651,10.853l1.042,11.157,30-2.474s-.261-23.4-.781-23.746-8.031-2.084-8.031-2.084.695,4.168-2.214,4.6-8.378-4.211-8.378-4.211" transform="translate(-447.923 -164.749)" fill="#fff"/>
    <path id="パス_25832" data-name="パス 25832" d="M627.846,215.7l1.414.435.544,3.264,2.013-.6,1.034-3.318,1.523,1.9s2.774,3.209,2.012,5.548l.6-.435.979,16.481s-.653-1.632-4.243-1.2l-4.188-.326-4.732-1.2-.109-12.075,1.36-3.753s2.611-2.5,1.795-4.732" transform="translate(-548.058 -189.051)" fill="#c8e3fa"/>
    <path id="パス_25833" data-name="パス 25833" d="M137.013,180.57l-.227,2.044-2.2,3.406-.227-3.179-7.872-2.347-1.892,2.2-13.852,5.828.151,24.676a8.328,8.328,0,0,0,1.211,2.2c.606.606,12.641,4.844,12.641,4.844s-.227-3.482.454-4.542,2.119-3.028,2.119-3.028l3.633-3.1,3.028-.151,14.533-.908a6.926,6.926,0,0,1,2.347.378,24.02,24.02,0,0,1,2.952,1.135l-2.5-23.919-11.732-3.255Z" transform="translate(-97.161 -158.352)" fill="#c8e3fa"/>
    <path id="パス_25834" data-name="パス 25834" d="M284.862,304.96l-6.283,24.373,16.728-1.362,6.51-24.07Z" transform="translate(-244.405 -266.62)" fill="#fff"/>
    <path id="パス_25835" data-name="パス 25835" d="M225.869,420.577s2.574-3.406,3.936-3.633,5.223.151,5.677.53a4.238,4.238,0,0,1,.833,1.135l-1.06.681-1.06,3.028s.076,2.649-.908,3.028a15.679,15.679,0,0,1-2.8.606s-1.817,2.5-3.936,2.422a5.2,5.2,0,0,1-2.952-.757s-1.135-4.844,2.271-7.04" transform="translate(-196.009 -365.735)" fill="#fff"/>
    <path id="パス_25836" data-name="パス 25836" d="M405.748,409.3s-3.633-1.363-5.374-.984a5.769,5.769,0,0,0-2.5,1.06l.454,2.346s-.908,4.163-.3,5.374.378,1.135,1.59,1.362,3.331-.076,4.012-.833,2.346-8.1,2.119-8.326" transform="translate(-349.017 -358.171)" fill="#fff"/>
    <path id="パス_25837" data-name="パス 25837" d="M70.2,338.315l-1.46-14.152s.337-2.022,1.8-2.134S73.8,321.8,73.8,321.8l.449,14.6.337,1.572Z" transform="translate(-60.31 -282.328)" fill="#fff"/>
    <path id="パス_25838" data-name="パス 25838" d="M482.54,309.019l-1.8-13.7s.449-1.46,1.235-1.8a5.631,5.631,0,0,1,2.134-.225l1.476,15.345Z" transform="translate(-421.768 -257.299)" fill="#fff"/>
    <path id="パス_25839" data-name="パス 25839" d="M765.482,385.173l-.391.032-1.065.086-1.575.128-1.921.156-2.1.171-2.124.172-1.973.16-1.673.136-1.2.1-.571.046-.025,0a.586.586,0,0,0-.388.161.548.548,0,0,0,0,.775.54.54,0,0,0,.388.16l.391-.032,1.065-.086,1.575-.128,1.921-.156,2.1-.171,2.124-.173,1.973-.16,1.673-.136,1.2-.1.571-.046.025,0a.587.587,0,0,0,.388-.161.548.548,0,0,0,0-.775.539.539,0,0,0-.388-.161" transform="translate(-658.268 -337.921)" fill="#060000"/>
    <path id="パス_25840" data-name="パス 25840" d="M310.19,46.957l.269,1.11.429,1.771.1.409-.02-.146q0,.318-.011.636-.015.794-.035,1.588-.027,1.038-.064,2.075c-.026.7-.055,1.4-.1,2.1-.032.551-.067,1.1-.132,1.651q-.009.075-.019.15l.02-.146a4.379,4.379,0,0,1-.3,1.12l.055-.131a3.548,3.548,0,0,1-.449.771l.086-.111a2.78,2.78,0,0,1-.484.493l.111-.086a1.154,1.154,0,0,1-.109.077l.131-.055c-.492.117-1,.2-1.5.265l.146-.02a14.339,14.339,0,0,1-2.59.134.552.552,0,0,0-.548.548.56.56,0,0,0,.548.548,15.875,15.875,0,0,0,3.553-.281c.225-.04.454-.078.675-.136a.559.559,0,0,0,.2-.1,3.318,3.318,0,0,0,.32-.259,4.092,4.092,0,0,0,1.181-2.31c.095-.579.136-1.168.174-1.753.049-.754.082-1.509.111-2.264s.052-1.524.071-2.286q.022-.85.037-1.7a2.848,2.848,0,0,0-.022-.718l-.369-1.521-.394-1.626-.023-.1a.553.553,0,0,0-.674-.383.56.56,0,0,0-.383.674" transform="translate(-267.747 -40.586)" fill="#060000"/>
    <path id="パス_25841" data-name="パス 25841" d="M318.208,79.476l.1.348.237.831.288,1.009.248.869c.04.142.079.284.122.425l0,.006.383-.674-.871.261-.126.038a.573.573,0,0,0-.328.252.548.548,0,0,0,.619.805l.871-.261.126-.038a.557.557,0,0,0,.383-.674l-.1-.348-.237-.831-.288-1.009-.248-.87c-.041-.142-.08-.284-.122-.425l0-.006a.57.57,0,0,0-.252-.328.548.548,0,0,0-.75.2.567.567,0,0,0-.055.422" transform="translate(-279.155 -69.117)" fill="#060000"/>
    <path id="パス_25842" data-name="パス 25842" d="M341.78,88.011a.565.565,0,0,0,.388-.161.548.548,0,0,0,0-.775.548.548,0,0,0-.775,0,.548.548,0,0,0,0,.775.57.57,0,0,0,.388.161" transform="translate(-299.371 -76.253)" fill="#060000"/>
    <path id="パス_25843" data-name="パス 25843" d="M295.568,92.791a.565.565,0,0,0,.388-.161.548.548,0,0,0,0-.775.548.548,0,0,0-.775,0,.548.548,0,0,0,0,.775.57.57,0,0,0,.388.161" transform="translate(-258.829 -80.446)" fill="#060000"/>
    <path id="パス_25844" data-name="パス 25844" d="M278.5,73.551l.021-.017-.111.086a2.945,2.945,0,0,1,.65-.369l-.131.055a3.247,3.247,0,0,1,.822-.226l-.146.02a3.032,3.032,0,0,1,.787,0l-.146-.02a3.152,3.152,0,0,1,.511.113.548.548,0,0,0,.674-.383.555.555,0,0,0-.055-.422.587.587,0,0,0-.328-.252,3.605,3.605,0,0,0-1.923-.05,4.026,4.026,0,0,0-.724.264,3.2,3.2,0,0,0-.4.222,2.96,2.96,0,0,0-.276.2.55.55,0,0,0-.161.388.558.558,0,0,0,.161.388.551.551,0,0,0,.388.161l.146-.02a.547.547,0,0,0,.242-.141" transform="translate(-243.511 -63.149)" fill="#060000"/>
    <path id="パス_25845" data-name="パス 25845" d="M331.884,69.1a3.546,3.546,0,0,1,.872-.225l-.146.02a2.787,2.787,0,0,1,.735-.008l-.146-.02a1.848,1.848,0,0,1,.461.123l-.131-.055.025.011a.409.409,0,0,0,.2.065.414.414,0,0,0,.219-.01.548.548,0,0,0,.383-.674.531.531,0,0,0-.252-.328,2.586,2.586,0,0,0-.39-.145,3.055,3.055,0,0,0-.414-.069,2.671,2.671,0,0,0-.557,0,4.461,4.461,0,0,0-.993.2c-.054.018-.109.037-.162.059a.614.614,0,0,0-.328.252.548.548,0,0,0,.2.75l.131.055a.552.552,0,0,0,.291,0" transform="translate(-290.561 -59.459)" fill="#060000"/>
    <path id="パス_25846" data-name="パス 25846" d="M268.511,23.026,268,22l-.073-.145a.549.549,0,0,0-.75-.2.55.55,0,0,0-.2.2q-.154.2-.309.4l-.184.239.086-.111q-.318.411-.639.819-.385.489-.776.972t-.813.981c-.247.291-.5.579-.758.859a6.844,6.844,0,0,1-.6.592q-.057.047-.115.092l.111-.086a6.531,6.531,0,0,1-1.224.722q-.172.08-.347.154l.131-.055a10.852,10.852,0,0,1-1.1.4l-.073.021a.568.568,0,0,0-.328.252.548.548,0,0,0,.2.75.57.57,0,0,0,.422.055c.181-.05.36-.111.537-.174a11.708,11.708,0,0,0,1.317-.554,6.175,6.175,0,0,0,1.27-.822,7.04,7.04,0,0,0,.555-.547c.236-.253.464-.513.689-.776q.378-.441.744-.892t.73-.908q.321-.4.637-.812.276-.355.549-.712c.076-.1.153-.2.228-.3l.01-.013h-.947l.514,1.028.073.145a.548.548,0,0,0,1-.131l.02-.146a.546.546,0,0,0-.075-.277" transform="translate(-228.072 -18.934)" fill="#060000"/>
    <path id="パス_25847" data-name="パス 25847" d="M245.039,90.018a4.968,4.968,0,0,0-.4-.32,3.411,3.411,0,0,0-.77-.432,1.651,1.651,0,0,0-.49-.109,1.247,1.247,0,0,0-.3.024,1.01,1.01,0,0,0-.28.1.5.5,0,0,0-.065.039,1.3,1.3,0,0,0-.171.137,1.345,1.345,0,0,0-.189.247,2.6,2.6,0,0,0-.218.478,4.841,4.841,0,0,0-.227,1.059,5.11,5.11,0,0,0-.037.939,2.1,2.1,0,0,0,.206.9,1.123,1.123,0,0,0,.262.3,4.232,4.232,0,0,0,.414.3,11.046,11.046,0,0,0,1.281.695l.026.012a.408.408,0,0,0,.2.065.414.414,0,0,0,.219-.01.548.548,0,0,0,.383-.674.537.537,0,0,0-.252-.328,12.007,12.007,0,0,1-1.157-.613,4.282,4.282,0,0,1-.393-.264l.111.086a1.139,1.139,0,0,1-.206-.194l.086.111a.471.471,0,0,1-.057-.1l.055.131a1.374,1.374,0,0,1-.083-.342l.02.146a4.627,4.627,0,0,1,.022-1.215l-.02.146a3.891,3.891,0,0,1,.245-.977l-.055.131a1.445,1.445,0,0,1,.179-.323l-.086.111a.547.547,0,0,1,.092-.092l-.111.086a.5.5,0,0,1,.1-.061l-.131.055a.544.544,0,0,1,.129-.035l-.146.02a.735.735,0,0,1,.187,0l-.146-.02a1.315,1.315,0,0,1,.33.1l-.131-.055a3.11,3.11,0,0,1,.673.411l-.111-.086c.078.06.155.123.228.19a.574.574,0,0,0,.388.161.558.558,0,0,0,.388-.161.548.548,0,0,0,0-.775" transform="translate(-212.212 -78.217)" fill="#060000"/>
    <path id="パス_25848" data-name="パス 25848" d="M234.187,6.715l.257-2.4.036-.341a.5.5,0,0,0-.118-.332.611.611,0,0,0-.285-.2l-1.662-.684.4.529a2.581,2.581,0,0,0-.048-.583,2.332,2.332,0,0,0-.483-1.072,3.391,3.391,0,0,0-1.855-.912A20.192,20.192,0,0,0,228.056.2a13.18,13.18,0,0,0-2.971-.175A6.484,6.484,0,0,0,222.3.785a7.978,7.978,0,0,0-1.889,1.6,21.7,21.7,0,0,0-2.76,3.971c-.2.357-.394.717-.575,1.083a.676.676,0,0,0-.086.508c.019.065.043.128.065.192l.837,2.492,1.255,3.735,1.018,3.031c.069.207.131.418.209.622.03.079-.015-.108-.013-.122-.006.033-.006.069-.009.1l-.049.559q-.152,1.753-.3,3.505-.011.131-.023.261a.551.551,0,0,0,.548.548.563.563,0,0,0,.548-.548l.1-1.14.185-2.124.072-.828c.01-.112.029-.227.03-.34a.823.823,0,0,0-.062-.273l-.126-.376-.454-1.351-.631-1.877-.7-2.092-.66-1.964-.512-1.524c-.085-.254-.166-.51-.256-.762l-.011-.034-.055.422c.328-.681.7-1.341,1.095-1.987.371-.613.764-1.214,1.189-1.791q.083-.113.168-.225l.081-.107c-.117.155,0,0,.03-.038q.174-.221.356-.436c.244-.287.5-.566.768-.828q.19-.185.391-.358.093-.08.189-.157c.035-.028.16-.122,0,0l.115-.086a4.767,4.767,0,0,1,.871-.514l.051-.022c-.155.076-.066.027-.028.012l.13-.051q.145-.054.293-.1c.192-.059.386-.107.583-.146q.15-.03.3-.053c.027,0,.195-.028.087-.013s0,0,.015,0l.1-.012c.212-.023.425-.038.639-.045a11.486,11.486,0,0,1,1.263.028q.328.024.654.064l.146.018-.058-.008.087.012.316.048a20.159,20.159,0,0,1,2.137.468q.385.105.765.225l.282.091.071.024.053.02c.1.036-.123-.06-.03-.012s.161.094.242.144c-.154-.094-.039-.031,0,.005s.056.053.083.081.049.057.074.086c-.131-.147-.026-.032,0,.014a1.629,1.629,0,0,1,.107.194c.06.129-.045-.126,0-.009.012.034.025.068.035.1.02.062.036.125.05.188s.04.294.014.05c.009.086.018.172.019.259,0,.033,0,.067,0,.1a.515.515,0,0,0,.118.332.612.612,0,0,0,.285.2l1.662.684-.4-.529-.257,2.4-.037.341a.548.548,0,0,0,.161.388.557.557,0,0,0,.388.16.564.564,0,0,0,.548-.548" transform="translate(-190.351 0)" fill="#060000"/>
    <path id="パス_25849" data-name="パス 25849" d="M317.931,165.52l-.065.617-.1.985c-.013.122-.025.243-.031.366q-.025.471-.05.941c-.013.246-.029.493-.039.739v.012a.548.548,0,0,0,.936.388.6.6,0,0,0,.161-.388q.016-.312.033-.623l.052-.988c.007-.123.014-.243.027-.365l.1-.941c.026-.244.055-.488.077-.732v-.012a.61.61,0,0,0-.161-.388.548.548,0,0,0-.775,0l-.086.111a.546.546,0,0,0-.075.277" transform="translate(-278.675 -144.733)" fill="#060000"/>
    <path id="パス_25850" data-name="パス 25850" d="M130.948,181.71q-.048-1.4-.1-2.794a.565.565,0,0,0-.4-.528l-2.61-.816-4.14-1.294-.956-.3a.535.535,0,0,0-.533.141l-1.927,2.408.242-.141q-1.981.709-3.952,1.446c-2.366.881-4.729,1.776-7.054,2.759a22.652,22.652,0,0,0-2.31,1.073,2.284,2.284,0,0,0-.583.418.953.953,0,0,0-.223.532,15.353,15.353,0,0,0-.118,1.7c-.03.895-.04,1.79-.047,2.685-.019,2.4,0,4.8.02,7.2q.035,3.653.1,7.305.037,2.279.082,4.557a3.748,3.748,0,0,0,.1.887,4.6,4.6,0,0,0,2.256,3.16c.8.38,1.63.716,2.45,1.06q1.784.749,3.576,1.479,2.971,1.216,5.949,2.414l.338.136a.552.552,0,0,0,.674-.383.561.561,0,0,0-.383-.674q-2.43-.976-4.856-1.965-1.948-.794-3.893-1.6l-.895-.373-.4-.169-.094-.039-.217-.092c-.429-.182-.857-.364-1.282-.554-.143-.064-.286-.128-.427-.195-.06-.028-.12-.057-.178-.088a2.413,2.413,0,0,1-.211-.125q-.061-.04-.119-.084c.094.071-.06-.054-.076-.068q-.107-.1-.2-.2-.049-.053-.095-.108c-.009-.011-.107-.135-.033-.038a4.157,4.157,0,0,1-.329-.509c-.086-.155-.162-.314-.232-.476.056.129,0,0-.008-.023s-.029-.075-.043-.112q-.046-.123-.087-.248a5.949,5.949,0,0,1-.172-.637c-.007-.033-.01-.068-.019-.1.076.246.015.184.019.13.007-.106,0-.218-.007-.325q-.047-2.369-.085-4.738-.063-3.867-.1-7.734c-.022-2.458-.037-4.916-.008-7.373.01-.853.023-1.707.063-2.56.013-.264.027-.528.053-.791,0-.046.011-.093.016-.139.009-.094-.029.181-.01.075,0-.021.006-.042.01-.062a1.016,1.016,0,0,0,.038-.156c0,.114-.076.162-.042.1s-.119.115-.058.074a.605.605,0,0,0,.087-.08c.019-.02-.147.1-.046.037l.065-.044c.056-.037.113-.071.171-.105.312-.182.64-.339.968-.492.468-.218.942-.423,1.418-.625l.095-.04.2-.083.441-.182q.444-.182.89-.36c2.353-.941,4.728-1.829,7.108-2.7q.947-.347,1.9-.688l.113-.041a.754.754,0,0,0,.37-.3l1.085-1.357.717-.9-.533.141,2.61.816,4.14,1.294.956.3-.4-.529q.048,1.4.1,2.794a.548.548,0,0,0,1.1,0" transform="translate(-93.197 -154.374)" fill="#060000"/>
    <path id="パス_25851" data-name="パス 25851" d="M319.407,174.562l.838.871,1.338,1.389c.107.111.21.226.321.333a.689.689,0,0,0,.322.169l.735.2,1.372.377q.891.247,1.781.5,1,.284,2.006.576t1.992.593c.6.184,1.2.371,1.8.568.459.152.917.307,1.368.483q.125.049.249.1l-.131-.055a2.276,2.276,0,0,1,.5.257l-.111-.086a.294.294,0,0,1,.051.048l-.086-.111a.108.108,0,0,1,.014.023l-.055-.131a.551.551,0,0,1,.02.122c.011.079.022.158.033.237l-.02-.146c.069.511.134,1.022.2,1.533q.14,1.1.278,2.2.145,1.154.288,2.307.117.937.233,1.874.054.439.109.877v.012a.6.6,0,0,0,.16.388.548.548,0,0,0,.775,0,.527.527,0,0,0,.161-.388l-.152-1.225q-.173-1.4-.347-2.791-.189-1.517-.381-3.033c-.088-.7-.175-1.4-.272-2.092-.008-.054-.013-.11-.025-.164a.733.733,0,0,0-.327-.409,2.472,2.472,0,0,0-.475-.243c-.681-.29-1.385-.525-2.088-.753-.921-.3-1.847-.579-2.776-.853q-1.461-.432-2.928-.844-1.207-.341-2.417-.672-.629-.173-1.259-.343l-.057-.015.242.141-.849-.881-1.346-1.4-.31-.322a.548.548,0,1,0-.775.775" transform="translate(-280.087 -152.329)" fill="#060000"/>
    <path id="パス_25852" data-name="パス 25852" d="M194.642,301.391q.666-.643,1.349-1.266c.378-.347.76-.69,1.15-1.023.174-.149.349-.3.528-.438l.116-.091s-.119.091-.055.043l.027-.021.062-.047c.067-.05.134-.1.2-.145s.111-.074.17-.105l.032-.017c.07-.041-.078.042-.083.034s.081-.028.089-.031a1.829,1.829,0,0,1,.206-.048l.114-.018c-.03.005-.156.018-.064.009l.074-.008a8.839,8.839,0,0,1,1.332-.007c.257.014.513.035.769.06q.2.02.408.045l.188.024.047.006-.068-.009.109.015c.479.068.957.152,1.427.267.191.047.381.1.567.163l.11.04.051.02c.091.035-.075-.034-.059-.025.056.03.114.052.169.085.021.013.041.029.063.041.047.026-.107-.1-.076-.058a1.489,1.489,0,0,0,.116.108c.03.031.057.064.086.1.046.048-.026-.029-.022-.03s.032.045.034.049a2.318,2.318,0,0,1,.121.21c.046.085-.036-.106,0,.011.01.03.021.06.031.091.018.06.032.122.045.184.018.091,0,.005,0-.045,0,.022.005.045.007.068,0,.04,0,.08,0,.12a.864.864,0,0,1,0,.1l.271-.473-.841.382a.717.717,0,0,0-.471.427c-.03.073-.058.146-.087.219q-.223.559-.443,1.118a8.994,8.994,0,0,0-.338.884,4.564,4.564,0,0,0-.082.9c-.013.211-.029.422-.049.632-.011.114-.026.228-.039.342-.009.075.021-.15.005-.041,0,.03-.009.06-.013.09q-.014.09-.029.179a4.893,4.893,0,0,1-.156.651c-.017.052-.036.1-.054.153s-.063.117.016-.034c-.01.019-.017.039-.026.058a2.2,2.2,0,0,1-.135.241c-.03.049-.076.06.033-.039-.015.014-.028.034-.042.049s-.058.051-.082.08c-.039.047.127-.085.055-.042-.019.011-.037.025-.055.036-.041.026-.084.049-.128.071s-.219.087-.037.021c-.048.017-.1.038-.145.055-.109.039-.219.072-.33.1a8.066,8.066,0,0,1-.821.173l-.223.034-.063.009c-.1.014.144-.019-.009,0q-.19.024-.38.043c-.274.028-.549.052-.825.063a.57.57,0,0,0-.529.4l-.011.028-.013.031c-.031.083.072-.163.034-.08s-.087.188-.135.279q-.106.2-.232.389c-.052.077-.106.153-.161.227s.073-.091.033-.042l-.044.056q-.049.06-.1.119a4.288,4.288,0,0,1-.472.466c-.043.036-.211.155-.038.034-.051.035-.1.074-.15.109q-.153.106-.316.2c-.117.066-.245.113-.362.178,0,0,.14-.056.063-.027l-.046.018-.093.035q-.1.037-.205.068a3.99,3.99,0,0,1-.427.1l-.109.018c-.139.021.1-.01.006,0s-.173.018-.261.023a4.8,4.8,0,0,1-.573,0c-.105-.006-.21-.017-.314-.028-.038,0-.091-.025.044.006-.028-.007-.058-.008-.086-.013l-.158-.026a7.658,7.658,0,0,1-1.46-.431l.328.252a1.449,1.449,0,0,1-.074-.139c-.012-.024-.023-.049-.034-.074l-.018-.04c-.033-.072.063.157.026.062-.031-.079-.061-.158-.088-.239a4.926,4.926,0,0,1-.173-.684c-.011-.062-.022-.125-.031-.187-.02-.139.01.086,0,0,0-.039-.009-.079-.013-.118q-.026-.256-.031-.513c0-.186,0-.373.01-.559q.008-.146.022-.292.008-.081.017-.162l.007-.062c.013-.1-.019-.03,0,0a.628.628,0,0,1,.026-.171q.012-.076.026-.152.033-.18.073-.36c.056-.249.121-.5.2-.741.04-.13.081-.259.126-.387l.019-.05.006-.017q.027-.066,0,0l-.014.032.022-.05.038-.082a3.973,3.973,0,0,1,.287-.493c.052-.077.107-.152.163-.227s-.061.076.017-.021q.052-.065.106-.128c.12-.142.246-.278.376-.41a9.114,9.114,0,0,1,.775-.7l.078-.062c.08-.063.016-.011-.033.025l.112-.085.1-.07a.557.557,0,0,0,.262-.546.567.567,0,0,0-.393-.456l-2.287-.948-3.618-1.5-.837-.347.4.529q0-.822.01-1.644.011-1.967.023-3.934.014-2.378.028-4.756.012-2.06.024-4.12c0-.663.023-1.327.012-1.99,0-.01,0-.019,0-.028a.548.548,0,1,0-1.1,0q0,.822-.01,1.644-.011,1.967-.023,3.934l-.028,4.756q-.012,2.06-.024,4.12c0,.662-.028,1.328-.012,1.99,0,.009,0,.019,0,.028a.569.569,0,0,0,.4.529l2.287.948,3.618,1.5.838.347-.131-1a8.941,8.941,0,0,0-1.13.941,5.554,5.554,0,0,0-1.477,2.212,7.753,7.753,0,0,0-.193,4.831,4.506,4.506,0,0,0,.225.544.741.741,0,0,0,.435.391,6.9,6.9,0,0,0,2.54.523,4.57,4.57,0,0,0,3.267-1.361,4.791,4.791,0,0,0,1.077-1.654l.01-.026-.529.4a14.781,14.781,0,0,0,1.823-.195,2.985,2.985,0,0,0,2.225-1.086,5.658,5.658,0,0,0,.558-2.442c.023-.3.032-.595.059-.891,0-.022,0-.044.007-.066.006-.071-.038.179-.011.087.008-.028.014-.056.023-.084.038-.11.081-.218.123-.327.239-.62.485-1.236.732-1.853l-.252.328c.343-.156.7-.295,1.034-.47a.682.682,0,0,0,.3-.717,2.194,2.194,0,0,0-.364-1.076,1.873,1.873,0,0,0-.671-.63,4.055,4.055,0,0,0-.639-.245,11.779,11.779,0,0,0-1.584-.336,12.5,12.5,0,0,0-3.573-.169,2.133,2.133,0,0,0-1.014.442c-.462.344-.9.72-1.332,1.1-.69.61-1.375,1.231-2.03,1.878l-.037.035a.548.548,0,0,0,.775.775" transform="translate(-164.276 -246.694)" fill="#060000"/>
    <path id="パス_25853" data-name="パス 25853" d="M298.313,314.022l.345-1.235.828-2.966,1-3.589.866-3.1c.14-.5.294-1,.422-1.511l.006-.022-.529.4.455-.023,1.232-.063,1.82-.093,2.231-.114,2.444-.125,2.456-.126,2.291-.117,1.944-.1,1.392-.071c.22-.011.441-.018.661-.034h.029l-.529-.694-.385,1.27-.918,3.03-1.116,3.683-.96,3.167c-.156.514-.324,1.027-.468,1.545l-.006.021a.554.554,0,0,0,.383.674.559.559,0,0,0,.674-.383l.385-1.27.918-3.03,1.116-3.683.96-3.167c.156-.515.324-1.027.468-1.545l.006-.021a.552.552,0,0,0-.529-.694l-.455.023-1.232.063-1.82.093-2.23.114-2.444.125-2.456.126-2.291.117-1.944.1-1.392.071c-.22.011-.441.02-.661.034h-.029a.564.564,0,0,0-.529.4l-.345,1.235-.828,2.966-1,3.589-.866,3.1c-.14.5-.29,1-.422,1.511l-.006.022a.548.548,0,1,0,1.057.291" transform="translate(-260.774 -263.228)" fill="#060000"/>
    <path id="パス_25854" data-name="パス 25854" d="M399.681,413.653c.064-.2.124-.4.184-.6q.22-.74.419-1.486c.168-.632.324-1.268.459-1.909a18.259,18.259,0,0,0,.324-2.015,6.416,6.416,0,0,0,.034-.772,2.937,2.937,0,0,0-.1-.737,1.2,1.2,0,0,0-.349-.594.95.95,0,0,0-.184-.13c-.109-.052-.224-.095-.336-.139q-.262-.1-.529-.2a12.487,12.487,0,0,0-2.862-.655,5.635,5.635,0,0,0-1.456.037,2.649,2.649,0,0,0-.569.153,5.833,5.833,0,0,0-.861.422,3.033,3.033,0,0,0-.931.834,1.443,1.443,0,0,0-.16.321.641.641,0,0,0-.019.353c.095.494.2.987.3,1.48l.032.157v-.291c-.035.189-.068.378-.1.567q-.114.667-.212,1.336c-.081.561-.156,1.124-.206,1.689a7.334,7.334,0,0,0-.029,1.3,11.013,11.013,0,0,0,.163,1.212,3.626,3.626,0,0,0,.32.955,1.826,1.826,0,0,0,.278.393,1.186,1.186,0,0,0,.353.268,2.032,2.032,0,0,0,.443.149,6.872,6.872,0,0,0,2.533.061,4.729,4.729,0,0,0,1.477-.489,3.761,3.761,0,0,0,1.319-1.185,3.31,3.31,0,0,0,.211-.35.578.578,0,0,0,.055-.422.548.548,0,0,0-1-.131,3.3,3.3,0,0,1-.306.479l.086-.111a3.131,3.131,0,0,1-.555.555l.111-.086a3.5,3.5,0,0,1-.773.447l.131-.055a4.643,4.643,0,0,1-1.177.311l.146-.02a6.353,6.353,0,0,1-1.37.028q-.161-.014-.321-.035l.146.02c-.137-.019-.274-.041-.41-.071a1.713,1.713,0,0,1-.3-.084l.131.055a.761.761,0,0,1-.161-.095l.111.086a.966.966,0,0,1-.166-.168l.086.111a1.611,1.611,0,0,1-.2-.352l.055.131a4.611,4.611,0,0,1-.279-1.169l.02.146a7.269,7.269,0,0,1-.078-1.2c.013-.376.048-.751.089-1.125q.038-.345.085-.688l-.02.146q.081-.606.18-1.209.069-.43.146-.859.018-.1.037-.207l.006-.031.02-.146s-.019-.145-.02-.146v-.006l-.006-.031-.166-.826c-.051-.254-.1-.508-.153-.761l0-.014v.291a.368.368,0,0,1,.026-.077l-.055.131a1.047,1.047,0,0,1,.136-.225l-.086.111a2.118,2.118,0,0,1,.384-.372l-.111.086a4.627,4.627,0,0,1,1.011-.567l-.131.055a2.743,2.743,0,0,1,.687-.179l-.146.02a5.718,5.718,0,0,1,1.509.028l-.146-.02a12.673,12.673,0,0,1,2.6.663q.279.1.553.214l-.131-.055a.382.382,0,0,1,.083.049l-.111-.086a.46.46,0,0,1,.079.08l-.086-.111a.689.689,0,0,1,.087.154l-.055-.131a1.48,1.48,0,0,1,.093.373l-.02-.146a5.017,5.017,0,0,1-.013,1.152c-.013.13-.029.259-.046.389l.02-.146c-.063.469-.149.935-.246,1.4s-.212.952-.331,1.424q-.161.637-.34,1.268-.131.466-.271.93c-.041.137-.085.272-.126.409l0,.005a.548.548,0,0,0,.805.619.592.592,0,0,0,.252-.328" transform="translate(-344.359 -354.78)" fill="#060000"/>
    <path id="パス_25855" data-name="パス 25855" d="M275.4,485.776l-.844,2.278-.12.323a.551.551,0,0,0,.529.694l.451-.039,1.215-.1,1.809-.156,2.2-.19,2.409-.208,2.432-.21,2.268-.2,1.923-.166,1.373-.118.655-.056.028,0a.547.547,0,0,0,.473-.271l.289-.674a.6.6,0,0,0,.055-.422.548.548,0,0,0-.674-.383.528.528,0,0,0-.328.252l-.289.674.473-.271-.451.039-1.215.1-1.809.156-2.2.19-2.409.208-2.432.21-2.268.2-1.923.166-1.373.118c-.218.019-.437.034-.655.056l-.028,0,.529.694.844-2.278.12-.323a.553.553,0,0,0-.055-.422.548.548,0,0,0-.75-.2.619.619,0,0,0-.252.328" transform="translate(-240.745 -425.832)" fill="#060000"/>
    <path id="パス_25856" data-name="パス 25856" d="M444.356,342.2q.061.535.119,1.071.144,1.3.281,2.606.171,1.616.329,3.233c.1.978.187,1.957.262,2.937.028.363.054.725.072,1.089a6.746,6.746,0,0,1,.013.678c0,.03,0,.06-.008.09l.02-.146a.876.876,0,0,1-.053.179c-.046.126-.1.251-.15.375l.055-.131c-.278.656-.582,1.3-.885,1.947q-.427.906-.863,1.807l-.177.364a.586.586,0,0,0-.055.422.548.548,0,0,0,1,.131q.273-.559.541-1.12c.344-.718.685-1.437,1.015-2.161.155-.34.306-.682.45-1.027a2.536,2.536,0,0,0,.176-.48,4.325,4.325,0,0,0,.011-1.033c-.031-.566-.076-1.132-.124-1.7q-.092-1.088-.2-2.175-.112-1.159-.233-2.317-.111-1.075-.227-2.149-.089-.823-.18-1.645-.045-.406-.091-.812l0-.036a.6.6,0,0,0-.161-.388.548.548,0,0,0-.775,0,.53.53,0,0,0-.161.388" transform="translate(-388.916 -299.743)" fill="#060000"/>
    <path id="パス_25857" data-name="パス 25857" d="M14.027,446.856l-.361.029-.982.08-1.452.118-1.771.144-1.94.157-1.958.159-1.819.148-1.543.125-1.106.09-.527.043-.023,0a.586.586,0,0,0-.388.161.548.548,0,0,0,0,.775.539.539,0,0,0,.388.161l.361-.029.982-.08,1.452-.118,1.771-.144,1.94-.158,1.958-.159,1.819-.148,1.543-.125,1.106-.09.527-.043.023,0a.586.586,0,0,0,.388-.161.548.548,0,0,0,0-.775.539.539,0,0,0-.388-.161" transform="translate(0 -392.037)" fill="#060000"/>
    <path id="パス_25858" data-name="パス 25858" d="M487.6,407.075l-.422.034-1.147.093-1.7.138-2.07.168-2.267.184-2.288.186-2.127.173-1.8.146-1.293.105-.616.05-.027,0a.586.586,0,0,0-.388.161.548.548,0,0,0,.388.936l.422-.034,1.147-.093,1.7-.138,2.07-.168,2.268-.184,2.289-.186,2.126-.173,1.8-.146,1.293-.1.616-.05.027,0a.586.586,0,0,0,.388-.161.548.548,0,0,0-.388-.936" transform="translate(-413.483 -357.137)" fill="#060000"/>
    <path id="パス_25859" data-name="パス 25859" d="M402.244,261.322l-.058.518-.138,1.244-.167,1.5-.144,1.3c-.023.21-.05.42-.07.631v.009a.61.61,0,0,0,.161.388.548.548,0,0,0,.775,0l.086-.111a.545.545,0,0,0,.075-.277l.058-.518.138-1.244.167-1.5.144-1.3c.023-.21.051-.421.07-.631v-.009a.61.61,0,0,0-.161-.388.548.548,0,0,0-.775,0l-.086.111a.546.546,0,0,0-.075.277" transform="translate(-352.391 -228.783)" fill="#060000"/>
    <path id="パス_25860" data-name="パス 25860" d="M310.235,192.72l-.392.848-.623,1.35-.141.307a.407.407,0,0,0-.065.2.416.416,0,0,0,.01.219.559.559,0,0,0,.252.328.553.553,0,0,0,.422.055.536.536,0,0,0,.328-.252l.391-.848.623-1.35.142-.307a.409.409,0,0,0,.065-.2.416.416,0,0,0-.01-.219.559.559,0,0,0-.252-.328.553.553,0,0,0-.422-.055.536.536,0,0,0-.328.252" transform="translate(-271.097 -168.838)" fill="#060000"/>
    <path id="パス_25861" data-name="パス 25861" d="M232.135,202.713l.1.141.274.387.4.569.492.694.542.764.544.768.508.716.429.606.31.437.146.206.006.009a.548.548,0,0,0,.947,0l.3-.509.715-1.222.859-1.469.747-1.277c.121-.206.244-.412.363-.62l0-.008a.568.568,0,0,0,.055-.422.559.559,0,0,0-.252-.328.553.553,0,0,0-.422-.055.573.573,0,0,0-.328.252l-.3.509-.715,1.222-.86,1.47-.747,1.277c-.121.206-.244.412-.363.62l0,.008h.947l-.1-.141-.274-.387-.4-.569-.492-.694-.542-.764-.544-.768-.508-.716-.429-.605-.31-.437-.146-.206-.006-.009a.614.614,0,0,0-.328-.252.56.56,0,0,0-.422.055.553.553,0,0,0-.252.328.54.54,0,0,0,.055.422" transform="translate(-203.594 -177.123)" fill="#060000"/>
    <path id="パス_25862" data-name="パス 25862" d="M327.157,203.5l.173.278.415.668.5.8.434.7c.07.113.139.227.211.34l0,0a.573.573,0,0,0,.328.252.56.56,0,0,0,.422-.055.554.554,0,0,0,.252-.328.562.562,0,0,0-.055-.422l-.173-.278-.415-.668-.5-.8-.434-.7c-.07-.113-.139-.227-.211-.34l0,0a.573.573,0,0,0-.328-.252.56.56,0,0,0-.422.055.553.553,0,0,0-.252.328.561.561,0,0,0,.055.422" transform="translate(-286.96 -177.812)" fill="#060000"/>
    <path id="パス_25863" data-name="パス 25863" d="M524.954,439.322l-1.312.151-3.167.365-3.817.44-3.312.382c-.534.062-1.068.12-1.6.185l-.022,0a.548.548,0,0,0-.277,1.022l1.4.912L516.274,445l4.249,2.759,3.913,2.541,2.409,1.564a.876.876,0,0,0,.7.233c.2-.032.4-.067.6-.1l3.416-.576,4.905-.828,4.645-.784,2.592-.437.119-.02a.542.542,0,0,0,.393-.456.548.548,0,0,0-.262-.546l-1.523-.873-3.655-2.1-4.4-2.525-3.806-2.182c-.617-.353-1.639-1-2.263-1.341-.009,0,.394.27.385.265-.249-.143-1.023-.346-1.162-.083a.558.558,0,0,0,.2.75c.508.291,1.427.862,1.935,1.153l3.655,2.1,4.4,2.525,3.806,2.182c.615.353,1.221.737,1.852,1.062l.026.015.131-1-1.63.275-3.88.655-4.706.794-4.067.686c-.656.111-1.321.2-1.974.333l-.029,0,.422.055-1.569-1.019-3.738-2.428-4.518-2.934-3.927-2.55c-.63-.409-1.249-.847-1.894-1.23l-.026-.017-.277,1.022,1.312-.151,3.167-.365,3.817-.44,3.312-.382c.534-.062,1.068-.121,1.6-.185l.022,0a.562.562,0,0,0,.548-.548c-.012-.269-.243-.583-.548-.548" transform="translate(-448.47 -385.426)" fill="#060000"/>
    <path id="パス_25864" data-name="パス 25864" d="M489.906,470.136l-2.2.31-3.509.493-.8.113a.552.552,0,0,0-.242.916l1.254,1.185,2.982,2.82,3.543,3.349,2.935,2.774.871.823.228.215c.017.016.034.033.051.049a.61.61,0,0,0,.545.151c.552-.09,1.1-.193,1.652-.289l3.93-.688,4.8-.84,4.252-.744,2.294-.4.106-.019a.551.551,0,0,0,.242-.916l-2.143-1.875-.3-.263a.548.548,0,0,0-.775.775l2.143,1.875.3.263.242-.916-1.706.3-4.066.712-4.913.86-4.247.744c-.689.121-1.386.219-2.07.362l-.029.005.533.141-1.187-1.122-2.828-2.674-3.44-3.252-2.956-2.794c-.48-.454-.946-.931-1.444-1.365l-.02-.019-.242.916,2.2-.31,3.509-.493.8-.113a.55.55,0,0,0,.383-.674.566.566,0,0,0-.674-.383" transform="translate(-423.746 -412.455)" fill="#060000"/>
    <path id="パス_25865" data-name="パス 25865" d="M366.986,551.678l-2.222.327-6.073.894-8.953,1.318-10.92,1.608-11.961,1.761-12.113,1.783-11.255,1.657-9.51,1.4-6.837,1.006c-1.077.159-2.167.279-3.237.477-.046.008-.092.013-.138.02a.552.552,0,0,0-.383.674.562.562,0,0,0,.674.383l2.222-.327,6.073-.894,8.953-1.318,10.921-1.607,11.961-1.761,12.113-1.783,11.255-1.657,9.51-1.4,6.837-1.006c1.077-.158,2.167-.279,3.238-.476.046-.008.092-.014.138-.02a.553.553,0,0,0,.383-.674.562.562,0,0,0-.674-.383" transform="translate(-248.605 -483.993)" fill="#060000"/>
    <path id="パス_25866" data-name="パス 25866" d="M67.212,333.331l-.041-.367-.111-1L66.9,330.5l-.2-1.787-.216-1.948-.217-1.951-.2-1.8-.165-1.489-.114-1.023c-.015-.134-.03-.267-.045-.4a2.311,2.311,0,0,1,.006-.543l-.02.146a2.274,2.274,0,0,1,.154-.565l-.055.131a2.306,2.306,0,0,1,.291-.5l-.086.111a2.316,2.316,0,0,1,.392-.393l-.111.086a2.284,2.284,0,0,1,.5-.294l-.131.055a2.291,2.291,0,0,1,.557-.153l-.146.02a3.835,3.835,0,0,1,.4-.023l.7-.021,1.658-.049.385-.011a.548.548,0,0,0,0-1.1l-1.908.057-.979.029a2.759,2.759,0,0,0-2.7,3.06l.106.958.209,1.881.272,2.451.291,2.619L65.8,330.5l.208,1.868.1.927,0,.041a.6.6,0,0,0,.161.388.548.548,0,0,0,.775,0,.531.531,0,0,0,.161-.388" transform="translate(-56.705 -278.112)" fill="#060000"/>
    <path id="パス_25867" data-name="パス 25867" d="M480.273,304.934l-.04-.362-.109-.982-.161-1.448-.2-1.76-.213-1.918-.213-1.921-.2-1.771-.163-1.466-.112-1.007c-.015-.132-.03-.263-.044-.395a2.279,2.279,0,0,1,.006-.535l-.02.146a2.247,2.247,0,0,1,.152-.556l-.055.131a2.267,2.267,0,0,1,.287-.49l-.086.111a2.278,2.278,0,0,1,.385-.387l-.111.086a2.251,2.251,0,0,1,.494-.29l-.131.055a2.261,2.261,0,0,1,.548-.15l-.146.02c.226-.03.457-.038.684-.054l.641-.047a.583.583,0,0,0,.388-.161.548.548,0,0,0-.388-.936l-.869.064-.3.022a2.987,2.987,0,0,0-1.015.257,2.73,2.73,0,0,0-1.556,2.718c.022.2.045.406.068.608l.16,1.44.222,2,.254,2.283.257,2.311.228,2.055.171,1.542.083.752,0,.033a.6.6,0,0,0,.161.388.548.548,0,0,0,.775,0,.531.531,0,0,0,.161-.388" transform="translate(-419.112 -253.414)" fill="#060000"/>
    <path id="パス_25868" data-name="パス 25868" d="M933.832,302.613l-5.195.354-.721,2.788s-8.771-.694-10.158.122c0,0-5.113.734-4.079,12.266l3.807,18.928.381,2.23,35.573-5.276-.163-24.8s1.36-4.95-3.318-5.058-16.127-1.55-16.127-1.55" transform="translate(-801.473 -265.49)" fill="#ffec00"/>
    <path id="パス_25869" data-name="パス 25869" d="M598.628,39.663a13.753,13.753,0,0,1,.038,2.555,5.448,5.448,0,0,1-1.2,2.242,6.665,6.665,0,0,0-1.289,2.763,6.178,6.178,0,0,0,.218,2.339l-1.523-1.088c-1.579-1.128-.824-4.89-.669-6.474.093-.955-.762-1.922-1.228-2.724a7.486,7.486,0,0,1-1.007-1.887,9.475,9.475,0,0,1,.014-2.324c.05-1.067.148-2.13.227-3.194a5.351,5.351,0,0,0,.038-1.411c-.082-.393-.32-.807-.432-1.2a16.543,16.543,0,0,1-.425-5.694c.381-5.222,2.992-6.255,5.167-7.071s5.276-.218,8.975,1.523,1.972,6.574,1.972,6.574-1.755-4.017-2.516-4.235-2.393,4.95-7.941,6.364c0,0-.979-1.741-1.795-1.469s-2.556,1.686-1.2,3.318a21,21,0,0,1,2.557,4.787l.163,4.188Z" transform="translate(-518.785 -14.153)" fill="#f49902"/>
    <path id="パス_25870" data-name="パス 25870" d="M592.707,45.641a.607.607,0,0,1-.27-.063,4.37,4.37,0,0,1-2.569-5.277,5.718,5.718,0,0,0-1.245-5.7,5.977,5.977,0,0,1-1.454-3.755,8.7,8.7,0,0,1,.364-2.708,7.956,7.956,0,0,0,.338-2.3,24.072,24.072,0,0,0-.433-3.091,12.842,12.842,0,0,1-.074-6.415,8,8,0,0,1,6.854-5.553,13.364,13.364,0,0,1,9.124,3.036.613.613,0,0,1-.748.973A12.132,12.132,0,0,0,594.334,12a6.686,6.686,0,0,0-5.8,4.7c-.609,1.914-.259,3.812.112,5.821a24.984,24.984,0,0,1,.452,3.251,9.013,9.013,0,0,1-.372,2.657,7.651,7.651,0,0,0-.331,2.332,4.791,4.791,0,0,0,1.091,2.964,6.939,6.939,0,0,1,1.562,6.915,2.93,2.93,0,0,0,.485,2.7,3.99,3.99,0,0,1,1.093-3.084c1.5-1.635,2.506-4.1.807-6.127l-.013-.015a3.975,3.975,0,0,1-1.161-2.278,6.127,6.127,0,0,1,.158-1.417,4.389,4.389,0,0,0,.122-1.366,3.592,3.592,0,0,0-1.023-2.446.608.608,0,0,1-.053-.049,7.589,7.589,0,0,1-2.13-3.329,2.5,2.5,0,0,1,1.449-3.237,1.614,1.614,0,0,1,1.54.158c.779.566,1.037,1.842.789,3.9a.613.613,0,0,1-1.218-.147c.267-2.215-.192-2.686-.286-2.758a.393.393,0,0,0-.352-.022.2.2,0,0,1-.048.019c-.95.326-.8,1.352-.686,1.778a6.424,6.424,0,0,0,1.807,2.766,4.742,4.742,0,0,1,1.429,3.223,5.5,5.5,0,0,1-.136,1.743,5.108,5.108,0,0,0-.136,1.142,3.068,3.068,0,0,0,.874,1.53l.013.015c1.821,2.17,1.49,5.21-.844,7.747a2.986,2.986,0,0,0-.3,3.608.614.614,0,0,1-.515.949" transform="translate(-514.969 -9.417)" fill="#060000"/>
    <path id="パス_25871" data-name="パス 25871" d="M631.277,54.461a.613.613,0,0,1-.221-1.186,17.438,17.438,0,0,0,7.672-6.172.613.613,0,0,1,1.038.654A18.37,18.37,0,0,1,631.5,54.42a.611.611,0,0,1-.22.041" transform="translate(-553.297 -41.074)" fill="#060000"/>
    <path id="パス_25872" data-name="パス 25872" d="M696.229,158.955l-3.3,3.537s.073,3.439.725,4.5,2.652,4.283,2.407,5.63,1.672-2.407,1.672-2.407l-1.224-5.1.53-3.957Z" transform="translate(-607.928 -139.455)" fill="#f49902"/>
    <path id="パス_25873" data-name="パス 25873" d="M659.03,53.8a9.36,9.36,0,0,1-2.427-.476,4.709,4.709,0,0,1-2.482-1.439.613.613,0,0,1,1.017-.687c.455.674,3.071,1.4,3.906,1.375a11.037,11.037,0,0,0,2.844-3.687,10.077,10.077,0,0,0,.36-2.574q.01-.188.021-.374a16.617,16.617,0,0,0-.095-3.161,10.49,10.49,0,0,0-.259-1.348,1.293,1.293,0,0,1,0-.482c.033-.419.1-1.29.144-2.881.034-1.249-.2-1.639-.264-1.72a.613.613,0,0,1,.214-1.2c.318.017,1.349.282,1.277,2.952-.044,1.623-.114,2.515-.147,2.944-.005.066-.009.117-.012.155a11.9,11.9,0,0,1,.268,1.419,17.84,17.84,0,0,1,.1,3.4q-.011.184-.021.368a11.141,11.141,0,0,1-.418,2.886,11.036,11.036,0,0,1-1.624,2.626c-1.466,1.858-2.062,1.892-2.287,1.9-.036,0-.073,0-.113,0m2.907-17.428h0m0,0h0Z" transform="translate(-573.785 -30.831)" fill="#060000"/>
    <path id="パス_25874" data-name="パス 25874" d="M688.422,92.835l.094.345.226.829.274,1,.237.868c.039.141.075.283.115.423l0,.006a.567.567,0,0,0,.252.328.56.56,0,0,0,.422.055.554.554,0,0,0,.328-.252.572.572,0,0,0,.055-.422l-.094-.345-.226-.829-.274-1-.237-.868c-.039-.141-.075-.283-.115-.423l0-.006a.567.567,0,0,0-.252-.328.548.548,0,0,0-.75.2.572.572,0,0,0-.055.422" transform="translate(-603.954 -80.837)" fill="#060000"/>
    <path id="パス_25875" data-name="パス 25875" d="M707.861,99.084a.565.565,0,0,0,.388-.16.548.548,0,0,0,0-.775.548.548,0,0,0-.775,0,.548.548,0,0,0,0,.775.569.569,0,0,0,.388.16" transform="translate(-620.543 -85.967)" fill="#060000"/>
    <path id="パス_25876" data-name="パス 25876" d="M663.124,102.492a.566.566,0,0,0,.388-.161.548.548,0,0,0,0-.775.548.548,0,0,0-.775,0,.548.548,0,0,0,0,.775.57.57,0,0,0,.388.161" transform="translate(-581.295 -88.957)" fill="#060000"/>
    <path id="パス_25877" data-name="パス 25877" d="M653.735,84.649l0,0-.086.111a1.569,1.569,0,0,1,.282-.273l-.111.086a1.769,1.769,0,0,1,.389-.229l-.131.055a1.566,1.566,0,0,1,.384-.106l-.146.02a1.556,1.556,0,0,1,.409,0l-.146-.019a1.855,1.855,0,0,1,.465.13l-.131-.055c.042.018.083.037.124.057a.584.584,0,0,0,.422.055.56.56,0,0,0,.328-.252.554.554,0,0,0,.055-.422.546.546,0,0,0-.252-.328,2.865,2.865,0,0,0-.481-.193,2.424,2.424,0,0,0-.468-.079,1.5,1.5,0,0,0-.3.006,2.3,2.3,0,0,0-.406.076,2.327,2.327,0,0,0-.946.572,2.13,2.13,0,0,0-.2.236.41.41,0,0,0-.065.2.416.416,0,0,0,.01.219.559.559,0,0,0,.252.328.553.553,0,0,0,.422.055l.131-.055a.551.551,0,0,0,.2-.2" transform="translate(-572.642 -72.994)" fill="#060000"/>
    <path id="パス_25878" data-name="パス 25878" d="M700.819,81.206a1.488,1.488,0,0,1,.261-.136l-.131.055a2.025,2.025,0,0,1,.5-.139l-.146.02a1.824,1.824,0,0,1,.469,0l-.146-.02a1.783,1.783,0,0,1,.448.122l-.131-.055q.055.023.108.05a.584.584,0,0,0,.422.055.549.549,0,0,0,.383-.674.545.545,0,0,0-.252-.328,2.281,2.281,0,0,0-1.289-.246,2.619,2.619,0,0,0-.536.112,2.95,2.95,0,0,0-.4.171,1.154,1.154,0,0,0-.119.069.585.585,0,0,0-.252.328.56.56,0,0,0,.055.422.553.553,0,0,0,.328.252.544.544,0,0,0,.422-.055" transform="translate(-614.124 -70.092)" fill="#060000"/>
    <path id="パス_25879" data-name="パス 25879" d="M504.195,214.226c1.6.252,15.116,3.476,15.116,3.476-3.322.757-4.184,5.3-4.184,5.3s-15.435-2.1-17-2.809c-1.388-.632-.639-5.518-.57-6.609.22-3.5.641-6.989,1.112-10.463.4-2.968.916-7.855,4.5-8.88,3.318-.948,6.106-1.808,6.106-1.808" transform="translate(-436.291 -168.825)" fill="#fff"/>
    <path id="パス_25880" data-name="パス 25880" d="M510.666,219.179a.627.627,0,0,1-.084-.006c-1.589-.216-15.572-2.13-17.171-2.859-1.467-.668-1.3-3.6-1-6.538.029-.283.054-.527.063-.675.236-3.748.7-7.415,1.116-10.507l.048-.355c.423-3.163,1.062-7.942,4.9-9.039,3.273-.935,6.065-1.8,6.093-1.8a.621.621,0,1,1,.366,1.187c-.028.009-2.832.874-6.118,1.812-3.056.873-3.63,5.167-4.01,8.009l-.048.357c-.417,3.071-.874,6.71-1.107,10.418-.011.172-.036.415-.067.723a26.967,26.967,0,0,0-.19,3.322c.048,1.75.448,1.952.465,1.959,1.053.48,10.1,1.837,16.269,2.683a8.336,8.336,0,0,1,2.769-4.416c-3.7-.878-12.112-2.862-13.327-3.053a.621.621,0,1,1,.193-1.227c1.605.253,14.611,3.354,15.164,3.486a.621.621,0,0,1-.006,1.209c-2.881.656-3.7,4.766-3.712,4.808a.622.622,0,0,1-.609.5" transform="translate(-431.829 -164.383)" fill="#060000"/>
    <path id="パス_25881" data-name="パス 25881" d="M644.635,395.858l5.081-.181a4.287,4.287,0,0,1,2,1.161c.537.613,1.708,1.71,1.717,2.6a2.788,2.788,0,0,1-.914,1.8,3.232,3.232,0,0,1-3.234.507,8.135,8.135,0,0,1-1.669-1.815s-1.669,1.452-6.569.98c0,0-.907-2.794,3.593-5.044" transform="translate(-562.337 -347.138)" fill="#fff"/>
    <path id="パス_25882" data-name="パス 25882" d="M646.447,398.654a2.632,2.632,0,0,1-1.328-.328,6.64,6.64,0,0,1-1.537-1.555,6.21,6.21,0,0,1-1.154.458,14.275,14.275,0,0,1-5.327.333.542.542,0,0,1-.464-.373c-.043-.132-1-3.266,3.866-5.7a.544.544,0,0,1,.223-.057l5.081-.181a.546.546,0,0,1,.144.014,4.829,4.829,0,0,1,2.28,1.332c.084.1.185.2.294.323.653.706,1.547,1.673,1.557,2.625a3.311,3.311,0,0,1-1.1,2.209,4.154,4.154,0,0,1-2.535.9m-2.726-3.154a.545.545,0,0,1,.446.234,7.241,7.241,0,0,0,1.5,1.654,2.706,2.706,0,0,0,2.6-.445,2.26,2.26,0,0,0,.73-1.383c-.005-.533-.8-1.388-1.269-1.9-.117-.126-.224-.242-.314-.345a3.7,3.7,0,0,0-1.65-.974l-4.88.174c-3.03,1.551-3.3,3.28-3.264,4,4.223.323,5.731-.872,5.745-.885a.542.542,0,0,1,.356-.133" transform="translate(-558.447 -343.257)" fill="#060000"/>
    <line id="線_28" data-name="線 28" x1="1.142" y2="10.28" transform="translate(68.883 34.43)" fill="#fff000"/>
    <path id="パス_25883" data-name="パス 25883" d="M557.121,287.171a.62.62,0,0,1-.069,0,.613.613,0,0,1-.542-.677l1.142-10.28a.613.613,0,0,1,1.219.135l-1.142,10.28a.613.613,0,0,1-.609.546" transform="translate(-488.238 -241.848)" fill="#060000"/>
    <path id="パス_25884" data-name="パス 25884" d="M723.783,192.273c1.524.271,3.325.415,4.536,1.491a5.032,5.032,0,0,1,1.992,2.988c.844,2.276,2.361,6.431,3.345,8.648l3,7.512" transform="translate(-634.993 -168.686)" fill="#fff"/>
    <path id="パス_25885" data-name="パス 25885" d="M732.218,209.093a.621.621,0,0,1-.577-.391l-3-7.5c-.889-2-2.2-5.549-3.068-7.9l-.38-1.026a4.218,4.218,0,0,0-1.73-2.491,6.945,6.945,0,0,0-3.55-1.23c-.232-.038-.46-.074-.682-.114a.621.621,0,1,1,.218-1.223c.216.039.438.074.663.111a7.954,7.954,0,0,1,4.177,1.528,5.336,5.336,0,0,1,2.07,2.989l.379,1.026c.864,2.337,2.17,5.868,3.042,7.834l.009.021,3,7.512a.621.621,0,0,1-.576.852" transform="translate(-630.551 -164.245)" fill="#060000"/>
    <line id="線_29" data-name="線 29" x2="0.377" y2="14.762" transform="translate(93.441 34.104)" fill="#fff000"/>
    <path id="パス_25886" data-name="パス 25886" d="M757.687,288.994a.613.613,0,0,1-.613-.6l-.377-14.762a.613.613,0,1,1,1.226-.031l.377,14.762a.614.614,0,0,1-.6.629h-.016" transform="translate(-663.87 -239.514)" fill="#060000"/>
    <line id="線_30" data-name="線 30" x2="1.662" y2="2.569" transform="translate(93.767 40.794)" fill="#fff000"/>
    <path id="パス_25887" data-name="パス 25887" d="M761.632,331.336a.613.613,0,0,1-.516-.28l-1.662-2.569a.613.613,0,0,1,1.03-.666l1.661,2.569a.613.613,0,0,1-.514.947" transform="translate(-666.203 -287.359)" fill="#060000"/>
    <path id="パス_25888" data-name="パス 25888" d="M767.707,347.838l-2.322,2.132s3.627,3.743,4.117,5.864a5.272,5.272,0,0,0,3.019-3.263" transform="translate(-671.492 -305.167)" fill="#fff"/>
    <path id="パス_25889" data-name="パス 25889" d="M765.116,352.061a.614.614,0,0,1-.6-.475c-.37-1.6-2.983-4.568-3.959-5.575a.613.613,0,0,1,.026-.879L762.906,343a.613.613,0,1,1,.83.9l-1.865,1.713a21.816,21.816,0,0,1,3.605,4.987,5.2,5.2,0,0,0,2.088-2.644.613.613,0,0,1,1.141.45,5.862,5.862,0,0,1-3.418,3.628.613.613,0,0,1-.172.025" transform="translate(-667.106 -300.781)" fill="#060000"/>
    <path id="パス_25890" data-name="パス 25890" d="M740.754,372.106c-1.147-.535-3.935,3.612-3.951,4.22s.481,1.012.856,1.406c.068.071,1.348.988,1.3.819a1.086,1.086,0,0,0,1.469.734A16.477,16.477,0,0,0,742.9,378.2c.387-.219,1.713-.98,1.8-1.47a1.006,1.006,0,0,0-.213-.7c-.347-.52-.718-1.014-1.085-1.52a7.2,7.2,0,0,0-2.645-2.4" transform="translate(-646.415 -326.416)" fill="#fff"/>
    <path id="パス_25891" data-name="パス 25891" d="M736.084,376.028a1.48,1.48,0,0,1-.68-.16,1.712,1.712,0,0,1-.723-.752,6.03,6.03,0,0,1-.568-.359,8.955,8.955,0,0,1-.727-.538c-.047-.049-.1-.1-.145-.149a2.3,2.3,0,0,1-.861-1.646c.022-.824,2.068-3.694,3.361-4.494a1.4,1.4,0,0,1,1.362-.2,7.548,7.548,0,0,1,2.855,2.576l.256.351c.28.382.569.778.841,1.187a1.491,1.491,0,0,1,.3,1.089c-.063.374-.357.887-2.063,1.853a16.777,16.777,0,0,1-2.559,1.126,1.917,1.917,0,0,1-.647.119m-.95-1.9a.543.543,0,0,1,.466.389.725.725,0,0,0,.3.391.545.545,0,0,0,.463-.017,15.727,15.727,0,0,0,2.39-1.049,4.612,4.612,0,0,0,1.528-1.106.639.639,0,0,0-.13-.289c-.259-.389-.529-.758-.814-1.148l-.259-.355a6.541,6.541,0,0,0-2.429-2.227c-.135-.013-.726.242-1.777,1.555a9.843,9.843,0,0,0-1.409,2.208c.006.262.223.5.549.832l.14.143c.137.111.724.524.98.672m-.577.688h0Zm0,0h0m-.39-1.347.006.006-.006-.006m2.478-4.755h0" transform="translate(-642.535 -322.529)" fill="#060000"/>
    <line id="線_31" data-name="線 31" x2="0.816" y2="16.318" transform="translate(88.953 33.043)" fill="#fff"/>
    <path id="パス_25892" data-name="パス 25892" d="M722.052,282.338a.543.543,0,0,1-.542-.516L720.7,265.5a.543.543,0,0,1,1.084-.054l.816,16.318a.543.543,0,0,1-.515.569h-.027" transform="translate(-632.284 -232.434)" fill="#060000"/>
    <path id="パス_25893" data-name="パス 25893" d="M621.05,291.207a.614.614,0,0,1-.613-.609l-.082-12.32a.613.613,0,0,1,.609-.617h0a.613.613,0,0,1,.613.609l.082,12.32a.613.613,0,0,1-.609.617Z" transform="translate(-544.253 -243.598)" fill="#060000"/>
    <path id="パス_25894" data-name="パス 25894" d="M674.641,426.841a.614.614,0,0,1-.28-.067l-9-4.61a.613.613,0,1,1,.559-1.092l8.824,4.519,12.581-1.975-7.4-3.342a.613.613,0,1,1,.5-1.118l9.274,4.188a.613.613,0,0,1-.157,1.165l-14.808,2.325a.6.6,0,0,1-.1.008" transform="translate(-583.444 -367.688)" fill="#060000"/>
    <path id="パス_25895" data-name="パス 25895" d="M743.933,331.087a.61.61,0,0,1-.267-.062c-.3-.148-1.043.684-.9.38l3.67-7.509a.613.613,0,0,1,1.1.535l-3.06,6.309a.614.614,0,0,1-.552.346" transform="translate(-651.635 -283.859)" fill="#060000"/>
    <path id="パス_25896" data-name="パス 25896" d="M965.989,423.651l36.053-4.942,2.583-18.757s.224-2.134-2.7-1.685-10.108,2.92-20.778,4.268l-10.67,1.348a3.537,3.537,0,0,0-3.819,3.594c-.337,3.931-.674,16.173-.674,16.173" transform="translate(-847.487 -349.356)" fill="#fff"/>
    <path id="パス_25897" data-name="パス 25897" d="M961.426,418.971q.025-.6.051-1.2.064-1.5.127-3,.082-1.94.164-3.879l.165-3.9q.063-1.5.127-3.005c.017-.4.031-.807.051-1.21,0-.045,0-.09.009-.135,0-.027.005-.054.008-.08,0,.011-.012.078,0,.013a3.136,3.136,0,0,1,.078-.362c.028-.1.062-.2.1-.3.022-.059,0,0-.006.011.01-.024.021-.047.032-.071q.044-.094.094-.184c.05-.09.1-.178.162-.263.015-.022.111-.149.052-.075.037-.047.076-.092.116-.137a3.186,3.186,0,0,1,.235-.236c.038-.034.078-.067.117-.1,0,0,.069-.054.025-.021s.04-.028.048-.033c.092-.063.186-.124.284-.178q.068-.038.138-.072l.07-.034c.08-.038-.069.027.013-.007a3.208,3.208,0,0,1,.69-.189c-.085.014.078-.009.111-.013l.215-.026.417-.051q2.067-.253,4.132-.529,2.646-.353,5.288-.742,2.911-.43,5.814-.912,3.048-.508,6.083-1.09c1.978-.382,3.951-.793,5.913-1.25q1.386-.323,2.764-.681.651-.17,1.3-.35c.42-.117.839-.26,1.264-.356.018,0,.107-.012.014,0l.079-.006q.078,0,.156,0l.077.005c-.009,0-.083-.014-.019,0a1.819,1.819,0,0,1,.2.046.835.835,0,0,0,.1.032c-.042-.017.071.036.092.048.044.024.086.05.128.077.012.008.1.069.045.03s.033.03.04.036c.036.034.072.068.106.1.016.018.094.113.069.078s.013.021.016.025c.017.029.036.056.053.085s.024.044.036.066.049.1.026.048a.976.976,0,0,0,.035.1c.018.058.031.116.044.175.022.1,0-.04.007.063,0,.063,0,.125,0,.189-.006.13-.027.26-.043.388q-.12.958-.24,1.915l-.406,3.248-.487,3.895-.489,3.916-.407,3.253-.24,1.919q-.016.13-.033.26a.551.551,0,0,0,.548.548.562.562,0,0,0,.548-.548l.133-1.066.343-2.74.466-3.73.5-4.034.456-3.652.323-2.585a4.561,4.561,0,0,0,.059-1.58,2.246,2.246,0,0,0-2.327-1.7,8.181,8.181,0,0,0-1.423.358q-.645.181-1.293.351c-1.9.5-3.818.941-5.741,1.347-2.028.429-4.065.819-6.105,1.184q-3.029.542-6.071,1.014-2.8.438-5.61.829l-1.281.177-.606.082-.069.009h.009l-.136.018-.315.042q-1.109.147-2.219.289-.945.12-1.89.235c-.354.043-.718.069-1.067.147a3.548,3.548,0,0,0-1.33.61,3.77,3.77,0,0,0-1.505,2.615c-.02.171-.024.344-.031.516q-.046,1.086-.092,2.171l-.151,3.573q-.086,2.024-.171,4.049-.076,1.8-.152,3.6-.047,1.112-.094,2.223l-.013.307a.548.548,0,1,0,1.1,0" transform="translate(-842.522 -344.981)" fill="#060000"/>
    <path id="パス_25898" data-name="パス 25898" d="M1011.319,93.3s-.489,8.24,2.04,10.933,5.058,3.508,4.814,6.119-2.692,10.851-2.2,12.809.979,3.835,6.935,3.835,10.117.408,11.1-4.569a27.2,27.2,0,0,0,.326-9.791c-.616-5.334-4.135-9.019-5.764-13.9-1.408-4.216-.72-8.744-1.416-13.11a10.339,10.339,0,0,0-6.282-7.506c-6.445-2.448-12.565,1.55-12.565,1.55s-2.04.571-.653,4,3.019,3.182,2.2,5.548c0,0,1.958-1.958,2.692.163s-1.958,4.243-1.958,4.243" transform="translate(-883.611 -67.847)" fill="#f49902"/>
    <path id="パス_25899" data-name="パス 25899" d="M976.382,138.908a.614.614,0,0,1-.578-.409l-1.53-4.334a21.3,21.3,0,0,1-4-1.545c-.241-.2-.513-.428-.689-4.185-.061-1.294-.088-2.572-.1-3.145l-1.7-1.207a.613.613,0,0,1-.024-.983c1.076-.845,2.784-2.591,2.784-3.678a7.152,7.152,0,0,1,1.347-3.795.613.613,0,1,1,.981.736,5.983,5.983,0,0,0-1.1,3.059c0,1.54-1.674,3.26-2.632,4.118l1.312.929a.613.613,0,0,1,.259.493,45.948,45.948,0,0,0,.421,6.76,33.374,33.374,0,0,0,3.8,1.364.613.613,0,0,1,.4.382l1.632,4.623a.614.614,0,0,1-.578.818m-5.221-7.116h0" transform="translate(-848.838 -101.226)" fill="#060000"/>
    <path id="パス_25900" data-name="パス 25900" d="M947.39,108.484l-.041-.353c-.383-3.316-1.853-6.028-3.276-8.65a33.974,33.974,0,0,1-2.516-5.369,26.616,26.616,0,0,1-.992-7.684,42.807,42.807,0,0,0-.4-5.33,10.867,10.867,0,0,0-6.67-7.981c-6.377-2.421-12.329,1.114-13.053,1.568a2.252,2.252,0,0,0-1.193,1.121,4.513,4.513,0,0,0,.242,3.662,11.389,11.389,0,0,0,1.72,2.932c.633.821.846,1.1.471,2.186a.614.614,0,0,0,1.012.635c.307-.3.919-.715,1.259-.636.2.047.341.333.422.565.582,1.681-1.735,3.542-1.758,3.56a.613.613,0,0,0,.468,1.089c-.016.84-.01,2.142.106,3.573.248,3.071.881,5.269,1.88,6.549l-1.994.363a.613.613,0,0,0-.484.45l-.6,2.315-6.313-.163a7.023,7.023,0,0,0-5.916,2.065c-2.722,2.9-3.165,8.347-1.317,16.2,1.377,5.852,2.46,11.156,3.218,15.766a.613.613,0,0,0,1.211-.2c-.763-4.638-1.852-9.97-3.235-15.848-1.72-7.312-1.373-12.522,1.005-15.068a5.778,5.778,0,0,1,4.876-1.7.613.613,0,0,0,.087.009l6.84.177h.016a.613.613,0,0,0,.594-.46l.622-2.408,2.415-.428c.551.519,1.086.966,1.576,1.373,1.52,1.264,2.437,2.027,2.3,3.5-.089.951-.5,2.759-.936,4.673-.931,4.09-1.566,7.083-1.251,8.343.5,2.015,1.075,4.3,7.53,4.3.428,0,.847,0,1.256,0,.374,0,.742,0,1.1,0,4.742,0,8.4-.319,9.338-5.072a27.611,27.611,0,0,0,.375-9.627m-1.579,9.39c-.776,3.945-3.543,4.106-9.232,4.078-.411,0-.832,0-1.262,0-5.5,0-5.888-1.562-6.34-3.37-.268-1.073.613-4.945,1.257-7.773a48.235,48.235,0,0,0,.962-4.831c.2-2.113-1.162-3.244-2.736-4.554a23.96,23.96,0,0,1-2.241-2.043c-.936-1-1.56-3.1-1.8-6.091a35.425,35.425,0,0,1-.072-4.385.613.613,0,0,0-.011-.158c.806-.923,1.746-2.424,1.2-4a1.857,1.857,0,0,0-1.307-1.359,1.927,1.927,0,0,0-1.142.122,3.362,3.362,0,0,0-.9-1.86,10.178,10.178,0,0,1-1.555-2.644,3.378,3.378,0,0,1-.29-2.635,1.033,1.033,0,0,1,.546-.544.474.474,0,0,0,.164-.076c.059-.038,5.928-3.8,12.011-1.49a9.627,9.627,0,0,1,5.894,7.029,41.9,41.9,0,0,1,.385,5.175,27.938,27.938,0,0,0,1.055,8.032,34.9,34.9,0,0,0,2.6,5.566c1.43,2.636,2.78,5.126,3.136,8.206l.042.356a26.194,26.194,0,0,1-.36,9.247" transform="translate(-796.024 -63.409)" fill="#060000"/>
    <path id="パス_25901" data-name="パス 25901" d="M1211.894,322.8l-.059,0a.613.613,0,0,1-.553-.669c0-.051.487-5.146.487-8.141a2.03,2.03,0,0,0-.573-1.592,2.5,2.5,0,0,0-1.737-.461.613.613,0,0,1-.158-1.216,3.723,3.723,0,0,1,2.7.751,3.184,3.184,0,0,1,1,2.519c0,3.054-.472,8.047-.492,8.258a.614.614,0,0,1-.61.555" transform="translate(-1060.484 -272.584)" fill="#060000"/>
    <path id="パス_25902" data-name="パス 25902" d="M998.832,143.233a.611.611,0,0,1-.408-.156,5.6,5.6,0,0,0-1.149-.878.613.613,0,0,1,.129-1.213c.156,0,.52,0,1.836,1.176a.613.613,0,0,1-.409,1.071m-1.429-1.02h0Zm0,0h0Zm0,0h0Z" transform="translate(-874.51 -123.691)" fill="#060000"/>
    <path id="パス_25903" data-name="パス 25903" d="M998.762,163.191a.611.611,0,0,1-.434-.18l-.027-.027a.613.613,0,0,1,.867-.867l.027.027a.613.613,0,0,1-.434,1.047" transform="translate(-875.677 -142.071)" fill="#060000"/>
    <path id="パス_25904" data-name="パス 25904" d="M1079.543,168.632a1.957,1.957,0,0,1-.62-.108c-.647-.216-1.008-.9-1.073-2.03a8.21,8.21,0,0,1,.047-1.365.613.613,0,0,1,1.217.158,3.378,3.378,0,0,0,.2,2.074.446.446,0,0,0,.324.023.686.686,0,0,0,.173-.423.617.617,0,0,1,.655-.566.611.611,0,0,1,.569.646,1.872,1.872,0,0,1-.709,1.36,1.375,1.375,0,0,1-.782.232" transform="translate(-945.616 -144.404)" fill="#060000"/>
    <path id="パス_25905" data-name="パス 25905" d="M683.936,158.728a4.051,4.051,0,0,1-.117-2.925,8.762,8.762,0,0,0-.417-4.886.613.613,0,0,0-1.133.469,7.625,7.625,0,0,1,.358,4.128,5.087,5.087,0,0,0,.276,3.875,4.781,4.781,0,0,1,.36,4.331,5.887,5.887,0,0,0-1.968-3.605c-2.373-2.183-1.035-5.313-.977-5.443a.613.613,0,0,0-1.12-.5,6.792,6.792,0,0,0-.466,3.5l-.045.756-1.1,3.137a.613.613,0,1,0,1.158.406l.748-2.134a5.506,5.506,0,0,0,.972,1.178,4.445,4.445,0,0,1,1.408,4.781.613.613,0,0,0,.993.671,6.214,6.214,0,0,0,1.071-7.74" transform="translate(-594.433 -132.071)" fill="#060000"/>
    <path id="パス_25906" data-name="パス 25906" d="M649.867,217.8a.614.614,0,0,1-.6-.5l-.5-2.735-.705-.217a.613.613,0,1,1,.361-1.173l1.061.326a.614.614,0,0,1,.423.475l.571,3.1a.614.614,0,0,1-.492.714.623.623,0,0,1-.112.01" transform="translate(-568.176 -186.998)" fill="#060000"/>
    <path id="パス_25907" data-name="パス 25907" d="M312.367,131.768a.491.491,0,0,1-.164-.953,6.846,6.846,0,0,1,2.683-.243.491.491,0,1,1-.091.977,5.98,5.98,0,0,0-2.268.192.493.493,0,0,1-.16.027" transform="translate(-273.616 -114.524)" fill="#060000"/>
    <path id="パス_25908" data-name="パス 25908" d="M989.96,213.56a.611.611,0,0,1-.41-.157l-.2-.184a.613.613,0,0,1,.821-.912l.2.184a.613.613,0,0,1-.411,1.069" transform="translate(-867.8 -186.124)" fill="#060000"/>
    <path id="パス_25909" data-name="パス 25909" d="M679.708,142.911a.491.491,0,0,1-.017-.981l1.577-.054a.491.491,0,0,1,.034.981l-1.577.054h-.017" transform="translate(-595.895 -124.471)" fill="#060000"/>
  </g>
</svg>
