<svg xmlns="http://www.w3.org/2000/svg" xmlns:xlink="http://www.w3.org/1999/xlink" width="333.454" height="255.4" viewBox="0 0 333.454 255.4">
  <defs>
    <clipPath id="clip-path">
      <rect id="長方形_48" data-name="長方形 48" width="207.863" height="243.432" fill="none"/>
    </clipPath>
  </defs>
  <g id="worries_illust" transform="translate(-1014.978 -973.013)">
    <path id="パス_23990" data-name="パス 23990" d="M1186.387,1163.8s-25.389,4.955-31.922,19.088-11.288,43.843-11.288,43.843h202.281s-5.819-47.583-22.261-56.222-36.592-14.991-36.592-14.991l-6.725-2.262Z" transform="translate(0 1)" fill="#fff"/>
    <g id="グループ_2988" data-name="グループ 2988" transform="translate(1018.5 976.536)">
      <path id="合体_75" data-name="合体 75" d="M42.564,110.114A55.748,55.748,0,0,1,0,55.809C0,24.987,24.8,0,55.39,0s55.391,24.987,55.391,55.809a55.75,55.75,0,0,1-42.4,54.266L55.043,126.2Z" transform="matrix(0.643, -0.766, 0.766, 0.643, 0, 84.863)" fill="#fff5b9" stroke="#19cecd" stroke-linecap="round" stroke-linejoin="round" stroke-width="5"/>
      <g id="グループ_2877" data-name="グループ 2877" transform="translate(58.993 54.715)">
        <path id="パス_23321" data-name="パス 23321" d="M-14925.653,5237.182a2.01,2.01,0,0,1,1.322-1.659,2.6,2.6,0,0,1,2.385,0l13.713,8.293v39l-17.42-10.133Z" transform="translate(14927.657 -5233.231)" fill="#fff"/>
        <path id="パス_23322" data-name="パス 23322" d="M-14908.233,5237.182a2.01,2.01,0,0,0-1.32-1.659,2.6,2.6,0,0,0-2.389,0l-13.711,8.293v39l17.42-10.133Z" transform="translate(14945.082 -5233.231)" fill="#19cecd"/>
        <path id="合体_26" data-name="合体 26" d="M17.929,50.085a2.241,2.241,0,0,1-1.133-.3L-.627,39.533A1.67,1.67,0,0,1-1.5,38.111V2.2A3.751,3.751,0,0,1,.832-.983,4.968,4.968,0,0,1,3.038-1.5a4.594,4.594,0,0,1,2.345.612L17.929,6.79l12.55-7.68a4.6,4.6,0,0,1,2.34-.609,4.965,4.965,0,0,1,2.2.516A3.753,3.753,0,0,1,37.356,2.2V38.111a1.67,1.67,0,0,1-.873,1.422L19.062,49.784A2.241,2.241,0,0,1,17.929,50.085ZM2.511,37.2l15.417,9.07L33.345,37.2V2.279c-.02-.051-.087-.158-.314-.27a.51.51,0,0,0-.212-.062.29.29,0,0,0-.083.013L19.092,10.309a2.277,2.277,0,0,1-2.327,0L3.121,1.96a.29.29,0,0,0-.083-.013.515.515,0,0,0-.215.063c-.225.111-.292.218-.311.269Z" transform="translate(1.5 1.5)" fill="#313131"/>
      </g>
    </g>
    <path id="パス_23532" data-name="パス 23532" d="M-13461.8,4704.887c-19.711,13.926-33.665,5.455-36.938,53.9s-8.715,73.046-3.538,78.034,13.657,13.1,13.657,13.1l-5.257,7.385,6.8,2.522,14.2-4.536-8.483-18.472-7.259-9.264,5.075-19.753v-4.778l-5.075-7.123s-8.5-14.253,3.4-18.452a19.323,19.323,0,0,1,4.813-1.345c3.488-1.376-3.137,1.345-3.137,1.345l3.137-7.349s14.364-18.668,14.6-33.042,0-5.079,0-5.079l8.439-1.771,19.726,26.409,26.1-3.785,3.612,8.921,13.909,2.336s4.934,9.912,0,17.563-8.965,8.63-8.965,8.63v15.032l-8.557,19.44,3.612,12.063,4.944,13.1s20.182-5.332,21.791-17.294,3.824-13.148,0-34.832-21.615-67.132-23.683-69.847S-13442.087,4690.96-13461.8,4704.887Z" transform="translate(14684.21 -3698.325)" fill="#c8a063" style="mix-blend-mode: multiply;isolation: isolate"/>
    <path id="パス_23533" data-name="パス 23533" d="M-13494.217,4883.872l13.269-4.857-4.184,34.355,10.471,1.007,1.7-1.007,2.438-.727-12.71,32.044h-21.912Z" transform="translate(14684.281 -3717.515)" fill="#bdbcde"/>
    <path id="パス_23534" data-name="パス 23534" d="M-13433.823,4915.868h43.157l-1.589-41.848,7.186,3.524,12.439,66.128h-69.159Z" transform="translate(14677.989 -3717.259)" fill="#bdbcde"/>
    <g id="グループ_38" data-name="グループ 38" transform="translate(1140.568 984.981)">
      <g id="グループ_37" data-name="グループ 37" clip-path="url(#clip-path)">
        <path id="パス_1252" data-name="パス 1252" d="M177.094,19.957a2.6,2.6,0,0,0,3.425-1.245q1.03-2.774,2.071-5.545c.525-1.4,1-2.832,1.594-4.2.117-.267.247-.53.387-.786.048-.089.155-.269.19-.334a11.084,11.084,0,0,1,.924-1.2c.182-.205.376-.4.576-.592.064-.049.239-.2.308-.248.213-.161.434-.3.659-.446l.027-.017c.089-.04.177-.082.267-.117.117-.045.237-.082.356-.121h.007c.25-.015.563.025.145-.045.166.028.33.045.495.077a4.642,4.642,0,0,0,.484.231c.1.078.2.16.3.237.025.02.136.125.178.162.135.166.256.343.375.52.285.425.11.207.063.1.052.118.1.239.143.361a1.225,1.225,0,0,1,.137.569,3.287,3.287,0,0,1-.711,2.487c-.2.258-.418.5-.633.749-.06.071-.086.1-.1.121s-.057.041-.135.105a17.89,17.89,0,0,1-1.525,1.136c-.537.357-1.092.679-1.65,1l-.151.086q-.14.071-.283.14-.36.175-.728.334a2.577,2.577,0,0,0,1.762,4.843c3.365-1.472,6.933-3.661,8.557-7.1a8.124,8.124,0,0,0-2.362-9.856,7.143,7.143,0,0,0-9.152.649A14.418,14.418,0,0,0,180.011,5.8a31.011,31.011,0,0,0-1.865,4.583q-1.153,3.072-2.3,6.148a2.629,2.629,0,0,0,1.245,3.424M188.482,5.121a.341.341,0,0,1,.032.014c-.078-.025-.3-.116-.032-.014m-.652-.01c-.128.017-.272.017,0,0" transform="translate(-36.402 0)" fill="#060000"/>
        <path id="パス_1253" data-name="パス 1253" d="M197.163,33.948a2.624,2.624,0,0,0,3.585.653c2.058-1.245,3.793-2.933,5.73-4.346.454-.331.92-.648,1.4-.939l.356-.209c-.053.04.446-.217.522-.25q.415-.18.846-.319c.115-.037.23-.071.346-.1.044-.012.148-.031.213-.042l.036-.006c.13-.019.259-.034.39-.045s.264-.006.395-.019h0l.024,0c.274.045.545.1.818.147.1.048.212.086.316.134.087.041.171.088.256.133.088.082.19.151.28.231.043.038.083.08.124.12.024.039.046.076.068.118v.006a1.221,1.221,0,0,0,.083.244,4.862,4.862,0,0,0,.053.485c-.009.082-.017.165-.03.247-.021.138-.053.273-.079.41a.745.745,0,0,1-.063.17l.055-.094.014-.024a.877.877,0,0,0-.048.1c-.044.1-.085.211-.131.315-.021.045-.22.416-.31.591-.051.068-.1.137-.155.2-.087.109-.183.21-.273.316a.41.41,0,0,1-.088.078.237.237,0,0,1,.032-.009l-.051.04c-.086.063-.17.13-.259.19s-.177.1-.256.162c-.226.1-.447.2-.677.281-.28.1-.564.2-.851.277q-.2.056-.395.107l-.2.047-.278.053c-.139.025-.278.048-.418.071q-.42.067-.843.113c-.587.066-1.176.105-1.766.118a4.895,4.895,0,0,1-.889,0c0-.006.63.044.1,0-.12-.01-.239-.017-.36-.028a2.645,2.645,0,0,0-2.97,2.111,2.589,2.589,0,0,0,2.111,2.97,18.189,18.189,0,0,0,10.131-1.749,8.436,8.436,0,0,0,4.082-7.277,6.774,6.774,0,0,0-6.079-6.464c-3.024-.405-5.877.865-8.289,2.584-2.029,1.446-3.821,3.217-5.96,4.512a2.611,2.611,0,0,0-.652,3.585m15.24-2.265c-.018.036-.032.063-.031.063s.01-.032.031-.063m.066-.1c.091-.124.187-.239,0,0m.323-2.511-.106-.111c.032.006.069.054.106.111" transform="translate(-40.772 -4.806)" fill="#060000"/>
        <path id="パス_1254" data-name="パス 1254" d="M217.037,32.755c-.048.083-.03.06,0,0" transform="translate(-44.974 -6.788)" fill="#060000"/>
        <path id="パス_1255" data-name="パス 1255" d="M215.846,34.624c-.116.029-.091.063,0,0" transform="translate(-44.717 -7.176)" fill="#060000"/>
        <path id="パス_1256" data-name="パス 1256" d="M192.019,203.863l.012,0c.274.051.166.01-.012,0" transform="translate(-39.795 -42.25)" fill="#c8e3fa"/>
        <path id="パス_1257" data-name="パス 1257" d="M86.638,138.612c-.011.008-.015.021-.026.029.148-.04.161-.052.026-.029" transform="translate(-17.95 -28.724)" fill="#c8e3fa"/>
        <path id="パス_1258" data-name="パス 1258" d="M174.578,180.649a2.6,2.6,0,0,1,1.8-3.169,7.686,7.686,0,0,0,4.595-2.66,16.1,16.1,0,0,0,3.015-5.682c1.805-5.782,1.655-12.163.643-18.08-1.128-6.6-2.873-13.126-4.266-19.675-1.069-5.03-2.133-10.062-3.3-15.071-.01.131-.014.266-.026.394a14.184,14.184,0,0,1-4.7,9.732,21.5,21.5,0,0,1-4.925,3.244,62.086,62.086,0,0,1-.189,9.385,53.1,53.1,0,0,1-6.543,19.471c-.506.9-1.039,1.786-1.587,2.661-.118.189-.238.377-.358.564-.558.87-1.133,1.728-1.739,2.562h0q-.84,1.155-1.746,2.254c-.1.124-.21.243-.313.365q-.719.854-1.482,1.669c-.185.2-.373.391-.561.585q-.7.715-1.438,1.393c-.2.181-.389.365-.59.542-.684.6-1.387,1.189-2.122,1.742-7.6,5.7-17.751,8.451-26.9,6.067,2.221,3.911,4.467,7.81,6.287,11.925a46.142,46.142,0,0,1,3.808,13.19,50.292,50.292,0,0,1-.117,12.219c-.1.781-.212,1.555-.339,2.327-.105.666-.225,1.328-.35,1.988h0a9.031,9.031,0,0,0,3.013-.425c0-.036-.012-.071-.012-.107a2.643,2.643,0,0,1,2.576-2.576,57.212,57.212,0,0,0,19.04-4.853,44.5,44.5,0,0,0,5.174-2.812c.436-.278.867-.564,1.287-.867.118-.085.2-.142.253-.184-.059.045-.142.109-.25.2a3.375,3.375,0,0,1,1.293-.649q-.389-7.691-.779-15.382c0-.082.009-.153.011-.231a16.466,16.466,0,0,1-3.015-5.281c-1.6-4.546-2.221-9.451-3.487-14.1a2.841,2.841,0,0,1-.1-.638c0-.067.006-.127.009-.191a2.322,2.322,0,0,1,.044-.392c.014-.067.033-.129.053-.192a2.12,2.12,0,0,1,.133-.338c.026-.052.052-.1.082-.155a2.424,2.424,0,0,1,.242-.331c.025-.027.045-.057.071-.084a2.889,2.889,0,0,1,2.411-.841l.009,0a2.4,2.4,0,0,1,.938.323c.052.03.1.059.154.094s.11.089.164.136a2.126,2.126,0,0,1,.183.177c.043.047.084.1.124.148a2.376,2.376,0,0,1,.174.266c.029.048.059.094.084.146a2.876,2.876,0,0,1,.191.5c.818,3,1.485,6.036,2.159,9.073.261,1.174.526,2.349.853,3.507.134.474.278.947.439,1.414.082.239.171.476.261.713.017.046.025.065.035.1s.017.034.033.068a14.357,14.357,0,0,0,.664,1.279c.14.235.293.461.442.69.022.034.109.146.174.232a13.454,13.454,0,0,0,1.907,1.881c.092.063.507.377.561.413q.331.231.671.448c.534.342,1.082.664,1.638.97,1.141.629,2.318,1.188,3.506,1.723a11.359,11.359,0,0,0,6.986-3.982,12.158,12.158,0,0,1-7.542-.458l-.016-.006c-.383-.148-.76-.311-1.13-.492l-.059-.03c-.355-.176-.7-.363-1.047-.568-.037-.022-.073-.047-.11-.07-.323-.2-.641-.4-.951-.622-.055-.039-.109-.082-.163-.121-.289-.211-.574-.426-.85-.656-.075-.062-.145-.128-.22-.192-.251-.216-.5-.434-.74-.666-.094-.09-.182-.186-.274-.278-.213-.215-.426-.428-.629-.653-.112-.124-.216-.256-.324-.383-.174-.2-.35-.405-.514-.617-.129-.165-.248-.338-.371-.507s-.273-.365-.4-.553c-.148-.22-.283-.448-.422-.674-.09-.147-.187-.29-.273-.44q-.328-.57-.614-1.158a2.644,2.644,0,0,1,.924-3.525,2.591,2.591,0,0,1,3.525.924,17.561,17.561,0,0,0,1.007,1.811q.275.429.574.84c.043.059.078.107.107.143.084.1.167.208.254.309a16,16,0,0,0,1.441,1.5c.128.117.259.232.392.345l.212.173c.087.065.224.17.254.19.142.1.285.2.43.29l.022.013a8.014,8.014,0,0,0,3.173-1.839,2.564,2.564,0,0,1-2.618-1.86" transform="translate(-25.25 -24.105)" fill="#fff"/>
        <path id="パス_1259" data-name="パス 1259" d="M189.406,288.488a2.6,2.6,0,0,1-3.169-1.8l-11.109-62.955a3.094,3.094,0,0,1,.226-1.853,60.555,60.555,0,0,1-8.157-3.817q.036.692.071,1.385l1.919,37.9a2.6,2.6,0,0,1-2.576,2.576l-4.466.034-30.92.24a2.811,2.811,0,0,1-.622-.066c-.064-.013-.12-.039-.181-.057a2.432,2.432,0,0,1-.352-.128c-.063-.031-.119-.069-.178-.1a2.27,2.27,0,0,1-.266-.184c-.052-.044-.1-.091-.148-.139a2.178,2.178,0,0,1-.208-.237c-.04-.052-.077-.1-.112-.159a2.483,2.483,0,0,1-.156-.289c-.025-.054-.052-.106-.072-.162a2.633,2.633,0,0,1-.107-.356c-.01-.045-.025-.088-.033-.134a2.911,2.911,0,0,1-.05-.491l0-.02a2.952,2.952,0,0,1,.044-.542H126.2q-.106.385-.212.771-.918,3.366-1.825,6.735-.727,2.7-1.464,5.387l-5.123,18.6h71.905c.011-.06.025-.118.037-.178-.038.012-.069.03-.108.041" transform="translate(-24.366 -45.193)" fill="#ffec00"/>
        <path id="パス_1260" data-name="パス 1260" d="M67.3,288.341c.166-.39.331-.78.5-1.17l.121-.289q.18-.427.358-.854,2.007-4.8,3.927-9.636.991-2.495,1.957-5c1.9-4.939,3.72-9.913,5.379-14.939H76.765a2.857,2.857,0,0,1-.161.934c0,.006,0,.01-.006.014a2.551,2.551,0,0,1-.189.412c-.01.017-.024.031-.033.048a2.334,2.334,0,0,1-.238.331c-.028.033-.065.057-.1.088a2.121,2.121,0,0,1-.253.231c-.054.04-.119.067-.177.1a2.161,2.161,0,0,1-.249.141,2.483,2.483,0,0,1-.311.094c-.066.017-.124.044-.193.057a2.841,2.841,0,0,1-.581.046l-7.341-.158c-1.26-.027-2.742-1.171-2.576-2.576s.329-2.787.494-4.182q1.684-14.266,3.367-28.532c-1.024.441-2.051.874-3.07,1.325-2.877,1.271-5.811,2.366-8.774,3.391a3.225,3.225,0,0,1-.033.832l-1.318,7.419q-2.868,16.158-5.737,32.317l-3.6,20.276a1.926,1.926,0,0,1-.285.692H66.72a3.616,3.616,0,0,1,.125-.354q.228-.529.453-1.058" transform="translate(-9.41 -46.32)" fill="#ffec00"/>
        <path id="パス_1261" data-name="パス 1261" d="M73.234,174.81c.044-.006.088-.01.132-.012a1.938,1.938,0,0,1,.332.007c.043,0,.086,0,.128.012a2.32,2.32,0,0,1,.395.1c.07.025.136.057.2.088s.12.057.178.09c.081.044.159.09.236.143l.058.044a3.007,3.007,0,0,1,.5.456h0a2.8,2.8,0,0,1,.326.449c.006.01.013.019.019.029a2.274,2.274,0,0,1,.215.5,2.662,2.662,0,0,1-1.8,3.169l-.49.2A1.964,1.964,0,0,1,74,181.389q-.247,2.092-.494,4.182-.21,1.79-.422,3.579l.019.01,8.829,4.683a2.225,2.225,0,0,1,.411.282c.043.037.078.081.117.12a2.249,2.249,0,0,1,.208.228c.043.056.077.117.114.177a2.431,2.431,0,0,1,.127.22c.036.074.064.15.093.227s.048.132.067.2a2.656,2.656,0,0,1,.06.275c.01.055.017.109.023.166a2.849,2.849,0,0,1,.018.319c0,.041,0,.082,0,.122a2.85,2.85,0,0,1-.036.358c0,.024-.01.046-.015.07a2.838,2.838,0,0,1-.1.389c.442.1.876.2,1.3.28-.011-.388-.041-.775-.082-1.161-.015-.144-.035-.286-.054-.429-.036-.279-.078-.557-.127-.835-.023-.129-.045-.258-.071-.388-.078-.4-.164-.79-.265-1.184-1.523-5.979-5.071-11.147-7.614-16.7-.162-.354-.317-.711-.476-1.066-.5-1.12-.99-2.243-1.494-3.361-.036-.08-.072-.161-.109-.242-.266-.584-.543-1.163-.824-1.739-.094-.193-.183-.388-.279-.581-.364-.725-.743-1.443-1.152-2.146A94.024,94.024,0,0,0,66,159.482a22.853,22.853,0,0,1-4.1-9.084,33.526,33.526,0,0,1-.264-9.553c.375-4.213-1.934-11.187,2.487-13.925a2.406,2.406,0,0,1,1.538-.388c0-.087-.008-.175-.013-.262a21.549,21.549,0,0,1-6.818-6.085c-3.213-4.456-4.1-10.734-3.364-16.074a12.474,12.474,0,0,1,2.9-6.911,7.451,7.451,0,0,1,6.907-2.06,1.831,1.831,0,0,1,.414.12c.006-.624.035-1.248.092-1.871-1.787-.664-2.676-3.44-.53-4.657C77.448,81.819,83.1,65.787,81.525,52.375A2.592,2.592,0,0,1,84.1,49.8a2.655,2.655,0,0,1,2.576,2.576A39.524,39.524,0,0,1,86.81,60q-.09,1.211-.248,2.418c-.119.911-.273,1.823-.445,2.736-.048.252-.1.5-.152.756q-.218,1.068-.484,2.13c-.055.22-.107.44-.166.659a48.21,48.21,0,0,1-1.834,5.56c-.04.1-.082.2-.123.3q-.529,1.3-1.136,2.565c-.027.055-.052.111-.078.166A40.815,40.815,0,0,1,77.223,85.1h0q-.48.6-.985,1.172l-.066.073q-.841.954-1.75,1.841c-.164.161-.327.323-.5.481q-.392.369-.8.726c-.329.291-.666.573-1.007.851-.217.176-.434.353-.656.523a2.269,2.269,0,0,1-.06.365c-.157.559-.291,1.121-.394,1.692-.013.073-.055.354-.069.437-.029.243-.053.485-.071.729a20.952,20.952,0,0,0,.02,3.286c.021.258.05.515.078.771-.011-.136.063.463.066.476.1.611.217,1.218.354,1.823.262,1.156.593,2.293.966,3.418a2.577,2.577,0,1,1-4.969,1.37,35.2,35.2,0,0,1-1.343-5.423,3.106,3.106,0,0,1-2.133.394c.518.081-.4,0-.5,0a.461.461,0,0,1-.127-.01c-.043.016-.114.038-.255.075a2.766,2.766,0,0,0-.3.117,3.692,3.692,0,0,1-.342.2c-.1.09-.2.18-.295.272-.071.075-.139.153-.206.231l-.059.085c-.142.222-.278.445-.4.679-.033.064-.2.438-.228.5a15.392,15.392,0,0,0-.709,7.243,17.388,17.388,0,0,0,2.239,7.248A13.922,13.922,0,0,0,66,120.332a10.1,10.1,0,0,1,.687-2.025,6.692,6.692,0,0,1,6.452-3.738,6.594,6.594,0,0,1,1.336-2.758,5.876,5.876,0,0,1,5.733-1.851,6.571,6.571,0,0,1,4.762,3.163,18.124,18.124,0,0,1,2.064,5.916,6.408,6.408,0,0,1,2.649.369c3.6,1.314,4.877,4.763,5.93,8.126A74.6,74.6,0,0,1,97.6,137.676a47.668,47.668,0,0,0,3.025,10.7c.622,1.47,1.314,2.9,2.03,4.325a22.013,22.013,0,0,0,16.478,2.232,30.88,30.88,0,0,0,13.45-7.072c4.282-3.865,7.434-8.952,9.954-14.1a40.464,40.464,0,0,0,4.45-16.217c.078-2.876-.025-5.766-.076-8.642a2.653,2.653,0,0,1,1.892-2.484c.052-.018.165-.062.266-.1.131-.058.36-.158.423-.187q.388-.182.767-.379a15.271,15.271,0,0,0,3.6-2.488,9.472,9.472,0,0,0,1.314-1.5c.225-.332.408-.682.6-1.031.065-.116.1-.174.122-.21a.413.413,0,0,1,.038-.139,13.255,13.255,0,0,0,.483-1.749c.054-.265.1-.532.138-.8,0-.078.05-.555.056-.634a18.687,18.687,0,0,0-1.05-8.05c-.728-2.055-1.958-4.085-3.965-4.926-.01.015-.691-.194-.835-.212a4.961,4.961,0,0,0-.861,0,8,8,0,0,0-1.977.444,7.8,7.8,0,0,0-1.629.733c-.124.071-.246.147-.366.225a2.687,2.687,0,0,1-4.283-.48,2.867,2.867,0,0,1-1.266-2.2q-.019-.239-.047-.476c-.039-.262-.086-.524-.136-.784-.11-.566-.243-1.127-.392-1.685a36.419,36.419,0,0,0-1.192-3.625,60.275,60.275,0,0,0-8.225-14.317,35.883,35.883,0,0,0-2.493-2.8c-.4-.4-.806-.786-1.231-1.156a7.184,7.184,0,0,0-.878-.7,2.632,2.632,0,0,1-.924-3.525,2.6,2.6,0,0,1,3.525-.924c4.732,3.375,8.234,8.466,11.091,13.447a46.513,46.513,0,0,1,5.653,13.848c.236-.1.465-.189.676-.272a10.608,10.608,0,0,1,7.239-.474,10.835,10.835,0,0,1,4.881,3.537,151.492,151.492,0,0,0-7.992-20.824C144.766,51.153,137.889,40.476,127.79,33.6c-9.726-6.626-22.207-9.717-33.636-6.06-2.253.721-3.574-1.578-3.028-3.334a28.255,28.255,0,0,0-3.233.2,2.957,2.957,0,0,1,.674,1.727c0,.025,0,.05,0,.075a2.6,2.6,0,0,1-.037.509c-.006.033-.009.066-.016.1a2.233,2.233,0,0,1-.186.546s-.006.008-.007.012a2.059,2.059,0,0,1-.312.442c-.038.043-.081.081-.124.121a2.168,2.168,0,0,1-.35.266c-.053.033-.1.067-.162.1a2.691,2.691,0,0,1-.642.237c-11.686,2.632-20.39,11.875-25.228,22.48-4.929,10.806-6.281,22.974-7.781,34.632-1.393,10.823-2.5,21.682-3.884,32.507-1.19,9.318-2.738,19.042-1.249,28.416a29.831,29.831,0,0,0,4.617,12.361,18.44,18.44,0,0,0,4.78,4.957,10.8,10.8,0,0,0,2.354,1.176,2.53,2.53,0,0,1,1.83-2.492,2.634,2.634,0,0,1,1.986.259,2.57,2.57,0,0,1,1.184,1.54,12.964,12.964,0,0,1-.4,5.69,15.115,15.115,0,0,1-5.807,8,10.259,10.259,0,0,1-4.424,1.709,9.288,9.288,0,0,1-1,.058h0a3.463,3.463,0,0,0,1.41,2.269c6.016-2.084,11.79-4.714,17.665-7.167a1.761,1.761,0,0,1,.441-.113M91.143,98.117c-3.321,0-3.315-5.153,0-5.153s3.316,5.153,0,5.153m30.266,34.547a2.626,2.626,0,0,1-1.54,1.184,2.578,2.578,0,0,1-1.985-.26,8.262,8.262,0,0,0-1.154-.71c-.064-.023-.128-.047-.193-.067-.211-.068-.426-.125-.642-.173-.108-.023-.217-.04-.326-.063l-.052-.011c-.114,0-.23.008-.317.006q-.332-.007-.662.016c-.03,0-.071,0-.108,0a9.8,9.8,0,0,0-1.263.332l-.11.043c-.192.092-.381.192-.564.3-.074.044-.188.1-.294.16l-.068.062c-.079.069-.159.136-.237.208a6.149,6.149,0,0,0-.438.449l0,0-.049.069a2.64,2.64,0,0,1-3.525.924,2.592,2.592,0,0,1-.924-3.525,9.766,9.766,0,0,1,13.529-2.479,3.043,3.043,0,0,1,1.184,1.54,2.6,2.6,0,0,1-.26,1.986M111.455,112.6c3.322,0,3.316,5.153,0,5.153s-3.315-5.153,0-5.153m11.89-20.164c-3.321,0-3.315-5.153,0-5.153s3.316,5.153,0,5.153M110.6,52.357a2.647,2.647,0,0,1,3.169,1.8c1.5,4.071,5.162,7.549,8.348,10.463,3.426,3.134,7.222,5.626,11.873,6.417a2.6,2.6,0,0,1,1.8,3.169,2.476,2.476,0,0,1-.181.466,2.363,2.363,0,0,1-.154.248c-.03.044-.055.093-.088.135a2.393,2.393,0,0,1-.261.283c-.01.009-.019.02-.029.029a2.63,2.63,0,0,1-1.311.629l-.038.009a3.2,3.2,0,0,1-.471.042c-.029,0-.057.006-.086.006a3.409,3.409,0,0,1-.551-.047,20.785,20.785,0,0,1-3.2-.837c-.111-.038-.224-.071-.334-.109-.449-.16-.889-.339-1.325-.526-.15-.064-.3-.126-.449-.193q-.609-.276-1.2-.585c-.175-.09-.35-.182-.523-.277-.368-.2-.732-.408-1.09-.626-.2-.12-.4-.246-.595-.371-.327-.209-.653-.419-.974-.641-.232-.16-.461-.327-.69-.493-.279-.2-.56-.4-.834-.616-.29-.223-.572-.455-.855-.686-.209-.17-.422-.335-.628-.51q-.736-.622-1.448-1.272c-3.919-3.586-7.807-7.668-9.672-12.736a2.6,2.6,0,0,1,1.8-3.169m-17.064-5.7a2.6,2.6,0,0,1,3.169,1.8c1.76,11.152,10.1,21.213,20.4,25.628a1.77,1.77,0,0,1,.419.254c.044.036.079.081.12.121a2.012,2.012,0,0,1,.21.225c.045.06.08.127.119.191a2.429,2.429,0,0,1,.123.217,2.624,2.624,0,0,1,.1.261c.021.062.043.121.059.184a3.127,3.127,0,0,1,.064.331c.006.043.012.085.017.128a3.08,3.08,0,0,1,.012.392l0,.065a2.921,2.921,0,0,1-.055.427l0,.017a2.366,2.366,0,0,1-.255.711,2.662,2.662,0,0,1-3.525.924c-.629-.27-1.249-.567-1.865-.876q-.233-.117-.465-.237c-.6-.312-1.191-.637-1.774-.984-.09-.053-.177-.111-.266-.165q-.74-.45-1.463-.938-.291-.2-.58-.4c-.506-.354-1.008-.717-1.5-1.1-.216-.166-.426-.342-.638-.513-.309-.25-.616-.5-.919-.761-.26-.223-.519-.446-.775-.675s-.5-.461-.744-.694q-.692-.654-1.356-1.34c-.139-.144-.277-.289-.414-.434A41.886,41.886,0,0,1,98.9,66.044l-.087-.116A39.537,39.537,0,0,1,94.132,57.9c-.079-.183-.158-.367-.234-.552-.157-.381-.312-.76-.456-1.145-.2-.522-.381-1.049-.55-1.578-.078-.244-.147-.491-.22-.736q-.209-.706-.388-1.419c-.052-.212-.1-.423-.151-.636-.151-.667-.289-1.337-.395-2.01a2.639,2.639,0,0,1,1.8-3.169m-4.515,31.87c.159-.112.313-.228.47-.342.035-.03.072-.057.107-.085.331-.266.656-.541.976-.821a2.639,2.639,0,0,1,3.643,0,2.591,2.591,0,0,1,0,3.643,27.642,27.642,0,0,1-4.539,3.285,59.933,59.933,0,0,1-5.564,2.659,3,3,0,0,1-1.985.259,2.6,2.6,0,0,1-1.54-1.184,2.632,2.632,0,0,1-.259-1.986,2.576,2.576,0,0,1,1.184-1.54c1.845-.807,3.7-1.612,5.459-2.6a23.159,23.159,0,0,0,2.048-1.291" transform="translate(-9.944 -5.016)" fill="#f49902"/>
        <path id="パス_1262" data-name="パス 1262" d="M102.9,271.269c1.8-7.086,3.887-14.113,5.829-21.163,1.746-6.341,3.375-12.729,5.242-19.036a62.7,62.7,0,0,0,2.339-11.08,47.1,47.1,0,0,0-.029-11.6,41.394,41.394,0,0,0-3.716-11.712c-3.654-7.778-8.574-14.884-11.9-22.826a48.62,48.62,0,0,1-3.02-10.137c-.608-3.343-.837-6.526-1.755-9.775a37,37,0,0,0-1.333-3.976c-.411-.922-1.064-2.079-2.186-2.1-.786-.015-.976,1.281-.993,2.124a19.156,19.156,0,0,0,.217,2.825c.016.118.038.284.053.391.036.247.072.494.109.741.076.511.155,1.023.235,1.535.22,1.409.449,2.817.677,4.225q.96,5.937,1.874,11.883a2.641,2.641,0,0,1-1.8,3.169,2.6,2.6,0,0,1-3.169-1.8q-.523-3.441-1.07-6.88c-.509-3.2-1.042-6.4-1.539-9.6a33.335,33.335,0,0,1-.726-6.848,8.954,8.954,0,0,1,1.073-3.961c-.349-1.268-.592-2.549-.9-3.833-.075-.314-.159-.624-.261-.93-.044-.115-.067-.178-.078-.209-.064-.136-.128-.271-.2-.4a3.1,3.1,0,0,0-1.047-1.4,2.9,2.9,0,0,0-.809-.174c-.2-.013-.4-.015-.6-.013a2.434,2.434,0,0,0-.571,1.929c0,2.4.25,4.835.4,7.235a250.749,250.749,0,0,0,2.963,27.171,2.635,2.635,0,0,1-1.8,3.169,2.6,2.6,0,0,1-3.169-1.8q-1.295-7.48-2.079-15.036c-.43-4.181-.741-8.373-1.009-12.568q-.164-2.571-.31-5.144c-.047-.028-.093-.043-.139-.075-.3-.2-.268-.23-.613-.117a1.67,1.67,0,0,0-.717.473,4.936,4.936,0,0,0-.72,3.125,2.465,2.465,0,0,1,.05,3.187c.075,2.03.224,4.06.406,6.077A148.7,148.7,0,0,0,79.319,175.9c.734,3.234-4.235,4.6-4.969,1.37-1.107-4.879-2.03-9.809-2.7-14.772-.047,2.553-.379,5.086-.239,7.648a18.472,18.472,0,0,0,3.234,9.539c2.063,3.029,4.579,5.7,6.428,8.884,1.7,2.924,2.928,6.069,4.332,9.136,1.28,2.793,2.786,5.474,4.181,8.209,2.461,4.826,4.9,10.218,4.746,15.76a40.089,40.089,0,0,1-1.459,8.624c-.921,3.641-2.052,7.229-3.248,10.788-3.534,10.521-7.619,20.886-11.988,31.093h25.067a2.778,2.778,0,0,1,.09-.529c.035-.127.072-.253.1-.38" transform="translate(-14.793 -28.745)" fill="#fff"/>
        <path id="パス_1263" data-name="パス 1263" d="M235.09,280.092c-.886-4.535-1.94-9.044-3.053-13.528a194.955,194.955,0,0,0-7.877-25.571,57.951,57.951,0,0,0-5.292-10.712,25.282,25.282,0,0,0-9-7.885c-10.359-5.923-22.063-8.866-32.907-13.69-.127-.056-.252-.118-.378-.175-1.188-.535-2.366-1.094-3.506-1.723-.556-.306-1.1-.627-1.638-.97-.226-.146-.45-.294-.671-.448-.053-.036-.469-.35-.561-.414a13.447,13.447,0,0,1-1.907-1.88c-.066-.086-.151-.2-.174-.232-.15-.229-.3-.454-.443-.69-.246-.414-.46-.843-.664-1.279l-.033-.067c-.011-.03-.017-.049-.035-.1-.09-.237-.178-.474-.262-.714-.161-.466-.3-.939-.439-1.413-.327-1.157-.592-2.332-.853-3.507-.674-3.036-1.341-6.07-2.159-9.072a2.873,2.873,0,0,0-.191-.5c-.025-.052-.055-.1-.083-.147a2.567,2.567,0,0,0-.174-.266c-.04-.052-.082-.1-.124-.148a2.127,2.127,0,0,0-.183-.177,2.015,2.015,0,0,0-.164-.136c-.049-.035-.1-.063-.153-.094a2.409,2.409,0,0,0-.938-.323h-.01a2.889,2.889,0,0,0-2.411.841c-.025.027-.046.056-.07.084a2.363,2.363,0,0,0-.242.331c-.03.05-.056.1-.082.155a2.3,2.3,0,0,0-.133.337c-.02.063-.039.126-.053.193a2.321,2.321,0,0,0-.043.392c0,.064-.012.124-.01.191a2.842,2.842,0,0,0,.1.638c1.267,4.646,1.889,9.55,3.487,14.1a16.449,16.449,0,0,0,3.014,5.281c0,.078-.015.149-.011.232q.389,7.69.778,15.382a3.38,3.38,0,0,0-1.293.649c.109-.086.191-.151.251-.2l-.254.184c-.42.3-.851.588-1.287.866a44.616,44.616,0,0,1-5.174,2.812,57.212,57.212,0,0,1-19.04,4.853,2.643,2.643,0,0,0-2.576,2.576c0,.036.01.071.011.107a2.665,2.665,0,0,0,.48,1.367l.018.023a2.8,2.8,0,0,0,.293.355c.028.029.06.051.089.078a2.551,2.551,0,0,0,.284.24c.057.04.121.068.181.1a2.491,2.491,0,0,0,.247.136,2.1,2.1,0,0,0,.287.087,1.88,1.88,0,0,0,.184.055,1.973,1.973,0,0,0,.5.024,63.355,63.355,0,0,0,21.392-5.442,42.459,42.459,0,0,0,5.7-3.105q.424,8.373.848,16.745l.145,2.874L138.609,248l-4.466.034a2.859,2.859,0,0,0-.549.059c-.058.012-.109.032-.164.047a2.365,2.365,0,0,0-.315.1c-.06.025-.115.056-.171.086a2.255,2.255,0,0,0-.239.144c-.055.039-.106.079-.156.121a2.294,2.294,0,0,0-.185.176c-.047.049-.092.1-.134.151a2.292,2.292,0,0,0-.139.2c-.038.059-.077.115-.109.177s-.066.143-.1.216-.059.129-.082.2a2.848,2.848,0,0,0-.1.4l0,.007a2.963,2.963,0,0,0-.044.542l0,.021a2.912,2.912,0,0,0,.05.492c.009.045.023.089.033.133a2.56,2.56,0,0,0,.107.356c.021.056.047.108.072.162a2.415,2.415,0,0,0,.156.289c.035.056.072.108.112.159a2.256,2.256,0,0,0,.208.237c.048.048.1.094.148.139a2.269,2.269,0,0,0,.266.184c.059.036.115.074.178.1a2.339,2.339,0,0,0,.352.128c.061.018.117.043.181.057a2.759,2.759,0,0,0,.622.065l30.92-.239,4.466-.035a2.6,2.6,0,0,0,2.576-2.576q-.958-18.95-1.918-37.9-.036-.693-.071-1.386a60.567,60.567,0,0,0,8.157,3.818,3.093,3.093,0,0,0-.226,1.853l11.109,62.955a2.6,2.6,0,0,0,3.169,1.8c.039-.011.07-.029.108-.042a2.64,2.64,0,0,0,1.692-3.127q-5.431-30.776-10.861-61.551l1.218.453c5.7,2.135,11.463,4.169,17,6.707,4.031,1.846,8.717,3.935,11.619,7.226.088.1.469.573.525.633.192.255.381.513.562.776.478.694.922,1.41,1.344,2.14a55,55,0,0,1,2.583,5.134c.473,1.061.613,1.394,1.072,2.541q.615,1.534,1.183,3.085c.788,2.144,1.521,4.309,2.214,6.485,1.369,4.3,2.59,8.637,3.72,13,1.415,5.471,2.729,10.981,3.813,16.528.01.052.035.1.049.147h4.837a3.037,3.037,0,0,0,.082-1.517" transform="translate(-27.285 -38.177)" fill="#060000"/>
        <path id="パス_1264" data-name="パス 1264" d="M111.629,223.576q.907-3.369,1.825-6.735c.071-.258.143-.515.212-.771.336-1.225.669-2.45,1.012-3.672.423-1.505.849-3.01,1.291-4.509.343-1.166.648-2.335.935-3.508.025-.1.048-.21.073-.315q.411-1.716.736-3.45h0c.124-.66.244-1.322.35-1.988.127-.771.243-1.546.338-2.327a50.29,50.29,0,0,0,.118-12.219,46.118,46.118,0,0,0-3.809-13.19c-1.82-4.115-4.066-8.014-6.287-11.925,9.151,2.384,19.3-.365,26.9-6.067.736-.553,1.438-1.138,2.122-1.742.2-.177.393-.362.59-.542q.737-.68,1.437-1.393c.189-.194.377-.388.562-.585q.763-.815,1.482-1.669c.1-.123.212-.241.313-.365q.906-1.1,1.746-2.254h0c.606-.834,1.18-1.692,1.739-2.562.12-.187.24-.374.358-.564.547-.875,1.081-1.759,1.586-2.661a53.087,53.087,0,0,0,6.544-19.471A62.192,62.192,0,0,0,154,109.7a21.523,21.523,0,0,0,4.925-3.244,14.187,14.187,0,0,0,4.7-9.732c.012-.128.016-.263.026-.394,1.168,5.009,2.232,10.041,3.3,15.071,1.393,6.549,3.137,13.078,4.266,19.675,1.012,5.917,1.161,12.3-.643,18.08a16.117,16.117,0,0,1-3.015,5.682,7.688,7.688,0,0,1-4.595,2.66,2.6,2.6,0,0,0-1.8,3.169,2.564,2.564,0,0,0,2.618,1.86,3.116,3.116,0,0,0,.551-.06c10.713-2.213,13.04-15.819,12.7-24.887-.261-7.031-2.152-13.822-3.64-20.659-1.4-6.427-2.713-12.872-4.16-19.288A191.972,191.972,0,0,0,158.2,62.749c-5.216-11.93-12.118-23.634-22.416-31.877-11.333-9.072-26.931-13.73-41.11-9.193a2.441,2.441,0,0,0-1.658,1.635c-.545,1.755.776,4.054,3.028,3.334,11.428-3.657,23.91-.566,33.636,6.06,10.1,6.88,16.975,17.558,22.144,28.413a151.562,151.562,0,0,1,7.993,20.824,10.827,10.827,0,0,0-4.882-3.537,10.605,10.605,0,0,0-7.239.474c-.211.083-.44.175-.677.272a46.491,46.491,0,0,0-5.652-13.848c-2.858-4.982-6.359-10.073-11.091-13.447a2.6,2.6,0,0,0-3.525.924,2.633,2.633,0,0,0,.924,3.525,7.12,7.12,0,0,1,.879.7c.424.369.833.757,1.23,1.156a35.735,35.735,0,0,1,2.494,2.8,60.264,60.264,0,0,1,8.224,14.317,36.63,36.63,0,0,1,1.192,3.625c.148.557.282,1.119.392,1.685.051.26.1.522.137.783.017.159.033.317.046.476a2.868,2.868,0,0,0,1.267,2.2,2.686,2.686,0,0,0,4.282.48c.121-.078.243-.155.367-.225a7.8,7.8,0,0,1,1.629-.733,8.031,8.031,0,0,1,1.977-.445,5.032,5.032,0,0,1,.86,0c.145.018.826.228.835.212,2.008.841,3.238,2.871,3.966,4.926a18.675,18.675,0,0,1,1.05,8.05c-.006.079-.053.557-.055.634-.038.268-.084.535-.138.8a13.238,13.238,0,0,1-.484,1.75c-.034.1-.041.132-.037.139-.023.036-.058.094-.123.21-.2.35-.377.7-.6,1.031a9.475,9.475,0,0,1-1.314,1.5,15.218,15.218,0,0,1-3.6,2.489q-.379.2-.767.379c-.063.029-.293.128-.423.186-.1.04-.213.083-.266.1a2.653,2.653,0,0,0-1.891,2.484c.052,2.876.155,5.766.077,8.642a40.489,40.489,0,0,1-4.45,16.217c-2.52,5.143-5.672,10.229-9.954,14.1a30.9,30.9,0,0,1-13.45,7.072,22.012,22.012,0,0,1-16.478-2.232c-.717-1.421-1.41-2.855-2.03-4.325a47.626,47.626,0,0,1-3.025-10.7,74.583,74.583,0,0,0-1.98-10.141c-1.053-3.364-2.331-6.813-5.93-8.127a6.4,6.4,0,0,0-2.649-.369,18.119,18.119,0,0,0-2.064-5.916,6.57,6.57,0,0,0-4.762-3.163,5.872,5.872,0,0,0-5.732,1.851,6.581,6.581,0,0,0-1.336,2.757,6.693,6.693,0,0,0-6.453,3.739,10.146,10.146,0,0,0-.687,2.025,13.938,13.938,0,0,1-3.284-3.586,17.387,17.387,0,0,1-2.238-7.248,15.4,15.4,0,0,1,.708-7.243c.031-.057.2-.431.229-.5.123-.234.259-.457.4-.679l.059-.084c.067-.078.134-.156.205-.231l.3-.272a3.714,3.714,0,0,0,.341-.2,2.968,2.968,0,0,1,.3-.118c.141-.036.212-.059.255-.075a.5.5,0,0,0,.126.01c.106,0,1.023.079.506,0a3.106,3.106,0,0,0,2.133-.394,35.106,35.106,0,0,0,1.343,5.423,2.577,2.577,0,1,0,4.969-1.37c-.373-1.124-.7-2.262-.966-3.418q-.206-.906-.354-1.823c0-.013-.077-.612-.065-.477-.029-.256-.057-.513-.078-.771a21.052,21.052,0,0,1-.021-3.286c.018-.243.044-.486.071-.729.015-.083.056-.363.07-.436.1-.571.237-1.133.393-1.692a2.377,2.377,0,0,0,.061-.365c.222-.171.439-.347.656-.523.341-.278.678-.56,1.007-.851q.405-.357.8-.727c.167-.158.331-.319.495-.48q.907-.89,1.75-1.841l.066-.073q.5-.576.985-1.172h0a40.812,40.812,0,0,0,4.92-7.814c.027-.055.052-.11.078-.166q.608-1.265,1.136-2.565c.041-.1.083-.2.124-.3a48.57,48.57,0,0,0,1.834-5.56c.058-.219.11-.438.166-.659q.265-1.063.483-2.13c.052-.253.105-.5.153-.756.171-.912.325-1.825.444-2.736q.158-1.207.249-2.418a39.534,39.534,0,0,0-.132-7.625A2.656,2.656,0,0,0,86,48.91a2.592,2.592,0,0,0-2.576,2.576C84.994,64.9,79.342,80.932,67.15,87.843,65,89.06,65.892,91.835,67.679,92.5c-.057.623-.086,1.247-.091,1.871v.006a1.866,1.866,0,0,0-.414-.125,7.453,7.453,0,0,0-6.908,2.06,12.473,12.473,0,0,0-2.9,6.911c-.736,5.34.152,11.618,3.364,16.073a21.563,21.563,0,0,0,6.819,6.086c0,.086.007.174.013.261a2.41,2.41,0,0,0-1.538.388c-4.42,2.739-2.112,9.712-2.488,13.926a33.526,33.526,0,0,0,.265,9.553,22.842,22.842,0,0,0,4.1,9.084,94.316,94.316,0,0,1,5.773,7.957c.408.7.788,1.421,1.151,2.147.1.192.186.388.28.581.281.576.558,1.155.823,1.739.036.081.072.162.109.242.5,1.118.995,2.241,1.494,3.36.158.356.313.713.476,1.067,2.543,5.556,6.091,10.724,7.614,16.7.1.394.186.789.265,1.184.025.129.047.258.07.388.05.277.091.556.128.835.018.143.039.285.053.429.04.385.071.772.082,1.161a13.967,13.967,0,0,1-.029,1.421c-.02.271-.052.541-.075.811,0,.052-.017.153-.029.237s-.019.143-.031.215c-.12.743-.25,1.482-.4,2.22A102.1,102.1,0,0,1,82.91,211.4c-1.894,6-4.053,11.923-6.322,17.8q-.968,2.5-1.957,5-1.919,4.835-3.928,9.636-.178.427-.358.854l-.122.289-.5,1.171q-.226.529-.454,1.058c-.05.116-.087.235-.125.354h5.537c4.37-10.207,8.455-20.572,11.989-31.093,1.2-3.559,2.326-7.147,3.248-10.789a40.08,40.08,0,0,0,1.458-8.624c.151-5.542-2.284-10.934-4.745-15.759-1.4-2.736-2.9-5.417-4.182-8.21-1.4-3.066-2.634-6.212-4.332-9.136-1.849-3.183-4.364-5.856-6.428-8.885a18.479,18.479,0,0,1-3.234-9.539c-.14-2.562.192-5.094.239-7.648.668,4.963,1.591,9.894,2.7,14.772.734,3.232,5.7,1.864,4.969-1.37a148.56,148.56,0,0,1-3.207-19.57c-.182-2.016-.331-4.047-.407-6.077a2.342,2.342,0,0,0,.166-.228,2.778,2.778,0,0,0-.216-2.959,4.933,4.933,0,0,1,.721-3.125,1.674,1.674,0,0,1,.717-.473c.345-.112.316-.082.613.118.047.031.093.047.139.075q.149,2.572.311,5.144c.268,4.194.578,8.387,1.009,12.567q.778,7.552,2.078,15.037a2.6,2.6,0,0,0,3.169,1.8,2.636,2.636,0,0,0,1.8-3.169,251.1,251.1,0,0,1-2.963-27.171c-.15-2.4-.4-4.829-.4-7.234a2.435,2.435,0,0,1,.571-1.93c.2,0,.4,0,.6.014a2.87,2.87,0,0,1,.81.173,3.1,3.1,0,0,1,1.046,1.4c.071.132.136.267.2.4.01.032.033.094.078.21.1.306.186.616.261.929.307,1.285.55,2.565.9,3.834a8.975,8.975,0,0,0-1.073,3.961,33.292,33.292,0,0,0,.727,6.848c.5,3.2,1.03,6.4,1.539,9.6q.546,3.438,1.07,6.88a2.6,2.6,0,0,0,3.169,1.8,2.642,2.642,0,0,0,1.8-3.169q-.9-5.947-1.875-11.883c-.228-1.408-.456-2.816-.676-4.225q-.12-.767-.235-1.535c-.036-.247-.073-.494-.108-.74-.016-.108-.038-.273-.054-.392a19.255,19.255,0,0,1-.217-2.824c.017-.843.207-2.14.993-2.124,1.122.021,1.775,1.177,2.186,2.1a37.048,37.048,0,0,1,1.333,3.976c.919,3.249,1.148,6.433,1.756,9.775a48.624,48.624,0,0,0,3.019,10.138c3.33,7.941,8.251,15.048,11.9,22.826a41.388,41.388,0,0,1,3.717,11.712,47.1,47.1,0,0,1,.029,11.6,62.784,62.784,0,0,1-2.339,11.08c-1.868,6.306-3.5,12.694-5.243,19.036-1.941,7.05-4.024,14.077-5.828,21.163-.032.128-.07.254-.1.38a2.845,2.845,0,0,0-.091.529h5.292q2.56-9.3,5.122-18.6.741-2.69,1.464-5.387M80.5,114.045c.011-.008.015-.021.026-.029.134-.021.121-.011-.026.029" transform="translate(-11.838 -4.128)" fill="#060000"/>
        <path id="パス_1265" data-name="パス 1265" d="M39.88,266.849q2.869-16.158,5.738-32.317.659-3.71,1.317-7.419a3.262,3.262,0,0,0,.033-.832c2.963-1.026,5.9-2.121,8.773-3.391,1.019-.45,2.046-.884,3.07-1.325q-1.683,14.266-3.367,28.532-.246,2.09-.493,4.182c-.166,1.406,1.315,2.549,2.576,2.576l7.341.157a2.794,2.794,0,0,0,.581-.045c.069-.013.127-.04.192-.057a2.5,2.5,0,0,0,.312-.094,2.155,2.155,0,0,0,.248-.141,2,2,0,0,0,.177-.1,2.07,2.07,0,0,0,.254-.231c.03-.03.067-.056.1-.087a2.313,2.313,0,0,0,.237-.331c.01-.017.024-.031.034-.048a2.551,2.551,0,0,0,.189-.412l.006-.014a2.93,2.93,0,0,0-.17-2.312c0-.007-.006-.016-.011-.024a2.439,2.439,0,0,0-.235-.348c-.013-.017-.022-.036-.036-.052a2.364,2.364,0,0,0-.27-.264c-.029-.025-.051-.054-.08-.077a2.34,2.34,0,0,0-.3-.185c-.045-.025-.084-.059-.132-.082a2.463,2.463,0,0,0-.346-.12c-.055-.017-.1-.042-.161-.055a2.877,2.877,0,0,0-.584-.071l-4.468-.1q1.049-8.88,2.1-17.762l5.639,2.99,1.256.666a2.619,2.619,0,0,0,3.525-.924,2.7,2.7,0,0,0,.155-.373,2.839,2.839,0,0,0,.1-.389c0-.024.011-.046.016-.07a3,3,0,0,0,.036-.358c0-.04,0-.081,0-.122a2.674,2.674,0,0,0-.017-.319c-.006-.056-.014-.111-.023-.166a2.7,2.7,0,0,0-.061-.275c-.019-.068-.043-.134-.067-.2s-.057-.153-.093-.227-.082-.147-.127-.22-.072-.12-.114-.177a2.435,2.435,0,0,0-.208-.228c-.04-.04-.075-.083-.118-.12a2.2,2.2,0,0,0-.411-.282l-8.828-4.683-.02-.009q.212-1.79.423-3.578.247-2.092.493-4.183a1.959,1.959,0,0,0-.331-1.292l.49-.2a2.663,2.663,0,0,0,1.8-3.169,2.312,2.312,0,0,0-.215-.5c-.006-.01-.013-.019-.019-.029a2.754,2.754,0,0,0-.327-.449v0a3.069,3.069,0,0,0-.5-.456c-.02-.014-.038-.029-.059-.044-.077-.052-.155-.1-.236-.143-.058-.033-.117-.061-.178-.089s-.134-.064-.2-.089a2.313,2.313,0,0,0-.394-.1c-.044-.007-.086-.008-.129-.012a1.928,1.928,0,0,0-.331-.007c-.044,0-.088.006-.132.012a1.753,1.753,0,0,0-.44.113c-5.875,2.454-11.65,5.083-17.665,7.167-.359.124-.715.254-1.076.374-7.8,2.6-15.99,4.875-22.915,9.454a24.357,24.357,0,0,0-6.732,6.372,39.149,39.149,0,0,0-4.159,8.129,122.345,122.345,0,0,0-5.539,20.126c-1.536,7.305-2.783,14.7-4.764,21.9H5.337c3.264-12.418,4.635-25.3,8.777-37.5a43.611,43.611,0,0,1,3.359-7.767,16.589,16.589,0,0,1,4.481-5.5c5.659-4.47,12.792-6.748,19.6-8.956q-1.592,8.964-3.183,17.927l-5.739,32.317q-.658,3.71-1.317,7.419a3.01,3.01,0,0,0,.346,2.061h4.338a1.924,1.924,0,0,0,.285-.691q1.8-10.137,3.6-20.275" transform="translate(0 -44.384)" fill="#060000"/>
        <path id="パス_1266" data-name="パス 1266" d="M88.767,97.641a2.634,2.634,0,0,0,.26,1.985,2.6,2.6,0,0,0,1.54,1.184,2.991,2.991,0,0,0,1.985-.26,59.63,59.63,0,0,0,5.564-2.658,27.691,27.691,0,0,0,4.539-3.285,2.59,2.59,0,0,0,0-3.644,2.638,2.638,0,0,0-3.644,0c-.32.28-.644.555-.976.821-.034.028-.071.055-.107.085-.156.115-.312.231-.47.343A22.846,22.846,0,0,1,95.41,93.5c-1.758.986-3.613,1.792-5.459,2.6a2.579,2.579,0,0,0-1.184,1.54" transform="translate(-18.379 -18.701)" fill="#060000"/>
        <path id="パス_1267" data-name="パス 1267" d="M142.4,103.777c-3.315,0-3.321,5.153,0,5.153s3.321-5.153,0-5.153" transform="translate(-28.995 -21.507)" fill="#060000"/>
        <path id="パス_1268" data-name="パス 1268" d="M127.4,135.712c-3.315,0-3.321,5.153,0,5.153s3.321-5.153,0-5.153" transform="translate(-25.887 -28.126)" fill="#060000"/>
        <path id="パス_1269" data-name="パス 1269" d="M135.808,156.129a9.769,9.769,0,0,0-13.53,2.479,2.593,2.593,0,0,0,.924,3.525,2.64,2.64,0,0,0,3.525-.924l.049-.069,0,0a5.855,5.855,0,0,1,.438-.449c.077-.071.158-.14.237-.209l.067-.061c.107-.062.22-.117.294-.161q.276-.163.564-.3l.11-.043a9.759,9.759,0,0,1,1.262-.332c.037,0,.078,0,.109,0,.22-.015.441-.021.661-.016.088,0,.2-.006.318-.006l.052.011c.109.022.217.04.326.063q.325.07.641.172c.065.021.129.044.193.067a8.305,8.305,0,0,1,1.153.711,2.583,2.583,0,0,0,1.986.259,2.578,2.578,0,0,0,1.8-3.169,3.047,3.047,0,0,0-1.184-1.54" transform="translate(-25.267 -32.006)" fill="#060000"/>
        <path id="パス_1270" data-name="パス 1270" d="M101.776,110.939c-3.315,0-3.321,5.153,0,5.153s3.321-5.153,0-5.153" transform="translate(-20.577 -22.992)" fill="#060000"/>
        <path id="パス_1271" data-name="パス 1271" d="M53.385,179.577a10.24,10.24,0,0,0,4.424-1.709,15.114,15.114,0,0,0,5.808-8,12.976,12.976,0,0,0,.4-5.69,2.567,2.567,0,0,0-1.184-1.54,2.628,2.628,0,0,0-1.985-.26,2.531,2.531,0,0,0-1.831,2.492,10.793,10.793,0,0,1-2.354-1.175,18.455,18.455,0,0,1-4.78-4.958,29.828,29.828,0,0,1-4.617-12.36c-1.49-9.374.059-19.1,1.249-28.417C49.892,107.139,51,96.281,52.394,85.457c1.5-11.658,2.852-23.826,7.781-34.631,4.837-10.6,13.542-19.848,25.228-22.48a2.713,2.713,0,0,0,.642-.237c.058-.03.109-.064.162-.1a2.118,2.118,0,0,0,.35-.266c.042-.04.086-.078.124-.12a2.1,2.1,0,0,0,.312-.442s.006-.008.007-.012a2.286,2.286,0,0,0,.186-.547c.006-.033.01-.065.015-.1a2.594,2.594,0,0,0,.038-.509c0-.025,0-.05,0-.075a2.954,2.954,0,0,0-.674-1.727,2.461,2.461,0,0,0-2.53-.84C72.877,25.888,63.716,33.978,58.056,43.7c-6.6,11.33-8.515,24.536-10.23,37.32-1.547,11.522-2.76,23.083-4.176,34.622-1.219,9.933-2.9,20.022-1.647,30.04.707,5.636,2.309,11.251,5.621,15.941,2.589,3.666,6.073,7.061,10.413,8.346-.138.266-.274.534-.43.79-.189.31-.4.606-.606.9-.033.04-.064.08-.1.12q-.2.241-.415.472a11.228,11.228,0,0,1-.894.865c-.083.073-.187.144-.274.222-.057.04-.115.082-.174.121a9.316,9.316,0,0,1-1.034.608,4.242,4.242,0,0,0-.4.189c.077-.05.137-.088.183-.117a1.685,1.685,0,0,1-.254.121c-.335.11-.706.148-1.039.254-.047,0-.093.008-.14.01-.147.008-.295.011-.442.009s-.348-.039-.511-.032l-.15-.029c-.2-.044-.405-.1-.6-.16-.159-.05-.863-.331-.143-.025a2.829,2.829,0,0,0-1.985-.259,2.624,2.624,0,0,0-1.54,1.184c-.583,1.105-.4,2.962.924,3.525a10.364,10.364,0,0,0,4.379.9h0a9.084,9.084,0,0,0,1-.058" transform="translate(-8.613 -4.83)" fill="#060000"/>
        <path id="パス_1272" data-name="パス 1272" d="M57.116,213.555c.131-.073.2-.124,0,0" transform="translate(-11.837 -44.243)" fill="#060000"/>
        <path id="パス_1275" data-name="パス 1275" d="M184.742,200.029l-.254-.189-.212-.174q-.2-.169-.391-.345a15.892,15.892,0,0,1-1.442-1.5c-.086-.1-.17-.206-.253-.309-.029-.037-.065-.085-.108-.143-.2-.274-.391-.555-.573-.841a17.323,17.323,0,0,1-1.008-1.811,2.589,2.589,0,0,0-3.525-.924,2.643,2.643,0,0,0-.924,3.525q.284.589.613,1.159c.086.149.183.293.273.439.138.226.274.454.422.674.127.189.265.369.4.553s.242.342.371.508c.165.211.341.412.515.616.109.128.212.259.325.383.2.225.415.439.628.653.092.093.18.189.274.279.24.231.489.449.741.666.074.063.144.13.219.192.277.229.561.446.851.656.055.04.107.082.163.121.31.22.628.426.951.622l.111.07c.342.2.691.392,1.046.568l.059.03q.555.271,1.13.492l.017.006a12.152,12.152,0,0,0,7.542.459c.245-.064.489-.117.735-.2a2.577,2.577,0,0,0-1.37-4.969,11.366,11.366,0,0,1-1.126.317c-.182.04-.364.067-.545.1l-.093,0c-.36.017-.716.036-1.076.024-.2-.007-.391-.031-.587-.04a13.646,13.646,0,0,1-1.746-.48c-.055-.022-.307-.112-.369-.142q-.187-.089-.369-.185c-.329-.172-.648-.362-.96-.562l-.023-.013q-.218-.141-.43-.291m3.915,1.677-.012,0c.178.013.286.054.012,0" transform="translate(-36.421 -40.09)" fill="#060000"/>
        <path id="パス_21944" data-name="パス 21944" d="M135.273,68.768c-3.813,1.127-17.7,2.837-21.882,2.353-20.855-2.4-29.715-27.38-29.755-26.855-.06.807-.308,9.94-.413,10.744-.119.911-.273,1.823-.445,2.736-.048.252-.1.5-.152.756q-.218,1.068-.484,2.13c-.055.22-.107.44-.166.659a48.21,48.21,0,0,1-1.834,5.56c-.04.1-.082.2-.123.3q-.529,1.3-1.136,2.565c-.027.055-.052.111-.078.166A40.815,40.815,0,0,1,73.884,77.7h0q-.48.6-.985,1.172l-.066.073q-.841.954-1.75,1.841c-.164.161-.327.323-.5.481q-.392.369-.8.726c-.329.291-.666.573-1.007.851-.217.176-.434.353-.656.523a2.269,2.269,0,0,1-.06.365c-.157.559-.291,1.121-.394,1.692-.013.073-.055.354-.069.437-.029.243-.053.485-.071.729a20.952,20.952,0,0,0,.02,3.286c.021.258.05.515.078.771-.011-.136.063.463.066.476.1.611.217,1.218.354,1.823.262,1.156.593,2.293.966,3.418a2.577,2.577,0,1,1-4.969,1.37A35.2,35.2,0,0,1,62.7,92.307a3.106,3.106,0,0,1-2.133.394c.518.081-.4,0-.5,0a.461.461,0,0,1-.127-.01c-.043.016-.114.038-.255.075a2.766,2.766,0,0,0-.3.117,3.692,3.692,0,0,1-.342.2c-.1.09-.2.18-.295.272-.071.075-.139.153-.206.231l-.059.085c-.142.222-.278.445-.4.679-.033.064-.2.438-.228.5a15.392,15.392,0,0,0-.709,7.243,17.388,17.388,0,0,0,2.239,7.248,13.922,13.922,0,0,0,3.283,3.586,10.1,10.1,0,0,1,.687-2.025,6.692,6.692,0,0,1,6.452-3.738,6.594,6.594,0,0,1,1.336-2.758,5.876,5.876,0,0,1,5.733-1.851,6.571,6.571,0,0,1,4.762,3.163,18.124,18.124,0,0,1,2.064,5.916,6.408,6.408,0,0,1,2.649.369c3.6,1.314,4.877,4.763,5.93,8.126a74.6,74.6,0,0,1,1.979,10.141,47.668,47.668,0,0,0,3.025,10.7c.622,1.47,1.314,2.9,2.03,4.325a22.013,22.013,0,0,0,16.478,2.232,30.88,30.88,0,0,0,13.45-7.072c4.282-3.865,7.434-8.952,9.954-14.1a40.464,40.464,0,0,0,4.45-16.217c.078-2.876-.025-5.766-.076-8.642a2.653,2.653,0,0,1,1.892-2.484c.052-.018.165-.062.266-.1.131-.058.36-.158.423-.187q.388-.182.767-.379a15.271,15.271,0,0,0,3.6-2.488,9.472,9.472,0,0,0,1.314-1.5c.225-.332.408-.682.6-1.031.065-.116.1-.174.122-.21a.413.413,0,0,1,.038-.139,13.255,13.255,0,0,0,.483-1.749c.054-.265.1-.532.138-.8,0-.078.05-.555.056-.634a18.687,18.687,0,0,0-1.05-8.05c-.728-2.055-1.958-4.085-3.965-4.926-.01.015-.691-.194-.835-.212a4.961,4.961,0,0,0-.861,0,8,8,0,0,0-1.977.444,7.8,7.8,0,0,0-1.629.733c-.124.071-.246.147-.366.225a2.687,2.687,0,0,1-4.283-.48,2.867,2.867,0,0,1-1.266-2.2q-.019-.239-.047-.476c-.039-.262-.086-.524-.136-.784-.11-.566-.243-1.127-.392-1.685a36.419,36.419,0,0,0-1.192-3.625M87.8,90.71c-3.321,0-3.315-5.153,0-5.153s3.316,5.153,0,5.153m30.266,34.547a2.626,2.626,0,0,1-1.54,1.184,2.578,2.578,0,0,1-1.985-.26,8.262,8.262,0,0,0-1.154-.71c-.064-.023-.128-.047-.193-.067-.211-.068-.426-.125-.642-.173-.108-.023-.217-.04-.326-.063l-.052-.011c-.114,0-.23.008-.317.006q-.332-.007-.662.016c-.03,0-.071,0-.108,0a9.8,9.8,0,0,0-1.263.332l-.11.043c-.192.092-.381.192-.564.3-.074.044-.188.1-.294.16l-.068.062c-.079.069-.159.136-.237.208a6.149,6.149,0,0,0-.438.449l0,0-.049.069a2.64,2.64,0,0,1-3.525.924,2.592,2.592,0,0,1-.924-3.525,9.766,9.766,0,0,1,13.529-2.479,3.043,3.043,0,0,1,1.184,1.54,2.6,2.6,0,0,1-.26,1.986M108.116,105.2c3.322,0,3.316,5.153,0,5.153s-3.315-5.153,0-5.153m11.89-20.164c-3.321,0-3.315-5.153,0-5.153s3.316,5.153,0,5.153M85.684,71.121c.159-.112.313-.228.47-.342.035-.03.072-.057.107-.085.331-.266.656-.541.976-.821a2.639,2.639,0,0,1,3.643,0,2.591,2.591,0,0,1,0,3.643A27.642,27.642,0,0,1,86.342,76.8a59.933,59.933,0,0,1-5.564,2.659,3,3,0,0,1-1.985.259,2.6,2.6,0,0,1-1.54-1.184,2.632,2.632,0,0,1-.259-1.986,2.576,2.576,0,0,1,1.184-1.54c1.845-.807,3.7-1.612,5.459-2.6a23.159,23.159,0,0,0,2.048-1.291" transform="translate(-6.604 2.391)" fill="#fff"/>
        <path id="パス_1274" data-name="パス 1274" d="M134.344,75.6q.71.65,1.447,1.272c.206.174.419.34.628.51.284.231.566.463.855.686.274.212.555.412.835.616.229.166.457.333.689.493.32.222.647.432.974.641.2.125.394.251.594.371.359.218.723.425,1.09.626q.26.141.524.277.592.308,1.2.585c.148.067.3.129.449.193.436.187.876.366,1.325.526.11.039.224.071.334.109a20.832,20.832,0,0,0,3.2.837,3.327,3.327,0,0,0,.551.046c.029,0,.057,0,.086,0a3.2,3.2,0,0,0,.472-.042l.038-.009a2.63,2.63,0,0,0,1.311-.629c.01-.009.019-.02.029-.029a2.266,2.266,0,0,0,.261-.283c.033-.042.059-.09.088-.135a2.243,2.243,0,0,0,.155-.248,2.531,2.531,0,0,0,.18-.466,2.6,2.6,0,0,0-1.8-3.169c-4.651-.791-8.447-3.284-11.873-6.417-3.186-2.914-6.849-6.392-8.347-10.463a2.647,2.647,0,0,0-3.169-1.8,2.6,2.6,0,0,0-1.8,3.169c1.865,5.068,5.753,9.151,9.672,12.736" transform="translate(-25.812 -12.352)" fill="#060000"/>
        <path id="パス_1273" data-name="パス 1273" d="M103.561,57.686c.048.212.1.424.152.636q.177.713.387,1.419c.073.246.142.492.22.736q.256.794.551,1.578c.144.384.3.765.455,1.145.077.185.155.369.235.552a39.463,39.463,0,0,0,4.683,8.026l.087.116a41.6,41.6,0,0,0,2.85,3.382c.137.146.276.29.415.434q.664.686,1.356,1.34c.246.233.492.467.743.694s.514.453.775.675q.453.389.918.761c.213.171.423.346.638.513.492.38.993.743,1.5,1.1.192.135.386.266.58.4.482.323.969.637,1.463.937.089.054.175.112.265.165.583.348,1.177.672,1.775.984q.232.12.465.237c.616.31,1.237.607,1.865.877a2.664,2.664,0,0,0,3.525-.925,2.383,2.383,0,0,0,.255-.71l0-.017a2.927,2.927,0,0,0,.054-.428c0-.021,0-.043,0-.065a3.083,3.083,0,0,0-.013-.392c0-.043-.011-.085-.017-.127a2.713,2.713,0,0,0-.064-.331c-.016-.063-.038-.123-.059-.185a2.441,2.441,0,0,0-.1-.26,2.17,2.17,0,0,0-.123-.218,2.123,2.123,0,0,0-.119-.19,1.954,1.954,0,0,0-.21-.226c-.04-.039-.075-.084-.119-.12a1.787,1.787,0,0,0-.419-.255c-10.305-4.415-18.642-14.476-20.4-25.628a2.6,2.6,0,0,0-3.169-1.8,2.64,2.64,0,0,0-1.8,3.169c.106.673.244,1.342.395,2.01" transform="translate(-21.371 -10.865)" fill="#060000"/>
        <path id="パス_21945" data-name="パス 21945" d="M164.718,180.649a2.6,2.6,0,0,1,1.8-3.169,7.686,7.686,0,0,0,4.595-2.66,16.1,16.1,0,0,0,3.015-5.682c1.805-5.782,1.655-12.163.643-18.08-1.128-6.6-2.873-13.126-4.266-19.675-1.069-5.03-2.133-10.062-3.3-15.071-.01.131-.014.266-.026.394a14.184,14.184,0,0,1-4.7,9.732,21.5,21.5,0,0,1-4.925,3.244,62.086,62.086,0,0,1-.189,9.385,53.1,53.1,0,0,1-6.543,19.471c-.506.9-1.039,1.786-1.587,2.661-.118.189-.238.377-.358.564-.558.87-.421,8.29.452,8.4l.009,0a2.4,2.4,0,0,1,.938.323c.052.03.1.059.154.094s.11.089.164.136a2.126,2.126,0,0,1,.183.177c.043.047.084.1.124.148a2.376,2.376,0,0,1,.174.266c.029.048.059.094.084.146a2.876,2.876,0,0,1,.191.5c.818,3,1.485,6.036,2.159,9.073.261,1.174.526,2.349.853,3.507.134.474.278.947.439,1.414.082.239.171.476.261.713.017.046.025.065.035.1s.017.034.033.068c.2.436,4.956.859,4.68.629-.075-.062-.145-.128-.22-.192-.251-.216-.5-.434-.74-.666-.094-.09-.182-.186-.274-.278-.213-.215-.426-.428-.629-.653-.112-.124-.216-.256-.324-.383-.174-.2-.35-.405-.514-.617-.129-.165-.248-.338-.371-.507s-.273-.365-.4-.553c-.148-.22-.283-.448-.422-.674-.09-.147-.187-.29-.273-.44q-.328-.57-.614-1.158a2.644,2.644,0,0,1,.924-3.525,2.591,2.591,0,0,1,3.525.924,17.561,17.561,0,0,0,1.007,1.811q.275.429.574.84c.043.059.078.107.107.143.084.1.167.208.254.309a16,16,0,0,0,1.441,1.5c.128.117.259.232.392.345l.212.173c.087.065.224.17.254.19.142.1.285.2.43.29l.022.013a8.014,8.014,0,0,0,3.173-1.839,2.564,2.564,0,0,1-2.618-1.86" transform="translate(-15.39 -24.105)" fill="#f49902"/>
      </g>
    </g>
  </g>
</svg>
