<svg xmlns="http://www.w3.org/2000/svg" width="371.804" height="105.258" viewBox="0 0 371.804 105.258">
  <g id="worries_ttl" transform="translate(15403.883 -4701.5)">
    <path id="パス_23965" data-name="パス 23965" d="M10.5-2.336h2.176a18.643,18.643,0,0,1,2.912.16v-3.3a15.782,15.782,0,0,1-2.624.16H10.5V-7.2h1.856a26.443,26.443,0,0,1,2.816.1c-.064-.768-.1-1.536-.1-3.456v-5.7c0-1.7.032-2.432.1-3.1a23.992,23.992,0,0,1-2.688.1H10.464v-1.888h2.4a22.81,22.81,0,0,1,2.944.128v-3.232a19.348,19.348,0,0,1-3.1.16h-2.24v-.32a13.256,13.256,0,0,1,.224-2.592H7.168a17.031,17.031,0,0,1,.192,2.592v.32h-2.5a19.1,19.1,0,0,1-3.1-.16v3.232A25.138,25.138,0,0,1,4.7-21.152H7.36v1.888H5.792a25.828,25.828,0,0,1-3.2-.128,31.864,31.864,0,0,1,.128,3.36v5.344c0,1.5-.032,2.56-.128,3.584,1.056-.064,1.824-.1,3.264-.1h1.5v1.888H4.448A17.866,17.866,0,0,1,1.5-5.472v3.328a17.26,17.26,0,0,1,3.1-.192H7.36V-.384a17.828,17.828,0,0,1-.224,2.976h3.552A20.47,20.47,0,0,1,10.5-.224Zm-.1-7.648v-2.08h1.952v2.08Zm0-4.576v-1.92h1.952v1.92ZM7.456-16.48v1.92H5.472v-1.92Zm0,4.416v2.08H5.472v-2.08ZM19.9-13.216a72.032,72.032,0,0,1-3.36,11.232c-1.024.1-1.44.1-2.272.128l.736,3.616c.512-.1.7-.128,1.856-.32Q22.816.432,23.68.288c1.344-.288,2.144-.48,3.456-.8.448,1.44.448,1.44.832,2.912L31.1.864a74.61,74.61,0,0,0-4.448-11.52L23.712-9.5c1.024,2.24,1.632,3.712,2.528,6.208-1.984.384-3.552.64-6.144.96a85.733,85.733,0,0,0,3.36-10.88h4.192a21.6,21.6,0,0,1,3.136.16v-3.552a16.815,16.815,0,0,1-3.136.192H19.136A17.019,17.019,0,0,1,16-16.608v3.552a20.72,20.72,0,0,1,3.04-.16Zm-2.816-8.128a19.842,19.842,0,0,1,3.1-.16h6.432c.96,0,1.824.032,2.3.064.48.064.48.064.512.064a.9.9,0,0,0,.256-.032v-3.456a15.3,15.3,0,0,1-3.072.192H20.192a15.466,15.466,0,0,1-3.1-.192ZM52.9-24.1a19.6,19.6,0,0,1-2.272.1H49.472v-.192a13.845,13.845,0,0,1,.16-2.592H46.208a13.132,13.132,0,0,1,.192,2.592V-24H44.864a12.142,12.142,0,0,1-1.984-.128V-26.08a15.334,15.334,0,0,1-2.784.16H35.072a17.829,17.829,0,0,1-2.688-.16v3.392a12.612,12.612,0,0,1,1.408-.128V-4.992a9.243,9.243,0,0,1-1.76.256l.736,3.456a12.346,12.346,0,0,1,2.144-.64c1.12-.32,2.624-.8,4.032-1.248v2.4a31.424,31.424,0,0,1-.16,3.424h3.232a23.068,23.068,0,0,1-.16-3.392V-14.912H53.728a44.751,44.751,0,0,0,1.28,9.536A27.906,27.906,0,0,1,52.48-2.56v-8.224c0-1.632,0-2.112.064-2.848a19.778,19.778,0,0,1-2.08.1H45.376a14.214,14.214,0,0,1-2.016-.1c.064,1.056.1,1.44.1,2.848v8.672c0,1.056-.064,1.856-.128,2.784h2.88v-2.08h4.9A24.684,24.684,0,0,1,48.928.128a9.462,9.462,0,0,1,2.016,2.464A27.3,27.3,0,0,0,56.1-2.144c1.12,2.592,2.624,4.128,3.968,4.128A2.211,2.211,0,0,0,62.048.512a16.033,16.033,0,0,0,.928-4.672,11.485,11.485,0,0,1-2.528-1.728c-.1,2.528-.32,4.032-.544,4.032-.064,0-.192-.16-.48-.672a14.115,14.115,0,0,1-1.088-2.624,37.218,37.218,0,0,0,2.72-5.28c.256-.576.512-1.152.7-1.536L59.168-13.6a21.11,21.11,0,0,1-1.792,4.544c-.256-1.664-.448-3.36-.608-5.856h1.76a26.4,26.4,0,0,1,3.584.16v-3.36a20.007,20.007,0,0,1-3.584.192H56.672c-.032-.96-.064-3.616-.064-4.736a24.607,24.607,0,0,1,.16-4.064H53.44a19.855,19.855,0,0,1,.1,2.3c.032,4.256.032,4.256.1,6.5h-2.56a25.87,25.87,0,0,0,.8-3.424,8.712,8.712,0,0,1,1.024.064Zm-3.68,2.72a22.637,22.637,0,0,1-.7,3.456H47.168c-.16-1.376-.352-2.528-.544-3.456Zm-7.36,3.456v-4.9c.384.032.512.032.96.064v1.472c.48-.064.608-.064,1.088-.1.32,1.312.544,2.5.7,3.456Zm-5.12-4.9h2.208v3.744H36.736Zm0,6.592h2.208V-12.8H36.736Zm0,6.272h2.208v3.68c-.864.256-1.152.352-2.208.608Zm9.472-.928h3.584v2.048H46.208Zm-.032,4.544h3.616v2.272H46.176Zm11.04-17.888a16.812,16.812,0,0,1,2.368,5.056l2.528-1.472a25.668,25.668,0,0,0-2.56-4.832Zm23.456,6.5h-4.96a26.329,26.329,0,0,1-3.52-.192v3.648a28.423,28.423,0,0,1,3.52-.192h4.96v4.128H76.256a18.02,18.02,0,0,1-2.528-.128,24.46,24.46,0,0,1,.128,2.752V-.736c0,1.248-.064,2.464-.128,3.328h3.52V.992h10.72v1.6h3.616a31.486,31.486,0,0,1-.16-3.3v-6.88a23.965,23.965,0,0,1,.128-2.88,16.893,16.893,0,0,1-2.528.128H84.16v-4.128h5.6a26.193,26.193,0,0,1,3.552.192V-17.92a26.39,26.39,0,0,1-3.584.192H84.16v-4.224c2.272-.352,5.12-.928,6.688-1.344,1.024-.256,1.024-.256,1.568-.416l-2.336-3.2C87.1-25.44,79.808-24.224,72.864-24.1a9.761,9.761,0,0,1,1.216,3.168c2.752-.16,3.392-.224,6.592-.576ZM77.248-7.2h10.72v4.928H77.248ZM64.8-24.256a36.609,36.609,0,0,1,5.76,4.48l2.08-2.752a40.684,40.684,0,0,0-5.664-4.192Zm-1.024,8.224a33.5,33.5,0,0,1,5.984,4.064l1.92-2.912a37.766,37.766,0,0,0-5.952-3.744Zm5.184,6.24a34.783,34.783,0,0,1-3.9,8.032A7.133,7.133,0,0,1,63.9-.352l3.1,2.464a63.954,63.954,0,0,0,4.736-9.888Zm33.5-11.776h-3.9a19.285,19.285,0,0,1-2.976-.16v2.944a19.285,19.285,0,0,1,2.976-.16h3.9v1.376H99.712c-1.408,0-2.24-.032-3.136-.1.064.8.1,1.408.1,2.912v4.128c0,1.568-.032,2.24-.1,3.04.9-.064,1.664-.1,3.1-.1h2.784v1.408H99.2a18.986,18.986,0,0,1-3.008-.16v3.008a28.75,28.75,0,0,1,2.976-.128h3.3v1.76c-3.392.192-4,.224-5.44.224a14.19,14.19,0,0,1-1.664-.064l.576,3.424c.768-.128,1.248-.192,1.856-.256,5.856-.448,8.192-.7,12.576-1.344A9.492,9.492,0,0,1,112.9,2.72a20.8,20.8,0,0,0,2.56-4.192,9.438,9.438,0,0,1,.736,3.456c.48.032,2.048.1,2.56.1,2.4,0,3.424-.48,4-1.888.8-1.856,1.216-6.368,1.376-14.624.1-4.608.1-4.864.224-6.016a25.288,25.288,0,0,1-3.008.128H118.56c.1-5.536.1-5.536.256-6.4h-3.68a20.408,20.408,0,0,1,.192,4.064c0,.992,0,1.536-.032,2.336h-.48a13.981,13.981,0,0,1-2.272-.128v3.456a19.475,19.475,0,0,1,2.656-.128,47.548,47.548,0,0,1-.832,8.448,22.033,22.033,0,0,1-3.04,7.36V-2.688c-3.008.416-4.1.544-5.76.7V-3.552h3.584a9.309,9.309,0,0,1,2.24.16V-6.4a21.762,21.762,0,0,1-3.008.128h-2.816V-7.68h2.976c1.5,0,2.144,0,2.88.064-.032-.416-.064-1.376-.1-2.912v-4.32a25.617,25.617,0,0,1,.1-2.816,25.21,25.21,0,0,1-2.688.1h-3.168v-1.376h4a11,11,0,0,1,2.3.128v-2.912a16.908,16.908,0,0,1-2.976.16h-3.328V-23.36c1.6-.224,3.2-.48,4.384-.7.416-.1,1.472-.256,1.76-.288l-1.92-2.624c-2.176,1.024-7.68,1.7-13.952,1.728a10.57,10.57,0,0,1,1.12,2.56c2.4-.128,3.3-.192,5.5-.384Zm0,6.4v1.344H99.68v-1.344Zm3.1,0h2.784v1.344h-2.784Zm-3.1,3.68v1.408H99.68v-1.408Zm3.1,0h2.784v1.408h-2.784Zm15.36-5.632c-.032,1.056-.032,1.248-.064,2.24-.032,2.592-.032,2.592-.064,3.712a63.635,63.635,0,0,1-.448,6.624c-.384,2.976-.608,3.36-2.048,3.36a16.8,16.8,0,0,1-2.816-.32c1.952-4.288,2.688-8,3.008-15.616Zm23.008-3.392a6.994,6.994,0,0,1,3.232.96,7.928,7.928,0,0,1,3.936,7.1,8.959,8.959,0,0,1-4.448,8,17.006,17.006,0,0,1-6.368,1.76,10.208,10.208,0,0,1,1.952,3.744,20.921,20.921,0,0,0,5.024-1.344,12.328,12.328,0,0,0,7.776-11.936c0-7.2-4.992-11.872-12.672-11.872a14.365,14.365,0,0,0-11.008,4.48,13.746,13.746,0,0,0-3.52,9.312c0,5.152,2.624,8.864,6.272,8.864,2.624,0,4.672-1.888,6.5-6.016A46.294,46.294,0,0,0,143.936-20.512Zm-3.9.032a42.173,42.173,0,0,1-2.656,10.816c-1.152,2.752-2.24,4.1-3.3,4.1-1.408,0-2.528-2.08-2.528-4.7a10.714,10.714,0,0,1,4.352-8.64A8.146,8.146,0,0,1,140.032-20.48Zm30.432-5.856a18.884,18.884,0,0,1,.16,2.816c.032,4,.32,12.736.448,13.888a.718.718,0,0,0,.032.32,11.835,11.835,0,0,0-2.976-.32c-4.608,0-7.9,2.4-7.9,5.728a5.77,5.77,0,0,0,.8,2.848C162.208.768,164.48,1.7,167.744,1.7c4.768,0,7.3-1.888,7.3-5.472a7.452,7.452,0,0,0-.064-1.024c.352.224.608.352,1.024.576A20.148,20.148,0,0,1,180.224-1.6,12.616,12.616,0,0,1,182.5.512l2.5-3.616c-.384-.224-.544-.352-.96-.64a43.053,43.053,0,0,0-4.128-2.72,23.628,23.628,0,0,0-4.992-2.176c-.224-3.136-.288-4.576-.352-7.072a68.993,68.993,0,0,0,7.52-.576c1.44-.16,1.44-.16,2.08-.192l-.32-3.872a34.6,34.6,0,0,1-9.376,1.088c-.032-1.536-.032-1.632-.032-2.08a36.416,36.416,0,0,1,.224-4.96Zm.7,20.48c0,.032.032.928.032,1.5a2.249,2.249,0,0,1-.672,1.792,4.575,4.575,0,0,1-2.912.864,5.724,5.724,0,0,1-2.336-.48,1.748,1.748,0,0,1-1.088-1.664c0-1.408,1.6-2.368,4-2.368A10.385,10.385,0,0,1,171.168-5.856Zm36.672-20.7A15.863,15.863,0,0,1,205.5-23.9a71.722,71.722,0,0,1-7.392,6.24,19.623,19.623,0,0,0-2.816,2.3,3.739,3.739,0,0,0-1.056,2.592c0,1.472.576,2.336,2.688,3.968a101.5,101.5,0,0,1,8.256,6.816,30.911,30.911,0,0,1,4.16,4.384l3.3-3.328a7.978,7.978,0,0,1-.928-.8,107.561,107.561,0,0,0-10.08-8.352c-2.816-2.112-2.88-2.176-2.88-2.656,0-.352.224-.608,1.216-1.344,3.744-2.848,5.984-4.64,7.616-6.144a48.816,48.816,0,0,1,3.936-3.52Zm31.68,7.776a12,12,0,0,1-.64,2.432,9.061,9.061,0,0,0-1.216-.064,17.707,17.707,0,0,0-4.416.416c.032-.672.064-1.7.16-3.072a102.661,102.661,0,0,0,11.264-1.12c.672-.1.8-.1,1.248-.128L245.76-24a57.987,57.987,0,0,1-12.128,1.7,18.839,18.839,0,0,1,.576-3.936l-3.968-.192a1.8,1.8,0,0,1,.064.512c0,.608-.032,1.408-.064,1.824-.1,1.28-.1,1.28-.128,1.92h-.7a28.31,28.31,0,0,1-5.984-.48v3.584c.352-.032.64-.032.736-.032h.608c3.1.1,4.832.128,5.184.128-.064,1.536-.128,2.816-.128,3.84a13.225,13.225,0,0,0-4.384,2.88,10.053,10.053,0,0,0-3.168,7.168c0,3.328,2.016,5.6,4.992,5.6,2.656,0,5.5-1.568,8.384-4.608a28.242,28.242,0,0,0,5.568-8.512c2.272.768,3.584,2.4,3.584,4.416,0,2.208-1.184,3.776-3.744,4.992a13.267,13.267,0,0,1-6.112,1.28,10.308,10.308,0,0,1,1.7,3.616A17.824,17.824,0,0,0,243.168,0c3.616-1.792,5.5-4.512,5.5-8a7.139,7.139,0,0,0-3.04-6.048,8.616,8.616,0,0,0-3.328-1.568c.1-.288.128-.32.448-1.216a7.393,7.393,0,0,1,.384-.928Zm-9.632,7.3a35.1,35.1,0,0,0,.576,7.232A4.409,4.409,0,0,1,227.68-3.04c-1.12,0-1.824-.9-1.824-2.336a6.344,6.344,0,0,1,1.44-3.9A9.517,9.517,0,0,1,229.888-11.488ZM233.5-6.656a1.313,1.313,0,0,1-.032-.352,1.691,1.691,0,0,0-.032-.416,53.212,53.212,0,0,1-.224-5.5,11.756,11.756,0,0,1,3.84-.576,7.515,7.515,0,0,1,.832.032,24.346,24.346,0,0,1-3.968,6.4,2.954,2.954,0,0,0-.352.448Zm29.984-6.624a12.562,12.562,0,0,0,1.312-.832c.64-.416,2.944-2.144,3.52-2.624,1.088-.928,3.424-3.008,5.024-4.48a6.859,6.859,0,0,1,1.664-1.312l-1.984-2.816a4.715,4.715,0,0,1-1.984.416c-3.1.224-7.008.384-9.728.384a28.941,28.941,0,0,1-3.776-.192l.16,3.84a10.8,10.8,0,0,1,1.536-.16c5.792-.256,7.84-.384,9.056-.544l.032.032-.576.576a106.849,106.849,0,0,1-9.568,8.32,28.778,28.778,0,0,1-4.512,3.008l2.176,3.456a19.717,19.717,0,0,1,13.184-5.376c3.872,0,6.336,1.632,6.336,4.128,0,2.272-1.152,3.648-3.808,4.64A8.606,8.606,0,0,0,270.08-5.7a6.887,6.887,0,0,0-5.536-2.624c-3.2,0-5.5,1.92-5.5,4.576a4.567,4.567,0,0,0,1.92,3.68c1.28.96,3.52,1.472,6.208,1.472a15.832,15.832,0,0,0,7.744-1.824,7.82,7.82,0,0,0,4.352-7.072c0-4.384-3.52-7.2-8.992-7.2a15.62,15.62,0,0,0-6.72,1.472ZM268.1-1.888a8.661,8.661,0,0,1-1.664.128c-2.368,0-3.808-.736-3.808-2.016,0-.9.736-1.472,1.888-1.472C266.3-5.248,267.52-4.1,268.1-1.888Z" transform="translate(-15322 4733)" fill="#060000"/>
    <path id="パス_23966" data-name="パス 23966" d="M26.019-19.278a40.324,40.324,0,0,1,12.1-2.079c6.741,0,11.151,3.528,11.151,8.946,0,4.032-2.646,6.993-6.363,6.993A4.357,4.357,0,0,1,38.934-7.56c-.63-1.2-.882-2.9-.882-5.544a21.844,21.844,0,0,1,.126-2.772A26.577,26.577,0,0,1,31.185-13.1c0,3.843.252,5.922,1.071,8.064C33.894-.5,37.485,1.953,42.588,1.953a14,14,0,0,0,14.3-14.364c0-8.946-7.5-15.372-18.018-15.372a43.686,43.686,0,0,0-12.852,1.764v-8.19c2.394-.252,3.654-.441,5.733-.819,4.347-.756,5.544-.945,6.678-1.134l-.252-7.056a70.261,70.261,0,0,1-12.159,2.394v-4.032a38.679,38.679,0,0,1,.378-6.867H18.522a43.166,43.166,0,0,1,.378,7.245v4.158c-.693,0-1.008,0-2.52.063-.882.063-1.575.063-2.2.063a38.638,38.638,0,0,1-7.623-.567l.063,7.056a11.812,11.812,0,0,1,1.323-.063c.189,0,.756,0,1.575.063.756,0,2.52.063,3.465.063,1.575,0,2.457,0,3.4-.063,2.079-.126,2.079-.126,2.583-.126l.063,9.7a33.7,33.7,0,0,0-9.2,5.355C6.363-15.75,4.41-12.411,4.41-9.45A9.254,9.254,0,0,0,7.875-2.331,19.624,19.624,0,0,0,19.782,2.142c2.961,0,5.229-1.449,5.8-3.654a18.759,18.759,0,0,0,.5-5.355ZM18.963-7.812c0,2.079-.315,2.646-1.386,2.646a7.573,7.573,0,0,1-4.032-1.386c-1.449-.882-2.079-1.827-2.079-2.9,0-2.268,2.772-5.04,7.5-7.56ZM59.661-34.4A53.434,53.434,0,0,0,47.187-47.313l-5.922,3.969a53.8,53.8,0,0,1,12.6,13.608ZM90.909-8.253a22.583,22.583,0,0,1,4.6,4.221,43.771,43.771,0,0,0,8.316-9.009,76.618,76.618,0,0,1,6.048,7.686l4.473-5.229a101.121,101.121,0,0,0-7.056-7.749,72.269,72.269,0,0,0,3.969-9.009,20,20,0,0,1,1.008-2.457l-6.111-2.394a37.755,37.755,0,0,1-3.4,9.45c-2.016-1.89-3.276-2.9-6.678-5.733l-4.284,4.221A72.036,72.036,0,0,1,99.6-17.514a35.375,35.375,0,0,1-8.694,8.631V-23.877a40.589,40.589,0,0,1,.252-5.544H84.042a33.287,33.287,0,0,1,.315,5.859V-1.953c0,3.024-.126,5.292-.315,7.245h6.867V2.52h23.814V5.292h6.993a49.677,49.677,0,0,1-.378-6.993V-23.688a37.968,37.968,0,0,1,.315-5.859h-7.182a41.992,41.992,0,0,1,.252,5.733V-3.528H90.909Zm-21.42-13.86c1.512-5.229,2.142-9.7,2.268-17.325L66.78-40.509c-.063,6.993-.567,10.71-2.268,16.38ZM79.947,5.355a63.091,63.091,0,0,1-.378-7.623V-46.305a41.994,41.994,0,0,1,.378-6.678H72.513a41.831,41.831,0,0,1,.441,6.678V-2.583a58.268,58.268,0,0,1-.441,7.938ZM96.768-35.6A125.368,125.368,0,0,0,90.153-50.9l-5.859,2.772a81.265,81.265,0,0,1,6.489,15.246Zm16.947,4.725c3.4-5.292,5.292-9.2,9.2-18.585l-6.741-2.394c-2.646,8.442-4.221,11.718-8.5,18.207ZM87.759-32.13a65.967,65.967,0,0,0-3.843-9.576l-3.969,1.827a54.528,54.528,0,0,1,3.276,9.828Zm20.727-5.859c-2.772-8.442-3.591-10.584-5.8-14.931l-5.985,2.142a85.842,85.842,0,0,1,5.481,14.994ZM137.34-41.58a48.991,48.991,0,0,1,4.977-.378c6.174-.252,7.686-.315,10.9-.567-1.575,5.8-2.331,8.19-3.969,13.167-5.292.189-8.631,1.008-11.907,3.024a15.852,15.852,0,0,0-7.812,13.8c0,6.867,4.284,11.97,10.08,11.97,3.465,0,6.3-1.953,8.631-5.985,1.827-3.15,3.465-7.182,6.237-15.5A48.108,48.108,0,0,1,168.651-17.7a25.645,25.645,0,0,1-5.607,9.324c-2.583,2.709-5.04,4.347-9.765,6.615C155.736,0,156.366.63,159.012,3.906a36.505,36.505,0,0,0,9.513-7.119A29.751,29.751,0,0,0,175.392-14.3a64.333,64.333,0,0,1,8.694,5.859l2.835-8.316a22.244,22.244,0,0,1-2.9-1.512c-1.953-1.134-4.725-2.583-6.741-3.591a104.955,104.955,0,0,0,1.134-13.356,20.424,20.424,0,0,1,.378-4.221l-7.938-.315a18.907,18.907,0,0,1,.252,3.339,68.432,68.432,0,0,1-.63,11.655,51.341,51.341,0,0,0-13.923-3.969c.567-1.953,4.41-13.545,4.725-14.3a9.4,9.4,0,0,1,1.323-2.646l-4.977-4.284a4.776,4.776,0,0,1-2.52.756c-2.331.315-7.938.567-11.718.567a37.36,37.36,0,0,1-6.363-.315Zm9.954,18.837a82.176,82.176,0,0,1-4.1,10.521c-1.449,2.835-2.394,3.969-3.591,3.969-1.7,0-3.087-2.079-3.087-4.662a8.856,8.856,0,0,1,2.394-6.048C140.868-21.105,143.073-22.113,147.294-22.743Z" transform="translate(-15219 4801)" fill="#19cecd"/>
    <path id="パス_23967" data-name="パス 23967" d="M6.048-29.61a22.982,22.982,0,0,1,5.04-1.764c10.143-3.024,18.27-4.473,24.822-4.473a16.418,16.418,0,0,1,8.127,1.7,9.226,9.226,0,0,1,4.788,8.19,13.891,13.891,0,0,1-.693,4.473c-1.26,3.717-4.977,7.308-9.513,9.324C33.264-9.828,27.972-8.883,17.892-8.442A27.306,27.306,0,0,1,21.105-.315c11.529-1.26,16.443-2.394,22.176-5.229C52.227-9.891,57.267-17.136,57.267-25.7c0-10.71-8.127-17.7-20.6-17.7-7.308,0-10.71.5-25.074,3.591a45.034,45.034,0,0,1-7.371,1.26ZM91.9-32.05a10.928,10.928,0,0,1,5.05,1.5,12.387,12.387,0,0,1,6.15,11.1,14,14,0,0,1-6.95,12.5C93.8-5.6,90.8-4.8,86.2-4.2a15.95,15.95,0,0,1,3.05,5.85A32.689,32.689,0,0,0,97.1-.45c7.65-3.1,12.15-10,12.15-18.65,0-11.25-7.8-18.55-19.8-18.55-7.1,0-13,2.4-17.2,7a21.478,21.478,0,0,0-5.5,14.55c0,8.05,4.1,13.85,9.8,13.85,4.1,0,7.3-2.95,10.15-9.4A72.334,72.334,0,0,0,91.9-32.05ZM85.8-32a65.9,65.9,0,0,1-4.15,16.9c-1.8,4.3-3.5,6.4-5.15,6.4-2.2,0-3.95-3.25-3.95-7.35a16.74,16.74,0,0,1,6.8-13.5A12.728,12.728,0,0,1,85.8-32Z" transform="translate(-15331 4801)" fill="#19cecd"/>
    <path id="パス_23968" data-name="パス 23968" d="M73.055-77.836,53.93-75.727q-.7-5.906-3.656-8.719a10.656,10.656,0,0,0-7.664-2.812q-6.258,0-10.582,5.625T26.578-58.219A23.1,23.1,0,0,1,44.93-66.937a28.023,28.023,0,0,1,21.2,9.422q8.824,9.422,8.824,24.328,0,15.82-9.281,25.383T41.836,1.758A31.869,31.869,0,0,1,16.172-10.371Q6.117-22.5,6.117-50.133q0-28.336,10.477-40.852T43.8-103.5q11.742,0,19.441,6.574T73.055-77.836Zm-44.789,43.1q0,9.633,4.43,14.871T42.82-14.625a11.522,11.522,0,0,0,9.141-4.289q3.656-4.289,3.656-14.062,0-10.055-3.937-14.73a12.349,12.349,0,0,0-9.844-4.676A12.363,12.363,0,0,0,32.2-47.918Q28.266-43.453,28.266-34.734Z" transform="translate(-15410 4805)" fill="#19cecd"/>
  </g>
</svg>
