<svg xmlns="http://www.w3.org/2000/svg" xmlns:xlink="http://www.w3.org/1999/xlink" width="86" height="82" viewBox="0 0 86 82">
  <defs>
    <clipPath id="clip-path">
      <rect id="長方形_688" data-name="長方形 688" width="86" height="82" transform="translate(14 21)" fill="#fff" stroke="#707070" stroke-width="1"/>
    </clipPath>
    <clipPath id="clip-path-2">
      <rect id="長方形_687" data-name="長方形 687" width="151" height="85" transform="translate(461 2898.88)" fill="#fff" stroke="#707070" stroke-width="1"/>
    </clipPath>
    <clipPath id="clip-path-3">
      <rect id="長方形_414" data-name="長方形 414" width="156.377" height="80.401" fill="none"/>
    </clipPath>
  </defs>
  <g id="worries-item04_illust_sp" transform="translate(-14 -21)" clip-path="url(#clip-path)">
    <g id="マスクグループ_211" data-name="マスクグループ 211" transform="translate(-502 -2869.88)" clip-path="url(#clip-path-2)">
      <g id="グループ_2628" data-name="グループ 2628" transform="translate(453.163 2898.88)" clip-path="url(#clip-path-3)">
        <path id="パス_22088" data-name="パス 22088" d="M980.454,116.611s-1.566,1.62-1.62,2.969a12.135,12.135,0,0,1-.7,3.077l-1.836,1.458,1.4,1.89.918,7.073,3.833,2.052,2.43,6.1,5.561-.7-3.672-21.434Z" transform="translate(-857.416 -102.412)" fill="#fff"/>
        <path id="パス_22089" data-name="パス 22089" d="M714.144,199.553s5.668-.333,6.43,1.286,3.334,7.335,3.334,7.335,4.1,10,4.191,10.955.762,4.954-3.715,5.906c0,0-2.572-5.62-4-5.335l1.524-1.429-3.334-8Z" transform="translate(-627.185 -175.229)" fill="#fff"/>
        <path id="パス_22090" data-name="パス 22090" d="M119.3,409.154,36.8,420.971,1.907,397.336l106.691-8.7,10.05,5.559Z" transform="translate(-1.675 -341.317)" fill="#fff"/>
        <path id="パス_22091" data-name="パス 22091" d="M603.884,55.537a17.038,17.038,0,0,0,5.839,4.007c3,.976,4.252-.139,4.531-.976a15.537,15.537,0,0,0,.144-3.419l-.171-.21.162-.3.771-.807s3-1.115,3.206-5.646a25.038,25.038,0,0,0-.209-6.2s-.625-4-3.97-4.836a9.806,9.806,0,0,0-5.44-.043s-5.995,4.81-5.158,8.713a32.038,32.038,0,0,0,2.44,7.04l-.349,1.952Z" transform="translate(-530.022 -32.283)" fill="#fff"/>
        <path id="パス_22092" data-name="パス 22092" d="M239.012,48l.15-3.682s2.855-.15,3.531-2.029.676-9.467.676-9.467l-.751-3.381s-2.113-1.166-3.8-2.123-11.453,6.556-11.453,6.556l2.845,7.929-.591,4.243,6.987,2.179v4.433Z" transform="translate(-199.68 -23.919)" fill="#fff"/>
        <path id="パス_22093" data-name="パス 22093" d="M236.793,10.681a3.877,3.877,0,0,0-2.98-2.069l-.745-.993a19.508,19.508,0,0,1-3.642,4.47,6.427,6.427,0,0,1-3.145,1.49l.165,2.814s-1.407-1.076-1.738-.662a4.436,4.436,0,0,0-.579,2.731c.248.579,1.49,1.324,1.49,1.324l-.414,2.649-.745-.331-3.642-9.85s2.814-5.546,4.718-6.622,4.718-.911,6.539-.579,2.731.579,2.98,1.159a8.97,8.97,0,0,1,.414,1.655l1.738.414Z" transform="translate(-193.93 -4.218)" fill="#f49902"/>
        <path id="パス_22094" data-name="パス 22094" d="M522.248,188.174l-7.282,2.112s-2.37.345-3.62,3.749-.646,10.772-.646,10.772l1.034,11.074,29.775-2.456s-.259-23.225-.776-23.57-7.972-2.068-7.972-2.068.69,4.137-2.2,4.568-8.316-4.18-8.316-4.18" transform="translate(-448.386 -164.92)" fill="#fff"/>
        <path id="パス_22095" data-name="パス 22095" d="M627.822,215.7l1.4.432.54,3.239,2-.594,1.026-3.293,1.512,1.89s2.753,3.185,2,5.507l.594-.432.972,16.359s-.648-1.62-4.211-1.188L629.5,237.3l-4.7-1.188-.108-11.986,1.35-3.725s2.592-2.484,1.782-4.7" transform="translate(-548.624 -189.247)" fill="#c8e3fa"/>
        <path id="パス_22096" data-name="パス 22096" d="M136.818,180.569l-.225,2.029-2.179,3.381-.225-3.156-7.814-2.329-1.878,2.179-13.749,5.785.15,24.494a8.267,8.267,0,0,0,1.2,2.179c.6.6,12.547,4.809,12.547,4.809s-.225-3.456.451-4.508,2.1-3.005,2.1-3.005l3.606-3.08,3.005-.15,14.426-.9a6.875,6.875,0,0,1,2.329.376,23.843,23.843,0,0,1,2.93,1.127l-2.479-23.742-11.646-3.231Z" transform="translate(-97.262 -158.516)" fill="#c8e3fa"/>
        <path id="パス_22097" data-name="パス 22097" d="M284.815,304.952l-6.236,24.193,16.6-1.352,6.461-23.893Z" transform="translate(-244.657 -266.895)" fill="#fff"/>
        <path id="パス_22098" data-name="パス 22098" d="M225.851,420.55s2.555-3.381,3.907-3.606,5.184.15,5.635.526a4.207,4.207,0,0,1,.826,1.127l-1.052.676-1.052,3.005s.075,2.63-.9,3.005a15.564,15.564,0,0,1-2.78.6s-1.8,2.479-3.907,2.4a5.161,5.161,0,0,1-2.93-.751s-1.127-4.809,2.254-6.987" transform="translate(-196.212 -366.114)" fill="#fff"/>
        <path id="パス_22099" data-name="パス 22099" d="M405.689,409.3s-3.606-1.352-5.334-.977a5.727,5.727,0,0,0-2.479,1.052l.451,2.329s-.9,4.132-.3,5.335.376,1.127,1.578,1.352,3.306-.075,3.982-.826,2.329-8.039,2.1-8.265" transform="translate(-349.378 -358.542)" fill="#fff"/>
        <path id="パス_22100" data-name="パス 22100" d="M70.192,338.193l-1.449-14.047s.334-2.007,1.784-2.118,3.233-.223,3.233-.223l.446,14.493.334,1.561Z" transform="translate(-60.372 -282.62)" fill="#fff"/>
        <path id="パス_22101" data-name="パス 22101" d="M482.527,308.9l-1.784-13.6s.446-1.449,1.226-1.784a5.589,5.589,0,0,1,2.118-.223l1.465,15.232Z" transform="translate(-422.204 -257.565)" fill="#fff"/>
        <path id="パス_22102" data-name="パス 22102" d="M765.37,385.173l-.388.032-1.057.086-1.563.127-1.907.155-2.089.169-2.108.171-1.959.159-1.661.135-1.191.1-.567.046-.024,0a.582.582,0,0,0-.385.159.544.544,0,0,0,0,.77.535.535,0,0,0,.385.159l.388-.032,1.057-.086,1.563-.127,1.907-.155,2.089-.17,2.108-.171,1.959-.159,1.661-.135,1.191-.1.567-.046.024,0a.582.582,0,0,0,.385-.159.544.544,0,0,0,0-.769.535.535,0,0,0-.385-.159" transform="translate(-658.949 -338.27)" fill="#060000"/>
        <path id="パス_22103" data-name="パス 22103" d="M310.153,46.952l.267,1.1.426,1.758.1.406-.019-.145q0,.316-.011.632-.015.788-.035,1.577-.026,1.03-.063,2.06c-.025.7-.055,1.393-.1,2.089-.032.547-.066,1.094-.131,1.638q-.009.075-.019.149l.019-.145a4.346,4.346,0,0,1-.294,1.112l.055-.13a3.522,3.522,0,0,1-.445.766l.085-.11a2.759,2.759,0,0,1-.48.489l.11-.085a1.14,1.14,0,0,1-.108.077l.13-.055c-.489.116-.988.2-1.486.263l.145-.019a14.233,14.233,0,0,1-2.571.133.548.548,0,0,0-.544.544.556.556,0,0,0,.544.544,15.759,15.759,0,0,0,3.527-.279c.223-.04.45-.077.67-.135a.555.555,0,0,0,.2-.1,3.294,3.294,0,0,0,.317-.257,4.062,4.062,0,0,0,1.172-2.293c.094-.575.135-1.159.172-1.74.048-.749.082-1.5.11-2.247s.052-1.512.071-2.269q.022-.843.037-1.687a2.827,2.827,0,0,0-.022-.712l-.366-1.51-.391-1.614-.023-.094a.549.549,0,0,0-.669-.38.556.556,0,0,0-.38.669" transform="translate(-268.024 -40.628)" fill="#060000"/>
        <path id="パス_22104" data-name="パス 22104" d="M318.208,79.471l.1.345.236.825.286,1,.247.863c.04.141.078.282.121.422l0,.006.38-.669-.865.259-.125.037a.569.569,0,0,0-.325.25.544.544,0,0,0,.615.8l.865-.259.125-.038a.553.553,0,0,0,.38-.669l-.1-.345-.236-.825-.286-1-.247-.863c-.04-.141-.079-.282-.121-.422l0-.006a.566.566,0,0,0-.25-.325.544.544,0,0,0-.744.2.562.562,0,0,0-.055.419" transform="translate(-279.443 -69.189)" fill="#060000"/>
        <path id="パス_22105" data-name="パス 22105" d="M341.775,88a.561.561,0,0,0,.385-.159.544.544,0,0,0,0-.769.544.544,0,0,0-.77,0,.544.544,0,0,0,0,.769.565.565,0,0,0,.385.159" transform="translate(-299.68 -76.332)" fill="#060000"/>
        <path id="パス_22106" data-name="パス 22106" d="M295.564,92.783a.561.561,0,0,0,.385-.159.544.544,0,0,0,0-.769.544.544,0,0,0-.77,0,.544.544,0,0,0,0,.769.566.566,0,0,0,.385.159" transform="translate(-259.096 -80.53)" fill="#060000"/>
        <path id="パス_22107" data-name="パス 22107" d="M278.49,73.539l.021-.017-.11.085a2.923,2.923,0,0,1,.645-.366l-.13.055a3.224,3.224,0,0,1,.816-.224l-.145.019a3.009,3.009,0,0,1,.781,0l-.145-.019a3.129,3.129,0,0,1,.507.113.544.544,0,0,0,.669-.38.551.551,0,0,0-.055-.419.583.583,0,0,0-.325-.25,3.579,3.579,0,0,0-1.908-.05,3.994,3.994,0,0,0-.718.262,3.174,3.174,0,0,0-.4.22,2.936,2.936,0,0,0-.274.2.546.546,0,0,0-.159.385.554.554,0,0,0,.159.385.547.547,0,0,0,.385.159l.145-.019a.544.544,0,0,0,.24-.14" transform="translate(-243.763 -63.215)" fill="#060000"/>
        <path id="パス_22108" data-name="パス 22108" d="M331.879,69.094a3.521,3.521,0,0,1,.865-.223l-.145.019a2.766,2.766,0,0,1,.729-.008l-.145-.019a1.833,1.833,0,0,1,.458.122l-.13-.055.025.011a.406.406,0,0,0,.2.065.411.411,0,0,0,.217-.01.544.544,0,0,0,.38-.669.527.527,0,0,0-.25-.325,2.566,2.566,0,0,0-.387-.144,3.037,3.037,0,0,0-.41-.068,2.651,2.651,0,0,0-.552,0,4.428,4.428,0,0,0-.986.2c-.054.018-.108.037-.161.058a.609.609,0,0,0-.325.25.544.544,0,0,0,.2.744l.13.055a.548.548,0,0,0,.289,0" transform="translate(-290.862 -59.52)" fill="#060000"/>
        <path id="パス_22109" data-name="パス 22109" d="M268.447,23.016l-.51-1.02-.072-.144a.545.545,0,0,0-.744-.2.546.546,0,0,0-.2.2q-.153.2-.307.4l-.183.238.085-.11q-.315.408-.634.813-.382.485-.771.965t-.807.974c-.245.289-.494.575-.752.852a6.789,6.789,0,0,1-.6.588q-.056.047-.114.092l.11-.085a6.482,6.482,0,0,1-1.215.717q-.171.08-.344.153l.13-.055a10.766,10.766,0,0,1-1.091.4l-.072.021a.563.563,0,0,0-.325.25.544.544,0,0,0,.2.744.565.565,0,0,0,.419.055c.18-.05.357-.11.533-.172a11.618,11.618,0,0,0,1.308-.55,6.127,6.127,0,0,0,1.261-.816,6.978,6.978,0,0,0,.551-.543c.234-.251.461-.509.684-.77q.375-.438.739-.885t.725-.9q.318-.4.632-.806.274-.352.545-.706c.076-.1.151-.2.226-.3l.01-.013h-.94l.51,1.02.072.144a.544.544,0,0,0,.994-.13l.019-.145a.541.541,0,0,0-.074-.275" transform="translate(-228.308 -18.954)" fill="#060000"/>
        <path id="パス_22110" data-name="パス 22110" d="M245.015,90.011a4.928,4.928,0,0,0-.394-.317,3.387,3.387,0,0,0-.764-.429,1.638,1.638,0,0,0-.487-.108,1.238,1.238,0,0,0-.3.023,1,1,0,0,0-.278.1.493.493,0,0,0-.064.039,1.291,1.291,0,0,0-.17.136,1.335,1.335,0,0,0-.188.245,2.58,2.58,0,0,0-.217.474,4.807,4.807,0,0,0-.226,1.051,5.074,5.074,0,0,0-.037.932,2.085,2.085,0,0,0,.2.9,1.115,1.115,0,0,0,.26.3,4.2,4.2,0,0,0,.411.3,10.966,10.966,0,0,0,1.272.69l.026.012a.4.4,0,0,0,.2.065.411.411,0,0,0,.217-.01.544.544,0,0,0,.38-.669.533.533,0,0,0-.25-.325,11.923,11.923,0,0,1-1.148-.608,4.252,4.252,0,0,1-.39-.262l.11.085a1.131,1.131,0,0,1-.2-.192l.085.11a.468.468,0,0,1-.056-.1l.055.13a1.363,1.363,0,0,1-.082-.339l.019.145a4.59,4.59,0,0,1,.021-1.206l-.019.145a3.861,3.861,0,0,1,.243-.97l-.055.13a1.434,1.434,0,0,1,.178-.321l-.085.11a.543.543,0,0,1,.092-.092l-.11.085a.491.491,0,0,1,.1-.06l-.13.055a.54.54,0,0,1,.128-.034l-.145.019a.729.729,0,0,1,.186,0l-.145-.019a1.306,1.306,0,0,1,.327.095l-.13-.055a3.087,3.087,0,0,1,.668.408l-.11-.085c.077.06.154.122.226.188a.57.57,0,0,0,.385.159.554.554,0,0,0,.385-.159.544.544,0,0,0,0-.769" transform="translate(-212.431 -78.298)" fill="#060000"/>
        <path id="パス_22111" data-name="パス 22111" d="M234.06,6.665l.255-2.378.036-.338a.5.5,0,0,0-.117-.33.607.607,0,0,0-.283-.2L232.3,2.745l.4.525a2.562,2.562,0,0,0-.047-.579,2.314,2.314,0,0,0-.479-1.064,3.366,3.366,0,0,0-1.841-.905A20.042,20.042,0,0,0,227.974.2a13.082,13.082,0,0,0-2.949-.173,6.436,6.436,0,0,0-2.766.755,7.919,7.919,0,0,0-1.875,1.589,21.541,21.541,0,0,0-2.74,3.942c-.2.354-.391.712-.571,1.075a.671.671,0,0,0-.085.5c.019.064.043.127.064.191l.831,2.474,1.245,3.708,1.011,3.009c.069.205.131.415.207.617.03.079-.015-.107-.013-.121-.006.033-.006.068-.009.1l-.048.555q-.151,1.74-.3,3.479l-.023.259a.546.546,0,0,0,.544.544.558.558,0,0,0,.544-.544l.1-1.131.183-2.108.071-.821c.01-.111.029-.226.029-.337a.818.818,0,0,0-.062-.271l-.126-.374-.451-1.341-.626-1.863-.7-2.076-.655-1.949L218.3,8.377c-.085-.252-.165-.506-.254-.756l-.011-.034-.055.419c.325-.676.7-1.331,1.087-1.972.368-.609.759-1.2,1.18-1.778q.083-.113.167-.224l.081-.106c-.116.154,0,0,.03-.037q.173-.22.354-.433c.242-.285.495-.561.763-.822q.189-.184.388-.356.093-.08.188-.156c.035-.028.158-.121,0,0l.114-.085a4.732,4.732,0,0,1,.865-.51l.05-.022c-.154.075-.065.027-.028.012l.129-.05q.144-.054.291-.1c.19-.058.383-.106.579-.145q.149-.03.3-.053c.027,0,.193-.028.086-.013s0,0,.015,0l.1-.012c.211-.023.422-.037.634-.045a11.4,11.4,0,0,1,1.254.028q.325.024.649.063l.145.018-.058-.008.086.012.313.047a20.009,20.009,0,0,1,2.122.464q.382.1.76.223l.28.09.07.024.053.02c.1.036-.122-.059-.03-.012s.16.094.24.143c-.153-.094-.039-.03,0,.005s.056.053.082.081.049.057.073.085c-.13-.146-.026-.032,0,.014a1.617,1.617,0,0,1,.106.193c.06.128-.045-.126,0-.009.012.034.024.067.035.1q.029.092.05.186c.014.066.039.291.014.049.009.086.017.171.019.257,0,.033,0,.066,0,.1a.511.511,0,0,0,.117.33.608.608,0,0,0,.283.2l1.649.679-.4-.525-.255,2.378-.036.338a.544.544,0,0,0,.159.385.553.553,0,0,0,.385.159.56.56,0,0,0,.544-.544" transform="translate(-190.548 0)" fill="#060000"/>
        <path id="パス_22112" data-name="パス 22112" d="M317.928,165.515l-.064.612-.1.978c-.013.122-.025.242-.031.363q-.025.467-.049.934c-.013.245-.029.489-.039.734v.012a.544.544,0,0,0,.929.385.591.591,0,0,0,.159-.385l.033-.619.052-.98c.006-.122.014-.241.027-.362l.1-.934c.025-.242.055-.484.076-.726v-.012a.606.606,0,0,0-.159-.385.544.544,0,0,0-.769,0l-.085.11a.542.542,0,0,0-.074.275" transform="translate(-278.963 -144.883)" fill="#060000"/>
        <path id="パス_22113" data-name="パス 22113" d="M130.766,181.668q-.048-1.386-.1-2.773a.561.561,0,0,0-.4-.525l-2.591-.81-4.109-1.284-.949-.3a.531.531,0,0,0-.529.14l-1.912,2.391.24-.14q-1.967.7-3.923,1.436c-2.348.875-4.694,1.762-7,2.739a22.482,22.482,0,0,0-2.293,1.065,2.267,2.267,0,0,0-.579.415.946.946,0,0,0-.222.528,15.237,15.237,0,0,0-.117,1.691c-.029.888-.04,1.776-.047,2.665-.019,2.383,0,4.767.02,7.15q.034,3.626.1,7.251.037,2.262.081,4.524a3.721,3.721,0,0,0,.1.88,4.566,4.566,0,0,0,2.239,3.137c.8.377,1.618.711,2.432,1.053q1.771.743,3.549,1.468,2.949,1.207,5.9,2.4l.336.135a.548.548,0,0,0,.669-.38.557.557,0,0,0-.38-.669q-2.412-.969-4.82-1.951-1.934-.788-3.864-1.586l-.888-.37-.4-.167-.093-.039-.216-.091c-.426-.18-.851-.362-1.273-.55-.142-.063-.283-.127-.424-.193-.06-.028-.119-.056-.177-.087a2.4,2.4,0,0,1-.21-.124q-.06-.04-.118-.084c.093.07-.06-.053-.075-.067q-.107-.1-.2-.2-.048-.052-.094-.107c-.009-.011-.107-.134-.033-.038a4.126,4.126,0,0,1-.327-.506c-.085-.154-.161-.312-.23-.473.055.128,0,0-.008-.023s-.029-.074-.043-.111q-.046-.122-.086-.247a5.91,5.91,0,0,1-.171-.632c-.007-.032-.009-.068-.019-.1.076.244.015.182.019.129.007-.106,0-.216-.007-.322q-.047-2.351-.085-4.7-.062-3.838-.1-7.677c-.021-2.439-.037-4.879-.008-7.319.01-.847.023-1.695.063-2.541.012-.262.027-.524.053-.785,0-.046.011-.092.015-.138.009-.093-.029.179-.01.075,0-.021.006-.041.01-.062a1.009,1.009,0,0,0,.038-.155c0,.113-.076.161-.042.1s-.118.114-.057.073a.6.6,0,0,0,.086-.079c.018-.02-.146.1-.046.037l.065-.044c.055-.037.112-.071.169-.1.31-.181.636-.336.961-.488.465-.217.935-.42,1.407-.62l.094-.039.2-.082.438-.181q.441-.181.884-.358c2.336-.934,4.693-1.816,7.055-2.681q.94-.344,1.882-.683l.113-.04a.749.749,0,0,0,.368-.3l1.077-1.347.711-.889-.529.14,2.591.81,4.109,1.284.949.3-.4-.525q.048,1.386.1,2.773a.544.544,0,0,0,1.088,0" transform="translate(-93.293 -154.533)" fill="#060000"/>
        <path id="パス_22114" data-name="パス 22114" d="M319.405,174.555l.832.864,1.328,1.379c.106.11.209.224.318.33a.684.684,0,0,0,.32.168l.729.2,1.362.375q.885.245,1.768.495,1,.282,1.991.572t1.978.589c.6.182,1.192.368,1.784.564.456.151.91.305,1.357.48q.124.049.247.1l-.13-.055a2.259,2.259,0,0,1,.5.255l-.11-.085a.293.293,0,0,1,.051.048l-.085-.11a.105.105,0,0,1,.014.023l-.055-.13a.547.547,0,0,1,.02.121c.011.078.022.156.032.235l-.019-.145c.068.507.132,1.014.2,1.521q.139,1.093.276,2.185.144,1.145.286,2.29.116.93.231,1.86.054.435.108.871v.012a.6.6,0,0,0,.159.385.544.544,0,0,0,.77,0,.523.523,0,0,0,.159-.385l-.151-1.216q-.172-1.385-.345-2.771-.188-1.506-.378-3.011c-.088-.692-.173-1.385-.27-2.076-.008-.054-.013-.109-.025-.163a.728.728,0,0,0-.324-.406,2.451,2.451,0,0,0-.471-.241c-.676-.288-1.374-.521-2.073-.747-.914-.3-1.834-.575-2.755-.847q-1.45-.429-2.906-.838-1.2-.338-2.4-.667-.624-.171-1.25-.34l-.057-.015.24.14-.842-.875-1.336-1.388-.308-.319a.544.544,0,1,0-.769.769" transform="translate(-280.376 -152.487)" fill="#060000"/>
        <path id="パス_22115" data-name="パス 22115" d="M194.588,301.241q.661-.638,1.339-1.257c.375-.344.754-.685,1.141-1.016.172-.148.347-.293.524-.435l.115-.09s-.118.09-.055.042l.027-.021.062-.046c.066-.049.133-.1.2-.144s.11-.074.169-.1l.032-.017c.069-.04-.077.041-.083.034s.08-.028.088-.03a1.824,1.824,0,0,1,.2-.048l.113-.018c-.03.005-.155.018-.064.009l.074-.008a8.773,8.773,0,0,1,1.322-.007c.255.014.509.034.763.06q.2.02.405.045l.187.023.047.006-.067-.009.108.015c.475.068.95.151,1.416.265.189.046.378.1.562.161l.11.04.051.02c.09.035-.075-.034-.058-.025.055.03.113.052.167.084.021.013.041.029.062.041.047.026-.106-.1-.076-.058a1.482,1.482,0,0,0,.115.108c.03.031.056.064.086.095.045.047-.026-.029-.022-.03a.59.59,0,0,1,.034.048,2.3,2.3,0,0,1,.12.208c.045.085-.035-.105,0,.01.01.03.021.06.03.09.018.06.032.121.044.182.018.091,0,.005,0-.045,0,.022.005.045.007.067,0,.04,0,.079,0,.119a.865.865,0,0,1,0,.1l.269-.47-.835.379a.712.712,0,0,0-.467.424c-.029.072-.058.145-.087.217q-.221.555-.44,1.11a8.934,8.934,0,0,0-.335.877,4.531,4.531,0,0,0-.081.894c-.013.209-.029.418-.049.627-.011.113-.025.226-.038.339-.009.075.021-.149.005-.041,0,.03-.009.06-.013.089q-.014.089-.029.178a4.857,4.857,0,0,1-.155.646c-.016.051-.035.1-.053.152s-.062.116.016-.034c-.01.019-.017.039-.026.058a2.186,2.186,0,0,1-.134.239c-.03.048-.076.06.033-.039-.015.014-.028.034-.042.049s-.058.051-.081.079c-.039.047.126-.085.055-.042-.019.011-.037.024-.055.036-.041.026-.084.049-.127.071s-.217.086-.037.021c-.048.017-.1.038-.143.055-.108.038-.217.072-.328.1a8.008,8.008,0,0,1-.815.172l-.221.034-.062.009c-.1.014.143-.018-.009,0q-.188.024-.377.043c-.272.028-.545.051-.819.062a.566.566,0,0,0-.525.4l-.01.028-.012.031c-.031.082.071-.162.034-.08s-.086.186-.134.277q-.106.2-.231.386c-.051.077-.105.151-.16.226s.073-.091.032-.042l-.044.055q-.049.06-.1.118a4.26,4.26,0,0,1-.469.463c-.042.036-.209.154-.038.034-.05.035-.1.073-.149.108q-.152.105-.314.2c-.117.065-.243.112-.359.177,0,0,.139-.056.063-.027l-.046.018-.093.035q-.1.036-.2.067a3.955,3.955,0,0,1-.424.1l-.108.018c-.138.021.1-.01.006,0s-.172.018-.259.023a4.758,4.758,0,0,1-.569,0c-.1-.006-.208-.017-.312-.028-.038,0-.09-.025.043.006-.028-.007-.057-.008-.085-.013l-.156-.026a7.6,7.6,0,0,1-1.449-.427l.325.25a1.441,1.441,0,0,1-.074-.138c-.012-.024-.023-.049-.034-.073l-.018-.039c-.033-.072.063.156.026.061-.031-.079-.061-.157-.088-.237a4.894,4.894,0,0,1-.172-.679q-.017-.093-.031-.186c-.02-.138.01.085,0,0,0-.039-.009-.078-.013-.117q-.026-.254-.031-.509-.006-.278.01-.555.008-.145.022-.29.008-.08.017-.16l.007-.061c.013-.1-.019-.029,0,0a.625.625,0,0,1,.026-.169q.012-.076.026-.151.032-.179.072-.357c.055-.248.121-.493.195-.735.039-.129.08-.257.125-.384l.018-.05.006-.017q.026-.066,0,0l-.014.032.022-.049.038-.081a3.942,3.942,0,0,1,.285-.49c.052-.077.106-.151.161-.225s-.061.076.017-.021q.052-.064.105-.127c.119-.141.244-.276.374-.407a9.046,9.046,0,0,1,.769-.693l.077-.061c.079-.062.016-.011-.033.025l.112-.084.1-.07a.553.553,0,0,0,.26-.542.563.563,0,0,0-.39-.452l-2.27-.941-3.592-1.488-.831-.344.4.525q0-.816.01-1.632.011-1.952.023-3.9.014-2.36.028-4.721.012-2.045.024-4.09c0-.658.022-1.318.012-1.976,0-.009,0-.019,0-.028a.544.544,0,1,0-1.088,0q0,.816-.01,1.632-.011,1.952-.023,3.9l-.028,4.721q-.012,2.045-.024,4.09c0,.657-.028,1.318-.012,1.976,0,.009,0,.019,0,.028a.565.565,0,0,0,.4.525l2.27.941,3.592,1.488.831.344-.13-.994a8.884,8.884,0,0,0-1.122.934,5.513,5.513,0,0,0-1.466,2.2,7.7,7.7,0,0,0-.191,4.8,4.473,4.473,0,0,0,.223.54.736.736,0,0,0,.432.388,6.851,6.851,0,0,0,2.522.519,4.536,4.536,0,0,0,3.243-1.351,4.756,4.756,0,0,0,1.069-1.642l.01-.026-.525.4a14.671,14.671,0,0,0,1.809-.193,2.963,2.963,0,0,0,2.208-1.078,5.617,5.617,0,0,0,.554-2.424c.022-.295.032-.591.059-.885,0-.022,0-.044.007-.066.006-.07-.037.178-.011.087.008-.028.014-.056.023-.083.038-.109.081-.216.122-.324.237-.615.481-1.227.726-1.839l-.25.325c.34-.155.7-.293,1.026-.467a.677.677,0,0,0,.294-.712,2.178,2.178,0,0,0-.361-1.068,1.859,1.859,0,0,0-.666-.625,4.023,4.023,0,0,0-.634-.243,11.684,11.684,0,0,0-1.572-.333,12.412,12.412,0,0,0-3.546-.168,2.117,2.117,0,0,0-1.006.439c-.459.341-.894.714-1.322,1.093-.684.605-1.365,1.222-2.015,1.864l-.036.035a.544.544,0,0,0,.769.769" transform="translate(-164.446 -246.949)" fill="#060000"/>
        <path id="パス_22116" data-name="パス 22116" d="M298.3,313.919l.342-1.226.822-2.944.994-3.563.86-3.081c.139-.5.292-1,.418-1.5l.006-.021-.525.4.452-.023,1.223-.062,1.807-.092,2.214-.113,2.426-.124,2.438-.125,2.274-.116,1.93-.1,1.382-.071c.218-.011.438-.018.656-.034h.029l-.525-.689-.382,1.261-.911,3.008-1.108,3.656-.952,3.143c-.155.511-.321,1.02-.465,1.534l-.006.021a.55.55,0,0,0,.38.669.555.555,0,0,0,.669-.38l.382-1.261.911-3.007,1.108-3.656.953-3.143c.155-.511.321-1.019.465-1.534l.006-.021a.548.548,0,0,0-.525-.689l-.452.023-1.223.063-1.807.092-2.214.113-2.426.124-2.438.125-2.274.116-1.929.1-1.382.071c-.219.011-.438.02-.656.034h-.029a.56.56,0,0,0-.525.4l-.342,1.226-.822,2.944-.994,3.563-.86,3.081c-.139.5-.288,1-.419,1.5l-.006.021a.544.544,0,0,0,1.049.289" transform="translate(-261.044 -263.5)" fill="#060000"/>
        <path id="パス_22117" data-name="パス 22117" d="M399.628,413.585c.063-.2.123-.4.183-.6q.219-.735.415-1.475c.167-.628.321-1.259.455-1.894a18.108,18.108,0,0,0,.321-2,6.372,6.372,0,0,0,.033-.767,2.916,2.916,0,0,0-.1-.732,1.188,1.188,0,0,0-.346-.589.943.943,0,0,0-.183-.129c-.108-.051-.223-.094-.334-.138q-.26-.1-.525-.194a12.4,12.4,0,0,0-2.841-.65,5.6,5.6,0,0,0-1.445.037,2.63,2.63,0,0,0-.565.152,5.79,5.79,0,0,0-.854.419,3.01,3.01,0,0,0-.925.828,1.429,1.429,0,0,0-.159.318.636.636,0,0,0-.019.35c.094.491.2.98.295,1.47l.031.156v-.289c-.035.187-.068.375-.1.562q-.113.662-.21,1.326c-.08.557-.155,1.116-.2,1.676a7.281,7.281,0,0,0-.028,1.286,10.934,10.934,0,0,0,.162,1.2,3.6,3.6,0,0,0,.318.948,1.812,1.812,0,0,0,.276.39,1.177,1.177,0,0,0,.35.266,2.016,2.016,0,0,0,.44.148,6.822,6.822,0,0,0,2.514.06,4.7,4.7,0,0,0,1.466-.486,3.733,3.733,0,0,0,1.309-1.177,3.3,3.3,0,0,0,.21-.347.574.574,0,0,0,.055-.419.544.544,0,0,0-.994-.13,3.274,3.274,0,0,1-.3.476l.085-.11a3.107,3.107,0,0,1-.551.551l.11-.085a3.469,3.469,0,0,1-.767.444l.13-.055a4.609,4.609,0,0,1-1.168.308l.145-.019a6.306,6.306,0,0,1-1.36.028q-.159-.014-.318-.035l.145.019c-.136-.018-.272-.041-.407-.07a1.7,1.7,0,0,1-.3-.084l.13.055a.755.755,0,0,1-.16-.094l.11.085a.96.96,0,0,1-.164-.167l.085.11a1.6,1.6,0,0,1-.2-.349l.055.13a4.577,4.577,0,0,1-.277-1.161l.019.145a7.214,7.214,0,0,1-.078-1.2c.012-.373.047-.745.089-1.116q.038-.342.084-.683l-.019.145q.081-.6.178-1.2.069-.427.144-.853.018-.1.037-.205l.006-.03.02-.145s-.019-.144-.02-.145v-.006l-.006-.031-.165-.82c-.051-.252-.1-.5-.152-.756l0-.014v.289a.362.362,0,0,1,.025-.077l-.055.13a1.039,1.039,0,0,1,.135-.223l-.085.11a2.1,2.1,0,0,1,.381-.37l-.11.085a4.592,4.592,0,0,1,1-.563l-.13.055a2.723,2.723,0,0,1,.682-.178l-.145.02a5.675,5.675,0,0,1,1.5.028l-.145-.019a12.58,12.58,0,0,1,2.584.658q.277.1.549.212l-.13-.055a.376.376,0,0,1,.083.048l-.11-.085a.455.455,0,0,1,.078.079l-.085-.11a.685.685,0,0,1,.087.153l-.055-.13a1.466,1.466,0,0,1,.092.37l-.019-.145a4.983,4.983,0,0,1-.013,1.143c-.013.129-.028.258-.046.386l.019-.145c-.063.466-.148.928-.244,1.388s-.21.945-.329,1.414q-.16.632-.337,1.259-.13.463-.269.923c-.041.136-.085.27-.125.406l0,.005a.544.544,0,0,0,.8.614.587.587,0,0,0,.25-.325" transform="translate(-344.715 -355.147)" fill="#060000"/>
        <path id="パス_22118" data-name="パス 22118" d="M275.389,485.773l-.837,2.261-.119.321a.547.547,0,0,0,.525.689L275.4,489l1.206-.1,1.8-.155,2.184-.188,2.391-.206,2.414-.208,2.251-.194,1.908-.164,1.363-.117.65-.056.028,0a.543.543,0,0,0,.47-.269l.287-.669a.6.6,0,0,0,.055-.419.544.544,0,0,0-.669-.38.524.524,0,0,0-.325.25l-.287.669.47-.269-.447.038-1.206.1-1.8.155-2.184.188-2.392.206-2.414.208-2.251.194-1.908.164-1.363.118c-.217.019-.434.034-.65.056l-.028,0,.525.689.837-2.261.119-.321a.549.549,0,0,0-.055-.419.544.544,0,0,0-.744-.2.615.615,0,0,0-.25.325" transform="translate(-240.994 -426.273)" fill="#060000"/>
        <path id="パス_22119" data-name="パス 22119" d="M444.348,342.2q.06.531.118,1.063.143,1.293.279,2.587.169,1.6.327,3.209c.094.971.186,1.943.26,2.915.028.36.053.72.071,1.08a6.709,6.709,0,0,1,.012.673c0,.03,0,.06-.008.09l.02-.145a.869.869,0,0,1-.053.178c-.046.126-.1.249-.149.372l.055-.13c-.276.652-.577,1.292-.879,1.932q-.423.9-.857,1.794l-.175.361a.582.582,0,0,0-.055.419.544.544,0,0,0,.994.13q.271-.555.537-1.112c.341-.712.68-1.427,1.007-2.146.154-.338.3-.677.447-1.02a2.516,2.516,0,0,0,.174-.476,4.3,4.3,0,0,0,.011-1.025c-.03-.562-.076-1.124-.123-1.685q-.091-1.08-.2-2.159-.112-1.15-.231-2.3-.111-1.067-.226-2.133-.088-.817-.178-1.633-.045-.4-.09-.806l0-.036a.592.592,0,0,0-.159-.385.544.544,0,0,0-.769,0,.526.526,0,0,0-.159.385" transform="translate(-389.318 -300.053)" fill="#060000"/>
        <path id="パス_22120" data-name="パス 22120" d="M13.924,446.856l-.358.029-.974.079-1.441.117-1.758.143-1.925.156-1.943.158-1.806.147-1.531.124-1.1.089-.523.043-.023,0a.582.582,0,0,0-.385.159.544.544,0,0,0,0,.769.534.534,0,0,0,.385.159L.9,449l.974-.079,1.441-.117,1.758-.143L7,448.506l1.943-.158,1.806-.147,1.531-.124,1.1-.089.523-.043.023,0a.582.582,0,0,0,.385-.159.544.544,0,0,0,0-.769.535.535,0,0,0-.385-.159" transform="translate(0 -392.442)" fill="#060000"/>
        <path id="パス_22121" data-name="パス 22121" d="M487.484,407.075l-.418.034-1.139.093-1.684.137-2.055.167-2.251.183-2.272.184-2.111.171-1.79.145-1.283.1-.611.05-.026,0a.582.582,0,0,0-.385.159.544.544,0,0,0,.385.929l.419-.034,1.139-.093,1.684-.137L477.14,409l2.251-.183,2.272-.184,2.111-.171,1.79-.145,1.283-.1.611-.05.026,0a.582.582,0,0,0,.385-.159.544.544,0,0,0-.385-.929" transform="translate(-413.91 -357.506)" fill="#060000"/>
        <path id="パス_22122" data-name="パス 22122" d="M402.239,261.317l-.057.514-.137,1.235-.166,1.493-.143,1.286c-.023.209-.05.417-.07.626v.009a.606.606,0,0,0,.159.385.544.544,0,0,0,.77,0l.085-.11a.541.541,0,0,0,.074-.275l.057-.514.137-1.234.166-1.493.143-1.286c.023-.209.05-.417.07-.626v-.009a.605.605,0,0,0-.159-.385.544.544,0,0,0-.769,0l-.085.11a.542.542,0,0,0-.074.275" transform="translate(-352.756 -229.019)" fill="#060000"/>
        <path id="パス_22123" data-name="パス 22123" d="M310.226,192.718l-.389.842-.618,1.34-.14.3a.4.4,0,0,0-.065.2.412.412,0,0,0,.01.217.555.555,0,0,0,.25.325.549.549,0,0,0,.419.055.532.532,0,0,0,.325-.25l.389-.842.618-1.34.141-.3a.406.406,0,0,0,.065-.2.412.412,0,0,0-.01-.217.555.555,0,0,0-.25-.325.549.549,0,0,0-.419-.055.532.532,0,0,0-.325.25" transform="translate(-271.377 -169.013)" fill="#060000"/>
        <path id="パス_22124" data-name="パス 22124" d="M232.135,202.707l.1.14.272.384.4.565.489.689.538.759.54.762.5.711.426.6.308.434.145.2.006.009a.544.544,0,0,0,.94,0l.3-.505.709-1.213.853-1.459.741-1.268c.12-.2.242-.409.36-.615l0-.008a.564.564,0,0,0,.055-.419.555.555,0,0,0-.25-.325.549.549,0,0,0-.419-.055.569.569,0,0,0-.325.25l-.3.505-.709,1.213-.853,1.459-.741,1.268c-.12.2-.242.409-.36.615l0,.008h.94l-.1-.14-.272-.384-.4-.565-.489-.689L235,204.88l-.54-.762-.5-.711-.426-.6-.308-.434-.145-.2-.006-.009a.61.61,0,0,0-.325-.25.556.556,0,0,0-.419.055.549.549,0,0,0-.25.325.536.536,0,0,0,.055.419" transform="translate(-203.804 -177.306)" fill="#060000"/>
        <path id="パス_22125" data-name="パス 22125" d="M327.157,203.493l.171.276.412.663.5.8.43.694c.07.112.138.226.209.337l0,0a.569.569,0,0,0,.325.25.556.556,0,0,0,.419-.055.549.549,0,0,0,.25-.325.557.557,0,0,0-.055-.419l-.171-.276-.412-.663-.5-.8-.43-.694c-.07-.112-.138-.226-.209-.337l0,0a.569.569,0,0,0-.325-.25.556.556,0,0,0-.419.055.549.549,0,0,0-.25.325.557.557,0,0,0,.055.419" transform="translate(-287.256 -177.996)" fill="#060000"/>
        <path id="パス_22126" data-name="パス 22126" d="M524.852,439.322l-1.3.15-3.143.363-3.789.437-3.288.379c-.53.061-1.06.119-1.589.183l-.022,0a.544.544,0,0,0-.275,1.014l1.393.9,3.4,2.207,4.218,2.739,3.884,2.522,2.391,1.553a.869.869,0,0,0,.7.231c.2-.031.4-.067.6-.1l3.391-.572,4.869-.822,4.61-.778,2.573-.434.118-.02a.538.538,0,0,0,.39-.452.544.544,0,0,0-.26-.542l-1.511-.867-3.628-2.08-4.372-2.507-3.778-2.166c-.612-.351-1.626-1-2.247-1.331-.009,0,.391.268.382.263-.247-.142-1.015-.344-1.153-.083a.554.554,0,0,0,.2.744c.5.289,1.416.855,1.92,1.144l3.628,2.08,4.372,2.507,3.778,2.166c.61.35,1.212.731,1.838,1.054l.026.015.13-.994-1.618.273-3.851.65-4.671.788-4.037.681c-.652.11-1.311.2-1.959.331l-.029,0,.419.055L525.994,450l-3.711-2.41-4.485-2.912-3.9-2.531c-.625-.406-1.239-.841-1.88-1.221l-.026-.017-.275,1.014,1.3-.15,3.143-.363,3.788-.437,3.288-.379c.53-.061,1.06-.12,1.589-.183l.022,0a.558.558,0,0,0,.544-.544c-.012-.267-.241-.579-.544-.544" transform="translate(-448.934 -385.824)" fill="#060000"/>
        <path id="パス_22127" data-name="パス 22127" d="M489.855,470.136l-2.186.307-3.483.49-.8.112a.548.548,0,0,0-.24.909l1.245,1.177,2.96,2.8,3.517,3.325,2.913,2.754.864.817.226.214c.017.016.034.033.051.048a.605.605,0,0,0,.541.15c.548-.089,1.094-.192,1.64-.287l3.9-.683,4.761-.834,4.221-.739,2.277-.4.1-.018a.547.547,0,0,0,.24-.909l-2.127-1.861-.3-.261a.544.544,0,0,0-.769.77l2.127,1.861.3.261.24-.909-1.694.3-4.036.707-4.876.854-4.216.738c-.684.12-1.376.218-2.055.36l-.029.005.529.14-1.178-1.114-2.807-2.654-3.415-3.228-2.934-2.774c-.476-.45-.939-.924-1.433-1.355l-.019-.018-.24.909,2.186-.307,3.483-.49.8-.112a.546.546,0,0,0,.38-.669.562.562,0,0,0-.669-.38" transform="translate(-424.184 -412.882)" fill="#060000"/>
        <path id="パス_22128" data-name="パス 22128" d="M366.367,551.678l-2.205.325-6.028.887-8.887,1.308-10.84,1.6-11.872,1.748-12.024,1.77-11.171,1.645-9.439,1.389-6.787,1c-1.069.157-2.151.277-3.214.473-.045.008-.092.014-.137.02a.548.548,0,0,0-.38.669.558.558,0,0,0,.669.38l2.205-.325,6.028-.887,8.887-1.308,10.84-1.6,11.872-1.748,12.024-1.77,11.171-1.644,9.439-1.389,6.787-1c1.069-.157,2.151-.277,3.214-.473.045-.008.092-.013.137-.02a.548.548,0,0,0,.38-.669.557.557,0,0,0-.669-.38" transform="translate(-248.862 -484.494)" fill="#060000"/>
        <path id="パス_22129" data-name="パス 22129" d="M67.192,333.21l-.041-.364-.11-.99-.162-1.46-.2-1.774-.215-1.933-.215-1.937-.2-1.785-.164-1.478-.113-1.016c-.015-.133-.03-.265-.044-.4a2.294,2.294,0,0,1,.006-.539l-.019.145a2.257,2.257,0,0,1,.153-.561l-.055.13a2.29,2.29,0,0,1,.289-.494l-.085.11a2.3,2.3,0,0,1,.389-.39l-.11.085a2.267,2.267,0,0,1,.5-.292l-.13.055a2.276,2.276,0,0,1,.553-.151l-.145.02a3.82,3.82,0,0,1,.395-.023l.7-.021,1.646-.049.382-.011a.544.544,0,0,0,0-1.088l-1.894.056-.971.029a2.738,2.738,0,0,0-2.683,3.037l.106.951.207,1.867.27,2.433.289,2.6.269,2.424L66,332.25l.1.92,0,.04a.592.592,0,0,0,.159.385.544.544,0,0,0,.769,0,.527.527,0,0,0,.159-.385" transform="translate(-56.764 -278.4)" fill="#060000"/>
        <path id="パス_22130" data-name="パス 22130" d="M480.254,304.815l-.04-.359-.108-.974-.16-1.437-.194-1.747-.211-1.9-.212-1.907-.2-1.758-.162-1.455-.111-1c-.014-.131-.029-.261-.043-.392a2.261,2.261,0,0,1,.006-.531l-.02.145a2.23,2.23,0,0,1,.151-.552l-.055.13a2.248,2.248,0,0,1,.284-.486l-.085.11a2.261,2.261,0,0,1,.383-.384l-.11.085a2.233,2.233,0,0,1,.49-.288l-.13.055a2.244,2.244,0,0,1,.544-.149l-.145.019c.225-.03.453-.038.679-.054l.636-.047a.579.579,0,0,0,.385-.159.544.544,0,0,0-.385-.929l-.863.063-.3.022a2.966,2.966,0,0,0-1.007.255,2.71,2.71,0,0,0-1.545,2.7c.022.2.045.4.067.6l.159,1.429.221,1.986.252,2.266.255,2.294.227,2.039.17,1.531.083.746,0,.033a.591.591,0,0,0,.159.385.544.544,0,0,0,.769,0,.527.527,0,0,0,.159-.385" transform="translate(-419.546 -253.676)" fill="#060000"/>
        <path id="パス_22131" data-name="パス 22131" d="M933.682,302.613l-5.156.351-.715,2.767s-8.706-.688-10.083.121c0,0-5.075.729-4.049,12.175l3.779,18.789.378,2.214,35.147-.754v-29.1s1.35-4.913-3.293-5.021-16.008-1.539-16.008-1.539" transform="translate(-802.302 -265.765)" fill="#fff000"/>
        <path id="パス_22132" data-name="パス 22132" d="M598.573,39.489a13.65,13.65,0,0,1,.038,2.536,5.408,5.408,0,0,1-1.187,2.226,6.616,6.616,0,0,0-1.28,2.743,6.134,6.134,0,0,0,.216,2.322l-1.512-1.08c-1.568-1.12-.818-4.854-.664-6.426.092-.948-.756-1.908-1.219-2.7a7.433,7.433,0,0,1-1-1.873,9.4,9.4,0,0,1,.014-2.306c.05-1.059.147-2.114.226-3.171a5.316,5.316,0,0,0,.038-1.4c-.082-.39-.318-.8-.429-1.2a16.419,16.419,0,0,1-.422-5.652c.378-5.183,2.969-6.209,5.129-7.019s5.237-.216,8.908,1.512,1.958,6.525,1.958,6.525-1.742-3.988-2.5-4.2-2.376,4.913-7.882,6.317c0,0-.972-1.728-1.782-1.458s-2.538,1.674-1.188,3.293a20.843,20.843,0,0,1,2.538,4.751l.162,4.157Z" transform="translate(-519.321 -14.168)" fill="#f49902"/>
        <path id="パス_22133" data-name="パス 22133" d="M592.665,45.383a.6.6,0,0,1-.268-.063,4.337,4.337,0,0,1-2.55-5.238,5.676,5.676,0,0,0-1.236-5.658,5.934,5.934,0,0,1-1.443-3.727,8.641,8.641,0,0,1,.361-2.688,7.9,7.9,0,0,0,.335-2.284,23.89,23.89,0,0,0-.43-3.068,12.748,12.748,0,0,1-.074-6.368,7.937,7.937,0,0,1,6.8-5.512,13.265,13.265,0,0,1,9.057,3.014.609.609,0,0,1-.742.965,12.042,12.042,0,0,0-8.2-2.767,6.636,6.636,0,0,0-5.759,4.669c-.6,1.9-.257,3.784.111,5.778a24.8,24.8,0,0,1,.449,3.227,8.946,8.946,0,0,1-.369,2.637,7.592,7.592,0,0,0-.328,2.315,4.756,4.756,0,0,0,1.083,2.942,6.887,6.887,0,0,1,1.551,6.864A2.909,2.909,0,0,0,591.5,43.1a3.96,3.96,0,0,1,1.085-3.061c1.493-1.623,2.488-4.072.8-6.082l-.013-.015a3.945,3.945,0,0,1-1.152-2.261,6.08,6.08,0,0,1,.157-1.407,4.357,4.357,0,0,0,.121-1.356,3.565,3.565,0,0,0-1.015-2.427.6.6,0,0,1-.052-.049,7.533,7.533,0,0,1-2.114-3.3,2.486,2.486,0,0,1,1.439-3.213,1.6,1.6,0,0,1,1.529.157c.773.562,1.029,1.828.783,3.872a.609.609,0,0,1-1.209-.146c.265-2.2-.19-2.666-.284-2.738a.39.39,0,0,0-.349-.022.205.205,0,0,1-.047.019c-.943.324-.791,1.342-.681,1.765a6.377,6.377,0,0,0,1.794,2.745,4.707,4.707,0,0,1,1.418,3.2,5.455,5.455,0,0,1-.135,1.73,5.071,5.071,0,0,0-.135,1.134,3.046,3.046,0,0,0,.868,1.519l.013.015c1.807,2.154,1.479,5.172-.838,7.689a2.964,2.964,0,0,0-.3,3.582.61.61,0,0,1-.511.942" transform="translate(-515.502 -9.427)" fill="#060000"/>
        <path id="パス_22134" data-name="パス 22134" d="M631.272,54.4a.609.609,0,0,1-.219-1.177,17.309,17.309,0,0,0,7.615-6.126.609.609,0,0,1,1.03.649,18.234,18.234,0,0,1-8.207,6.613.607.607,0,0,1-.219.041" transform="translate(-553.869 -41.116)" fill="#060000"/>
        <path id="パス_22135" data-name="パス 22135" d="M696.2,158.955l-3.271,3.511s.072,3.413.72,4.466,2.632,4.252,2.389,5.588,1.66-2.389,1.66-2.389l-1.215-5.061.526-3.928Z" transform="translate(-608.557 -139.6)" fill="#f49902"/>
        <path id="パス_22136" data-name="パス 22136" d="M658.993,53.657a9.291,9.291,0,0,1-2.409-.472,4.674,4.674,0,0,1-2.463-1.428.609.609,0,0,1,1.009-.682c.452.669,3.048,1.389,3.877,1.365a10.954,10.954,0,0,0,2.823-3.659,10,10,0,0,0,.357-2.555q.01-.186.021-.371a16.5,16.5,0,0,0-.094-3.138,10.414,10.414,0,0,0-.257-1.338,1.281,1.281,0,0,1,0-.479c.032-.416.1-1.28.143-2.86.034-1.24-.2-1.627-.262-1.707a.609.609,0,0,1,.212-1.19c.315.017,1.339.28,1.267,2.931-.044,1.611-.113,2.5-.146,2.922-.005.065-.009.116-.012.154a11.81,11.81,0,0,1,.266,1.409,17.71,17.71,0,0,1,.1,3.37c-.007.122-.014.244-.021.366a11.058,11.058,0,0,1-.415,2.865,10.954,10.954,0,0,1-1.612,2.606c-1.455,1.845-2.047,1.878-2.27,1.89-.035,0-.073,0-.113,0m2.885-17.3h0m0,0h0Z" transform="translate(-574.378 -30.863)" fill="#060000"/>
        <path id="パス_22137" data-name="パス 22137" d="M688.422,92.83l.094.343.224.823.272,1,.235.862c.038.14.075.28.115.42l0,.006a.563.563,0,0,0,.25.325.556.556,0,0,0,.419.055.549.549,0,0,0,.325-.25.568.568,0,0,0,.055-.419l-.094-.343-.224-.823-.272-1-.235-.862c-.038-.14-.075-.28-.115-.42l0-.006a.563.563,0,0,0-.25-.325.544.544,0,0,0-.744.2.568.568,0,0,0-.055.419" transform="translate(-604.579 -80.921)" fill="#060000"/>
        <path id="パス_22138" data-name="パス 22138" d="M707.857,99.076a.561.561,0,0,0,.385-.159.544.544,0,0,0,0-.769.544.544,0,0,0-.77,0,.544.544,0,0,0,0,.769.565.565,0,0,0,.385.159" transform="translate(-621.185 -86.056)" fill="#060000"/>
        <path id="パス_22139" data-name="パス 22139" d="M663.12,102.484a.561.561,0,0,0,.385-.159.544.544,0,0,0,0-.769.544.544,0,0,0-.77,0,.544.544,0,0,0,0,.769.565.565,0,0,0,.385.159" transform="translate(-581.896 -89.049)" fill="#060000"/>
        <path id="パス_22140" data-name="パス 22140" d="M653.727,84.638l0,0-.085.11a1.558,1.558,0,0,1,.28-.271l-.11.085a1.757,1.757,0,0,1,.386-.227l-.13.055a1.555,1.555,0,0,1,.381-.1l-.145.019a1.545,1.545,0,0,1,.406,0l-.145-.019a1.841,1.841,0,0,1,.461.129l-.13-.055c.042.018.083.037.123.057a.58.58,0,0,0,.419.055.545.545,0,0,0,.38-.669.542.542,0,0,0-.25-.325,2.847,2.847,0,0,0-.478-.192,2.407,2.407,0,0,0-.465-.078,1.5,1.5,0,0,0-.3.006,2.111,2.111,0,0,0-1.342.643,2.105,2.105,0,0,0-.2.234.405.405,0,0,0-.065.2.412.412,0,0,0,.01.217.555.555,0,0,0,.25.325.549.549,0,0,0,.419.055l.13-.055a.547.547,0,0,0,.2-.2" transform="translate(-573.234 -73.07)" fill="#060000"/>
        <path id="パス_22141" data-name="パス 22141" d="M700.813,81.2a1.481,1.481,0,0,1,.26-.135l-.13.055a2.009,2.009,0,0,1,.5-.138L701.3,81a1.811,1.811,0,0,1,.466,0l-.145-.019a1.769,1.769,0,0,1,.444.121l-.13-.055q.054.023.107.049a.58.58,0,0,0,.419.055.555.555,0,0,0,.325-.25.549.549,0,0,0,.055-.419.541.541,0,0,0-.25-.325,2.264,2.264,0,0,0-1.28-.244,2.6,2.6,0,0,0-.532.111,2.928,2.928,0,0,0-.4.17,1.161,1.161,0,0,0-.118.068.581.581,0,0,0-.25.325.556.556,0,0,0,.055.419.549.549,0,0,0,.325.25.54.54,0,0,0,.419-.055" transform="translate(-614.759 -70.165)" fill="#060000"/>
        <path id="パス_22142" data-name="パス 22142" d="M504.144,214.065c1.588.25,15,3.451,15,3.451-3.3.751-4.153,5.258-4.153,5.258s-15.321-2.082-16.871-2.788c-1.377-.627-.634-5.477-.566-6.56.219-3.474.636-6.937,1.1-10.385.4-2.946.909-7.8,4.47-8.814,3.293-.941,6.06-1.8,6.06-1.8" transform="translate(-436.743 -168.999)" fill="#fff"/>
        <path id="パス_22143" data-name="パス 22143" d="M510.529,218.944a.626.626,0,0,1-.083-.006c-1.577-.214-15.456-2.115-17.044-2.838-1.456-.663-1.287-3.57-.988-6.489.029-.281.053-.523.063-.67.234-3.72.692-7.36,1.108-10.429l.047-.353c.42-3.139,1.055-7.883,4.864-8.972,3.249-.928,6.02-1.783,6.048-1.791a.616.616,0,1,1,.364,1.178c-.028.009-2.811.867-6.073,1.8-3.033.867-3.6,5.129-3.981,7.95l-.048.355c-.414,3.048-.867,6.66-1.1,10.341-.011.171-.035.412-.067.718a26.767,26.767,0,0,0-.188,3.3c.048,1.737.445,1.937.461,1.945,1.045.476,10.023,1.823,16.149,2.663a8.274,8.274,0,0,1,2.749-4.383c-3.675-.871-12.022-2.84-13.229-3.031a.616.616,0,1,1,.192-1.218c1.593.251,14.5,3.329,15.052,3.46a.616.616,0,0,1-.006,1.2c-2.86.651-3.677,4.731-3.685,4.772a.617.617,0,0,1-.6.5" transform="translate(-432.276 -164.553)" fill="#060000"/>
        <path id="パス_22144" data-name="パス 22144" d="M644.608,395.857l5.043-.18a4.255,4.255,0,0,1,1.981,1.153c.533.609,1.7,1.7,1.7,2.577a2.767,2.767,0,0,1-.908,1.783,3.208,3.208,0,0,1-3.21.5,8.074,8.074,0,0,1-1.657-1.8s-1.657,1.441-6.52.973c0,0-.9-2.774,3.566-5.007" transform="translate(-562.919 -347.497)" fill="#fff"/>
        <path id="パス_22145" data-name="パス 22145" d="M646.373,398.6a2.613,2.613,0,0,1-1.319-.325,6.593,6.593,0,0,1-1.525-1.544,6.165,6.165,0,0,1-1.146.455,14.17,14.17,0,0,1-5.288.33.539.539,0,0,1-.461-.37c-.043-.131-.988-3.242,3.837-5.655a.541.541,0,0,1,.222-.057l5.043-.18a.542.542,0,0,1,.143.014,4.794,4.794,0,0,1,2.263,1.322c.084.1.184.2.292.321.648.7,1.536,1.661,1.545,2.606a3.286,3.286,0,0,1-1.091,2.193,4.124,4.124,0,0,1-2.517.889m-2.706-3.131a.541.541,0,0,1,.443.232,7.186,7.186,0,0,0,1.484,1.642,2.686,2.686,0,0,0,2.585-.442,2.243,2.243,0,0,0,.724-1.372c-.005-.529-.79-1.378-1.259-1.885-.116-.125-.222-.241-.312-.343a3.669,3.669,0,0,0-1.637-.966l-4.844.173c-3.008,1.539-3.278,3.256-3.24,3.972,4.191.321,5.688-.866,5.7-.879a.538.538,0,0,1,.353-.132" transform="translate(-559.024 -343.611)" fill="#060000"/>
        <line id="線_2" data-name="線 2" x1="1.134" y2="10.204" transform="translate(68.373 34.176)" fill="#fff000"/>
        <path id="パス_22146" data-name="パス 22146" d="M557.117,287.086a.609.609,0,0,1-.606-.676l1.134-10.2a.609.609,0,0,1,1.21.134l-1.134,10.2a.609.609,0,0,1-.6.542" transform="translate(-488.743 -242.098)" fill="#060000"/>
        <path id="パス_22147" data-name="パス 22147" d="M723.783,192.273c1.512.269,3.3.412,4.5,1.48a4.994,4.994,0,0,1,1.977,2.966c.837,2.259,2.343,6.384,3.32,8.584l2.982,7.456" transform="translate(-635.65 -168.86)" fill="#fff"/>
        <path id="パス_22148" data-name="パス 22148" d="M732.118,208.931a.616.616,0,0,1-.572-.388l-2.978-7.446c-.882-1.989-2.183-5.508-3.045-7.838l-.377-1.019a4.187,4.187,0,0,0-1.717-2.473,6.894,6.894,0,0,0-3.524-1.221c-.23-.037-.456-.074-.677-.113a.616.616,0,1,1,.216-1.214c.215.038.435.074.658.11a7.9,7.9,0,0,1,4.146,1.516,5.3,5.3,0,0,1,2.055,2.967l.377,1.018c.858,2.32,2.154,5.825,3.02,7.776l.009.021,2.982,7.457a.617.617,0,0,1-.572.845" transform="translate(-631.203 -164.415)" fill="#060000"/>
        <line id="線_3" data-name="線 3" x2="0.374" y2="14.653" transform="translate(92.75 33.852)" fill="#fff000"/>
        <path id="パス_22149" data-name="パス 22149" d="M757.68,288.876a.609.609,0,0,1-.608-.593l-.374-14.653a.609.609,0,1,1,1.217-.031l.374,14.653a.609.609,0,0,1-.593.624h-.016" transform="translate(-664.557 -239.762)" fill="#060000"/>
        <line id="線_4" data-name="線 4" x2="1.649" y2="2.55" transform="translate(93.074 40.493)" fill="#fff000"/>
        <path id="パス_22150" data-name="パス 22150" d="M761.616,331.308a.608.608,0,0,1-.512-.278l-1.649-2.55a.609.609,0,0,1,1.023-.661l1.649,2.55a.609.609,0,0,1-.511.94" transform="translate(-666.892 -287.657)" fill="#060000"/>
        <path id="パス_22151" data-name="パス 22151" d="M767.689,347.838l-2.3,2.116s3.6,3.715,4.086,5.82a5.233,5.233,0,0,0,3-3.239" transform="translate(-672.186 -305.483)" fill="#fff"/>
        <path id="パス_22152" data-name="パス 22152" d="M765.081,351.992a.609.609,0,0,1-.593-.472c-.367-1.59-2.961-4.534-3.93-5.534a.609.609,0,0,1,.025-.872l2.3-2.116a.609.609,0,1,1,.824.9l-1.851,1.7a21.656,21.656,0,0,1,3.578,4.95,5.165,5.165,0,0,0,2.073-2.624.609.609,0,0,1,1.133.446,5.818,5.818,0,0,1-3.392,3.6.608.608,0,0,1-.17.024" transform="translate(-667.796 -301.092)" fill="#060000"/>
        <path id="パス_22153" data-name="パス 22153" d="M740.724,372.105c-1.139-.531-3.906,3.585-3.922,4.189s.478,1,.85,1.4c.067.071,1.338.98,1.29.813a1.078,1.078,0,0,0,1.458.729,16.353,16.353,0,0,0,2.457-1.08c.384-.217,1.7-.972,1.782-1.459a1,1,0,0,0-.211-.694c-.344-.517-.713-1.007-1.077-1.509a7.15,7.15,0,0,0-2.626-2.385" transform="translate(-647.084 -326.754)" fill="#fff"/>
        <path id="パス_22154" data-name="パス 22154" d="M736.056,375.966a1.469,1.469,0,0,1-.675-.159,1.7,1.7,0,0,1-.717-.747,5.971,5.971,0,0,1-.564-.357,8.885,8.885,0,0,1-.722-.534c-.046-.049-.095-.1-.144-.147a2.283,2.283,0,0,1-.854-1.634c.021-.818,2.052-3.667,3.336-4.461a1.394,1.394,0,0,1,1.352-.2,7.492,7.492,0,0,1,2.834,2.557l.254.349c.277.38.564.772.835,1.178a1.48,1.48,0,0,1,.295,1.081c-.062.371-.354.88-2.048,1.839a16.658,16.658,0,0,1-2.54,1.118,1.9,1.9,0,0,1-.642.118m-.943-1.89a.539.539,0,0,1,.463.387.72.72,0,0,0,.3.388.541.541,0,0,0,.46-.017,15.614,15.614,0,0,0,2.372-1.041,4.577,4.577,0,0,0,1.517-1.1.634.634,0,0,0-.129-.287c-.258-.386-.525-.752-.808-1.14l-.257-.352a6.493,6.493,0,0,0-2.411-2.21c-.134-.013-.721.241-1.764,1.543a9.766,9.766,0,0,0-1.4,2.192c.006.26.221.5.545.826l.139.142c.136.11.719.52.973.667m-.573.683h0Zm0,0h0m-.387-1.337.006.006-.006-.006m2.459-4.72h0" transform="translate(-643.2 -322.862)" fill="#060000"/>
        <line id="線_5" data-name="線 5" x2="0.81" y2="16.197" transform="translate(88.295 32.799)" fill="#fff"/>
        <path id="パス_22155" data-name="パス 22155" d="M722.042,282.209a.539.539,0,0,1-.538-.512l-.81-16.2a.539.539,0,0,1,1.076-.054l.81,16.2a.539.539,0,0,1-.511.565h-.027" transform="translate(-632.937 -232.674)" fill="#060000"/>
        <path id="パス_22156" data-name="パス 22156" d="M621.045,291.106a.609.609,0,0,1-.609-.6l-.081-12.229a.609.609,0,0,1,.6-.613h0a.609.609,0,0,1,.609.6l.081,12.229a.609.609,0,0,1-.6.613Z" transform="translate(-544.816 -243.85)" fill="#060000"/>
        <path id="パス_22157" data-name="パス 22157" d="M674.57,426.783a.609.609,0,0,1-.277-.067l-8.935-4.576a.609.609,0,1,1,.555-1.084l8.759,4.485,12.487-1.961-7.346-3.317a.609.609,0,1,1,.5-1.11l9.205,4.157a.609.609,0,0,1-.156,1.156l-14.7,2.308a.6.6,0,0,1-.094.007" transform="translate(-584.048 -368.068)" fill="#060000"/>
        <path id="パス_22158" data-name="パス 22158" d="M743.924,331.031a.606.606,0,0,1-.265-.061c-.3-.147-1.035.679-.888.377l3.643-7.453a.609.609,0,0,1,1.1.531l-3.037,6.263a.609.609,0,0,1-.548.343" transform="translate(-652.309 -284.152)" fill="#060000"/>
        <path id="パス_22159" data-name="パス 22159" d="M965.989,423.463l35.675-.8,2.676-22.722s.223-2.118-2.676-1.672-10.034,2.9-20.625,4.236l-10.591,1.338a3.511,3.511,0,0,0-3.791,3.568c-.334,3.9-.669,16.054-.669,16.054" transform="translate(-848.363 -349.717)" fill="#fff"/>
        <path id="パス_22160" data-name="パス 22160" d="M961.418,418.781q.025-.6.05-1.191.063-1.488.126-2.977l.163-3.851.164-3.872.126-2.983c.017-.4.031-.8.051-1.2,0-.045,0-.09.009-.134,0-.027.005-.053.008-.08,0,.011-.012.077,0,.013a3.131,3.131,0,0,1,.077-.359c.028-.1.062-.2.1-.3.022-.059,0,0-.006.011.01-.024.021-.047.032-.07q.043-.093.093-.183.074-.134.161-.261c.015-.021.11-.148.051-.074.037-.047.075-.092.115-.136a3.157,3.157,0,0,1,.233-.234c.038-.034.077-.067.116-.1,0,0,.069-.054.025-.021s.04-.028.048-.033c.092-.063.185-.123.282-.177q.068-.037.137-.071l.07-.033c.079-.038-.069.026.013-.007a3.18,3.18,0,0,1,.685-.188c-.084.014.078-.009.11-.013l.213-.026.414-.05q2.052-.251,4.1-.525,2.627-.351,5.249-.737,2.889-.427,5.771-.9,3.026-.5,6.038-1.082c1.964-.379,3.922-.787,5.869-1.241q1.376-.321,2.743-.676.646-.169,1.289-.348c.417-.116.832-.258,1.255-.354.018,0,.106-.012.014,0l.078-.006q.078,0,.155,0l.077.005c-.009,0-.083-.014-.019,0a1.79,1.79,0,0,1,.2.046.831.831,0,0,0,.1.032c-.042-.017.071.036.091.047.044.024.085.05.127.077.012.008.094.069.045.03s.033.03.04.036c.036.034.072.068.105.1.016.017.094.112.068.078s.013.021.015.025c.017.028.036.056.053.084s.024.044.036.066.049.1.026.048a.975.975,0,0,0,.034.1c.018.057.031.115.044.173.022.1,0-.039.007.062,0,.063,0,.125,0,.187-.006.129-.027.258-.042.385l-.238,1.9-.4,3.224-.483,3.866-.486,3.887-.4,3.229-.238,1.9-.032.259a.547.547,0,0,0,.544.544.558.558,0,0,0,.544-.544l.132-1.058.34-2.72.463-3.7.5-4,.453-3.625.321-2.566a4.529,4.529,0,0,0,.058-1.568,2.229,2.229,0,0,0-2.31-1.691,8.129,8.129,0,0,0-1.412.356q-.64.18-1.283.349c-1.887.5-3.789.934-5.7,1.337-2.013.426-4.035.813-6.06,1.175q-3.007.538-6.026,1.006-2.781.435-5.568.823l-1.271.175-.6.082-.068.009h.009l-.135.018-.312.042q-1.1.146-2.2.286-.938.119-1.876.234c-.352.043-.713.068-1.059.146a3.52,3.52,0,0,0-1.32.606,3.741,3.741,0,0,0-1.494,2.6c-.02.17-.024.341-.031.512l-.091,2.155-.15,3.546-.17,4.019-.151,3.572q-.047,1.1-.093,2.207l-.013.3a.544.544,0,0,0,1.088,0" transform="translate(-843.393 -345.337)" fill="#060000"/>
        <path id="パス_22161" data-name="パス 22161" d="M1011.288,93.185s-.486,8.179,2.025,10.852,5.021,3.482,4.778,6.074-2.673,10.771-2.187,12.715.972,3.806,6.884,3.806,10.042.4,11.014-4.535a27,27,0,0,0,.324-9.718c-.611-5.294-4.1-8.952-5.722-13.793-1.4-4.185-.715-8.679-1.405-13.013a10.262,10.262,0,0,0-6.236-7.451c-6.4-2.43-12.472,1.539-12.472,1.539s-2.025.567-.648,3.968,3,3.158,2.187,5.507c0,0,1.943-1.944,2.672.162s-1.944,4.211-1.944,4.211" transform="translate(-884.525 -67.917)" fill="#f49902"/>
        <path id="パス_22162" data-name="パス 22162" d="M976.317,138.734a.609.609,0,0,1-.574-.406l-1.518-4.3a21.142,21.142,0,0,1-3.966-1.534c-.239-.2-.51-.425-.684-4.154-.06-1.284-.087-2.553-.1-3.122l-1.692-1.2a.609.609,0,0,1-.024-.976c1.068-.839,2.763-2.572,2.763-3.651a7.1,7.1,0,0,1,1.337-3.767.609.609,0,1,1,.974.731,5.938,5.938,0,0,0-1.093,3.036c0,1.529-1.661,3.236-2.612,4.088l1.3.923a.609.609,0,0,1,.257.49,45.621,45.621,0,0,0,.418,6.71,33.126,33.126,0,0,0,3.77,1.354.609.609,0,0,1,.394.379l1.62,4.589a.609.609,0,0,1-.574.812m-5.182-7.063h0" transform="translate(-849.715 -101.331)" fill="#060000"/>
        <path id="パス_22163" data-name="パス 22163" d="M947.094,108.216l-.041-.35c-.38-3.291-1.84-5.983-3.251-8.586a33.723,33.723,0,0,1-2.5-5.33,26.422,26.422,0,0,1-.985-7.627,42.487,42.487,0,0,0-.4-5.291,10.787,10.787,0,0,0-6.62-7.922c-6.33-2.4-12.238,1.105-12.956,1.557a2.236,2.236,0,0,0-1.184,1.113,4.48,4.48,0,0,0,.24,3.635,11.3,11.3,0,0,0,1.708,2.911c.628.815.84,1.09.468,2.169a.609.609,0,0,0,1.005.63c.3-.3.913-.71,1.249-.631.2.047.339.331.419.561.577,1.668-1.723,3.516-1.745,3.534a.609.609,0,0,0,.465,1.081c-.015.834-.01,2.126.105,3.546.246,3.048.874,5.23,1.866,6.5l-1.979.36a.609.609,0,0,0-.481.447l-.594,2.3-6.266-.162a6.971,6.971,0,0,0-5.872,2.05c-2.7,2.875-3.142,8.286-1.308,16.082,1.367,5.808,2.441,11.074,3.195,15.65a.609.609,0,1,0,1.2-.2c-.758-4.6-1.838-9.9-3.211-15.731-1.708-7.258-1.363-12.43,1-14.957a5.735,5.735,0,0,1,4.84-1.688.608.608,0,0,0,.087.009l6.789.175h.016a.609.609,0,0,0,.589-.456l.618-2.39,2.4-.425c.547.515,1.078.958,1.565,1.363,1.509,1.255,2.419,2.012,2.282,3.47-.088.944-.5,2.738-.929,4.638-.924,4.06-1.554,7.03-1.242,8.281.5,2,1.067,4.267,7.474,4.267.425,0,.841,0,1.247,0,.371,0,.737,0,1.1,0,4.707,0,8.341-.317,9.269-5.034a27.407,27.407,0,0,0,.372-9.556m-1.567,9.321c-.77,3.916-3.517,4.076-9.164,4.048-.408,0-.826,0-1.253,0-5.457,0-5.844-1.55-6.293-3.345-.266-1.065.609-4.909,1.248-7.715a47.881,47.881,0,0,0,.954-4.795c.2-2.1-1.153-3.22-2.716-4.52a23.788,23.788,0,0,1-2.225-2.028c-.929-.989-1.548-3.08-1.789-6.046a35.167,35.167,0,0,1-.071-4.353.61.61,0,0,0-.011-.156c.8-.917,1.733-2.406,1.193-3.966a1.843,1.843,0,0,0-1.3-1.349,1.912,1.912,0,0,0-1.133.122,3.337,3.337,0,0,0-.9-1.846,10.1,10.1,0,0,1-1.543-2.624,3.353,3.353,0,0,1-.288-2.615,1.026,1.026,0,0,1,.542-.54.471.471,0,0,0,.163-.075c.058-.038,5.884-3.772,11.923-1.479a9.555,9.555,0,0,1,5.851,6.977,41.587,41.587,0,0,1,.382,5.137,27.732,27.732,0,0,0,1.047,7.973,34.661,34.661,0,0,0,2.582,5.524c1.419,2.617,2.759,5.088,3.112,8.145l.041.353a26,26,0,0,1-.358,9.178" transform="translate(-796.847 -63.475)" fill="#060000"/>
        <path id="パス_22164" data-name="パス 22164" d="M1211.871,322.714l-.058,0a.609.609,0,0,1-.548-.664c0-.051.483-5.108.483-8.081a2.014,2.014,0,0,0-.569-1.581,2.481,2.481,0,0,0-1.724-.458.609.609,0,0,1-.157-1.207,3.7,3.7,0,0,1,2.679.745,3.16,3.16,0,0,1,.989,2.5c0,3.031-.469,7.987-.489,8.2a.609.609,0,0,1-.605.551" transform="translate(-1061.581 -272.866)" fill="#060000"/>
        <path id="パス_22165" data-name="パス 22165" d="M998.817,143.216a.607.607,0,0,1-.405-.155,5.56,5.56,0,0,0-1.14-.871.609.609,0,0,1,.128-1.2c.154,0,.516,0,1.823,1.167a.609.609,0,0,1-.406,1.063M997.4,142.2h0Zm0,0h0Zm0,0h0Z" transform="translate(-875.415 -123.819)" fill="#060000"/>
        <path id="パス_22166" data-name="パス 22166" d="M998.757,163.182a.606.606,0,0,1-.43-.178l-.027-.027a.609.609,0,1,1,.861-.861l.027.027a.609.609,0,0,1-.43,1.039" transform="translate(-876.583 -142.218)" fill="#060000"/>
        <path id="パス_22167" data-name="パス 22167" d="M1079.53,168.6a1.943,1.943,0,0,1-.616-.107c-.642-.214-1-.892-1.065-2.015a8.126,8.126,0,0,1,.046-1.355.609.609,0,0,1,1.208.157,3.352,3.352,0,0,0,.2,2.058.443.443,0,0,0,.321.023.681.681,0,0,0,.171-.42.613.613,0,0,1,.65-.562.606.606,0,0,1,.565.641,1.858,1.858,0,0,1-.7,1.35,1.366,1.366,0,0,1-.776.23" transform="translate(-946.594 -144.553)" fill="#060000"/>
        <path id="パス_22168" data-name="パス 22168" d="M683.889,158.667a4.021,4.021,0,0,1-.117-2.9,8.7,8.7,0,0,0-.414-4.85.609.609,0,0,0-1.125.466,7.568,7.568,0,0,1,.355,4.1,5.05,5.05,0,0,0,.274,3.846,4.745,4.745,0,0,1,.358,4.3,5.843,5.843,0,0,0-1.953-3.579c-2.355-2.167-1.027-5.273-.97-5.4a.609.609,0,1,0-1.112-.5,6.741,6.741,0,0,0-.463,3.477l-.045.751-1.092,3.113a.609.609,0,1,0,1.149.4l.743-2.118a5.467,5.467,0,0,0,.965,1.169,4.412,4.412,0,0,1,1.4,4.745.609.609,0,0,0,.986.666,6.168,6.168,0,0,0,1.063-7.683" transform="translate(-595.047 -132.208)" fill="#060000"/>
        <path id="パス_22169" data-name="パス 22169" d="M649.851,217.765a.609.609,0,0,1-.6-.5l-.5-2.714-.7-.215a.609.609,0,0,1,.358-1.164l1.053.324a.609.609,0,0,1,.42.472l.567,3.077a.609.609,0,0,1-.488.709.618.618,0,0,1-.111.01" transform="translate(-568.763 -187.192)" fill="#060000"/>
        <path id="パス_22170" data-name="パス 22170" d="M298.945,112.566a.487.487,0,0,1-.367-.807l1.62-1.863a.487.487,0,1,1,.735.639l-1.62,1.863a.486.486,0,0,1-.368.167" transform="translate(-262.116 -96.368)" fill="#060000"/>
        <path id="パス_22171" data-name="パス 22171" d="M312.363,131.758a.487.487,0,0,1-.163-.946,6.8,6.8,0,0,1,2.663-.241.487.487,0,1,1-.09.97,5.937,5.937,0,0,0-2.251.191.489.489,0,0,1-.159.027" transform="translate(-273.899 -114.643)" fill="#060000"/>
        <path id="パス_22172" data-name="パス 22172" d="M989.954,213.549a.607.607,0,0,1-.407-.156l-.2-.182a.609.609,0,1,1,.815-.905l.2.182a.609.609,0,0,1-.408,1.061" transform="translate(-868.698 -186.316)" fill="#060000"/>
        <path id="パス_22173" data-name="パス 22173" d="M679.7,142.9a.487.487,0,0,1-.016-.974l1.566-.054a.487.487,0,0,1,.034.974l-1.566.054H679.7" transform="translate(-596.511 -124.6)" fill="#060000"/>
      </g>
    </g>
  </g>
</svg>
