<svg xmlns="http://www.w3.org/2000/svg" xmlns:xlink="http://www.w3.org/1999/xlink" width="96" height="96" viewBox="0 0 96 96">
  <defs>
    <clipPath id="clip-path">
      <rect id="長方形_766" data-name="長方形 766" width="96" height="96" transform="translate(559.457 1634.745)" fill="#fff" stroke="#707070" stroke-width="1"/>
    </clipPath>
  </defs>
  <g id="worries-item03_illust_sp" transform="translate(-559.457 -1634.745)">
    <g id="マスクグループ_2914" data-name="マスクグループ 2914" clip-path="url(#clip-path)">
      <g id="グループ_2636" data-name="グループ 2636" transform="translate(380.666 1626.259)">
        <path id="パス_117" data-name="パス 117" d="M1170.85,138.373a7.621,7.621,0,1,1-5.249-9.413,7.621,7.621,0,0,1,5.249,9.413" transform="translate(-925.188 -103.849)" fill="#fff"/>
        <path id="パス_118" data-name="パス 118" d="M1155.283,136.518a8.478,8.478,0,1,1,8.151-6.163,8.494,8.494,0,0,1-8.151,6.163m-.008-15.245a6.77,6.77,0,1,0,1.852.259,6.79,6.79,0,0,0-1.852-.259" transform="translate(-916.948 -95.597)" fill="#8e9798"/>
        <path id="パス_122" data-name="パス 122" d="M1201.109,154.279l-.091-.026.123-.433a.857.857,0,0,0-1.648-.468l-.123.434-.091-.026a2.544,2.544,0,1,0-1.39,4.895l1.83.52a.831.831,0,1,1-.454,1.6l-1.83-.52a.831.831,0,0,1-.573-1.026.856.856,0,1,0-1.648-.468,2.543,2.543,0,0,0,1.752,3.142l.091.026-.123.434a.857.857,0,1,0,1.648.468l.123-.434.091.026a2.544,2.544,0,1,0,1.39-4.895l-1.83-.52a.831.831,0,1,1,.455-1.6l1.83.52a.833.833,0,0,1,.573,1.027.856.856,0,1,0,1.647.468,2.547,2.547,0,0,0-1.752-3.143" transform="translate(-960.72 -125.648)" fill="#d3faf8"/>
      </g>
      <g id="グループ_2634" data-name="グループ 2634" transform="translate(376.806 1659.08)">
        <path id="パス_300" data-name="パス 300" d="M628.693,84.572l29.917.09a99.374,99.374,0,0,0-1.627-20.969c-2.079-10.123-5.875-16.179-15-16.359S627.789,57.909,628.06,63.6s.723,14.371.723,14.371Z" transform="translate(-398.722 -40.622)" fill="#f49902"/>
        <path id="パス_303" data-name="パス 303" d="M538.207,330.473h57.657s-1.273-13.619-1.145-14.128.891-8.4-3.946-10.31-14.764-3.182-14.764-3.182l-17.055.127s-11.71,1.273-15.146,2.673-4.582,4.455-4.709,9.928-.891,14.892-.891,14.892" transform="translate(-321.615 -259.923)" fill="#fff000"/>
        <path id="パス_306" data-name="パス 306" d="M662.83,135.259l-3.309,1.146s.636,7.255,8.655,7,8.782-7,8.782-7l-3.946-1.527.255-4.709s2.036-2.036,2.291-6.364-1.782-9.673-1.782-9.673-4.455.382-7.255-1.018a47.079,47.079,0,0,1-6.364-4.2s-4.2,2.036-4.327,8.528c0,0,1.909,10.691,3.437,12.346a8.006,8.006,0,0,0,3.309,2.164Z" transform="translate(-422.564 -93.473)" fill="#fff"/>
        <path id="パス_313" data-name="パス 313" d="M528.952,12.273c.129-.363.247-.731.35-1.1a5.344,5.344,0,0,0,.175-.855,1.013,1.013,0,0,0-.02-.348.543.543,0,0,0-.52-.415,1.232,1.232,0,0,0-.6.276q-.333.211-.669.418-.839.521-1.681,1.036c-.34.208-.684.411-1.02.625l-.016.01.64.64q.35-.524.69-1.055c.427-.663.85-1.331,1.247-2.012.161-.276.32-.554.458-.842a1.213,1.213,0,0,0,.191-.8.516.516,0,0,0-.642-.352,1.047,1.047,0,0,0-.28.142c-.209.137-.408.29-.606.441-.661.5-1.312,1.024-1.969,1.535l-.249.193.095-.073a21.938,21.938,0,0,1-1.951,1.409,2.818,2.818,0,0,1-.353.19l.112-.047a.6.6,0,0,1-.15.046l.124-.017a.191.191,0,0,1-.045,0l.124.017-.021-.006.112.047a.06.06,0,0,1-.015-.009l.095.073-.009-.009.073.095a.074.074,0,0,1-.008-.013l.047.112a.094.094,0,0,1-.006-.021l.017.124a.168.168,0,0,1,0-.04l-.016.124a.591.591,0,0,1,.047-.147l-.047.112a5.551,5.551,0,0,1,.311-.594c.168-.292.344-.579.522-.865.46-.738.935-1.465,1.412-2.192s.942-1.428,1.411-2.144c.291-.444.6-.885.854-1.351a1.113,1.113,0,0,0,.1-.232.494.494,0,0,0-.046-.381.482.482,0,0,0-.651-.168,1.313,1.313,0,0,0-.286.263c-.317.34-.627.687-.939,1.032q-.74.818-1.482,1.633-.867.948-1.745,1.885c-.569.6-1.144,1.205-1.731,1.792-.46.459-.925.916-1.421,1.337-.088.075-.178.149-.27.22l.095-.073a2.137,2.137,0,0,1-.455.292l.112-.047a.422.422,0,0,1-.1.031l.124-.017a.171.171,0,0,1-.044,0l.125.017a.1.1,0,0,1-.027-.007l.112.047-.018-.01.095.073a.086.086,0,0,1-.014-.014l.073.095a.1.1,0,0,1-.013-.023l.047.112a.16.16,0,0,1-.01-.038l.017.124a.357.357,0,0,1,0-.094l-.017.124a2.195,2.195,0,0,1,.178-.535l-.047.112c.14-.332.3-.653.473-.971.221-.416.453-.826.691-1.233q.412-.706.843-1.4.462-.751.937-1.494t.971-1.505q.472-.723.949-1.442.427-.643.858-1.284.354-.527.711-1.052.251-.37.5-.739c.079-.115.16-.228.237-.344l.01-.015a.469.469,0,0,0,.047-.361A.484.484,0,0,0,525.994.1a.469.469,0,0,0-.615.037l-.3.3-.811.8-1.2,1.183L521.6,3.856,520,5.432l-1.621,1.6-1.511,1.488-1.273,1.254-.921.907c-.144.142-.29.283-.433.426l-.019.018a.468.468,0,0,0,.662.662l.3-.3.811-.8L517.2,9.5l1.466-1.444,1.6-1.576,1.621-1.6L523.4,3.4l1.273-1.254.921-.907c.144-.142.29-.283.433-.426L526.041.8,525.306.23l-.2.289q-.271.4-.541.792-.4.593-.8,1.189-.488.727-.971,1.457-.539.815-1.071,1.635-.543.838-1.075,1.683-.508.807-1,1.624c-.288.48-.571.963-.841,1.453-.212.383-.418.771-.6,1.17a3.093,3.093,0,0,0-.326.976.608.608,0,0,0,.166.477.6.6,0,0,0,.576.14,1.77,1.77,0,0,0,.633-.356c.316-.242.615-.5.906-.775.35-.325.691-.661,1.028-1q.584-.588,1.153-1.189.6-.632,1.194-1.272.577-.622,1.148-1.249.512-.561,1.022-1.125l.8-.883c.167-.184.333-.368.5-.549a1.137,1.137,0,0,1,.122-.121l-.095.073.016-.01-.112.047h0l-.125.017h0L526.7,4.7h0l-.112-.047h0l-.095-.073h0l-.073-.095h0l-.047-.112v0l-.017-.124a.033.033,0,0,1,0,.006l.017-.124a.136.136,0,0,1-.011.033l.047-.112a2.022,2.022,0,0,1-.133.242c-.085.143-.174.283-.263.424-.267.42-.541.837-.815,1.253q-.513.78-1.027,1.559-.525.8-1.042,1.6c-.288.45-.575.9-.847,1.363a6.1,6.1,0,0,0-.5.966.575.575,0,0,0,.216.708.657.657,0,0,0,.586.011,5.825,5.825,0,0,0,1.131-.684c.517-.368,1.019-.756,1.521-1.145s.969-.759,1.455-1.138l.309-.24-.095.073c.277-.214.554-.436.849-.625a.9.9,0,0,1,.127-.072l-.112.047a.158.158,0,0,1,.034-.01l-.124.017h.018l-.124-.017.009,0-.112-.047.008,0-.095-.073.006.006-.073-.095,0,.008-.047-.112a.064.064,0,0,1,0,.017l-.017-.124a.174.174,0,0,1,0,.044l.017-.124a.934.934,0,0,1-.075.231l.047-.112a7.732,7.732,0,0,1-.409.789c-.2.345-.4.684-.61,1.022-.388.628-.786,1.249-1.191,1.866-.085.129-.17.259-.256.387a.471.471,0,0,0,.073.567.479.479,0,0,0,.567.073l1.133-.694q.968-.595,1.933-1.194l.389-.245a2.047,2.047,0,0,1,.249-.157l-.112.047a.145.145,0,0,1,.032-.009l-.124.017a.084.084,0,0,1,.023,0l-.125-.017.013,0-.112-.047.012.007-.095-.073.013.013-.073-.095a.122.122,0,0,1,.014.025l-.047-.112a.252.252,0,0,1,.014.055l-.017-.124a.939.939,0,0,1-.009.242l.017-.124a6,6,0,0,1-.206.867c-.075.255-.156.507-.242.758-.018.052-.036.1-.054.155a.468.468,0,0,0,.327.576.48.48,0,0,0,.576-.327" transform="translate(-300.912 0)" fill="#19cecd"/>
        <path id="パス_329" data-name="パス 329" d="M550.506,162.941q.517,2.81,1.174,5.593c.316,1.347.651,2.693,1.077,4.01a14.279,14.279,0,0,0,.609,1.6,7.7,7.7,0,0,0,1.4,2,10.561,10.561,0,0,0,3.009,2.258l-.331-.577q.177,1.461.354,2.921l.491-.645a33.7,33.7,0,0,1-4.218,1.3c-1.383.335-2.784.524-4.19.728a47.028,47.028,0,0,0-8.791,1.894,11.051,11.051,0,0,0-3.637,1.911,6.467,6.467,0,0,0-1.714,2.916,23.283,23.283,0,0,0-.791,7.226,100.25,100.25,0,0,1-.624,11.2c-.073.59-.152,1.166-.238,1.756a.691.691,0,0,0,.467.823.674.674,0,0,0,.823-.467,89.858,89.858,0,0,0,.9-12.038c.016-1.359.014-2.719.083-4.077.03-.587.076-1.173.148-1.757.024-.194-.02.132.008-.06.009-.066.019-.131.029-.2q.033-.213.072-.426.073-.4.172-.791t.217-.75a4.441,4.441,0,0,1,.272-.734c-.1.188,0,0,.024-.052s.053-.118.08-.176q.091-.2.19-.386c.058-.112.117-.225.182-.333.03-.049.06-.1.093-.144.02-.029.041-.056.06-.085.066-.1-.1.12-.019.024a5.234,5.234,0,0,1,.547-.555c.05-.043.1-.083.153-.125-.132.109,0,0,.059-.042q.179-.13.366-.247c.26-.164.529-.313.8-.45q.213-.106.43-.2l.223-.1c.155-.068-.135.055.023-.01l.139-.057a38.76,38.76,0,0,1,8.757-2.075c1.13-.171,2.267-.306,3.393-.505a33.373,33.373,0,0,0,5.554-1.528c.105-.038.21-.077.315-.117a.684.684,0,0,0,.491-.645l-.188-1.552q-.061-.506-.123-1.011c-.041-.344-.04-.733-.374-.936-.364-.22-.74-.411-1.094-.651-.167-.113-.33-.232-.492-.352-.146-.108.107.087-.038-.029l-.132-.105q-.158-.129-.312-.264a9.911,9.911,0,0,1-1.1-1.139c-.137-.166.07.1-.059-.075l-.079-.108q-.119-.164-.228-.335a6.165,6.165,0,0,1-.342-.6q-.042-.085-.081-.172l-.041-.092c-.038-.087-.068-.053.013.032a1.556,1.556,0,0,1-.178-.457c-.268-.727-.486-1.472-.69-2.218-.46-1.676-.843-3.373-1.2-5.074-.211-1-.416-2.007-.6-3.015a.674.674,0,0,0-.822-.467.683.683,0,0,0-.467.822" transform="translate(-318.068 -139.119)" fill="#060000"/>
        <path id="パス_330" data-name="パス 330" d="M684.23,104.931a11.682,11.682,0,0,0,2.15,2.01,16.834,16.834,0,0,0,6.183,2.968,18.567,18.567,0,0,0,5.316.507l-.577-.331.805,1.6c.13.257.254.518.389.772.083.156-.031-.128-.034-.085a.66.66,0,0,0,.03.152c.113.579.215,1.16.31,1.742q.107.656.2,1.314l.027.193c-.019-.141.01.075.011.084q.022.166.042.332.05.405.093.812a22.91,22.91,0,0,1,.154,2.951c-.005.208-.015.416-.033.623-.008.087-.018.174-.027.262-.017.173.029-.146,0,.02-.015.077-.026.156-.041.233a10.52,10.52,0,0,1-.568,1.892,13.322,13.322,0,0,1-1.365,2.521,1.277,1.277,0,0,0-.323.662c-.012.134-.014.269-.021.4q-.109,2.068-.218,4.136a.685.685,0,0,0,.491.645,33.788,33.788,0,0,0,4.123,1.274c1.39.341,2.8.536,4.212.74a48.783,48.783,0,0,1,8.654,1.832c.346.117.689.242,1.028.379.041.017.235.1.111.045l.212.092q.244.109.483.228c.276.138.548.287.809.452q.189.119.37.249c.036.027.191.148.055.039.06.048.121.1.179.147a4.665,4.665,0,0,1,.533.546c.06.071-.093-.138-.017-.02.015.023.032.044.047.066q.046.066.088.135c.069.114.131.232.192.35s.125.247.184.372q.039.083.076.166c.012.028.024.056.037.083.066.144-.055-.14,0,.007.1.244.191.488.272.738a11.8,11.8,0,0,1,.388,1.555q.035.193.065.388c.011.069.02.139.031.208.005.037.017.131,0-.038.006.047.012.094.018.141q.05.409.083.819c.107,1.293.116,2.593.129,3.889a97.661,97.661,0,0,0,.649,11.221q.12.948.259,1.892a.673.673,0,0,0,.823.467.686.686,0,0,0,.467-.823,88.37,88.37,0,0,1-.851-11.88,31.294,31.294,0,0,0-.583-7.571,8.325,8.325,0,0,0-1.422-3.128,7.863,7.863,0,0,0-3.167-2.059,37.622,37.622,0,0,0-8.812-2.126c-1.152-.175-2.31-.313-3.458-.514a33.3,33.3,0,0,1-5.577-1.529c-.112-.041-.223-.081-.333-.124l.491.645.24-4.541-.091.338a13.337,13.337,0,0,0,1.731-3.164,9.791,9.791,0,0,0,.678-2.656,13.513,13.513,0,0,0,.023-1.989,41.909,41.909,0,0,0-.514-4.531q-.124-.783-.269-1.562a3.577,3.577,0,0,0-.149-.678c-.175-.435-.423-.851-.634-1.269l-.625-1.238a.656.656,0,0,0-.578-.331,17.213,17.213,0,0,1-4.489-.349,16.594,16.594,0,0,1-1.905-.535q-.444-.154-.878-.333c-.112-.046.031.014-.079-.033l-.205-.09q-.215-.1-.427-.2a16.139,16.139,0,0,1-2.582-1.557l-.132-.1c-.033-.025-.17-.132-.028-.021-.081-.063-.162-.127-.241-.192q-.221-.179-.436-.367-.347-.3-.673-.63a7.562,7.562,0,0,1-.628-.69.672.672,0,0,0-.946,0,.686.686,0,0,0,0,.946" transform="translate(-446.775 -89.077)" fill="#060000"/>
        <path id="パス_331" data-name="パス 331" d="M675.983,299.65a7.327,7.327,0,0,0,.259.689,13.4,13.4,0,0,0,.905,1.8,11.969,11.969,0,0,0,1.626,2.117,9.393,9.393,0,0,0,2.445,1.829,9.033,9.033,0,0,0,3.517.956,9.054,9.054,0,0,0,6.589-2.16,10.919,10.919,0,0,0,1.875-2.083,11.94,11.94,0,0,0,1.03-1.768,10.488,10.488,0,0,0,.468-1.129c.005-.015.01-.03.015-.045a.675.675,0,0,0-.467-.823.683.683,0,0,0-.823.467c-.038.121-.084.24-.13.358-.029.073-.058.145-.088.217l.067-.16a11.839,11.839,0,0,1-1.044,1.94q-.225.34-.474.663l.1-.135a10.182,10.182,0,0,1-1.318,1.414q-.221.195-.454.375l.135-.1a8.468,8.468,0,0,1-1.858,1.091l.16-.068a8.368,8.368,0,0,1-2.135.578l.178-.024a9.193,9.193,0,0,1-2.416,0l.178.024a8.2,8.2,0,0,1-2.071-.563l.16.067a8.359,8.359,0,0,1-1.836-1.077l.135.1a9.7,9.7,0,0,1-1.436-1.374q-.174-.2-.337-.415l.1.135a12.2,12.2,0,0,1-1.358-2.221q-.113-.238-.216-.481l.067.16c-.092-.219-.18-.44-.253-.666l-.012-.038a.7.7,0,0,0-.307-.4.669.669,0,0,0-.982.755" transform="translate(-439.838 -256.447)" fill="#060000"/>
        <path id="パス_332" data-name="パス 332" d="M879.125,404.666q0,.166-.006.332-.009.448-.017.9-.013.667-.025,1.333-.015.808-.031,1.615-.017.891-.034,1.781t-.034,1.786q-.016.838-.032,1.676-.013.7-.027,1.407-.01.509-.019,1.019c0,.16-.007.32-.009.48,0,.007,0,.014,0,.021a.669.669,0,0,0,.669.669.676.676,0,0,0,.473-.2.705.705,0,0,0,.2-.473q0-.166.006-.332.009-.448.017-.9.012-.667.025-1.333.015-.808.031-1.615.017-.891.034-1.781t.034-1.786q.016-.838.032-1.677.013-.7.026-1.407.01-.51.019-1.019c0-.16.007-.32.009-.48v-.021a.669.669,0,0,0-.669-.669.676.676,0,0,0-.473.2.7.7,0,0,0-.2.473" transform="translate(-614.007 -346.728)" fill="#060000"/>
        <path id="パス_333" data-name="パス 333" d="M603.343,404.666c0,.111,0,.221.006.332q.009.448.017.9.013.667.025,1.333.015.808.031,1.615.017.891.034,1.781t.034,1.786q.016.838.032,1.676.013.7.027,1.407.01.509.019,1.019c0,.16.005.32.009.48,0,.007,0,.014,0,.021a.7.7,0,0,0,.2.473.669.669,0,0,0,1.142-.473q0-.166-.006-.332-.008-.448-.017-.9l-.025-1.333q-.015-.808-.031-1.615l-.034-1.781q-.017-.893-.034-1.786-.016-.838-.032-1.677-.013-.7-.027-1.407-.01-.51-.019-1.019c0-.16-.005-.32-.009-.48v-.021a.694.694,0,0,0-.2-.473.669.669,0,0,0-1.142.473" transform="translate(-377.518 -346.728)" fill="#060000"/>
        <path id="パス_338" data-name="パス 338" d="M680.057,114.216c.014.05.031.1.047.149.047.139.1.278.151.415q.155.4.333.783.187.407.4.8.254.467.544.913c.248.382.518.748.8,1.106a12.625,12.625,0,0,0,.874,1,12.044,12.044,0,0,0,1.06.967,12.865,12.865,0,0,0,1.382.983,11.524,11.524,0,0,0,1.479.761c.177.076.355.15.535.22a.505.505,0,0,0,.267.012.5.5,0,0,0,.249-.079.669.669,0,0,0,.24-.915l-.1-.135a.667.667,0,0,0-.3-.172q-.166-.064-.329-.133l.16.067a11.566,11.566,0,0,1-2.07-1.134q-.256-.177-.5-.367l.135.1a12.185,12.185,0,0,1-1.8-1.72q-.207-.242-.4-.495l.1.135a13.394,13.394,0,0,1-.88-1.289q-.33-.549-.606-1.127-.124-.259-.235-.523l.068.16c-.11-.26-.213-.525-.3-.795l-.014-.045a.7.7,0,0,0-.307-.4.683.683,0,0,0-.515-.067.676.676,0,0,0-.4.307.691.691,0,0,0-.068.515" transform="translate(-443.336 -97.299)" fill="#060000"/>
        <path id="パス_339" data-name="パス 339" d="M713.189,194.246l.1.408.233.98.282,1.186.244,1.026c.039.167.076.334.119.5l0,.007a.669.669,0,0,0,.823.467.677.677,0,0,0,.4-.307.716.716,0,0,0,.067-.515l-.1-.408-.233-.98-.282-1.186L714.6,194.4c-.04-.167-.077-.334-.119-.5l0-.007a.669.669,0,0,0-.823-.467.676.676,0,0,0-.4.307.715.715,0,0,0-.068.515" transform="translate(-471.775 -165.984)" fill="#060000"/>
        <path id="パス_340" data-name="パス 340" d="M682.076,198a2.415,2.415,0,0,0,.569-.085,3.133,3.133,0,0,0,.438-.147,4.778,4.778,0,0,0,.7-.349.7.7,0,0,0,.307-.4.683.683,0,0,0-.067-.515.674.674,0,0,0-.4-.307.685.685,0,0,0-.515.067,3.875,3.875,0,0,1-.524.274l.16-.067a2.8,2.8,0,0,1-.708.2l.178-.024a1.071,1.071,0,0,1-.137.012.69.69,0,0,0-.473.2.669.669,0,0,0,0,.946.694.694,0,0,0,.473.2" transform="translate(-444.516 -168.369)" fill="#060000"/>
        <path id="パス_341" data-name="パス 341" d="M742.1,184.112c.137,0,.274-.01.41-.024a5.373,5.373,0,0,0,1.036-.186,3.236,3.236,0,0,0,.651-.273.669.669,0,0,0,.24-.915.675.675,0,0,0-.4-.307.706.706,0,0,0-.515.067,2.2,2.2,0,0,1-.223.109l.16-.067a3.733,3.733,0,0,1-.934.236l.178-.024a4.641,4.641,0,0,1-.6.046.69.69,0,0,0-.473.2.669.669,0,0,0,0,.946.7.7,0,0,0,.473.2" transform="translate(-496.029 -156.532)" fill="#060000"/>
        <path id="パス_342" data-name="パス 342" d="M626.708,81.4c.08-.61.134-1.225.186-1.838.139-1.641.222-3.287.263-4.933q.09-3.6-.1-7.192-.113-2.075-.327-4.144a26.2,26.2,0,0,1-.151-3.6q.027-.8.112-1.6.019-.18.042-.36c0-.033.028-.2.015-.114s0-.013.005-.037c.006-.042.012-.083.018-.124q.052-.353.117-.7a18.488,18.488,0,0,1,.662-2.553c.125-.368.263-.731.411-1.091.044-.108-.059.138,0,0l.052-.119q.058-.134.119-.266.106-.231.22-.459a15.07,15.07,0,0,1,.9-1.57q.2-.31.424-.608l.1-.127.053-.07c-.034.046-.115.147-.039.051.06-.076.12-.151.181-.225.18-.218.367-.43.566-.63s.364-.38.551-.565a11.487,11.487,0,0,1,.942-.822c.078-.062-.149.113-.04.031l.077-.058.171-.126q.182-.132.369-.257.406-.272.832-.512.475-.268.972-.494c.083-.038.167-.075.251-.111.136-.059-.1.042.005,0l.15-.061q.289-.115.584-.216a12.816,12.816,0,0,1,1.251-.359q.33-.077.664-.137.166-.029.332-.055c.064-.01.13-.016.193-.028,0,0-.133.017-.056.008l.123-.015a14.11,14.11,0,0,1,3.178,0l.205.024.059.007.03,0c.161.023.321.048.481.075s.3.054.455.085q.3.06.59.132.589.145,1.164.341.289.1.573.211l.135.054.067.028c.127.052-.158-.068-.054-.023s.185.081.277.122a12.223,12.223,0,0,1,2.181,1.284l.134.1.062.047c-.052-.038-.143-.112-.047-.036s.177.141.264.213q.257.213.5.439a13.852,13.852,0,0,1,1,1.018q.245.277.477.566l.111.141c.019.024.092.119.011.014s0,0,.019.025q.119.157.234.316c.316.437.611.89.887,1.354.3.5.574,1.016.83,1.541q.2.418.392.843l.091.208.045.1.026.06c.03.069-.07-.169-.023-.054.062.149.123.3.182.447a34.637,34.637,0,0,1,1.33,4.117c.431,1.659.763,3.342,1.028,5.035.074.47.132.942.206,1.412-.029-.188,0,.03.009.068l.019.148q.026.2.05.4.045.367.087.735.181,1.588.3,3.182c.182,2.376.277,4.758.312,7.14q.028,1.932.006,3.865a.669.669,0,1,0,1.337,0c.027-2.6,0-5.194-.123-7.788-.1-2.206-.265-4.41-.521-6.6-.223-1.911-.51-3.815-.9-5.7a41.875,41.875,0,0,0-1.2-4.573,29.2,29.2,0,0,0-1.552-3.832,19.383,19.383,0,0,0-1.74-2.891,15.394,15.394,0,0,0-2.05-2.306,12.919,12.919,0,0,0-4.665-2.739,15.541,15.541,0,0,0-3.378-.708,13.994,13.994,0,0,0-6,.661,13.575,13.575,0,0,0-3.879,2.1,12.685,12.685,0,0,0-1.341,1.232c-.262.271-.526.532-.766.824a14.761,14.761,0,0,0-1.81,2.8,18.235,18.235,0,0,0-1.59,4.748,23.393,23.393,0,0,0-.234,6.815q.425,4.018.467,8.064.038,3.109-.136,6.215c-.067,1.172-.154,2.343-.282,3.51-.017.154-.034.308-.054.462a.67.67,0,0,0,.669.669.69.69,0,0,0,.669-.669" transform="translate(-396.302 -37.669)" fill="#060000"/>
        <path id="パス_343" data-name="パス 343" d="M729.168,164.824l1.13-.4,1.787-.631.408-.144a.714.714,0,0,0,.4-.307.669.669,0,0,0-.24-.915.664.664,0,0,0-.515-.067l-1.13.4-1.786.631-.408.144a.715.715,0,0,0-.4.307.684.684,0,0,0-.067.515.676.676,0,0,0,.307.4.663.663,0,0,0,.515.067" transform="translate(-484.78 -139.322)" fill="#060000"/>
        <path id="パス_344" data-name="パス 344" d="M675.39,168.068c-.145.131-.3.252-.453.372l.135-.1a8.275,8.275,0,0,1-1.6,1,.672.672,0,0,0-.307.4.684.684,0,0,0,.067.515.676.676,0,0,0,.4.307l.178.024a.665.665,0,0,0,.338-.091,9.2,9.2,0,0,0,2.052-1.356c.046-.039.092-.077.137-.118a.669.669,0,0,0-.473-1.142.73.73,0,0,0-.473.2" transform="translate(-437.422 -144.075)" fill="#060000"/>
        <path id="パス_345" data-name="パス 345" d="M728.478,244.6c.314-.07.63-.129.947-.182q.22-.037.44-.067l-.178.024a3.656,3.656,0,0,1,.93-.049l-.178-.024.03,0a.507.507,0,0,0,.267.012.5.5,0,0,0,.249-.079.669.669,0,0,0,.24-.915.649.649,0,0,0-.4-.307,2.776,2.776,0,0,0-.629-.032c-.256.016-.511.051-.765.087-.362.051-.722.117-1.081.19l-.228.048a.669.669,0,0,0-.16,1.222.725.725,0,0,0,.515.067" transform="translate(-484.188 -208.535)" fill="#060000"/>
        <path id="パス_354" data-name="パス 354" d="M590.224,344.157H603.38l7.693-25.977-6.355-.669Z" transform="translate(-366.258 -272.502)" fill="#fff000"/>
        <path id="パス_358" data-name="パス 358" d="M660.306,220.332s1.289-3.708-.858-6.57-3.271-4.089-3.271-4.089-1.943-5.827-3.169-5.725-1.942-.613-2.863-.409a4.6,4.6,0,0,0-1.738.92l-.818,1.329,1.738,7.259,5.418,5.111-.794,1.505Z" transform="translate(-415.492 -174.654)" fill="#fff"/>
        <path id="パス_365" data-name="パス 365" d="M589.044,243.572l.395-.739,1.081-2.024,1.591-2.98,1.941-3.635,2.126-3.982,2.156-4.038,2-3.748,1.692-3.169,1.222-2.289c.192-.359.391-.716.576-1.079l.025-.046a.685.685,0,0,0-.1-.81c-1.528-1.47-3.057-2.951-4.49-4.514-.168-.183-.334-.367-.494-.557-.059-.07-.113-.145-.174-.214.178.2,0,0-.039-.064s-.062-.114-.091-.173c-.064-.126.069.182.01.022-.02-.054-.04-.107-.059-.161-.084-.241-.153-.488-.218-.735a41.4,41.4,0,0,1-.824-4.1q-.043-.27-.082-.54c-.013-.09-.026-.18-.038-.27a.7.7,0,0,1-.01-.074c.008.222.007.055,0,0-.032-.247-.062-.495-.08-.744-.005-.078-.007-.155-.009-.233a.431.431,0,0,0,0-.071l-.015.122q.031-.108-.026.041.055-.091-.04.045.076-.07-.053.04c.083-.057-.055.021-.064.025a.59.59,0,0,1,.069-.018c-.119.013-.142.017-.07.011.034,0,.074,0,.108,0,.177,0-.11-.029-.008,0a2.418,2.418,0,0,1,.236.058.672.672,0,0,0,.846-.645,3.466,3.466,0,0,1,0-.57c0-.018.018-.132,0-.042s.014-.063.016-.067c.014-.063.081-.207.011-.081a.418.418,0,0,0,.045-.084.319.319,0,0,1-.114.126q-.076.053-.033.027c.064-.038-.148.06-.074.033.1-.036-.019.051-.06,0a.76.76,0,0,0,.153,0c.119,0-.114-.025-.033-.006.028.007.057.01.085.016a3.325,3.325,0,0,1,.353.095c.1.033.2.07.3.108.172.066-.13-.058-.02-.009a.7.7,0,0,0,.81-.1l.258-.248c.032-.031.065-.061.1-.092l.056-.054q-.145.1-.078.062s-.116.039-.157.048c-.118.027-.04,0,0,.006-.018,0-.165-.042-.084-.009a.448.448,0,0,0,.082.025c.065.012-.116-.065-.059-.024.025.018.059.03.086.045.047.027.093.056.138.086.029.019.056.043.086.061.072.043-.1-.083-.035-.027.09.08.184.154.272.236s.19.182.277.279a.656.656,0,0,0,.651.172l.157-.055.319-.112.274-.1a.693.693,0,0,0,.15-.052l.026-.007-.152.02c.118,0-.128-.025-.1-.02.1.024,0,.04-.082-.041a.4.4,0,0,0,.066.037c.12.073-.121-.118-.044-.035.046.05.1.094.142.146s.078.147-.015-.024a1.359,1.359,0,0,0,.083.114,8.081,8.081,0,0,1,.641,1.15c.11.231.216.464.317.7.025.058.053.116.075.175-.05-.136-.015-.037.015.035q.08.194.159.389.422,1.053.788,2.129a1.414,1.414,0,0,0,.32.53q.426.451.846.909.641.7,1.265,1.411.34.389.671.785.141.169.279.339l.139.174c.036.045.174.224.07.088a4.75,4.75,0,0,1,.435.629c.024.046.047.093.07.14.083.164-.034-.1.022.047.049.129.1.258.135.391a7.842,7.842,0,0,1,.2.851q.041.219.073.44c0,.033.009.066.014.1.016.1-.02-.169,0,0,.01.083.02.165.029.248a21.355,21.355,0,0,1,.113,2.808c0,.036,0,.073,0,.11,0,.093-.053,0,.023-.145a.318.318,0,0,0-.011.036c-.027.074-.046.152-.069.227l-.828,2.732-1.468,4.846-1.762,5.817-1.75,5.777-1.39,4.589-.708,2.336-.032.1a.675.675,0,0,0,.467.823.683.683,0,0,0,.823-.467l.359-1.184.938-3.1,1.325-4.375,1.5-4.963,1.494-4.931,1.274-4.206.865-2.855a4.524,4.524,0,0,0,.287-1.193,22.409,22.409,0,0,0-.065-2.275,9.774,9.774,0,0,0-.657-3.151,5.5,5.5,0,0,0-.775-1.163c-.335-.426-.685-.839-1.04-1.248-.646-.744-1.31-1.473-1.982-2.192q-.172-.183-.344-.366l.172.3c-.283-.851-.6-1.694-.939-2.523a19.525,19.525,0,0,0-.887-1.93,3.161,3.161,0,0,0-1.013-1.26c-.543-.323-1.132.019-1.664.206l.651.172a3.682,3.682,0,0,0-1.147-.912,1.116,1.116,0,0,0-1.26.115c-.146.127-.281.269-.42.4l.81-.1a2.846,2.846,0,0,0-1.793-.35c-.808.226-.92,1.239-.849,1.951l.847-.645a1.885,1.885,0,0,0-.853-.082,1.105,1.105,0,0,0-.978,1.067,7.243,7.243,0,0,0,.129,1.351c.194,1.431.451,2.859.774,4.266a12.069,12.069,0,0,0,.458,1.643,3.737,3.737,0,0,0,.716,1.116c.864,1,1.816,1.938,2.754,2.872q1.069,1.065,2.155,2.112-.052-.405-.1-.81l-.395.739-1.081,2.024-1.591,2.98-1.941,3.635-2.126,3.982-2.156,4.038-2,3.749-1.692,3.169-1.222,2.289c-.192.359-.389.716-.576,1.078l-.025.047a.669.669,0,0,0,1.155.675" transform="translate(-364.182 -171.753)" fill="#060000"/>
        <path id="パス_366" data-name="パス 366" d="M692.865,313.336l.563.065,1.35.156,1.627.189,1.407.163c.229.027.458.058.687.08h.01a.744.744,0,0,0,.473-.2.669.669,0,0,0,0-.946l-.135-.1a.667.667,0,0,0-.337-.091l-.562-.065-1.35-.156-1.627-.189-1.407-.163c-.229-.027-.458-.058-.687-.08h-.01a.743.743,0,0,0-.473.2.668.668,0,0,0,0,.946l.135.1a.665.665,0,0,0,.338.091" transform="translate(-453.775 -267.771)" fill="#060000"/>
        <path id="パス_367" data-name="パス 367" d="M651.266,211.453l.13.509.313,1.228.378,1.48.327,1.284c.053.207.1.414.158.621l0,.009a.669.669,0,0,0,.823.467.677.677,0,0,0,.4-.307.707.707,0,0,0,.067-.515l-.13-.509-.313-1.228-.378-1.48-.327-1.284c-.053-.207-.1-.414-.158-.621l0-.008a.669.669,0,0,0-.823-.467.676.676,0,0,0-.4.307.707.707,0,0,0-.067.515" transform="translate(-418.628 -180.752)" fill="#060000"/>
        <path id="パス_368" data-name="パス 368" d="M662.819,204.229l.138.628.332,1.508.4,1.825.347,1.578c.056.256.109.512.169.767l0,.011a.669.669,0,0,0,1.222.16.728.728,0,0,0,.067-.515l-.138-.628-.332-1.508-.4-1.825-.347-1.578c-.056-.256-.109-.512-.169-.767l0-.011a.669.669,0,0,0-1.222-.16.727.727,0,0,0-.068.515" transform="translate(-428.546 -174.552)" fill="#060000"/>
        <path id="パス_369" data-name="パス 369" d="M676.089,207.007l.139.608.332,1.453.4,1.762.347,1.518c.056.245.109.492.168.736l0,.01a.669.669,0,0,0,1.222.16.722.722,0,0,0,.067-.515l-.139-.608-.332-1.453-.4-1.762-.347-1.518c-.056-.245-.109-.492-.168-.736l0-.01a.669.669,0,0,0-1.222-.16.721.721,0,0,0-.068.515" transform="translate(-439.934 -176.936)" fill="#060000"/>
      </g>
      <g id="グループ_2635" data-name="グループ 2635" transform="translate(514.325 1590.481)">
        <path id="パス_119" data-name="パス 119" d="M299.974,313.6a9.458,9.458,0,1,1-11.99-5.928,9.458,9.458,0,0,1,11.99,5.928" transform="translate(-225.884 -246.37)" fill="#fff"/>
        <path id="パス_120" data-name="パス 120" d="M282.983,319.113a10.528,10.528,0,1,1,3.373-.558,10.516,10.516,0,0,1-3.373.558m0-18.922a8.4,8.4,0,1,0,7.951,5.708,8.384,8.384,0,0,0-7.951-5.708" transform="translate(-217.853 -238.325)" fill="#d3faf8"/>
        <path id="パス_136" data-name="パス 136" d="M324.964,340.484a1.064,1.064,0,0,0-1.348-.666l-2.417.818-.33-.975,2.416-.818a1.063,1.063,0,0,0-.681-2.014l-2.221.751,1.759-3.559a1.063,1.063,0,1,0-1.906-.942l-1.613,3.262-3.262-1.613a1.063,1.063,0,0,0-.942,1.906l3.559,1.759-2.221.751a1.063,1.063,0,1,0,.681,2.014l2.416-.818.33.975-2.417.818a1.063,1.063,0,1,0,.681,2.014l2.416-.818.393,1.161a1.063,1.063,0,0,0,2.014-.681l-.393-1.161,2.417-.818a1.063,1.063,0,0,0,.666-1.348" transform="translate(-254.391 -268.73)" fill="#8e9798"/>
      </g>
      <g id="グループ_2637" data-name="グループ 2637" transform="translate(182.238 1615.911)">
        <path id="パス_41" data-name="パス 41" d="M1960.981,344.269l6.891-.746,2.052-1.9,8.578,2.649,3.135,8.144-7.132,5.5-.712,1.762-9.4-2.663-2.752-1.447-3.74-3.73Z" transform="translate(-1572.523 -274.776)" fill="#fff"/>
        <path id="パス_54" data-name="パス 54" d="M1909.321,329.958a.709.709,0,0,0-.393-.374l-3.09-1.189a.708.708,0,0,0-.917.407l-4.443,11.543a.709.709,0,0,0,.407.917l3.09,1.189a.709.709,0,0,0,.917-.407l4.443-11.543a.709.709,0,0,0-.014-.543" transform="translate(-1519.528 -262.537)" fill="#d3faf8"/>
        <path id="パス_55" data-name="パス 55" d="M2213.407,340.352l-4.443-11.543a.709.709,0,0,0-.917-.407l-3.089,1.189a.709.709,0,0,0-.407.917l4.442,11.543a.71.71,0,0,0,.917.407l3.09-1.189a.709.709,0,0,0,.407-.917" transform="translate(-1799.92 -262.544)" fill="#d3faf8"/>
        <path id="パス_82" data-name="パス 82" d="M2011.526,354.824a.709.709,0,0,1-.113-1.41l4.99-.809a.709.709,0,1,1,.227,1.4l-4.99.809a.71.71,0,0,1-.115.009" transform="translate(-1621.318 -284.898)" fill="#8e9798"/>
        <path id="パス_83" data-name="パス 83" d="M2105.154,442.483a.707.707,0,0,1-.284-.06l-6.4-2.8a.709.709,0,1,1,.57-1.3l6.4,2.8a.709.709,0,0,1-.285,1.359" transform="translate(-1701.757 -363.89)" fill="#8e9798"/>
        <path id="パス_84" data-name="パス 84" d="M2100.221,477.858a.706.706,0,0,1-.263-.051l-5.461-2.181a.709.709,0,0,1,.527-1.317l5.46,2.181a.709.709,0,0,1-.263,1.368" transform="translate(-1698.07 -397.085)" fill="#8e9798"/>
        <path id="パス_85" data-name="パス 85" d="M2039.462,340.149a.71.71,0,0,1-.457-.167l-1.713-1.441a.71.71,0,0,1-.026-1.063l5.151-4.775a.711.711,0,0,1,.7-.153l7.524,2.485a.709.709,0,0,1-.445,1.347l-7.127-2.353-4.255,3.944.76.639,4.053-1.8a.709.709,0,1,1,.574,1.3l-4.458,1.975a.706.706,0,0,1-.287.061" transform="translate(-1645.498 -266.38)" fill="#8e9798"/>
        <path id="パス_86" data-name="パス 86" d="M2169.467,498.811a.709.709,0,0,1-.438-1.267l4.382-3.441a.709.709,0,1,1,.876,1.116l-4.381,3.441a.709.709,0,0,1-.438.151" transform="translate(-1766.958 -415.245)" fill="#8e9798"/>
        <path id="パス_87" data-name="パス 87" d="M2098.95,516.193a.708.708,0,0,1-.2-.029l-2.084-.611a.709.709,0,1,1,.4-1.361l1.374.4.454-1.836-1.27-.59a.709.709,0,0,1,.6-1.286l1.8.836a.709.709,0,0,1,.39.813l-.772,3.122a.709.709,0,0,1-.689.539" transform="translate(-1700.012 -430.796)" fill="#8e9798"/>
        <path id="パス_88" data-name="パス 88" d="M2067.135,504.181a.708.708,0,0,1-.2-.029l-2.273-.667a.709.709,0,1,1,.4-1.361l1.563.458.524-2.12-1.432-.666a.709.709,0,0,1,.6-1.286l1.962.912a.709.709,0,0,1,.389.813l-.842,3.406a.71.71,0,0,1-.689.539" transform="translate(-1670.5 -419.387)" fill="#8e9798"/>
        <path id="パス_89" data-name="パス 89" d="M2035.4,490.587a.708.708,0,0,1-.2-.029l-2.539-.745a.709.709,0,0,1,.4-1.361l1.828.536.622-2.517-1.662-.772a.709.709,0,0,1,.6-1.286l2.191,1.018a.709.709,0,0,1,.39.814l-.94,3.8a.711.711,0,0,1-.689.539" transform="translate(-1640.995 -406.387)" fill="#8e9798"/>
        <path id="パス_90" data-name="パス 90" d="M2077.2,535.747l-.127.515.159-.5Z" transform="translate(-1682.418 -453.785)" fill="#8e9798"/>
        <path id="パス_91" data-name="パス 91" d="M1969.557,482.38l.547-1.263-.459-.155-2.265-2.465a.709.709,0,0,0-1.045.96l2.389,2.6a.706.706,0,0,0,.295.192l.912.309Z" transform="translate(-1580.127 -400.782)" fill="#8e9798"/>
        <path id="パス_92" data-name="パス 92" d="M2109.607,405.54l-7.789-3.388a.709.709,0,1,0-.566,1.3l7.156,3.112-3.228,7.992-1.623-.549-.3,1.219-2.084-.611.4-1.279-.281-.1-.342,1.381-.014,0,4.421,1.5a.709.709,0,0,0,.885-.406l3.737-9.253a.709.709,0,0,0-.375-.916" transform="translate(-1704.317 -330.54)" fill="#8e9798"/>
        <path id="パス_93" data-name="パス 93" d="M2003.962,477.635a.711.711,0,0,1-.3-.067l-2.441-1.147a.709.709,0,0,1-.349-.924l1.714-3.961a.709.709,0,0,1,.974-.35l2.014,1.031a.709.709,0,0,1,.353.845l-1.287,4.077a.709.709,0,0,1-.676.5m-1.517-2.206,1.085.51.863-2.732-.807-.413Z" transform="translate(-1612.092 -394.18)" fill="#8e9798"/>
        <path id="パス_94" data-name="パス 94" d="M2137.708,528.217a.709.709,0,0,1-.224-.037l-1.893-.631a.709.709,0,1,1,.449-1.346l1.893.631a.709.709,0,0,1-.224,1.382" transform="translate(-1735.927 -444.951)" fill="#8e9798"/>
      </g>
    </g>
  </g>
</svg>
