<svg xmlns="http://www.w3.org/2000/svg" xmlns:xlink="http://www.w3.org/1999/xlink" width="98.267" height="81.413" viewBox="0 0 98.267 81.413">
  <defs>
    <clipPath id="clip-path">
      <rect id="長方形_29" data-name="長方形 29" width="82.865" height="69.554" fill="none"/>
    </clipPath>
  </defs>
  <g id="worries-item02_illust_sp" transform="translate(-2.473 1.859)">
    <g id="グループ_2631" data-name="グループ 2631" transform="translate(-111.925 12)">
      <path id="パス_42" data-name="パス 42" d="M642.007,104.3h0a1.645,1.645,0,0,1-2.236-.942l-.613-1.256-.028.014c-1.037-2.126-4.368-1.278-5.9-4.423a4.974,4.974,0,1,1,8.955-4.281c1.534,3.145-1.225,5.83-.168,7.472h0l.633,1.158a1.6,1.6,0,0,1-.638,2.3Z" transform="translate(-512.686 -82.166)" fill="#fff"/>
      <path id="パス_45" data-name="パス 45" d="M642.091,134.169s6.454-4.769,9.455.562c0,0,6.458-2.495,6.123,4.984a2.6,2.6,0,0,1,2.014,2.9c-.176,2.49-4.824,3.367-4.824,3.367s-.566,5.521-7.713,2.3c0,0-3.492,4.538-7.882,1.008l-1.443,2.989-3.126-1.221.961-3.507s-5.944-.335-2.522-4.056c0,0-3.013-2.163.921-6.179Z" transform="translate(-512.119 -120.308)" fill="#fff"/>
      <path id="パス_123" data-name="パス 123" d="M648.828,3.906a.82.82,0,0,1-.8-.667L647.6.975a.82.82,0,1,1,1.611-.3l.428,2.263a.82.82,0,0,1-.806.972" transform="translate(-526.269 -0.003)" fill="#a2efef"/>
      <path id="パス_124" data-name="パス 124" d="M604.529,17.471a.819.819,0,0,1-.681-.363l-1.655-2.465a.82.82,0,0,1,1.361-.913l1.654,2.465a.82.82,0,0,1-.68,1.277" transform="translate(-484.839 -12.163)" fill="#a2efef"/>
      <path id="パス_125" data-name="パス 125" d="M573.489,52.387a.815.815,0,0,1-.446-.133l-1.9-1.238a.82.82,0,0,1,.894-1.374l1.9,1.239a.82.82,0,0,1-.448,1.507" transform="translate(-456.368 -45.054)" fill="#a2efef"/>
      <path id="パス_126" data-name="パス 126" d="M632.992,96.827a2.572,2.572,0,0,1-2.282-1.571l-.521-1.067a.738.738,0,0,1-.119-.174c-.309-.635-.955-.905-1.982-1.294a6.224,6.224,0,0,1-3.92-3.129,5.889,5.889,0,0,1,2.558-8.015,5.655,5.655,0,0,1,2.5-.585,6.016,6.016,0,0,1,5.374,3.5,6.786,6.786,0,0,1,.013,5.279c-.3,1-.477,1.625-.229,2.009a.835.835,0,0,1,.043.076l.633,1.256a2.852,2.852,0,0,1,.252,1.911,2.3,2.3,0,0,1-1.177,1.5.789.789,0,0,1-.088.051,2.382,2.382,0,0,1-1.05.25m-1.56-3.739a.742.742,0,0,1,.138.193l.613,1.256a1,1,0,0,0,.809.65.722.722,0,0,0,.275-.059c.019-.012.039-.022.06-.032a.668.668,0,0,0,.388-.457,1.214,1.214,0,0,0-.127-.8l-.611-1.212c-.637-1.033-.281-2.2.064-3.335a5.21,5.21,0,0,0,.082-4.083,4.39,4.39,0,0,0-3.9-2.581,4.027,4.027,0,0,0-1.778.419,4.269,4.269,0,0,0-1.8,5.823,4.672,4.672,0,0,0,3.026,2.314,4.781,4.781,0,0,1,2.765,1.9" transform="translate(-504.362 -73.703)" fill="#a2efef"/>
      <path id="パス_127" data-name="パス 127" d="M700.848,206.654a.82.82,0,0,1-.36-1.557l2.706-1.319a.82.82,0,1,1,.719,1.473l-2.706,1.319a.817.817,0,0,1-.359.083" transform="translate(-573.996 -185.363)" fill="#a2efef"/>
      <path id="パス_149" data-name="パス 149" d="M628.411,248.826a6.257,6.257,0,0,1-1.372-.146,2.841,2.841,0,0,1-2.449-2.485,3.088,3.088,0,0,1,.657-2.377,3.977,3.977,0,0,1,2.6-1.24.82.82,0,0,1,.109,1.636,2.366,2.366,0,0,0-1.464.667,1.46,1.46,0,0,0-.276,1.142c.023.221.085.807,1.186,1.059a4.83,4.83,0,0,0,1.372.09.82.82,0,1,1,.174,1.63c-.018,0-.226.023-.541.023" transform="translate(-505.327 -220.745)" fill="#8e9798"/>
      <path id="パス_150" data-name="パス 150" d="M656.467,299.689a.815.815,0,0,1-.3-.056l-3.126-1.221a.82.82,0,0,1-.475-1.035l1.24-3.534a.82.82,0,0,1,1.547.543l-.978,2.787,1.682.657,1.512-3.132a.82.82,0,0,1,1.476.713l-1.842,3.815a.82.82,0,0,1-.738.464" transform="translate(-530.765 -266.899)" fill="#8e9798"/>
      <path id="パス_151" data-name="パス 151" d="M711.542,307.561a5.987,5.987,0,0,1-3.468-1.154.82.82,0,0,1,.937-1.345c3.387,2.358,6.272-.893,6.394-1.032a.82.82,0,0,1,1.243,1.069,7.12,7.12,0,0,1-5.105,2.462" transform="translate(-580.998 -276.41)" fill="#8e9798"/>
      <path id="パス_152" data-name="パス 152" d="M623.048,205.639a.816.816,0,0,1-.543-.206,3.725,3.725,0,0,1-1.4-2.684,3.9,3.9,0,0,1,1.072-2.682.82.82,0,0,1,1.169,1.149,2.307,2.307,0,0,0-.6,1.49,2.175,2.175,0,0,0,.851,1.5.82.82,0,0,1-.544,1.433" transform="translate(-502.172 -181.841)" fill="#8e9798"/>
      <path id="パス_153" data-name="パス 153" d="M786.68,264.813c-2.31,0-4.77-1.12-5.148-3.141a3.067,3.067,0,0,1,1.663-3.324.82.82,0,0,1,.71,1.478,1.428,1.428,0,0,0-.762,1.545c.221,1.181,2.213,1.893,3.861,1.793a3.693,3.693,0,0,0,2.6-1.272,2.265,2.265,0,0,0,.443-1.877.82.82,0,1,1,1.613-.293,3.89,3.89,0,0,1-.766,3.182,5.323,5.323,0,0,1-3.79,1.9c-.14.008-.282.013-.424.013" transform="translate(-648.112 -235.025)" fill="#8e9798"/>
      <path id="パス_154" data-name="パス 154" d="M877.687,205.35a.82.82,0,0,1-.129-1.629c1.877-.3,3.271-1.116,3.728-2.179a1.814,1.814,0,0,0-.218-1.81c-1.116-1.632-3.6-1.544-3.622-1.543a.81.81,0,0,1-.856-.781.819.819,0,0,1,.777-.857c.138-.008,3.416-.142,5.054,2.256a3.426,3.426,0,0,1,.37,3.382c-.69,1.605-2.5,2.753-4.974,3.15a.833.833,0,0,1-.131.011" transform="translate(-734.668 -178.859)" fill="#8e9798"/>
      <path id="パス_155" data-name="パス 155" d="M787.056,212.886a.82.82,0,0,1-.712-1.226c.045-.08.991-1.811-.293-2.988-1.262-1.157-3.169.3-3.25.362a.82.82,0,0,1-1.012-1.29c1.056-.831,3.538-1.959,5.369-.28a4.078,4.078,0,0,1,.608,5.011.82.82,0,0,1-.711.411" transform="translate(-648.115 -188.003)" fill="#8e9798"/>
      <path id="パス_156" data-name="パス 156" d="M832.784,152.008a.82.82,0,0,1-.776-1.084,2.891,2.891,0,0,0-1.209-3.168c-2.287-1.692-4.784.512-4.809.535a.82.82,0,1,1-1.1-1.219c1.208-1.086,4.2-2.617,6.88-.634a4.534,4.534,0,0,1,1.784,5.02.82.82,0,0,1-.774.55" transform="translate(-687.377 -132.385)" fill="#8e9798"/>
      <path id="パス_157" data-name="パス 157" d="M764.558,125.165a.82.82,0,0,1-.765-.525,3.706,3.706,0,0,0-2.773-2.007,4.747,4.747,0,0,0-3.289.738.82.82,0,1,1-.96-1.329,6.332,6.332,0,0,1,4.576-1.015,5.317,5.317,0,0,1,3.977,3.03.82.82,0,0,1-.767,1.108" transform="translate(-625.324 -110.04)" fill="#8e9798"/>
    </g>
    <g id="グループ_2632" data-name="グループ 2632" transform="translate(54.224 -136.576)">
      <path id="パス_44" data-name="パス 44" d="M27.053,874.652l-6.839-9.961L17.577,866.5l6.839,9.961,3.8,2.709Z" transform="translate(-16.202 -714.913)" fill="#fff"/>
      <path id="パス_59" data-name="パス 59" d="M194.569,710.632l-12.041,16.651v2.131H196.8V710.632Z" transform="translate(-168.25 -572.904)" fill="#fff"/>
      <path id="パス_60" data-name="パス 60" d="M188.6,721.521H174.348a.712.712,0,0,1-.712-.712v-2.137a.712.712,0,0,1,1.425,0V720.1h12.823V702.714h-1.511a.712.712,0,1,1,0-1.425H188.6a.712.712,0,0,1,.712.712v18.807a.712.712,0,0,1-.712.712" transform="translate(-160.054 -564.292)" fill="#8e9798"/>
      <path id="パス_21955" data-name="パス 21955" d="M0,0H14.248V18.807H0Z" transform="translate(12.014 135.429)" fill="#fff"/>
      <path id="パス_61" data-name="パス 61" d="M159.451,692.376H145.2a.712.712,0,0,1-.712-.712V672.856a.712.712,0,0,1,.712-.712h14.248a.712.712,0,0,1,.712.712v18.807a.712.712,0,0,1-.712.712m-13.535-1.425h12.823V673.569H145.916Z" transform="translate(-133.189 -537.427)" fill="#8e9798"/>
      <path id="合体_77" data-name="合体 77" d="M13862.968-4834.1a.715.715,0,0,1-.714-.714.712.712,0,0,1,.714-.71h7.551a.712.712,0,0,1,.714.71.715.715,0,0,1-.714.714Zm0-2.754a.715.715,0,0,1-.714-.713.715.715,0,0,1,.714-.714h7.551a.715.715,0,0,1,.714.714.715.715,0,0,1-.714.713Zm0-2.757a.715.715,0,0,1-.714-.714.712.712,0,0,1,.714-.71h7.551a.712.712,0,0,1,.714.71.715.715,0,0,1-.714.714Zm.021-3.133a.715.715,0,0,1-.714-.713v-2.259a.712.712,0,0,1,.714-.71h2.256a.712.712,0,0,1,.714.71v2.259a.715.715,0,0,1-.714.713Z" transform="translate(-13847.676 4985.026)" fill="#a2efef" stroke="rgba(0,0,0,0)" stroke-miterlimit="10" stroke-width="1"/>
      <path id="パス_158" data-name="パス 158" d="M16.022,868.777a.711.711,0,0,1-.588-.309l-6.839-9.961a.712.712,0,0,1,.184-.991l2.637-1.811a.712.712,0,0,1,.991.184l6.839,9.961a.712.712,0,0,1-.184.99l-2.637,1.81a.708.708,0,0,1-.4.125m-5.849-10.489,6.033,8.787,1.462-1-6.033-8.787Z" transform="translate(-7.807 -706.516)" fill="#8e9798"/>
      <path id="パス_159" data-name="パス 159" d="M100.418,988.876a.711.711,0,0,1-.414-.132l-3.8-2.709a.712.712,0,1,1,.827-1.16l2.21,1.575-.676-2.628a.712.712,0,0,1,1.38-.355l1.163,4.519a.712.712,0,0,1-.69.89" transform="translate(-88.404 -823.905)" fill="#8e9798"/>
      <path id="パス_160" data-name="パス 160" d="M28.477,887.275a.712.712,0,0,1-.4-1.3l2.445-1.679a.712.712,0,0,1,.807,1.175l-2.445,1.679a.709.709,0,0,1-.4.125" transform="translate(-25.592 -732.87)" fill="#8e9798"/>
      <path id="パス_161" data-name="パス 161" d="M3.949,902.313A.711.711,0,0,1,3.361,902L.125,897.29a.712.712,0,0,1,.184-.991l1.385-.951a.712.712,0,0,1,.806,1.175l-.8.548L4.536,901.2a.712.712,0,0,1-.587,1.116" transform="translate(0 -743.058)" fill="#8e9798"/>
    </g>
    <g id="グループ_2633" data-name="グループ 2633" transform="translate(-324.125 -172.561)">
      <path id="パス_21960" data-name="パス 21960" d="M0,0H18.645V12.613H0Z" transform="translate(405.516 201.134)" fill="#fff"/>
      <path id="パス_74" data-name="パス 74" d="M2107.571,1041.812h-8.089a.687.687,0,0,1,0-1.373h7.407v-11.207h-17.275v6.814a.687.687,0,0,1-1.373,0v-7.54a.654.654,0,0,1,.686-.647h18.645a.659.659,0,0,1,.691.647v12.613a.7.7,0,0,1-.691.694" transform="translate(-1683.398 -827.371)" fill="#8e9798"/>
      <path id="パス_75" data-name="パス 75" d="M2071.57,1180.955l-.274-3.563a.684.684,0,0,0-.684-.631h-3.839a.693.693,0,0,0-.431.149l-4.017,3.215-3.041,1.058a.7.7,0,0,0-.471.647v1.1a.716.716,0,0,0,.707.7h4.443a.679.679,0,0,0,.34-.083l3.2-1.822h3.383a.7.7,0,0,0,.5-.234.717.717,0,0,0,.18-.532" transform="translate(-1656.185 -965.066)" fill="#a2efef"/>
      <path id="パス_76" data-name="パス 76" d="M1991.356,1149.966l-.11-1.424a.674.674,0,0,0-.683-.619h-3.839a.679.679,0,0,0-.43.137l-4.016,3.2-3.039,1.058a.692.692,0,0,0-.467.647v1.1a.73.73,0,0,0,.7.723h4.443a.7.7,0,0,0,.34-.105l3.2-1.844h.572a.688.688,0,0,0,.43-.154l2.647-2.136a.679.679,0,0,0,.253-.583" transform="translate(-1582.167 -938.398)" fill="#a2efef"/>
      <path id="パス_77" data-name="パス 77" d="M2114.722,1091.029h-5.758a.687.687,0,0,1,0-1.373h5.758a.687.687,0,0,1,0,1.373" transform="translate(-1701.927 -884.517)" fill="#8e9798"/>
      <path id="パス_78" data-name="パス 78" d="M2245.872,1091.029h-5.758a.687.687,0,0,1,0-1.373h5.758a.687.687,0,0,1,0,1.373" transform="translate(-1823.206 -884.517)" fill="#8e9798"/>
      <path id="パス_79" data-name="パス 79" d="M2160.071,987.687a.686.686,0,0,1-.687-.685v-1.234a.7.7,0,0,0-.711-.677h-6.581a.671.671,0,0,0-.681.677V987a.687.687,0,0,1-1.373,0v-1.234a2.056,2.056,0,0,1,2.054-2.05h6.581a2.073,2.073,0,0,1,2.084,2.05V987a.686.686,0,0,1-.687.685" transform="translate(-1740.544 -786.552)" fill="#8e9798"/>
      <path id="パス_80" data-name="パス 80" d="M2202.8,1078.473h-.1a1.443,1.443,0,0,0-1.46,1.438v1.206a1.476,1.476,0,0,0,1.46,1.476h.1a1.471,1.471,0,0,0,1.453-1.476v-1.206a1.438,1.438,0,0,0-1.453-1.438" transform="translate(-1787.893 -874.176)" fill="#a2efef"/>
      <path id="パス_81" data-name="パス 81" d="M2177.281,1249.74h-2.742a.687.687,0,0,0,0,1.373h2.742a.687.687,0,0,0,0-1.373" transform="translate(-1762.566 -1032.553)" fill="#a2efef"/>
    </g>
    <g id="グループ_6" data-name="グループ 6" transform="translate(10.85 10)">
      <g id="グループ_5" data-name="グループ 5" transform="translate(0 0)" clip-path="url(#clip-path)">
        <path id="パス_226" data-name="パス 226" d="M289.553,382.682s-6.492,2.081-8.406,3.662-2.663,5.909-2.83,10.653,1,15.813,1.165,20.057.749,10.653,4.411,11.4,4.993-1,5.493-1.748l.5-.749,25.966-.083s2,3.5,5.16,3,3.828-1.831,4.411-3.162,1.415-9.238,1.415-9.238,1.082-16.4.832-21.472-1.581-7.906-3.579-8.988-5.992-2.83-5.992-2.83Z" transform="translate(-261.704 -359.86)" fill="#fff000"/>
        <path id="パス_227" data-name="パス 227" d="M481.715,172.469l.25-1.332-5.909-6.741.25-1.082a37.7,37.7,0,0,1-.81-3.694,3.7,3.7,0,0,1,.091-1.309l.487-.3s.731-1.461,1.035-1.522l.3-.061a5.342,5.342,0,0,1-1.1-2.4c.061-.883.67-2.405,1.157-2.435a7.886,7.886,0,0,1,1.7.274l.091.03.274-.213a16.035,16.035,0,0,1,1.4-4.323,7.058,7.058,0,0,1,2.131-2.375l4.688.03,9.559,6.149a3.557,3.557,0,0,1,.883,2.07c.03,1.157,0,3.47,0,3.47s1.827-.822,2.192-.4a4.968,4.968,0,0,1,.578,1.7s.731.244.761.7a22.348,22.348,0,0,1-.426,2.618l-.731,2.161a2.009,2.009,0,0,1,.03,1.34c-.274.487-5.51,6.119-5.51,6.119l.457,1.583-5.053,1.644-.426-2.892-2.983-.152-.274,2.679Z" transform="translate(-447.125 -136.331)" fill="#fff"/>
        <path id="パス_228" data-name="パス 228" d="M503.8,24.839l1.8.3s.031-4.665,3.952-6.407c0,0,4.284,6.389,11.471,5.009l2.63.667a2.977,2.977,0,0,1,.883,2.07c-.1,1.11,0,3.47,0,3.47s2.161-.9,2.192-.4a7.84,7.84,0,0,0,.578,1.7s.469.106.4,1.631a20.041,20.041,0,0,1-.792,3.849l.139,1.959-5.618,5.5.457,1.583s-.065-.621.951,1.121,2.323,3.848,2.323,3.848a8.023,8.023,0,0,0,6.171-6.9c.871-5.953-1.234-9.293-1.234-9.293s-3.412-7.478-3.485-9.366-1.089-7.478-1.089-7.478-2.105-6.607-8.712-7.405-10.092,2.541-12.124,5.881-.884,8.644-.884,8.644" transform="translate(-473.452 -9.586)" fill="#f49902"/>
        <path id="パス_229" data-name="パス 229" d="M535.281,433.242v1.442a.579.579,0,0,0,.418.549c.183.048.366.1.547.157q.668.2,1.323.441.463.169.918.36l-.136-.057a11.63,11.63,0,0,1,1.772.906c.146.094.289.193.426.3l-.115-.089a6.632,6.632,0,0,1,1.172,1.182l-.089-.115a6.281,6.281,0,0,1,.812,1.385l-.057-.136a6.007,6.007,0,0,1,.368,1.218q.027.146.047.293l-.02-.151a4.113,4.113,0,0,1,.034,1c-.055.477-.123.952-.184,1.428l-.083.644a.566.566,0,0,0,.167.4.569.569,0,0,0,.8,0l.089-.115a.567.567,0,0,0,.078-.287l.115-.891.146-1.128a2.842,2.842,0,0,0,.02-.353,6.132,6.132,0,0,0-.128-1.207,6.564,6.564,0,0,0-.584-1.663,6.969,6.969,0,0,0-1.336-1.812,7.3,7.3,0,0,0-1.624-1.194,15.816,15.816,0,0,0-1.817-.831q-.744-.293-1.507-.533c-.271-.086-.544-.168-.818-.243l-.038-.01.418.549v-1.442a.587.587,0,0,0-.167-.4.569.569,0,0,0-.8,0,.592.592,0,0,0-.167.4" transform="translate(-503.358 -406.869)" fill="#060000"/>
        <path id="パス_230" data-name="パス 230" d="M483.8,398h0l-.02.151a.965.965,0,0,1,.031-.13c.041-.145.092-.287.145-.428s.11-.28.168-.419l-.057.136q.095-.224.195-.446a3.907,3.907,0,0,0,.216-.513,1.472,1.472,0,0,0,0-.835,2.243,2.243,0,0,0-1.038-1.18,5.261,5.261,0,0,0-.764-.367,6.3,6.3,0,0,0-.686-.231,6.421,6.421,0,0,0-.632-.142,1.134,1.134,0,0,0-.612.016,1.535,1.535,0,0,0-.521.327,2.918,2.918,0,0,0-.364.433,5.943,5.943,0,0,0-.533.929,19.146,19.146,0,0,0-.89,2.259q-.113.341-.217.686c-.014.046-.028.092-.041.139a.587.587,0,0,0,.145.562l.014.016c.223.242.447.482.671.724l1.357,1.464,1.6,1.724,1.4,1.5.748.807.034.036-.146-.554-.409,1.111-.058.158a.569.569,0,0,0,.836.643.642.642,0,0,0,.262-.34l.409-1.111.058-.158a.566.566,0,0,0-.146-.554l-.156-.168-.422-.455-.627-.676-.765-.825-.834-.9-.846-.912-.789-.851-.664-.716-.48-.517c-.076-.082-.151-.164-.227-.245l-.01-.01.146.554c.047-.164.1-.327.149-.489q.183-.579.393-1.149.143-.386.3-.767l-.057.136a8.686,8.686,0,0,1,.642-1.276c.061-.1.125-.189.194-.279l-.089.115a1.76,1.76,0,0,1,.3-.315l-.115.089a.807.807,0,0,1,.174-.1l-.136.057a.515.515,0,0,1,.123-.035l-.151.02a.421.421,0,0,1,.11,0l-.151-.02a6.143,6.143,0,0,1,1.486.42l-.136-.057a3.683,3.683,0,0,1,.812.457l-.115-.089a1.872,1.872,0,0,1,.325.317l-.089-.115a1.205,1.205,0,0,1,.155.26l-.057-.136a.956.956,0,0,1,.064.229l-.02-.151a.929.929,0,0,1,0,.245l.02-.151a1.119,1.119,0,0,1-.077.273l.057-.136c-.181.42-.377.833-.538,1.262a3.993,3.993,0,0,0-.158.484,1.851,1.851,0,0,0-.032.209.567.567,0,0,0,.167.4.569.569,0,0,0,.8,0l.089-.115A.566.566,0,0,0,483.8,398" transform="translate(-449.641 -370.09)" fill="#060000"/>
        <path id="パス_231" data-name="パス 231" d="M479.9,374.541c0-.062.008-.125.012-.187q.017-.25.037-.5.028-.359.06-.718.038-.423.082-.846c.031-.3.065-.591.1-.885l.014-.107-.02.151c.037-.273.077-.545.126-.816.04-.22.084-.439.145-.654a2.284,2.284,0,0,1,.09-.265l-.057.136a.712.712,0,0,1,.086-.157l-.089.115a.247.247,0,0,1,.042-.043l-.115.089a.206.206,0,0,1,.047-.026l-.136.057a1.883,1.883,0,0,1,.42-.1l.162-.024-.151.02c.269-.036.541-.057.812-.068.292-.012.584-.013.876,0,.15.008.3.02.448.04l-.151-.02a2.092,2.092,0,0,1,.527.125l-.136-.057a.621.621,0,0,1,.137.076l-.115-.089a.31.31,0,0,1,.054.053l-.089-.115a.5.5,0,0,1,.058.111l-.057-.136a2.709,2.709,0,0,1,.132.436c.04.171.071.343.1.516q.022.14.041.28l-.02-.151c.024.18.045.361.062.542l0,.035a.585.585,0,0,0,.569.569.575.575,0,0,0,.4-.167.558.558,0,0,0,.167-.4c-.01-.115-.022-.23-.036-.344-.035-.3-.075-.594-.129-.888a3.613,3.613,0,0,0-.188-.716,1.536,1.536,0,0,0-.108-.241,1.23,1.23,0,0,0-.109-.142.288.288,0,0,0-.026-.026,1.789,1.789,0,0,0-.145-.113l-.038-.025a1.3,1.3,0,0,0-.156-.072,1.859,1.859,0,0,0-.3-.1c-.1-.022-.193-.039-.29-.052a7.484,7.484,0,0,0-.843-.07c-.252-.006-.5,0-.757.012-.23.012-.459.031-.687.062a4.085,4.085,0,0,0-.649.118c-.028.008-.055.018-.082.029a1.04,1.04,0,0,0-.185.081.87.87,0,0,0-.269.275.784.784,0,0,0-.065.125,3.247,3.247,0,0,0-.119.3,4.657,4.657,0,0,0-.117.454c-.041.19-.075.381-.106.573-.043.264-.079.529-.113.794q-.045.341-.082.683t-.07.678q-.03.312-.056.624-.023.265-.043.53-.015.2-.029.394-.008.108-.015.217l0,.027a.585.585,0,0,0,.569.569.575.575,0,0,0,.4-.167l.089-.115a.566.566,0,0,0,.078-.287" transform="translate(-450.212 -346.582)" fill="#060000"/>
        <path id="パス_232" data-name="パス 232" d="M466.988,355.669c-.019-.072-.037-.144-.055-.216q-.071-.283-.139-.568-.1-.4-.184-.8-.1-.463-.19-.929c-.059-.31-.113-.621-.157-.934q-.008-.054-.015-.108l.02.151a6.345,6.345,0,0,1-.075-1.014,2.018,2.018,0,0,1,.016-.211l-.02.151a.8.8,0,0,1,.05-.2l-.057.136a.327.327,0,0,1,.04-.071l-.089.115a.2.2,0,0,1,.033-.034l-.115.089a.974.974,0,0,1,.216-.116l-.136.057a4.7,4.7,0,0,1,1.029-.269q.17-.029.34-.052l-.151.02a7.156,7.156,0,0,1,1.17-.077c.08,0,.16.007.239.018l-.151-.02a.738.738,0,0,1,.186.044l-.136-.057a.856.856,0,0,1,.182.114l-.115-.089a4.05,4.05,0,0,1,.632.659q.07.086.138.174l-.089-.115c.047.061.094.123.14.186a.548.548,0,0,0,.567.272.424.424,0,0,0,.212-.067.575.575,0,0,0,.261-.34l.02-.151a.566.566,0,0,0-.078-.287c-.1-.133-.2-.262-.3-.39a6.237,6.237,0,0,0-.464-.531,3.443,3.443,0,0,0-.362-.309,1.16,1.16,0,0,0-.331-.173,1.62,1.62,0,0,0-.322-.056c-.08-.01-.161-.015-.242-.017a8.323,8.323,0,0,0-1.492.124,5.113,5.113,0,0,0-1.374.375.89.89,0,0,0-.429.372,1.157,1.157,0,0,0-.1.249,2.233,2.233,0,0,0-.047.3,4.053,4.053,0,0,0,.025.892c.047.441.116.88.2,1.317.073.4.156.8.244,1.2q.108.488.226.974.061.252.126.5l.006.023a.636.636,0,0,0,.262.34.424.424,0,0,0,.212.067.431.431,0,0,0,.227-.01.575.575,0,0,0,.34-.262.6.6,0,0,0,.057-.438" transform="translate(-437.318 -328.792)" fill="#060000"/>
        <path id="パス_233" data-name="パス 233" d="M476.436,328.545c.046-.166.1-.329.162-.49q.045-.122.1-.242l-.057.136a2.988,2.988,0,0,1,.362-.663l-.089.115a1,1,0,0,1,.172-.179l-.115.089a.51.51,0,0,1,.112-.067l-.136.057a.356.356,0,0,1,.084-.023l-.151.02a1.3,1.3,0,0,1,.246,0c.11.007.22.017.33.029l.221.027-.151-.02a7.983,7.983,0,0,1,1.357.291c.119.038.236.08.351.128l-.136-.057a2.04,2.04,0,0,1,.456.253l-.115-.089a.94.94,0,0,1,.164.16l-.089-.115a.943.943,0,0,1,.12.209l-.057-.136a1.37,1.37,0,0,1,.088.339l-.02-.151a2.567,2.567,0,0,1-.01.678l.02-.151a3.97,3.97,0,0,1-.137.632l-.013.04a.432.432,0,0,0-.01.227.424.424,0,0,0,.068.212.637.637,0,0,0,.34.262l.151.02a.567.567,0,0,0,.287-.078l.115-.089a.568.568,0,0,0,.146-.251,3.418,3.418,0,0,0,.1-.406,5.143,5.143,0,0,0,.081-.552,2.539,2.539,0,0,0,.006-.449,1.983,1.983,0,0,0-.115-.576,1.608,1.608,0,0,0-.153-.316,1.5,1.5,0,0,0-.211-.255,2.735,2.735,0,0,0-.933-.52,6.28,6.28,0,0,0-.93-.253c-.342-.069-.688-.119-1.035-.156-.115-.012-.23-.022-.345-.028a1.09,1.09,0,0,0-.4.033,1.346,1.346,0,0,0-.193.082.5.5,0,0,0-.058.035,1.515,1.515,0,0,0-.227.188,2.276,2.276,0,0,0-.3.4,5.118,5.118,0,0,0-.385.842c-.059.158-.113.317-.16.479l-.007.025a.432.432,0,0,0-.01.227.423.423,0,0,0,.068.212.637.637,0,0,0,.34.262l.151.02a.565.565,0,0,0,.287-.078.6.6,0,0,0,.262-.34" transform="translate(-446.971 -306.707)" fill="#060000"/>
        <path id="パス_234" data-name="パス 234" d="M484.1,245.92a1.535,1.535,0,0,0-.236-.137,2.928,2.928,0,0,0-.389-.159,2.29,2.29,0,0,0-.459-.086,1.753,1.753,0,0,0-.494.031,1.088,1.088,0,0,0-.184.05,1.95,1.95,0,0,0-.309.139,2.061,2.061,0,0,0-.285.209,1.446,1.446,0,0,0-.171.172c-.1.121-.2.25-.287.379a4.28,4.28,0,0,0-.3.469,4.091,4.091,0,0,0-.17.373,2.189,2.189,0,0,0-.087.256,3.054,3.054,0,0,0-.073.414,2.085,2.085,0,0,0-.017.29,3.446,3.446,0,0,0,.044.455,2.838,2.838,0,0,0,.071.34,5.125,5.125,0,0,0,.353.9,8.239,8.239,0,0,0,.538.928q.084.128.172.253a.548.548,0,0,0,.567.272.424.424,0,0,0,.212-.068.574.574,0,0,0,.262-.34l.02-.151a.566.566,0,0,0-.078-.287,9.028,9.028,0,0,1-.7-1.156q-.069-.141-.131-.285l.057.136a3.42,3.42,0,0,1-.25-.866l.02.151a2.18,2.18,0,0,1,0-.577l-.02.151a2.119,2.119,0,0,1,.149-.535l-.057.136a3.658,3.658,0,0,1,.4-.689c.048-.067.1-.134.146-.2l-.089.115a1.5,1.5,0,0,1,.261-.266l-.115.089a1.173,1.173,0,0,1,.259-.152l-.136.057a1.116,1.116,0,0,1,.275-.074l-.151.02a1.276,1.276,0,0,1,.332,0l-.151-.02a1.694,1.694,0,0,1,.428.12l-.136-.057a1.652,1.652,0,0,1,.33.18.424.424,0,0,0,.212.068.584.584,0,0,0,.567-.272.574.574,0,0,0,.057-.439l-.057-.136a.571.571,0,0,0-.2-.2" transform="translate(-451.982 -230.888)" fill="#060000"/>
        <path id="パス_235" data-name="パス 235" d="M280.46,373.381a66.608,66.608,0,0,0-7.156,3.2,7.27,7.27,0,0,0-1.47.949,5.176,5.176,0,0,0-.909,1.118,10.806,10.806,0,0,0-1.241,3.258,29.73,29.73,0,0,0-.639,4.543c-.136,1.822-.168,3.652-.153,5.479.036,4.459.343,8.914.7,13.357.2,2.455.419,4.908.646,7.36a14.936,14.936,0,0,0,.559,3.5,7.11,7.11,0,0,0,1.455,2.509,6.175,6.175,0,0,0,4.393,1.986,5.44,5.44,0,0,0,4.117-1.656,13.1,13.1,0,0,0,1.463-2.121c.333-.556.649-1.122.953-1.694.693-1.3,1.327-2.636,1.933-3.982,1.363-3.029,2.586-6.121,3.746-9.232q1.529-4.1,2.915-8.255c.5-1.5,1-3.007,1.472-4.519l.066-.21a.578.578,0,0,0-.4-.7l-5.374-1.577-.769-.226a.575.575,0,0,0-.643.262c-.683,1.389-1.391,2.765-2.1,4.139q-2.468,4.752-5.114,9.409c-1.129,1.977-2.289,3.937-3.5,5.867-.39.623.594,1.194.983.574,2.11-3.369,4.078-6.827,5.978-10.319q2.072-3.809,4.029-7.678c.238-.471.476-.943.709-1.417l-.643.262,5.374,1.577.769.226-.4-.7c-.32,1.034-.656,2.063-.994,3.091q-1.221,3.713-2.543,7.391c-1.094,3.04-2.242,6.062-3.494,9.04l-.043.1-.029.069-.108.255q-.119.279-.239.557-.237.549-.48,1.1-.465,1.043-.956,2.075c-.586,1.227-1.2,2.441-1.89,3.616a21.759,21.759,0,0,1-1.309,2.019c-.056.076.085-.1-.014.017-.031.036-.061.074-.092.11q-.078.09-.161.175a4.686,4.686,0,0,1-.386.349c.1-.078-.079.058-.112.081q-.117.081-.238.155a4.651,4.651,0,0,1-.462.246s-.142.064-.063.029-.066.026-.065.026q-.112.044-.226.082a5.1,5.1,0,0,1-.561.154q-.12.026-.24.046l-.1.015c.139-.022-.024,0-.044,0-.18.02-.362.03-.544.032s-.367-.006-.55-.022c-.043,0-.273-.034-.149-.015-.1-.015-.2-.032-.3-.052q-.251-.051-.5-.124-.136-.041-.27-.088l-.122-.045c-.019-.007-.213-.089-.105-.041a5.663,5.663,0,0,1-.971-.547q-.067-.047-.132-.1c.076.057-.018-.014-.036-.029-.079-.064-.156-.129-.232-.2a5.707,5.707,0,0,1-.438-.44,5.244,5.244,0,0,1-.7-1.007,5.922,5.922,0,0,1-.509-1.225,17.371,17.371,0,0,1-.48-3.437q-.167-1.812-.327-3.625c-.4-4.532-.757-9.072-.91-13.62-.066-1.939-.092-3.881-.04-5.821.024-.874.064-1.748.129-2.62q.043-.58.1-1.158.03-.291.065-.581.016-.129.032-.258l.017-.128q.008-.063,0,.024l.014-.1a17.618,17.618,0,0,1,.884-3.762q.033-.089.068-.177c.013-.032.1-.233.027-.07.052-.121.106-.242.163-.361a6.919,6.919,0,0,1,.356-.653q.088-.142.185-.279c.033-.046.068-.091.1-.138-.093.13,0,0,.043-.051a4.06,4.06,0,0,1,.423-.439c.042-.037.086-.072.128-.109.107-.091-.1.069.017-.012.088-.06.175-.12.266-.175.31-.187.627-.362.947-.531.722-.382,1.459-.735,2.2-1.077s1.5-.673,2.252-.995l.259-.11h0l.135-.057.466-.194q.385-.16.772-.316c.219-.089.438-.177.658-.264a.586.586,0,0,0,.4-.7.573.573,0,0,0-.7-.4" transform="translate(-252.853 -351.086)" fill="#060000"/>
        <path id="パス_236" data-name="パス 236" d="M722.026,382.854c.084.035.167.071.251.105-.122-.049-.074-.031.012.005l.146.062.386.167q1.064.463,2.113.959c.842.4,1.677.815,2.493,1.266.332.183.67.365.986.576.041.028.082.057.122.086.134.095-.083-.075.026.02.077.067.155.133.229.2s.135.136.2.207q.049.055.1.111c.029.034.159.206.042.049a6.473,6.473,0,0,1,.367.548,7.238,7.238,0,0,1,.337.647c.027.059.054.119.08.179.062.139-.031-.082.027.066.051.128.1.256.148.386a18.1,18.1,0,0,1,.84,3.665s.022.161.01.074.01.078.01.076q.017.128.032.255.035.287.064.574.062.6.106,1.2c.061.821.1,1.644.124,2.467.055,1.874.034,3.75-.025,5.624-.138,4.406-.476,8.8-.855,13.194q-.15,1.744-.31,3.486-.082.9-.166,1.806c-.052.559-.085,1.123-.189,1.676a6.647,6.647,0,0,1-1,2.549,4.884,4.884,0,0,1-.756.886q-.1.094-.2.183l-.083.07s-.145.114-.054.045a5.353,5.353,0,0,1-.484.329q-.223.135-.459.249c-.03.014-.25.113-.147.069-.094.04-.19.076-.287.11a5.636,5.636,0,0,1-1.051.258c-.1.014.138-.013-.021,0l-.148.015q-.123.011-.247.016c-.18.007-.36.006-.54,0q-.121-.007-.243-.019l-.12-.014c-.1-.012.137.025-.016,0-.174-.032-.346-.063-.517-.108q-.23-.061-.454-.143l-.133-.051c-.142-.054.069.032-.016-.007s-.171-.078-.255-.121a4.582,4.582,0,0,1-.425-.247c-.065-.043-.128-.089-.192-.133-.086-.061-.013-.009,0,0-.049-.039-.1-.078-.144-.119a4.207,4.207,0,0,1-.337-.324q-.08-.086-.155-.176c-.012-.014-.108-.139-.028-.033-.04-.053-.078-.106-.117-.16-.273-.378-.529-.768-.775-1.164a55.981,55.981,0,0,1-3.687-7.341c-.6-1.372-1.175-2.786-1.755-4.259q-.861-2.184-1.669-4.39-1.4-3.817-2.687-7.676c-.461-1.381-.915-2.766-1.35-4.155l-.058-.186-.4.7,5.379-1.578.764-.224-.643-.262c.683,1.389,1.392,2.767,2.106,4.141q2.46,4.737,5.1,9.38c1.134,1.986,2.3,3.955,3.513,5.893.388.619,1.373.049.983-.574-2.111-3.37-4.08-6.829-5.98-10.322q-2.068-3.8-4.022-7.663c-.24-.475-.48-.951-.715-1.429a.574.574,0,0,0-.643-.262l-5.379,1.578-.764.224a.577.577,0,0,0-.4.7c.313,1.01.641,2.016.971,3.021q1.2,3.641,2.49,7.249c1.077,3,2.205,5.981,3.432,8.923a73.677,73.677,0,0,0,3.771,7.976c.332.586.679,1.165,1.053,1.725a6.392,6.392,0,0,0,1.718,1.872,5.8,5.8,0,0,0,4.322.78,6.224,6.224,0,0,0,3.934-2.676c1.275-1.905,1.294-4.234,1.5-6.437.421-4.608.82-9.22,1.055-13.841a86.865,86.865,0,0,0,0-11.376,28.72,28.72,0,0,0-.641-4.374,10.772,10.772,0,0,0-1.2-3.127,5.264,5.264,0,0,0-.894-1.119,7.793,7.793,0,0,0-1.589-1.037c-1.512-.83-3.081-1.558-4.663-2.243-.317-.137-.634-.273-.953-.4a.573.573,0,0,0-.7.4.583.583,0,0,0,.4.7" transform="translate(-665.775 -358.962)" fill="#060000"/>
        <path id="パス_237" data-name="パス 237" d="M415.059,590.7l.012.393q.016.53.033,1.061.024.789.049,1.579l.059,1.913.065,2.11.066,2.115.062,1.986q.026.833.052,1.667l.037,1.207c.006.189.01.379.018.568,0,.008,0,.016,0,.025a.594.594,0,0,0,.167.4.569.569,0,0,0,.971-.4l-.012-.393q-.017-.53-.033-1.061-.025-.789-.049-1.579l-.059-1.913q-.033-1.055-.065-2.11t-.066-2.115l-.062-1.986q-.026-.833-.052-1.667l-.037-1.207c-.006-.189-.01-.379-.018-.568,0-.008,0-.017,0-.025a.594.594,0,0,0-.167-.4.569.569,0,0,0-.971.4" transform="translate(-390.306 -554.933)" fill="#060000"/>
        <path id="パス_238" data-name="パス 238" d="M945.434,608.747q-.005.182-.01.364-.014.491-.028.983-.021.731-.042,1.463l-.05,1.772-.056,1.954-.056,1.959q-.026.92-.052,1.839-.022.772-.044,1.544-.016.559-.032,1.118c0,.175-.012.351-.015.526,0,.008,0,.015,0,.023a.574.574,0,0,0,.569.569.58.58,0,0,0,.569-.569q.005-.182.01-.364.014-.491.028-.983l.042-1.463q.025-.886.05-1.772.028-.977.056-1.954t.056-1.959q.026-.92.052-1.839.022-.772.044-1.544.016-.559.032-1.118c0-.175.012-.351.015-.526,0-.008,0-.015,0-.023a.574.574,0,0,0-.569-.569.58.58,0,0,0-.569.569" transform="translate(-888.689 -571.907)" fill="#060000"/>
        <path id="パス_239" data-name="パス 239" d="M717.894,433.242v1.442l.418-.549c-.193.051-.384.108-.575.166q-.7.213-1.387.467a18.5,18.5,0,0,0-1.82.776,8.118,8.118,0,0,0-1.594,1.012,7.158,7.158,0,0,0-1.537,1.791,6.62,6.62,0,0,0-.732,1.732,6.368,6.368,0,0,0-.2,1.35,3.26,3.26,0,0,0,.01.5c.032.28.072.56.108.839l.15,1.162.009.07a.633.633,0,0,0,.167.4.569.569,0,0,0,.8,0,.545.545,0,0,0,.167-.4l-.2-1.514a7.346,7.346,0,0,1-.085-.789,5.07,5.07,0,0,1,.047-.771l-.02.151a5.923,5.923,0,0,1,.273-1.143q.065-.187.142-.369l-.057.136a6.285,6.285,0,0,1,.812-1.385l-.089.115a6.63,6.63,0,0,1,1.172-1.182l-.115.089a8.8,8.8,0,0,1,1.673-.973q.261-.121.525-.232l-.136.057c.513-.216,1.035-.409,1.562-.586.344-.115.691-.223,1.04-.322l.185-.051a.579.579,0,0,0,.418-.549v-1.442a.587.587,0,0,0-.167-.4.569.569,0,0,0-.8,0,.592.592,0,0,0-.167.4" transform="translate(-668.09 -406.869)" fill="#060000"/>
        <path id="パス_240" data-name="パス 240" d="M797.055,397.983a4.214,4.214,0,0,0-.355-1.1c-.12-.286-.251-.566-.373-.85l.057.136a1.119,1.119,0,0,1-.077-.273l.02.151a.93.93,0,0,1,0-.245l-.02.151a.951.951,0,0,1,.064-.229l-.057.136a1.2,1.2,0,0,1,.155-.26l-.089.115a1.868,1.868,0,0,1,.325-.317l-.115.089a3.68,3.68,0,0,1,.812-.457l-.136.057a6.14,6.14,0,0,1,1.486-.42l-.151.02a.418.418,0,0,1,.11,0l-.151-.02a.511.511,0,0,1,.123.034l-.136-.057a.8.8,0,0,1,.174.1l-.115-.089a1.757,1.757,0,0,1,.3.315l-.089-.115a5.974,5.974,0,0,1,.665,1.166q.089.193.171.389l-.057-.136c.183.434.348.876.5,1.321q.156.456.3.917c.017.055.033.111.049.166l.146-.554-.156.168-.422.455-.627.676-.765.825-.834.9-.846.912-.789.851-.664.716-.48.517c-.076.082-.152.163-.227.245l-.01.01a.567.567,0,0,0-.146.554l.409,1.111.058.158a.612.612,0,0,0,.262.34.569.569,0,0,0,.779-.2.561.561,0,0,0,.057-.438l-.409-1.111-.058-.158-.146.554.525-.566,1.28-1.38,1.59-1.715,1.456-1.57.878-.947.076-.082.013-.014a.588.588,0,0,0,.144-.564c-.04-.145-.086-.289-.131-.432-.226-.719-.484-1.427-.778-2.121a9.739,9.739,0,0,0-.512-1.054,4.4,4.4,0,0,0-.269-.419,2.822,2.822,0,0,0-.364-.428,1.536,1.536,0,0,0-.521-.321,1.167,1.167,0,0,0-.625-.008,6.364,6.364,0,0,0-1.321.379,5.139,5.139,0,0,0-.76.37,2.88,2.88,0,0,0-.6.474,1.8,1.8,0,0,0-.423.712,1.478,1.478,0,0,0,.01.839,4.64,4.64,0,0,0,.217.509q.1.212.186.426l-.057-.136a5.636,5.636,0,0,1,.336.932c0,.015.007.029.009.044l-.02-.151h0a.633.633,0,0,0,.167.4.569.569,0,0,0,.8,0,.548.548,0,0,0,.167-.4" transform="translate(-747.212 -370.075)" fill="#060000"/>
        <path id="パス_241" data-name="パス 241" d="M819.051,374.542q0-.057-.007-.114-.011-.156-.022-.313-.017-.236-.036-.472-.024-.292-.05-.584-.029-.328-.063-.655t-.076-.684q-.049-.41-.108-.819c-.03-.205-.062-.411-.1-.615-.032-.173-.067-.346-.111-.516a3.355,3.355,0,0,0-.179-.509.89.89,0,0,0-.335-.4,1.1,1.1,0,0,0-.186-.081c-.027-.011-.055-.02-.083-.029a2.272,2.272,0,0,0-.224-.053,7.594,7.594,0,0,0-.759-.1q-.367-.033-.736-.038c-.247,0-.494,0-.74.018-.161.012-.32.032-.48.054-.1.013-.195.03-.291.053a2.2,2.2,0,0,0-.361.129.743.743,0,0,0-.09.045l-.036.024a1.641,1.641,0,0,0-.145.113.307.307,0,0,0-.027.028,1.128,1.128,0,0,0-.108.141,1.7,1.7,0,0,0-.11.248,2.531,2.531,0,0,0-.1.327,7.467,7.467,0,0,0-.147.783c-.035.246-.067.492-.091.74,0,.03-.006.059-.008.089a.585.585,0,0,0,.569.569.575.575,0,0,0,.4-.167l.089-.115a.566.566,0,0,0,.078-.287c.01-.125.024-.249.039-.374q.012-.1.026-.2l-.02.151a6.909,6.909,0,0,1,.194-1,2.076,2.076,0,0,1,.079-.227l-.057.136a.5.5,0,0,1,.057-.111l-.089.115a.307.307,0,0,1,.054-.053l-.115.089a.622.622,0,0,1,.137-.076l-.136.057a2.092,2.092,0,0,1,.527-.125l-.151.02a6.668,6.668,0,0,1,.827-.051c.291,0,.582.008.872.031.146.011.292.026.437.046l-.151-.02a3.142,3.142,0,0,1,.491.1.926.926,0,0,1,.09.032l-.136-.057a.209.209,0,0,1,.047.026l-.115-.089a.246.246,0,0,1,.042.044l-.089-.115a.706.706,0,0,1,.086.157l-.057-.136a3.153,3.153,0,0,1,.156.527c.055.243.1.489.137.735.025.157.047.315.068.472l-.02-.151q.059.441.106.883t.085.858q.034.369.063.738.021.265.039.53c.005.077.01.154.015.231a.026.026,0,0,1,0,0,.585.585,0,0,0,.569.569.575.575,0,0,0,.4-.167.566.566,0,0,0,.167-.4" transform="translate(-764.739 -346.582)" fill="#060000"/>
        <path id="パス_242" data-name="パス 242" d="M836.037,355.973c.031-.117.06-.235.089-.353q.109-.441.21-.884c.088-.387.171-.776.247-1.165q.13-.671.22-1.349a6.129,6.129,0,0,0,.069-.981c0-.061-.006-.122-.013-.182a2.2,2.2,0,0,0-.047-.3,1.124,1.124,0,0,0-.1-.247.806.806,0,0,0-.262-.275,1.018,1.018,0,0,0-.174-.1,3.711,3.711,0,0,0-.379-.15,5.388,5.388,0,0,0-.639-.16c-.287-.056-.578-.1-.869-.131-.228-.026-.458-.045-.687-.052a3.372,3.372,0,0,0-.532.017,1.523,1.523,0,0,0-.319.057,1.2,1.2,0,0,0-.336.179,3.449,3.449,0,0,0-.362.312c-.086.087-.168.178-.248.271-.157.182-.3.372-.448.565l-.055.075a.421.421,0,0,0-.068.212.584.584,0,0,0,.272.567.574.574,0,0,0,.438.057l.136-.057a.572.572,0,0,0,.2-.2c.045-.063.092-.125.139-.186l-.089.115a6.12,6.12,0,0,1,.584-.67,2.3,2.3,0,0,1,.186-.163l-.115.089a.853.853,0,0,1,.181-.114l-.136.057a.738.738,0,0,1,.186-.044l-.151.02a3.1,3.1,0,0,1,.461-.019c.2,0,.391.017.586.036q.181.018.362.042l-.151-.02a6.824,6.824,0,0,1,1.127.234c.082.026.163.054.242.087l-.136-.057a.974.974,0,0,1,.216.116l-.115-.089a.2.2,0,0,1,.033.034l-.089-.115a.324.324,0,0,1,.04.071l-.057-.136a.8.8,0,0,1,.05.2l-.02-.151a3.836,3.836,0,0,1-.02.9q-.017.161-.039.322l.02-.151c-.042.31-.094.619-.151.927s-.121.622-.188.932q-.089.414-.186.826-.072.3-.147.6c-.022.088-.045.176-.067.265v0a.431.431,0,0,0-.01.227.422.422,0,0,0,.068.212.637.637,0,0,0,.34.261l.151.02a.566.566,0,0,0,.287-.078.587.587,0,0,0,.261-.34" transform="translate(-781.746 -328.793)" fill="#060000"/>
        <path id="パス_243" data-name="パス 243" d="M827.771,328.24c-.032-.116-.07-.231-.11-.345a6.4,6.4,0,0,0-.348-.831,2.415,2.415,0,0,0-.2-.329,2.386,2.386,0,0,0-.194-.241,1.507,1.507,0,0,0-.226-.185.972.972,0,0,0-.251-.116,1.047,1.047,0,0,0-.209-.034.486.486,0,0,0-.061,0c-.1,0-.195.007-.292.015-.329.026-.658.072-.983.129a7.492,7.492,0,0,0-.946.224,5.367,5.367,0,0,0-.557.213,2.1,2.1,0,0,0-.348.189,2.2,2.2,0,0,0-.246.193,1.474,1.474,0,0,0-.213.259,1.647,1.647,0,0,0-.152.317,1.272,1.272,0,0,0-.062.208,2.92,2.92,0,0,0-.051.369c-.006.075-.008.151-.006.226a4.317,4.317,0,0,0,.059.578,3.932,3.932,0,0,0,.13.566l.009.028a.636.636,0,0,0,.262.34.423.423,0,0,0,.212.068.431.431,0,0,0,.227-.01.569.569,0,0,0,.4-.7,3.464,3.464,0,0,1-.111-.439q-.023-.116-.039-.234l.02.151a2.573,2.573,0,0,1-.01-.678l-.02.151a1.369,1.369,0,0,1,.089-.339l-.057.136a.937.937,0,0,1,.12-.209l-.089.115a.941.941,0,0,1,.164-.16l-.115.089a2.039,2.039,0,0,1,.456-.253l-.136.057a6.18,6.18,0,0,1,1.338-.362q.184-.032.37-.057l-.151.02c.221-.03.444-.054.668-.062a.8.8,0,0,1,.13,0l-.151-.02a.349.349,0,0,1,.083.023l-.136-.057a.513.513,0,0,1,.112.067l-.115-.089a.993.993,0,0,1,.172.179l-.089-.115a2.987,2.987,0,0,1,.362.663l-.057-.136a6.585,6.585,0,0,1,.244.685l.014.047a.636.636,0,0,0,.261.34.424.424,0,0,0,.212.068.431.431,0,0,0,.227-.01.575.575,0,0,0,.34-.262.592.592,0,0,0,.057-.438" transform="translate(-773.274 -306.705)" fill="#060000"/>
        <path id="パス_244" data-name="パス 244" d="M597.076,134.385c.01.039.022.077.035.115.051.154.115.3.179.451.071.164.152.325.239.481a6.5,6.5,0,0,0,.385.606,8.7,8.7,0,0,0,.644.8,8.476,8.476,0,0,0,.761.736,10.907,10.907,0,0,0,1.1.827,11.451,11.451,0,0,0,1.252.711,15.1,15.1,0,0,0,1.666.692,17.192,17.192,0,0,0,1.858.528q.249.057.5.107a.608.608,0,0,0,.439-.057.569.569,0,0,0,.2-.779.564.564,0,0,0-.34-.262c-.465-.093-.926-.2-1.383-.33q-.615-.172-1.216-.392-.314-.116-.623-.246l.136.057c-.385-.163-.763-.343-1.13-.542a10.923,10.923,0,0,1-.947-.577q-.236-.161-.463-.336l.115.089a9.119,9.119,0,0,1-.7-.6q-.293-.278-.557-.583-.133-.154-.258-.315l.089.115a6.88,6.88,0,0,1-.419-.606c-.1-.165-.2-.335-.28-.51q-.055-.114-.1-.23l.057.136c-.033-.079-.064-.158-.092-.238-.015-.043-.029-.087-.041-.131l-.005-.02a.583.583,0,0,0-.262-.34.423.423,0,0,0-.212-.067.431.431,0,0,0-.227.01.576.576,0,0,0-.34.262.606.606,0,0,0-.057.438" transform="translate(-561.451 -125.692)" fill="#060000"/>
        <path id="パス_245" data-name="パス 245" d="M663.931,139.588c.059.082.122.162.184.241.094.12.191.237.29.353q.235.273.485.533.33.344.68.667.425.393.876.755c.382.307.774.6,1.177.879s.834.547,1.268.794q.718.408,1.472.748a18.931,18.931,0,0,0,1.784.7,17.655,17.655,0,0,0,1.861.508q.241.052.483.1l-.4-.4c.05.156.094.314.136.472q.158.587.276,1.184c.055.279.1.559.14.84l-.02-.151a8.7,8.7,0,0,1,.085,1.59c-.007.142-.02.284-.039.426l.02-.151q-.02.146-.05.291a.6.6,0,0,0,.057.438.569.569,0,0,0,.779.2.568.568,0,0,0,.261-.34,7.763,7.763,0,0,0-.011-2.712,16.137,16.137,0,0,0-.425-2.006c-.036-.13-.072-.259-.113-.387a.567.567,0,0,0-.4-.4,17.731,17.731,0,0,1-2.887-.8q-.37-.137-.732-.29l.136.057a17.58,17.58,0,0,1-1.729-.845q-.752-.42-1.461-.912-.362-.251-.71-.521l.115.089a16.91,16.91,0,0,1-1.47-1.275c-.314-.306-.616-.625-.9-.959-.087-.1-.173-.207-.255-.314l.089.115c-.026-.034-.053-.068-.078-.1a.614.614,0,0,0-.34-.262.582.582,0,0,0-.439.057.575.575,0,0,0-.261.34.561.561,0,0,0,.057.438" transform="translate(-624.264 -130.459)" fill="#060000"/>
        <path id="パス_246" data-name="パス 246" d="M630.686,500.76a4.294,4.294,0,0,0,.373.243,8.219,8.219,0,0,0,1.132.553,6.445,6.445,0,0,0,1.448.406,6.288,6.288,0,0,0,.987.083,5.628,5.628,0,0,0,1.035-.106,4.926,4.926,0,0,0,.979-.306,5.294,5.294,0,0,0,.986-.539c.114-.08.224-.165.334-.25a.585.585,0,0,0,0-.8.573.573,0,0,0-.4-.167l-.151.02a.57.57,0,0,0-.251.146l-.019.015.115-.089a5.074,5.074,0,0,1-1.117.657l.136-.057a4.655,4.655,0,0,1-1.173.32l.151-.02a5.006,5.006,0,0,1-1.069.026q-.144-.012-.287-.031l.151.02a6.294,6.294,0,0,1-1.322-.333q-.16-.059-.317-.125l.136.057a7.354,7.354,0,0,1-.775-.382c-.148-.084-.294-.173-.434-.27l-.07-.049a.424.424,0,0,0-.212-.068.584.584,0,0,0-.567.272.574.574,0,0,0-.057.439l.057.136a.571.571,0,0,0,.2.2" transform="translate(-592.807 -469.898)" fill="#060000"/>
        <path id="パス_247" data-name="パス 247" d="M662,574.37a4.087,4.087,0,0,0,.6.153,5.463,5.463,0,0,0,1.53.1,4.1,4.1,0,0,0,1.043-.217.637.637,0,0,0,.34-.261.423.423,0,0,0,.068-.212.433.433,0,0,0-.01-.227.576.576,0,0,0-.262-.34l-.136-.057a.57.57,0,0,0-.3,0,3.461,3.461,0,0,1-.732.178l.151-.02a4.672,4.672,0,0,1-1.224-.01l.151.02a5.052,5.052,0,0,1-.859-.187l-.053-.018a.431.431,0,0,0-.227-.01.424.424,0,0,0-.212.067.636.636,0,0,0-.261.34l-.02.151a.566.566,0,0,0,.078.287l.089.115a.568.568,0,0,0,.251.146" transform="translate(-622.13 -539.064)" fill="#060000"/>
        <path id="パス_248" data-name="パス 248" d="M565.181,441l.293.5.467.793.107.181a.548.548,0,0,0,.567.272.424.424,0,0,0,.212-.068.575.575,0,0,0,.261-.34.593.593,0,0,0-.057-.438l-.293-.5-.467-.793-.107-.181a.548.548,0,0,0-.567-.272.423.423,0,0,0-.212.068.575.575,0,0,0-.261.34.593.593,0,0,0,.057.438" transform="translate(-531.405 -413.896)" fill="#060000"/>
        <path id="パス_249" data-name="パス 249" d="M798.088,442.023l-.2.5-.327.793-.075.182a.432.432,0,0,0-.01.227.423.423,0,0,0,.068.212.637.637,0,0,0,.34.262l.151.02a.566.566,0,0,0,.287-.078l.115-.089a.568.568,0,0,0,.146-.251l.2-.5.327-.793.075-.182a.432.432,0,0,0,.01-.227.424.424,0,0,0-.068-.212.637.637,0,0,0-.34-.262l-.151-.02a.566.566,0,0,0-.287.078l-.115.089a.567.567,0,0,0-.146.251" transform="translate(-749.902 -415.269)" fill="#060000"/>
        <path id="パス_250" data-name="パス 250" d="M495.573,14.807a15.163,15.163,0,0,1-.209-4.075q.019-.218.045-.435c0-.024.031-.232.014-.116.013-.088.026-.176.04-.264q.069-.428.167-.85a11.6,11.6,0,0,1,.5-1.617c.024-.061.049-.122.074-.183-.046.111.028-.063.039-.09q.084-.189.174-.375.174-.357.375-.7t.434-.68q.107-.155.221-.305l.057-.075c-.013.016-.069.087,0,0,.044-.055.087-.11.132-.164a10.112,10.112,0,0,1,1.08-1.124q.139-.124.282-.242l.144-.117.073-.058c-.1.082.019-.015.032-.025q.307-.232.631-.44a10.729,10.729,0,0,1,1.386-.754l.174-.077c.021-.009.1-.042,0,0l.088-.036q.189-.077.381-.147.376-.138.762-.249A12.37,12.37,0,0,1,504.3,1.26l.1-.014c.089-.013-.09.011,0,0l.2-.024q.23-.026.461-.044.43-.033.862-.039a13.642,13.642,0,0,1,1.762.085l.1.012.051.006.051.007.1.015q.212.032.423.072.415.078.823.185.388.1.768.231.182.062.362.13l.178.069c.03.012.221.093.106.043a10.659,10.659,0,0,1,1.413.74q.325.2.633.431c.019.014.157.118.109.081s.088.07.106.085q.153.124.3.253A10.131,10.131,0,0,1,514.3,4.7c.081.1.159.193.237.292.053.067-.054-.071,0,0l.057.076q.064.085.126.172.236.33.447.678a11.751,11.751,0,0,1,.739,1.438c-.045-.1.026.063.039.1q.038.094.074.188.083.214.157.431.144.417.259.844a14.545,14.545,0,0,1,.359,1.749c.005.037.011.074.016.111-.013-.1,0,0,0,.015.009.075.018.149.026.224q.028.255.049.511.038.481.05.963a19.631,19.631,0,0,0,.163,2.21,28.13,28.13,0,0,0,2.587,7.738,27.488,27.488,0,0,1,2.537,6.948q.017.106.033.212c.005.035.01.071.015.106-.014-.1,0-.011,0,.008.018.16.036.32.048.48.027.349.031.7.029,1.05a16.541,16.541,0,0,1-.139,2.118c.012-.091-.019.127-.022.144q-.018.116-.037.232-.043.256-.1.509-.093.447-.219.887-.12.418-.272.826-.036.1-.074.191c-.01.024-.085.206-.039.1q-.088.2-.185.406a8.324,8.324,0,0,1-.8,1.326l-.054.072c.071-.095.022-.028.007-.009-.037.046-.074.093-.112.139q-.126.152-.261.3a6.763,6.763,0,0,1-.51.5c-.085.074-.174.145-.261.216-.062.051.08-.058.015-.012l-.067.05q-.076.056-.154.109a6.235,6.235,0,0,1-.6.368q-.146.078-.3.148l-.151.068c-.094.042.006,0,.021-.009l-.116.046a6.329,6.329,0,0,1-.654.213,1.566,1.566,0,0,0-.163.041c-.085.033.16-.015.058,0l-.239.027-.466.053a.586.586,0,0,0-.569.569.573.573,0,0,0,.569.569,7.709,7.709,0,0,0,1.113-.16,6.953,6.953,0,0,0,1.432-.561,7.16,7.16,0,0,0,2.321-1.989,12.158,12.158,0,0,0,2.159-7.244,13.446,13.446,0,0,0-.517-3.947,28.275,28.275,0,0,0-1.394-3.673c-.548-1.238-1.133-2.459-1.664-3.7l-.047-.11L519.85,20l-.092-.222q-.1-.25-.2-.5-.189-.477-.362-.961c-.236-.661-.446-1.331-.618-2.011a17.212,17.212,0,0,1-.389-2.019c-.085-.711-.091-1.42-.122-2.133a15.966,15.966,0,0,0-.617-3.853,11.653,11.653,0,0,0-3.607-5.673,11.627,11.627,0,0,0-6.31-2.56,13.312,13.312,0,0,0-6.97,1.129,10.864,10.864,0,0,0-4.8,4.412,13.059,13.059,0,0,0-1.571,7.142,17.706,17.706,0,0,0,.283,2.357.574.574,0,0,0,.7.4.581.581,0,0,0,.4-.7" transform="translate(-464.702 0.005)" fill="#060000"/>
        <path id="パス_251" data-name="パス 251" d="M685.188,322.274v2.666c0,.122,0,.245,0,.368v.005a.585.585,0,0,0,.569.569.575.575,0,0,0,.4-.167.591.591,0,0,0,.167-.4v-2.666c0-.123,0-.245,0-.368v-.005a.585.585,0,0,0-.569-.569.575.575,0,0,0-.4.167.591.591,0,0,0-.167.4" transform="translate(-644.325 -302.518)" fill="#060000"/>
        <path id="パス_252" data-name="パス 252" d="M613.561,325.675a.585.585,0,0,0,.569-.569.575.575,0,0,0-.167-.4.591.591,0,0,0-.4-.167.585.585,0,0,0-.569.569.575.575,0,0,0,.167.4.592.592,0,0,0,.4.167" transform="translate(-576.434 -305.181)" fill="#060000"/>
        <path id="パス_253" data-name="パス 253" d="M757.956,325.675a.585.585,0,0,0,.569-.569.575.575,0,0,0-.167-.4.592.592,0,0,0-.4-.167.585.585,0,0,0-.569.569.575.575,0,0,0,.167.4.591.591,0,0,0,.4.167" transform="translate(-712.218 -305.181)" fill="#060000"/>
        <path id="パス_254" data-name="パス 254" d="M588.5,258.609c-.111.046-.227.082-.342.117a10.178,10.178,0,0,1-1.019.25c-.291.057-.583.1-.877.144l.151-.02q-.439.059-.88.1a.585.585,0,0,0-.569.569.575.575,0,0,0,.167.4.559.559,0,0,0,.4.167,16.854,16.854,0,0,0,2.105-.3,8.7,8.7,0,0,0,1.013-.272c.051-.017.1-.035.151-.056a.638.638,0,0,0,.34-.261.424.424,0,0,0,.067-.212.431.431,0,0,0-.01-.227.575.575,0,0,0-.261-.34l-.136-.057a.574.574,0,0,0-.3,0" transform="translate(-550.08 -243.167)" fill="#060000"/>
        <path id="パス_255" data-name="パス 255" d="M733.546,259.7a4.368,4.368,0,0,0,.476.157,11.8,11.8,0,0,0,1.429.306q.679.106,1.364.164a.585.585,0,0,0,.569-.569.575.575,0,0,0-.167-.4l-.115-.089a.566.566,0,0,0-.287-.078q-.441-.037-.88-.1l.151.02a13.487,13.487,0,0,1-1.408-.261,7.471,7.471,0,0,1-.721-.21c-.036-.013-.073-.026-.109-.041a.431.431,0,0,0-.227-.01.423.423,0,0,0-.211.068.637.637,0,0,0-.262.34l-.02.151a.565.565,0,0,0,.078.287l.089.115a.568.568,0,0,0,.251.146" transform="translate(-689.406 -243.159)" fill="#060000"/>
        <path id="パス_256" data-name="パス 256" d="M667.59,431.16a1.26,1.26,0,0,1,.144-.069l-.136.057a2.6,2.6,0,0,1,.658-.175l-.151.02a2.91,2.91,0,0,1,.767,0l-.151-.02a3.226,3.226,0,0,1,.811.224l-.136-.057.046.02a.423.423,0,0,0,.211.067.584.584,0,0,0,.567-.272.574.574,0,0,0,.057-.439l-.057-.136a.572.572,0,0,0-.2-.2,3.82,3.82,0,0,0-.9-.287,3.578,3.578,0,0,0-.807-.054,3.135,3.135,0,0,0-1.011.216,2.369,2.369,0,0,0-.28.126.548.548,0,0,0-.272.567.424.424,0,0,0,.068.212.575.575,0,0,0,.34.262.6.6,0,0,0,.438-.057" transform="translate(-626.971 -404.197)" fill="#060000"/>
        <path id="パス_257" data-name="パス 257" d="M534.377,168.867c-.067.113-.127.232-.186.349-.178.357-.336.724-.481,1.1a12.431,12.431,0,0,0-.465,1.455,12.234,12.234,0,0,0-.328,1.966,9.654,9.654,0,0,0,.043,2.075c.018.136.036.273.058.408a.637.637,0,0,0,.261.34.424.424,0,0,0,.212.068.431.431,0,0,0,.227-.01.576.576,0,0,0,.34-.262l.057-.136a.573.573,0,0,0,0-.3q-.02-.122-.036-.245l.02.151a9.651,9.651,0,0,1-.047-2.065q.023-.274.059-.547l-.02.151a11.584,11.584,0,0,1,.274-1.383q.153-.585.363-1.154.1-.267.209-.529l-.057.136q.13-.307.277-.606c.055-.112.112-.222.173-.331l.03-.052a.424.424,0,0,0,.068-.212.584.584,0,0,0-.272-.567.574.574,0,0,0-.438-.057.6.6,0,0,0-.34.262" transform="translate(-501.1 -158.53)" fill="#060000"/>
        <path id="パス_258" data-name="パス 258" d="M494.6,1098.956H469.939c-.333,0-.667,0-1,0H468.9a.569.569,0,1,0,0,1.138h24.663c.333,0,.667,0,1,0h.044a.569.569,0,1,0,0-1.138" transform="translate(-440.396 -1033.415)" fill="#060000"/>
        <path id="パス_259" data-name="パス 259" d="M1077.226,1098.968h-17.871c-.242,0-.483,0-.724,0h-.032a.569.569,0,1,0,0,1.138h17.871c.242,0,.483,0,.724,0h.032a.569.569,0,1,0,0-1.138" transform="translate(-994.931 -1033.427)" fill="#060000"/>
        <path id="パス_260" data-name="パス 260" d="M19.037,1098.968H1.319c-.239,0-.479,0-.718,0H.569a.569.569,0,1,0,0,1.138H18.288c.239,0,.479,0,.718,0h.031a.569.569,0,1,0,0-1.138" transform="translate(0 -1033.427)" fill="#060000"/>
      </g>
    </g>
  </g>
</svg>
