<svg xmlns="http://www.w3.org/2000/svg" width="472.88" height="3.998" viewBox="0 0 472.88 3.998">
  <path id="dotted_line" d="M125.059,4l-1.134-.05a1,1,0,0,1-.951-1.047,1.012,1.012,0,0,1,1.047-.951l1.037.05,5.9-.29a1,1,0,1,1,.1,2ZM42.384,4l-2.8-.131a1,1,0,1,1,.1-2l2.7.131,4.232-.209a1,1,0,0,1,.1,2ZM208.309,3.97a1,1,0,0,1-.048-2l7.029-.34a1,1,0,1,1,.1,2l-7.028.34h-.049m245.984-.038h-.049l-7.029-.341a1,1,0,0,1-.95-1.048.983.983,0,0,1,1.047-.95l7.028.341a1,1,0,0,1-.047,2M292.646,3.89a1,1,0,0,1-.048-2l7.028-.341a1.014,1.014,0,0,1,1.047.95,1,1,0,0,1-.95,1.048l-7.028.341h-.049m77.31-.039h-.049l-7.028-.34a1,1,0,1,1,.1-2l7.027.34a1,1,0,0,1-.047,2m7.026-.041a1,1,0,0,1-.047-2l7.028-.341a1,1,0,0,1,.1,2l-7.029.341h-.049m-91.363-.039h-.049l-7.028-.34a1,1,0,0,1-.951-1.047.984.984,0,0,1,1.048-.951l7.028.34a1,1,0,0,1-.048,2m175.7-.042a1,1,0,0,1-.047-2l7.028-.34a1,1,0,0,1,.1,2l-7.029.34h-.049M201.283,3.69h-.05l-7.028-.339a1,1,0,1,1,.1-2l7.028.339a1,1,0,0,1-.047,2m-84.337-.081H116.9l-7.028-.339a1,1,0,0,1-.951-1.047.984.984,0,0,1,1.047-.951l7.028.339a1,1,0,0,1-.047,2m-84.337-.08H32.56l-7.028-.34a1,1,0,0,1,.1-2l7.028.34a1,1,0,0,1-.047,2M53.691,3.45a1,1,0,0,1-.047-2l7.028-.34a1,1,0,0,1,.1,2l-7.028.34h-.05m84.337-.08a1,1,0,0,1-.048-2l7.029-.34a1,1,0,1,1,.1,2l-7.028.34h-.049m84.337-.08a1,1,0,0,1-.048-2L229.346.95a1,1,0,1,1,.1,2l-7.028.341h-.049m217.872-.039h-.049l-7.029-.34a1,1,0,0,1,.1-2l7.028.34a1,1,0,0,1-.047,2M306.7,3.209a1,1,0,0,1-.048-2l7.028-.34a1,1,0,1,1,.1,2l-7.028.34H306.7m49.2-.038h-.049l-7.028-.34a1,1,0,0,1,.1-2l7.028.34a1,1,0,0,1-.047,2m35.138-.042a1,1,0,0,1-.047-2l7.028-.34a1,1,0,0,1,.1,2l-7.029.34h-.049M271.563,3.091h-.049l-7.028-.34a1,1,0,1,1,.1-2l7.027.34a1,1,0,0,1-.047,2m203.812-.042a1,1,0,0,1-.047-2l7.028-.34a1,1,0,0,1,.1,2l-7.029.34h-.049M187.227,3.01h-.05l-7.028-.34a1,1,0,1,1,.1-2l7.028.34a1,1,0,0,1-.047,2M102.89,2.93h-.05l-7.027-.34a1,1,0,1,1,.1-2l7.028.34a1,1,0,0,1-.047,2M18.553,2.849H18.5l-7.027-.34a1,1,0,1,1,.1-2L18.6.85a1,1,0,0,1-.047,2m49.2-.078a1,1,0,0,1-.048-2l7.028-.34a1,1,0,0,1,.1,2L67.8,2.77h-.049m84.336-.081a1,1,0,0,1-.047-2l7.028-.34a1,1,0,0,1,.1,2l-7.029.34h-.049m84.337-.081a1,1,0,0,1-.047-2L243.4.271a1,1,0,1,1,.1,2l-7.028.339h-.049m189.76-.038h-.05L419.1,2.23a1,1,0,0,1,.1-2l7.028.341a1,1,0,0,1-.047,2M320.758,2.529a1,1,0,0,1-.048-2l7.028-.34a1,1,0,1,1,.1,2l-7.028.34h-.049m21.086-.038h-.05l-7.027-.341a1,1,0,0,1-.951-1.047.984.984,0,0,1,1.047-.951l7.028.341a1,1,0,0,1-.047,2m63.25-.042a1,1,0,0,1-.047-2l7.028-.34a.983.983,0,0,1,1.048.952,1,1,0,0,1-.951,1.046l-7.028.34h-.05M257.507,2.41h-.049l-7.028-.34a1,1,0,0,1,.1-2l7.028.34a1,1,0,0,1-.047,2M173.17,2.33h-.049L166.3,2l-.111.01a1,1,0,1,1-.094-2L166.3,0l6.918.33a1,1,0,0,1-.048,2M88.834,2.25h-.05L83.626,2l-1.773.091a1,1,0,0,1-.1-2L83.626,0l5.255.25a1,1,0,0,1-.047,2" transform="translate(-10.524 -0.001)" fill="#040404"/>
</svg>
