<svg xmlns="http://www.w3.org/2000/svg" width="288.544" height="186.5" viewBox="0 0 288.544 186.5">
  <g id="graph01" transform="translate(0 8.957)">
    <path id="Line" d="M-8794.692,5478.067h288.544" transform="translate(8794.692 -5356.524)" fill="none" stroke="#f7f7f7" stroke-width="1"/>
    <path id="Line-2" data-name="Line" d="M-8794.692,5478.067h288.544" transform="translate(8794.692 -5382.524)" fill="none" stroke="#f7f7f7" stroke-width="1"/>
    <path id="Line-3" data-name="Line" d="M-8794.692,5478.067h288.544" transform="translate(8794.692 -5408.524)" fill="none" stroke="#f7f7f7" stroke-width="1"/>
    <path id="Line-4" data-name="Line" d="M-8794.692,5478.067h288.544" transform="translate(8794.692 -5434.524)" fill="none" stroke="#f7f7f7" stroke-width="1"/>
    <path id="Line-5" data-name="Line" d="M-8794.692,5478.067h288.544" transform="translate(8794.692 -5460.524)" fill="none" stroke="#f7f7f7" stroke-width="1"/>
    <path id="Line-6" data-name="Line" d="M-8794.692,5478.067h288.544" transform="translate(8794.692 -5486.524)" fill="#f7f7f7" stroke="#f7f7f7" stroke-width="1"/>
    <rect id="長方形_380" data-name="長方形 380" width="22" height="91" transform="translate(14.467 56.042)" fill="#a2efef" style="mix-blend-mode: multiply;isolation: isolate"/>
    <rect id="長方形_386" data-name="長方形 386" width="22" height="40" transform="translate(120.467 107.042)" fill="#a2efef" style="mix-blend-mode: multiply;isolation: isolate"/>
    <rect id="長方形_381" data-name="長方形 381" width="22" height="147" transform="translate(40.467 0.042)" fill="#ff8f1b" style="mix-blend-mode: multiply;isolation: isolate"/>
    <rect id="長方形_387" data-name="長方形 387" width="22" height="34" transform="translate(146.467 113.042)" fill="#a2efef" style="mix-blend-mode: multiply;isolation: isolate"/>
    <rect id="長方形_382" data-name="長方形 382" width="22" height="137" transform="translate(67.467 10.042)" fill="#a2efef" style="mix-blend-mode: multiply;isolation: isolate"/>
    <rect id="長方形_384" data-name="長方形 384" width="22" height="24" transform="translate(173.467 123.042)" fill="#a2efef" style="mix-blend-mode: multiply;isolation: isolate"/>
    <rect id="長方形_389" data-name="長方形 389" width="22.76" height="15.4" transform="translate(225.405 131.599)" fill="#a2efef" style="mix-blend-mode: multiply;isolation: isolate"/>
    <rect id="長方形_383" data-name="長方形 383" width="22" height="74" transform="translate(93.467 73.042)" fill="#a2efef" style="mix-blend-mode: multiply;isolation: isolate"/>
    <rect id="長方形_385" data-name="長方形 385" width="22" height="24" transform="translate(199.467 123.042)" fill="#a2efef" style="mix-blend-mode: multiply;isolation: isolate"/>
    <rect id="長方形_388" data-name="長方形 388" width="22.76" height="15.4" transform="translate(251.416 131.599)" fill="#a2efef" style="mix-blend-mode: multiply;isolation: isolate"/>
    <path id="Line-7" data-name="Line" d="M-8794.692,5478.067h288.544" transform="translate(8794.692 -5330.524)" fill="none" stroke="#707070" stroke-width="1"/>
    <g id="グループ_2889" data-name="グループ 2889" transform="translate(10.387 -1497.043)">
      <text id="_271万円" data-name="~271万円" transform="translate(0 1673.586)" font-size="10" font-family="HiraKakuProN-W3, Hiragino Kaku Gothic ProN" letter-spacing="-0.02em"><tspan x="0" y="0">~271万円</tspan></text>
      <text id="_667万円_" data-name="667万円~" transform="translate(218.086 1673.586)" font-size="10" font-family="HiraKakuProN-W3, Hiragino Kaku Gothic ProN" letter-spacing="-0.02em"><tspan x="0" y="0">667万円~</tspan></text>
    </g>
  </g>
</svg>
