<svg xmlns="http://www.w3.org/2000/svg" xmlns:xlink="http://www.w3.org/1999/xlink" width="34.37" height="34" viewBox="0 0 34.37 34">
  <defs>
    <clipPath id="clip-path">
      <rect id="長方形_548" data-name="長方形 548" width="17.3" height="34" transform="translate(151.598 15.611)" fill="#fff"/>
    </clipPath>
  </defs>
  <g id="half-rated-orange" transform="translate(-151.598 -15.611)">
    <path id="unrated-orange" d="M836.823,157.833a.792.792,0,0,1,.386.095l10.119,5.337-1.937-11.308a.824.824,0,0,1,.237-.73l8.179-8.009L842.5,141.56a.839.839,0,0,1-.621-.443l-5.062-10.287-5.057,10.287a.811.811,0,0,1-.613.445l-11.308,1.658,8.184,8.009a.823.823,0,0,1,.237.73l-1.93,11.308,10.114-5.337a.788.788,0,0,1,.377-.095" transform="translate(-667.839 -114.549)" fill="#c4eae9"/>
    <g id="half-rated-orange-2" data-name="half-rated-orange" clip-path="url(#clip-path)">
      <path id="パス_6096" data-name="パス 6096" d="M836.823,157.833a.792.792,0,0,1,.386.095l10.119,5.337-1.937-11.308a.824.824,0,0,1,.237-.73l8.179-8.009L842.5,141.56a.839.839,0,0,1-.621-.443l-5.062-10.287-5.057,10.287a.811.811,0,0,1-.613.445l-11.308,1.658,8.184,8.009a.823.823,0,0,1,.237.73l-1.93,11.308,10.114-5.337a.788.788,0,0,1,.377-.095" transform="translate(-667.839 -114.549)" fill="#ff8f1b"/>
    </g>
  </g>
</svg>
