<svg xmlns="http://www.w3.org/2000/svg" width="77.725" height="73.497" viewBox="0 0 77.725 73.497">
  <g id="kakeru" transform="translate(-189.034 -4.546)">
    <g id="グループ_2566" data-name="グループ 2566" transform="translate(221.334 35.261)">
      <path id="パス_3537" data-name="パス 3537" d="M-10050.168,4112.446l-43.3,40.661" transform="translate(10093.473 -4112.446)" fill="none" stroke="#000" stroke-linecap="round" stroke-width="3"/>
      <path id="パス_3538" data-name="パス 3538" d="M40.662,0,0,43.3" transform="translate(0.001 40.662) rotate(-90)" fill="none" stroke="#000" stroke-linecap="round" stroke-width="3"/>
    </g>
    <g id="グループ_103" data-name="グループ 103" transform="matrix(0.996, -0.087, 0.087, 0.996, -1766.675, -3785.882)">
      <path id="パス_1538" data-name="パス 1538" d="M1660.366,3982.859a17.219,17.219,0,0,1-4.189,5.729,20.522,20.522,0,0,1-6.7,3.358s4.02,5.49,7.276,7.59,5.749.812,5.749.812a3.031,3.031,0,0,0,1.811,1.481,5.216,5.216,0,0,0,2.713-.695,3.054,3.054,0,0,0,1.457-2.035,6.8,6.8,0,0,0-.88-3.138s.756-1.647-1.053-4.923A61.161,61.161,0,0,0,1660.366,3982.859Z" transform="translate(-0.545 -0.551)" fill="#fff"/>
      <path id="パス_1532" data-name="パス 1532" d="M45.017,27.581a14.8,14.8,0,1,1-14.8-14.8,14.8,14.8,0,0,1,14.8,14.8" transform="translate(1615.749 3948.792)" fill="#fff000"/>
      <path id="パス_1533" data-name="パス 1533" d="M40.622,30.318a.983.983,0,0,0,.6-1.252c-1.519-4.35-4.7-6.372-8.494-5.409a7.01,7.01,0,0,0-3.839,2.555,5.4,5.4,0,0,0-2.848,2.642c-1.715,3.543.185,7.529,2.827,9.908A.984.984,0,1,0,30.189,37.3c-2.1-1.887-3.642-4.965-2.373-7.589.021-.042.042-.085.065-.126a4.622,4.622,0,0,0,1.681,2.97,3.368,3.368,0,0,0,4.016.4,3.208,3.208,0,0,0,1.156-1.482,3.906,3.906,0,0,0-.239-3.264,4.439,4.439,0,0,0-2.5-2.15,4.95,4.95,0,0,1,1.219-.5c3.767-.955,5.47,2.192,6.154,4.15a.984.984,0,0,0,1.252.6M32.753,29.13a1.941,1.941,0,0,1,.152,1.615,1.267,1.267,0,0,1-.436.587,1.452,1.452,0,0,1-1.621-.266,2.421,2.421,0,0,1-.961-2.481,3,3,0,0,1,.272-.707,2.58,2.58,0,0,1,1.053,0,2.436,2.436,0,0,1,1.541,1.246" transform="translate(1615.587 3948.619)" fill="#1a1311"/>
      <path id="パス_1534" data-name="パス 1534" d="M27.335,10.8h.024a.985.985,0,0,0,.96-1.008L28.1.96A.967.967,0,0,0,27.093,0a.985.985,0,0,0-.96,1.008l.218,8.833a.985.985,0,0,0,.984.959" transform="translate(1615.575 3949)" fill="#1a1311" stroke="#1a1311" stroke-width="0.5"/>
      <path id="パス_1535" data-name="パス 1535" d="M51.729,46.153l-.033-.035a9.163,9.163,0,0,0,.69-2.112c.362-1.946-5.385-9.049-7.014-10.988l-.25-.348A15.779,15.779,0,1,0,30.2,43.353a15.953,15.953,0,0,0,1.926-.129A38.328,38.328,0,0,0,38.2,49.938a7.8,7.8,0,0,0,5.159,2.285,6.3,6.3,0,0,0,1.834-.285,4.865,4.865,0,0,0,2.987,1.47c.089.006.176.009.264.009A4.572,4.572,0,0,0,51.692,51.9c1.851-1.85,1.864-3.782.036-5.742M16.375,27.565A13.821,13.821,0,1,1,30.2,41.385a13.837,13.837,0,0,1-13.821-13.82M37.542,41.787a17.815,17.815,0,0,0,5.228-4.025,21.287,21.287,0,0,0,1.955-2.55c.211.263.447.565.7.889-1.506,5.559-8.055,8.234-9.575,8.784-.458-.517-.9-1.045-1.3-1.595.709-.332,1.67-.823,3-1.5m-.221,4.64c2.36-.96,7.477-3.543,9.523-8.43.469.642.943,1.306,1.388,1.951-1.662,5.714-8.962,8.1-9.037,8.129-.027.009-.045.029-.071.039-.609-.545-1.212-1.108-1.8-1.689m3.614,3.094c2.132-.884,6.637-3.206,8.633-7.54a6.956,6.956,0,0,1,.867,1.738,8.852,8.852,0,0,1-5.246,6.135,4.41,4.41,0,0,1-4.254-.333M50.3,50.5a2.644,2.644,0,0,1-1.974.94,2.4,2.4,0,0,1-1.132-.4,11.331,11.331,0,0,0,3.45-3.135c.584.734.786,1.469-.343,2.6" transform="translate(1615.766 3948.809)" fill="#1a1311"/>
      <path id="パス_1536" data-name="パス 1536" d="M16.269,15.592a.984.984,0,0,0,1.474-1.3c-2.228-2.517-5.856-6.651-6.265-7.2a.984.984,0,0,0-1.784.806c.079.234.146.437,6.576,7.7" transform="translate(1615.843 3948.893)" fill="#1a1311" stroke="#1a1311" stroke-width="0.5"/>
      <path id="パス_1537" data-name="パス 1537" d="M10.688,24.289c-3.276-.459-8.647-1.241-9.351-1.416a.983.983,0,0,0-.9,1.737c.231.154.432.287,9.976,1.626a.923.923,0,0,0,.137.01.984.984,0,0,0,.136-1.958" transform="translate(1616 3948.629)" fill="#1a1311" stroke="#1a1311" stroke-width="0.5"/>
    </g>
  </g>
</svg>
