<svg xmlns="http://www.w3.org/2000/svg" width="38.232" height="57.309" viewBox="0 0 38.232 57.309">
  <g id="map_icon" transform="translate(-510.001 -6973.161)">
    <path id="合体_41" data-name="合体 41" d="M18.017,56.058,12.17,37.265q-.249-.1-.5-.2A19.262,19.262,0,0,1,1.5,26.8,19.393,19.393,0,0,1,5.6,5.649a19.078,19.078,0,0,1,6.078-4.133,19.012,19.012,0,0,1,14.882,0A19.256,19.256,0,0,1,36.729,11.781a19.387,19.387,0,0,1-4.1,21.147,19.085,19.085,0,0,1-6.077,4.135l-.165.07c-1.015,4.253-4.02,16.606-5.294,18.926-.513.938-1.025,1.251-1.483,1.251C18.7,57.309,18.017,56.058,18.017,56.058ZM14.469,14.6a6.671,6.671,0,0,0,0,9.376,6.529,6.529,0,0,0,9.293,0,6.642,6.642,0,0,0-4.645-11.318A6.5,6.5,0,0,0,14.469,14.6Z" transform="translate(510.001 6973.161)" fill="#19cecd"/>
  </g>
</svg>
