<svg xmlns="http://www.w3.org/2000/svg" width="32.633" height="56.578" viewBox="0 0 32.633 56.578">
  <g id="map_icon-sp" transform="translate(-510 -6973.161)">
    <ellipse id="楕円形_114" data-name="楕円形 114" cx="16.216" cy="5.867" rx="16.216" ry="5.867" transform="translate(510 7018.006) rotate(-1)" fill="#e2e2e8"/>
    <path id="合体_41" data-name="合体 41" d="M9886.179-3873.777l-4.926-15.832q-.209-.082-.417-.171a16.072,16.072,0,0,1-5.12-3.483,16.183,16.183,0,0,1-3.449-5.164,16.262,16.262,0,0,1-1.266-6.326,16.251,16.251,0,0,1,1.266-6.324,16.193,16.193,0,0,1,3.449-5.165,16.078,16.078,0,0,1,5.12-3.481,15.89,15.89,0,0,1,6.27-1.278,15.891,15.891,0,0,1,6.268,1.278,16.052,16.052,0,0,1,5.119,3.481,16.179,16.179,0,0,1,3.45,5.165,16.235,16.235,0,0,1,1.267,6.324,16.245,16.245,0,0,1-1.267,6.326,16.17,16.17,0,0,1-3.45,5.164,16.068,16.068,0,0,1-5.119,3.483l-.14.059c-.854,3.583-3.386,13.99-4.459,15.944-.433.79-.864,1.054-1.25,1.054C9886.755-3872.724,9886.179-3873.777,9886.179-3873.777Zm-2.989-34.925a5.577,5.577,0,0,0-1.621,3.948,5.575,5.575,0,0,0,1.621,3.95,5.474,5.474,0,0,0,3.916,1.636,5.471,5.471,0,0,0,3.913-1.636,5.571,5.571,0,0,0,1.621-3.95,5.566,5.566,0,0,0-5.534-5.584A5.48,5.48,0,0,0,9883.189-3908.7Z" transform="translate(-9361 10894.162)" fill="#19cecd"/>
  </g>
</svg>
