<svg xmlns="http://www.w3.org/2000/svg" xmlns:xlink="http://www.w3.org/1999/xlink" width="150.105" height="205.833" viewBox="0 0 150.105 205.833">
  <defs>
    <clipPath id="clip-path">
      <rect id="長方形_21" data-name="長方形 21" width="138.58" height="200.189" fill="none"/>
    </clipPath>
    <clipPath id="clip-path-2">
      <rect id="長方形_20" data-name="長方形 20" width="138.579" height="200.189" fill="none"/>
    </clipPath>
    <clipPath id="clip-path-3">
      <rect id="長方形_19" data-name="長方形 19" width="66.915" height="84.277" fill="none"/>
    </clipPath>
  </defs>
  <g id="pref_mv_illust" transform="translate(-466.572 -419.167)">
    <ellipse id="楕円形_90" data-name="楕円形 90" cx="72" cy="18.5" rx="72" ry="18.5" transform="matrix(0.996, -0.087, 0.087, 0.996, 470, 588.141)" fill="#e2e2e8"/>
    <g id="グループ_56" data-name="グループ 56" transform="translate(466.572 419.167)">
      <g id="グループ_55" data-name="グループ 55" clip-path="url(#clip-path)">
        <g id="グループ_54" data-name="グループ 54">
          <g id="グループ_53" data-name="グループ 53" clip-path="url(#clip-path-2)">
            <path id="パス_1073" data-name="パス 1073" d="M90.606,86.652,49.2,38.3c-1.363,7.876-4.678,13.691-9.061,17.769l.047.055L87.61,110.46l3.487,3.315c3.174,2.693,7.581,1.533,7.97-6.405.428-8.77-2.226-15.6-6.8-18.662Z" transform="translate(38.366 36.604)" fill="#fff000"/>
            <path id="パス_1074" data-name="パス 1074" d="M4.1,34.072C.886,63.577,17.557,83.431,35.606,95.052c10.282,6.622,28.252,7.432,39.367-2.92,4.381-4.078,7.7-9.893,9.059-17.769,5.86-33.855-11.614-59.781-37.716-71.6C27.246-5.877,6.482,12.241,4.1,34.072M54.464,16.288C70.7,26.951,79.549,46.1,77.47,70c-2.147,24.72-22.421,28.516-36.914,20.29-14.9-8.451-29.848-30.245-29.7-53.928.125-20.2,19.4-31.616,36.216-24.111a52.426,52.426,0,0,1,7.393,4.039" transform="translate(3.536 0.536)" fill="#fff000"/>
            <g id="グループ_52" data-name="グループ 52" transform="translate(14.39 10.467)" opacity="0.5">
              <g id="グループ_51" data-name="グループ 51">
                <g id="グループ_50" data-name="グループ 50" clip-path="url(#clip-path-3)">
                  <path id="パス_1075" data-name="パス 1075" d="M43.572,7.669C26.752.167,7.484,11.585,7.359,31.781c-.149,23.685,14.8,45.477,29.7,53.93,14.493,8.226,34.767,4.428,36.916-20.292C76.051,41.525,67.2,22.371,50.965,11.708a52.317,52.317,0,0,0-7.393-4.039" transform="translate(-7.358 -5.351)" fill="#fff"/>
                </g>
              </g>
            </g>
            <path id="パス_1076" data-name="パス 1076" d="M22.995,3.833C12.559,9.787,4.923,21.819,3.54,34.489c-3.667,33.677,18.477,53.317,32,62.027a35.047,35.047,0,0,0,18.61,5.087c7.87,0,16-2.437,22.107-8.126,4.915-4.575,8.076-10.761,9.394-18.389,5.488-31.7-9.206-59.6-38.348-72.8-7.767-3.519-16.4-2.971-24.313,1.541M83.482,74.712c-1.236,7.141-4.17,12.91-8.725,17.149v0c-10.7,9.965-28.064,9.21-38.017,2.8C23.64,86.226,2.195,67.225,5.735,34.727,7.041,22.738,14.247,11.365,24.088,5.75A25.635,25.635,0,0,1,36.817,2.212,23.118,23.118,0,0,1,46.4,4.3C74.579,17.064,88.79,44.045,83.482,74.712" transform="translate(2.998 0)" fill="#060000"/>
            <path id="パス_1077" data-name="パス 1077" d="M44.561,7.2A26.74,26.74,0,0,0,19.085,8.984c-7.751,5-12.23,13.5-12.29,23.323C6.644,56.725,22.271,78.814,37.053,87.2a30.28,30.28,0,0,0,14.825,4.049,23.322,23.322,0,0,0,10.884-2.562c5.2-2.732,11.655-8.881,12.85-22.64,2.054-23.624-6.511-43.572-23.5-54.728A53.691,53.691,0,0,0,44.561,7.2M7.9,32.315h0ZM73.413,65.857c-.878,10.106-4.917,17.327-11.678,20.88C55,90.277,45.96,89.722,38.142,85.282,23.906,77.207,8.854,55.9,9,32.321c.057-9.069,4.168-16.9,11.279-21.483A24.127,24.127,0,0,1,33.38,7,25.253,25.253,0,0,1,43.662,9.209,51.591,51.591,0,0,1,50.9,13.164c16.29,10.7,24.495,29.9,22.513,52.693" transform="translate(6.493 4.581)" fill="#060000"/>
            <path id="パス_1078" data-name="パス 1078" d="M95.755,114.321a3.273,3.273,0,0,1-3.384-.806l-3.45-3.28-47.385-54.3a1.1,1.1,0,0,0-1.664,1.451l47.423,54.34a.838.838,0,0,0,.07.074l3.534,3.356a6.092,6.092,0,0,0,3.9,1.565,4.59,4.59,0,0,0,1.835-.376c1.389-.6,3.763-2.494,4.052-8.383.432-8.866-2.237-16.151-7.148-19.537l-1.576-1.952-41.4-48.355a1.1,1.1,0,1,0-1.674,1.434L90.263,87.884l1.659,2.054a1.028,1.028,0,0,0,.244.225c4.352,2.908,6.714,9.523,6.313,17.692-.168,3.43-1.162,5.787-2.724,6.466" transform="translate(37.851 36.066)" fill="#060000"/>
            <path id="パス_1079" data-name="パス 1079" d="M38.981,10.85,26.256,16.587a1.1,1.1,0,1,0,.906,2.011l12.725-5.736a1.1,1.1,0,1,0-.906-2.011" transform="translate(24.474 10.276)" fill="#060000"/>
            <path id="パス_1080" data-name="パス 1080" d="M36.514,14.828,10.775,24.984a1.1,1.1,0,0,0,.4,2.13,1.133,1.133,0,0,0,.4-.076L37.323,16.879a1.1,1.1,0,1,0-.81-2.052" transform="translate(9.632 14.099)" fill="#060000"/>
            <path id="パス_1081" data-name="パス 1081" d="M45.1,14.909,25.652,23.9A1.1,1.1,0,0,0,26.115,26a1.087,1.087,0,0,0,.464-.1l19.449-8.989a1.1,1.1,0,1,0-.925-2" transform="translate(23.907 14.153)" fill="#060000"/>
            <path id="パス_1082" data-name="パス 1082" d="M20.124,22.72l-3.237,1.69a1.1,1.1,0,1,0,1.019,1.956l3.237-1.69a1.1,1.1,0,1,0-1.019-1.956" transform="translate(15.573 21.597)" fill="#060000"/>
            <path id="パス_1083" data-name="パス 1083" d="M26.332,20.351l-5.768,2.934a1.1,1.1,0,0,0,.5,2.087,1.115,1.115,0,0,0,.5-.119l5.768-2.936a1.1,1.1,0,1,0-1-1.966" transform="translate(19.08 19.336)" fill="#060000"/>
            <path id="パス_1084" data-name="パス 1084" d="M28.8,34.811c0-1.557.552-2.2-1.207-2.662-4.669.778-5.51,8.166-7.416,12.259,2.194-1.005,4.911,1.657,5.766,3.835l.047-.014c3.114-2.3,4.841-5.394,3.916-7.69s-3.869-1.385-3.869-2.942c0-.778,2.764-2.009,2.764-2.787" transform="translate(19.289 30.728)" fill="#fff"/>
            <path id="パス_1085" data-name="パス 1085" d="M37.855,69.072c3.892-8.561,6.227-17.123,5.447-26.462a2.377,2.377,0,0,0-.092-.248c-.857-2.181-3.573-4.843-5.768-3.837a1.83,1.83,0,0,0-.366.194c-2.335,2.335.452,2.257-2.505,8.244l-.055.123a12.27,12.27,0,0,1,2.6,1.6,4.334,4.334,0,0,1,.53.467,5.332,5.332,0,0,1-.164,7.37,5.276,5.276,0,0,1-5.572.677,19.7,19.7,0,0,1-1.721-1.463.858.858,0,0,1-.233-.5l-.225.045s-2.617-1.96-4.631-7.759L21.487,43.6l-.016-.139a14.505,14.505,0,0,1-3.509.047c-2.967-.366-6.718-1.666-7.776-4.219l-.233-.078c-.1.327-.227.645-.35.956a15.218,15.218,0,0,1-1.838,3.278l.07.055c-2.38,7.176-3.665,21.94-5,29.38C2.466,74.894,1.764,87.3,2.341,89.369a5.327,5.327,0,0,0,2.32,2.818C7.8,94.3,13.143,95.3,15.635,95.581a32.042,32.042,0,0,0,11.76-.966,20.806,20.806,0,0,0,4.211-1.463,4.957,4.957,0,0,0,2.537-2.474c1.113-2.918-1.183-16.112-1.784-18.913l.047-.358c1.557.778,3.892,0,5.449-2.335" transform="translate(2.028 36.613)" fill="#fff"/>
            <path id="パス_1086" data-name="パス 1086" d="M21.073,42.89c-.825-.319-1.58-.3-2.046.46-.974,1.572-1.659,3.54-2.842,4.723a26.519,26.519,0,0,1,.327,2.965.847.847,0,0,0,.235.5A19.672,19.672,0,0,0,18.465,53a5.276,5.276,0,0,0,5.572-.677,5.328,5.328,0,0,0,.164-7.37,4.193,4.193,0,0,0-.53-.467,12.221,12.221,0,0,0-2.6-1.6" transform="translate(15.47 40.807)" fill="#fff"/>
            <path id="パス_1087" data-name="パス 1087" d="M14.844,108.876c3.1-.1,9.247-4.5,13.388-7.105,0,0,.372-4.9-2.562-6.624-2.816-1.657-4.248-.131-4.248-.131h-.039l-.149,3.595a15.461,15.461,0,0,1-4.258,3.573c-1.586.692-6.5.428-6.5.428l.3,2.809s-.872,3.628,4.062,3.456" transform="translate(10.016 90.204)" fill="#060000"/>
            <path id="パス_1088" data-name="パス 1088" d="M14.467,69.248c-2.49-.28-7.837-1.277-10.974-3.393l-.149.209s-.068,37.577.538,53.089l.334-.016s2.949,1.455,4.725,1.105a9.494,9.494,0,0,0,6.552-4.755l.46-.039.685,7.325.663,7.1s4.911.264,6.5-.428a15.461,15.461,0,0,0,4.258-3.573l.149-3.595,2.265-55.4-.031-.055a20.776,20.776,0,0,1-4.211,1.465,32.08,32.08,0,0,1-11.76.964" transform="translate(3.194 62.945)" fill="#5ecbcc"/>
            <path id="パス_1089" data-name="パス 1089" d="M26.083,31.112c-2.918-3.268-7.714-5.167-11.946-4.039,0,0-4.344.544-6.57,2.4A11.864,11.864,0,0,0,3.356,35.7c1.946.11,4.483,2.3,5.183,4.117a15.788,15.788,0,0,1,.235,10.436l.233.078c1.058,2.552,4.809,3.853,7.776,4.219a14.309,14.309,0,0,0,3.509-.047,15.384,15.384,0,0,0,5.854-1.97c2.863-1.774,1.129-8.1,1.688-10.031.755-2.568.755-6.351-1.75-11.395" transform="translate(3.208 25.564)" fill="#fff"/>
            <path id="パス_1090" data-name="パス 1090" d="M21.41,41.051c.147.422,6.2-3.317,6.943-9.849.221-1.964-5.251-3.74-7.686-4.315s-7.884,1.455-10.6,2.7-4.8,5.783-4.8,5.783-2.959.812-4.117,1.96-.282,4.209,0,5.494,2.758,5.31,2.758,5.31L2.589,52.606l.874,6.184a26.194,26.194,0,0,0,4.442-2.7c1.359-1.2,3.526-5.439,3.526-5.439l1.862.241a7.112,7.112,0,0,0,3.01,0c1.039-.4,3.6-4.958,3.6-4.958l-.88-1a34.778,34.778,0,0,0-1.9-3.161c-.3-.241.616-1.439,1.084-2.4s2.455-.458,3.2,1.672" transform="translate(0.54 25.603)" fill="#060000"/>
            <path id="パス_1091" data-name="パス 1091" d="M8.678,96.006C6.9,96.356,3.954,94.9,3.954,94.9l-.336.016a37.205,37.205,0,0,0,.538,6.483c1.183,2.662,5.3.988,5.3.988.6-.374,4.242-2.406,6.92-3.853l-.686-7.323-.458.039a9.5,9.5,0,0,1-6.554,4.755" transform="translate(3.458 87.182)" fill="#060000"/>
            <path id="パス_1092" data-name="パス 1092" d="M9.252,50.115a15.151,15.151,0,0,0,1.837-3.276c.125-.313.248-.632.35-.958a15.788,15.788,0,0,0-.233-10.436c-.7-1.821-3.237-4.009-5.183-4.117,0,0-4.064-.2-5.028,2.466-1.666,4.624,1.97,6.173,3.229,9.456.724,1.891-1.571,2.818-1.557,5.152.023,2.554,2.226,5.044.553,6.679a15.591,15.591,0,0,0,6.032-4.966" transform="translate(0.541 29.94)" fill="#060000"/>
            <path id="パス_1093" data-name="パス 1093" d="M5.806,61.84c.96-7.16,2.048-15.275,3.614-19.994a1.1,1.1,0,0,0-2.095-.694c-1.631,4.915-2.734,13.139-3.706,20.4-.464,3.454-.9,6.716-1.336,9.136C1.938,72.6,1.15,85.267,1.818,87.671A6.346,6.346,0,0,0,4.58,91.1c3.949,2.666,10.712,3.489,11.467,3.573a29.423,29.423,0,0,0,3.346.186,34.5,34.5,0,0,0,8.823-1.179l.082-.023a21.043,21.043,0,0,0,4.346-1.524,5.964,5.964,0,0,0,3.067-3.065c1.4-3.673-1.7-19.382-1.735-19.537A1.1,1.1,0,0,0,31.819,70c.947,4.422,2.711,15.979,1.831,18.287a3.894,3.894,0,0,1-2.018,1.893,19.576,19.576,0,0,1-3.9,1.353l-.082.022a31,31,0,0,1-11.352.933C13.745,92.2,8.67,91.2,5.816,89.276a4.256,4.256,0,0,1-1.876-2.2c-.495-1.786.147-13.976.514-16,.444-2.472.886-5.756,1.351-9.235" transform="translate(1.489 38.61)" fill="#060000"/>
            <path id="パス_1094" data-name="パス 1094" d="M17.216,45.111a1.107,1.107,0,0,0-.231-.385L13.373,40.8A1.1,1.1,0,0,0,11.749,42.3l3.46,3.757c2.091,5.881,4.817,7.974,4.933,8.062a1.088,1.088,0,0,0,.657.219,1.1,1.1,0,0,0,.673-1.979c-.023-.018-2.4-1.907-4.256-7.244" transform="translate(10.952 38.66)" fill="#060000"/>
            <path id="パス_1095" data-name="パス 1095" d="M26.2,70.959a1.041,1.041,0,0,0-.225-.084C20.256,69.445,16,65.359,11.026,60.169A1.1,1.1,0,1,0,9.434,61.7c4.082,4.262,9.157,9.564,15.9,11.291a4,4,0,0,0,1.674.36,6.406,6.406,0,0,0,5.069-3.125,1.077,1.077,0,0,0,.086-.155c4.493-9.887,6.255-18.469,5.543-27.01a1.837,1.837,0,0,0-.082-.34,2.031,2.031,0,0,0-.084-.221,8.373,8.373,0,0,0-4.183-4.428,3.81,3.81,0,0,0-3.035-.023,2.834,2.834,0,0,0-.553.3,1.126,1.126,0,0,0-.166.137,3.769,3.769,0,0,0-1.35,3.372c.037.935.09,2.216-1.365,5.161a1.1,1.1,0,1,0,1.977.978c1.705-3.452,1.637-5.122,1.592-6.229a1.633,1.633,0,0,1,.618-1.635c.033-.018.053-.025.057-.027.025-.01.051-.02.074-.031a1.632,1.632,0,0,1,1.324.049,6.21,6.21,0,0,1,2.979,3.241l.012.023c.645,8.083-1.048,16.253-5.326,25.692-1.287,1.88-3.01,2.38-3.99,1.889" transform="translate(8.724 36.073)" fill="#060000"/>
            <path id="パス_1096" data-name="パス 1096" d="M22.012,42.4a2.542,2.542,0,0,0-3.386.907c-.368.595-.688,1.228-1,1.84a10.905,10.905,0,0,1-1.682,2.685,1.1,1.1,0,0,0-.213,1.256,8.883,8.883,0,0,1,.088,1.1A11.284,11.284,0,0,0,15.97,51.8l.006.022a1.83,1.83,0,0,0,.638,1.132c.094.07.264.231.462.415a6.794,6.794,0,0,0,1.475,1.177,6.775,6.775,0,0,0,2.762.593,5.751,5.751,0,0,0,5.926-5.766,6.364,6.364,0,0,0-1.719-4.661,5.194,5.194,0,0,0-.655-.575A13.18,13.18,0,0,0,22.012,42.4m-6.249,6.753v0m2.163,2.026c.018.014.037.027.059.045-.022-.018-.041-.031-.059-.045m5.918.859a4.171,4.171,0,0,1-4.336.522c-.164-.1-.688-.585-.939-.816-.164-.153-.313-.289-.442-.4a11.136,11.136,0,0,1-.106-1.26c-.023-.475-.043-.857-.086-1.173a15.5,15.5,0,0,0,1.655-2.764c.305-.6.595-1.166.913-1.686.063-.1.143-.225.714,0a11.522,11.522,0,0,1,2.349,1.459,3.2,3.2,0,0,1,.381.34,4.19,4.19,0,0,1,1.085,3.033,3.859,3.859,0,0,1-1.189,2.744" transform="translate(14.931 40.268)" fill="#060000"/>
            <path id="パス_1097" data-name="パス 1097" d="M25.883,47.88a1.1,1.1,0,1,0,1.306,1.776c3.706-2.732,5.386-6.261,4.283-8.989a4.253,4.253,0,0,0-3.157-2.445c-.1-.029-.229-.067-.346-.1.209-.166.462-.35.643-.483.986-.716,1.835-1.334,1.835-2.284,0-.3.027-.563.047-.794.108-1.232.029-2.386-2.077-2.936a1.105,1.105,0,0,0-.46-.022c-4.1.683-5.592,5.242-6.91,9.261a36.311,36.311,0,0,1-1.291,3.548,1.1,1.1,0,1,0,1.966,1,36.882,36.882,0,0,0,1.424-3.863c1.142-3.493,2.325-7.1,4.944-7.725a1.623,1.623,0,0,1,.233.09c0,.117-.016.305-.029.452-.02.225-.041.475-.047.755a10.334,10.334,0,0,1-.931.731c-.984.716-1.837,1.334-1.837,2.284,0,1.553,1.385,1.96,2.212,2.2.894.262,1.455.458,1.737,1.15.692,1.713-.767,4.34-3.546,6.39" transform="translate(18.747 30.19)" fill="#060000"/>
            <path id="パス_1098" data-name="パス 1098" d="M14.611,91.293a8.334,8.334,0,0,1-5.772,4.148c-1.015.2-3.008-.512-4.023-1.011a1.1,1.1,0,0,0-.976,1.977,12.335,12.335,0,0,0,4.618,1.273,4.193,4.193,0,0,0,.808-.074A10.559,10.559,0,0,0,16.6,92.24a1.1,1.1,0,0,0-1.991-.947" transform="translate(3.083 86.662)" fill="#060000"/>
            <path id="パス_1099" data-name="パス 1099" d="M3.886,65.4h0a1.1,1.1,0,0,0-1.1,1.1c0,.376-.063,37.777.538,53.134.235,5.981.491,6.568.632,6.888a3.774,3.774,0,0,0,3.741,2.153,8.3,8.3,0,0,0,2.981-.591,1.238,1.238,0,0,0,.168-.086c.553-.344,4.113-2.333,6.861-3.82a1.08,1.08,0,0,0,.26-.2,1.1,1.1,0,0,0-.776-1.885,1.082,1.082,0,0,0-.589.172c-2.5,1.353-5.969,3.282-6.824,3.794-.475.17-3.147,1.05-3.794-.407-.057-.172-.26-1.125-.456-6.11-.6-15.312-.538-52.668-.536-53.044a1.106,1.106,0,0,0-1.1-1.105" transform="translate(2.656 62.508)" fill="#060000"/>
            <path id="パス_1100" data-name="パス 1100" d="M10.975,108.981a4.988,4.988,0,0,0,4.078,1.545c.119,0,.243,0,.368-.006,2.867-.094,7.532-3.125,11.647-5.8.806-.524,1.578-1.027,2.29-1.475a1.108,1.108,0,0,0,.512-.849c.018-.229.385-5.605-3.1-7.659-3.536-2.081-5.531-.025-5.613.063a1.084,1.084,0,0,0,.037,1.52,1.119,1.119,0,0,0,1.547.016c.094-.088.982-.831,2.91.3,1.666.982,2.028,3.622,2.034,5.054-.577.37-1.189.767-1.821,1.177-3.487,2.267-8.263,5.373-10.518,5.445a3.293,3.293,0,0,1-2.652-.718,1.811,1.811,0,0,1-.3-1.377,1.113,1.113,0,0,0,.025-.377l-.3-2.809a1.1,1.1,0,0,0-2.194.237l.286,2.648a3.936,3.936,0,0,0,.769,3.063" transform="translate(9.476 89.663)" fill="#060000"/>
            <path id="パス_1101" data-name="パス 1101" d="M25.409,66.87l-2.4,58.61a13.36,13.36,0,0,1-3.614,2.992,17.779,17.779,0,0,1-5.048.374L9.685,78.923a1.1,1.1,0,1,0-2.2.205l4.757,50.884a1.1,1.1,0,0,0,1.039,1c.327.018,1.162.057,2.171.057a14.718,14.718,0,0,0,4.825-.575,16.258,16.258,0,0,0,4.663-3.876,1.107,1.107,0,0,0,.258-.663l2.412-59a1.1,1.1,0,0,0-2.2-.09" transform="translate(7.153 62.904)" fill="#060000"/>
            <path id="パス_1102" data-name="パス 1102" d="M24.848,29.026a1.1,1.1,0,1,0-1.975.982c2.49,5.011,2.288,8.525,1.678,10.6a11.058,11.058,0,0,0-.1,3.29c.115,2.216.278,5.251-1.109,6.11a14.334,14.334,0,0,1-5.414,1.815,13.178,13.178,0,0,1-3.235.045c-2.846-.35-6.079-1.582-6.892-3.546a1.1,1.1,0,1,0-2.038.845c1.232,2.971,5.281,4.473,8.66,4.891a13.607,13.607,0,0,0,1.625.094,17.087,17.087,0,0,0,2.165-.143A16.4,16.4,0,0,0,24.5,51.882c2.5-1.549,2.3-5.337,2.151-8.1a11.54,11.54,0,0,1,.014-2.554c.72-2.445.988-6.546-1.821-12.2" transform="translate(5.43 27.158)" fill="#060000"/>
            <path id="パス_1103" data-name="パス 1103" d="M14.661,34.572c.1.037.327.143.364.334a1.1,1.1,0,0,0,2.167-.42,2.7,2.7,0,0,0-1.752-1.979,3.152,3.152,0,0,0-3.018.393,4.093,4.093,0,0,0-1.082,4.727,7.2,7.2,0,0,0,2.275,2.844,4.582,4.582,0,0,1-1.5,3.022c-1.068,1.074-2.9,1.813-4.32,1.142a1.1,1.1,0,1,0-.939,1.995,4.937,4.937,0,0,0,2.124.467,6.916,6.916,0,0,0,4.7-2.05,6.9,6.9,0,0,0,2.153-4.4l.084-.415a1.1,1.1,0,0,0-.432-1.113,5.584,5.584,0,0,1-2.093-2.312,1.928,1.928,0,0,1,.376-2.157.992.992,0,0,1,.9-.078" transform="translate(5.943 30.866)" fill="#060000"/>
            <path id="パス_1104" data-name="パス 1104" d="M20.384,43.5a1.1,1.1,0,0,0,1.111,1.907c3.818-2.224,6.186-13.431,6.208-13.542a1.1,1.1,0,0,0-.258-.949c-3.37-3.775-8.582-5.533-12.983-4.391-.636.088-4.758.718-7.06,2.642A12.965,12.965,0,0,0,2.809,36.04a1.1,1.1,0,0,0,2.171.411,10.975,10.975,0,0,1,3.835-5.59c1.944-1.627,5.957-2.151,6-2.157a1.256,1.256,0,0,0,.145-.027c3.427-.913,7.653.442,10.466,3.307-.8,3.632-2.967,10.307-5.04,11.516" transform="translate(2.668 25.024)" fill="#060000"/>
            <path id="パス_1105" data-name="パス 1105" d="M2.852,56.247a1.1,1.1,0,0,0,1.371.376,16.647,16.647,0,0,0,6.458-5.312,16.475,16.475,0,0,0,1.973-3.522c.135-.338.27-.685.374-1.023a16.8,16.8,0,0,0-.252-11.176c-.814-2.118-3.677-4.684-6.151-4.823l-.008,0c-.2-.01-4.89-.2-6.12,3.2-1.324,3.677.262,5.8,1.662,7.667a10.89,10.89,0,0,1,1.576,2.558c.17.448.016.749-.5,1.565a5.616,5.616,0,0,0-1.125,3.2A10.315,10.315,0,0,0,2.8,52.136c.52,1.539.683,2.216.19,2.7a1.108,1.108,0,0,0-.139,1.416m-.28-21.537c.6-1.655,3.3-1.743,3.843-1.743.051,0,.084,0,.092,0,1.389.084,3.628,1.9,4.207,3.407a14.8,14.8,0,0,1,.211,9.72c-.092.3-.205.589-.317.864A14.065,14.065,0,0,1,8.9,50.006,14.591,14.591,0,0,1,5.43,53.4a11.792,11.792,0,0,0-.538-1.97,8.573,8.573,0,0,1-.581-2.5,3.619,3.619,0,0,1,.78-2,3.673,3.673,0,0,0,.7-3.54,12.709,12.709,0,0,0-1.87-3.088c-1.32-1.766-2.275-3.041-1.353-5.6" transform="translate(0 29.4)" fill="#060000"/>
          </g>
        </g>
      </g>
    </g>
  </g>
</svg>
