<svg xmlns="http://www.w3.org/2000/svg" width="209.059" height="88.815" viewBox="0 0 209.059 88.815">
  <g id="ranking-deco" transform="translate(-855.47 -4604.177)">
    <g id="グループ_2746" data-name="グループ 2746" transform="translate(-660.475 -338.823)">
      <path id="パス_3947" data-name="パス 3947" d="M-8249.619,8858.172s-5.007-17.264-2.819-20.271,11.569,8.238,11.569,8.238,6.858-13.09,9.255-13.09,9.91,13.09,9.91,13.09,7.964-10.223,10.476-8.238-2.269,20.271-2.269,20.271Z" transform="translate(9852.189 -3879.902)" fill="#030303"/>
      <circle id="楕円形_115" data-name="楕円形 115" cx="3.152" cy="3.152" r="3.152" transform="translate(1594 4948.043)" fill="#030303"/>
      <circle id="楕円形_116" data-name="楕円形 116" cx="3.152" cy="3.152" r="3.152" transform="translate(1616.693 4943)" fill="#030303"/>
      <circle id="楕円形_117" data-name="楕円形 117" cx="3.152" cy="3.152" r="3.152" transform="translate(1640.646 4948.043)" fill="#030303"/>
    </g>
    <g id="グループ_93" data-name="グループ 93" transform="translate(620.038 4582.351)">
      <path id="パス_733" data-name="パス 733" d="M637.08,222.106c5-1.526,10.027-2.958,15.09-4.251l-.382-1.488-.382-1.488c-5.109,1.3-10.183,2.75-15.227,4.29a5.717,5.717,0,0,0-3.8,3.571,4.582,4.582,0,0,0,1.031,4.663c2.426,2.56,3.623,3.849,5.984,6.447-.471,3.479-.689,5.217-1.089,8.69a4.851,4.851,0,0,0,1.862,4.395,5.26,5.26,0,0,0,4.8.868,348.22,348.22,0,0,1,38.117-9.125,5.132,5.132,0,0,0,4.252-5.793l-.606-3.858c-.634.1-.951.15-1.585.253s-.951.155-1.584.261l.645,3.851a1.986,1.986,0,0,1-1.648,2.257,351.665,351.665,0,0,0-38.492,9.215,2.013,2.013,0,0,1-1.871-.341,1.855,1.855,0,0,1-.708-1.711q.568-4.678,1.25-9.343a1.441,1.441,0,0,0-.352-1.173q-3.148-3.54-6.385-7a1.759,1.759,0,0,1-.384-1.812,2.185,2.185,0,0,1,1.467-1.375" transform="translate(-396.7 -137.398)" fill="#060000"/>
      <path id="パス_734" data-name="パス 734" d="M1095.571,229.54c-.633-.106-.95-.158-1.584-.261s-.951-.153-1.585-.253l-.606,3.858a5.131,5.131,0,0,0,4.252,5.793,348.241,348.241,0,0,1,38.117,9.125,5.259,5.259,0,0,0,4.8-.868,4.85,4.85,0,0,0,1.862-4.394c-.4-3.473-.617-5.212-1.089-8.69,2.361-2.6,3.558-3.888,5.984-6.447a4.582,4.582,0,0,0,1.031-4.662,5.718,5.718,0,0,0-3.8-3.572c-5.039-1.554-10.122-2.971-15.227-4.29-.153.6-.229.893-.382,1.488s-.229.893-.382,1.488c5.059,1.307,10.1,2.711,15.09,4.251a2.188,2.188,0,0,1,1.468,1.375,1.76,1.76,0,0,1-.385,1.812q-3.235,3.46-6.385,7a1.441,1.441,0,0,0-.352,1.173q.681,4.663,1.249,9.343a1.856,1.856,0,0,1-.707,1.711,2.014,2.014,0,0,1-1.871.341,351.655,351.655,0,0,0-38.492-9.215,1.985,1.985,0,0,1-1.648-2.257l.645-3.852" transform="translate(-702.506 -137.398)" fill="#060000"/>
      <path id="パス_735" data-name="パス 735" d="M696.479,170.679l.368,1.492,2.358,9.573a5.247,5.247,0,0,0,6.371,3.646q9.391-2.086,18.851-3.733c.639-.107.959-.16,1.6-.264s.96-.155,1.6-.255a338.411,338.411,0,0,1,100.823,0c.64.1.96.152,1.6.255s.96.157,1.6.264q9.477,1.65,18.85,3.733a5.247,5.247,0,0,0,6.371-3.646l2.358-9.573.367-1.492.367-1.492,1.669-6.775c.662-2.688-1.328-5.5-4.447-6.217a363.286,363.286,0,0,0-158.295,0c-3.118.714-5.109,3.529-4.446,6.217l1.669,6.775.367,1.492m3.1-11.489a360.327,360.327,0,0,1,156.923,0,2.1,2.1,0,0,1,1.727,2.4l-1.6,6.792-.352,1.5c-.141.6-.212.9-.353,1.5l-2.262,9.6a2.03,2.03,0,0,1-2.473,1.425q-9.479-2.107-19.029-3.769c-.645-.108-.968-.162-1.614-.266s-.969-.157-1.615-.258a341.079,341.079,0,0,0-101.778,0c-.646.1-.969.153-1.615.258s-.969.158-1.614.266q-9.567,1.665-19.029,3.769a2.03,2.03,0,0,1-2.473-1.425l-2.262-9.6-.353-1.5-.352-1.5-1.6-6.792a2.1,2.1,0,0,1,1.727-2.4" transform="translate(-438.075 -92.546)" fill="#060000"/>
      <path id="パス_736" data-name="パス 736" d="M771.194,190.211a4.125,4.125,0,0,0,2.23-4.489c-.423-2.914-2.672-4.094-6.734-3.431-1.513.247-2.27.375-3.781.639a1.926,1.926,0,0,0-1.226.714,1.521,1.521,0,0,0-.334,1.26l2.027,11.246a1.345,1.345,0,0,0,.644.938,1.68,1.68,0,0,0,2.191-.384,1.345,1.345,0,0,0,.287-1.1l-.648-3.806c-.021-.126.037-.2.176-.225.707-.12,1.061-.179,1.769-.3a.346.346,0,0,1,.34.119c1.177,1.4,1.76,2.1,2.916,3.5a2.74,2.74,0,0,0,1.217.861,3.086,3.086,0,0,0,1.545.156.984.984,0,0,0,.816-.586.963.963,0,0,0,.075-.5.86.86,0,0,0-.211-.435c-1.325-1.585-1.994-2.374-3.347-3.946-.085-.09-.069-.171.049-.241m-1.453-2.175a4.141,4.141,0,0,1-2.258.956c-.738.121-1.107.183-1.844.308-.14.024-.22-.027-.242-.154l-.681-3.995c-.021-.126.038-.2.18-.225.747-.127,1.121-.189,1.868-.312a4.817,4.817,0,0,1,2.485.087,1.742,1.742,0,0,1,1.045,1.489,2,2,0,0,1-.554,1.845" transform="translate(-482.659 -115.597)" fill="#060000"/>
      <path id="パス_737" data-name="パス 737" d="M819.719,190.1a2.16,2.16,0,0,0,1.208-.544,1.884,1.884,0,0,0,.622-1.108c.148-.876.223-1.314.374-2.19a.261.261,0,0,1,.249-.222c1.882-.216,2.823-.318,4.707-.508a.229.229,0,0,1,.269.166c.333.8.5,1.2.828,2a1.94,1.94,0,0,0,.868.987,2.205,2.205,0,0,0,1.338.289,1.161,1.161,0,0,0,.929-.546,1,1,0,0,0,.172-.652,1.2,1.2,0,0,0-.094-.358q-2.5-5.565-5.126-11.071a2.273,2.273,0,0,0-1.05-1.051,2.72,2.72,0,0,0-1.561-.28l-.086.009a2.716,2.716,0,0,0-1.466.606,2.272,2.272,0,0,0-.8,1.251q-1.4,5.969-2.665,11.969a1.009,1.009,0,0,0-.018.351.927.927,0,0,0,.325.578,1.1,1.1,0,0,0,.981.322m2.961-7.988q.471-2.449.84-4.846a.069.069,0,0,1,.06-.045c.028,0,.044.008.047.034.132.295.423.988.868,2.08s.786,1.916,1.029,2.47c.226.54.339.81.564,1.351a.15.15,0,0,1-.007.136.147.147,0,0,1-.12.07c-1.343.138-2.013.21-3.355.362a.176.176,0,0,1-.143-.042.133.133,0,0,1-.047-.13c.1-.576.157-.864.263-1.441" transform="translate(-520.64 -110.864)" fill="#060000"/>
      <path id="パス_738" data-name="パス 738" d="M884.028,180.739a.074.074,0,0,1-.075-.055c-.677-1.211-1.019-1.815-1.707-3.022-1.66-2.509-2.505-3.759-4.223-6.247a2.619,2.619,0,0,0-1.088-.889,3.012,3.012,0,0,0-1.466-.266,1.681,1.681,0,0,0-1.145.518,1.38,1.38,0,0,0-.412,1.087l.8,11.65a1.29,1.29,0,0,0,.5.948,1.592,1.592,0,0,0,2.109-.135,1.289,1.289,0,0,0,.376-1c-.106-1.779-.159-2.669-.265-4.448q-.035-.575-.131-1.3t-.167-1.193q-.071-.467-.209-1.344t-.2-1.162c0-.025.015-.039.051-.041a.078.078,0,0,1,.077.034c.722,1.188,1.081,1.783,1.792,2.974,1.692,2.506,2.523,3.765,4.157,6.292a2.346,2.346,0,0,0,1.015.918,2.862,2.862,0,0,0,1.379.292,1.608,1.608,0,0,0,1.112-.472,1.378,1.378,0,0,0,.432-1.062q-.189-5.845-.378-11.69a1.262,1.262,0,0,0-.484-.964,1.7,1.7,0,0,0-2.2.081,1.26,1.26,0,0,0-.412,1c.073,1.766.109,2.648.182,4.414a50.133,50.133,0,0,0,.626,5.03c0,.038-.015.058-.05.06" transform="translate(-557.57 -107.399)" fill="#060000"/>
      <path id="パス_739" data-name="パス 739" d="M939.032,169.53a1.75,1.75,0,0,0-2.308.008,1.329,1.329,0,0,0-.477,1.031q.046,5.819.093,11.638a1.347,1.347,0,0,0,.474,1.034,1.67,1.67,0,0,0,2.216-.007,1.349,1.349,0,0,0,.468-1.037c0-.976,0-1.464,0-2.439a.531.531,0,0,1,.126-.345c.73-.851,1.1-1.276,1.838-2.124a.115.115,0,0,1,.116-.047.164.164,0,0,1,.115.068c1.241,2,1.852,3,3.056,5.013a2.861,2.861,0,0,0,1.07,1.028,3.134,3.134,0,0,0,1.492.409.914.914,0,0,0,.861-.438.8.8,0,0,0,.025-.922c-1.789-2.962-2.7-4.437-4.575-7.374a.257.257,0,0,1,.026-.326c1.5-1.7,2.262-2.547,3.8-4.23a.686.686,0,0,0,.226-.456.748.748,0,0,0-.1-.367.832.832,0,0,0-.788-.46,3.922,3.922,0,0,0-1.615.3,3.443,3.443,0,0,0-1.3.93c-1.74,1.981-2.6,2.977-4.289,4.979a.076.076,0,0,1-.053.019c-.021,0-.032-.012-.031-.038,0-1.928,0-2.892.007-4.82a1.33,1.33,0,0,0-.484-1.028" transform="translate(-599.049 -106.939)" fill="#060000"/>
      <path id="パス_740" data-name="パス 740" d="M995.441,184.73a1.346,1.346,0,0,0,.525-1.009q.337-5.81.673-11.619a1.329,1.329,0,0,0-.425-1.053,1.752,1.752,0,0,0-2.305-.123,1.331,1.331,0,0,0-.534,1q-.282,5.813-.564,11.625a1.347,1.347,0,0,0,.416,1.059,1.671,1.671,0,0,0,2.214.118" transform="translate(-636.683 -107.904)" fill="#060000"/>
      <path id="パス_741" data-name="パス 741" d="M1036.009,184.64a.075.075,0,0,1-.067-.065c-.489-1.3-.736-1.948-1.236-3.244-1.267-2.73-1.915-4.092-3.242-6.81a2.623,2.623,0,0,0-.943-1.042,3.013,3.013,0,0,0-1.41-.483,1.681,1.681,0,0,0-1.211.34,1.378,1.378,0,0,0-.571,1.013q-.479,5.819-.958,11.638a1.289,1.289,0,0,0,.353,1.012,1.592,1.592,0,0,0,2.107.183,1.287,1.287,0,0,0,.523-.936l.405-4.438q.052-.573.066-1.305t.014-1.2q0-.472,0-1.36c0-.591-.011-.984-.022-1.178,0-.025.021-.036.056-.033a.079.079,0,0,1,.071.045c.537,1.283.8,1.924,1.327,3.209,1.3,2.732,1.932,4.1,3.17,6.845a2.353,2.353,0,0,0,.867,1.06,2.868,2.868,0,0,0,1.321.5,1.612,1.612,0,0,0,1.172-.3,1.377,1.377,0,0,0,.587-.985q.69-5.807,1.38-11.615a1.262,1.262,0,0,0-.335-1.026,1.7,1.7,0,0,0-2.189-.25,1.258,1.258,0,0,0-.558.924c-.193,1.756-.289,2.635-.482,4.391a50.161,50.161,0,0,0-.134,5.067c0,.038-.024.055-.058.052" transform="translate(-659.012 -109.526)" fill="#060000"/>
      <path id="パス_742" data-name="パス 742" d="M1091.314,185.084a4.3,4.3,0,0,1,3.5-.812,4.584,4.584,0,0,1,2.021.826,1.771,1.771,0,0,0,.829.377.709.709,0,0,0,.151.007,1.347,1.347,0,0,0,.959-.241,1.134,1.134,0,0,0,.48-.734.971.971,0,0,0-.356-.96,7.294,7.294,0,0,0-3.786-1.755,8.726,8.726,0,0,0-3.119.026,7.383,7.383,0,0,0-2.687,1.088,6.591,6.591,0,0,0-2,2.144,8.137,8.137,0,0,0-1.05,3.08,8.441,8.441,0,0,0,.132,3.268,6.54,6.54,0,0,0,1.254,2.569,7.128,7.128,0,0,0,2.152,1.763,9.05,9.05,0,0,0,2.873.955,8.592,8.592,0,0,0,3.714-.167,2.375,2.375,0,0,0,1.272-.847,3.328,3.328,0,0,0,.649-1.483l.572-3.176a1.532,1.532,0,0,0-.324-1.258,1.871,1.871,0,0,0-1.2-.709c-1.014-.177-1.521-.264-2.536-.433a1.348,1.348,0,0,0-.968.19,1.107,1.107,0,0,0-.274,1.668,1.347,1.347,0,0,0,.85.491c.516.086.774.13,1.291.218.139.023.2.1.175.225-.169.984-.253,1.476-.422,2.461a.356.356,0,0,1-.217.274,3.553,3.553,0,0,1-1.864.115,4.517,4.517,0,0,1-3.242-1.861,5.425,5.425,0,0,1-.622-3.884,5.121,5.121,0,0,1,1.8-3.427" transform="translate(-698.793 -115.299)" fill="#060000"/>
    </g>
  </g>
</svg>
