<svg xmlns="http://www.w3.org/2000/svg" width="36.109" height="34.486" viewBox="0 0 36.109 34.486">
  <path id="rated-orange" d="M836.823,157.833a.792.792,0,0,1,.386.095l10.119,5.337-1.937-11.308a.824.824,0,0,1,.237-.73l8.179-8.009L842.5,141.56a.839.839,0,0,1-.621-.443l-5.062-10.287-5.057,10.287a.811.811,0,0,1-.613.445l-11.308,1.658,8.184,8.009a.823.823,0,0,1,.237.73l-1.93,11.308,10.114-5.337a.788.788,0,0,1,.377-.095" transform="translate(-818.768 -129.697)" fill="#ff8f1b" stroke="#ff8f1b" stroke-width="1"/>
</svg>
