<svg xmlns="http://www.w3.org/2000/svg" xmlns:xlink="http://www.w3.org/1999/xlink" width="306" height="69" viewBox="0 0 306 69">
  <defs>
    <clipPath id="clip-path">
      <rect id="長方形_553" data-name="長方形 553" width="306" height="69" transform="translate(-10615 14533)" fill="#fff" stroke="#707070" stroke-width="1" opacity="0.253"/>
    </clipPath>
  </defs>
  <g id="steps" transform="translate(10615 -14533)" clip-path="url(#clip-path)">
    <path id="パス_4187" data-name="パス 4187" d="M.009,4.173c-.02,4.412,3.762,10.675,6.5,10.017,2.938-.707,5.96-2.5,7.283-5.456C14.747,6.6,6.729.165,3.476.008.437-.14-.081,1.7.009,4.173" transform="translate(-10576.724 14558.356) rotate(137)" fill="#ddd"/>
    <path id="パス_4199" data-name="パス 4199" d="M.009,4.173c-.02,4.412,3.762,10.675,6.5,10.017,2.938-.707,5.96-2.5,7.283-5.456C14.747,6.6,6.729.165,3.476.008.437-.14-.081,1.7.009,4.173" transform="translate(-10471.568 14558.356) rotate(137)" fill="#ddd"/>
    <path id="パス_4203" data-name="パス 4203" d="M.009,4.173c-.02,4.412,3.762,10.675,6.5,10.017,2.938-.707,5.96-2.5,7.283-5.456C14.747,6.6,6.729.165,3.476.008.437-.14-.081,1.7.009,4.173" transform="translate(-10366.413 14558.356) rotate(137)" fill="#ddd"/>
    <path id="パス_4190" data-name="パス 4190" d="M2.6,0C1.237-.075-.156.828.014,3.183.35,7.889,3.479,10.835,7.131,12.7c2.594,1.323,4.52-1.664,6.665-2.976,2.191-1.34,1.349-2.711.28-4.088C11.362,2.137,7.615.645,2.6,0" transform="translate(-10529.081 14578.613) rotate(137)" fill="#ddd"/>
    <path id="パス_4201" data-name="パス 4201" d="M2.6,0C1.237-.075-.156.828.014,3.183.35,7.889,3.479,10.835,7.131,12.7c2.594,1.323,4.52-1.664,6.665-2.976,2.191-1.34,1.349-2.711.28-4.088C11.362,2.137,7.615.645,2.6,0" transform="translate(-10423.926 14578.613) rotate(137)" fill="#ddd"/>
    <path id="パス_4205" data-name="パス 4205" d="M2.6,0C1.237-.075-.156.828.014,3.183.35,7.889,3.479,10.835,7.131,12.7c2.594,1.323,4.52-1.664,6.665-2.976,2.191-1.34,1.349-2.711.28-4.088C11.362,2.137,7.615.645,2.6,0" transform="translate(-10318.771 14578.613) rotate(137)" fill="#ddd"/>
    <path id="パス_4196" data-name="パス 4196" d="M0,5.143A34.48,34.48,0,0,0,3.825,7.86C5.877,8.947,8.217,9.043,9.45,6.852A4.8,4.8,0,0,0,8.728.9C6.634-1.14,5.274.747,3.808,2.023,2.575,3.1,1.281,4.1,0,5.143" transform="translate(-10544.633 14577.516) rotate(137)" fill="#ddd"/>
    <path id="パス_4200" data-name="パス 4200" d="M0,5.143A34.48,34.48,0,0,0,3.825,7.86C5.877,8.947,8.217,9.043,9.45,6.852A4.8,4.8,0,0,0,8.728.9C6.634-1.14,5.274.747,3.808,2.023,2.575,3.1,1.281,4.1,0,5.143" transform="translate(-10439.477 14577.516) rotate(137)" fill="#ddd"/>
    <path id="パス_4204" data-name="パス 4204" d="M0,5.143A34.48,34.48,0,0,0,3.825,7.86C5.877,8.947,8.217,9.043,9.45,6.852A4.8,4.8,0,0,0,8.728.9C6.634-1.14,5.274.747,3.808,2.023,2.575,3.1,1.281,4.1,0,5.143" transform="translate(-10334.321 14577.516) rotate(137)" fill="#ddd"/>
    <path id="パス_4197" data-name="パス 4197" d="M0,4.46c2.716,2.807,5.308,5.618,9.005,2.826,2.13-1.606,1.133-3.97.019-5.9C8.122-.183,6.894-.446,5.349.732,3.667,2.015,2.334,3.811,0,4.46" transform="translate(-10591.974 14555.759) rotate(137)" fill="#ddd"/>
    <path id="パス_4198" data-name="パス 4198" d="M0,4.46c2.716,2.807,5.308,5.618,9.005,2.826,2.13-1.606,1.133-3.97.019-5.9C8.122-.183,6.894-.446,5.349.732,3.667,2.015,2.334,3.811,0,4.46" transform="translate(-10486.818 14555.759) rotate(137)" fill="#ddd"/>
    <path id="パス_4202" data-name="パス 4202" d="M0,4.46c2.716,2.807,5.308,5.618,9.005,2.826,2.13-1.606,1.133-3.97.019-5.9C8.122-.183,6.894-.446,5.349.732,3.667,2.015,2.334,3.811,0,4.46" transform="translate(-10381.663 14555.759) rotate(137)" fill="#ddd"/>
  </g>
</svg>
