<svg xmlns="http://www.w3.org/2000/svg" xmlns:xlink="http://www.w3.org/1999/xlink" width="69.779" height="64.651" viewBox="0 0 69.779 64.651">
  <defs>
    <clipPath id="clip-path">
      <rect id="長方形_32" data-name="長方形 32" width="69.779" height="64.651" fill="none"/>
    </clipPath>
  </defs>
  <g id="useful03" transform="translate(-2344 -4558)">
    <path id="パス_1420" data-name="パス 1420" d="M2353.933,4565.5,2348,4618.54h59.33l-5.586-53.04Z" transform="translate(1.56 2.926)" fill="#fff"/>
    <rect id="長方形_33" data-name="長方形 33" width="66.725" height="18.071" transform="translate(2345.39 4559.39)" fill="#fff"/>
    <g id="グループ_95" data-name="グループ 95" transform="translate(2344 4558)">
      <g id="グループ_94" data-name="グループ 94" transform="translate(0 0)" clip-path="url(#clip-path)">
        <path id="パス_1414" data-name="パス 1414" d="M68.343,20.611H61.25a1.436,1.436,0,1,1,0-2.872h5.658V2.872H2.872V17.739H8.532a1.436,1.436,0,1,1,0,2.872h-7.1A1.435,1.435,0,0,1,0,19.175V1.436A1.435,1.435,0,0,1,1.436,0H68.343a1.435,1.435,0,0,1,1.436,1.436V19.175a1.435,1.435,0,0,1-1.436,1.436" transform="translate(0 -0.001)" fill="#070203"/>
        <path id="パス_1415" data-name="パス 1415" d="M63.814,61.751H4.317a1.079,1.079,0,0,1-1.07-1.2L8.991,7.813a1.078,1.078,0,0,1,1.072-.959h48a1.078,1.078,0,0,1,1.07.959l5.748,52.742a1.081,1.081,0,0,1-1.072,1.2M5.518,59.6H62.613L57.1,9.009H11.027Z" transform="translate(1.264 2.673)" fill="#f38200"/>
        <path id="パス_1416" data-name="パス 1416" d="M50.71,13.124H14.194a1.08,1.08,0,0,1-.628-.2L7.822,8.807A1.078,1.078,0,1,1,9.079,7.056l5.46,3.913H50.365l5.46-3.913a1.078,1.078,0,0,1,1.258,1.752l-5.745,4.115a1.08,1.08,0,0,1-.628.2" transform="translate(2.876 2.673)" fill="#f38200"/>
        <path id="パス_1417" data-name="パス 1417" d="M63.366,49.206a1.087,1.087,0,0,1-.769-.32L56.062,42.25l-43.146-.488L6.228,48.247a1.077,1.077,0,0,1-1.5-1.549l7-6.793a1.078,1.078,0,0,1,.76-.3l44.033.5a1.083,1.083,0,0,1,.756.32l6.85,6.951a1.077,1.077,0,0,1-.769,1.835" transform="translate(1.718 15.445)" fill="#f38200"/>
        <path id="パス_1418" data-name="パス 1418" d="M25.716,50.605a1.077,1.077,0,0,1-1.077-1.077V17.986a1.077,1.077,0,1,1,2.155,0V49.528a1.077,1.077,0,0,1-1.077,1.077" transform="translate(9.612 6.596)" fill="#f38200"/>
        <path id="パス_1419" data-name="パス 1419" d="M25.716,16.483a1.077,1.077,0,0,1-1.077-1.077V14.1a1.077,1.077,0,1,1,2.155,0v1.309a1.077,1.077,0,0,1-1.077,1.077" transform="translate(9.612 5.078)" fill="#f38200"/>
      </g>
    </g>
  </g>
</svg>
