<svg xmlns="http://www.w3.org/2000/svg" xmlns:xlink="http://www.w3.org/1999/xlink" width="60.976" height="54.565" viewBox="0 0 60.976 54.565">
  <defs>
    <clipPath id="clip-path">
      <rect id="長方形_40" data-name="長方形 40" width="60.976" height="54.565" fill="none"/>
    </clipPath>
  </defs>
  <g id="useful02" transform="translate(0 0)">
    <g id="グループ_2579" data-name="グループ 2579" transform="translate(0 0)" clip-path="url(#clip-path)">
      <path id="パス_1856" data-name="パス 1856" d="M11.289,76.822H59.86c.689-.616.246-5.776.246-6.675v-12.2H38.391v6.634a1.544,1.544,0,0,1-.453,1.138c-.01.012-.021.022-.031.033s-.036.037-.056.053a1.541,1.541,0,0,1-1.13.447H29.559a1.7,1.7,0,0,1-1.671-1.671V57.945H22.076c-5.138,0-10.284.083-15.422,0-.163,0-.323-.01-.481-.021V72.982a23.57,23.57,0,0,0,.028,3.84c.75.556,4.216,0,5.088,0" transform="translate(-2.704 -25.661)" fill="#5ecbcc"/>
      <path id="パス_1857" data-name="パス 1857" d="M103.063,21.2c.1-.524-.267-.185,0,0" transform="translate(-45.614 -9.266)" fill="#5ecbcc"/>
      <path id="パス_1858" data-name="パス 1858" d="M103.695,21.584a1.473,1.473,0,0,0,.17.006c-.044,0-.11-.005-.17-.006" transform="translate(-45.939 -9.562)" fill="#5ecbcc"/>
      <path id="パス_1859" data-name="パス 1859" d="M6.112,52.088c-.147.589.364.178,0,0" transform="translate(-2.696 -23.076)" fill="#5ecbcc"/>
      <path id="パス_1860" data-name="パス 1860" d="M6.217,25.086v9.932c0,.911.307,2.518,0,3.39-.006.017-.008.029-.014.045.343-.018.8.056,1.042.056H28.471a1.661,1.661,0,0,1,1.132-.461h7.161a1.657,1.657,0,0,1,1.132.461H60.16c0-.06,0-.128-.009-.211-.032-.519,0-1.049,0-1.568V25.562a16.087,16.087,0,0,1,0-3.866c.005-.016.007-.028.011-.043a12.273,12.273,0,0,1-1.464-.057H7.245c-.311,0-.676.046-1.013.037.34.768-.015,2.667-.015,3.453" transform="translate(-2.748 -9.567)" fill="#5ecbcc"/>
      <path id="パス_1861" data-name="パス 1861" d="M5.444,51.965c-.048,0-.1-.006-.157,0,.045,0,.1.006.157,0" transform="translate(-2.342 -23.019)" fill="#5ecbcc"/>
      <path id="パス_1862" data-name="パス 1862" d="M.127,29.473V50.086C.127,52.4.9,54.319,3.563,54.5c2.011.139,4.083,0,6.1,0H57.495a1.773,1.773,0,0,0,.456-.063c3.081-.634,2.793-3.512,2.793-5.94V36.952c0-7.036.521-14.287,0-21.306v-.128c0-1.924.625-5.27-1.392-6.449-1.012-.591-2.514-.384-3.632-.384H44.8a50.964,50.964,0,0,0-.086-5.267C44.447.119,41.695.1,39.171.1H27.7C25,.1,22.18-.126,19.479.1c-3.5.3-3.322,3.35-3.322,5.989,0,.863-.009,1.729-.02,2.6H15.9c-4.2,0-8.593-.367-12.783,0C.783,8.89.166,10.442.127,12.492.083,14.885.1,17.282.117,19.677c0,1.159-.005,2.318,0,3.477a44.469,44.469,0,0,0,.01,6.32M3.484,12.065c.338.008.7-.038,1.013-.038H55.95a12.385,12.385,0,0,0,1.464.058c0,.016-.006.027-.011.043a16.083,16.083,0,0,0,0,3.865V27.162c0,.52-.032,1.05,0,1.568.006.083.008.15.009.211H35.148a1.657,1.657,0,0,0-1.131-.461H26.855a1.658,1.658,0,0,0-1.132.461H4.5c-.243,0-.7-.074-1.042-.056.006-.016.008-.028.014-.045.307-.872,0-2.479,0-3.389V15.519c0-.786.355-2.685.015-3.453M32.346,37.247h-3.82V31.823h3.82ZM3.417,29.012c.364.179-.147.589,0,0m-.472-.071c.058,0,.108,0,.157,0-.052,0-.111-.006-.157,0m.524,18.38V32.263c.158.01.318.017.481.02,5.138.083,10.284,0,15.422,0h5.812v6.635a1.7,1.7,0,0,0,1.671,1.671h7.162a1.541,1.541,0,0,0,1.13-.447c.019-.017.037-.036.056-.053s.021-.022.031-.033a1.542,1.542,0,0,0,.453-1.138V32.283H57.4v12.2c0,.9.443,6.059-.246,6.675H8.585c-.872,0-4.338.556-5.088,0a23.573,23.573,0,0,1-.028-3.84M57.45,11.93c-.267-.185.1-.524,0,0m.307.092c.06,0,.125.007.17.006a1.469,1.469,0,0,1-.17-.006M19.5,3.589c.138-.234.066-.093.739-.146,1.144-.09,2.331,0,3.478,0h14.3a10.3,10.3,0,0,1,3.013,0c.554.221.342.045.342,1.111V8.686H19.5V7.015c0-.735-.38-2.782,0-3.426" transform="translate(0 0)" fill="#060000"/>
      <rect id="長方形_39" data-name="長方形 39" width="3.82" height="5.424" transform="translate(28.526 31.823)" fill="#fff"/>
    </g>
  </g>
</svg>
