<svg id="useful01" xmlns="http://www.w3.org/2000/svg" xmlns:xlink="http://www.w3.org/1999/xlink" width="48.087" height="61.463" viewBox="0 0 48.087 61.463">
  <defs>
    <clipPath id="clip-path">
      <rect id="長方形_41" data-name="長方形 41" width="48.087" height="61.463" fill="none"/>
    </clipPath>
  </defs>
  <g id="グループ_2581" data-name="グループ 2581" transform="translate(0 0)" clip-path="url(#clip-path)">
    <path id="パス_1863" data-name="パス 1863" d="M49.895,18.336V61.687A1.637,1.637,0,0,1,48.281,63.3H18.722v3.408H53.511V18.336Z" transform="translate(-8.652 -8.473)" fill="#fff"/>
    <path id="パス_1864" data-name="パス 1864" d="M40.788,54.373V6H6V54.373ZM16.778,23.567c2.016-1.18,4.377-.927,6.616-.927s4.6-.253,6.616.927c2.682,1.57,3.362,4.263,3.362,7.155a1.615,1.615,0,0,1-3.227,0c0-2.531-.743-4.573-3.618-4.855-1.024-.1-2.1,0-3.133,0a29.763,29.763,0,0,0-3.19,0c-2.844.313-3.561,2.361-3.561,4.855a1.615,1.615,0,0,1-3.227,0c0-2.892.68-5.586,3.362-7.155M32.352,47.3H14.437a1.615,1.615,0,0,1,0-3.227H32.352a1.615,1.615,0,0,1,0,3.227m0-5.916H14.437a1.615,1.615,0,0,1,0-3.227H32.352a1.615,1.615,0,0,1,0,3.227m-3.825-24.74a5.12,5.12,0,0,1-10.219.476,2.436,2.436,0,0,1,0-.956,5.12,5.12,0,0,1,10.218.48" transform="translate(-2.773 -2.773)" fill="#fff"/>
    <path id="パス_1865" data-name="パス 1865" d="M34.8,24.21c.132,2.443,3.811,2.466,3.811,0s-3.679-2.444-3.811,0" transform="translate(-16.079 -10.337)" fill="#fff"/>
    <path id="パス_1866" data-name="パス 1866" d="M.483,54.36c.011.01.02.02.032.03a1.488,1.488,0,0,0,1.1.438H6.843v5.022a1.49,1.49,0,0,0,.431,1.091c.017.019.035.037.052.055s.02.02.031.03a1.489,1.489,0,0,0,1.1.438H46.473a1.637,1.637,0,0,0,1.614-1.614V8.249a1.637,1.637,0,0,0-1.614-1.614h-5.23V1.614A1.637,1.637,0,0,0,39.629,0H1.614A1.637,1.637,0,0,0,0,1.614v51.6a1.49,1.49,0,0,0,.431,1.091c.016.019.034.036.052.055M3.227,3.227H38.016V51.6H3.227V3.227ZM44.859,58.236H10.07V54.828H39.629a1.637,1.637,0,0,0,1.614-1.614V9.863h3.616V58.236Z" transform="translate(0 0)" fill="#060000"/>
    <path id="パス_1867" data-name="パス 1867" d="M38.261,65.785H20.346a1.615,1.615,0,0,0,0,3.227H38.261a1.615,1.615,0,0,0,0-3.227" transform="translate(-8.682 -30.4)" fill="#060000"/>
    <path id="パス_1868" data-name="パス 1868" d="M38.261,76.784H20.346a1.615,1.615,0,0,0,0,3.227H38.261a1.615,1.615,0,0,0,0-3.227" transform="translate(-8.682 -35.482)" fill="#060000"/>
    <path id="パス_1869" data-name="パス 1869" d="M28.842,20.906a2.436,2.436,0,0,0,0,.956,5.129,5.129,0,1,0,0-.956m3.179.48c.132-2.444,3.811-2.464,3.811,0s-3.679,2.443-3.811,0" transform="translate(-13.305 -7.513)" fill="#5ecbcc"/>
    <path id="パス_1870" data-name="パス 1870" d="M23.014,45c0-2.494.717-4.542,3.561-4.855a29.762,29.762,0,0,1,3.19,0c1.032,0,2.109-.1,3.133,0,2.875.282,3.618,2.324,3.618,4.855a1.615,1.615,0,0,0,3.227,0c0-2.892-.68-5.586-3.362-7.155-2.016-1.18-4.378-.927-6.616-.927s-4.6-.253-6.616.927C20.467,39.411,19.787,42.1,19.787,45a1.615,1.615,0,0,0,3.227,0" transform="translate(-9.144 -17.048)" fill="#5ecbcc"/>
  </g>
</svg>
