<svg xmlns="http://www.w3.org/2000/svg" xmlns:xlink="http://www.w3.org/1999/xlink" width="73.633" height="58.328" viewBox="0 0 73.633 58.328">
  <defs>
    <clipPath id="clip-path">
      <rect id="長方形_42" data-name="長方形 42" width="73.633" height="58.328" fill="none"/>
    </clipPath>
  </defs>
  <g id="useful04" transform="translate(0 0)">
    <g id="グループ_2583" data-name="グループ 2583" transform="translate(0 0)" clip-path="url(#clip-path)">
      <path id="パス_1871" data-name="パス 1871" d="M41.308,52.4c.367,4.511,8.173,3.1,11.213,3.1h14.92a8.8,8.8,0,0,1,3.319.256A22.847,22.847,0,0,1,74.181,58l4.626,3.034-1.354-2.708A1.9,1.9,0,0,1,79.075,55.5c2.919,0,4.7-.927,4.827-3.99.1-2.356,0-4.739,0-7.1v-8.33c0-2.452.3-5.574-3.1-5.851a1.993,1.993,0,0,1-1.118-3.481H72.85c-.044,1.053-.083,2.058-.083,2.974,0,6.019,1.906,16.239-5.978,18.16-1.966.479-4.236.224-6.234.224H38.181c-.039,0-.084,0-.125,0v2.911A2.016,2.016,0,0,1,41.308,52.4" transform="translate(-14.24 -10.009)" fill="#fff"/>
      <path id="パス_1872" data-name="パス 1872" d="M80.5,26.308a1.657,1.657,0,0,0-1.119.273h0A1.993,1.993,0,0,0,80.5,30.063c3.405.277,3.1,3.4,3.1,5.851v8.33c0,2.357.1,4.74,0,7.1-.13,3.063-1.908,3.99-4.827,3.99a1.9,1.9,0,0,0-1.621,2.825L78.5,60.863l-4.626-3.034a22.821,22.821,0,0,0-3.421-2.243,8.8,8.8,0,0,0-3.319-.256H52.217c-3.04,0-10.846,1.409-11.213-3.1a2.017,2.017,0,0,0-3.253-1.373v0a1.573,1.573,0,0,0-.5,1.373c.471,5.8,5.01,6.857,9.825,6.857H63.65c1.613,0,3.687.355,5.276.017a10.134,10.134,0,0,0,2.189,1.4L82.34,67.864c1.677,1.1,3.352-1,2.569-2.568L81.65,58.777c3.124-.707,5.5-2.7,5.7-6.549.136-2.646,0-5.335,0-7.984,0-6.255,2.107-17.206-6.857-17.936" transform="translate(-13.935 -9.841)" fill="#5ecbcc"/>
      <path id="パス_1873" data-name="パス 1873" d="M57.024,23.85V13.4c0-3.1.29-6.969-4-7.286H12.528c-1.565,0-3.343-.216-4.716.694-2.233,1.479-1.754,4.53-1.754,6.827v9.909c0,2.678-.063,5.365,0,8.042a5.6,5.6,0,0,0,.695,3.284C8,36.752,10.138,36.623,12.1,36.623a1.9,1.9,0,0,1,1.621,2.825l-2.123,4.246c3.224-2.165,6.454-4.323,9.762-6.338a5.346,5.346,0,0,1,3.25-.733h8.5c6.289,0,12.6.147,18.884,0,2.878-.068,4.882-1.4,5.03-4.545.128-2.729,0-5.5,0-8.228M19.5,24.22a1.936,1.936,0,1,1,1.936-1.936A1.936,1.936,0,0,1,19.5,24.22m8.314,0a1.936,1.936,0,1,1,1.936-1.936,1.936,1.936,0,0,1-1.936,1.936m8.313,0a1.936,1.936,0,1,1,1.936-1.936,1.936,1.936,0,0,1-1.936,1.936m8.313,0a1.936,1.936,0,1,1,1.936-1.936,1.936,1.936,0,0,1-1.936,1.936" transform="translate(-2.251 -2.279)" fill="#fff"/>
      <path id="パス_1874" data-name="パス 1874" d="M58.61,16.74h0c.284-6.8.8-15.683-7.386-16.609a2.027,2.027,0,0,0-.452-.051H14.879C9.9.079,3.566-.952.858,4.416-.242,6.595.052,9.226.052,11.59V22.779c0,2.511-.119,5.055,0,7.564.216,4.548,3.142,6.785,6.89,7.495l-4.052,8.1c-.783,1.566.89,3.67,2.569,2.569,5.052-3.313,10.516-6.336,15.293-10.028a5.285,5.285,0,0,1,.546-.327,13.952,13.952,0,0,0,2.518-.053v0c.041,0,.086,0,.126,0H46.315c2,0,4.269.255,6.234-.224,7.885-1.921,5.978-12.142,5.978-18.16,0-.916.039-1.921.083-2.974M54.773,29.8c-.148,3.145-2.152,4.477-5.03,4.544-6.287.147-12.595,0-18.884,0h-8.5a5.342,5.342,0,0,0-3.25.734c-3.307,2.015-6.537,4.173-9.762,6.338l2.123-4.246a1.9,1.9,0,0,0-1.621-2.826c-1.959,0-4.1.13-5.344-1.754a5.6,5.6,0,0,1-.695-3.284c-.063-2.677,0-5.364,0-8.042V11.356c0-2.3-.479-5.347,1.754-6.827,1.372-.91,3.15-.695,4.716-.695H50.772c4.291.318,4,4.184,4,7.286V21.572c0,2.732.128,5.5,0,8.228" transform="translate(0 0)" fill="#060000"/>
      <path id="パス_1875" data-name="パス 1875" d="M26.406,32.744a1.936,1.936,0,1,0-1.936-1.936,1.936,1.936,0,0,0,1.936,1.936" transform="translate(-9.156 -10.804)" fill="#060000"/>
      <path id="パス_1876" data-name="パス 1876" d="M39.691,32.744a1.936,1.936,0,1,0-1.936-1.936,1.936,1.936,0,0,0,1.936,1.936" transform="translate(-14.127 -10.804)" fill="#060000"/>
      <path id="パス_1877" data-name="パス 1877" d="M52.975,32.744a1.936,1.936,0,1,0-1.936-1.936,1.936,1.936,0,0,0,1.936,1.936" transform="translate(-19.097 -10.804)" fill="#060000"/>
      <path id="パス_1878" data-name="パス 1878" d="M66.259,32.744a1.936,1.936,0,1,0-1.936-1.936,1.936,1.936,0,0,0,1.936,1.936" transform="translate(-24.068 -10.804)" fill="#060000"/>
    </g>
  </g>
</svg>
