<svg xmlns="http://www.w3.org/2000/svg" width="364.829" height="347.179" viewBox="0 0 364.829 347.179">
  <g id="voice_illust" transform="translate(-203.153 -98.315)">
    <path id="パス_245" data-name="パス 245" d="M308,282l24.074-14.064,1.085-22.83-23.9,14.06Z" transform="translate(31.919 44.686)" fill="#cfdee2"/>
    <path id="パス_246" data-name="パス 246" d="M330.358,240.172c-1.739,4.74-5.9,9.512-11.728,9.881q-.879.055-1.749.055c-10.118,0-19.338-5.3-23.519-8.11l-4.314,2.533,24.715,14.22,24.14-14.2Z" transform="translate(26.149 43.184)" fill="#fff"/>
    <path id="パス_247" data-name="パス 247" d="M322.032,209.6c-1.269.027-2.563.053-3.737.053-.467,0-.912,0-1.332-.014a1.111,1.111,0,0,1-.179.26c-1.22,1.181-11.542,11.037-17.2,12.277A99.219,99.219,0,0,0,297.8,235.2c-.253,3.479-.28,6.141-.279,7.3a27.1,27.1,0,0,0,3.06,1.435,37.228,37.228,0,0,0,15.471,2.559,21.966,21.966,0,0,0,10.837-3.184c.441-.282.813-.536,1.131-.775a13.422,13.422,0,0,0,1.833-1.617,130.394,130.394,0,0,0-3.564-31.374c-1.3-.01-2.794.018-4.26.05" transform="translate(28.729 33.859)" fill="#fff"/>
    <path id="パス_248" data-name="パス 248" d="M302.012,183.732c1.181,2.088,3.625,3.221,7.307,3.342.033,0,.064.009.1.013s.039-.009.06-.01a1.151,1.151,0,0,1,1.228,1.063c.232,3.239.132,6.838.035,10.319-.05,1.8-.1,3.667-.1,5.424-.008,5.166.368,10.735,3.2,12.867a4.429,4.429,0,0,0,1.03.584c1.49.082,3.655.035,5.751-.009,1.534-.033,3.094-.064,4.439-.048a1.147,1.147,0,0,1,.42-.215,1.206,1.206,0,0,1,.213-.035q.237-1.869.494-3.766c1.34-10,2.726-20.349-.449-29.472v-.005a13.418,13.418,0,0,0-23.722-.051" transform="translate(30.096 23.836)" fill="#5ecbcc"/>
    <path id="パス_249" data-name="パス 249" d="M284.317,264.715c.007.014.013.029.018.043q.726,1.8,1.514,3.648a9.951,9.951,0,0,0,1.531,2.587,11.723,11.723,0,0,1,.965,1.393l.74-22.959a1.148,1.148,0,0,1,.591-1.311l5.121-3.005c-.08-.061-.127-.1-.132-.1a1.147,1.147,0,1,1,1.43-1.795c.005,0,.509.4,1.4,1.025,3.811,2.654,13.833,8.766,24.472,8.1,5.209-.33,8.837-5.074,10.055-9.413a1.121,1.121,0,0,1,.1-.377q.127-.511.209-1.012a25.056,25.056,0,0,1-10.111,2.507q-.937.043-1.842.042a39.463,39.463,0,0,1-14.586-2.764,25.321,25.321,0,0,1-3.971-1.94,1.151,1.151,0,0,1-.526-.939c0-.124-.059-2.852.2-7.018a1.129,1.129,0,0,1-.723-.239c-4.572-3.694-8.219-5.588-11.478-5.959a11.55,11.55,0,0,0-1.233-.074,10.94,10.94,0,0,0-5.22,1.381c-9.414,5-4.4,23.519,1.471,38.183" transform="translate(22.666 38.61)" fill="#cfdee2"/>
    <path id="パス_250" data-name="パス 250" d="M296.3,221.443c.95,2.309,2.334,2.287,2.791,2.279h.116c3.515-.136,12-7.451,15.827-11.048a6.96,6.96,0,0,1-.62-.4c-3.446-2.592-4.063-8.087-4.11-13.793a12.146,12.146,0,0,1-2.428-1.135c-1.341,3.9-1.919,5.8-2.1,6.418a6.378,6.378,0,0,1,.29.592,6.621,6.621,0,0,1-.99,7.01,6.307,6.307,0,0,1-4.508,1.947H300.4a6.754,6.754,0,0,1-3.815-1.153c-.884,1.441-1.661,5.952-.288,9.284" transform="translate(28.13 30.146)" fill="#fff"/>
    <path id="パス_251" data-name="パス 251" d="M313.181,259.331,288.3,245.016l-.737,22.9,24.352,14.244Z" transform="translate(25.697 44.658)" fill="#fff"/>
    <path id="パス_252" data-name="パス 252" d="M306.378,198.712a11.854,11.854,0,0,0,2.349,1.372c.02-1.308.051-2.631.086-3.933.086-3.068.16-6.214.017-9.085-3.3-.244-5.841-1.287-7.47-3.082a13.353,13.353,0,0,0,5.018,14.728" transform="translate(29.724 26.078)" fill="#fff"/>
    <path id="パス_253" data-name="パス 253" d="M296.571,207.051a.98.98,0,0,0,.145.837,3.466,3.466,0,0,0,.355.412,4.333,4.333,0,0,0,3.146,1.167,3.993,3.993,0,0,0,2.867-1.2,4.359,4.359,0,0,0,.571-4.559,3.7,3.7,0,0,0-.429-.764,3.882,3.882,0,0,0-.445-.519,18.053,18.053,0,0,1-2.649,1.492c-.625.307-1.213.6-1.752.92a3.886,3.886,0,0,0-1.809,2.216" transform="translate(28.43 31.691)" fill="#fff"/>
    <path id="パス_254" data-name="パス 254" d="M287.6,225.706c3.3.635,6.774,2.481,11.037,5.853a101.214,101.214,0,0,1,1.632-11.572,5.245,5.245,0,0,1-3.337-2.849c-.023-.012-.048-.018-.07-.031-1.415-.789-3.257-.58-5.056.571a9.21,9.21,0,0,0-4.205,8.027" transform="translate(25.704 36.019)" fill="#cfdee2"/>
    <path id="パス_255" data-name="パス 255" d="M283.937,260.912c-.146-.287-.3-.6-.453-.969-.47-1.1-.92-2.191-1.358-3.27l-.112-.094c-.33-.273-.6-.5-.813-.668l-2.764,1.748c1.4.8,2.8,1.641,4.166,2.459.438.264.888.53,1.333.794" transform="translate(22.919 47.975)" fill="#5ecbcc"/>
    <path id="パス_256" data-name="パス 256" d="M287.689,289.959l.571.318a1.141,1.141,0,0,0,.562.149,1.1,1.1,0,0,0,.115-.014,1.139,1.139,0,0,0,.449.5l26.562,15.537a1.139,1.139,0,0,0,.215.09c.02.007.039.02.06.025a1.154,1.154,0,0,0,.3.043,1.141,1.141,0,0,0,.3-.04c.013,0,.026-.012.04-.016a1.136,1.136,0,0,0,.236-.1l.007,0,26.456-15.456a1.143,1.143,0,0,0,.567-.936l1.216-25.573c0-.014,0-.027,0-.042a1.092,1.092,0,0,0-.02-.226c0-.02-.005-.039-.01-.059a1.084,1.084,0,0,0-.094-.252c-.009-.02-.022-.037-.033-.055a1.15,1.15,0,0,0-.125-.173c-.018-.021-.035-.04-.055-.06a1.217,1.217,0,0,0-.185-.149c-.01-.007-.017-.017-.027-.022l-.009,0-.009-.007-9.74-5.651a14.247,14.247,0,0,0,.284-2.364c.245-.166.474-.327.678-.48a13.829,13.829,0,0,0,2.5-2.308,1.156,1.156,0,0,0,.239-.646,130.155,130.155,0,0,0-3.519-32.016,1.119,1.119,0,0,0,.557-.826c.2-1.662.425-3.346.652-5.043,1.042-7.769,2.105-15.739,1.111-23.334a1.153,1.153,0,0,0,.018-.179,15.747,15.747,0,0,0-20.413-15.022,15.832,15.832,0,0,0-9.525,8.243,15.746,15.746,0,0,0,4.307,19c-.96,2.778-1.565,4.631-1.931,5.788-.117-.082-.233-.166-.356-.239a1.147,1.147,0,0,0-1.388.164,11.346,11.346,0,0,1-2.829,1.721c-.638.313-1.3.638-1.914,1.007a6.141,6.141,0,0,0-2.88,3.716,3.28,3.28,0,0,0,.374,2.382c-1.6,1.988-2.095,6.358-1.406,9.8a7.778,7.778,0,0,0-5.45,1.315,11.621,11.621,0,0,0-5.272,9.71c-.087,0-.183-.008-.267-.008a13.173,13.173,0,0,0-6.3,1.649c-8.4,4.465-8.617,17.351-.655,38.307a1.17,1.17,0,0,0-.206.093l-5.07,3.208a1.148,1.148,0,0,0,.063,1.977c1.92,1.051,3.882,2.227,5.777,3.363,1.795,1.075,3.65,2.188,5.473,3.2m-5.7-9.375q.319.26.813.669l.114.094c.437,1.079.887,2.165,1.358,3.27.155.365.305.681.451.969-.445-.266-.894-.531-1.333-.794-1.366-.818-2.764-1.657-4.165-2.459Zm6.612-40.123a11.212,11.212,0,0,1,1.231.074c3.258.369,6.906,2.263,11.478,5.957a1.132,1.132,0,0,0,.724.239c-.261,4.166-.206,6.9-.2,7.018a1.144,1.144,0,0,0,.526.939,25.117,25.117,0,0,0,3.969,1.94,39.463,39.463,0,0,0,14.586,2.764c.6,0,1.218-.013,1.843-.042a25.062,25.062,0,0,0,10.111-2.507q-.084.5-.209,1.014a1.142,1.142,0,0,0-.1.376c-1.217,4.339-4.845,9.083-10.055,9.413-10.639.667-20.659-5.445-24.472-8.1-.892-.624-1.394-1.023-1.4-1.027a1.148,1.148,0,0,0-1.431,1.8c.007,0,.054.042.133.1l-5.122,3.005a1.146,1.146,0,0,0-.59,1.311l-.74,22.959a11.717,11.717,0,0,0-.967-1.393,9.956,9.956,0,0,1-1.53-2.587q-.785-1.847-1.514-3.647l-.02-.044c-5.871-14.664-10.885-33.181-1.471-38.183a10.943,10.943,0,0,1,5.222-1.38m6.778-10.065c1.8-1.152,3.642-1.361,5.056-.571.023.013.048.02.072.031a5.234,5.234,0,0,0,3.337,2.849,101.227,101.227,0,0,0-1.632,11.572c-4.264-3.371-7.738-5.218-11.037-5.853a9.209,9.209,0,0,1,4.2-8.027m11.051-18.09a17.984,17.984,0,0,0,2.649-1.492,3.8,3.8,0,0,1,.445.52,3.63,3.63,0,0,1,.429.763,4.359,4.359,0,0,1-.57,4.56,3.993,3.993,0,0,1-2.867,1.2,4.343,4.343,0,0,1-3.148-1.167,3.484,3.484,0,0,1-.355-.413.985.985,0,0,1-.145-.837,3.891,3.891,0,0,1,1.809-2.216c.539-.322,1.128-.612,1.752-.92m15.383-35.152a13.4,13.4,0,0,1,11.883,7.164v0c3.174,9.123,1.788,19.469.449,29.472q-.254,1.9-.494,3.767a1.109,1.109,0,0,0-.214.035,1.165,1.165,0,0,0-.42.214c-1.344-.016-2.9.016-4.438.048-2.1.046-4.262.093-5.753.009a4.369,4.369,0,0,1-1.029-.583c-2.836-2.131-3.21-7.7-3.2-12.868,0-1.757.055-3.62.106-5.424.1-3.482.2-7.08-.035-10.318a1.151,1.151,0,0,0-1.227-1.063c-.021,0-.04.008-.06.01s-.063-.012-.1-.013c-3.684-.123-6.127-1.254-7.307-3.342a13.505,13.505,0,0,1,7.847-6.509,13.329,13.329,0,0,1,3.99-.6m-29.947,89.219,24.881,14.316-1.265,22.825L291.132,289.27Zm25.915,12.262L293.07,264.414l4.315-2.532c4.179,2.811,13.4,8.108,23.518,8.108.58,0,1.165-.017,1.749-.054,5.833-.369,9.989-5.142,11.728-9.882l7.545,4.376Zm24.082,10.686-24.076,14.064,1.264-22.834,23.9-14.06Zm-39.276-70.315a6.766,6.766,0,0,0,3.815,1.152h.166a6.3,6.3,0,0,0,4.508-1.948,6.616,6.616,0,0,0,.99-7.01,6.067,6.067,0,0,0-.29-.592c.18-.614.758-2.515,2.1-6.418a12.182,12.182,0,0,0,2.427,1.135c.047,5.706.664,11.2,4.11,13.793a6.8,6.8,0,0,0,.621.4c-3.827,3.6-12.312,10.913-15.828,11.048H305.1c-.457.008-1.842.03-2.791-2.279-1.372-3.331-.6-7.842.288-9.282m33.866,32.474a13.329,13.329,0,0,1-1.833,1.617c-.318.239-.69.493-1.132.775a21.928,21.928,0,0,1-10.836,3.184,37.228,37.228,0,0,1-15.471-2.559,26.88,26.88,0,0,1-3.06-1.435c0-1.16.026-3.821.279-7.3a99.242,99.242,0,0,1,1.779-13.03c5.66-1.241,15.982-11.1,17.2-12.277a1.111,1.111,0,0,0,.179-.26c.42.01.865.014,1.332.014,1.173,0,2.468-.026,3.737-.053,1.466-.031,2.962-.06,4.26-.048a130.461,130.461,0,0,1,3.564,31.373m-27.5-64.718c1.629,1.795,4.166,2.84,7.47,3.082.143,2.871.069,6.017-.017,9.085-.037,1.3-.067,2.625-.086,3.933a11.791,11.791,0,0,1-2.349-1.372,13.353,13.353,0,0,1-5.018-14.728" transform="translate(22.128 23.301)" fill="#231815"/>
    <path id="パス_298" data-name="パス 298" d="M359.863,182.629a1.137,1.137,0,0,1-.185.736,14.592,14.592,0,0,1,2.4.522,12.955,12.955,0,0,1,6.36-7.7,6.8,6.8,0,0,0-5.442.759,6.3,6.3,0,0,0-3.129,5.685" transform="translate(47.65 23.627)" fill="#fff"/>
    <path id="パス_299" data-name="パス 299" d="M402.375,198.673c-1.741,4.743-5.9,9.514-11.729,9.876q-.888.055-1.77.055c-10.118,0-19.313-5.287-23.5-8.106l-4.323,2.532,24.724,14.223,24.145-14.207Z" transform="translate(48.07 30.551)" fill="#fff"/>
    <path id="パス_300" data-name="パス 300" d="M380.016,240.5l24.074-14.064,1.085-22.83-23.9,14.06Z" transform="translate(53.842 32.053)" fill="#cfdee2"/>
    <path id="パス_301" data-name="パス 301" d="M394.8,164.535c-.057.027-.115.055-.173.08a15.769,15.769,0,0,1-13.656-.2c.273,1.085.558,2.176.869,3.266a1.148,1.148,0,0,1-2.21.626c-.556-1.958-1.057-3.921-1.49-5.836a134.872,134.872,0,0,1-2.728-16.416c-.163-1.572-.287-2.961-.376-4.243-.305-4.156-.429-8.377-.368-12.569-2.382.809-4.974,1.664-7.489,2.318a110.845,110.845,0,0,0,8.024,47.276c.484,1.2.977,2.358,1.466,3.445a1.148,1.148,0,1,1-2.094.943c-.231-.513-.462-1.044-.693-1.584a60.481,60.481,0,0,0-2.25,8.927,99.349,99.349,0,0,0-1.381,14.085,1.139,1.139,0,0,1-.02.588c-.1,3.612-.012,6.386.04,7.553a27.045,27.045,0,0,0,3.088,1.449,37.3,37.3,0,0,0,15.472,2.559,21.964,21.964,0,0,0,10.836-3.184c.442-.282.813-.536,1.131-.775a13.5,13.5,0,0,0,1.833-1.617,134.949,134.949,0,0,0-7.838-45.916,1.14,1.14,0,0,1,.007-.776" transform="translate(49.891 9.414)" fill="#fff"/>
    <path id="パス_302" data-name="パス 302" d="M374.953,140.351c.066.883.147,1.82.248,2.835a1.135,1.135,0,0,1,.265.265,7.723,7.723,0,0,0,5.28,3.179,1.562,1.562,0,0,1,2.177,1.221,1.123,1.123,0,0,1-.112.485c1.332,6.028,4.455,9.937,9.31,11.652a1.126,1.126,0,0,1,.274.146,13.436,13.436,0,1,0-17.441-19.783" transform="translate(52.301 11.201)" fill="#5ecbcc"/>
    <path id="パス_303" data-name="パス 303" d="M391.261,202.66a39.467,39.467,0,0,1-14.589-2.764,25.255,25.255,0,0,1-3.969-1.94,1.148,1.148,0,0,1-.524-.891c-.009-.14-.211-3.354-.082-8.147a30.3,30.3,0,0,0-7.759-4.755,12.878,12.878,0,0,0-3.045-.79c-4.949,2.017-8.663,8.444-7.828,13.552l3.338,3.78q2.381,2.7,4.768,5.391l4.109-2.407-.137-.107a1.148,1.148,0,0,1,1.435-1.792c.016.012.48.382,1.314.97l.069.046c3.808,2.661,13.827,8.771,24.487,8.107,5.087-.314,8.667-4.85,9.966-9.1a1.14,1.14,0,0,1,.128-.849,1.1,1.1,0,0,1,.147-.2c.048-.219.089-.437.125-.652a25.076,25.076,0,0,1-10.113,2.507c-.623.029-1.238.042-1.839.042" transform="translate(45.724 25.893)" fill="#cfdee2"/>
    <path id="パス_304" data-name="パス 304" d="M377.668,156.762a13.252,13.252,0,0,0,7.757,2.482,13.421,13.421,0,0,0,3.956-.6c-4.609-2.258-7.613-6.444-8.951-12.469a10.084,10.084,0,0,1-4.962-2.04c.539,4.3,1.273,8.535,2.2,12.631" transform="translate(52.458 13.946)" fill="#fff"/>
    <path id="パス_305" data-name="パス 305" d="M385.2,217.832l-24.881-14.315-.737,22.9,24.352,14.246Z" transform="translate(47.62 32.025)" fill="#fff"/>
    <path id="パス_306" data-name="パス 306" d="M371.666,117.489l7.8-5.062,1.127-11.474-21.048,13.94-.777,10.973,12.9-8.376h0" transform="translate(47.373 0.802)" fill="#fff000"/>
    <path id="パス_307" data-name="パス 307" d="M367.972,131.458c2.326-.644,4.685-1.426,6.857-2.164.843-2.043.939-3.716.271-4.971-1.029-1.928-3.7-2.6-4.8-2.8-.2-.035-.365-.06-.493-.077a5.06,5.06,0,0,0-1.753,1.5,5.115,5.115,0,0,0-.618,1.14,1.156,1.156,0,0,1-.492.577,2.542,2.542,0,0,0-1.41,1.713c-.142.827.159,2.365,2.395,4.992.022.026.027.059.047.086" transform="translate(49.423 7.041)" fill="#fff"/>
    <path id="パス_308" data-name="パス 308" d="M363.172,184.34a31.969,31.969,0,0,1,6.053,3.681,100.972,100.972,0,0,1,1.087-10.9l-.044-.013a10.592,10.592,0,0,0-7.095,7.229" transform="translate(48.714 23.986)" fill="#cfdee2"/>
    <path id="パス_309" data-name="パス 309" d="M368.651,120.883a1.146,1.146,0,0,1,.132-.033c-.013-.788-.029-1.782-.046-2.777-.013-.755-.025-1.509-.037-2.176l-1.3.843.085,4.757a5.777,5.777,0,0,1,1.162-.614" transform="translate(50.003 5.352)" fill="#fff000"/>
    <path id="パス_310" data-name="パス 310" d="M357.664,224.19c.3.721.609,1.458.921,2.194a16.525,16.525,0,0,0,1.349,2.652c.083.137.17.278.258.425l.7-21.595a1.162,1.162,0,0,1-.035-.283c-1.6-1.809-3.226-3.645-4.85-5.484l-3.549-4.018a1.138,1.138,0,0,1-.266-.536c-.94-4.7,1.3-10.255,5.065-13.762a12.853,12.853,0,0,0-1.677.74c-9.666,5.133-4.2,24.4,2.088,39.666" transform="translate(44.803 26.018)" fill="#fff"/>
    <path id="パス_311" data-name="パス 311" d="M357.635,220.4a19.977,19.977,0,0,1-1.195-2.439c-.222-.522-.43-1.025-.643-1.531a1.166,1.166,0,0,1-.18-.08c-1.21-.86-2-1.453-2.508-1.886l-2.662,1.684c1.406.8,2.81,1.646,4.181,2.468.99.592,2,1.194,3.008,1.784" transform="translate(44.84 35.356)" fill="#5ecbcc"/>
    <path id="パス_312" data-name="パス 312" d="M417,232.714l-9.95-5.763a14.113,14.113,0,0,0,.286-2.373c.245-.166.474-.326.678-.48a13.729,13.729,0,0,0,2.5-2.308,1.15,1.15,0,0,0,.24-.646,136.129,136.129,0,0,0-7.956-47.193,1.143,1.143,0,0,0-.832-.73A15.73,15.73,0,1,0,383,148.36c-.2-3.752-.263-7.536-.164-11.287a1.148,1.148,0,0,0-.2-.669,7.492,7.492,0,0,0-.136-6.12c-1.214-2.278-3.656-3.3-5.463-3.763-.013-.835-.031-1.981-.051-3.133-.023-1.4-.047-2.789-.057-3.616l7.575-4.918a1.15,1.15,0,0,0,.518-.849l1.417-14.427a1.148,1.148,0,0,0-1.777-1.07l-23.532,15.585a1.146,1.146,0,0,0-.511.875l-.98,13.836a1.148,1.148,0,0,0,1.77,1.044l9.678-6.283.1,5.651v.013a7.56,7.56,0,0,0-.369.706,4.606,4.606,0,0,0-2.18,3.1c-.3,1.787.5,3.847,2.433,6.273a1.141,1.141,0,0,0-.3.7,113.108,113.108,0,0,0,7.747,48.1,1.121,1.121,0,0,0-.34.463,58.1,58.1,0,0,0-2.786,10.044c-.061.012-.124.022-.184.037a9.349,9.349,0,0,0-9.829-.027,8.518,8.518,0,0,0-4.2,7.858,1.139,1.139,0,0,0,.116.394,13.286,13.286,0,0,0-6.041,1.64c-8.523,4.525-8.637,17.661-.361,39.053a1.2,1.2,0,0,0-1.439-.184l-5.072,3.208a1.148,1.148,0,0,0,.063,1.978c1.927,1.054,3.892,2.232,5.793,3.371,1.867,1.118,3.8,2.274,5.706,3.325.076.048.154.091.232.132l.076.043a1.154,1.154,0,0,0,.579.156.982.982,0,0,0,.123-.016,1.126,1.126,0,0,0,.449.5l26.562,15.537a1.131,1.131,0,0,0,.214.09c.021.007.039.02.061.025a1.148,1.148,0,0,0,.3.043,1.133,1.133,0,0,0,.3-.04c.014,0,.026-.012.04-.016a1.173,1.173,0,0,0,.236-.1l.007,0,26.458-15.456a1.147,1.147,0,0,0,.567-.937l1.179-24.819a1.053,1.053,0,0,0,.093-.12,1.148,1.148,0,0,0-.419-1.569m-63.1,17.1c.511.432,1.3,1.027,2.508,1.885a1.056,1.056,0,0,0,.18.081c.211.506.421,1.01.643,1.531a20.071,20.071,0,0,0,1.195,2.439c-1.011-.592-2.018-1.192-3.008-1.786-1.371-.82-2.775-1.662-4.181-2.467Zm12.695-49.247a6.788,6.788,0,0,1,5.441-.758,12.951,12.951,0,0,0-6.36,7.7,14.6,14.6,0,0,0-2.4-.523,1.133,1.133,0,0,0,.185-.736,6.3,6.3,0,0,1,3.131-5.685m-3.727-84.876,21.048-13.94-1.127,11.475-7.8,5.062h0l-12.9,8.376Zm11.785,5.553c.012.667.023,1.421.036,2.177.017,1,.033,1.988.046,2.777a1.13,1.13,0,0,0-.132.031,5.853,5.853,0,0,0-1.162.614l-.085-4.757Zm-3.75,12.174a2.543,2.543,0,0,1,1.41-1.713,1.156,1.156,0,0,0,.492-.577,5.114,5.114,0,0,1,.618-1.14,5.06,5.06,0,0,1,1.753-1.5c.128.016.3.04.493.077,1.1.2,3.776.871,4.8,2.8.669,1.255.573,2.928-.271,4.971-2.172.74-4.532,1.521-6.857,2.165-.02-.027-.025-.06-.047-.086-2.236-2.627-2.536-4.165-2.395-4.992m36.371,26.327a13.43,13.43,0,0,1-6.628,11.587,1.18,1.18,0,0,0-.275-.146c-4.854-1.715-7.977-5.623-9.308-11.652A1.378,1.378,0,0,0,389,157.832a7.726,7.726,0,0,1-5.282-3.179,1.135,1.135,0,0,0-.265-.265c-.1-1.015-.181-1.951-.248-2.835a13.52,13.52,0,0,1,6.638-4.635,13.451,13.451,0,0,1,17.432,12.83m-2.511,66.908a1.17,1.17,0,0,0-.149.2,1.146,1.146,0,0,0-.127.849c-1.3,4.255-4.879,8.79-9.966,9.1-10.661.664-20.679-5.446-24.488-8.107l-.068-.046c-.834-.588-1.3-.959-1.314-.97a1.148,1.148,0,0,0-1.435,1.792s.05.04.137.107l-4.109,2.407q-2.387-2.694-4.768-5.391l-3.339-3.78c-.833-5.108,2.879-11.535,7.829-13.552a12.876,12.876,0,0,1,3.044.79,30.3,30.3,0,0,1,7.759,4.755c-.129,4.794.073,8.008.082,8.147a1.15,1.15,0,0,0,.523.891,25.238,25.238,0,0,0,3.971,1.94,39.461,39.461,0,0,0,14.589,2.764c.6,0,1.216-.013,1.839-.042A25.063,25.063,0,0,0,404.888,226c-.035.215-.077.433-.124.652m-29.788-25.546a100.906,100.906,0,0,0-1.087,10.9,32,32,0,0,0-6.053-3.68,10.59,10.59,0,0,1,7.095-7.229l.044.013m-11.09,34.433,24.881,14.313L387.5,272.684,363.149,258.44ZM389.8,247.8,365.077,233.58l4.323-2.532c4.183,2.819,13.378,8.106,23.5,8.106.587,0,1.178-.017,1.77-.055,5.831-.361,9.988-5.133,11.729-9.876l7.55,4.375Zm18.672-27.163a13.421,13.421,0,0,1-1.833,1.617c-.317.239-.689.493-1.131.775a21.955,21.955,0,0,1-10.836,3.184,37.3,37.3,0,0,1-15.472-2.559,27.231,27.231,0,0,1-3.086-1.449c-.053-1.166-.145-3.941-.042-7.553a1.112,1.112,0,0,0,.02-.588,99.345,99.345,0,0,1,1.383-14.085,60.326,60.326,0,0,1,2.249-8.927c.231.54.462,1.071.694,1.584a1.148,1.148,0,1,0,2.092-.943c-.489-1.087-.982-2.244-1.465-3.445a110.849,110.849,0,0,1-8.025-47.276c2.515-.654,5.107-1.509,7.489-2.318-.061,4.192.063,8.414.368,12.569.09,1.282.213,2.67.377,4.243a134.341,134.341,0,0,0,2.728,16.416c.432,1.915.934,3.878,1.49,5.836a1.148,1.148,0,0,0,2.208-.626c-.31-1.092-.6-2.181-.869-3.266a15.769,15.769,0,0,0,13.656.2c.059-.025.116-.052.173-.08a1.148,1.148,0,0,0-.006.776,134.877,134.877,0,0,1,7.838,45.916m-19.632-60.524c1.337,6.028,4.342,10.211,8.951,12.469a13.437,13.437,0,0,1-3.958.6,13.259,13.259,0,0,1-7.757-2.481c-.926-4.095-1.661-8.329-2.2-12.632a10.072,10.072,0,0,0,4.963,2.04M358.007,209.8c-3.761,3.506-6,9.061-5.065,13.762a1.163,1.163,0,0,0,.266.536l3.549,4.018c1.624,1.839,3.247,3.675,4.851,5.484a1.1,1.1,0,0,0,.034.283l-.7,21.595c-.089-.147-.175-.288-.26-.425a16.633,16.633,0,0,1-1.349-2.652c-.312-.736-.624-1.473-.921-2.194-6.287-15.262-11.754-34.533-2.088-39.666a13.011,13.011,0,0,1,1.677-.74m55.876,48.688-24.075,14.064,1.264-22.834,23.9-14.06Z" transform="translate(44.05 -0.001)" fill="#231815"/>
    <path id="パス_313" data-name="パス 313" d="M226.148,259.344l.089-.168a1.144,1.144,0,0,1-.676-.14c-1.795-1-4.448-.674-6.76.839a6.818,6.818,0,0,0-3.138,4.206c3.575-1.713,7.206-3.308,10.485-4.736" transform="translate(3.809 48.752)" fill="#dbe6ed"/>
    <path id="パス_314" data-name="パス 314" d="M236.126,323.8,260.2,309.736l1.085-22.83-23.9,14.06Z" transform="translate(10.038 57.41)" fill="#cfdee2"/>
    <path id="パス_315" data-name="パス 315" d="M258.486,281.967c-1.74,4.74-5.9,9.52-11.728,9.88q-.892.057-1.778.056c-10.118,0-19.319-5.292-23.529-8.133l-4.294,2.55L241.9,300.549l24.132-14.2Z" transform="translate(4.264 55.907)" fill="#fff"/>
    <path id="パス_316" data-name="パス 316" d="M235.422,190.509l-.777,10.974,12.826-8.329,7.872-5.111,1.127-11.475Z" transform="translate(9.587 23.821)" fill="#fff000"/>
    <path id="パス_317" data-name="パス 317" d="M253.672,239.839a15.712,15.712,0,0,1-14.484-.707,26.806,26.806,0,0,0-1.272,8.764,1.119,1.119,0,0,1-.082.511l.127.059-.017.031h0c-.016.03-.03.061-.048.093-2.546,5.128-5.509,11.067-8.475,16.7-.232.455-.479.916-.725,1.375a1.148,1.148,0,0,1-.554.511c-3.8,1.657-8.112,3.532-12.249,5.567-.76.367-1.524.75-2.28,1.143a9.3,9.3,0,0,0-.2,1.111,10.5,10.5,0,0,0,2.6,8.26,3.807,3.807,0,0,0,.325.347c.175.173.361.34.558.507l19.737-11.145,10.228-18.932a1.148,1.148,0,0,1,2.021,1.092l-10.386,19.223a1.154,1.154,0,0,1-.445.454l-8.3,4.688c-.261,3.986-.318,7.2-.33,8.528a27.125,27.125,0,0,0,3.051,1.428,37.328,37.328,0,0,0,15.47,2.561,21.941,21.941,0,0,0,10.837-3.185c.441-.282.813-.535,1.132-.774a13.663,13.663,0,0,0,1.824-1.61,146.437,146.437,0,0,0-5.883-39.9c-.672-2.288-1.4-4.532-2.168-6.7" transform="translate(3.098 42.867)" fill="#fff"/>
    <path id="パス_318" data-name="パス 318" d="M251.147,203.644c-2.581.775-5.227,1.377-8.32,2.048.125,4.49.226,8.466.338,12.854l.074,2.927a15.7,15.7,0,0,1,8.273,6.63,133.981,133.981,0,0,0-.365-24.459" transform="translate(12.078 32.063)" fill="#fff"/>
    <path id="パス_319" data-name="パス 319" d="M246.793,197.671l-.033.009c-.9.236-1.788.55-2.2.7a4.076,4.076,0,0,0-.373.487,2.065,2.065,0,0,0-.417,1.852,1.149,1.149,0,0,1-1.194,1.537l-.847-.083a4.716,4.716,0,0,0,1.03,3.162c2.917-.634,5.416-1.205,7.812-1.912.591-3.89-.946-5.766-2.118-6.034a4.839,4.839,0,0,0-1.632.273l-.03.009" transform="translate(11.743 30.158)" fill="#fff"/>
    <path id="パス_320" data-name="パス 320" d="M246.563,243.286a1.155,1.155,0,0,1,.266.142,13.443,13.443,0,0,0,4.8-4.821c.583-3.65,1.032-7,1.368-10.235a13.4,13.4,0,0,0-9.439-9.481,12.914,12.914,0,0,0-3.539-.479,13.334,13.334,0,0,0-3.124.368c-.9,7.57-.844,20.79,9.663,24.5" transform="translate(10.165 36.56)" fill="#5ecbcc"/>
    <path id="パス_321" data-name="パス 321" d="M210.76,299.139a10.692,10.692,0,0,0,6.332-1.644,1.1,1.1,0,0,1,.129-.066l.252-7.816a1.137,1.137,0,0,1,.531-.922l-.01-.017,5.151-3.059c-.069-.053-.106-.084-.106-.084a1.148,1.148,0,0,1,1.434-1.792c.016.012.481.382,1.315.97,3.817,2.675,13.862,8.81,24.556,8.153,5.266-.326,8.928-5.188,10.1-9.569.111-.416.194-.826.263-1.233a25.048,25.048,0,0,1-10.112,2.507c-.625.029-1.241.042-1.843.042a39.426,39.426,0,0,1-14.585-2.764,25.191,25.191,0,0,1-3.969-1.938,1.147,1.147,0,0,1-.527-.96c0-.038-.009-3.292.247-7.845l-9.542,5.389a1.15,1.15,0,0,1-.564.149,1.118,1.118,0,0,1-.254-.034,1.138,1.138,0,0,1-1.184-.14c-.253-.2-.477-.39-.69-.582-.023,0-.046.009-.069.009a1.166,1.166,0,0,1-.38-.064l-.033-.012q-3.743-1.252-7.5-2.519a5.083,5.083,0,0,1-1.9-1.207A37.892,37.892,0,0,0,206.672,298a8.829,8.829,0,0,0,4.088,1.136" transform="translate(0.537 52.6)" fill="#cfdee2"/>
    <path id="パス_322" data-name="パス 322" d="M245.82,239.216q.628,1.759,1.221,3.587c.37-1.923.7-3.688.993-5.351a15.615,15.615,0,0,1-2.214,1.764" transform="translate(12.989 42.355)" fill="#fff"/>
    <path id="パス_323" data-name="パス 323" d="M243.381,198c.292-.107.775-.277,1.34-.454-.009-.817-.033-2.268-.055-3.724-.013-.807-.025-1.612-.035-2.308l-1.534,1Z" transform="translate(12.16 28.371)" fill="#fff000"/>
    <path id="パス_324" data-name="パス 324" d="M228.914,231.568a13.454,13.454,0,0,0,5.588,10.9l.005,0a13.269,13.269,0,0,0,7.84,2.535,13.444,13.444,0,0,0,3.959-.6c-9.747-4.782-10.267-17.174-9.482-25.084a13.453,13.453,0,0,0-7.91,12.247" transform="translate(7.843 36.836)" fill="#fff"/>
    <path id="パス_325" data-name="パス 325" d="M241.307,301.122l-24.881-14.307-.738,22.9,24.354,14.246Z" transform="translate(3.816 57.383)" fill="#fff"/>
    <path id="パス_326" data-name="パス 326" d="M212.506,299.5c.236.577.483,1.154.73,1.739l.2.463a16.7,16.7,0,0,0,1.342,2.634c.083.137.17.278.258.428l.369-11.433a13.042,13.042,0,0,1-4.8,1.306c.616,1.642,1.248,3.275,1.9,4.864" transform="translate(2.269 59.367)" fill="#fff"/>
    <path id="パス_327" data-name="パス 327" d="M208.138,271.27a2.945,2.945,0,0,0,1.484,1.216l4.762,1.6A12.916,12.916,0,0,1,212.8,267.4a1.074,1.074,0,0,1-.219-.124,3.252,3.252,0,0,0-4.65.794,3.176,3.176,0,0,0,.1,3.03c.026.043.061.108.1.167" transform="translate(1.353 51.236)" fill="#fff"/>
    <path id="パス_328" data-name="パス 328" d="M213.749,303.7a20.23,20.23,0,0,1-1.2-2.441l-.2-.463c-.153-.36-.3-.714-.449-1.07a1.021,1.021,0,0,1-.177-.078c-1.209-.858-2-1.453-2.508-1.886l-2.662,1.684c1.4.8,2.806,1.645,4.175,2.464.993.595,2,1.2,3.016,1.79" transform="translate(1.037 60.715)" fill="#5ecbcc"/>
    <path id="パス_329" data-name="パス 329" d="M266.8,174.125,243.269,189.71a1.146,1.146,0,0,0-.511.875l-.98,13.836a1.148,1.148,0,0,0,1.77,1.045l9.484-6.158.295,5.713a1.119,1.119,0,0,0,.215.579,4.531,4.531,0,0,0-.393,1.375l-.52-.051a1.144,1.144,0,0,0-1.222.837,6.938,6.938,0,0,0,1.187,6c0,.03-.013.056-.013.086.14,4.884.247,9.1.365,13.8l.057,2.268c-.232-.042-.464-.087-.7-.119a15.326,15.326,0,0,0-2.12-.141,15.583,15.583,0,0,0-4.669.706,14.776,14.776,0,0,0-1.762.667,15.728,15.728,0,0,0-3.452,26.589,29.551,29.551,0,0,0-1.587,10.232c-2.36,4.753-5.061,10.158-7.787,15.362a1.141,1.141,0,0,0-.442-.449c-2.533-1.415-6.119-1.053-9.137.921-2.8,1.834-4.4,4.6-4.241,7.28-.638.317-1.276.63-1.91.963a1.152,1.152,0,0,0-.561.677c-.053.171-.093.35-.137.526a5.468,5.468,0,0,0-3.457-.5A5.071,5.071,0,0,0,207,299.59a1.139,1.139,0,0,0-.515.548,40.185,40.185,0,0,0-1.336,28.553,1.152,1.152,0,0,0,.438.583,10.542,10.542,0,0,0,4.812,1.68q.417,1.129.845,2.251a1.2,1.2,0,0,0-1.44-.184l-5.07,3.208a1.149,1.149,0,0,0,.061,1.978c1.924,1.054,3.888,2.231,5.789,3.368,1.867,1.119,3.8,2.275,5.709,3.326.077.048.154.091.232.133l.074.04a1.136,1.136,0,0,0,.58.159c.042,0,.082-.012.123-.016a1.138,1.138,0,0,0,.45.5l26.561,15.537a1.075,1.075,0,0,0,.214.089c.021.008.04.02.061.026a1.153,1.153,0,0,0,.3.042,1.133,1.133,0,0,0,.3-.039.393.393,0,0,0,.04-.017,1.1,1.1,0,0,0,.236-.1l.008,0L271.935,345.8a1.148,1.148,0,0,0,.567-.937l1.216-25.573c0-.014,0-.027,0-.042a1.306,1.306,0,0,0-.02-.226c0-.02-.005-.039-.01-.057a1.105,1.105,0,0,0-.1-.254c-.008-.017-.02-.033-.029-.048a1.123,1.123,0,0,0-.13-.181c-.016-.018-.033-.038-.05-.055a1.136,1.136,0,0,0-.194-.156.243.243,0,0,0-.022-.017l-.005,0-.01-.008-9.741-5.656a13.96,13.96,0,0,0,.284-2.368c.245-.166.474-.326.678-.48a13.829,13.829,0,0,0,2.5-2.308,1.153,1.153,0,0,0,.24-.669,147.3,147.3,0,0,0-5.724-40.168,1.125,1.125,0,0,0,.193-.427c1.064-5.321,1.814-9.417,2.425-13.25a15.631,15.631,0,0,0,1.49-11.172,137.827,137.827,0,0,0-.141-30.7,1.144,1.144,0,0,0-.519-.834,1.231,1.231,0,0,0-.155-.077c.477-4.939-2-7.395-3.973-7.846a4.138,4.138,0,0,0-1.534.037c-.012-.841-.03-2.014-.048-3.185-.023-1.486-.046-2.96-.055-3.75l7.576-4.919a1.15,1.15,0,0,0,.518-.85l1.417-14.427a1.148,1.148,0,0,0-1.777-1.068m-6.6,30.4c1.173.269,2.709,2.144,2.118,6.033-2.4.708-4.9,1.28-7.812,1.914a4.716,4.716,0,0,1-1.03-3.162l.845.083a1.149,1.149,0,0,0,1.195-1.537,2.064,2.064,0,0,1,.416-1.852,4.208,4.208,0,0,1,.374-.487c.411-.151,1.3-.466,2.2-.7l.033-.009.029-.009a4.849,4.849,0,0,1,1.633-.273m-49.94,130.926c.511.434,1.3,1.029,2.507,1.888a1.265,1.265,0,0,0,.177.078c.15.356.3.71.45,1.07l.2.463a20.041,20.041,0,0,0,1.2,2.441c-1.014-.594-2.024-1.195-3.017-1.79-1.368-.82-2.771-1.661-4.175-2.465Zm-.974-39.163a3.252,3.252,0,0,1,4.65-.794,1.076,1.076,0,0,0,.219.124,12.911,12.911,0,0,0,1.585,6.683l-4.762-1.6a2.946,2.946,0,0,1-1.484-1.216,1.734,1.734,0,0,1-.1-.167,3.173,3.173,0,0,1-.1-3.03m13.327-10.685c2.311-1.512,4.965-1.841,6.76-.839a1.135,1.135,0,0,0,.676.14c-.03.056-.059.113-.089.168-3.279,1.428-6.91,3.024-10.485,4.736a6.822,6.822,0,0,1,3.138-4.205m-14.272,16.065a5.067,5.067,0,0,0,1.9,1.207q3.757,1.264,7.5,2.52l.033.01a1.155,1.155,0,0,0,.378.065c.023,0,.046-.008.069-.009.213.192.437.383.69.582a1.147,1.147,0,0,0,.708.244,1.16,1.16,0,0,0,.476-.1,1.19,1.19,0,0,0,.254.033,1.142,1.142,0,0,0,.563-.149l9.542-5.389c-.254,4.552-.247,7.808-.247,7.845a1.151,1.151,0,0,0,.527.96,25.248,25.248,0,0,0,3.969,1.94,39.436,39.436,0,0,0,14.585,2.764q.9,0,1.844-.042a25.056,25.056,0,0,0,10.111-2.507c-.068.406-.151.817-.263,1.233-1.174,4.38-4.834,9.243-10.1,9.569-10.692.657-20.738-5.479-24.556-8.153-.834-.588-1.3-.959-1.314-.971a1.148,1.148,0,0,0-1.435,1.792l.106.082-5.15,3.06.009.016a1.148,1.148,0,0,0-.531.924l-.252,7.815a1.082,1.082,0,0,0-.128.067,10.692,10.692,0,0,1-6.332,1.645,8.859,8.859,0,0,1-4.088-1.136,37.9,37.9,0,0,1,1.13-25.912m8.964,39.443c-.089-.149-.175-.291-.26-.428a16.732,16.732,0,0,1-1.341-2.634l-.2-.463q-.374-.875-.732-1.739c-.655-1.588-1.287-3.222-1.9-4.864a13.035,13.035,0,0,0,4.8-1.306Zm2.94-19.936,24.881,14.307-1.265,22.834L219.5,344.076Zm25.922,12.256L221.42,319.21l4.294-2.55c4.209,2.841,13.411,8.132,23.529,8.132q.884,0,1.778-.055c5.827-.36,9.988-5.139,11.728-9.88l7.546,4.382Zm24.074,10.691-24.074,14.064,1.264-22.834,23.9-14.06Zm-5.419-37.841A13.48,13.48,0,0,1,263,307.9c-.318.239-.69.492-1.132.774a21.94,21.94,0,0,1-10.836,3.185,37.328,37.328,0,0,1-15.47-2.561,27.115,27.115,0,0,1-3.051-1.428c.012-1.324.068-4.542.33-8.528l8.3-4.688a1.148,1.148,0,0,0,.446-.454l10.385-19.223a1.148,1.148,0,0,0-2.021-1.092l-10.227,18.932-19.737,11.145c-.2-.167-.384-.333-.56-.507a4,4,0,0,1-.325-.347,10.514,10.514,0,0,1-2.6-8.26,9.307,9.307,0,0,1,.2-1.111c.758-.393,1.521-.776,2.281-1.143,4.136-2.035,8.446-3.911,12.249-5.567a1.148,1.148,0,0,0,.554-.511c.247-.459.493-.92.724-1.375,2.966-5.631,5.93-11.569,8.475-16.7.02-.031.034-.063.05-.093l.017-.031-.127-.059a1.119,1.119,0,0,0,.082-.511,26.824,26.824,0,0,1,1.27-8.764,15.715,15.715,0,0,0,14.486.707c.764,2.164,1.495,4.408,2.168,6.7a146.353,146.353,0,0,1,5.882,39.9m-12.828-74.214a13.5,13.5,0,0,1,11.175,9.841c-.336,3.232-.785,6.585-1.368,10.234a13.432,13.432,0,0,1-4.8,4.821,1.152,1.152,0,0,0-.266-.141c-10.507-3.716-10.567-16.937-9.663-24.506a13.411,13.411,0,0,1,3.124-.368,13.2,13.2,0,0,1,1.8.119m6.817,26.481a15.788,15.788,0,0,0,2.214-1.764c-.295,1.662-.622,3.428-.993,5.351q-.593-1.826-1.221-3.587m-4.661-.331a13.4,13.4,0,0,1-3.959.605,13.261,13.261,0,0,1-7.84-2.536l0,0a13.432,13.432,0,0,1,2.322-23.15c-.787,7.91-.265,20.3,9.481,25.083m1.167-27.7-.073-2.928c-.112-4.388-.213-8.363-.338-12.854,3.093-.67,5.738-1.272,8.32-2.048a133.983,133.983,0,0,1,.365,24.459,15.692,15.692,0,0,0-8.274-6.629m1.51-31.343c.022,1.456.044,2.908.055,3.724-.565.176-1.047.347-1.34.454l-.284-5.49,1.534-1c.01.7.022,1.5.035,2.309m.231-5.219h0l-12.826,8.329.777-10.974,21.048-13.94-1.127,11.475Z" transform="translate(0 23.019)" fill="#231815"/>
    <path id="パス_330" data-name="パス 330" d="M297.929,312.342a26.85,26.85,0,0,1,10.193-5.886,8.989,8.989,0,0,0-7.155,1.409c-1.921,1.259-3.024,2.908-3.038,4.477" transform="translate(28.853 63.281)" fill="#fff"/>
    <path id="パス_331" data-name="パス 331" d="M331.824,328.786a16.879,16.879,0,0,1-3.555,5.815c-.215.232-.433.447-.656.655.08.082.163.166.256.249.136.125.271.244.408.363a6.664,6.664,0,0,1,1.736,2.011,3.26,3.26,0,0,1,.232.644l9.123-5.361Z" transform="translate(37.89 70.16)" fill="#fff"/>
    <path id="パス_332" data-name="パス 332" d="M318.844,332.791a19.444,19.444,0,0,1-1.1,2.186c-.258.466-.517.93-.734,1.384a4.434,4.434,0,0,0-.489,1.471,2.881,2.881,0,0,0,1.512-.189,1.742,1.742,0,0,0,.624-1.77,1.13,1.13,0,0,1-.031-.16,1.153,1.153,0,0,1,.321-1,1.134,1.134,0,0,1,.918-.317,1.149,1.149,0,0,1,1.164.638,7.846,7.846,0,0,0,4.4,3.918,7.742,7.742,0,0,0,5.882-.36.871.871,0,0,0,.023-.905,4.8,4.8,0,0,0-1.194-1.31c-.15-.132-.3-.262-.446-.4a5.4,5.4,0,0,1-1.379-1.814,3.158,3.158,0,0,1-.1-.3,24.74,24.74,0,0,1-2.882.185,17.532,17.532,0,0,1-6.486-1.257" transform="translate(34.514 71.379)" fill="#fff"/>
    <path id="パス_333" data-name="パス 333" d="M318.125,370.614,342.2,356.55l1.085-22.831-23.9,14.062Z" transform="translate(35.001 71.662)" fill="#cfdee2"/>
    <path id="パス_334" data-name="パス 334" d="M325.883,291.466a17.522,17.522,0,0,1-5.661-.923c-1.508-.158-3.06-.4-4.879-.747-.733,1.782-1.428,3.7-2.071,5.734a1.14,1.14,0,0,1-.2.629,87.049,87.049,0,0,0-3.325,15.384,1.144,1.144,0,0,1,.036.278,1.117,1.117,0,0,1-.125.492c-.03.264-.06.527-.082.78a1.057,1.057,0,0,1-.018.127,110.983,110.983,0,0,0-1.912,20.443,27.1,27.1,0,0,0,3.06,1.435,37.167,37.167,0,0,0,9.95,2.4q.315-1.244.656-2.518c1.173-4.387,2.385-8.924,1.417-11.972a32.043,32.043,0,0,0-4.7-8.479c-2.107-3.025-4.286-6.154-5.031-10.006a1.148,1.148,0,0,1,2.254-.436c.654,3.375,2.6,6.17,4.662,9.13a33.812,33.812,0,0,1,5,9.1c1.171,3.689-.129,8.554-1.387,13.261-.312,1.167-.624,2.327-.891,3.457a26.741,26.741,0,0,0-.763,4.52,16.608,16.608,0,0,0,9.792.989l.175-.029.065-.009a28.708,28.708,0,0,1,.052-7.107l0-.04c.267-2.494.708-5.047,1.136-7.517.69-3.99,1.342-7.759.972-9.9-1.1-6.346-12.293-23.3-12.406-23.474a1.148,1.148,0,1,1,1.915-1.268c.472.712,11.577,17.534,12.755,24.351.437,2.537-.217,6.313-.973,10.687-.317,1.838-.643,3.722-.895,5.576a19.628,19.628,0,0,0,2.55-1.334c.436-.278.807-.532,1.126-.771A13.3,13.3,0,0,0,340,332.062c.166-2.661.849-19.814-6.933-42.074a18.078,18.078,0,0,1-7.18,1.478" transform="translate(31.812 58.29)" fill="#fff"/>
    <path id="パス_335" data-name="パス 335" d="M323.731,265.232a13.416,13.416,0,0,0-3.124.369c-.012.1-.025.206-.031.306-.1.792-.167,1.58-.227,2.473-.073,1.1-.1,2.227-.086,3.341,1.958,2.994,3.484,5.837,2.37,10.262a12.36,12.36,0,0,1-.39,1.277,15.275,15.275,0,0,1-4.14,6.248,1.1,1.1,0,0,1-.155.226c-.027.027-.085.077-.115.1-.5.447-1.059.985-1.644,1.577-.487.494-.985,1.015-1.483,1.537-.587.614-1.186,1.24-1.773,1.829l.279.056a57.922,57.922,0,0,0,5.767.916,1.159,1.159,0,0,1,.266.06,15.721,15.721,0,0,0,11.827-.687c.157-.074.305-.154.447-.231.277-.143.5-.267.7-.391a28.4,28.4,0,0,0,4.995-15.538,1.169,1.169,0,0,1-.043-.3,13.452,13.452,0,0,0-13.441-13.433" transform="translate(33.42 50.813)" fill="#5ecbcc"/>
    <path id="パス_336" data-name="パス 336" d="M327.924,332.017a14.774,14.774,0,0,0,2.052-4.472c.111-.415.194-.822.262-1.226a22.239,22.239,0,0,1-2.217.959,28.534,28.534,0,0,0-.1,4.739" transform="translate(37.966 69.409)" fill="#cfdee2"/>
    <path id="パス_337" data-name="パス 337" d="M329.961,341.916a10.047,10.047,0,0,1-4.217-2.854,3.9,3.9,0,0,1-1.05,1.213,4.178,4.178,0,0,1-2.455.663,5.719,5.719,0,0,1-1.41-.163,1.551,1.551,0,0,1-1.089-.841,3.633,3.633,0,0,1-.026-2.5,50,50,0,0,1-16.226-7.246l-4.315,2.531,24.714,14.218,7.812-4.6a10.033,10.033,0,0,1-1.737-.421" transform="translate(29.231 70.587)" fill="#fff"/>
    <path id="パス_338" data-name="パス 338" d="M310.913,278.389a13.354,13.354,0,0,0,4.808,10.292,12.76,12.76,0,0,0,1.188-.9,13.018,13.018,0,0,0,3.784-5.561,10.783,10.783,0,0,0,.326-1.063c.792-3.148.072-5.115-1.848-8.111a1.141,1.141,0,0,1-.591-1v-.218c-.023-1.274.007-2.585.093-3.874.043-.655.1-1.243.154-1.809a13.45,13.45,0,0,0-7.914,12.245" transform="translate(32.806 51.09)" fill="#fff"/>
    <path id="パス_339" data-name="パス 339" d="M300.187,314.176c-.245.236-.473.473-.7.711a22.3,22.3,0,0,0-4.226,6.311c-3.011,6.889-2.157,10.729.639,17.507l1.685.38a1.308,1.308,0,0,1,.5-.54l.005,0,5.109-3-.133-.1a1.148,1.148,0,0,1,1.423-1.8c.014.012.5.391,1.359,1a48.726,48.726,0,0,0,16.581,7.472q.172-.317.351-.638a12.136,12.136,0,0,0,1.144-2.438,1.159,1.159,0,0,1-.03-.2,22.292,22.292,0,0,1,.569-4.562,39.461,39.461,0,0,1-10.272-2.521,25.4,25.4,0,0,1-3.971-1.938,1.152,1.152,0,0,1-.526-.939,113.3,113.3,0,0,1,1.855-21.083c-.121.029-.234.05-.359.081a24.429,24.429,0,0,0-11.013,6.306" transform="translate(27.466 63.768)" fill="#cfdee2"/>
    <path id="パス_340" data-name="パス 340" d="M323.305,347.945l-24.883-14.316-.734,22.9,24.352,14.246Z" transform="translate(28.779 71.635)" fill="#fff"/>
    <path id="パス_341" data-name="パス 341" d="M309.364,289.838a8,8,0,0,0,1.657,5.514q.718-2.143,1.513-4.1c-.124-.026-.248-.05-.372-.077l-.755-.16a1.149,1.149,0,0,1-.518-1.991c.991-.86,2.139-2.06,3.248-3.221.147-.154.291-.3.437-.453a1.124,1.124,0,0,1-.031-.342A15.343,15.343,0,0,1,313,283.485a1.04,1.04,0,0,1-.087.063,7.512,7.512,0,0,0-3.548,6.29" transform="translate(32.329 56.369)" fill="#fff"/>
    <path id="パス_342" data-name="パス 342" d="M295.766,354.442l.935,2.208a16.838,16.838,0,0,0,1.341,2.634c.085.137.171.278.26.428l.646-20.035-2.625-.592a1.151,1.151,0,0,1-.806-.677c-3.285-7.862-4.129-12.358-.852-19.859a23.859,23.859,0,0,1,3.061-5.085,11.4,11.4,0,0,0-4.039,1.31c-9.661,5.129-4.2,24.4,2.078,39.668" transform="translate(25.963 65.496)" fill="#fff"/>
    <path id="パス_343" data-name="パス 343" d="M295.744,350.513a19.951,19.951,0,0,1-1.194-2.434l-.655-1.544a1.02,1.02,0,0,1-.168-.076c-1.211-.86-2-1.452-2.508-1.886l-2.662,1.684c1.426.818,2.85,1.671,4.241,2.5.969.582,1.957,1.171,2.947,1.752" transform="translate(25.999 74.966)" fill="#5ecbcc"/>
    <path id="パス_344" data-name="パス 344" d="M355.447,352.826c0-.02-.005-.039-.009-.059a1.182,1.182,0,0,0-.1-.253c-.009-.018-.021-.035-.031-.053a1.265,1.265,0,0,0-.125-.175c-.018-.02-.037-.04-.056-.06a1.249,1.249,0,0,0-.181-.146c-.012-.007-.02-.018-.031-.025l-.009,0-.008-.007-9.744-5.651a13.959,13.959,0,0,0,.288-2.364c.244-.166.473-.327.678-.481a13.684,13.684,0,0,0,2.5-2.308,1.154,1.154,0,0,0,.237-.6c.069-.767,1.6-18.935-7.135-43.711.048-.031.1-.061.15-.093a1.146,1.146,0,0,0,.307-.3,30.7,30.7,0,0,0,5.557-17.321c.008-.472,0-.947-.017-1.422a1.156,1.156,0,0,0-.177-.569,15.748,15.748,0,0,0-15.6-13.758,15.577,15.577,0,0,0-4.669.706,14.38,14.38,0,0,0-1.754.667,15.748,15.748,0,0,0-9.307,14.357,15.56,15.56,0,0,0,2.521,8.549,9.818,9.818,0,0,0-4.542,8.055,9.962,9.962,0,0,0,3.163,8.108,90.106,90.106,0,0,0-3.175,14.5,1.14,1.14,0,0,0-.52-.625c-3.183-1.773-7.47-.694-10.308,1.164-2.793,1.83-4.312,4.438-4.065,6.975a1.162,1.162,0,0,0,.117.4,13.2,13.2,0,0,0-6.041,1.642c-8.514,4.521-8.634,17.646-.376,39.032a1.2,1.2,0,0,0-1.426-.171l-5.072,3.208a1.148,1.148,0,0,0,.063,1.977c1.946,1.064,3.933,2.257,5.853,3.407,1.857,1.115,3.779,2.267,5.652,3.3.065.039.134.074.2.11l.1.052a1.133,1.133,0,0,0,.581.159.986.986,0,0,0,.123-.016,1.134,1.134,0,0,0,.449.5l26.562,15.537a1.166,1.166,0,0,0,.214.09c.021.007.04.02.061.025a1.156,1.156,0,0,0,.3.043,1.132,1.132,0,0,0,.3-.04c.014,0,.027-.012.04-.016a1.172,1.172,0,0,0,.236-.1l.008,0L353.689,379.6a1.146,1.146,0,0,0,.567-.937l1.214-25.573c0-.014,0-.027,0-.042a1.074,1.074,0,0,0-.02-.224m-63.438,16.436c.513.433,1.3,1.027,2.508,1.885a1.035,1.035,0,0,0,.17.076l.654,1.544a20.1,20.1,0,0,0,1.195,2.434c-.99-.58-1.978-1.17-2.948-1.751-1.389-.835-2.815-1.688-4.241-2.5Zm12.6-48.393a9,9,0,0,1,7.154-1.409,26.873,26.873,0,0,0-10.192,5.887c.014-1.569,1.117-3.218,3.038-4.478m38.314,37.536a3.321,3.321,0,0,0-.232-.644,6.681,6.681,0,0,0-1.736-2.011c-.137-.119-.273-.237-.408-.363-.093-.083-.176-.166-.256-.248.223-.209.442-.423.656-.655a16.9,16.9,0,0,0,3.555-5.816l7.545,4.376Zm-27.414-37.463h0m22.006,34.023a2.849,2.849,0,0,0,.1.3A5.369,5.369,0,0,0,339,357.083c.145.134.295.265.445.4a4.8,4.8,0,0,1,1.195,1.31.87.87,0,0,1-.025.905,7.739,7.739,0,0,1-5.88.36,7.849,7.849,0,0,1-4.4-3.918,1.147,1.147,0,0,0-1.164-.638,1.131,1.131,0,0,0-.917.317,1.144,1.144,0,0,0-.321,1,1.309,1.309,0,0,0,.03.162,1.739,1.739,0,0,1-.623,1.77,2.879,2.879,0,0,1-1.512.189,4.443,4.443,0,0,1,.49-1.471c.217-.454.476-.918.734-1.385a19.089,19.089,0,0,0,1.094-2.185,17.542,17.542,0,0,0,6.486,1.258,24.768,24.768,0,0,0,2.883-.185m-9.607,12.281-24.715-14.218,4.316-2.531a49.983,49.983,0,0,0,16.226,7.246,3.64,3.64,0,0,0,.025,2.5,1.556,1.556,0,0,0,1.089.841,5.732,5.732,0,0,0,1.411.163,4.178,4.178,0,0,0,2.455-.663,3.883,3.883,0,0,0,1.049-1.213,9.731,9.731,0,0,0,5.955,3.275Zm14.822-20.571a14.709,14.709,0,0,1-2.052,4.472,28.676,28.676,0,0,1,.1-4.739,22.558,22.558,0,0,0,2.219-.957c-.069.4-.151.811-.263,1.225m-30.771-4.312a1.15,1.15,0,0,0,.527.939,25.332,25.332,0,0,0,3.969,1.938,39.472,39.472,0,0,0,10.272,2.521,22.382,22.382,0,0,0-.569,4.562,1.145,1.145,0,0,0,.03.2,12.135,12.135,0,0,1-1.144,2.438c-.119.214-.235.427-.351.638a48.719,48.719,0,0,1-16.579-7.472c-.862-.609-1.346-.989-1.359-1a1.149,1.149,0,0,0-1.424,1.8l.133.1-5.109,2.995-.005,0a1.146,1.146,0,0,0-.253.194,1.063,1.063,0,0,0-.25.346l-1.687-.38c-2.8-6.778-3.648-10.618-.639-17.507a22.329,22.329,0,0,1,4.226-6.311c.222-.237.451-.475.7-.711a24.429,24.429,0,0,1,11.013-6.306c.127-.031.237-.052.359-.081a113.434,113.434,0,0,0-1.855,21.083m-9.968,12.622L326.875,369.3l-1.264,22.826-24.354-14.244Zm44.6-14.91a13.338,13.338,0,0,1-1.847,1.634c-.32.239-.691.493-1.127.771a19.629,19.629,0,0,1-2.55,1.334c.253-1.855.578-3.738.9-5.576.755-4.374,1.409-8.151.972-10.687-1.178-6.817-12.282-23.639-12.755-24.351a1.148,1.148,0,0,0-1.915,1.268c.114.171,11.311,17.128,12.408,23.474.369,2.144-.283,5.914-.973,9.9-.428,2.469-.869,5.023-1.136,7.517l0,.04a28.685,28.685,0,0,0-.051,7.105l-.067.01-.175.029a16.619,16.619,0,0,1-9.792-.989,26.859,26.859,0,0,1,.763-4.52c.269-1.13.579-2.289.891-3.457,1.257-4.706,2.558-9.573,1.387-13.261a33.814,33.814,0,0,0-5-9.1c-2.061-2.96-4.009-5.755-4.662-9.131a1.148,1.148,0,0,0-2.254.437c.745,3.852,2.924,6.981,5.031,10.006a32.007,32.007,0,0,1,4.7,8.479c.968,3.048-.244,7.585-1.417,11.972q-.338,1.272-.656,2.518a37.189,37.189,0,0,1-9.95-2.4,27.105,27.105,0,0,1-3.06-1.435,111.02,111.02,0,0,1,1.914-20.443c.008-.042.013-.085.017-.127.022-.253.052-.517.082-.78a1.121,1.121,0,0,0,.125-.492,1.14,1.14,0,0,0-.037-.278,87.033,87.033,0,0,1,3.325-15.384,1.129,1.129,0,0,0,.2-.629c.643-2.032,1.338-3.954,2.073-5.734,1.817.35,3.369.59,4.877.747a17.522,17.522,0,0,0,5.661.923,18.078,18.078,0,0,0,7.18-1.478c7.782,22.26,7.1,39.412,6.933,42.074m-1.17-60.579a28.41,28.41,0,0,1-4.995,15.538c-.2.124-.425.248-.7.39-.141.078-.29.158-.446.232a15.731,15.731,0,0,1-11.829.687,1.08,1.08,0,0,0-.265-.06,57.948,57.948,0,0,1-5.767-.916l-.28-.056c.588-.588,1.186-1.214,1.774-1.829.5-.522,1-1.042,1.483-1.537.584-.592,1.144-1.13,1.642-1.577.03-.023.087-.073.116-.1a1.213,1.213,0,0,0,.155-.226,15.292,15.292,0,0,0,4.14-6.249,12.556,12.556,0,0,0,.39-1.276c1.113-4.425-.412-7.268-2.371-10.262-.01-1.114.014-2.236.086-3.341.06-.893.133-1.681.228-2.473.005-.1.018-.206.031-.308A13.442,13.442,0,0,1,345.384,279.2a1.114,1.114,0,0,0,.043.3m-19.158-10.731c-.085,1.289-.116,2.6-.091,3.874v.219a1.14,1.14,0,0,0,.591,1c1.92,3,2.639,4.963,1.848,8.111a10.781,10.781,0,0,1-.326,1.063,12.82,12.82,0,0,1-4.973,6.463A13.331,13.331,0,0,1,318.51,279.2a13.45,13.45,0,0,1,7.914-12.245c-.059.566-.111,1.154-.155,1.809m-6.236,20.873c.031-.018.059-.042.089-.063a15.332,15.332,0,0,0,1.542,1.526,1.172,1.172,0,0,0,.031.342c-.146.153-.29.3-.436.453-1.11,1.161-2.258,2.361-3.248,3.222a1.147,1.147,0,0,0,.517,1.989l.755.16c.124.027.248.051.372.078q-.788,1.953-1.513,4.1a8,8,0,0,1-1.657-5.514,7.515,7.515,0,0,1,3.548-6.29m-21.553,39.045a23.876,23.876,0,0,0-3.061,5.085c-3.277,7.5-2.433,12,.852,19.857a1.15,1.15,0,0,0,.806.678l2.625.592-.644,20.033-.26-.428a16.76,16.76,0,0,1-1.342-2.634l-.935-2.207c-6.28-15.266-11.739-34.539-2.078-39.668a11.386,11.386,0,0,1,4.039-1.31m53.513,49.25L327.918,392l1.264-22.834,23.9-14.062Z" transform="translate(25.208 50.277)" fill="#231815"/>
    <path id="パス_345" data-name="パス 345" d="M364.756,300.2c.562,1.5,1.181,3.076,1.847,4.7l.935,2.206a16.725,16.725,0,0,0,1.341,2.634c.085.137.171.279.26.428l.343-10.636c-.866.094-1.594.21-2.351.33-.733.117-1.487.236-2.375.335" transform="translate(49.196 61.254)" fill="#fff"/>
    <path id="パス_346" data-name="パス 346" d="M367.861,309.28a19.956,19.956,0,0,1-1.194-2.434l-.655-1.545a1.142,1.142,0,0,1-.168-.076c-1.211-.86-2-1.453-2.508-1.886l-2.662,1.684c1.426.818,2.85,1.671,4.241,2.5.969.582,1.957,1.171,2.947,1.752" transform="translate(47.954 62.414)" fill="#5ecbcc"/>
    <path id="パス_347" data-name="パス 347" d="M379.872,207.255c.044-.014.093-.014.138-.027-.012-1-.034-2.319-.053-3.565-.01-.655-.021-1.285-.029-1.83l-1.564,1.015-.021,5.3a6.639,6.639,0,0,1,1.529-.892" transform="translate(53.333 31.512)" fill="#fff000"/>
    <path id="パス_348" data-name="パス 348" d="M390.242,329.387l24.074-14.064,1.085-22.83-23.9,14.06Z" transform="translate(56.955 59.111)" fill="#cfdee2"/>
    <path id="パス_349" data-name="パス 349" d="M412.6,287.558c-1.739,4.732-5.9,9.513-11.729,9.874-.592.038-1.184.056-1.771.056-10.125,0-19.347-5.318-23.49-8.107l-4.327,2.532,24.731,14.221,24.132-14.2Z" transform="translate(51.184 57.609)" fill="#fff"/>
    <path id="パス_350" data-name="パス 350" d="M385.865,268.665l.087.184,1.25,1.713a1.148,1.148,0,0,1-1.855,1.353l-1.312-1.8a1.086,1.086,0,0,1-.11-.184l-.033-.067a47.552,47.552,0,0,0-1.363,4.623,72.8,72.8,0,0,0-1.761,11.573c-.2,2.5-.3,5.153-.313,7.87-.005,3.916.2,6.929.294,8.137a27.006,27.006,0,0,0,3.108,1.462,37.238,37.238,0,0,0,15.472,2.559,21.94,21.94,0,0,0,10.836-3.185c.441-.28.813-.535,1.132-.774a13.469,13.469,0,0,0,1.824-1.61,148.311,148.311,0,0,0-8-46.619l-.02.008a15.642,15.642,0,0,1-10.657.905c.378,1.272.775,2.49,1.188,3.629a1.148,1.148,0,0,1-2.159.783c-.648-1.787-1.26-3.745-1.82-5.82a125.984,125.984,0,0,1-3.763-25.078c-.222-3.827-.308-7.692-.257-11.519l-.047.043a7.239,7.239,0,0,1-4.423,2.1,11.494,11.494,0,0,1-5.282-.7l-.121-.04c-.247-.08-.513-.164-.8-.24-.112-.034-.223-.064-.333-.093a101.926,101.926,0,0,0,8.42,49.049c.263.592.537,1.166.813,1.743" transform="translate(52.733 36.071)" fill="#fff"/>
    <path id="パス_351" data-name="パス 351" d="M394.14,224a13.413,13.413,0,0,0-3.124.369c-.9,7.568-.844,20.79,9.663,24.5a1.129,1.129,0,0,1,.269.143A13.433,13.433,0,0,0,394.14,224" transform="translate(57.082 38.26)" fill="#5ecbcc"/>
    <path id="パス_352" data-name="パス 352" d="M365.215,306.31c1.079-.1,1.938-.234,2.828-.376.84-.133,1.717-.269,2.788-.376l.282-8.733a1.092,1.092,0,0,1,.351-1.019l.018-.018a1.082,1.082,0,0,1,.145-.132l5.2-3.042-.14-.11a1.148,1.148,0,0,1,1.437-1.791c.005,0,.523.417,1.452,1.062,3.806,2.647,13.806,8.724,24.416,8.06,5.253-.325,8.914-5.169,10.095-9.531.116-.428.2-.852.273-1.272a25.02,25.02,0,0,1-10.113,2.508q-.939.043-1.843.042a39.449,39.449,0,0,1-14.585-2.764,25.091,25.091,0,0,1-3.971-1.94,1.142,1.142,0,0,1-.52-.852c-.014-.142-.333-3.418-.352-8.283-4.623-3.681-8.12-5.413-11.3-5.6-.176-.006-.37-.016-.566-.016a11.15,11.15,0,0,0-5.309,1.437c-8.489,4.508-5.109,20.084-.584,32.74" transform="translate(47.923 52.914)" fill="#cfdee2"/>
    <path id="パス_353" data-name="パス 353" d="M390.475,249.72a13.258,13.258,0,0,0,4.779.892,13.44,13.44,0,0,0,3.959-.605c-9.773-4.8-10.27-17.242-9.474-25.149l-.141.051a8.277,8.277,0,0,0-2.6,1.577,123.809,123.809,0,0,0,3.476,23.234" transform="translate(55.968 38.521)" fill="#fff"/>
    <path id="パス_354" data-name="パス 354" d="M395.423,306.71,370.543,292.4l-.738,22.9,24.354,14.244Z" transform="translate(50.733 59.084)" fill="#fff"/>
    <path id="パス_355" data-name="パス 355" d="M391.184,187l-20.419,13.738-.777,10.977L390.655,198.3Z" transform="translate(50.789 26.997)" fill="#fff000"/>
    <path id="パス_356" data-name="パス 356" d="M379.1,219.008a8.923,8.923,0,0,0,3.808.407,4.465,4.465,0,0,0,2.6-1.121,1.144,1.144,0,0,1,.089-.389,7.121,7.121,0,0,0,.305-5.994c-1.171-2.506-4-3.758-5.039-4.145a5.117,5.117,0,0,0-1.907,1.863,5.682,5.682,0,0,0-.354.737,1.155,1.155,0,0,1-.488.566A2.892,2.892,0,0,0,376.681,213c-.28,1.646.569,3.778,2.33,5.848a1.052,1.052,0,0,1,.086.155" transform="translate(52.811 33.318)" fill="#fff"/>
    <path id="パス_357" data-name="パス 357" d="M377.25,264.794a4.571,4.571,0,0,0-.271.907,5.29,5.29,0,0,0,1.509,4.6,76.079,76.079,0,0,1,1.222-8.2,5.432,5.432,0,0,0-2.313,2.36c-.043.093-.1.213-.147.333" transform="translate(52.894 49.859)" fill="#fff"/>
    <path id="パス_358" data-name="パス 358" d="M370.081,271.551a1.139,1.139,0,0,1-.146.677c3.077.412,6.252,1.936,10.215,4.907q.057-2.514.226-4.9a7.572,7.572,0,0,1-3.557-7.566,9.675,9.675,0,0,0-5.308,3.127,5.207,5.207,0,0,0-1.43,3.757" transform="translate(50.773 50.641)" fill="#cfdee2"/>
    <path id="パス_359" data-name="パス 359" d="M427.565,323.115c0-.018-.005-.038-.009-.057a1.131,1.131,0,0,0-.1-.254c-.009-.017-.021-.033-.03-.05a1.149,1.149,0,0,0-.128-.179c-.018-.02-.034-.039-.054-.057a1.146,1.146,0,0,0-.189-.153c-.009-.005-.016-.014-.025-.02l-.006,0-.01-.008-9.739-5.65a13.949,13.949,0,0,0,.283-2.373c.244-.167.474-.327.678-.481a13.678,13.678,0,0,0,2.5-2.307,1.146,1.146,0,0,0,.241-.671,149.8,149.8,0,0,0-8.256-48.232,15.738,15.738,0,0,0-13.333-28.163c-.652.2-1.244.4-1.82.622a11.252,11.252,0,0,0-1.915.956c-.168-3.724-.215-7.472-.121-11.175a1.15,1.15,0,0,0-1.019-1.17,2.536,2.536,0,0,0-.42-.01,8.446,8.446,0,0,0-.481-5.651,10.712,10.712,0,0,0-5.13-4.805c-.01-1-.038-2.72-.064-4.3-.021-1.286-.039-2.48-.047-3.111a1.122,1.122,0,0,0-.016-.15l7.666-4.975a1.146,1.146,0,0,0,.522-.909l.664-14.169a1.147,1.147,0,0,0-1.787-1.006l-22.779,15.326a1.146,1.146,0,0,0-.5.871l-.981,13.836a1.148,1.148,0,0,0,1.77,1.044l9.3-6.039-.026,6.426a1.145,1.145,0,0,0,.022.223,5.184,5.184,0,0,0-2.163,3.433,8.322,8.322,0,0,0,1.278,5.513c-.017,0-.033-.005-.048-.008a1.147,1.147,0,0,0-1.287,1.049,104.7,104.7,0,0,0,8.132,50.552,1.1,1.1,0,0,0-.12.218,46.262,46.262,0,0,0-1.962,6.029,7.6,7.6,0,0,0-4.732,3.574,11.945,11.945,0,0,0-7.956,4.087,7.443,7.443,0,0,0-1.963,5.464,1.123,1.123,0,0,0,.1.356,13.672,13.672,0,0,0-6.028,1.687c-8.158,4.331-8.6,16.608-1.328,36.49.3.822.621,1.675.956,2.546a1.2,1.2,0,0,0-1.43-.175l-5.072,3.208a1.148,1.148,0,0,0,.063,1.977c1.946,1.064,3.933,2.257,5.853,3.407,1.858,1.115,3.779,2.266,5.652,3.3.065.039.134.074.2.11l.1.052a1.133,1.133,0,0,0,.58.159.95.95,0,0,0,.12-.016,1.137,1.137,0,0,0,.451.506l26.562,15.537a1.164,1.164,0,0,0,.214.09c.021.006.04.02.061.025a1.156,1.156,0,0,0,.3.043,1.135,1.135,0,0,0,.3-.04c.014,0,.027-.012.04-.016a1.174,1.174,0,0,0,.236-.1l.008,0,26.456-15.456a1.147,1.147,0,0,0,.567-.937l1.214-25.573c0-.014,0-.027,0-.042a1.087,1.087,0,0,0-.02-.226m-63.438,16.428c.513.434,1.3,1.028,2.508,1.886a1.082,1.082,0,0,0,.17.076l.654,1.544a20.1,20.1,0,0,0,1.195,2.434c-.99-.581-1.978-1.169-2.948-1.751-1.389-.835-2.815-1.688-4.241-2.506ZM382.2,227.736c.11.029.22.059.333.093.283.076.549.16.8.24l.121.04a11.493,11.493,0,0,0,5.282.7,7.239,7.239,0,0,0,4.423-2.1l.047-.043c-.051,3.827.035,7.692.257,11.519a125.985,125.985,0,0,0,3.763,25.078c.56,2.075,1.171,4.033,1.821,5.82a1.148,1.148,0,1,0,2.158-.783c-.414-1.139-.81-2.357-1.188-3.629a15.646,15.646,0,0,0,10.659-.905l.018-.008a148.312,148.312,0,0,1,8,46.619,13.475,13.475,0,0,1-1.824,1.61c-.32.239-.69.493-1.132.774a21.94,21.94,0,0,1-10.836,3.185,37.239,37.239,0,0,1-15.472-2.559,27,27,0,0,1-3.108-1.462c-.1-1.208-.3-4.221-.294-8.137.01-2.717.115-5.365.313-7.87A72.793,72.793,0,0,1,388.1,284.35a47.552,47.552,0,0,1,1.363-4.623l.033.067a1.178,1.178,0,0,0,.11.184l1.312,1.8a1.148,1.148,0,0,0,1.855-1.353l-1.25-1.713-.087-.184c-.275-.577-.549-1.151-.813-1.743a101.926,101.926,0,0,1-8.42-49.049m-7.811-26.209,20.419-13.738-.53,11.3L373.614,212.5Zm11.706,5.609c.008.545.018,1.175.029,1.83.021,1.244.042,2.568.055,3.566a1.3,1.3,0,0,0-.14.026,6.7,6.7,0,0,0-1.527.892l.021-5.3Zm-3.768,12.978a2.89,2.89,0,0,1,1.427-2.074,1.155,1.155,0,0,0,.488-.566,5.768,5.768,0,0,1,.354-.737,5.09,5.09,0,0,1,1.906-1.861c1.038.386,3.869,1.64,5.04,4.144a7.125,7.125,0,0,1-.305,6,1.108,1.108,0,0,0-.09.387,4.45,4.45,0,0,1-2.594,1.122,8.913,8.913,0,0,1-3.808-.408,1.071,1.071,0,0,0-.087-.155c-1.76-2.07-2.61-4.2-2.33-5.846m28.54,40.952a1.173,1.173,0,0,0-.269-.142c-10.508-3.716-10.567-16.937-9.663-24.506a13.434,13.434,0,0,1,9.932,24.648m-12.323-23.9c-.8,7.907-.3,20.354,9.474,25.149a13.452,13.452,0,0,1-3.959.6,13.256,13.256,0,0,1-4.779-.891A123.9,123.9,0,0,1,395.8,238.8a8.284,8.284,0,0,1,2.6-1.577l.141-.051M371.174,345.212c-.089-.149-.176-.291-.26-.428a16.816,16.816,0,0,1-1.342-2.634l-.934-2.206c-.667-1.628-1.285-3.2-1.847-4.7.888-.1,1.642-.218,2.374-.335.758-.12,1.484-.236,2.351-.33Zm2.939-19.936,24.882,14.307-1.265,22.834-24.354-14.244Zm25.922,12.258L375.3,323.313l4.328-2.532c4.143,2.789,13.365,8.106,23.49,8.106.587,0,1.179-.018,1.771-.055,5.824-.361,9.991-5.143,11.729-9.874l7.545,4.376Zm-14.591-51.782a75.688,75.688,0,0,0-1.224,8.2,5.3,5.3,0,0,1-1.509-4.6,4.582,4.582,0,0,1,.273-.908c.052-.12.1-.24.147-.331a5.419,5.419,0,0,1,2.313-2.36m-5.014,3.346a7.573,7.573,0,0,0,3.557,7.566c-.11,1.59-.188,3.226-.226,4.9-3.962-2.97-7.138-4.494-10.214-4.907a1.138,1.138,0,0,0,.146-.677,5.2,5.2,0,0,1,1.428-3.757,9.684,9.684,0,0,1,5.308-3.127m-8.56,9.739c.194,0,.389.008.566.016,3.178.181,6.675,1.915,11.3,5.6.021,4.866.339,8.141.352,8.283a1.154,1.154,0,0,0,.52.852,25.38,25.38,0,0,0,3.971,1.94,39.457,39.457,0,0,0,14.586,2.764q.9,0,1.842-.042a25.036,25.036,0,0,0,10.113-2.508,12.731,12.731,0,0,1-.271,1.272c-1.181,4.362-4.842,9.205-10.095,9.531-10.61.663-20.611-5.413-24.418-8.06-.929-.644-1.445-1.059-1.451-1.063a1.149,1.149,0,0,0-1.437,1.792c.007,0,.056.043.14.108l-5.2,3.043a1.072,1.072,0,0,0-.145.132l-.02.017a1.1,1.1,0,0,0-.351,1.02l-.28,8.732c-1.071.107-1.948.243-2.788.377-.89.142-1.751.275-2.828.376-4.526-12.657-7.906-28.232.584-32.74a11.146,11.146,0,0,1,5.309-1.437m52.241,49.387-24.074,14.064,1.264-22.834,23.9-14.06Z" transform="translate(47.163 26.209)" fill="#231815"/>
    <path id="パス_360" data-name="パス 360" d="M461.714,287.794l24.074-14.064,1.085-22.83-23.9,14.06Z" transform="translate(78.713 46.449)" fill="#cfdee2"/>
    <path id="パス_361" data-name="パス 361" d="M484.073,245.968c-1.744,4.726-5.917,9.508-11.728,9.871q-.888.055-1.77.053c-10.1,0-19.252-5.245-23.482-8.1l-4.338,2.529,24.732,14.217,24.131-14.2Z" transform="translate(72.941 44.948)" fill="#fff"/>
    <path id="パス_362" data-name="パス 362" d="M478.256,203.737c-.065.03-.131.061-.2.09a15.728,15.728,0,0,1-14.543-.716c-.738,2.095-1.28,3.549-1.662,4.537a1.127,1.127,0,0,1-.117.53c-.15.3-.3.625-.442.97-.012.025-.022.051-.035.074,0,0,0,.012-.014.043-2.182,5.335-3.579,14.711-4.113,21.128-.183,2.133-.279,4.008-.279,5.43a1.149,1.149,0,0,1-1.963.809,16.231,16.231,0,0,0-5.036-3.4,16.465,16.465,0,0,0-4.212-1.214,18.3,18.3,0,0,0-2.707,10.1c1.955.51,3.933,1.178,5.856,1.837,1.462.5,2.974,1.02,4.417,1.441,4.395,1.285,8.907,1.976,12.151-1.625,1.054-1.169,1.6-7.122,2.081-12.375a128.645,128.645,0,0,1,2.141-16.008,1.148,1.148,0,1,1,2.238.511,127.029,127.029,0,0,0-2.092,15.707c-.7,7.643-1.17,12.048-2.662,13.7a10.138,10.138,0,0,1-7.931,3.423,21.263,21.263,0,0,1-5.279-.776c-.08,1.867-.093,3.29-.093,4.055a26.752,26.752,0,0,0,3.059,1.434A37.284,37.284,0,0,0,472.288,256a21.935,21.935,0,0,0,10.836-3.185c.428-.271.809-.532,1.132-.775a13.391,13.391,0,0,0,1.831-1.616,134.874,134.874,0,0,0-7.838-45.916,1.145,1.145,0,0,1,.007-.775" transform="translate(72.995 31.901)" fill="#fff"/>
    <path id="パス_363" data-name="パス 363" d="M465.605,182.406a13.406,13.406,0,0,0-3.124.369c-.9,7.57-.844,20.79,9.663,24.5a1.151,1.151,0,0,1,.274.147,13.437,13.437,0,0,0-6.813-25.021" transform="translate(78.838 25.598)" fill="#5ecbcc"/>
    <path id="パス_364" data-name="パス 364" d="M439.256,271.118q.364.892.747,1.8l.18.428a16.381,16.381,0,0,0,1.342,2.627c.086.138.173.282.263.433l.693-21.7a1.1,1.1,0,0,1,.326-.97c.027-.029.056-.053.086-.08a1.064,1.064,0,0,1,.106-.1l5.21-3.039-.146-.113A1.148,1.148,0,0,1,449.5,248.6c.005,0,.473.377,1.31.959,3.812,2.679,13.833,8.847,24.561,8.164,5.228-.325,8.894-5.15,10.087-9.495.119-.444.209-.88.281-1.312a25.046,25.046,0,0,1-10.122,2.512q-.937.043-1.841.043a39.425,39.425,0,0,1-14.589-2.765,25.191,25.191,0,0,1-3.969-1.938,1.148,1.148,0,0,1-.526-.94c0-.09-.043-2.143.113-5.4-1.182-.369-2.373-.767-3.539-1.166-2.156-.74-4.387-1.5-6.512-2-.044-.01-.085-.029-.128-.043-.017-.007-.034-.01-.05-.018a1.087,1.087,0,0,1-.3-.187,6.9,6.9,0,0,1-1.161.1,10.145,10.145,0,0,1-6.856-2.876c-6.109,4.543-5.009,19.253,3,38.884" transform="translate(69.773 40.768)" fill="#cfdee2"/>
    <path id="パス_365" data-name="パス 365" d="M454.5,195.561a13.449,13.449,0,0,0,5.59,10.9l0,0a13.27,13.27,0,0,0,7.84,2.536,13.409,13.409,0,0,0,3.959-.605c-9.744-4.781-10.267-17.168-9.482-25.079a13.45,13.45,0,0,0-7.91,12.242" transform="translate(76.516 25.876)" fill="#fff"/>
    <path id="パス_366" data-name="パス 366" d="M466.894,265.116l-24.888-14.307-.73,22.887,24.354,14.253Z" transform="translate(72.491 46.422)" fill="#fff"/>
    <path id="パス_367" data-name="パス 367" d="M450.329,223.3a3.087,3.087,0,0,0-.811,2.037,18.859,18.859,0,0,1,3.1,1.888c.035-.7.087-1.454.147-2.238a.978.978,0,0,1-.09-.06,7.856,7.856,0,0,0-2.344-1.627" transform="translate(75 38.047)" fill="#fff"/>
    <path id="パス_368" data-name="パス 368" d="M444.884,223.7a18.4,18.4,0,0,1,3.851.877,5.658,5.658,0,0,1,.612-1.756,8.572,8.572,0,0,0-4.462.879" transform="translate(73.59 37.893)" fill="#fff"/>
    <path id="パス_369" data-name="パス 369" d="M436.095,231.867a2.542,2.542,0,0,0,.244.4,7.382,7.382,0,0,0,6.46,2.718,20.646,20.646,0,0,1,2.319-9.55l-.551-.108-.149-.03a1.214,1.214,0,0,1-.189.037,1.135,1.135,0,0,1-.583-.185c-1.731-.318-3.159-.436-4.264.433-.776.605-4.562,3.733-3.287,6.29" transform="translate(70.835 38.537)" fill="#fff"/>
    <path id="パス_370" data-name="パス 370" d="M439.326,267.682a19.885,19.885,0,0,1-1.195-2.43l-.183-.434c-.157-.373-.308-.74-.46-1.109a1.064,1.064,0,0,1-.172-.077c-1.211-.858-2-1.453-2.508-1.886l-2.662,1.684c1.422.815,2.842,1.667,4.229,2.5.972.583,1.961,1.173,2.952,1.754" transform="translate(69.712 49.752)" fill="#5ecbcc"/>
    <path id="パス_371" data-name="パス 371" d="M430.144,289.186c1.941,1.063,3.924,2.251,5.84,3.4,1.863,1.117,3.788,2.271,5.665,3.305.067.039.136.076.2.112l.1.053a1.15,1.15,0,0,0,.574.155c.042,0,.082-.012.123-.016a1.138,1.138,0,0,0,.45.5l26.561,15.546a1.226,1.226,0,0,0,.2.083c.025.009.048.023.074.031a1.128,1.128,0,0,0,.6,0c.017-.005.033-.014.05-.02a1.121,1.121,0,0,0,.227-.1l.008,0,26.456-15.456a1.147,1.147,0,0,0,.568-.937l1.216-25.575c0-.014,0-.027,0-.042a1.092,1.092,0,0,0-.02-.226c0-.02-.005-.039-.01-.057a1.107,1.107,0,0,0-.094-.254c-.009-.017-.021-.033-.03-.048a1.052,1.052,0,0,0-.13-.181l-.05-.055a1.18,1.18,0,0,0-.2-.159c-.008,0-.012-.01-.018-.014l-.005,0-.013-.008-9.738-5.646a14.175,14.175,0,0,0,.282-2.382c.24-.163.467-.323.671-.476a13.7,13.7,0,0,0,2.5-2.306,1.141,1.141,0,0,0,.24-.646,136.1,136.1,0,0,0-7.956-47.194,1.144,1.144,0,0,0-.832-.729,15.731,15.731,0,0,0-8.131-29.2,15.557,15.557,0,0,0-4.667.706,14.463,14.463,0,0,0-1.756.667,15.723,15.723,0,0,0-3.471,26.58c-1.445,4.13-2.171,5.9-2.431,6.506l-.059.125a1.126,1.126,0,0,0-.119.451c-1.981,5.117-3.308,13.263-3.934,19.518a9.8,9.8,0,0,0-1.9-1.08,1.154,1.154,0,0,0-.888-.335,10.792,10.792,0,0,0-10.46,2.548c-1.74-.318-4.071-.573-5.956.912-3.671,2.859-5.163,6.116-4.067,8.794-6.893,4.962-6.6,18.67.8,38.166a1.2,1.2,0,0,0-1.462-.2l-5.07,3.208a1.149,1.149,0,0,0,.063,1.978m5.454-2.751c.513.434,1.3,1.028,2.51,1.887a1,1,0,0,0,.171.076c.153.369.3.737.462,1.11l.183.433a19.669,19.669,0,0,0,1.194,2.431c-.991-.582-1.98-1.173-2.951-1.754-1.387-.832-2.807-1.684-4.23-2.5Zm9.979-14.265,24.888,14.306L469.2,309.309l-24.354-14.252Zm25.929,12.256-24.732-14.217,4.339-2.531c4.23,2.854,13.383,8.1,23.482,8.1q.881,0,1.77-.055c5.811-.361,9.984-5.143,11.728-9.869l7.544,4.372Zm24.076,10.691-24.076,14.064,1.264-22.834,23.9-14.062Zm-5.419-37.85a13.469,13.469,0,0,1-1.831,1.617c-.323.241-.706.5-1.134.775a21.939,21.939,0,0,1-10.836,3.185,37.309,37.309,0,0,1-15.472-2.561,27.215,27.215,0,0,1-3.059-1.434c0-.766.013-2.189.093-4.055a21.341,21.341,0,0,0,5.28.775,10.137,10.137,0,0,0,7.931-3.423c1.491-1.654,1.961-6.059,2.662-13.7a126.785,126.785,0,0,1,2.092-15.707,1.149,1.149,0,1,0-2.24-.51,128.345,128.345,0,0,0-2.139,16.007c-.483,5.253-1.028,11.206-2.082,12.375-3.244,3.6-7.756,2.911-12.151,1.627-1.443-.421-2.955-.941-4.417-1.441-1.923-.659-3.9-1.327-5.854-1.838a18.29,18.29,0,0,1,2.705-10.1,16.515,16.515,0,0,1,4.212,1.213,16.254,16.254,0,0,1,5.036,3.4,1.148,1.148,0,0,0,1.963-.809c0-1.421.1-3.3.279-5.43.533-6.415,1.93-15.791,4.113-21.128.013-.031.017-.042.014-.042a.8.8,0,0,0,.035-.076c.142-.346.292-.668.443-.969a1.147,1.147,0,0,0,.116-.531c.384-.987.924-2.441,1.662-4.535a15.722,15.722,0,0,0,14.543.715q.1-.043.2-.09a1.137,1.137,0,0,0-.005.775,134.948,134.948,0,0,1,7.838,45.916m-7.827-49.3a1.149,1.149,0,0,0-.274-.147c-10.507-3.715-10.567-16.935-9.663-24.5a13.437,13.437,0,0,1,9.937,24.652m-2.854,1.248a13.41,13.41,0,0,1-3.959.605,13.273,13.273,0,0,1-7.84-2.536l0,0A13.428,13.428,0,0,1,470,184.133c-.785,7.911-.262,20.3,9.482,25.079M458.7,240.206a18.848,18.848,0,0,0-3.1-1.886,3.08,3.08,0,0,1,.811-2.039,7.858,7.858,0,0,1,2.344,1.628.823.823,0,0,0,.09.059c-.06.784-.112,1.543-.147,2.238m-5.293-2.8a18.389,18.389,0,0,0-3.849-.875,8.572,8.572,0,0,1,4.462-.879,5.688,5.688,0,0,0-.613,1.754m-7.844,1.212a1.136,1.136,0,0,0,.583.185,1.212,1.212,0,0,0,.189-.037l.149.03.55.108a20.646,20.646,0,0,0-2.319,9.55,7.383,7.383,0,0,1-6.46-2.718,2.539,2.539,0,0,1-.244-.4c-1.274-2.557,2.511-5.685,3.287-6.29,1.1-.869,2.533-.751,4.264-.433m-8.451,9.32a10.15,10.15,0,0,0,6.856,2.875,6.9,6.9,0,0,0,1.161-.1,1.113,1.113,0,0,0,.3.187.377.377,0,0,0,.051.017,1.051,1.051,0,0,0,.128.044c2.124.5,4.354,1.263,6.512,2,1.165.4,2.357.8,3.539,1.166-.157,3.26-.116,5.313-.114,5.4a1.15,1.15,0,0,0,.524.94,25.324,25.324,0,0,0,3.971,1.938,39.425,39.425,0,0,0,14.589,2.765c.6,0,1.216-.014,1.839-.043a25.018,25.018,0,0,0,10.122-2.514,13.37,13.37,0,0,1-.279,1.314c-1.194,4.345-4.859,9.17-10.087,9.495-10.728.682-20.75-5.485-24.562-8.164-.835-.582-1.3-.956-1.308-.959a1.148,1.148,0,0,0-1.434,1.794l.146.114-5.21,3.039a1.07,1.07,0,0,0-.106.1c-.03.026-.059.051-.086.078a1.1,1.1,0,0,0-.326.972l-.693,21.7c-.09-.151-.177-.295-.263-.433a16.384,16.384,0,0,1-1.342-2.627l-.18-.428c-.254-.6-.506-1.2-.747-1.8-8.012-19.63-9.11-34.34-3-38.884" transform="translate(68.921 25.063)" fill="#231815"/>
  </g>
</svg>
