<svg xmlns="http://www.w3.org/2000/svg" width="247.178" height="55.115" viewBox="0 0 247.178 55.115">
  <path id="contect_tit" d="M-102.821-20.221h11.461V-9.344a11.132,11.132,0,0,1-1.1,5.22,8.752,8.752,0,0,1-3.1,3.358,13.8,13.8,0,0,1-4.781,1.825,31.744,31.744,0,0,1-6.132.548,35.1,35.1,0,0,1-6.387-.548,16.01,16.01,0,0,1-5.11-1.788,9.173,9.173,0,0,1-3.395-3.358A10.091,10.091,0,0,1-122.6-9.271V-42.632a10.091,10.091,0,0,1,1.241-5.183,9.173,9.173,0,0,1,3.395-3.358,16.01,16.01,0,0,1,5.11-1.789,35.1,35.1,0,0,1,6.387-.548,31.744,31.744,0,0,1,6.132.548,13.8,13.8,0,0,1,4.781,1.825,8.752,8.752,0,0,1,3.1,3.358,11.132,11.132,0,0,1,1.1,5.219v9.782h-11.461V-43.654q0-3.285-3.65-3.285t-3.65,3.285v35.4q0,3.285,3.65,3.285t3.65-3.285Zm16.863-22.411a10.091,10.091,0,0,1,1.241-5.183,9.173,9.173,0,0,1,3.395-3.358,16.01,16.01,0,0,1,5.11-1.789,35.1,35.1,0,0,1,6.387-.548,34.072,34.072,0,0,1,6.278.548,15.448,15.448,0,0,1,5.073,1.825,9.552,9.552,0,0,1,3.395,3.358,10.046,10.046,0,0,1,1.241,5.219V-9.344a10.046,10.046,0,0,1-1.241,5.22A9.552,9.552,0,0,1-58.473-.766a15.448,15.448,0,0,1-5.073,1.825,34.072,34.072,0,0,1-6.278.548,35.1,35.1,0,0,1-6.387-.548A16.01,16.01,0,0,1-81.322-.73a9.173,9.173,0,0,1-3.395-3.358,10.091,10.091,0,0,1-1.241-5.183Zm19.783-1.022q0-3.285-3.65-3.285t-3.65,3.285v35.4q0,3.285,3.65,3.285t3.65-3.285ZM-27.922,0V-43.654q0-3.285-3.65-3.285t-3.65,3.285V0H-47.706V-42.632a10.091,10.091,0,0,1,1.241-5.183,9.173,9.173,0,0,1,3.395-3.358,16.01,16.01,0,0,1,5.11-1.789,35.1,35.1,0,0,1,6.387-.548,34.072,34.072,0,0,1,6.278.548,15.448,15.448,0,0,1,5.073,1.825,9.552,9.552,0,0,1,3.395,3.358,10.046,10.046,0,0,1,1.241,5.219V0ZM-1.278,0V-45.333h-10v-6.643H21.061v6.643H11.132V0ZM25.441,0V-51.976H52.816V-44.9H37.851v13.067H52.378v6.862H37.851V-7.154H52.889V0ZM78.073-20.221H89.535V-9.344a11.132,11.132,0,0,1-1.1,5.22,8.752,8.752,0,0,1-3.1,3.358,13.8,13.8,0,0,1-4.781,1.825,31.744,31.744,0,0,1-6.132.548,35.1,35.1,0,0,1-6.387-.548A16.01,16.01,0,0,1,62.926-.73a9.173,9.173,0,0,1-3.395-3.358A10.091,10.091,0,0,1,58.29-9.271V-42.632a10.091,10.091,0,0,1,1.241-5.183,9.173,9.173,0,0,1,3.395-3.358,16.01,16.01,0,0,1,5.11-1.789,35.1,35.1,0,0,1,6.387-.548,31.744,31.744,0,0,1,6.132.548,13.8,13.8,0,0,1,4.781,1.825,8.752,8.752,0,0,1,3.1,3.358,11.132,11.132,0,0,1,1.1,5.219v9.782H78.073V-43.654q0-3.285-3.65-3.285t-3.65,3.285v35.4q0,3.285,3.65,3.285t3.65-3.285ZM102.236,0V-45.333h-10v-6.643h32.339v6.643h-9.928V0Z" transform="translate(122.604 53.509)" fill="#fff"/>
</svg>
