<svg xmlns="http://www.w3.org/2000/svg" xmlns:xlink="http://www.w3.org/1999/xlink" width="498.136" height="116.755" viewBox="0 0 498.136 116.755">
  <defs>
    <clipPath id="clip-path">
      <rect id="長方形_897" data-name="長方形 897" width="70.618" height="79.931" transform="translate(0 0)" fill="none"/>
    </clipPath>
  </defs>
  <g id="interview_tit" transform="translate(-2.482 -20.491)">
    <path id="パス_24494" data-name="パス 24494" d="M40.369-51.976H52.852v43.07a8.585,8.585,0,0,1-1.241,4.672A9.991,9.991,0,0,1,48.253-.986a16.25,16.25,0,0,1-4.928,1.9,27.541,27.541,0,0,1-5.949.62A18.05,18.05,0,0,1,31.938.8a14.505,14.505,0,0,1-4.271-2.19A16.337,16.337,0,0,1,23.177.8a18.5,18.5,0,0,1-5.438.73,27.04,27.04,0,0,1-5.913-.62,15.8,15.8,0,0,1-4.855-1.9A9.759,9.759,0,0,1,3.687-4.234a8.784,8.784,0,0,1-1.2-4.672v-43.07h12.41V-8.614a3.485,3.485,0,0,0,.766,2.482,3.6,3.6,0,0,0,2.665.8A3.175,3.175,0,0,0,20.878-6.2a4.164,4.164,0,0,0,.73-2.7v-43.07H33.8v43.8a2.523,2.523,0,0,0,.986,2.044,3.432,3.432,0,0,0,2.227.8,3.478,3.478,0,0,0,2.591-.8,3.485,3.485,0,0,0,.766-2.482ZM59.495,0V-51.976H86.87V-44.9H71.9v13.067H86.432v6.862H71.9V-7.154H86.943V0Zm64.6-9.344a10.29,10.29,0,0,1-1.2,5.22A9.438,9.438,0,0,1,119.61-.766a14.611,14.611,0,0,1-4.927,1.825,32.9,32.9,0,0,1-6.205.548,35.1,35.1,0,0,1-6.387-.548A16.01,16.01,0,0,1,96.98-.73a9.173,9.173,0,0,1-3.395-3.358,10.091,10.091,0,0,1-1.241-5.183V-42.632a10.091,10.091,0,0,1,1.241-5.183,9.173,9.173,0,0,1,3.395-3.358,16.01,16.01,0,0,1,5.11-1.789,35.1,35.1,0,0,1,6.387-.548,31.744,31.744,0,0,1,6.132.548,14.194,14.194,0,0,1,4.818,1.825,8.944,8.944,0,0,1,3.176,3.358,10.831,10.831,0,0,1,1.132,5.219v6.789a7.672,7.672,0,0,1-2.044,5.73q-2.044,2.008-6.789,2.373,4.745.438,6.971,2.19a5.794,5.794,0,0,1,2.227,4.818ZM112.128-19.637q0-4.964-4.6-4.964h-2.7V-8.249q0,3.285,3.65,3.285t3.65-3.285Zm0-24.017q0-3.285-3.65-3.285t-3.65,3.285v13.213h2.7a4.976,4.976,0,0,0,3.395-1.058,4.615,4.615,0,0,0,1.2-3.614ZM148.774,0V-51.976h12.41V0ZM187.9,0V-43.654q0-3.285-3.65-3.285t-3.65,3.285V0H168.119V-42.632a10.091,10.091,0,0,1,1.241-5.183,9.173,9.173,0,0,1,3.394-3.358,16.01,16.01,0,0,1,5.11-1.789,35.1,35.1,0,0,1,6.388-.548,34.072,34.072,0,0,1,6.278.548,15.448,15.448,0,0,1,5.073,1.825A9.552,9.552,0,0,1,199-47.778a10.046,10.046,0,0,1,1.241,5.219V0Zm26.645,0V-45.333h-10v-6.643h32.339v6.643h-9.928V0Zm26.718,0V-51.976H268.64V-44.9H253.675v13.067H268.2v6.862H253.675V-7.154h15.038V0ZM294.19,0V-17.958q0-4.964-4.6-4.964h-2.7V0H274.407V-42.632a10.091,10.091,0,0,1,1.241-5.183,9.173,9.173,0,0,1,3.395-3.358,16.01,16.01,0,0,1,5.11-1.789,35.1,35.1,0,0,1,6.387-.548,31.744,31.744,0,0,1,6.132.548,14.194,14.194,0,0,1,4.818,1.825,8.944,8.944,0,0,1,3.176,3.358,10.831,10.831,0,0,1,1.132,5.219v8.468a7.672,7.672,0,0,1-2.044,5.73q-2.044,2.007-6.789,2.372,4.745.438,6.971,2.19a5.794,5.794,0,0,1,2.227,4.818V0Zm0-43.654q0-3.285-3.65-3.285t-3.65,3.285v14.892h2.7a4.976,4.976,0,0,0,3.394-1.059,4.615,4.615,0,0,0,1.2-3.614ZM319.448,0l-8.979-51.976h12.41l5.767,42.34,5.986-42.34h11.9L337.114,0ZM351.2,0V-51.976h12.41V0Zm19.564,0V-51.976h27.375V-44.9H383.177v13.067H397.7v6.862H383.177V-7.154h15.038V0ZM441.8-51.976h12.483v43.07a8.585,8.585,0,0,1-1.241,4.672A9.991,9.991,0,0,1,449.68-.986a16.25,16.25,0,0,1-4.927,1.9,27.54,27.54,0,0,1-5.949.62A18.05,18.05,0,0,1,433.365.8a14.505,14.505,0,0,1-4.271-2.19A16.337,16.337,0,0,1,424.6.8a18.5,18.5,0,0,1-5.438.73,27.04,27.04,0,0,1-5.913-.62,15.8,15.8,0,0,1-4.854-1.9,9.759,9.759,0,0,1-3.285-3.248,8.784,8.784,0,0,1-1.2-4.672v-43.07h12.41V-8.614a3.485,3.485,0,0,0,.767,2.482,3.6,3.6,0,0,0,2.664.8A3.175,3.175,0,0,0,422.3-6.2a4.164,4.164,0,0,0,.73-2.7v-43.07h12.191v43.8a2.523,2.523,0,0,0,.985,2.044,3.432,3.432,0,0,0,2.227.8,3.478,3.478,0,0,0,2.592-.8,3.485,3.485,0,0,0,.766-2.482Z" transform="translate(0 74)" fill="#ffcd72"/>
    <g id="グループ_3389" data-name="グループ 3389" transform="translate(430 57.315)" clip-path="url(#clip-path)">
      <path id="パス_24495" data-name="パス 24495" d="M7.815,2.19c1.106-.375,2.159-.054,3.076-.6a1.744,1.744,0,0,1,1.225-.011c.633.185,1.22.612,1.88.1a3.8,3.8,0,0,0,2.194.345c.668.036,1.338.015,2.007.03a32.062,32.062,0,0,1,5.721.356,29.122,29.122,0,0,0,4.263.147,18.821,18.821,0,0,1,4.7.362,4.486,4.486,0,0,0,3.456-.3,12.217,12.217,0,0,1,1.326.557,1.252,1.252,0,0,0,1.406.061.637.637,0,0,1,.476-.074c2.037.664,4.138.334,6.21.4a2.111,2.111,0,0,1,2.044,2.7A7.43,7.43,0,0,0,47.5,7.951a9.819,9.819,0,0,1-.4,2.957c-.361.914.01,1.969-.467,2.931a4.143,4.143,0,0,0-.143,1.725,12.357,12.357,0,0,1-.413,4.448,2.6,2.6,0,0,0-.067,1c.032.726.145,1.453.13,2.178-.014.661-.22,1.32-.221,1.981a8.653,8.653,0,0,1-.341,2.442A14.233,14.233,0,0,0,45.4,30.6a6.925,6.925,0,0,1-.354,2.942c-.454.9.035,1.938-.41,2.936a4.356,4.356,0,0,0-.416,2.618c.06.294-.238.713-.116.932a1.824,1.824,0,0,1-.158,2.1,1.679,1.679,0,0,0-.094,1.632,1.241,1.241,0,0,1-.128.948,6.7,6.7,0,0,0-.821,3.346,28.357,28.357,0,0,1-.616,3.543,3.46,3.46,0,0,1-.864.21c-2.6-.006-5.19-.039-7.785-.066-.335,0-.673-.052-1.005-.022a6.576,6.576,0,0,1-2.641.106c-.855-.247-1.861.057-2.741-.143-.974-.221-1.976.138-2.859-.167-.985-.34-1.929.151-2.9-.144-.493-.151-1.155.256-1.654.113a7.054,7.054,0,0,0-1.731-.141q-.878-.036-1.755-.029a9.23,9.23,0,0,1-2.718-.3,2.726,2.726,0,0,0-1.712-.121,4.646,4.646,0,0,1-3.389-.03,3.9,3.9,0,0,0-1.5-.075,13.438,13.438,0,0,1-4.195-.5,1.352,1.352,0,0,1-1.2-1.377,27.644,27.644,0,0,1,.823-6.393,5.278,5.278,0,0,0,.352-2.635,4.556,4.556,0,0,0,.355-2.446A2.308,2.308,0,0,1,3.451,36c.09-.119.169-.393.107-.459-.934-1,.035-1.9.195-2.8A12.325,12.325,0,0,0,4.2,30.066,8.37,8.37,0,0,1,4.416,28.6c.1-.74.237-1.479.281-2.222.062-1.066-.288-2.181.423-3.16.013-1.087.022-2.175.041-3.263.012-.656-.166-1.342.324-1.927a.723.723,0,0,0,.147-.464c-.084-1.589.525-3.1.518-4.676a29.691,29.691,0,0,1,.843-5.9c.3-1.538.532-3.09.822-4.8m2,31.232c.623.268,1.045.866,1.683.36.639.135,1.274.294,1.917.4.56.091,1.171-.148,1.758.308a4.792,4.792,0,0,0,2.648,3.764l2.481-.145,2.238-2.835c.767,0,1.374.7,2.023.256s1.081.224,1.644.2a16.686,16.686,0,0,1,1.854.115,2.455,2.455,0,0,1,.221.336,10.363,10.363,0,0,1,.465,1.412c.116.6.249,1.256.846,1.439.785.24,1.52.931,2.354.681,1.227-.369,2.73-.376,3.337-1.853.226-.548.73-.638,1.136-.906.433-.284.755-.032,1.148.11a3.491,3.491,0,0,0,2.279.053,9.762,9.762,0,0,1,.922-1.406,2.355,2.355,0,0,0,.651-1.566,3.842,3.842,0,0,1,.392-1.158,3.868,3.868,0,0,0,0-2.223,2.044,2.044,0,0,0-.636-1.036c-.541-.5-1.116-1.033-1.974-.734a4.085,4.085,0,0,0-2.412-.358,3.181,3.181,0,0,1-.8-.2,9.6,9.6,0,0,1,.484-4.806,17.017,17.017,0,0,0,.417-3.441,2.484,2.484,0,0,0-.936-1.955,4.037,4.037,0,0,0-2.23-1.025,46.269,46.269,0,0,0-4.937-.6,8.873,8.873,0,0,1-3.718-.318,1.4,1.4,0,0,0-.713.07,4.158,4.158,0,0,1-1.195.262,8.662,8.662,0,0,0-4.546.9,5.589,5.589,0,0,0-.909,3.836A8.386,8.386,0,0,0,17.85,23.1a3.543,3.543,0,0,1-.355,2.574h-4.73c-.7.412-1.291.722-1.836,1.1a1.642,1.642,0,0,0-.625.755,23.276,23.276,0,0,0-.9,3.335,6.426,6.426,0,0,0,.268,1.924c.026.164.073.325.142.628" fill="#fff"/>
      <path id="パス_24496" data-name="パス 24496" d="M8.729,2.683c1.106-.375,2.159-.054,3.076-.6a1.739,1.739,0,0,1,1.225-.011c.633.185,1.22.612,1.88.1a3.8,3.8,0,0,0,2.194.345c.668.035,1.338.015,2.007.03a32.154,32.154,0,0,1,5.721.355,29.121,29.121,0,0,0,4.263.148,18.82,18.82,0,0,1,4.7.361,4.486,4.486,0,0,0,3.456-.3,12.217,12.217,0,0,1,1.326.557,1.252,1.252,0,0,0,1.406.06.633.633,0,0,1,.477-.073c2.036.664,4.137.334,6.21.4a2.111,2.111,0,0,1,2.043,2.7,7.422,7.422,0,0,0-.305,1.692,9.815,9.815,0,0,1-.4,2.957c-.361.914.01,1.969-.467,2.931a4.146,4.146,0,0,0-.143,1.725,12.357,12.357,0,0,1-.413,4.448,2.6,2.6,0,0,0-.067,1c.032.726.146,1.453.13,2.179-.014.66-.22,1.32-.221,1.98a8.65,8.65,0,0,1-.341,2.443,14.219,14.219,0,0,0-.175,2.988,6.914,6.914,0,0,1-.354,2.943c-.454.9.035,1.938-.41,2.935a4.365,4.365,0,0,0-.416,2.618c.06.295-.238.713-.116.933a1.822,1.822,0,0,1-.157,2.1,1.677,1.677,0,0,0-.1,1.632,1.241,1.241,0,0,1-.128.948,6.7,6.7,0,0,0-.821,3.346,28.357,28.357,0,0,1-.616,3.543,3.46,3.46,0,0,1-.864.21c-2.595-.006-5.19-.039-7.785-.066-.335,0-.673-.052-1.005-.022a6.576,6.576,0,0,1-2.641.106c-.855-.247-1.861.057-2.741-.143-.974-.221-1.976.138-2.859-.167-.985-.34-1.928.151-2.9-.144-.494-.151-1.155.256-1.655.113a7,7,0,0,0-1.731-.141q-.877-.036-1.755-.029a9.229,9.229,0,0,1-2.718-.3,2.726,2.726,0,0,0-1.712-.121,4.646,4.646,0,0,1-3.389-.03,3.9,3.9,0,0,0-1.5-.075,13.442,13.442,0,0,1-4.195-.5,1.35,1.35,0,0,1-1.2-1.377,27.643,27.643,0,0,1,.822-6.393,5.275,5.275,0,0,0,.352-2.634,4.561,4.561,0,0,0,.356-2.447,2.3,2.3,0,0,1,.28-1.439c.09-.119.169-.392.107-.459-.933-1,.035-1.9.195-2.8a12.315,12.315,0,0,0,.444-2.678,8.37,8.37,0,0,1,.219-1.464c.1-.74.237-1.479.281-2.222.062-1.066-.288-2.181.423-3.16.013-1.087.022-2.175.041-3.263.012-.656-.166-1.342.324-1.927a.723.723,0,0,0,.147-.464c-.084-1.589.525-3.1.518-4.676a29.7,29.7,0,0,1,.843-5.9c.3-1.537.532-3.089.822-4.8m2,31.231c.623.268,1.045.866,1.683.36.639.136,1.274.3,1.917.4.561.09,1.171-.149,1.758.307a4.792,4.792,0,0,0,2.648,3.764l2.481-.145,2.238-2.835c.767,0,1.374.7,2.023.256s1.081.224,1.644.2a16.932,16.932,0,0,1,1.854.115,2.521,2.521,0,0,1,.221.336,10.408,10.408,0,0,1,.465,1.412c.116.6.249,1.256.846,1.44.785.239,1.52.93,2.354.68,1.227-.368,2.73-.375,3.337-1.853.226-.548.73-.638,1.137-.9.432-.284.754-.033,1.147.109a3.491,3.491,0,0,0,2.279.053,9.752,9.752,0,0,1,.922-1.4,2.355,2.355,0,0,0,.651-1.567,3.842,3.842,0,0,1,.392-1.158,3.868,3.868,0,0,0,0-2.223,2.044,2.044,0,0,0-.636-1.036c-.541-.5-1.116-1.033-1.974-.734a4.076,4.076,0,0,0-2.412-.357,3.27,3.27,0,0,1-.8-.2,9.609,9.609,0,0,1,.484-4.806,17.035,17.035,0,0,0,.417-3.442,2.486,2.486,0,0,0-.936-1.956,4.042,4.042,0,0,0-2.23-1.024,46.529,46.529,0,0,0-4.937-.6,8.856,8.856,0,0,1-3.718-.317,1.416,1.416,0,0,0-.713.07,4.185,4.185,0,0,1-1.2.262,8.657,8.657,0,0,0-4.545.9,5.593,5.593,0,0,0-.91,3.837,8.371,8.371,0,0,0,.141,1.743,3.543,3.543,0,0,1-.355,2.574h-4.73c-.7.412-1.291.722-1.836,1.1a1.637,1.637,0,0,0-.625.755,23.263,23.263,0,0,0-.9,3.334,6.426,6.426,0,0,0,.268,1.924c.026.165.073.325.142.628" fill="#a3cfff"/>
      <path id="パス_24497" data-name="パス 24497" d="M15.847,74.1a9.238,9.238,0,0,1,.261-4.136,21.646,21.646,0,0,0,.649-3.656c.191-1.055.473-2.09.615-3.16.121-.91-.183-1.975.748-2.67-.477-.735.193-1.41.117-2.129a9.1,9.1,0,0,1-.008-1.075c.431-.536.868-.419,1.272-.446,1.08-.072,2.159-.154,3.238-.239.078-.006.164-.114.226-.1,2.792.715,5.641.122,8.453.369.075.007.144.083.293.176a8.313,8.313,0,0,0-2.887,2.8c0,.464-.042,1.05.01,1.627a1.408,1.408,0,0,0,1.213,1.388c.4.08.772.353,1.172.4a3.188,3.188,0,0,0,1.722-.05c1.627-.9,3.56-.857,5.191-1.835a18.854,18.854,0,0,1,5.058,3.9,3.929,3.929,0,0,0,1.02.676,2.012,2.012,0,0,0,.439.243c.628.2,1.262.383,1.919.58a2.248,2.248,0,0,0,1.408-2.39,4.371,4.371,0,0,1,.254-2.694c-.632-.987.071-1.89.163-2.834.089-.909.093-1.825.133-2.719a1.43,1.43,0,0,1,1.65-.191c.469.16.89.452,1.35.644,1.3.545,3.419-.794,3.209-2.147-.224-1.442-.466-2.96-1.755-3.986-.519-.413-.978-.9-1.541-1.425l3.855-2.213a13.294,13.294,0,0,1,.462-1.51,1.436,1.436,0,0,0-.034-1.183c-.266-.691-.426-1.422-.653-2.128a1.653,1.653,0,0,1,.33-1.859c1.453-1.366,1.96-3.266,2.805-4.967a4.388,4.388,0,0,0,.227-1.951c-.019-1.14-.407-1.4-1.505-1.547a7.9,7.9,0,0,0-3.132.638.99.99,0,0,0-.568.465c-.648,1.332-1.862,2.343-2.193,3.86-.043.2-.273.359-.489.626a6.011,6.011,0,0,1-1.886-1.614c.391-2.048,1.032-4.036.815-6.136.464-.959.064-2.043.5-3.048a4.776,4.776,0,0,0,.455-2.674,3.861,3.861,0,0,1,.116-1.242,1.217,1.217,0,0,1,1.118-.848,9.3,9.3,0,0,1,1.232.143c.325.055.738.324.946.206,1.078-.61,2.128.14,3.133-.015a30.236,30.236,0,0,1,3.171.1c.581-.031,1.167.048,1.751.063a8.456,8.456,0,0,1,1.96.261,18.261,18.261,0,0,0,2.987.246,3.243,3.243,0,0,1,1.191.267,1.84,1.84,0,0,1,.951,2.513,5.772,5.772,0,0,0-.465,2.165c-.017.247.024.574-.115.723-1.1,1.183-.752,2.66-.845,4-.347.431-.8.776-.942,1.22-.264.852-.3,1.771-.517,2.642-.29,1.173-.193,2.432-.8,3.535a1.612,1.612,0,0,0-.193.712,21.323,21.323,0,0,1-1,5.08,12.391,12.391,0,0,0-.566,5.306c-.532.7-1.145,1.221-1.01,2.085-.816,2.349-.9,4.881-1.829,7.207-.273.684-.074,1.456-.329,2.2-.4,1.173-.777,2.344-1.25,3.5a28.473,28.473,0,0,0-.621,2.836,8.29,8.29,0,0,0-.536,2.67,1.427,1.427,0,0,1-.047.733,7.578,7.578,0,0,0-1.042,3.524c-.611.772-.237,1.782-.548,2.728a8.349,8.349,0,0,1-1.537.042,6.169,6.169,0,0,0-2.606-.126,1.183,1.183,0,0,1-.89-.3,2.5,2.5,0,0,0-1.894-.479,6.683,6.683,0,0,1-2.636.044,19.528,19.528,0,0,0-2.491-.109c-1.55-.272-3.128-.376-4.658-.691a19.222,19.222,0,0,0-2.205-.308,5.243,5.243,0,0,1-2.208-.324,1.4,1.4,0,0,0-.73-.133c-1.88.124-3.723-.327-5.6-.332-.981,0-1.96-.165-2.942-.217s-2.009.195-2.953-.357a.875.875,0,0,0-.73-.024c-1.056.574-2.069.157-3.137.057a9.348,9.348,0,0,1-2.557-.566,5.558,5.558,0,0,1-.709-.414M66.37,23.325a1.2,1.2,0,0,0-.808,1.123c-.036.817.268,1.682-.342,2.418-.169,1.887-1.185,3.594-1.172,5.53a3.092,3.092,0,0,1-.468,1.117,10.793,10.793,0,0,0-.513,1.1,16.158,16.158,0,0,1-.714,2.368c-.447.878-.02,1.873-.473,2.668s-.194,1.637-.315,2.446a4.757,4.757,0,0,1-.144.974c-.705,1.858-.634,3.893-1.336,5.749a7.366,7.366,0,0,1-1.033,4.048,3.974,3.974,0,0,0-.449,1.417c-.177,1.744-1.08,3.292-1.3,5.03a25.136,25.136,0,0,1-.65,2.632c-.383,1.606-.8,3.2-1.11,4.824-.355,1.872-.966,3.668-1.492,5.489a2.346,2.346,0,0,1-.379.586c-.886,0-1.724.043-2.557-.011a6.217,6.217,0,0,0-2.657.018,1.062,1.062,0,0,1-.728-.105,5.28,5.28,0,0,0-2.214-.312c-2.075-.08-4.173.163-6.209-.444-.9.473-1.959-.534-2.845.305a.731.731,0,0,1-.7-.011c-.744-.6-1.6-.36-2.42-.414a7,7,0,0,1-1.991-.106,6.246,6.246,0,0,0-2.7-.354,26.671,26.671,0,0,1-5.9-.752,21.519,21.519,0,0,0-3.381-.192,1.686,1.686,0,0,0-.849.433.562.562,0,0,0,.111.855,1.2,1.2,0,0,0,.478.124c.66-.116,1.252.512,1.925.159a3.89,3.89,0,0,0,1.944.368c.74.008,1.386.634,2.184.3.659-.275,1.263.174,1.908.222a48.964,48.964,0,0,0,5.7.446,3.19,3.19,0,0,1,.751.03,3.217,3.217,0,0,0,2.143-.021c.25-.118.641.023.957.094a8.471,8.471,0,0,0,1.175.331c.832.059,1.671.028,2.508.04.753.011,1.506.03,2.259.049a6.786,6.786,0,0,1,2.482.128c.916.418,1.615-.189,2.413-.1.331.035.716-.091.994.036,1.928.883,3.956.307,5.932.448a1.037,1.037,0,0,0,.985-.664,14.284,14.284,0,0,0,1.1-4.06,8.737,8.737,0,0,1,.706-2.872,2.105,2.105,0,0,0,.239-.949,16.643,16.643,0,0,1,.82-3.871c.335-1.349.278-2.835,1.188-4.024.088-.116.044-.326.084-.487a20.332,20.332,0,0,1,.614-2.4,9.929,9.929,0,0,0,.858-3.616,5.074,5.074,0,0,1,.388-1.437c.293-.951.525-1.918.77-2.879a10.907,10.907,0,0,1,.318-1.878,2.354,2.354,0,0,0,.185-2.132,9.48,9.48,0,0,0,.915-3.569c.64-.881.3-1.969.6-2.89a8.893,8.893,0,0,0,.355-3.2A2.309,2.309,0,0,1,65.1,31.9a3.843,3.843,0,0,0,.85-1.756,12.852,12.852,0,0,1,.876-2.573c.311-.929.11-1.98.679-2.882.229-.364-.087-.79-.679-1.142-.144-.086-.3-.147-.455-.221" fill="#fff"/>
      <path id="パス_24498" data-name="パス 24498" d="M20.3,70.475a21.508,21.508,0,0,1,3.38.192,26.686,26.686,0,0,0,5.9.752,6.244,6.244,0,0,1,2.7.354,7.044,7.044,0,0,0,1.991.106c.816.054,1.677-.182,2.42.414a.731.731,0,0,0,.7.011c.887-.839,1.944.167,2.845-.306,2.037.608,4.135.365,6.209.445a5.278,5.278,0,0,1,2.214.312,1.056,1.056,0,0,0,.728.1,6.254,6.254,0,0,1,2.658-.018c.832.055,1.671.012,2.556.012a2.334,2.334,0,0,0,.379-.587c.526-1.821,1.138-3.616,1.492-5.488.307-1.62.727-3.219,1.11-4.824a24.6,24.6,0,0,0,.65-2.633c.216-1.737,1.118-3.285,1.3-5.029a3.974,3.974,0,0,1,.449-1.417,7.376,7.376,0,0,0,1.033-4.048c.7-1.856.631-3.891,1.335-5.749A4.757,4.757,0,0,0,62.5,42.1c.121-.81-.146-1.638.314-2.446s.027-1.79.473-2.668A16.037,16.037,0,0,0,64,34.622a10.593,10.593,0,0,1,.514-1.1A3.114,3.114,0,0,0,64.98,32.4c-.013-1.936,1-3.643,1.173-5.53.546-.66.359-1.425.34-2.164-.076.265-.151.531-.23.8a.085.085,0,0,1,0,.125c-.026.03-.052.059-.079.088-.068.076-.175-.006-.158-.092.1-.513.265-1.017.416-1.517s.3-.97.451-1.454a9.275,9.275,0,0,1-2.106-.2,8.462,8.462,0,0,0-1.96-.26c-.585-.015-1.171-.094-1.752-.063a30.228,30.228,0,0,0-3.171-.1c-1.005.155-2.055-.595-3.132.015-.208.118-.622-.151-.946-.206a9.155,9.155,0,0,0-1.232-.144,1.219,1.219,0,0,0-1.119.849,3.857,3.857,0,0,0-.115,1.242,4.785,4.785,0,0,1-.456,2.674c-.439,1-.039,2.088-.5,3.048.216,2.1-.424,4.088-.816,6.136a6,6,0,0,0,1.887,1.614c.215-.267.445-.426.489-.626.33-1.517,1.544-2.528,2.193-3.86a.983.983,0,0,1,.568-.465,7.9,7.9,0,0,1,3.131-.639c1.1.146,1.486.408,1.5,1.548a4.4,4.4,0,0,1-.226,1.951c-.846,1.7-1.353,3.6-2.806,4.967A1.656,1.656,0,0,0,56,41.991c.228.706.388,1.437.654,2.128a1.436,1.436,0,0,1,.033,1.183,13.5,13.5,0,0,0-.462,1.51l-3.854,2.213c.562.525,1.021,1.012,1.54,1.425,1.29,1.026,1.531,2.544,1.755,3.986.211,1.352-1.91,2.692-3.209,2.147-.459-.192-.881-.485-1.349-.644a1.432,1.432,0,0,0-1.65.19c-.04.895-.044,1.811-.133,2.719-.093.945-.8,1.848-.164,2.835a4.378,4.378,0,0,0-.254,2.694,2.246,2.246,0,0,1-1.407,2.39c-.657-.2-1.291-.379-1.92-.58a2.059,2.059,0,0,1-.439-.243,3.946,3.946,0,0,1-1.02-.676,18.85,18.85,0,0,0-5.057-3.9c-1.631.978-3.565.937-5.192,1.835a3.184,3.184,0,0,1-1.721.049c-.4-.044-.771-.317-1.172-.4a1.408,1.408,0,0,1-1.213-1.388c-.052-.577-.011-1.163-.011-1.628a8.33,8.33,0,0,1,2.888-2.8c-.151-.093-.219-.17-.294-.176-2.812-.248-5.66.346-8.453-.369-.062-.016-.147.092-.225.1-1.079.085-2.158.167-3.238.239-.405.027-.842-.09-1.273.446a9.1,9.1,0,0,0,.008,1.075c.076.719-.593,1.394-.117,2.129-.93.695-.627,1.76-.748,2.67-.142,1.07-.424,2.105-.614,3.16a21.547,21.547,0,0,1-.65,3.656,5.508,5.508,0,0,0-.206.694c.894.114,1.832-.012,2.7.183a1.467,1.467,0,0,1,.767-.371" fill="#ffe680"/>
      <path id="パス_24499" data-name="パス 24499" d="M2.787,54.094c-.031-.51-.061-.993-.088-1.433.179-.15.3-.342.425-.343,2.507-.012,5.014,0,7.522,0,1.251.655,2.6.431,3.918.417,1.118-.771,2.208.145,3.334.088a6.177,6.177,0,0,1,3.2.314c.731.36,1.6-.417,2.383.1,2.092.026,4.183.068,6.274.066a5.315,5.315,0,0,0,1.2-.275c.157-.038.362-.17.46-.113,1.253.727,2.62.263,3.927.388.739.07,1.506-.145,2.207.278a.575.575,0,0,0,.474.064c.951-.544,1.954-.005,2.879-.162.768-.13,1.249.268,1.912.436.178.674.363,1.373.587,2.223a12.7,12.7,0,0,0-1.756-.159,10.493,10.493,0,0,0-1.449.3.846.846,0,0,1-.5-.008c-1.415-.691-2.937-.418-4.418-.522a7.235,7.235,0,0,1-.959-.241,3.475,3.475,0,0,0-.977-.152,6.285,6.285,0,0,1-2.633.068,10.983,10.983,0,0,0-2.993-.174c-.918-.018-1.846.093-2.752-.009-.768-.086-1.421.379-2.166.27s-1.481-.234-2.226-.282c-.666-.042-1.339.006-2.008.024a9.467,9.467,0,0,1-4.2-.348.906.906,0,0,0-.734,0,2.31,2.31,0,0,1-2.372-.023,2.855,2.855,0,0,0-1-.04,31.38,31.38,0,0,1-7.473-.757" fill="#fff"/>
      <path id="パス_24500" data-name="パス 24500" d="M56.315,32.287l.591,1.338a15.464,15.464,0,0,1-3.5,6.508,1.335,1.335,0,0,0-.076,2.013,2.752,2.752,0,0,1,.689,2.053c0,.416.023.834,0,1.25a1.3,1.3,0,0,1-1.019,1.261,15.64,15.64,0,0,0-3.339.892,9.712,9.712,0,0,1-2,.16,4.01,4.01,0,0,1-.015-2.525,3.423,3.423,0,0,0,.244-1.7,6.3,6.3,0,0,1,.448-3.557,7.506,7.506,0,0,0,.243-1.477,1.931,1.931,0,0,1,1.882-.1,1.618,1.618,0,0,0,2.375-.986,6.2,6.2,0,0,0,.579-1.63,2.492,2.492,0,0,1,.947-1.683,1.811,1.811,0,0,0,.592-.781c.2-.694.853-.725,1.355-1.042" fill="#fff"/>
      <path id="パス_24501" data-name="パス 24501" d="M39.123,59.889a5.406,5.406,0,0,1-1.482.423,7.1,7.1,0,0,0-3.356.776,9.607,9.607,0,0,1-2.181.4c-1.836.383-1.834.394-1.315-1.3.049-.16.088-.322.138-.507a6.21,6.21,0,0,1,3.6-1.473c.939-.577,2.092-.347,3.082-.839a4.131,4.131,0,0,1,1.729-.087,4.317,4.317,0,0,1,1.49.1,10.089,10.089,0,0,0,2.69.394,15.853,15.853,0,0,1,2.005.485l1.118-.837c.108.1.29.195.291.289a4.358,4.358,0,0,1-.256,2.193,2.366,2.366,0,0,0,.061,2.38c.608,1.029-.261,1.695-.606,2.479a.72.72,0,0,1-.671.087c-1.4-1.124-3.211-1.67-4.287-3.266a9.843,9.843,0,0,0-2.048-1.69" fill="#fff"/>
      <path id="パス_24502" data-name="パス 24502" d="M44.575,44.53a11.229,11.229,0,0,1,.561-1.125,1.43,1.43,0,0,0,.13-1.425.867.867,0,0,1,.014-.928,5.614,5.614,0,0,0,.707-3.117,5.56,5.56,0,0,1,.373-2.689,1.206,1.206,0,0,0,.1-.489,9.817,9.817,0,0,1,.356-3.188c.389-.974-.022-2.153.479-3.179.086-.178-.068-.471-.109-.711-.056-.324-.259-.722-.141-.959.774-1.544.075-3.329.849-4.858.033-1.335.074-2.67.094-4a4.514,4.514,0,0,1,.32-2.44.421.421,0,0,0,.07-.235c-.247-2.109.557-4.111.614-6.184a14.734,14.734,0,0,1,.265-1.7c.065-.453-.268-.949-.33-1.438a2.93,2.93,0,0,1,.148-.971c.063-.276.636-.384.843-.14s.49.526.514.81a10.76,10.76,0,0,0,.434,3.449c-.585.893-.159,1.979-.516,2.876a9.422,9.422,0,0,0-.379,1.94c-.1.542-.5,1.081-.053,1.643-.694,1.416-.239,2.949-.451,4.408-.19,1.3-.509,2.573-.739,3.865a5.632,5.632,0,0,0-.218.7,17.473,17.473,0,0,1-.089,2.991,17.869,17.869,0,0,0-.5,2.929,3.835,3.835,0,0,1-.331,2.186c-.042.062-.024.162-.042.244-.229,1.1.414,2.216-.263,3.356-.586.989-.126,2.315-.725,3.37a3.928,3.928,0,0,1-.076,2.391,12.766,12.766,0,0,0-.491,4.155,15.326,15.326,0,0,1-.388,3.2,22.085,22.085,0,0,0-.183,3.99c-.012.314-.061.626-.124,1.248L43.95,53.08c.3-.732.039-1.412.155-2,.128-.645.283-1.286.35-1.949a10.279,10.279,0,0,1,.285-1.449,4.64,4.64,0,0,0-.165-3.155" fill="#fff"/>
      <path id="パス_24503" data-name="パス 24503" d="M52.729,55.336c-1.046-.391-1.967-.728-2.881-1.08a4.381,4.381,0,0,0-.9-.4,2.676,2.676,0,0,0-1.208.1c-.237.086-.379.433-.573.676-.491-1.774.161-3.42.371-5.1a5.56,5.56,0,0,1,3.6,1.29c1.528,1.216,2.379,1.737,1.6,4.506" fill="#fff"/>
      <path id="パス_24504" data-name="パス 24504" d="M56.982,32.6l.591,1.338a15.453,15.453,0,0,1-3.5,6.508A1.335,1.335,0,0,0,54,42.456a2.752,2.752,0,0,1,.689,2.053c0,.416.023.834,0,1.25a1.3,1.3,0,0,1-1.019,1.261,15.7,15.7,0,0,0-3.339.892,9.712,9.712,0,0,1-2,.16,4.01,4.01,0,0,1-.015-2.525,3.423,3.423,0,0,0,.244-1.7,6.3,6.3,0,0,1,.448-3.557,7.506,7.506,0,0,0,.243-1.477,1.931,1.931,0,0,1,1.882-.1,1.619,1.619,0,0,0,2.375-.986,6.183,6.183,0,0,0,.579-1.63,2.492,2.492,0,0,1,.947-1.683,1.811,1.811,0,0,0,.592-.781c.2-.694.853-.725,1.355-1.042" fill="#242b3c"/>
      <path id="パス_24505" data-name="パス 24505" d="M39.79,60.2a5.4,5.4,0,0,1-1.482.423,7.1,7.1,0,0,0-3.356.776,9.552,9.552,0,0,1-2.181.4c-1.836.383-1.834.394-1.314-1.3.048-.16.087-.322.138-.507a6.2,6.2,0,0,1,3.6-1.473c.939-.577,2.092-.347,3.082-.839A4.131,4.131,0,0,1,40,57.587a4.317,4.317,0,0,1,1.49.1,10.1,10.1,0,0,0,2.69.394,15.9,15.9,0,0,1,2.005.485l1.118-.837c.108.1.29.195.291.289a4.358,4.358,0,0,1-.256,2.193,2.366,2.366,0,0,0,.061,2.38c.608,1.029-.26,1.7-.606,2.479a.715.715,0,0,1-.671.087c-1.4-1.124-3.211-1.669-4.286-3.265A9.848,9.848,0,0,0,39.79,60.2" fill="#242b3c"/>
      <path id="パス_24506" data-name="パス 24506" d="M53.4,55.646c-1.046-.391-1.967-.728-2.881-1.08a4.381,4.381,0,0,0-.9-.4,2.675,2.675,0,0,0-1.208.1c-.237.086-.379.433-.573.676-.492-1.774.161-3.42.371-5.1a5.56,5.56,0,0,1,3.6,1.29c1.528,1.216,2.379,1.737,1.6,4.506" fill="#242b3c"/>
      <path id="パス_24507" data-name="パス 24507" d="M35.325,19.884a17.506,17.506,0,0,0,.022,2.45,8.072,8.072,0,0,1-.526,2.918,6.258,6.258,0,0,1-.595,1.625,2.31,2.31,0,0,0,.4,2.649c.855.327,1.876.013,2.855.371.853.312,1.92-.065,2.768.6.409.785.075,1.63.118,2.45a2.111,2.111,0,0,1-.359.893c-.287.58-.591,1.152-.888,1.728a5.014,5.014,0,0,1-3.894-.661c-.1-.307-.217-.7-.362-1.085a2.145,2.145,0,0,0-2.5-1.543c-.316.035-.652.224-.938.159a1.922,1.922,0,0,0-2.343,1.288c-.141.294-.271.593-.458,1a9.666,9.666,0,0,0-3.156-.556,6.991,6.991,0,0,1-1.972-.655c-.181-.5-.394-1.11-.628-1.714a2.412,2.412,0,0,0-2.055-1.586c-.653-.1-1.3-.231-2.158-.386a2.637,2.637,0,0,0-2.074,1.611,4.777,4.777,0,0,1-1.01,1.221c-1.151,0-2.152.02-3.152-.007a1.24,1.24,0,0,1-1.235-1.285c-.016-.25-.019-.5-.023-.752-.023-1.591-.022-1.591,1.465-2.942l5.439-.513a1.224,1.224,0,0,0,1.246-1.285c0-.584-.084-1.168-.088-1.752-.016-1.987-.131-3.988.787-5.935,1.163-.212,2.448.2,3.61-.381,1.616.661,3.323.068,4.952.346,2.257.384,4.634.364,6.75,1.73M25.863,22.12a3.952,3.952,0,0,0-2.356-1.834,1.212,1.212,0,0,0-1.716,1.164,5.216,5.216,0,0,1-.31,2.427,3.132,3.132,0,0,0-.068,2.115c.431.6.8,1.144,1.2,1.664a1.134,1.134,0,0,0,1.74.163,2.694,2.694,0,0,0,.981-1.367,15.675,15.675,0,0,0,.525-4.332m7.417,4.386c.054-1.037.033-1.8.147-2.534a2.642,2.642,0,0,0-.964-2.441,1.162,1.162,0,0,0-1.572-.15,6.346,6.346,0,0,0-1.672,2.431,3.633,3.633,0,0,0,.211,3.567,1.578,1.578,0,0,0,2.368.487c.522-.41.983-.9,1.482-1.36" fill="#fff"/>
      <path id="パス_24508" data-name="パス 24508" d="M17.229,34.144a4.988,4.988,0,0,0,.055-.618,1.4,1.4,0,0,1,.755-1.2,6.116,6.116,0,0,1,1.1-.549,1.091,1.091,0,0,1,.727-.027,8.975,8.975,0,0,1,1.511.806.96.96,0,0,1,.346,1.106,4.062,4.062,0,0,1-2.461,2.886A1.379,1.379,0,0,1,17.234,35.5c-.033-.327,0-.659,0-1.358" fill="#fff"/>
      <path id="パス_24509" data-name="パス 24509" d="M31.828,33.746a3.4,3.4,0,0,1,2.253,1.479,3.213,3.213,0,0,1-1.312,2.822,10.075,10.075,0,0,0-1.275-.274,1.892,1.892,0,0,1-1.353-.993,1.445,1.445,0,0,1,.008-1.631,4,4,0,0,1,1.679-1.4" fill="#fff"/>
      <path id="パス_24510" data-name="パス 24510" d="M23.533,25.978c-.4-.54-.218-1.135-.246-1.693a9.174,9.174,0,0,1,.069-1.722c.02-.139.367-.342.537-.319.154.02.356.294.388.481a2.336,2.336,0,0,1-.033.978c-.2.76-.469,1.5-.715,2.275" fill="#fff"/>
      <path id="パス_24511" data-name="パス 24511" d="M30.98,26.138c-.247-1.083-.447-2.066.674-2.971.292,1.165.531,2.155-.674,2.971" fill="#fff"/>
      <path id="パス_24512" data-name="パス 24512" d="M6.761.9A4.278,4.278,0,0,1,11,.294a3.155,3.155,0,0,0,1.906,0c.5-.139,1.11.207,1.673.215,3.516.051,7.032.055,10.548.1a11.9,11.9,0,0,1,3.716.338,8.556,8.556,0,0,0,2.985.13,11.108,11.108,0,0,1,3.445.42c.83.222,1.684.8,2.594.155a.581.581,0,0,1,.49-.011c1.6.75,3.3.291,4.948.436.982.087,2-.252,2.937.349.147.094.463-.08.7-.126s.566-.21.7-.111a4.119,4.119,0,0,0,2.187.433,2.1,2.1,0,0,1,1.856,1.452,12.894,12.894,0,0,1,.56,1.644,2.641,2.641,0,0,1,.1,1.461,7.136,7.136,0,0,0-.341,2.949c0,.484-.214.966-.259,1.455a8.335,8.335,0,0,1-.012,1.407,1.373,1.373,0,0,0,.007,1.18c.043.072.115.18.09.228-.636,1.214-.094,2.638-.7,3.861a1.79,1.79,0,0,0-.03,1.669c.348.319.784.23,1.191.235a26.04,26.04,0,0,1,4.511.1,19.828,19.828,0,0,0,4.458.367c2.091.791,4.29.389,6.48.525l2.847,2.714a5.772,5.772,0,0,1-.746,3.726,1.575,1.575,0,0,0-.284.936A5.262,5.262,0,0,1,68.51,31.8a2.309,2.309,0,0,0-.417,1.629c.175,1.026-.657,1.867-.563,2.884a3.834,3.834,0,0,0-.491,2.4,12.867,12.867,0,0,1-.446,2.927,37.462,37.462,0,0,0-.655,3.907,14.328,14.328,0,0,1-1.832,5.6c.2.657.609,1.272.076,1.916-.278,2.4-1.145,4.661-1.61,7.013-.259,1.31-1,2.439-1.167,3.795A17.991,17.991,0,0,0,61,66.055a1,1,0,0,1-.086.489c-1,1.667-.964,3.7-1.93,5.374a1.427,1.427,0,0,0-.083,1.4,1.418,1.418,0,0,1,.013.5c.019.711-1.03,1.091-.525,2.013.345.63-.259,1.266-.4,1.907a21.855,21.855,0,0,1-.72,2.166,13.626,13.626,0,0,1-4.47-.325,2.539,2.539,0,0,0-.727-.155,16.878,16.878,0,0,1-3-.125,16,16,0,0,0-2.671-.476c-.814-.043-1.61-.367-2.426-.448a9.135,9.135,0,0,0-2.5.009c-.828.151-1.592-.517-2.4-.072-1.7-.578-3.46-.388-5.2-.469a5.586,5.586,0,0,1-.961-.216,4.494,4.494,0,0,0-1.2-.256,14.506,14.506,0,0,1-3.434-.211c-.954-.168-1.878.289-2.9-.117a9.519,9.519,0,0,0-2.733-.129,12.875,12.875,0,0,1-1.458-.291c-.233-.043-.53-.155-.7-.06-1.531.852-2.924-.22-4.384-.295-.2-.01-.436-.253-.588-.442-.464-.582-.9-1.19-1.325-1.769.152-1.038-.073-2.054.473-2.987a1.9,1.9,0,0,0,.055-.982c-.163-2.692.667-5.242,1.109-7.848.73-1,.279-2.247.663-3.337.091-.256,0-.658.261-.858.6-.459.122-.888.006-1.389a26.979,26.979,0,0,0-5.058-.375Q7.3,56.25,2.9,56.212a7.65,7.65,0,0,1-.992-.064c-.336-.047-.842-.561-.764-.883.3-1.235-.6-2.415-.127-3.643-.251-.412-.5-.824-.76-1.243.068-.6.611-1.141.014-1.837a1.907,1.907,0,0,1-.023-1.927,6.732,6.732,0,0,0,.4-2.2c.116-1.991.594-3.94.609-5.951.008-.966.513-1.9.526-2.927,0-.408.516-.81.808-1.231-.088-.6-.64-1.209-.083-1.862.083-1.163.192-2.326.241-3.49a20.285,20.285,0,0,1,.53-3.875c.12-.5.283-.9-.011-1.374a.57.57,0,0,1-.036-.487c.664-1.212.208-2.657.83-3.883a1.949,1.949,0,0,0,.047-.964c-.018-.23-.206-.462-.181-.677.162-1.4.378-2.784.546-4.179.208-1.722.9-3.375.718-5.154a2.026,2.026,0,0,1,.1-.989,19.042,19.042,0,0,0,.77-3.569c.227-.965.465-1.928.7-2.909M7.815,2.19c-.29,1.711-.52,3.263-.823,4.8a29.774,29.774,0,0,0-.843,5.9c.007,1.572-.6,3.086-.518,4.676a.721.721,0,0,1-.146.463c-.49.585-.313,1.271-.324,1.928-.02,1.087-.028,2.175-.042,3.263-.71.978-.361,2.093-.423,3.159-.043.744-.177,1.483-.281,2.222A8.494,8.494,0,0,0,4.2,30.066a12.324,12.324,0,0,1-.443,2.678c-.16.9-1.129,1.8-.195,2.8.062.067-.017.341-.108.46a2.3,2.3,0,0,0-.28,1.439,4.562,4.562,0,0,1-.355,2.445,5.289,5.289,0,0,1-.352,2.635,27.644,27.644,0,0,0-.823,6.393,1.35,1.35,0,0,0,1.2,1.377,13.383,13.383,0,0,0,4.195.5,3.9,3.9,0,0,1,1.5.075,4.636,4.636,0,0,0,3.389.03,2.727,2.727,0,0,1,1.712.121,9.223,9.223,0,0,0,2.717.3q.878-.008,1.755.03a7,7,0,0,1,1.731.14c.5.144,1.161-.264,1.655-.113.969.295,1.912-.195,2.9.144.883.306,1.885-.054,2.859.167.88.2,1.886-.1,2.741.144a6.581,6.581,0,0,0,2.642-.107,9.924,9.924,0,0,1,1,.023c2.6.026,5.19.059,7.785.066a3.523,3.523,0,0,0,.865-.211,28.542,28.542,0,0,0,.616-3.543,6.691,6.691,0,0,1,.821-3.346,1.244,1.244,0,0,0,.128-.948,1.677,1.677,0,0,1,.094-1.632,1.822,1.822,0,0,0,.157-2.1c-.122-.219.176-.638.116-.932a4.372,4.372,0,0,1,.416-2.618c.445-1-.044-2.04.411-2.936A6.925,6.925,0,0,0,45.4,30.6a14.1,14.1,0,0,1,.175-2.989,8.606,8.606,0,0,0,.34-2.442c0-.66.208-1.319.222-1.981.015-.725-.1-1.451-.13-2.178a2.6,2.6,0,0,1,.067-1,12.376,12.376,0,0,0,.413-4.448,4.16,4.16,0,0,1,.142-1.725c.478-.962.106-2.016.467-2.931a9.813,9.813,0,0,0,.4-2.956A7.431,7.431,0,0,1,47.8,6.258a2.111,2.111,0,0,0-2.044-2.7c-2.072-.063-4.173.267-6.21-.4a.643.643,0,0,0-.477.074,1.252,1.252,0,0,1-1.4-.06A12.035,12.035,0,0,0,36.34,2.62a4.486,4.486,0,0,1-3.456.3,18.77,18.77,0,0,0-4.7-.361,29.266,29.266,0,0,1-4.263-.148,32.144,32.144,0,0,0-5.72-.356c-.669-.014-1.34.006-2.007-.029a3.8,3.8,0,0,1-2.2-.346c-.659.516-1.246.09-1.879-.1a1.744,1.744,0,0,0-1.225.012c-.918.543-1.971.223-3.076.6M15.846,74.1a5.4,5.4,0,0,0,.71.414,9.327,9.327,0,0,0,2.558.566c1.067.1,2.079.517,3.136-.057a.874.874,0,0,1,.731.025c.943.552,1.961.3,2.953.356s1.961.214,2.941.217c1.874.006,3.718.456,5.6.332a1.4,1.4,0,0,1,.73.133,5.23,5.23,0,0,0,2.208.324,19.641,19.641,0,0,1,2.205.308c1.53.315,3.108.419,4.658.691a19.729,19.729,0,0,1,2.492.109,6.659,6.659,0,0,0,2.635-.044,2.5,2.5,0,0,1,1.894.479,1.191,1.191,0,0,0,.89.3,6.158,6.158,0,0,1,2.607.126,8.257,8.257,0,0,0,1.536-.043c.311-.945-.062-1.955.548-2.727a7.575,7.575,0,0,1,1.043-3.525,1.424,1.424,0,0,0,.047-.732,8.315,8.315,0,0,1,.535-2.67,28.075,28.075,0,0,1,.622-2.836c.472-1.153.849-2.324,1.25-3.5.254-.746.055-1.519.328-2.2.927-2.326,1.014-4.857,1.829-7.206-.135-.865.478-1.383,1.01-2.085a12.405,12.405,0,0,1,.566-5.306,21.382,21.382,0,0,0,1-5.081,1.611,1.611,0,0,1,.192-.712c.61-1.1.514-2.361.8-3.534.215-.871.253-1.791.518-2.643.138-.444.6-.789.941-1.22.093-1.34-.259-2.819.846-4,.138-.148.1-.476.114-.722a5.769,5.769,0,0,1,.466-2.165,1.843,1.843,0,0,0-.951-2.514,3.247,3.247,0,0,0-1.191-.267,18.264,18.264,0,0,1-2.988-.246,8.34,8.34,0,0,0-1.959-.26c-.585-.016-1.171-.095-1.752-.063a29.694,29.694,0,0,0-3.171-.1c-1.005.155-2.055-.595-3.132.015-.208.118-.622-.152-.946-.207a9.153,9.153,0,0,0-1.232-.143,1.22,1.22,0,0,0-1.119.848,3.861,3.861,0,0,0-.115,1.243,4.787,4.787,0,0,1-.456,2.674c-.439,1-.039,2.088-.5,3.048.216,2.1-.424,4.087-.816,6.136a6.03,6.03,0,0,0,1.887,1.614c.215-.267.445-.427.489-.627.33-1.517,1.544-2.527,2.193-3.86a.987.987,0,0,1,.568-.465,7.9,7.9,0,0,1,3.131-.638c1.1.146,1.486.408,1.505,1.547a4.405,4.405,0,0,1-.226,1.952c-.846,1.7-1.353,3.6-2.806,4.967a1.655,1.655,0,0,0-.33,1.858c.228.707.388,1.438.654,2.128a1.439,1.439,0,0,1,.033,1.184,13.489,13.489,0,0,0-.462,1.509l-3.855,2.214c.563.524,1.022,1.011,1.541,1.424,1.29,1.026,1.531,2.544,1.755,3.986.211,1.353-1.91,2.692-3.209,2.148-.459-.193-.881-.485-1.349-.644a1.43,1.43,0,0,0-1.65.19c-.04.894-.044,1.811-.133,2.719-.093.944-.8,1.848-.164,2.835a4.377,4.377,0,0,0-.254,2.694,2.245,2.245,0,0,1-1.408,2.389c-.656-.2-1.291-.379-1.919-.58a2.055,2.055,0,0,1-.439-.242,4,4,0,0,1-1.02-.676,18.849,18.849,0,0,0-5.057-3.9c-1.631.979-3.565.938-5.192,1.836a3.188,3.188,0,0,1-1.722.049c-.4-.044-.77-.317-1.171-.4a1.406,1.406,0,0,1-1.213-1.388c-.052-.577-.011-1.162-.011-1.627a8.325,8.325,0,0,1,2.888-2.8c-.151-.092-.219-.169-.294-.176-2.812-.247-5.66.347-8.453-.369-.062-.016-.147.093-.225.1-1.079.085-2.158.167-3.238.239-.405.027-.842-.09-1.273.445a9.12,9.12,0,0,0,.008,1.076c.076.719-.593,1.393-.117,2.129-.93.694-.627,1.759-.748,2.669-.142,1.071-.424,2.1-.615,3.161a21.419,21.419,0,0,1-.649,3.655,9.254,9.254,0,0,0-.262,4.136M2.781,54.089a31.331,31.331,0,0,0,7.473.758,2.832,2.832,0,0,1,1,.039,2.307,2.307,0,0,0,2.372.023.91.91,0,0,1,.734,0,9.452,9.452,0,0,0,4.2.348c.669-.017,1.342-.066,2.008-.023.745.047,1.486.174,2.226.282s1.4-.356,2.166-.27c.906.1,1.834-.009,2.752.008a11.023,11.023,0,0,1,2.993.175,6.3,6.3,0,0,0,2.633-.068,3.475,3.475,0,0,1,.977.152,7.23,7.23,0,0,0,.959.24c1.481.1,3-.168,4.418.523a.863.863,0,0,0,.5.008,10.352,10.352,0,0,1,1.449-.3,13.015,13.015,0,0,1,1.756.159c-.224-.85-.409-1.549-.587-2.223-.663-.167-1.143-.566-1.912-.435-.925.156-1.928-.383-2.879.161a.571.571,0,0,1-.474-.064c-.7-.423-1.468-.207-2.207-.278-1.307-.125-2.674.339-3.927-.388-.1-.056-.3.075-.46.114a5.367,5.367,0,0,1-1.2.274c-2.091,0-4.182-.039-6.273-.066-.782-.519-1.653.258-2.384-.1a6.177,6.177,0,0,0-3.2-.314c-1.126.058-2.216-.858-3.334-.088-1.323.015-2.667.238-3.919-.417-2.507-.005-5.014-.015-7.521,0-.124,0-.246.192-.425.342.027.441.057.923.088,1.433M56.309,32.282c-.5.317-1.151.348-1.355,1.042a1.811,1.811,0,0,1-.592.781,2.492,2.492,0,0,0-.947,1.683,6.2,6.2,0,0,1-.579,1.63,1.618,1.618,0,0,1-2.375.986,1.929,1.929,0,0,0-1.882.1,7.506,7.506,0,0,1-.243,1.477,6.3,6.3,0,0,0-.448,3.557,3.423,3.423,0,0,1-.244,1.7,4.01,4.01,0,0,0,.015,2.525,9.7,9.7,0,0,0,2-.16A15.665,15.665,0,0,1,53,46.705a1.3,1.3,0,0,0,1.019-1.261c.02-.416,0-.834,0-1.25a2.752,2.752,0,0,0-.689-2.053,1.336,1.336,0,0,1,.076-2.014,15.454,15.454,0,0,0,3.5-6.507c-.192-.433-.389-.881-.591-1.338m-17.192,27.6a9.843,9.843,0,0,1,2.048,1.69c1.076,1.6,2.89,2.142,4.287,3.266a.721.721,0,0,0,.671-.087c.345-.784,1.214-1.45.606-2.479a2.367,2.367,0,0,1-.062-2.381,4.355,4.355,0,0,0,.257-2.192c0-.1-.183-.187-.291-.289l-1.119.837a15.813,15.813,0,0,0-2.005-.485,10.136,10.136,0,0,1-2.69-.394,4.287,4.287,0,0,0-1.489-.1,4.13,4.13,0,0,0-1.729.087c-.99.492-2.143.262-3.082.839a6.2,6.2,0,0,0-3.6,1.473c-.05.185-.089.347-.138.506-.519,1.7-.522,1.686,1.315,1.3a9.562,9.562,0,0,0,2.181-.4,7.1,7.1,0,0,1,3.356-.776,5.406,5.406,0,0,0,1.482-.423m5.451-15.36a4.631,4.631,0,0,1,.167,3.156,9.845,9.845,0,0,0-.285,1.449c-.069.663-.223,1.3-.35,1.948-.116.586.141,1.266-.157,2L45.288,54.5c.063-.621.112-.934.123-1.247a22.1,22.1,0,0,1,.184-3.991,15.452,15.452,0,0,0,.388-3.2,12.79,12.79,0,0,1,.49-4.155,3.914,3.914,0,0,0,.075-2.391c.6-1.056.141-2.382.727-3.371.676-1.14.033-2.256.262-3.356.017-.081,0-.182.043-.244a3.832,3.832,0,0,0,.329-2.185,18.117,18.117,0,0,1,.5-2.93A17.47,17.47,0,0,0,48.5,24.44a5.811,5.811,0,0,1,.219-.7c.229-1.292.548-2.57.738-3.865.213-1.459-.244-2.991.451-4.408-.442-.562-.043-1.1.054-1.643a9.269,9.269,0,0,1,.379-1.939c.357-.9-.069-1.983.515-2.877a10.814,10.814,0,0,1-.435-3.449c-.023-.284-.306-.565-.513-.81s-.779-.136-.842.141a2.927,2.927,0,0,0-.15.97c.063.489.4.986.332,1.439a14.3,14.3,0,0,0-.265,1.7c-.058,2.073-.862,4.076-.615,6.184a.411.411,0,0,1-.07.235,4.535,4.535,0,0,0-.321,2.44c-.02,1.335-.061,2.671-.093,4.006-.775,1.528-.075,3.314-.848,4.857-.119.237.085.636.14.959.042.24.2.534.109.711-.5,1.026-.089,2.206-.479,3.179a9.849,9.849,0,0,0-.357,3.189,1.2,1.2,0,0,1-.1.489,5.553,5.553,0,0,0-.371,2.688,5.632,5.632,0,0,1-.708,3.117.872.872,0,0,0-.014.929,1.431,1.431,0,0,1-.129,1.424,11.24,11.24,0,0,0-.563,1.125m8.155,10.806c.784-2.769-.067-3.29-1.6-4.506a5.56,5.56,0,0,0-3.6-1.29c-.21,1.682-.862,3.329-.371,5.1.194-.243.336-.59.573-.676a2.675,2.675,0,0,1,1.208-.1,4.381,4.381,0,0,1,.9.4c.914.352,1.835.689,2.881,1.08" fill="#242b3c"/>
      <path id="パス_24513" data-name="パス 24513" d="M9.816,33.422c-.07-.3-.116-.464-.142-.628a6.426,6.426,0,0,1-.268-1.924,23.276,23.276,0,0,1,.9-3.335,1.636,1.636,0,0,1,.625-.755c.545-.379,1.138-.689,1.836-1.1H17.5A3.543,3.543,0,0,0,17.85,23.1a8.454,8.454,0,0,1-.142-1.744,5.59,5.59,0,0,1,.91-3.836,8.66,8.66,0,0,1,4.546-.9,4.145,4.145,0,0,0,1.194-.262,1.406,1.406,0,0,1,.713-.07,8.875,8.875,0,0,0,3.718.318,46.256,46.256,0,0,1,4.938.6,4.04,4.04,0,0,1,2.23,1.025,2.484,2.484,0,0,1,.936,1.955,17.019,17.019,0,0,1-.418,3.441,9.611,9.611,0,0,0-.483,4.806,3.184,3.184,0,0,0,.8.2A4.087,4.087,0,0,1,39.2,29c.858-.3,1.433.237,1.974.734a2.044,2.044,0,0,1,.636,1.036,3.877,3.877,0,0,1,0,2.223,3.842,3.842,0,0,0-.392,1.158,2.355,2.355,0,0,1-.651,1.566,9.762,9.762,0,0,0-.922,1.406,3.491,3.491,0,0,1-2.279-.053c-.393-.142-.715-.394-1.148-.11-.407.268-.91.358-1.136.906-.607,1.477-2.11,1.484-3.337,1.853-.834.25-1.57-.441-2.354-.681-.6-.183-.73-.84-.846-1.439a10.5,10.5,0,0,0-.465-1.412,2.455,2.455,0,0,0-.221-.336,16.689,16.689,0,0,0-1.855-.115c-.562.02-.985-.654-1.643-.2s-1.256-.257-2.023-.256L20.3,38.108l-2.481.145a4.792,4.792,0,0,1-2.648-3.764c-.588-.456-1.2-.217-1.758-.308-.644-.1-1.278-.264-1.917-.4-.639.506-1.06-.092-1.683-.36M35.325,19.883c-2.116-1.365-4.493-1.346-6.75-1.73-1.629-.277-3.336.316-4.952-.346-1.162.577-2.447.169-3.61.381-.918,1.947-.8,3.949-.787,5.935,0,.584.085,1.168.088,1.752a1.223,1.223,0,0,1-1.246,1.285l-5.439.513c-1.487,1.351-1.488,1.351-1.465,2.943,0,.25.007.5.023.752a1.239,1.239,0,0,0,1.235,1.284c1,.027,2,.007,3.152.007a4.777,4.777,0,0,0,1.01-1.221,2.637,2.637,0,0,1,2.073-1.611c.86.156,1.506.291,2.159.386A2.413,2.413,0,0,1,22.871,31.8c.234.6.447,1.217.628,1.714a6.991,6.991,0,0,0,1.972.655,9.667,9.667,0,0,1,3.156.557c.186-.408.316-.708.458-1a1.921,1.921,0,0,1,2.343-1.288c.286.064.621-.124.938-.16a2.147,2.147,0,0,1,2.5,1.543c.145.384.26.779.362,1.085a5.006,5.006,0,0,0,3.894.661c.3-.575.6-1.148.887-1.728a2.1,2.1,0,0,0,.36-.892c-.043-.821.291-1.665-.118-2.451-.848-.663-1.915-.286-2.768-.6-.979-.358-2-.043-2.855-.371a2.31,2.31,0,0,1-.4-2.649,6.3,6.3,0,0,0,.595-1.625,8.071,8.071,0,0,0,.526-2.917,17.523,17.523,0,0,1-.022-2.451m-18.1,14.256c0,.7-.027,1.031.005,1.358a1.38,1.38,0,0,0,2.033,1.047,4.061,4.061,0,0,0,2.462-2.886.959.959,0,0,0-.347-1.106,8.9,8.9,0,0,0-1.511-.806,1.092,1.092,0,0,0-.727.027,6.149,6.149,0,0,0-1.1.549,1.4,1.4,0,0,0-.754,1.2,4.636,4.636,0,0,1-.056.618m14.6-.4a4,4,0,0,0-1.679,1.4,1.445,1.445,0,0,0-.008,1.631,1.892,1.892,0,0,0,1.353.993,10.075,10.075,0,0,1,1.275.274,3.213,3.213,0,0,0,1.312-2.822,3.4,3.4,0,0,0-2.253-1.479" fill="#242b3c"/>
      <path id="パス_24514" data-name="パス 24514" d="M66.376,23.33c.154.074.312.135.455.221.592.352.908.778.679,1.141-.569.9-.368,1.954-.679,2.883a12.851,12.851,0,0,0-.876,2.573,3.833,3.833,0,0,1-.85,1.756,2.309,2.309,0,0,0-.583,1.586,8.893,8.893,0,0,1-.355,3.2c-.3.921.041,2.009-.6,2.89a9.461,9.461,0,0,1-.915,3.569,2.354,2.354,0,0,1-.185,2.132,10.907,10.907,0,0,0-.318,1.878c-.245.961-.477,1.928-.77,2.879a5.073,5.073,0,0,0-.388,1.437,9.909,9.909,0,0,1-.858,3.616,20.331,20.331,0,0,0-.614,2.4c-.04.161,0,.371-.084.487-.91,1.189-.852,2.675-1.187,4.024a16.645,16.645,0,0,0-.821,3.871,2.1,2.1,0,0,1-.239.949,8.73,8.73,0,0,0-.706,2.872,14.293,14.293,0,0,1-1.1,4.06,1.038,1.038,0,0,1-.985.664c-1.976-.141-4,.435-5.932-.448-.278-.127-.663,0-.994-.037-.8-.086-1.5.521-2.413.1a6.784,6.784,0,0,0-2.482-.129c-.753-.018-1.506-.037-2.259-.048-.836-.013-1.676.019-2.508-.04a8.471,8.471,0,0,1-1.175-.331c-.316-.071-.707-.212-.956-.094a3.22,3.22,0,0,1-2.144.021,3.19,3.19,0,0,0-.751-.03,49.166,49.166,0,0,1-5.7-.446c-.645-.048-1.249-.5-1.908-.222-.8.333-1.444-.294-2.184-.3a3.89,3.89,0,0,1-1.944-.368c-.673.353-1.266-.275-1.926-.16a1.185,1.185,0,0,1-.477-.123.563.563,0,0,1-.111-.855,1.681,1.681,0,0,1,.85-.433,21.508,21.508,0,0,1,3.38.192,26.678,26.678,0,0,0,5.9.752,6.244,6.244,0,0,1,2.7.354,7.04,7.04,0,0,0,1.991.106c.816.054,1.676-.182,2.42.414a.731.731,0,0,0,.7.011c.886-.839,1.944.167,2.845-.305,2.037.607,4.135.364,6.209.444a5.278,5.278,0,0,1,2.214.312,1.056,1.056,0,0,0,.728.1,6.249,6.249,0,0,1,2.657-.018c.833.055,1.671.012,2.557.012a2.334,2.334,0,0,0,.379-.587c.526-1.821,1.137-3.616,1.492-5.488.306-1.62.727-3.219,1.11-4.824a24.845,24.845,0,0,0,.65-2.633c.216-1.737,1.118-3.285,1.3-5.029a3.994,3.994,0,0,1,.449-1.417,7.368,7.368,0,0,0,1.033-4.048c.7-1.856.631-3.891,1.336-5.749a4.757,4.757,0,0,0,.145-.974c.12-.81-.146-1.638.314-2.446s.026-1.79.473-2.668a16.158,16.158,0,0,0,.714-2.368,10.793,10.793,0,0,1,.513-1.1,3.1,3.1,0,0,0,.468-1.117c-.013-1.936,1-3.643,1.172-5.53.61-.736.306-1.6.342-2.418a1.2,1.2,0,0,1,.808-1.123" fill="#242b3c"/>
      <path id="パス_24515" data-name="パス 24515" d="M25.863,22.12a15.675,15.675,0,0,1-.525,4.332,2.7,2.7,0,0,1-.982,1.367,1.133,1.133,0,0,1-1.739-.163c-.4-.52-.774-1.066-1.2-1.664a3.126,3.126,0,0,1,.068-2.115,5.216,5.216,0,0,0,.31-2.427,1.212,1.212,0,0,1,1.715-1.164,3.951,3.951,0,0,1,2.357,1.834m-2.336,3.854c.246-.771.51-1.515.715-2.275a2.336,2.336,0,0,0,.033-.978c-.032-.187-.234-.461-.388-.481-.17-.023-.517.18-.537.319a9.174,9.174,0,0,0-.069,1.722c.028.558-.153,1.153.246,1.693" fill="#242b3c"/>
      <path id="パス_24516" data-name="パス 24516" d="M33.279,26.506c-.5.463-.96.95-1.48,1.36a1.579,1.579,0,0,1-2.369-.487,3.635,3.635,0,0,1-.211-3.567,6.343,6.343,0,0,1,1.671-2.431,1.162,1.162,0,0,1,1.572.149,2.645,2.645,0,0,1,.964,2.442c-.113.738-.093,1.5-.147,2.534m-2.3-.372c1.2-.816.966-1.806.674-2.971-1.121.905-.92,1.888-.674,2.971" fill="#242b3c"/>
    </g>
  </g>
</svg>
