<svg xmlns="http://www.w3.org/2000/svg" width="298.424" height="55.115" viewBox="0 0 298.424 55.115">
  <path id="joboffer_tit" d="M20.44-51.976H32.923V-9.271a10.091,10.091,0,0,1-1.241,5.183A9.173,9.173,0,0,1,28.287-.73a16.01,16.01,0,0,1-5.11,1.788,35.1,35.1,0,0,1-6.387.548,31.744,31.744,0,0,1-6.132-.548A13.8,13.8,0,0,1,5.877-.766a8.752,8.752,0,0,1-3.1-3.358,11.132,11.132,0,0,1-1.095-5.22V-20.221H13.14V-8.249q0,3.285,3.65,3.285t3.65-3.285Zm18.615,9.344A10.091,10.091,0,0,1,40.3-47.815a9.173,9.173,0,0,1,3.395-3.358,16.01,16.01,0,0,1,5.11-1.789,35.1,35.1,0,0,1,6.388-.548,34.072,34.072,0,0,1,6.278.548,15.449,15.449,0,0,1,5.074,1.825,9.552,9.552,0,0,1,3.395,3.358,10.046,10.046,0,0,1,1.241,5.219V-9.344a10.046,10.046,0,0,1-1.241,5.22A9.552,9.552,0,0,1,66.54-.766a15.449,15.449,0,0,1-5.074,1.825,34.072,34.072,0,0,1-6.278.548A35.1,35.1,0,0,1,48.8,1.058,16.01,16.01,0,0,1,43.691-.73,9.173,9.173,0,0,1,40.3-4.088a10.091,10.091,0,0,1-1.241-5.183Zm19.783-1.022q0-3.285-3.65-3.285t-3.65,3.285v35.4q0,3.285,3.65,3.285t3.65-3.285ZM108.77-9.344a10.29,10.29,0,0,1-1.2,5.22A9.438,9.438,0,0,1,104.28-.766a14.611,14.611,0,0,1-4.927,1.825,32.9,32.9,0,0,1-6.205.548,35.1,35.1,0,0,1-6.387-.548A16.01,16.01,0,0,1,81.65-.73a9.173,9.173,0,0,1-3.395-3.358,10.091,10.091,0,0,1-1.241-5.183V-42.632a10.091,10.091,0,0,1,1.241-5.183,9.173,9.173,0,0,1,3.395-3.358,16.01,16.01,0,0,1,5.11-1.789,35.1,35.1,0,0,1,6.387-.548,31.744,31.744,0,0,1,6.132.548,14.194,14.194,0,0,1,4.818,1.825,8.944,8.944,0,0,1,3.176,3.358,10.831,10.831,0,0,1,1.132,5.219v6.789a7.672,7.672,0,0,1-2.044,5.73q-2.044,2.008-6.789,2.373,4.745.438,6.971,2.19a5.794,5.794,0,0,1,2.227,4.818ZM96.8-19.637q0-4.964-4.6-4.964H89.5V-8.249q0,3.285,3.65,3.285T96.8-8.249Zm0-24.017q0-3.285-3.65-3.285T89.5-43.654v13.213h2.7A4.976,4.976,0,0,0,95.593-31.5a4.615,4.615,0,0,0,1.2-3.614Zm35.843,1.022a10.091,10.091,0,0,1,1.241-5.183,9.173,9.173,0,0,1,3.395-3.358,16.01,16.01,0,0,1,5.11-1.789,35.1,35.1,0,0,1,6.387-.548,34.072,34.072,0,0,1,6.278.548,15.448,15.448,0,0,1,5.074,1.825,9.552,9.552,0,0,1,3.395,3.358,10.046,10.046,0,0,1,1.241,5.219V-9.344a10.046,10.046,0,0,1-1.241,5.22,9.552,9.552,0,0,1-3.395,3.358,15.449,15.449,0,0,1-5.074,1.825,34.072,34.072,0,0,1-6.278.548,35.1,35.1,0,0,1-6.387-.548,16.01,16.01,0,0,1-5.11-1.788,9.173,9.173,0,0,1-3.395-3.358,10.091,10.091,0,0,1-1.241-5.183Zm19.783-1.022q0-3.285-3.65-3.285t-3.65,3.285v35.4q0,3.285,3.65,3.285t3.65-3.285ZM171.112,0V-51.976H197.9V-44.9H183.522v13.651h13.943v6.862H183.522V0Zm32.047,0V-51.976H229.95V-44.9H215.569v13.651h13.943v6.862H215.569V0Zm32.047,0V-51.976h27.375V-44.9H247.616v13.067h14.527v6.862H247.616V-7.154h15.038V0Zm52.925,0V-17.958q0-4.964-4.6-4.964h-2.7V0H268.348V-42.632a10.091,10.091,0,0,1,1.241-5.183,9.173,9.173,0,0,1,3.395-3.358,16.01,16.01,0,0,1,5.11-1.789,35.1,35.1,0,0,1,6.387-.548,31.744,31.744,0,0,1,6.132.548,14.194,14.194,0,0,1,4.818,1.825,8.944,8.944,0,0,1,3.176,3.358,10.831,10.831,0,0,1,1.132,5.219v8.468a7.672,7.672,0,0,1-2.044,5.73q-2.044,2.007-6.789,2.372,4.745.438,6.971,2.19A5.794,5.794,0,0,1,300.1-18.98V0Zm0-43.654q0-3.285-3.65-3.285t-3.65,3.285v14.892h2.7a4.976,4.976,0,0,0,3.395-1.059,4.615,4.615,0,0,0,1.2-3.614Z" transform="translate(-1.679 53.509)" fill="#ffae1a"/>
</svg>
