<svg xmlns="http://www.w3.org/2000/svg" width="305.067" height="55.115" viewBox="0 0 305.067 55.115">
  <path id="message_tit" d="M41.9,0V-43.362q0-3.285-3.723-3.285-3.577,0-3.577,3.577V0H22.119V-43.8a2.418,2.418,0,0,0-1.132-2.044,4.038,4.038,0,0,0-2.372-.8q-3.65,0-3.65,3.285V0H2.482V-43.07A8.4,8.4,0,0,1,3.76-47.742,10.127,10.127,0,0,1,7.227-50.99a17.2,17.2,0,0,1,5.037-1.9,28.047,28.047,0,0,1,5.986-.62q6.278,0,10.147,2.92a17.817,17.817,0,0,1,10.366-2.92,27.541,27.541,0,0,1,5.95.62,16.25,16.25,0,0,1,4.927,1.9,10.34,10.34,0,0,1,3.394,3.248,8.4,8.4,0,0,1,1.278,4.672V0ZM60.955,0V-51.976H88.33V-44.9H73.365v13.067H87.892v6.862H73.365V-7.154H88.4V0Zm63.364-8.4q0,5.548-3.942,7.775T108.916,1.606a31.744,31.744,0,0,1-6.132-.548A13.8,13.8,0,0,1,98-.766a8.752,8.752,0,0,1-3.1-3.358,11.132,11.132,0,0,1-1.1-5.22v-8.541h11.461v9.636q0,3.285,3.65,3.285a3.718,3.718,0,0,0,2.738-.912,4.3,4.3,0,0,0,.912-3.1v-4.526a8.5,8.5,0,0,0-.62-3.066,6.831,6.831,0,0,0-2.153-2.847L99.426-27.886a14.787,14.787,0,0,1-3.942-4.344,11.322,11.322,0,0,1-1.168-5.438v-5.11q0-6.059,3.8-8.395T109.5-53.509a31.744,31.744,0,0,1,6.132.548,13.8,13.8,0,0,1,4.782,1.825,8.752,8.752,0,0,1,3.1,3.358,11.132,11.132,0,0,1,1.095,5.219v6.789H113.15v-7.884q0-3.285-3.65-3.285t-3.65,3.577v3.577a14.263,14.263,0,0,0,.109,1.9,5.362,5.362,0,0,0,.4,1.46,4.343,4.343,0,0,0,.8,1.2,13.55,13.55,0,0,0,1.314,1.2L119.5-25.185a12.547,12.547,0,0,1,3.613,4.38,13.606,13.606,0,0,1,1.2,5.986Zm36.646,0q0,5.548-3.942,7.775T145.562,1.606a31.744,31.744,0,0,1-6.132-.548,13.8,13.8,0,0,1-4.782-1.825,8.752,8.752,0,0,1-3.1-3.358,11.132,11.132,0,0,1-1.1-5.22v-8.541h11.461v9.636q0,3.285,3.65,3.285a3.718,3.718,0,0,0,2.738-.912,4.3,4.3,0,0,0,.913-3.1v-4.526a8.5,8.5,0,0,0-.62-3.066,6.831,6.831,0,0,0-2.154-2.847l-10.366-8.468a14.787,14.787,0,0,1-3.942-4.344,11.322,11.322,0,0,1-1.168-5.438v-5.11q0-6.059,3.8-8.395t11.388-2.336a31.744,31.744,0,0,1,6.132.548,13.8,13.8,0,0,1,4.781,1.825,8.752,8.752,0,0,1,3.1,3.358,11.132,11.132,0,0,1,1.1,5.219v6.789H149.8v-7.884q0-3.285-3.65-3.285t-3.65,3.577v3.577a14.263,14.263,0,0,0,.109,1.9,5.362,5.362,0,0,0,.4,1.46,4.342,4.342,0,0,0,.8,1.2,13.551,13.551,0,0,0,1.314,1.2l11.023,8.833a12.547,12.547,0,0,1,3.613,4.38,13.606,13.606,0,0,1,1.2,5.986ZM187.172,0V-20.586h-7.3V0H167.389V-43.362A7.571,7.571,0,0,1,168.63-47.6a10.51,10.51,0,0,1,3.394-3.212,17.371,17.371,0,0,1,5.11-2.008,27.934,27.934,0,0,1,6.388-.693,27.121,27.121,0,0,1,6.278.693,17.4,17.4,0,0,1,5.074,2.008,10.51,10.51,0,0,1,3.395,3.212,7.571,7.571,0,0,1,1.241,4.234V0Zm0-43.654q0-3.285-3.65-3.285t-3.65,3.285v16.279h7.3ZM231.191,0l-1.1-3.212A10.558,10.558,0,0,1,225.826.4a17.2,17.2,0,0,1-7.117,1.2,20.109,20.109,0,0,1-4.6-.548,12.731,12.731,0,0,1-4.2-1.788,9.739,9.739,0,0,1-3.066-3.358,10.336,10.336,0,0,1-1.2-5.183V-42.632a10.091,10.091,0,0,1,1.241-5.183,9.173,9.173,0,0,1,3.395-3.358,16.01,16.01,0,0,1,5.11-1.789,35.1,35.1,0,0,1,6.387-.548,31.744,31.744,0,0,1,6.132.548,13.8,13.8,0,0,1,4.781,1.825,8.752,8.752,0,0,1,3.1,3.358,11.132,11.132,0,0,1,1.1,5.219v8.614H225.424v-9.709q0-3.285-3.65-3.285t-3.65,3.285v35.4q0,3.285,4.015,3.285,3.869,0,3.869-3.577V-19.856h-4.526v-6.5h16.206V0Zm12.7,0V-51.976h27.375V-44.9H256.3v13.067H270.83v6.862H256.3V-7.154h15.038V0Zm63.364-8.4q0,5.548-3.942,7.775T291.854,1.606a31.744,31.744,0,0,1-6.132-.548,13.8,13.8,0,0,1-4.781-1.825,8.752,8.752,0,0,1-3.1-3.358,11.132,11.132,0,0,1-1.1-5.22v-8.541H288.2v9.636q0,3.285,3.65,3.285a3.718,3.718,0,0,0,2.738-.912,4.3,4.3,0,0,0,.912-3.1v-4.526a8.5,8.5,0,0,0-.62-3.066,6.831,6.831,0,0,0-2.154-2.847l-10.366-8.468a14.787,14.787,0,0,1-3.942-4.344,11.322,11.322,0,0,1-1.168-5.438v-5.11q0-6.059,3.8-8.395t11.388-2.336a31.744,31.744,0,0,1,6.132.548,13.8,13.8,0,0,1,4.781,1.825,8.752,8.752,0,0,1,3.1,3.358,11.132,11.132,0,0,1,1.1,5.219v6.789H296.088v-7.884q0-3.285-3.65-3.285t-3.65,3.577v3.577a14.257,14.257,0,0,0,.11,1.9,5.362,5.362,0,0,0,.4,1.46,4.343,4.343,0,0,0,.8,1.2,13.55,13.55,0,0,0,1.314,1.2l11.023,8.833a12.547,12.547,0,0,1,3.614,4.38,13.606,13.606,0,0,1,1.2,5.986Z" transform="translate(-2.482 53.509)" fill="#77dfff"/>
</svg>
