<svg xmlns="http://www.w3.org/2000/svg" xmlns:xlink="http://www.w3.org/1999/xlink" width="622" height="276" viewBox="0 0 622 276">
  <defs>
    <clipPath id="clip-path">
      <rect id="長方形_895" data-name="長方形 895" width="622" height="276" transform="translate(-81 25.745)" fill="#fff"/>
    </clipPath>
    <filter id="パス_24177" x="496.71" y="5.413" width="71.719" height="49.389" filterUnits="userSpaceOnUse">
      <feOffset dy="3" input="SourceAlpha"/>
      <feGaussianBlur result="blur"/>
      <feFlood flood-opacity="0.161"/>
      <feComposite operator="in" in2="blur"/>
      <feComposite in="SourceGraphic"/>
    </filter>
    <clipPath id="clip-path-2">
      <rect id="長方形_859" data-name="長方形 859" width="75.913" height="44.704" transform="translate(0 0)" fill="none"/>
    </clipPath>
    <filter id="パス_24182" x="171.411" y="167.778" width="31.789" height="51.948" filterUnits="userSpaceOnUse">
      <feOffset dx="3" dy="3" input="SourceAlpha"/>
      <feGaussianBlur result="blur-2"/>
      <feFlood flood-opacity="0.161"/>
      <feComposite operator="in" in2="blur-2"/>
      <feComposite in="SourceGraphic"/>
    </filter>
    <clipPath id="clip-path-3">
      <rect id="長方形_860" data-name="長方形 860" width="20.53" height="47.124" fill="none"/>
    </clipPath>
  </defs>
  <g id="t1" transform="translate(81 -25.745)" clip-path="url(#clip-path)">
    <g id="グループ_3226" data-name="グループ 3226" transform="translate(-12.194)">
      <g id="グループ_3181" data-name="グループ 3181" transform="translate(0 0)">
        <path id="パス_24071" data-name="パス 24071" d="M100.109,48.338H49.674a8.17,8.17,0,0,0-7.725,6.575L37.213,81.98a5.374,5.374,0,0,0,5.425,6.575H93.073A8.171,8.171,0,0,0,100.8,81.98l4.736-27.066a5.374,5.374,0,0,0-5.425-6.575M86.267,78.391A1.657,1.657,0,0,1,84.7,79.724H54.1A1.089,1.089,0,0,1,53,78.391l.087-.5a1.657,1.657,0,0,1,1.566-1.334h30.6a1.091,1.091,0,0,1,1.1,1.334Zm1.8-10.282A1.657,1.657,0,0,1,86.5,69.442H55.9a1.09,1.09,0,0,1-1.1-1.334l.087-.5a1.657,1.657,0,0,1,1.566-1.333h30.6a1.09,1.09,0,0,1,1.1,1.333Zm1.8-10.282A1.658,1.658,0,0,1,88.3,59.161H57.7a1.091,1.091,0,0,1-1.1-1.334l.087-.5A1.658,1.658,0,0,1,58.252,56h30.6a1.091,1.091,0,0,1,1.1,1.334Z" transform="translate(-3.135 43.862)" fill="#81baff"/>
        <path id="パス_24072" data-name="パス 24072" d="M40.079,66.5c.133,2.615-2.921,4.748-5.174,5.384-2.533.715-4.872.022-5.526-2.5a32.464,32.464,0,0,0-1.069-3.928.307.307,0,0,0-.251-.112c-.109,0-.175.075-.2.224L22.53,97.337a7.574,7.574,0,0,1-2.591,4.49,6.9,6.9,0,0,1-4.642,1.911l-2.809,0a4.858,4.858,0,0,1-4-1.905A5.441,5.441,0,0,1,7.4,97.346l3.54-21.1-.09-.113-.127.113a78.487,78.487,0,0,1-4.362,7.971A2.96,2.96,0,0,1,3.4,85.79a2.294,2.294,0,0,1-2.146-2.019L.278,79.283q-1.2-5.724,2.785-11.449A131.7,131.7,0,0,0,15.727,45.157c.244-.6.079-.9-.5-.9l-2.594,0a4.854,4.854,0,0,1-4-1.905,5.438,5.438,0,0,1-1.084-4.489l.32-1.908a7.338,7.338,0,0,1,2.581-4.434,6.968,6.968,0,0,1,4.632-1.855l2.81,0c.575,0,.921-.337,1.034-1.011l1.356-8.081c.088-.523-.157-.786-.732-.785H18.8a5.375,5.375,0,0,1-4.357-1.4,5,5,0,0,1-1.49-4.32l.061-1.01a7.475,7.475,0,0,1,2.122-4.6A7.32,7.32,0,0,1,19.58,6.1,147.258,147.258,0,0,0,40.641,2.272a6.423,6.423,0,0,1,4.83.5,4.679,4.679,0,0,1,2.468,3.646l.1.673L48,7.318q.1.673.827.223a6.143,6.143,0,0,1,3.81-1.46l17.719-.012a.885.885,0,0,0,1-.786A6.167,6.167,0,0,1,73.5,1.522,5.762,5.762,0,0,1,77.32,0l7.455,0a4.056,4.056,0,0,1,3.366,1.512,4.56,4.56,0,0,1,.828,3.759q-.132.787.624.786L107.2,6.046a4.3,4.3,0,0,1,3.562,1.624,4.833,4.833,0,0,1,.9,3.984,6.668,6.668,0,0,1-2.235,3.985,6.054,6.054,0,0,1-4.109,1.63l-17.5.011c-.578,0-.921.338-1.034,1.011l-.094.561c-.1.6.136.9.714.9l16.422-.011a3.191,3.191,0,0,1,2.7,1.289,3.859,3.859,0,0,1,.671,3.085,5.062,5.062,0,0,1-1.7,3.031,4.594,4.594,0,0,1-3.124,1.236l-16.423.011a.945.945,0,0,0-1.015.9l-.094.561c-.113.673.118,1.01.7,1.009l19.988-.012a3.972,3.972,0,0,1,3.355,1.568,4.6,4.6,0,0,1,.837,3.7,6.338,6.338,0,0,1-2.079,3.7,5.615,5.615,0,0,1-3.884,1.574l-59.533.038A4.15,4.15,0,0,1,41.1,40.091q-.4-.222-.94.45a6.964,6.964,0,0,1-6.239,3.708H33.6a.643.643,0,0,0-.534.281.379.379,0,0,0-.03.505q1.078,2.582,2.792,7.18M56.894,86.373a.861.861,0,0,1,.194.219c1.111,1.453.753,4.262-.068,6.065a7.283,7.283,0,0,1-3.656,3.762,119.222,119.222,0,0,1-18.112,6.856,6.062,6.062,0,0,1-4.8-.389,5.6,5.6,0,0,1-2.826-3.758l-.09-.112a5.789,5.789,0,0,1,.827-4.6,6.919,6.919,0,0,1,3.911-3.033A133.743,133.743,0,0,0,46.994,86.1c1.809-.774,6.654-1.771,9.9.275m27.178-.41c3.8,1.411,7.624,3.063,11.488,4.93a4.518,4.518,0,0,1,2.54,3.533,6.764,6.764,0,0,1-1.035,4.883l-.291.45a7.659,7.659,0,0,1-4,3.257,5.473,5.473,0,0,1-4.608-.222q-6.694-3.252-14.9-6.5A4.622,4.622,0,0,1,70.4,93.1a6.374,6.374,0,0,1,.638-4.77c2.106-4.062,7.192-4.535,13.037-2.365M35.843,17.987,34.054,28.649q-.169,1.009.8,1.01l1.512,0a4.821,4.821,0,0,1,4.715,2.8q.336.563.973,0a5.808,5.808,0,0,1,3.937-1.574l20.1-.013a1.062,1.062,0,0,0,1.142-1.011l.094-.561q.151-.9-.822-.9l-16.53.011a3.261,3.261,0,0,1-2.71-1.233,3.666,3.666,0,0,1-.68-3.03,5.287,5.287,0,0,1,1.707-3.087,4.524,4.524,0,0,1,3.133-1.292l16.531-.011a1,1,0,0,0,1.123-.9l.094-.56q.169-1.011-.8-1.01L50.758,17.3a4.087,4.087,0,0,1-4.406-3.364.551.551,0,0,0-.321-.337.45.45,0,0,0-.5.114,9.839,9.839,0,0,1-2.749,1.572Q39.368,16.3,37,16.863a1.343,1.343,0,0,0-1.161,1.123" transform="translate(0 47.944)" fill="#ff930f"/>
        <path id="パス_24073" data-name="パス 24073" d="M164.405,86.59a7.789,7.789,0,0,1,.256-2.011q.176-1.206.351-2.412c.146-1,.264-2.013.439-3.019q.15-.864-.822-.864l-5.511,0-5.078,0a4.928,4.928,0,0,1-4-1.834,5.087,5.087,0,0,1-1.083-4.32l.565-3.241a1.389,1.389,0,0,0-.511-1.4,4.237,4.237,0,0,1-.888-1.729q-.173-.862-.721-3.294t-.863-3.726a.43.43,0,0,0-.362.216l-6.8,39a7.236,7.236,0,0,1-2.589,4.322,7.048,7.048,0,0,1-4.643,1.838l-2.377,0a4.931,4.931,0,0,1-4-1.834,5.094,5.094,0,0,1-1.083-4.32l4.784-27.441c-.059-.071-.168-.071-.324,0q-2.7,4.971-4.742,8a3.059,3.059,0,0,1-2.9,1.46A2,2,0,0,1,119.5,78.1l-1.022-5.293q-.965-5.614,3.02-11.127a110.764,110.764,0,0,0,13.662-25.07.612.612,0,0,0-.049-.648.626.626,0,0,0-.537-.323l-2.917,0a5.018,5.018,0,0,1-4.011-1.78,4.929,4.929,0,0,1-1.093-4.266l.32-1.837a7.225,7.225,0,0,1,2.591-4.322,7.034,7.034,0,0,1,4.642-1.839l3.025,0a.934.934,0,0,0,1.015-.865l1.6-9.183a7.223,7.223,0,0,1,2.59-4.322,7.035,7.035,0,0,1,4.642-1.839l2.377,0a4.934,4.934,0,0,1,4,1.834,5.1,5.1,0,0,1,1.083,4.32l-1.6,9.183q-.151.865.821.863l2.485,0a4.936,4.936,0,0,1,4,1.834,5.1,5.1,0,0,1,1.084,4.32l-.32,1.837A5.614,5.614,0,0,1,160.4,31.3a.481.481,0,0,0-.031.486c.077.18.192.234.351.162a6.726,6.726,0,0,1,1.423-.109l9.292-.005a1.266,1.266,0,0,0,1.231-.865l2.385-8.1q.365-.864-.606-.863l-11.236.007a4.772,4.772,0,0,1-3.947-1.835,5.184,5.184,0,0,1-1.03-4.32l.32-1.837a7.1,7.1,0,0,1,2.527-4.268,6.915,6.915,0,0,1,4.578-1.786l58.561-.037a5.023,5.023,0,0,1,4.011,1.78,4.939,4.939,0,0,1,1.093,4.266L229,15.809a7.232,7.232,0,0,1-2.59,4.322,7.038,7.038,0,0,1-4.642,1.839L191.3,21.99a1.2,1.2,0,0,0-1.123.865q-.374,1.513-1.238,4a.467.467,0,0,0,.113.594.849.849,0,0,0,.6.27l5.834,0a4.866,4.866,0,0,1,3.958,1.78,4.771,4.771,0,0,1,.93,4.266q-1.63,8.1-2.791,14.152a.208.208,0,0,0,.169.27.308.308,0,0,0,.352-.162,8.155,8.155,0,0,1,1-.756l.126-.109a4.3,4.3,0,0,1,4.013-.7,3.7,3.7,0,0,1,2.418,2.861q.486,2.163.75,3.132a.22.22,0,0,0,.3.162.607.607,0,0,0,.371-.27,74.674,74.674,0,0,0,3.189-9.616q.169-.972-.587-.971h-2.485a4.923,4.923,0,0,1-4-1.833,5.088,5.088,0,0,1-1.083-4.32l.225-1.3a7.229,7.229,0,0,1,2.591-4.322,7.036,7.036,0,0,1,4.642-1.84l8.968-.005a4.936,4.936,0,0,1,4,1.834,5.1,5.1,0,0,1,1.083,4.32l-1.3,7.454a101.242,101.242,0,0,1-9.273,23.447,1.208,1.208,0,0,0,.168,1.512q1.5,1.943,2.944,3.563a6.529,6.529,0,0,1,1.966,4.211,8.47,8.47,0,0,1-1.19,4.97l-.747,1.188a6.392,6.392,0,0,1-3.813,2.973,3.866,3.866,0,0,1-4.019-.807,29.923,29.923,0,0,1-3.982-4.427c-.357-.432-.76-.395-1.207.108q-1.96,1.946-4.117,3.784a4.961,4.961,0,0,1-4.205,1.191,3.831,3.831,0,0,1-3-2.591l-.582-1.62q-1.586-4.536,3.527-9.077c.083-.07.429-.395,1.035-.972s1.081-1.044,1.433-1.405a1.223,1.223,0,0,0,.353-1.4,58.9,58.9,0,0,1-2.219-6.48.314.314,0,0,0-.252-.107c-.108,0-.174.072-.2.216-1.281,5.747-2.652,11.514-4.476,17.211-.6,1.872-1.248,3.745-2.042,5.577-.493,1.138-1.115,3.407-2.39,4.023a3.148,3.148,0,0,1-.792.232,46.212,46.212,0,0,1-4.713.489c-2.062.181-4.121.318-6.172.4-1.976.077-3.952.114-5.894,0a10.86,10.86,0,0,1-3.087-.379c-.635-.233-.892-.564-.961-.973M151.193,36.382q.423,1.3,1.177,3.78t1.2,3.671a.248.248,0,0,0,.2.108c.071,0,.121-.07.146-.216l1.017-5.834a5.617,5.617,0,0,1,.625-1.729.484.484,0,0,0,.031-.486c-.077-.179-.194-.233-.35-.162a7.361,7.361,0,0,1-1.532.109l-1.837,0a.646.646,0,0,0-.533.27.525.525,0,0,0-.139.486M164.894,65l3.484-19.986q.151-.864-.713-.864l-1.729,0a.933.933,0,0,0-1.015.864L161.436,65c-.1.578.136.864.714.864h1.729A.934.934,0,0,0,164.894,65m15.469-23.667-5.952,34.139q-.169.972.695.971h.432a2.029,2.029,0,0,0,1.847-1.3q1.263-2.917,7.751-33.924.132-.755-.732-.756l-3.025,0a.933.933,0,0,0-1.015.864" transform="translate(-9.991 47.49)" fill="#ff930f"/>
        <path id="パス_24074" data-name="パス 24074" d="M268.36,62.353a5.356,5.356,0,0,1-.9.285c-1.22.276-4.648,1.518-4.682,2.121l-3.071,17.609q-.867,4.97-1.473,7.832a27.006,27.006,0,0,1-1.679,5.295,13.174,13.174,0,0,1-2.071,3.512,7.792,7.792,0,0,1-3.021,1.837,15.031,15.031,0,0,1-4.1.921q-2.082.163-5.755.166-2.269,0-4.2-.105a5.856,5.856,0,0,1-4.126-2.05,5.406,5.406,0,0,1-1.226-4.428l.136-1.4a6.361,6.361,0,0,1,2.336-4.107,5.9,5.9,0,0,1,4.478-1.514,23.344,23.344,0,0,0,2.358.106,1.329,1.329,0,0,0,1.292-.6A19.356,19.356,0,0,0,243.542,84l2.694-15.449a.647.647,0,0,0-.221-.593.587.587,0,0,0-.62-.162q-.453.11-1.4.271c-.632.108-1.1.2-1.4.271a4.615,4.615,0,0,1-4.088-1.024,4.445,4.445,0,0,1-1.42-3.942l.255-2.7a7.558,7.558,0,0,1,2.215-4.646,8.147,8.147,0,0,1,4.647-2.487q.666-.107,1.957-.38t1.957-.379a1.272,1.272,0,0,0,1.053-1.081L252,35.492q.169-.972-.8-.971l-3.565,0a5.021,5.021,0,0,1-4.012-1.78,4.933,4.933,0,0,1-1.092-4.266l.32-1.837a7.232,7.232,0,0,1,2.59-4.322,7.039,7.039,0,0,1,4.643-1.839l3.565,0a.994.994,0,0,0,1.123-.864l1.714-9.832a7.229,7.229,0,0,1,2.59-4.322,7.041,7.041,0,0,1,4.643-1.838l3.673,0a4.781,4.781,0,0,1,3.948,1.834,5.2,5.2,0,0,1,1.029,4.32L270.65,19.6c-.1.577.173.863.821.863a4.713,4.713,0,0,1,3.9,1.78,5.006,5.006,0,0,1,1,4.157L276,28.565a5.622,5.622,0,0,1-.517,1.729l-.31.54a6.777,6.777,0,0,1-6.151,3.677,1,1,0,0,0-1.123.865c-.693,3.974-1.4,7.948-2.078,11.921-.076.444-.326,1.189.241,1.293a14.5,14.5,0,0,0,2.511-.386,3.977,3.977,0,0,1,3.176,1,4.84,4.84,0,0,1,1.227,3.1,11.894,11.894,0,0,1-1.363,6.444c-.862,1.633-1.68,2.943-3.253,3.6" transform="translate(-19.594 47.639)" fill="#ff930f"/>
        <path id="パス_24075" data-name="パス 24075" d="M352,97.638a5.552,5.552,0,0,1-1.642-4.212,8.08,8.08,0,0,1,1.711-4.862,62.631,62.631,0,0,0,8.364-16.371q3.084-9.02,5.929-25.335l5.914-33.923a7.021,7.021,0,0,1,2.58-4.268,7.122,7.122,0,0,1,4.634-1.785l75.847-.049a5.025,5.025,0,0,1,4.012,1.78,4.942,4.942,0,0,1,1.092,4.266L447.882,84.939q-.867,4.97-1.527,7.832a24.989,24.989,0,0,1-1.841,5.294,12.038,12.038,0,0,1-2.341,3.512,9.889,9.889,0,0,1-3.625,1.893,20.13,20.13,0,0,1-5.032.975q-2.568.163-7.105.167-.865,0-7.31-.211a5.411,5.411,0,0,1-4.135-2,5.917,5.917,0,0,1-1.325-4.482l.25-2.053a6.005,6.005,0,0,1,2.3-4.214,6.382,6.382,0,0,1,4.442-1.623q4.932.214,5.149.212,3.133,0,3.895-.651t1.307-3.781l2.034-11.668c.1-.575-.174-.864-.822-.863l-18.8.012a1,1,0,0,0-1.123.865L408.544,95.55a7.237,7.237,0,0,1-2.59,4.322,7.047,7.047,0,0,1-4.642,1.839l-4,0a4.933,4.933,0,0,1-4-1.835,5.094,5.094,0,0,1-1.083-4.32l3.729-21.391q.151-.864-.713-.864l-16.855.011a1.264,1.264,0,0,0-1.231.865,80.38,80.38,0,0,1-13.075,26.042A6.171,6.171,0,0,1,360,102.6a4.893,4.893,0,0,1-4.114-1.185Zm29.773-43.12q-.151.867-.488,2.485t-.468,2.377c-.1.578.173.864.821.864l15.883-.01q.864,0,1.034-.973l2.034-11.668q.17-.972-.695-.971l-15.883.01c-.577,0-.92.325-1.034.973ZM387.5,21.677,385.58,32.7q-.151.867.713.864l15.884-.01a.933.933,0,0,0,1.014-.865l1.921-11.019c.1-.576-.137-.865-.713-.864l-15.883.01a.934.934,0,0,0-1.015.865m33.926-.022-1.921,11.019c-.1.578.173.864.821.863l18.8-.012a.993.993,0,0,0,1.122-.865l1.922-11.019q.15-.864-.822-.864l-18.8.012a1,1,0,0,0-1.123.865m-4.52,25.928L414.873,59.25q-.169.972.8.971l18.8-.012a1.052,1.052,0,0,0,1.143-.973l2.033-11.667q.17-.972-.8-.972l-18.8.012a1.051,1.051,0,0,0-1.142.973" transform="translate(-29.592 47.367)" fill="#ff930f"/>
        <path id="パス_24076" data-name="パス 24076" d="M223.207,43.941h-8.669a5.622,5.622,0,0,1-5.675-6.878,8.548,8.548,0,0,1,8.082-6.879h8.669a5.622,5.622,0,0,1,5.675,6.879,8.548,8.548,0,0,1-8.082,6.878" transform="translate(-17.632 45.395)" fill="#ff930f"/>
        <path id="パス_24077" data-name="パス 24077" d="M230.277,36.834s-3.854,29.88-23.819,47.238c-3.379,2.938-8.091,2.743-9.771-.672a6.444,6.444,0,0,1,1.056-6.74c3.951-5.018,14.658-18.794,18.8-32.27" transform="translate(-16.567 44.833)" fill="#ff930f"/>
        <path id="パス_24078" data-name="パス 24078" d="M204.017,52.2c-.422.356-.823.721-1.194,1.071a7.13,7.13,0,0,0-2.306,6.837c1.909,6.943,6.116,19.578,12.768,25.8,2.3,2.155,6.285,1.94,9.135-.48l1.195-1.014c2.838-2.41,3.615-6.212,1.769-8.737-3.469-4.744-9.532-12.451-11.859-21.119-.551-2.052-1.68-4.421-4.067-4.715-1.9-.234-3.831.994-5.441,2.352" transform="translate(-16.919 43.736)" fill="#ff930f"/>
        <path id="パス_24079" data-name="パス 24079" d="M151.91,97.422h61.4a5.81,5.81,0,0,1,5.866,7.109,8.834,8.834,0,0,1-8.353,7.109h-61.4a5.81,5.81,0,0,1-5.866-7.109,8.834,8.834,0,0,1,8.353-7.109" transform="translate(-12.116 39.716)" fill="#81baff"/>
        <path id="パス_24080" data-name="パス 24080" d="M281.921,18.114l-.02.168a6.025,6.025,0,0,0,6.556,6.96c12.178-.667,36.514-2.215,51.441-4.6a9.1,9.1,0,0,0,7.589-8.711l-.02-.951c-.089-4.075-3.634-6.679-7.845-5.776a236.2,236.2,0,0,1-48.9,5.12,9.164,9.164,0,0,0-8.8,7.789" transform="translate(-23.805 47.52)" fill="#ff930f"/>
        <path id="パス_24081" data-name="パス 24081" d="M291.14,50.079l-4.031,1.6c-3.516,1.394-7.031-.127-7.854-3.4l-2.171-8.637c-.822-3.271,1.361-7.053,4.877-8.448l4.031-1.6c3.516-1.394,7.031.127,7.854,3.4l2.17,8.637c.822,3.271-1.36,7.053-4.876,8.448" transform="translate(-23.388 45.489)" fill="#ff930f"/>
        <path id="パス_24082" data-name="パス 24082" d="M316.1,45.04l-11.454,3.739-2.661-15.536a6,6,0,0,1,4.189-6.34l11.251-3.673a.172.172,0,0,1,.236.125L320.285,38.7a6,6,0,0,1-4.188,6.34" transform="translate(-25.5 45.983)" fill="#ff930f"/>
        <path id="パス_24083" data-name="パス 24083" d="M332.626,51.432,329.135,49.8c-2.723-1.274-3.48-4.695-1.69-7.64l8.423-13.868c1.789-2.946,5.447-4.3,8.17-3.028l3.491,1.633c2.723,1.274,3.48,4.695,1.69,7.641L340.8,48.4c-1.789,2.946-5.447,4.3-8.17,3.028" transform="translate(-27.574 45.851)" fill="#ff930f"/>
        <path id="パス_24085" data-name="パス 24085" d="M290.216,100.455l7.853-44.877a8.822,8.822,0,0,1,8.343-7.1h3.952a5.8,5.8,0,0,1,5.858,7.1l-7.853,44.877a8.823,8.823,0,0,1-8.342,7.1h-3.952a5.8,5.8,0,0,1-5.859-7.1" transform="translate(-24.502 43.85)" fill="#ff930f"/>
        <path id="パス_24086" data-name="パス 24086" d="M263.9,92.823l31.809-24.978c2.78-2.182,6.462-2.008,8.225.39l1.777,2.417c1.763,2.4.939,6.11-1.84,8.293l-31.809,24.978c-2.78,2.183-6.463,2.008-8.225-.39l-1.777-2.416c-1.763-2.4-.939-6.111,1.84-8.294" transform="translate(-22.055 42.343)" fill="#ff930f"/>
        <path id="パス_24087" data-name="パス 24087" d="M323.853,103.463,303.677,76.024c-1.763-2.4-.939-6.111,1.84-8.294l2.8-2.2c2.78-2.183,6.463-2.008,8.225.39l20.177,27.439c1.762,2.4.938,6.111-1.841,8.294l-2.8,2.2c-2.78,2.183-6.462,2.009-8.225-.389" transform="translate(-25.57 42.539)" fill="#ff930f"/>
        <path id="パス_24084" data-name="パス 24084" d="M278.252,59.125h56.61a5.6,5.6,0,0,1,5.655,6.856l-.088.507a8.519,8.519,0,0,1-8.057,6.856H275.764a5.6,5.6,0,0,1-5.658-6.856l.09-.507a8.519,8.519,0,0,1,8.056-6.856" transform="translate(-22.805 42.951)" fill="#81baff"/>
        <path id="パス_24088" data-name="パス 24088" d="M487.033,22.872h7.475a4.318,4.318,0,0,1,4.36,5.284L490.542,75.74a6.568,6.568,0,0,1-6.21,5.285h-7.474a4.319,4.319,0,0,1-4.36-5.285l8.326-47.583a6.566,6.566,0,0,1,6.209-5.284" transform="translate(-39.9 46.013)" fill="#ff930f"/>
        <path id="パス_24089" data-name="パス 24089" d="M9.93,0h7.475a4.765,4.765,0,0,1,4.822,5.284L18.065,52.868a5.885,5.885,0,0,1-5.748,5.285H4.843A4.765,4.765,0,0,1,.021,52.868L4.183,5.284A5.883,5.883,0,0,1,9.93,0" transform="matrix(0.998, 0.07, -0.07, 0.998, 514.433, 68.104)" fill="#ff930f"/>
        <path id="パス_24091" data-name="パス 24091" d="M535.2,4.582h2a6.558,6.558,0,0,1,6.62,8.025L528.863,98.079a9.971,9.971,0,0,1-9.428,8.025h-2a6.558,6.558,0,0,1-6.62-8.025l14.956-85.472A9.971,9.971,0,0,1,535.2,4.582" transform="translate(-43.133 47.557)" fill="#81baff"/>
        <path id="パス_24090" data-name="パス 24090" d="M577.309,28.845l-.356,2.037a7.4,7.4,0,0,1-7,5.956H486.322a4.867,4.867,0,0,1-4.914-5.956l.356-2.037a7.4,7.4,0,0,1,7-5.956h83.632a4.867,4.867,0,0,1,4.914,5.956" transform="translate(-40.652 46.011)" fill="#ff930f"/>
        <path id="パス_24092" data-name="パス 24092" d="M570.111,71.282l-.356,2.037a7.4,7.4,0,0,1-7,5.956H479.124a4.867,4.867,0,0,1-4.914-5.956l.356-2.037a7.4,7.4,0,0,1,7-5.956H565.2a4.867,4.867,0,0,1,4.914,5.956" transform="translate(-40.044 42.427)" fill="#ff930f"/>
        <path id="パス_24095" data-name="パス 24095" d="M30.468,38.372a3.892,3.892,0,0,1,3.911,5.108L26.9,70.725c-.131.479.083.717.642.717H38.637a.948.948,0,0,0,1.035-.717l11.7-42.658a7.5,7.5,0,0,1,6.714-5.109h4.194a3.891,3.891,0,0,1,3.911,5.109L62.236,42.495q-.2.719.642.717h21.9a3.89,3.89,0,0,1,3.911,5.108l-.418,1.524a6.547,6.547,0,0,1-2.556,3.54,6.847,6.847,0,0,1-4.133,1.479h-21.9a1,1,0,0,0-1.06.807L54.491,70.725c-.131.479.083.717.642.717H81.6a3.891,3.891,0,0,1,3.911,5.108L85,78.432a7.5,7.5,0,0,1-6.714,5.108H4.1A3.89,3.89,0,0,1,.185,78.432L.7,76.549a6.735,6.735,0,0,1,2.568-3.584,6.767,6.767,0,0,1,4.147-1.524h4.1a.889.889,0,0,0,.942-.717L19.933,43.48A6.732,6.732,0,0,1,22.5,39.9a6.766,6.766,0,0,1,4.146-1.524ZM12.316,35.235l-.479-2.33a5.4,5.4,0,0,1,.92-4.033A7.9,7.9,0,0,1,16.3,25.826,198.341,198.341,0,0,0,48.953,7.006,16.876,16.876,0,0,1,58.927,3.6h8.388a10.127,10.127,0,0,1,8.174,3.5A92.561,92.561,0,0,0,97.819,25.915a3.572,3.572,0,0,1,1.832,3,5.881,5.881,0,0,1-1.327,3.988l-1.757,2.33a7.166,7.166,0,0,1-3.637,2.554,4.726,4.726,0,0,1-3.807-.224A96.686,96.686,0,0,1,61.074,13.1q-.413-.538-1.119,0A208.27,208.27,0,0,1,18.48,37.566a5.178,5.178,0,0,1-3.929.224,3.337,3.337,0,0,1-2.235-2.554" transform="translate(79.999 165.5)" fill="#302a25"/>
        <path id="パス_24096" data-name="パス 24096" d="M157.516,79.96l-.553-2.064a3.644,3.644,0,0,1,.77-3.32,5.42,5.42,0,0,1,3.246-2.154q11.963-2.51,22.121-5.563c.017-.058-.021-.148-.113-.269H167.144a4,4,0,0,1-3.323-1.48,3.777,3.777,0,0,1-.613-3.544l.073-.269A7.5,7.5,0,0,1,170,56.182h26.841a.889.889,0,0,0,.942-.718l.345-1.256q.2-.717-.549-.718H174.09a3.452,3.452,0,0,1-2.974-1.391,3.645,3.645,0,0,1-.5-3.275,6.6,6.6,0,0,1,6.008-4.575h23.485a.949.949,0,0,0,.967-.808l.319-1.166q.221-.808-.524-.808H174.588a3.763,3.763,0,0,1-3.126-1.346,3.535,3.535,0,0,1-.535-3.32,6.817,6.817,0,0,1,6.243-4.755h10.252q.745,0,.78-.808l-.762-5.384a.737.737,0,0,0-.828-.718h-9.04a4,4,0,0,1-3.323-1.48,3.778,3.778,0,0,1-.614-3.544l.32-1.166a6.747,6.747,0,0,1,2.568-3.589,6.768,6.768,0,0,1,4.147-1.525h2.237a.622.622,0,0,0,.48-.225.457.457,0,0,0,.157-.4,4.5,4.5,0,0,1-.22-.9,4.616,4.616,0,0,0-.22-.9,3.841,3.841,0,0,1,.679-3.5,5.632,5.632,0,0,1,3.342-2.333l2.106-.538a6.632,6.632,0,0,1,4.33.179,4.22,4.22,0,0,1,2.525,2.692q.131.538.665,2.333t.8,2.871q.083.719.922.718h1.957a.948.948,0,0,0,.967-.808l1.549-5.652A6.551,6.551,0,0,1,205.5,3.828a6.834,6.834,0,0,1,4.133-1.48h2.33a4.005,4.005,0,0,1,3.322,1.48,3.781,3.781,0,0,1,.613,3.544l-1.549,5.652q-.221.807.524.808h3.915a.949.949,0,0,0,.967-.808L221.3,7.373a6.549,6.549,0,0,1,2.556-3.544,6.834,6.834,0,0,1,4.133-1.48h2.33a3.876,3.876,0,0,1,3.276,1.48,3.858,3.858,0,0,1,.567,3.544l-1.549,5.652q-.221.807.617.808h2.517a1.918,1.918,0,0,0,1.408-.718q.687-.808,3.962-4.935a9.773,9.773,0,0,1,3.887-2.961,7.294,7.294,0,0,1,4.434-.538l1.648.449a2.819,2.819,0,0,1,2.321,2.243,4.2,4.2,0,0,1-1.031,3.588l-1.708,2.154q-.572.719.268.718h2.051a3.894,3.894,0,0,1,3.91,5.114l-.32,1.166a6.552,6.552,0,0,1-2.555,3.544,6.842,6.842,0,0,1-4.133,1.48h-8.481a1.672,1.672,0,0,0-1.34.807q-2.167,3.142-3.83,5.474a.334.334,0,0,0-.018.4.428.428,0,0,0,.4.224h9.879a3.564,3.564,0,0,1,3.636,4.755,6.083,6.083,0,0,1-2.354,3.32,6.373,6.373,0,0,1-3.864,1.346H217.646a.948.948,0,0,0-.967.808l-.32,1.166c-.147.539.027.808.524.808H240.37a3.445,3.445,0,0,1,3.5,4.575,6.222,6.222,0,0,1-2.3,3.275,5.98,5.98,0,0,1-3.736,1.391H214.351a.89.89,0,0,0-.942.718l-.344,1.256c-.131.48.051.718.549.718h26.841a3.893,3.893,0,0,1,3.91,5.115l-.073.269a6.556,6.556,0,0,1-2.556,3.544,6.842,6.842,0,0,1-4.133,1.48H221.759a.235.235,0,0,0-.074.269,189.511,189.511,0,0,0,18.979,5.563,2.433,2.433,0,0,1,2.078,2.109,3.87,3.87,0,0,1-1.155,3.365L239.9,79.96a8.945,8.945,0,0,1-4.07,2.781,7.236,7.236,0,0,1-4.476.18,112.493,112.493,0,0,1-22.391-9.78q-.648-.358-.844.359l-1.7,6.191a7.5,7.5,0,0,1-6.714,5.115h-4.66a3.894,3.894,0,0,1-3.91-5.115l1.7-6.191a.336.336,0,0,0-.122-.4.4.4,0,0,0-.407-.045,193.322,193.322,0,0,1-27.869,9.87,6.785,6.785,0,0,1-4.378-.18,4.149,4.149,0,0,1-2.546-2.781m46.4-47.913h16.03a1.58,1.58,0,0,0,1.408-.718q1.684-2.063,3.923-5.474.382-.717-.269-.718h-21.9q-.653,0-.663.718.253,1.8.575,5.384a.853.853,0,0,0,.9.808" transform="translate(16.538 166.006)" fill="#302a25"/>
        <path id="パス_24097" data-name="パス 24097" d="M328.116,40.94a4.007,4.007,0,0,1-2.679-2.469,5.055,5.055,0,0,1,.255-4Q330.32,23.7,334.8,10.414A7,7,0,0,1,337.5,7a6.421,6.421,0,0,1,3.979-1.257A3.668,3.668,0,0,1,344.637,7.5a4.079,4.079,0,0,1,.285,3.725q-.148.539-.5,1.661a17.445,17.445,0,0,1-.594,1.661c-.148.539.026.808.524.808h.466a.948.948,0,0,0,1.035-.719l2.115-7.721a6.746,6.746,0,0,1,2.568-3.591A6.761,6.761,0,0,1,354.68,1.8h3.168a3.9,3.9,0,0,1,3.911,5.117l-2.115,7.721q-.2.72.642.719h.932a3.9,3.9,0,0,1,3.911,5.117L364.712,22a6.563,6.563,0,0,1-2.556,3.547,6.839,6.839,0,0,1-4.133,1.481h-.932a1,1,0,0,0-1.06.808l-3.467,12.659q-.2.719.691.539c.2-.059.5-.135.9-.224s.7-.164.9-.225a4.123,4.123,0,0,1,3.21.36,2.711,2.711,0,0,1,1.34,2.424q.013.63.673.27a6.506,6.506,0,0,1,2.569-.539h25.164a.948.948,0,0,0,1.035-.718l1.156-4.219q.221-.809-.617-.809H364.42a3.9,3.9,0,0,1-3.91-5.117l.32-1.168a7.506,7.506,0,0,1,6.714-5.117H380.4a.89.89,0,0,0,.943-.718l1.376-5.028q.221-.808-.525-.808H372.135a3.9,3.9,0,0,1-3.911-5.117l.221-.808A6.557,6.557,0,0,1,371,9.92a6.835,6.835,0,0,1,4.135-1.481H385.2a.948.948,0,0,0,.967-.808l.689-2.514a6.746,6.746,0,0,1,2.568-3.591A6.762,6.762,0,0,1,393.568,0h4.288a3.9,3.9,0,0,1,3.911,5.117l-.688,2.514c-.147.539.026.808.524.808h10.438a4,4,0,0,1,3.322,1.481,3.787,3.787,0,0,1,.614,3.547l-.221.808a6.749,6.749,0,0,1-2.568,3.591,6.759,6.759,0,0,1-4.146,1.526H398.6a.948.948,0,0,0-.966.808l-1.377,5.028c-.131.479.051.718.549.718h13.421a3.9,3.9,0,0,1,3.911,5.117l-.32,1.168a7.5,7.5,0,0,1-6.714,5.117h-1.4a.947.947,0,0,0-.966.809l-1.156,4.219c-.132.48.051.718.548.718h1.4a3.9,3.9,0,0,1,3.91,5.118l-.32,1.167A7.5,7.5,0,0,1,402.41,54.5h-1.4a.948.948,0,0,0-.967.808L396.8,67.155q-1.156,4.221-1.935,6.555a22.045,22.045,0,0,1-2.056,4.444,10.889,10.889,0,0,1-2.455,3.007,10.3,10.3,0,0,1-3.493,1.526,22.948,22.948,0,0,1-4.729.763q-2.414.135-6.7.134-.839,0-6.009-.179a4.722,4.722,0,0,1-3.414-1.661,3.994,3.994,0,0,1-.728-3.636l.251-1.257a6.029,6.029,0,0,1,2.357-3.5,5.494,5.494,0,0,1,3.886-1.257q3.676.182,4.051.18,3.727,0,4.515-.493t1.575-3.367L385.505,55.3q.222-.808-.617-.808H359.724q-3.355,0-3.966-2.873-.108-.627-.765-.269a6.058,6.058,0,0,1-2.2.9q-.492.091-1.45.36t-1.474.449a1.215,1.215,0,0,0-.991.9l-6.786,24.779a7.5,7.5,0,0,1-6.714,5.117h-3.168a3.9,3.9,0,0,1-3.911-5.117l5.9-21.547q.2-.717-.6-.539-3.46.719-7.943,1.436a4.105,4.105,0,0,1-3.575-.9,3.327,3.327,0,0,1-1.048-3.322l.349-1.617a6.825,6.825,0,0,1,2.21-3.815,8.339,8.339,0,0,1,4.073-2.11q7.639-1.346,9.11-1.616a1.322,1.322,0,0,0,1.109-.988l4.352-15.891q.221-.809-.617-.808h-1.491a1.209,1.209,0,0,0-1.06.808q-1.357,3.592-3.886,9.427A6.458,6.458,0,0,1,332.13,40.4a5.4,5.4,0,0,1-4.015.539m43.5,22.894a3.755,3.755,0,0,1,.25,3.681,7.213,7.213,0,0,1-2.87,3.5l-2.164,1.437a6.255,6.255,0,0,1-4.175,1.122,4.229,4.229,0,0,1-3.2-1.75q-2.733-4.31-4.219-6.374a3.68,3.68,0,0,1-.393-3.5,6.633,6.633,0,0,1,2.634-3.322l2.189-1.527a6.662,6.662,0,0,1,4.271-1.3,4.343,4.343,0,0,1,3.366,1.661q2.307,3.144,4.313,6.374" transform="translate(-48.878 166.957)" fill="#302a25"/>
        <path id="パス_24098" data-name="パス 24098" d="M484.733,31.133a3.319,3.319,0,0,1-1.587-3.051,5.894,5.894,0,0,1,1.523-3.858A182.187,182.187,0,0,0,497.6,6.638a9.039,9.039,0,0,1,3.588-3.23A7.008,7.008,0,0,1,505.6,2.6l4.115.628a2.532,2.532,0,0,1,2.121,1.615,3.229,3.229,0,0,1-.367,2.871c-.224.359-.117.538.318.538H527.35a1.421,1.421,0,0,0,1.222-.718l.5-.808a9.878,9.878,0,0,1,3.519-3.32,7.719,7.719,0,0,1,4.489-1.076l4.189.359a2.617,2.617,0,0,1,2.493,1.615,3.563,3.563,0,0,1-.4,3.32q-.36.629.294.628h20.69a3.746,3.746,0,0,1,3.229,1.48,3.941,3.941,0,0,1,.52,3.544,6.505,6.505,0,0,1-2.45,3.5,6.525,6.525,0,0,1-4.028,1.436H539.812a.948.948,0,0,0-1.035.718l-.394,1.436c-.131.48.083.718.643.718h20.224a2.868,2.868,0,0,1,2.489,1.122,3.069,3.069,0,0,1,.369,2.737,5.167,5.167,0,0,1-1.869,2.736,4.906,4.906,0,0,1-3.1,1.122H536.911a1,1,0,0,0-1.06.808l-.369,1.346q-.221.807.618.807h20.224a2.865,2.865,0,0,1,2.489,1.122,3.068,3.068,0,0,1,.369,2.736,5.169,5.169,0,0,1-1.869,2.737,4.907,4.907,0,0,1-3.1,1.122H533.985a.95.95,0,0,0-1.036.718l-.393,1.436c-.132.48.083.718.642.718h22.554a3.21,3.21,0,0,1,2.778,1.256,3.3,3.3,0,0,1,.447,2.961,5.632,5.632,0,0,1-2.069,2.961,5.505,5.505,0,0,1-3.467,1.256H528.277a.948.948,0,0,0-.967.808l-.369,1.346c-.147.538.027.808.525.808h27.586a3.962,3.962,0,0,1,3.288,1.435,3.734,3.734,0,0,1,.579,3.5,7.267,7.267,0,0,1-6.6,5.024H530.516a.236.236,0,0,0-.074.269,168.37,168.37,0,0,0,23.025,6.1A3.275,3.275,0,0,1,556,72.228a4.036,4.036,0,0,1-.563,3.588L554.1,77.97a8.124,8.124,0,0,1-3.6,3.1,5.83,5.83,0,0,1-4.257.4A139.3,139.3,0,0,1,522.327,72.5q-.649-.358-.844.359l-1.869,6.819a7.5,7.5,0,0,1-6.714,5.114h-4.66a3.894,3.894,0,0,1-3.911-5.114l1.869-6.819q.2-.717-.529-.448a215.664,215.664,0,0,1-28.858,9.062,5.145,5.145,0,0,1-4.083-.4,3.768,3.768,0,0,1-1.948-3.1l-.155-2.154a4.895,4.895,0,0,1,1.31-3.588,6.3,6.3,0,0,1,3.619-2.154,237.605,237.605,0,0,0,26.674-6.191c.28-.119.266-.179-.043-.179H479.442a3.789,3.789,0,0,1-3.843-5.024,6.444,6.444,0,0,1,2.5-3.5,6.728,6.728,0,0,1,4.075-1.435H510.69a.948.948,0,0,0,.966-.808l.369-1.346q.221-.807-.524-.808H488.947a3.789,3.789,0,0,1-3.842-5.025l3.2-11.664a.788.788,0,0,0-.451-1.077ZM501.075,40.2l-.393,1.436c-.132.48.051.718.549.718h15.1a.948.948,0,0,0,1.036-.718l.393-1.436q.2-.717-.642-.718h-15.1a.89.89,0,0,0-.943.718m2.9-10.588-.369,1.346q-.221.807.525.807h15.1a1,1,0,0,0,1.06-.807l.369-1.346q.221-.807-.617-.808h-15.1a.948.948,0,0,0-.967.808m2.9-10.587-.369,1.346c-.147.538.027.808.525.808h15.1a1,1,0,0,0,1.06-.808l.368-1.346q.222-.807-.617-.808h-15.1a.948.948,0,0,0-.967.808" transform="translate(-110.439 166.022)" fill="#302a25"/>
      </g>
      <g transform="matrix(1, 0, 0, 1, -68.81, 25.74)" filter="url(#パス_24177)">
        <path id="パス_24177-2" data-name="パス 24177" d="M453.285,33.005a41.521,41.521,0,0,0-11.044,7.035,35.822,35.822,0,0,0-6.326,8.377,19.744,19.744,0,0,0-2.2,14.171c.255,1.315,1.586,2.436,1,3.541-1.145,2.145-3.489,2.271-4.467,3.5-2.037,2.568-1.565,2.97-2.287,4.269-.974,1.753,11.507,5.293,20.73,2.78,4.311-1.754,13.214-3.031,17.435-4.2,9.6-2.649,18.906-6.349,18.906-6.349l8.944-4.842,5.65-7.312-10.051-4.341s-4.48-12.472-13.552-16.63S453.285,33.005,453.285,33.005Z" transform="translate(68.81 -25.74)" fill="#fff"/>
      </g>
      <g id="グループ_3305" data-name="グループ 3305" transform="matrix(0.966, -0.259, 0.259, 0.966, 418.202, 40.605)">
        <g id="グループ_3304" data-name="グループ 3304" clip-path="url(#clip-path-2)">
          <path id="パス_24168" data-name="パス 24168" d="M25.1,12.486c.9-1.218,2-1.868,2.126-3.158a27.94,27.94,0,0,1,2.659-2.934c.933-.7,1.811-1.465,2.728-2.184a12.286,12.286,0,0,1,3.995-1.962,5.158,5.158,0,0,1,4.94.715A8.351,8.351,0,0,1,44.108,5.6c.811,1.432,1.916,2.656,2.416,4.315a21.954,21.954,0,0,0,1.622,3.328,34.577,34.577,0,0,1,2.345,6.249,26.64,26.64,0,0,1,1.292,9.537,4.086,4.086,0,0,1-.274,1.7,1.989,1.989,0,0,0,.153,1.733,3.56,3.56,0,0,1-1.123.506c-1.417.087-2.771.526-4.165.684a8.074,8.074,0,0,0-2.911.539c-.771-.288-1.369.564-2.176.288s-1.57.335-2.413.225a13.518,13.518,0,0,0-2.258.009c-.986.039-2.01-.229-2.937.355a.579.579,0,0,1-.488.018c-.554-.291-1.219.115-1.632-.091a7.016,7.016,0,0,0-2.441-.346A20.985,20.985,0,0,1,25.466,34a9.44,9.44,0,0,0-2.412-.392,2.65,2.65,0,0,1-.941-2.259c.073-1.151-.3-2.345.3-3.45-.363-.822.181-1.585.152-2.41a32.9,32.9,0,0,1,1.117-7.851,13.429,13.429,0,0,1,.627-1.623c.411-1.172,1.02-2.3.792-3.529" fill="#fff"/>
          <path id="パス_24169" data-name="パス 24169" d="M67.04,28.5c1.242.619,2.44,1.168,3.639,1.7a8.218,8.218,0,0,1,3.126,2.729,1.709,1.709,0,0,1-.277,1.859c-.556.5-1.32.853-1.7,1.455-.511.815-1.52.679-2.014,1.3-.551.691-1.383.5-2.027.868-.569.322-1.245.449-1.829.749a10.705,10.705,0,0,1-3.808,1.018,4.127,4.127,0,0,0-2.146.95c-.663,0-1.249,0-1.834,0a2.328,2.328,0,0,0-1.44.327,1.155,1.155,0,0,1-.69.243,27.951,27.951,0,0,0-6.412.76c-1.49-.661-2.882.668-4.361.213a2.225,2.225,0,0,1-1.63.1,1.883,1.883,0,0,0-1.217.111c-1.061.58-2.11.265-3.171.113a12.742,12.742,0,0,0-1.712-.238c-.566,0-1.181.321-1.684.18a3.614,3.614,0,0,0-1.691-.051,8.784,8.784,0,0,1-1.676-.186c-1.088-.045-2.178-.051-3.267-.042-.926.008-1.7-.695-2.675-.5a4.179,4.179,0,0,1-2.42-.36,5.08,5.08,0,0,0-1.744-.082,29.725,29.725,0,0,1-4.009-.073,19.645,19.645,0,0,1-4.095-.778,1.556,1.556,0,0,0-.964-.144,2.291,2.291,0,0,1-2.294-.353c-1.407.069-2.467-.873-3.688-1.327-1.242-.461-2.473-.965-3.731-1.392a3.337,3.337,0,0,1-2.116-2.582.923.923,0,0,1,.084-.717c.716-.885,1.151-2.02,2.386-2.446.779-.268,1.459-.825,2.238-1.092a3.836,3.836,0,0,0,2.369-1.656,20.8,20.8,0,0,0,10.294,4.664c1.294.224,2.478,1,3.864.861a14.456,14.456,0,0,0,3.568,1.054c.31.071.647.093.916.169,1.033.29,2.162-.016,3.144.541.1.055.3-.1.455-.117.827-.068,1.657-.1,2.481-.188.667-.076,1.135.641,1.909.329a3.26,3.26,0,0,1,1.863-.091c.633.15,1.088-.31,1.686-.224a8.081,8.081,0,0,0,2-.01,22.2,22.2,0,0,1,2.673-.547,4.511,4.511,0,0,0,2.694-.354,2.234,2.234,0,0,1,1.232-.113,4.956,4.956,0,0,0,2.879-.684c.864-.508,2.039-.214,2.738-1.1.851.527,1.575-.2,2.366-.273A6.212,6.212,0,0,0,57.7,32.39a17.608,17.608,0,0,1,3.766-1.212,10.164,10.164,0,0,0,2.724-1.147c.9-.578,1.891-1.024,2.852-1.533" fill="#fff"/>
          <path id="パス_24170" data-name="パス 24170" d="M65.233,27.469a4.363,4.363,0,0,1-.757.612c-1.266.634-2.523,1.3-3.838,1.818a11.028,11.028,0,0,1-2.372.629c-1.827.272-3.444,1.186-5.282,1.438-.426-.479.281-.866.193-1.337s-.357-.875-.007-1.389a1.054,1.054,0,0,0-.158-1.175.8.8,0,0,1-.061-.928c.08-.143.229-.332.19-.444-.51-1.44-.1-3.006-.584-4.419-.211-.62.373-1.1.018-1.669a10.314,10.314,0,0,1-.661-1.347c-.339-.766-.172-1.613-.489-2.424a67.606,67.606,0,0,0-3.19-7.278c-.078-.146-.1-.364-.216-.439-1.144-.735-1.369-2.071-1.9-3.141a10.693,10.693,0,0,0-2.119-3,.512.512,0,0,1-.145-.2.9.9,0,0,1-.075-.47.482.482,0,0,1,.342-.287A9.454,9.454,0,0,1,47.29,2.4,28.571,28.571,0,0,1,52.4,4.252a3.482,3.482,0,0,0,1.193.271.737.737,0,0,1,.683.6c.06.233.173.631.291.642,1.228.115,1.386,1.607,2.5,1.884a2.166,2.166,0,0,1,.934.811c1.205,1.487,2.43,2.961,3.548,4.513a14.757,14.757,0,0,1,1.225,2.447c.172.371.189.858.446,1.138A3.04,3.04,0,0,1,63.87,18.4a12.938,12.938,0,0,0,.556,2.915A11.668,11.668,0,0,1,64.9,24.74c.064.821.195,1.638.329,2.729" fill="#fff"/>
          <path id="パス_24171" data-name="パス 24171" d="M20.329,32.549a2.707,2.707,0,0,1-.9-.014c-2.252-.819-4.531-1.559-6.784-2.373-.231-.084-.454-.192-.678-.3a2.45,2.45,0,0,1-1.539-2.345,32.313,32.313,0,0,1,.089-4,17.557,17.557,0,0,1,.765-3.355,21.943,21.943,0,0,1,4.193-7.783c.754-.86,1.163-2.044,2.208-2.626.954-.53,1.3-1.753,2.448-2.03a.778.778,0,0,0,.376-.322,3.1,3.1,0,0,1,2.41-1.587c1-.962,2.416-.958,3.6-1.5a33.162,33.162,0,0,1,3.751-1.287,2.266,2.266,0,0,1,.776.072,25.637,25.637,0,0,0-5.455,5.721,3.3,3.3,0,0,0-.7,1.3,7.37,7.37,0,0,1-1.522,3.33,10.865,10.865,0,0,0-1.18,3.779c-.277,1.192-.4,2.46-.788,3.611-.41,1.2-.077,2.491-.683,3.659a4.178,4.178,0,0,0-.114,1.733c-.022,1.667-.023,3.334-.049,5a2.226,2.226,0,0,1-.225,1.307" fill="#fff"/>
          <path id="パス_24172" data-name="パス 24172" d="M25.355,13.34c.9-1.218,2-1.868,2.126-3.158A27.94,27.94,0,0,1,30.14,7.248c.933-.7,1.811-1.465,2.728-2.184A12.286,12.286,0,0,1,36.863,3.1a5.158,5.158,0,0,1,4.94.715,8.351,8.351,0,0,1,2.556,2.636c.811,1.432,1.916,2.656,2.416,4.315A21.8,21.8,0,0,0,48.4,14.1a34.536,34.536,0,0,1,2.344,6.25,26.64,26.64,0,0,1,1.293,9.537,4.086,4.086,0,0,1-.274,1.7,1.986,1.986,0,0,0,.153,1.733,3.56,3.56,0,0,1-1.123.506c-1.417.087-2.771.526-4.165.684a8.074,8.074,0,0,0-2.911.539c-.771-.288-1.37.564-2.176.288s-1.57.335-2.413.225a13.411,13.411,0,0,0-2.258.009c-.986.039-2.01-.229-2.937.355a.579.579,0,0,1-.488.018c-.554-.291-1.219.115-1.632-.091a7.016,7.016,0,0,0-2.441-.346,20.985,20.985,0,0,1-3.652-.647,9.44,9.44,0,0,0-2.412-.392,2.65,2.65,0,0,1-.941-2.259c.073-1.151-.3-2.345.3-3.45-.363-.822.181-1.585.152-2.41a32.9,32.9,0,0,1,1.117-7.851,13.429,13.429,0,0,1,.627-1.623c.411-1.172,1.02-2.3.792-3.529" fill="#a3cfff"/>
          <path id="パス_24173" data-name="パス 24173" d="M67.291,29.352c1.242.619,2.44,1.168,3.638,1.7a8.2,8.2,0,0,1,3.127,2.728,1.709,1.709,0,0,1-.277,1.859c-.556.5-1.32.853-1.7,1.455-.511.815-1.52.68-2.014,1.3-.551.69-1.383.5-2.027.867-.569.322-1.245.449-1.829.749A10.705,10.705,0,0,1,62.4,41.029a4.127,4.127,0,0,0-2.146.95c-.663,0-1.249,0-1.834,0a2.322,2.322,0,0,0-1.44.328,1.163,1.163,0,0,1-.69.242,27.951,27.951,0,0,0-6.412.76c-1.49-.661-2.882.668-4.361.213a2.225,2.225,0,0,1-1.63.1,1.887,1.887,0,0,0-1.218.111c-1.06.58-2.109.265-3.17.113a12.734,12.734,0,0,0-1.713-.238c-.565,0-1.18.322-1.683.18a3.614,3.614,0,0,0-1.691-.051,8.784,8.784,0,0,1-1.676-.186c-1.088-.045-2.178-.051-3.267-.042-.926.008-1.7-.695-2.675-.5a4.179,4.179,0,0,1-2.42-.36,5.08,5.08,0,0,0-1.744-.082,29.561,29.561,0,0,1-4.009-.073,19.645,19.645,0,0,1-4.1-.778,1.556,1.556,0,0,0-.964-.144,2.291,2.291,0,0,1-2.294-.353c-1.407.069-2.467-.873-3.688-1.327C6.341,39.43,5.11,38.927,3.852,38.5a3.337,3.337,0,0,1-2.116-2.582A.923.923,0,0,1,1.82,35.2c.716-.884,1.151-2.02,2.386-2.445.779-.269,1.459-.826,2.238-1.093a3.836,3.836,0,0,0,2.369-1.656A20.8,20.8,0,0,0,19.107,34.67c1.294.224,2.478,1,3.864.861a14.456,14.456,0,0,0,3.568,1.054c.31.071.647.093.916.169,1.033.29,2.162-.016,3.144.541.1.055.3-.1.455-.117.827-.068,1.657-.1,2.481-.188.667-.076,1.135.641,1.909.329a3.26,3.26,0,0,1,1.863-.091c.633.15,1.088-.31,1.686-.224a8.13,8.13,0,0,0,2-.009,22.007,22.007,0,0,1,2.673-.548,4.511,4.511,0,0,0,2.694-.354,2.234,2.234,0,0,1,1.232-.113,4.956,4.956,0,0,0,2.879-.684c.864-.508,2.039-.214,2.738-1.1.851.527,1.575-.2,2.366-.273a6.212,6.212,0,0,0,2.372-.677,17.646,17.646,0,0,1,3.766-1.212,10.164,10.164,0,0,0,2.724-1.147c.9-.578,1.891-1.024,2.852-1.533" fill="#a3cfff"/>
          <path id="パス_24174" data-name="パス 24174" d="M65.484,28.323a4.363,4.363,0,0,1-.757.612c-1.266.634-2.523,1.3-3.838,1.818a11.028,11.028,0,0,1-2.372.629c-1.827.272-3.444,1.186-5.282,1.438-.426-.479.281-.866.193-1.337s-.357-.875-.007-1.389a1.054,1.054,0,0,0-.158-1.175.8.8,0,0,1-.061-.928c.08-.143.229-.332.19-.444-.51-1.44-.1-3.006-.584-4.419-.211-.62.373-1.1.018-1.669a10.44,10.44,0,0,1-.661-1.347c-.339-.766-.173-1.613-.489-2.424a67.605,67.605,0,0,0-3.19-7.278c-.078-.146-.1-.364-.216-.439C47.126,9.236,46.9,7.9,46.367,6.83a10.693,10.693,0,0,0-2.119-3,.509.509,0,0,1-.145-.2.891.891,0,0,1-.075-.469.482.482,0,0,1,.342-.287,9.454,9.454,0,0,1,3.171.384,28.571,28.571,0,0,1,5.113,1.853,3.482,3.482,0,0,0,1.193.271.738.738,0,0,1,.683.6c.06.233.173.631.291.642,1.228.115,1.386,1.607,2.5,1.884a2.166,2.166,0,0,1,.934.811c1.205,1.487,2.43,2.961,3.548,4.513a14.835,14.835,0,0,1,1.225,2.447c.172.371.189.858.446,1.138a3.046,3.046,0,0,1,.643,1.841,12.938,12.938,0,0,0,.556,2.915,11.668,11.668,0,0,1,.478,3.424c.064.821.195,1.638.329,2.729" fill="#a3cfff"/>
          <path id="パス_24175" data-name="パス 24175" d="M20.58,33.4a2.707,2.707,0,0,1-.9-.014c-2.252-.819-4.531-1.559-6.784-2.373-.231-.084-.454-.192-.678-.3a2.449,2.449,0,0,1-1.539-2.345,32.5,32.5,0,0,1,.088-4,17.635,17.635,0,0,1,.766-3.355,21.943,21.943,0,0,1,4.193-7.783c.754-.86,1.163-2.044,2.208-2.626.954-.53,1.3-1.753,2.448-2.03a.778.778,0,0,0,.376-.322,3.1,3.1,0,0,1,2.41-1.587c1-.962,2.416-.958,3.6-1.5a33.162,33.162,0,0,1,3.751-1.287,2.268,2.268,0,0,1,.776.072,25.665,25.665,0,0,0-5.456,5.721,3.312,3.312,0,0,0-.7,1.3,7.37,7.37,0,0,1-1.522,3.33,10.865,10.865,0,0,0-1.18,3.779c-.277,1.192-.4,2.46-.788,3.611-.41,1.2-.077,2.49-.683,3.658a4.184,4.184,0,0,0-.114,1.734c-.022,1.667-.023,3.334-.049,5A2.226,2.226,0,0,1,20.58,33.4" fill="#a3cfff"/>
          <path id="パス_24176" data-name="パス 24176" d="M8.37,28.409c.439-1.819.419-3.662,1.054-5.384a3.9,3.9,0,0,0,.013-1.246,6.132,6.132,0,0,1,.506-2.161c.251-.671.1-1.458.753-2.041.213-.191.059-.744.184-1.092.108-.3.541-.554.536-.822-.021-1.151,1.206-1.6,1.378-2.617,1.019-.833,1.359-2.269,2.675-2.879a3.04,3.04,0,0,0,1.088-1.28c.753-1.294,2.277-1.67,3.188-2.762a3.966,3.966,0,0,0,2.346-1.262c.688-.561,1.667-.644,2.307-1.4a3.439,3.439,0,0,1,1.531-.808c2.121-.706,4.259-1.364,6.39-2.04.079-.026.161-.09.234-.08,1.356.183,2.613-.423,3.931-.488C37.821-.018,39.163,0,40.5.021a7.066,7.066,0,0,1,1.2.254,2.36,2.36,0,0,0,.96.139,6.8,6.8,0,0,1,3.613.36,6.212,6.212,0,0,0,1.218.167,5.519,5.519,0,0,1,2.4.626,1.755,1.755,0,0,0,.455.212,7.138,7.138,0,0,1,3.9,2,1.461,1.461,0,0,0,.665.3c1.165.326,1.84,1.339,2.745,2.016.783.586,1.419,1.383,2.212,2.013a8.344,8.344,0,0,1,1.965,2.242,22.178,22.178,0,0,1,2.982,6.266c.329,1.449.909,2.837,1.236,4.3.079.352-.1.669-.031.929.189.714.622,1.373.756,2.091a12.263,12.263,0,0,1,.03,2.226,4.734,4.734,0,0,0,2.755,1.721c1.071.291,1.821,1.168,2.92,1.336a1.163,1.163,0,0,1,.59.44c.956,1.144,1.894,2.3,2.841,3.46a6.221,6.221,0,0,1-2.144,3.554c-.583.565-1.413.872-2.024,1.416a3.056,3.056,0,0,1-1.915,1.065,7.436,7.436,0,0,1-4.114,1.6,16.914,16.914,0,0,1-3.5,1.213c-.234.082-.484.117-.718.2-.585.2-1.08-.488-1.643-.188a6.064,6.064,0,0,1-1.555.769,1.921,1.921,0,0,1-1.413,0,1.16,1.16,0,0,0-.94.124,7.326,7.326,0,0,1-3.612.82c-.648.03-1.374.4-1.915.2-.692-.251-1.11.16-1.654.224-.577.069-1.178-.064-1.753.01-1.225.157-2.51-.233-3.689.412a.945.945,0,0,1-.736,0,1.889,1.889,0,0,0-1.9-.168c-.5.287-1.036-.219-1.651.093a2.759,2.759,0,0,1-1.954.116,15.548,15.548,0,0,0-4.451-.417,13.464,13.464,0,0,1-3.735-.319c-.764-.258-1.543.594-2.4.052a3.446,3.446,0,0,0-2.208-.228,6.894,6.894,0,0,1-1.5-.05c-.813-.11-1.614-.317-2.428-.412a15.151,15.151,0,0,1-2.49-.2c-.718-.214-1.384.366-2.139-.148-.477-.324-1.288-.16-1.949-.214-.084-.006-.168-.006-.251-.015-.772-.082-1.083-1.062-1.964-.975a2.121,2.121,0,0,1-1.863-.53,1.1,1.1,0,0,0-.636-.236C6.352,40.6,4.077,39.2,1.737,38A6.692,6.692,0,0,1,.283,36.633,1.167,1.167,0,0,1,.048,36.2a7.533,7.533,0,0,1,1-4,14.4,14.4,0,0,1,5.182-3.408,9.067,9.067,0,0,1,2.137-.384M25.1,12.482c.228,1.23-.381,2.357-.792,3.53a13.351,13.351,0,0,0-.627,1.622,32.948,32.948,0,0,0-1.117,7.851c.029.825-.515,1.588-.152,2.411-.6,1.1-.229,2.3-.3,3.449a2.653,2.653,0,0,0,.941,2.259A9.4,9.4,0,0,1,25.46,34a20.983,20.983,0,0,0,3.652.646,7.018,7.018,0,0,1,2.441.347c.413.206,1.078-.2,1.633.09a.58.58,0,0,0,.487-.017c.928-.585,1.951-.317,2.937-.356a13.625,13.625,0,0,1,2.258-.009c.843.11,1.611-.5,2.413-.225s1.406-.575,2.176-.288a8.1,8.1,0,0,1,2.912-.539c1.393-.158,2.747-.6,4.165-.684a3.511,3.511,0,0,0,1.122-.506,1.989,1.989,0,0,1-.153-1.733,4.07,4.07,0,0,0,.274-1.7,26.64,26.64,0,0,0-1.292-9.537,34.6,34.6,0,0,0-2.344-6.249A21.766,21.766,0,0,1,46.519,9.91c-.5-1.659-1.606-2.883-2.416-4.315a8.365,8.365,0,0,0-2.557-2.636,5.16,5.16,0,0,0-4.94-.715,12.286,12.286,0,0,0-3.995,1.962c-.916.719-1.8,1.487-2.728,2.184a27.961,27.961,0,0,0-2.659,2.935C27.095,10.614,26,11.264,25.1,12.482M67.034,28.494c-.961.509-1.949.955-2.852,1.533a10.15,10.15,0,0,1-2.724,1.147,17.608,17.608,0,0,0-3.766,1.212,6.212,6.212,0,0,1-2.371.677c-.792.075-1.516.8-2.367.273-.7.888-1.874.594-2.737,1.1a4.961,4.961,0,0,1-2.88.684,2.234,2.234,0,0,0-1.232.113,4.51,4.51,0,0,1-2.694.354,22.237,22.237,0,0,0-2.673.547,8.081,8.081,0,0,1-2,.01c-.6-.086-1.053.374-1.685.224a3.259,3.259,0,0,0-1.863.091c-.774.312-1.243-.4-1.91-.329-.824.093-1.654.12-2.481.188-.156.013-.358.172-.455.117-.981-.557-2.111-.251-3.144-.541-.269-.076-.6-.1-.916-.169a14.457,14.457,0,0,1-3.568-1.054c-1.386.138-2.57-.637-3.864-.861A20.8,20.8,0,0,1,8.556,29.148,3.836,3.836,0,0,1,6.187,30.8c-.779.267-1.459.824-2.238,1.092-1.235.426-1.67,1.561-2.386,2.446a.923.923,0,0,0-.084.717A3.337,3.337,0,0,0,3.6,37.641c1.258.427,2.489.931,3.731,1.392,1.221.454,2.281,1.4,3.688,1.327a2.293,2.293,0,0,0,2.3.353,1.554,1.554,0,0,1,.963.144,19.645,19.645,0,0,0,4.1.778,29.563,29.563,0,0,0,4.009.073,5.08,5.08,0,0,1,1.744.082,4.179,4.179,0,0,0,2.42.36c.975-.195,1.749.508,2.675.5,1.089-.009,2.179,0,3.267.042a8.8,8.8,0,0,0,1.676.186,3.614,3.614,0,0,1,1.691.051c.5.141,1.119-.182,1.684-.18a12.741,12.741,0,0,1,1.712.238c1.061.152,2.11.467,3.171-.113a1.883,1.883,0,0,1,1.217-.111,2.225,2.225,0,0,0,1.63-.1c1.48.455,2.871-.874,4.361-.213a27.96,27.96,0,0,1,6.413-.76,1.155,1.155,0,0,0,.689-.243,2.328,2.328,0,0,1,1.44-.327c.585,0,1.171,0,1.834,0a4.131,4.131,0,0,1,2.146-.95,10.7,10.7,0,0,0,3.808-1.018c.584-.3,1.26-.427,1.829-.749.645-.364,1.476-.177,2.027-.867.494-.62,1.5-.484,2.015-1.3.377-.6,1.141-.953,1.7-1.455a1.709,1.709,0,0,0,.277-1.859,8.218,8.218,0,0,0-3.126-2.729c-1.2-.533-2.4-1.082-3.639-1.7m-1.806-1.029c-.135-1.091-.265-1.907-.329-2.729a11.657,11.657,0,0,0-.478-3.423,12.9,12.9,0,0,1-.556-2.916,3.038,3.038,0,0,0-.644-1.84c-.256-.281-.273-.767-.446-1.139a14.68,14.68,0,0,0-1.225-2.447C60.433,11.42,59.207,9.945,58,8.458a2.162,2.162,0,0,0-.934-.81c-1.118-.277-1.277-1.77-2.5-1.884-.118-.011-.231-.41-.291-.643a.738.738,0,0,0-.683-.6,3.482,3.482,0,0,1-1.193-.27,28.5,28.5,0,0,0-5.113-1.854,9.457,9.457,0,0,0-3.172-.384.483.483,0,0,0-.341.287.893.893,0,0,0,.075.47.512.512,0,0,0,.145.2,10.674,10.674,0,0,1,2.118,3c.535,1.07.76,2.406,1.9,3.14.117.075.138.294.216.439a68,68,0,0,1,3.19,7.278c.316.811.15,1.658.489,2.424a10.436,10.436,0,0,0,.66,1.347c.356.566-.228,1.049-.017,1.669.48,1.413.074,2.979.583,4.419.04.113-.109.3-.189.444a.8.8,0,0,0,.06.928,1.056,1.056,0,0,1,.159,1.176c-.35.513-.079.927.007,1.389s-.619.857-.194,1.336c1.838-.252,3.456-1.166,5.283-1.437a11.145,11.145,0,0,0,2.372-.629c1.314-.518,2.572-1.184,3.838-1.818a4.36,4.36,0,0,0,.757-.613m-44.9,5.08a2.226,2.226,0,0,0,.225-1.307c.026-1.667.027-3.334.049-5a4.184,4.184,0,0,1,.114-1.734c.606-1.168.273-2.456.683-3.658.392-1.151.511-2.419.788-3.611a10.865,10.865,0,0,1,1.18-3.779,7.37,7.37,0,0,0,1.522-3.33,3.3,3.3,0,0,1,.7-1.3A25.616,25.616,0,0,1,31.038,3.1a2.268,2.268,0,0,0-.776-.072,33.162,33.162,0,0,0-3.751,1.287c-1.187.539-2.6.535-3.6,1.5A3.1,3.1,0,0,0,20.5,7.4a.778.778,0,0,1-.376.322c-1.149.277-1.494,1.5-2.448,2.03-1.046.582-1.454,1.766-2.208,2.626a21.943,21.943,0,0,0-4.193,7.783,17.557,17.557,0,0,0-.765,3.355,32.308,32.308,0,0,0-.089,4,2.45,2.45,0,0,0,1.539,2.345c.224.1.447.212.678.3,2.253.814,4.532,1.554,6.784,2.373a2.707,2.707,0,0,0,.9.014" fill="#242b3c"/>
        </g>
      </g>
    </g>
    <path id="パス_24148" data-name="パス 24148" d="M1.714,3.656,21.026,14.149,40.337,3.656,59.65,14.149,78.963,3.656,98.276,14.149,117.589,3.656,136.9,14.149,156.215,3.656" transform="translate(177.215 279.413)" fill="none" stroke="#81baff" stroke-miterlimit="10" stroke-width="4"/>
    <g transform="matrix(1, 0, 0, 1, -81, 25.74)" filter="url(#パス_24182)">
      <path id="パス_24182-2" data-name="パス 24182" d="M1.547,15.3S7.3,1.681,10.077.577s8.891,14.79,8.891,14.79l.1,8.673L19.1,44.825s-8.955,2.886-15.35.8S1.409,43.7,1.409,43.7Z" transform="matrix(0.97, 0.22, -0.22, 0.97, 181.7, 167.24)" fill="#fff"/>
    </g>
    <g id="グループ_3307" data-name="グループ 3307" transform="matrix(0.974, 0.225, -0.225, 0.974, 100.703, 192.982)">
      <g id="グループ_3306" data-name="グループ 3306" transform="translate(0 0)" clip-path="url(#clip-path-3)">
        <path id="パス_24178" data-name="パス 24178" d="M1.942,47.136c-.026-.7-.059-1.364-.075-2.031A6.486,6.486,0,0,0,1.6,42.936a2.846,2.846,0,0,1,.116-2.159,1.761,1.761,0,0,0-.015-1.553,2.646,2.646,0,0,1-.045-1.944,5.014,5.014,0,0,0,.23-1.158c.026-3.149.019-6.3.039-9.448a3.063,3.063,0,0,0-.173-1.17c-.191-.5.376-.97.177-1.508A5.578,5.578,0,0,0,2.3,21.257c.013-.661.087-1.322.14-2.086a14.557,14.557,0,0,0,4.606,1.211,14.092,14.092,0,0,0,3.574.2,6.084,6.084,0,0,1,1.907.018c1.21.254,2.358-.293,3.518-.559.616-.14,1.141-.735,1.854-.316l.857-.554a10.018,10.018,0,0,1,.346,2.558c-.124,1.015.3,1.942.18,2.945a23.942,23.942,0,0,0,.006,2.809c-.012,3.413-.045,6.828-.046,10.242,0,2.882.035,5.765.054,8.647,0,.334.02.67-.006,1a1.156,1.156,0,0,1-.932,1.152,13.865,13.865,0,0,1-3.888.82,3.884,3.884,0,0,0-.771.172,2.133,2.133,0,0,1-.965.1,12.187,12.187,0,0,0-4.19-.277A6.626,6.626,0,0,1,6.372,49.1a5.741,5.741,0,0,0-.975-.176,5.447,5.447,0,0,1-3.454-1.785" transform="translate(-0.285 -3.781)" fill="#fff"/>
        <path id="パス_24179" data-name="パス 24179" d="M2.169,47.621c-.026-.7-.059-1.364-.075-2.031a6.486,6.486,0,0,0-.262-2.168,2.846,2.846,0,0,1,.116-2.159,1.761,1.761,0,0,0-.015-1.553,2.646,2.646,0,0,1-.045-1.944,5.014,5.014,0,0,0,.23-1.158c.026-3.149.019-6.3.039-9.448a3.07,3.07,0,0,0-.173-1.171c-.191-.5.376-.969.177-1.507a5.578,5.578,0,0,0,.363-2.739c.013-.661.087-1.322.14-2.086A14.535,14.535,0,0,0,7.27,20.867a14.092,14.092,0,0,0,3.574.206,6.084,6.084,0,0,1,1.907.018c1.21.254,2.358-.293,3.518-.559.616-.14,1.141-.735,1.854-.317l.857-.553a10.013,10.013,0,0,1,.346,2.558c-.124,1.015.3,1.942.18,2.945a23.941,23.941,0,0,0,.006,2.809c-.011,3.413-.045,6.828-.046,10.241,0,2.883.035,5.766.054,8.648,0,.334.02.67-.006,1a1.156,1.156,0,0,1-.932,1.152,13.836,13.836,0,0,1-3.888.82,3.944,3.944,0,0,0-.771.173,2.132,2.132,0,0,1-.965.1,12.206,12.206,0,0,0-4.19-.276A6.627,6.627,0,0,1,6.6,49.581a5.9,5.9,0,0,0-.975-.176,5.442,5.442,0,0,1-3.454-1.785" transform="translate(-0.33 -3.876)" fill="#ffe680"/>
        <path id="パス_24180" data-name="パス 24180" d="M14.135,6.972c1.158,1.5,1.666,3.192,2.606,4.642.216.334.334.73.549,1.065a4.117,4.117,0,0,1,.877,2.184,2.325,2.325,0,0,0,.271.733,3.966,3.966,0,0,1-1.636.736,15.41,15.41,0,0,1-3.573.362,1.665,1.665,0,0,0-.778.138,1.418,1.418,0,0,1-1.339.009,2.726,2.726,0,0,0-.984-.127c-1.074-.034-2.149-.071-3.223-.063a6.351,6.351,0,0,1-1.98-.238,9.014,9.014,0,0,0-1.673-.193,3,3,0,0,1,.439-1.26c.186-.422.3-.874.474-1.3C4.71,12.3,5.556,11.1,6.21,9.8a4.319,4.319,0,0,0,.543-1.464A1.108,1.108,0,0,1,8.234,7.4c.192.043.372.136.561.2a4.793,4.793,0,0,0,3.862.149,8.07,8.07,0,0,0,1.478-.775" transform="translate(-0.641 -1.375)" fill="#fff"/>
        <path id="パス_24181" data-name="パス 24181" d="M9.673,0a5.554,5.554,0,0,0,1.061.351,1.488,1.488,0,0,1,1.112.775A3.333,3.333,0,0,0,13.021,2.46c.208.108.283.448.473.62.66.6.647,1.565,1.338,2.195a8.016,8.016,0,0,1,1.257,2.019c.431.75.878,1.493,1.25,2.273a13.475,13.475,0,0,1,.946,2.192c.17.609.717,1.11.853,1.784.039.193.208.425.147.562a1.473,1.473,0,0,0,.364,1.628,2.3,2.3,0,0,1,.521,1.663c0,2.143.019,4.288.031,6.432,0,.67-.018,1.341.008,2.009a4.338,4.338,0,0,1-.316,1.948,4.236,4.236,0,0,1,.306,1.95q-.007,5.024.039,10.049a3.764,3.764,0,0,0,.236,1.973,1.348,1.348,0,0,1-.01.78c-.052.326-.289.682-.21.958.282.989-.531,1.486-.942,2.11a2.717,2.717,0,0,1-1.372.727,15.146,15.146,0,0,0-1.916.514c-.53.267-1.021-.261-1.524.128-.424.328-.893.058-1.325-.14a.716.716,0,0,0-.39-.055c-.59.092-1.173.251-1.764.295-.517.039-.976-.462-1.549-.217a.942.942,0,0,1-.556.051c-.507-.128-1-.3-1.505-.454-.6.488-1.143-.177-1.729-.077a2.969,2.969,0,0,1-1.545-.36c-1.166.352-2.024-.3-2.891-.9a1.089,1.089,0,0,1-.4-.409c-.365-.9-1.056-1.745-.5-2.806.034-1.273.09-2.546.088-3.819a4.761,4.761,0,0,0-.25-1.16,1.96,1.96,0,0,1,.079-1.553,2.022,2.022,0,0,0,.024-1.752A8.839,8.839,0,0,1,.167,29.65a6.132,6.132,0,0,0,.026-1.717c-.127-.666.248-1.4.21-2.147-.048-.934.051-1.874.043-2.811a2,2,0,0,1,.271-1.343.413.413,0,0,0,.053-.371c-.415-.573.289-1.166-.039-1.715A1.4,1.4,0,0,1,.745,18.23a2.52,2.52,0,0,0,.114-1.9,2.662,2.662,0,0,1,.189-1.555c.337-1.3,1.221-2.36,1.528-3.67.069-.3.405-.525.59-.8a2.5,2.5,0,0,0,.466-.857,5.847,5.847,0,0,1,1.5-2.751c.169-.2.454-.405.47-.625a2.3,2.3,0,0,1,.8-1.759c.547-.431.347-1.279,1.036-1.669.267-.152.336-.69.45-1.066A1.835,1.835,0,0,1,9.24.231,2.47,2.47,0,0,0,9.673,0M1.651,43.351a5.442,5.442,0,0,0,3.454,1.785,5.831,5.831,0,0,1,.976.177,6.621,6.621,0,0,0,2.171.254,12.186,12.186,0,0,1,4.19.277,2.143,2.143,0,0,0,.965-.1,3.9,3.9,0,0,1,.771-.172,13.853,13.853,0,0,0,3.888-.82A1.156,1.156,0,0,0,19,43.6c.026-.333.008-.669.006-1-.018-2.883-.054-5.766-.053-8.647,0-3.414.034-6.828.045-10.242a24.117,24.117,0,0,1-.006-2.809c.123-1-.3-1.931-.18-2.945a9.978,9.978,0,0,0-.346-2.558l-.857.553c-.713-.418-1.238.176-1.854.317-1.159.266-2.308.813-3.518.559a6.084,6.084,0,0,0-1.907-.018A14.129,14.129,0,0,1,6.753,16.6a14.54,14.54,0,0,1-4.606-1.211c-.054.764-.127,1.425-.14,2.086a5.569,5.569,0,0,1-.363,2.739c.2.538-.368,1.006-.177,1.507a3.086,3.086,0,0,1,.174,1.171c-.021,3.149-.014,6.3-.04,9.447A5.012,5.012,0,0,1,1.37,33.5a2.646,2.646,0,0,0,.045,1.944,1.761,1.761,0,0,1,.015,1.553,2.85,2.85,0,0,0-.116,2.159,6.486,6.486,0,0,1,.262,2.168c.017.667.049,1.333.075,2.031M13.488,5.594a8.07,8.07,0,0,1-1.478.775,4.793,4.793,0,0,1-3.862-.149c-.189-.062-.368-.155-.561-.2a1.108,1.108,0,0,0-1.481.933,4.319,4.319,0,0,1-.543,1.464c-.654,1.3-1.5,2.5-2.045,3.861-.173.429-.288.881-.474,1.3a3,3,0,0,0-.439,1.26,9.014,9.014,0,0,1,1.673.193,6.351,6.351,0,0,0,1.98.238c1.074-.007,2.149.029,3.223.063a2.726,2.726,0,0,1,.984.127,1.418,1.418,0,0,0,1.339-.009,1.665,1.665,0,0,1,.778-.138,15.41,15.41,0,0,0,3.573-.362,3.966,3.966,0,0,0,1.636-.736,2.328,2.328,0,0,1-.271-.732,4.117,4.117,0,0,0-.877-2.184c-.215-.335-.333-.731-.549-1.065-.94-1.451-1.447-3.14-2.606-4.642" transform="translate(0 0)" fill="#302a25"/>
      </g>
    </g>
  </g>
</svg>
