<svg xmlns="http://www.w3.org/2000/svg" width="495.378" height="59.86" viewBox="0 0 495.378 59.86">
  <path id="voice_tit" d="M-239.4,0l-8.979-51.976h12.41l5.767,42.34,5.986-42.34h11.9L-221.738,0Zm30.952-42.632a10.091,10.091,0,0,1,1.241-5.183,9.173,9.173,0,0,1,3.395-3.358,16.01,16.01,0,0,1,5.11-1.789,35.1,35.1,0,0,1,6.387-.548,34.072,34.072,0,0,1,6.278.548,15.448,15.448,0,0,1,5.074,1.825,9.552,9.552,0,0,1,3.395,3.358,10.046,10.046,0,0,1,1.241,5.219V-9.344a10.046,10.046,0,0,1-1.241,5.22,9.552,9.552,0,0,1-3.395,3.358,15.449,15.449,0,0,1-5.074,1.825,34.072,34.072,0,0,1-6.278.548,35.1,35.1,0,0,1-6.387-.548,16.01,16.01,0,0,1-5.11-1.788,9.173,9.173,0,0,1-3.395-3.358,10.091,10.091,0,0,1-1.241-5.183Zm19.783-1.022q0-3.285-3.65-3.285t-3.65,3.285v35.4q0,3.285,3.65,3.285t3.65-3.285ZM-169.688,0V-51.976h12.41V0Zm38.836-20.221h11.461V-9.344a11.132,11.132,0,0,1-1.1,5.22,8.752,8.752,0,0,1-3.1,3.358,13.8,13.8,0,0,1-4.781,1.825,31.744,31.744,0,0,1-6.132.548,35.1,35.1,0,0,1-6.387-.548A16.01,16.01,0,0,1-146-.73a9.173,9.173,0,0,1-3.395-3.358,10.091,10.091,0,0,1-1.241-5.183V-42.632a10.091,10.091,0,0,1,1.241-5.183A9.173,9.173,0,0,1-146-51.173a16.01,16.01,0,0,1,5.11-1.789,35.1,35.1,0,0,1,6.387-.548,31.744,31.744,0,0,1,6.132.548,13.8,13.8,0,0,1,4.781,1.825,8.752,8.752,0,0,1,3.1,3.358,11.132,11.132,0,0,1,1.1,5.219v9.782h-11.461V-43.654q0-3.285-3.65-3.285t-3.65,3.285v35.4q0,3.285,3.65,3.285t3.65-3.285ZM-113.479,0V-51.976H-86.1V-44.9h-14.965v13.067h14.527v6.862h-14.527V-7.154h15.038V0Zm59.057,0V-45.333h-10v-6.643h32.339v6.643h-9.928V0Zm25.331-42.632a10.091,10.091,0,0,1,1.241-5.183,9.173,9.173,0,0,1,3.395-3.358,16.01,16.01,0,0,1,5.11-1.789,35.1,35.1,0,0,1,6.387-.548,34.072,34.072,0,0,1,6.278.548,15.449,15.449,0,0,1,5.073,1.825,9.552,9.552,0,0,1,3.394,3.358,10.046,10.046,0,0,1,1.241,5.219V-9.344a10.046,10.046,0,0,1-1.241,5.22A9.552,9.552,0,0,1-1.606-.766,15.449,15.449,0,0,1-6.68,1.058a34.072,34.072,0,0,1-6.278.548,35.1,35.1,0,0,1-6.387-.548A16.01,16.01,0,0,1-24.455-.73,9.173,9.173,0,0,1-27.85-4.088a10.091,10.091,0,0,1-1.241-5.183Zm19.783-1.022q0-3.285-3.65-3.285t-3.65,3.285v35.4q0,3.285,3.65,3.285t3.65-3.285ZM27.7,0V-51.976h12.41V0ZM66.831,0V-43.654q0-3.285-3.65-3.285t-3.65,3.285V0H47.048V-42.632a10.091,10.091,0,0,1,1.241-5.183,9.173,9.173,0,0,1,3.395-3.358,16.01,16.01,0,0,1,5.11-1.789,35.1,35.1,0,0,1,6.387-.548,34.072,34.072,0,0,1,6.278.548,15.448,15.448,0,0,1,5.074,1.825,9.552,9.552,0,0,1,3.395,3.358,10.046,10.046,0,0,1,1.241,5.219V0Zm50.589,5.694a12.212,12.212,0,0,1-4.38.657q-4.234,0-6.205-1.131A4.922,4.922,0,0,1,104.5,1.314q-.73.073-1.5.11t-1.57.036A35.1,35.1,0,0,1,95.046.913a16.01,16.01,0,0,1-5.11-1.789,9.173,9.173,0,0,1-3.395-3.358A10.091,10.091,0,0,1,85.3-9.417V-42.632a10.091,10.091,0,0,1,1.241-5.183,9.173,9.173,0,0,1,3.395-3.358,16.01,16.01,0,0,1,5.11-1.789,35.1,35.1,0,0,1,6.387-.548,34.072,34.072,0,0,1,6.278.548,15.449,15.449,0,0,1,5.074,1.825,9.552,9.552,0,0,1,3.395,3.358,10.046,10.046,0,0,1,1.241,5.219V-9.49a9.787,9.787,0,0,1-1.715,6.059A10.521,10.521,0,0,1,110.924,0h6.5ZM105.084-43.654q0-3.285-3.65-3.285t-3.65,3.285V-8.4q0,3.285,3.65,3.285t3.65-3.285Zm37.595-8.322h12.191V-9.344A10.6,10.6,0,0,1,153.7-4.161,8.787,8.787,0,0,1,150.453-.8,15.125,15.125,0,0,1,145.525.986a33.322,33.322,0,0,1-6.278.547,32.9,32.9,0,0,1-6.205-.547A15.018,15.018,0,0,1,128.078-.84,9.343,9.343,0,0,1,124.757-4.2a10.29,10.29,0,0,1-1.2-5.219V-51.976h12.337V-8.322a3.485,3.485,0,0,0,.766,2.482,3.478,3.478,0,0,0,2.592.8q3.431,0,3.431-3.285ZM161.8,0V-51.976h12.41V0Zm39.128,0V-17.958q0-4.964-4.6-4.964h-2.7V0H181.15V-42.632a10.091,10.091,0,0,1,1.241-5.183,9.173,9.173,0,0,1,3.394-3.358,16.01,16.01,0,0,1,5.11-1.789,35.1,35.1,0,0,1,6.388-.548,31.744,31.744,0,0,1,6.132.548,14.194,14.194,0,0,1,4.818,1.825,8.944,8.944,0,0,1,3.176,3.358,10.831,10.831,0,0,1,1.131,5.219v8.468a7.672,7.672,0,0,1-2.044,5.73q-2.044,2.007-6.789,2.372,4.745.438,6.971,2.19A5.794,5.794,0,0,1,212.9-18.98V0Zm0-43.654q0-3.285-3.65-3.285t-3.65,3.285v14.892h2.7a4.976,4.976,0,0,0,3.395-1.059,4.615,4.615,0,0,0,1.2-3.614ZM219.548,0V-51.976h27.375V-44.9H231.957v13.067h14.527v6.862H231.957V-7.154H247V0Z" transform="translate(248.383 53.509)" fill="#ffae1a" opacity="0.89"/>
</svg>
